G04 #@! TF.GenerationSoftware,KiCad,Pcbnew,(5.1.5-0-10_14)*
G04 #@! TF.CreationDate,2021-05-04T04:37:26-04:00*
G04 #@! TF.ProjectId,RAM2GS,52414d32-4753-42e6-9b69-6361645f7063,2.0*
G04 #@! TF.SameCoordinates,Original*
G04 #@! TF.FileFunction,Legend,Bot*
G04 #@! TF.FilePolarity,Positive*
%FSLAX46Y46*%
G04 Gerber Fmt 4.6, Leading zero omitted, Abs format (unit mm)*
G04 Created by KiCad (PCBNEW (5.1.5-0-10_14)) date 2021-05-04 04:37:26*
%MOMM*%
%LPD*%
G04 APERTURE LIST*
%ADD10C,0.200000*%
%ADD11C,0.190500*%
%ADD12C,0.203200*%
%ADD13C,0.100000*%
%ADD14C,2.524900*%
%ADD15C,1.140600*%
%ADD16C,2.150000*%
%ADD17C,1.448000*%
G04 APERTURE END LIST*
D10*
X47625000Y-119634000D02*
X48006000Y-119253000D01*
X47498000Y-103251000D02*
X49276000Y-102235000D01*
X49276000Y-102235000D02*
X49276000Y-104267000D01*
X47625000Y-105537000D02*
X48006000Y-105156000D01*
X48895000Y-105537000D02*
X47625000Y-105537000D01*
X47625000Y-119634000D02*
X48006000Y-120015000D01*
X48895000Y-119634000D02*
X47625000Y-119634000D01*
X47625000Y-105537000D02*
X48006000Y-105918000D01*
X49276000Y-104267000D02*
X47498000Y-103251000D01*
X47691523Y-106873523D02*
X47691523Y-107599238D01*
X48961523Y-107236380D02*
X47691523Y-107236380D01*
X48961523Y-108204000D02*
X48901047Y-108083047D01*
X48840571Y-108022571D01*
X48719619Y-107962095D01*
X48356761Y-107962095D01*
X48235809Y-108022571D01*
X48175333Y-108083047D01*
X48114857Y-108204000D01*
X48114857Y-108385428D01*
X48175333Y-108506380D01*
X48235809Y-108566857D01*
X48356761Y-108627333D01*
X48719619Y-108627333D01*
X48840571Y-108566857D01*
X48901047Y-108506380D01*
X48961523Y-108385428D01*
X48961523Y-108204000D01*
X48114857Y-109050666D02*
X48961523Y-109292571D01*
X48356761Y-109534476D01*
X48961523Y-109776380D01*
X48114857Y-110018285D01*
X48961523Y-111046380D02*
X48296285Y-111046380D01*
X48175333Y-110985904D01*
X48114857Y-110864952D01*
X48114857Y-110623047D01*
X48175333Y-110502095D01*
X48901047Y-111046380D02*
X48961523Y-110925428D01*
X48961523Y-110623047D01*
X48901047Y-110502095D01*
X48780095Y-110441619D01*
X48659142Y-110441619D01*
X48538190Y-110502095D01*
X48477714Y-110623047D01*
X48477714Y-110925428D01*
X48417238Y-111046380D01*
X48961523Y-111651142D02*
X48114857Y-111651142D01*
X48356761Y-111651142D02*
X48235809Y-111711619D01*
X48175333Y-111772095D01*
X48114857Y-111893047D01*
X48114857Y-112014000D01*
X48961523Y-112981619D02*
X47691523Y-112981619D01*
X48901047Y-112981619D02*
X48961523Y-112860666D01*
X48961523Y-112618761D01*
X48901047Y-112497809D01*
X48840571Y-112437333D01*
X48719619Y-112376857D01*
X48356761Y-112376857D01*
X48235809Y-112437333D01*
X48175333Y-112497809D01*
X48114857Y-112618761D01*
X48114857Y-112860666D01*
X48175333Y-112981619D01*
X48961523Y-115279714D02*
X48356761Y-114856380D01*
X48961523Y-114554000D02*
X47691523Y-114554000D01*
X47691523Y-115037809D01*
X47752000Y-115158761D01*
X47812476Y-115219238D01*
X47933428Y-115279714D01*
X48114857Y-115279714D01*
X48235809Y-115219238D01*
X48296285Y-115158761D01*
X48356761Y-115037809D01*
X48356761Y-114554000D01*
X48901047Y-116307809D02*
X48961523Y-116186857D01*
X48961523Y-115944952D01*
X48901047Y-115824000D01*
X48780095Y-115763523D01*
X48296285Y-115763523D01*
X48175333Y-115824000D01*
X48114857Y-115944952D01*
X48114857Y-116186857D01*
X48175333Y-116307809D01*
X48296285Y-116368285D01*
X48417238Y-116368285D01*
X48538190Y-115763523D01*
X48961523Y-117456857D02*
X48296285Y-117456857D01*
X48175333Y-117396380D01*
X48114857Y-117275428D01*
X48114857Y-117033523D01*
X48175333Y-116912571D01*
X48901047Y-117456857D02*
X48961523Y-117335904D01*
X48961523Y-117033523D01*
X48901047Y-116912571D01*
X48780095Y-116852095D01*
X48659142Y-116852095D01*
X48538190Y-116912571D01*
X48477714Y-117033523D01*
X48477714Y-117335904D01*
X48417238Y-117456857D01*
X48961523Y-118061619D02*
X48114857Y-118061619D01*
X48356761Y-118061619D02*
X48235809Y-118122095D01*
X48175333Y-118182571D01*
X48114857Y-118303523D01*
X48114857Y-118424476D01*
D11*
X48913142Y-103251000D02*
X48949428Y-103287285D01*
X48985714Y-103251000D01*
X48949428Y-103214714D01*
X48913142Y-103251000D01*
X48985714Y-103251000D01*
X48695428Y-103251000D02*
X48260000Y-103214714D01*
X48223714Y-103251000D01*
X48260000Y-103287285D01*
X48695428Y-103251000D01*
X48223714Y-103251000D01*
D12*
X55021238Y-129983895D02*
X54479371Y-129983895D01*
X55021238Y-130796695D01*
X54479371Y-130796695D01*
X54169733Y-130796695D02*
X54169733Y-129983895D01*
X53705276Y-130796695D02*
X54053619Y-130332238D01*
X53705276Y-129983895D02*
X54169733Y-130448352D01*
X53318228Y-130757990D02*
X53318228Y-130796695D01*
X53356933Y-130874104D01*
X53395638Y-130912809D01*
X51924857Y-130022600D02*
X52002266Y-129983895D01*
X52118380Y-129983895D01*
X52234495Y-130022600D01*
X52311904Y-130100009D01*
X52350609Y-130177419D01*
X52389314Y-130332238D01*
X52389314Y-130448352D01*
X52350609Y-130603171D01*
X52311904Y-130680580D01*
X52234495Y-130757990D01*
X52118380Y-130796695D01*
X52040971Y-130796695D01*
X51924857Y-130757990D01*
X51886152Y-130719285D01*
X51886152Y-130448352D01*
X52040971Y-130448352D01*
X51266876Y-130370942D02*
X51537809Y-130370942D01*
X51537809Y-130796695D02*
X51537809Y-129983895D01*
X51150761Y-129983895D01*
%LPC*%
D13*
G36*
X113538000Y-139446000D02*
G01*
X113030000Y-139954000D01*
X55626000Y-139954000D01*
X55118000Y-139446000D01*
X55118000Y-132080000D01*
X113538000Y-132080000D01*
X113538000Y-139446000D01*
G37*
D14*
X106617090Y-100965987D03*
X103024987Y-104558090D03*
X98983872Y-100516974D03*
X102575974Y-96924872D03*
D15*
X100779923Y-98720923D03*
X105449656Y-104827497D03*
X106886497Y-103390656D03*
D13*
G36*
X111457520Y-131539015D02*
G01*
X111498145Y-131545041D01*
X111537984Y-131555020D01*
X111576653Y-131568856D01*
X111613780Y-131586416D01*
X111649006Y-131607530D01*
X111681994Y-131631995D01*
X111712424Y-131659576D01*
X111740005Y-131690006D01*
X111764470Y-131722994D01*
X111785584Y-131758220D01*
X111803144Y-131795347D01*
X111816980Y-131834016D01*
X111826959Y-131873855D01*
X111832985Y-131914480D01*
X111835000Y-131955500D01*
X111835000Y-138608500D01*
X111832985Y-138649520D01*
X111826959Y-138690145D01*
X111816980Y-138729984D01*
X111803144Y-138768653D01*
X111785584Y-138805780D01*
X111764470Y-138841006D01*
X111740005Y-138873994D01*
X111712424Y-138904424D01*
X111681994Y-138932005D01*
X111649006Y-138956470D01*
X111613780Y-138977584D01*
X111576653Y-138995144D01*
X111537984Y-139008980D01*
X111498145Y-139018959D01*
X111457520Y-139024985D01*
X111416500Y-139027000D01*
X110579500Y-139027000D01*
X110538480Y-139024985D01*
X110497855Y-139018959D01*
X110458016Y-139008980D01*
X110419347Y-138995144D01*
X110382220Y-138977584D01*
X110346994Y-138956470D01*
X110314006Y-138932005D01*
X110283576Y-138904424D01*
X110255995Y-138873994D01*
X110231530Y-138841006D01*
X110210416Y-138805780D01*
X110192856Y-138768653D01*
X110179020Y-138729984D01*
X110169041Y-138690145D01*
X110163015Y-138649520D01*
X110161000Y-138608500D01*
X110161000Y-131955500D01*
X110163015Y-131914480D01*
X110169041Y-131873855D01*
X110179020Y-131834016D01*
X110192856Y-131795347D01*
X110210416Y-131758220D01*
X110231530Y-131722994D01*
X110255995Y-131690006D01*
X110283576Y-131659576D01*
X110314006Y-131631995D01*
X110346994Y-131607530D01*
X110382220Y-131586416D01*
X110419347Y-131568856D01*
X110458016Y-131555020D01*
X110497855Y-131545041D01*
X110538480Y-131539015D01*
X110579500Y-131537000D01*
X111416500Y-131537000D01*
X111457520Y-131539015D01*
G37*
G36*
X108917520Y-131539015D02*
G01*
X108958145Y-131545041D01*
X108997984Y-131555020D01*
X109036653Y-131568856D01*
X109073780Y-131586416D01*
X109109006Y-131607530D01*
X109141994Y-131631995D01*
X109172424Y-131659576D01*
X109200005Y-131690006D01*
X109224470Y-131722994D01*
X109245584Y-131758220D01*
X109263144Y-131795347D01*
X109276980Y-131834016D01*
X109286959Y-131873855D01*
X109292985Y-131914480D01*
X109295000Y-131955500D01*
X109295000Y-138608500D01*
X109292985Y-138649520D01*
X109286959Y-138690145D01*
X109276980Y-138729984D01*
X109263144Y-138768653D01*
X109245584Y-138805780D01*
X109224470Y-138841006D01*
X109200005Y-138873994D01*
X109172424Y-138904424D01*
X109141994Y-138932005D01*
X109109006Y-138956470D01*
X109073780Y-138977584D01*
X109036653Y-138995144D01*
X108997984Y-139008980D01*
X108958145Y-139018959D01*
X108917520Y-139024985D01*
X108876500Y-139027000D01*
X108039500Y-139027000D01*
X107998480Y-139024985D01*
X107957855Y-139018959D01*
X107918016Y-139008980D01*
X107879347Y-138995144D01*
X107842220Y-138977584D01*
X107806994Y-138956470D01*
X107774006Y-138932005D01*
X107743576Y-138904424D01*
X107715995Y-138873994D01*
X107691530Y-138841006D01*
X107670416Y-138805780D01*
X107652856Y-138768653D01*
X107639020Y-138729984D01*
X107629041Y-138690145D01*
X107623015Y-138649520D01*
X107621000Y-138608500D01*
X107621000Y-131955500D01*
X107623015Y-131914480D01*
X107629041Y-131873855D01*
X107639020Y-131834016D01*
X107652856Y-131795347D01*
X107670416Y-131758220D01*
X107691530Y-131722994D01*
X107715995Y-131690006D01*
X107743576Y-131659576D01*
X107774006Y-131631995D01*
X107806994Y-131607530D01*
X107842220Y-131586416D01*
X107879347Y-131568856D01*
X107918016Y-131555020D01*
X107957855Y-131545041D01*
X107998480Y-131539015D01*
X108039500Y-131537000D01*
X108876500Y-131537000D01*
X108917520Y-131539015D01*
G37*
G36*
X106377520Y-131539015D02*
G01*
X106418145Y-131545041D01*
X106457984Y-131555020D01*
X106496653Y-131568856D01*
X106533780Y-131586416D01*
X106569006Y-131607530D01*
X106601994Y-131631995D01*
X106632424Y-131659576D01*
X106660005Y-131690006D01*
X106684470Y-131722994D01*
X106705584Y-131758220D01*
X106723144Y-131795347D01*
X106736980Y-131834016D01*
X106746959Y-131873855D01*
X106752985Y-131914480D01*
X106755000Y-131955500D01*
X106755000Y-138608500D01*
X106752985Y-138649520D01*
X106746959Y-138690145D01*
X106736980Y-138729984D01*
X106723144Y-138768653D01*
X106705584Y-138805780D01*
X106684470Y-138841006D01*
X106660005Y-138873994D01*
X106632424Y-138904424D01*
X106601994Y-138932005D01*
X106569006Y-138956470D01*
X106533780Y-138977584D01*
X106496653Y-138995144D01*
X106457984Y-139008980D01*
X106418145Y-139018959D01*
X106377520Y-139024985D01*
X106336500Y-139027000D01*
X105499500Y-139027000D01*
X105458480Y-139024985D01*
X105417855Y-139018959D01*
X105378016Y-139008980D01*
X105339347Y-138995144D01*
X105302220Y-138977584D01*
X105266994Y-138956470D01*
X105234006Y-138932005D01*
X105203576Y-138904424D01*
X105175995Y-138873994D01*
X105151530Y-138841006D01*
X105130416Y-138805780D01*
X105112856Y-138768653D01*
X105099020Y-138729984D01*
X105089041Y-138690145D01*
X105083015Y-138649520D01*
X105081000Y-138608500D01*
X105081000Y-131955500D01*
X105083015Y-131914480D01*
X105089041Y-131873855D01*
X105099020Y-131834016D01*
X105112856Y-131795347D01*
X105130416Y-131758220D01*
X105151530Y-131722994D01*
X105175995Y-131690006D01*
X105203576Y-131659576D01*
X105234006Y-131631995D01*
X105266994Y-131607530D01*
X105302220Y-131586416D01*
X105339347Y-131568856D01*
X105378016Y-131555020D01*
X105417855Y-131545041D01*
X105458480Y-131539015D01*
X105499500Y-131537000D01*
X106336500Y-131537000D01*
X106377520Y-131539015D01*
G37*
G36*
X103837520Y-131539015D02*
G01*
X103878145Y-131545041D01*
X103917984Y-131555020D01*
X103956653Y-131568856D01*
X103993780Y-131586416D01*
X104029006Y-131607530D01*
X104061994Y-131631995D01*
X104092424Y-131659576D01*
X104120005Y-131690006D01*
X104144470Y-131722994D01*
X104165584Y-131758220D01*
X104183144Y-131795347D01*
X104196980Y-131834016D01*
X104206959Y-131873855D01*
X104212985Y-131914480D01*
X104215000Y-131955500D01*
X104215000Y-138608500D01*
X104212985Y-138649520D01*
X104206959Y-138690145D01*
X104196980Y-138729984D01*
X104183144Y-138768653D01*
X104165584Y-138805780D01*
X104144470Y-138841006D01*
X104120005Y-138873994D01*
X104092424Y-138904424D01*
X104061994Y-138932005D01*
X104029006Y-138956470D01*
X103993780Y-138977584D01*
X103956653Y-138995144D01*
X103917984Y-139008980D01*
X103878145Y-139018959D01*
X103837520Y-139024985D01*
X103796500Y-139027000D01*
X102959500Y-139027000D01*
X102918480Y-139024985D01*
X102877855Y-139018959D01*
X102838016Y-139008980D01*
X102799347Y-138995144D01*
X102762220Y-138977584D01*
X102726994Y-138956470D01*
X102694006Y-138932005D01*
X102663576Y-138904424D01*
X102635995Y-138873994D01*
X102611530Y-138841006D01*
X102590416Y-138805780D01*
X102572856Y-138768653D01*
X102559020Y-138729984D01*
X102549041Y-138690145D01*
X102543015Y-138649520D01*
X102541000Y-138608500D01*
X102541000Y-131955500D01*
X102543015Y-131914480D01*
X102549041Y-131873855D01*
X102559020Y-131834016D01*
X102572856Y-131795347D01*
X102590416Y-131758220D01*
X102611530Y-131722994D01*
X102635995Y-131690006D01*
X102663576Y-131659576D01*
X102694006Y-131631995D01*
X102726994Y-131607530D01*
X102762220Y-131586416D01*
X102799347Y-131568856D01*
X102838016Y-131555020D01*
X102877855Y-131545041D01*
X102918480Y-131539015D01*
X102959500Y-131537000D01*
X103796500Y-131537000D01*
X103837520Y-131539015D01*
G37*
G36*
X101297520Y-131539015D02*
G01*
X101338145Y-131545041D01*
X101377984Y-131555020D01*
X101416653Y-131568856D01*
X101453780Y-131586416D01*
X101489006Y-131607530D01*
X101521994Y-131631995D01*
X101552424Y-131659576D01*
X101580005Y-131690006D01*
X101604470Y-131722994D01*
X101625584Y-131758220D01*
X101643144Y-131795347D01*
X101656980Y-131834016D01*
X101666959Y-131873855D01*
X101672985Y-131914480D01*
X101675000Y-131955500D01*
X101675000Y-138608500D01*
X101672985Y-138649520D01*
X101666959Y-138690145D01*
X101656980Y-138729984D01*
X101643144Y-138768653D01*
X101625584Y-138805780D01*
X101604470Y-138841006D01*
X101580005Y-138873994D01*
X101552424Y-138904424D01*
X101521994Y-138932005D01*
X101489006Y-138956470D01*
X101453780Y-138977584D01*
X101416653Y-138995144D01*
X101377984Y-139008980D01*
X101338145Y-139018959D01*
X101297520Y-139024985D01*
X101256500Y-139027000D01*
X100419500Y-139027000D01*
X100378480Y-139024985D01*
X100337855Y-139018959D01*
X100298016Y-139008980D01*
X100259347Y-138995144D01*
X100222220Y-138977584D01*
X100186994Y-138956470D01*
X100154006Y-138932005D01*
X100123576Y-138904424D01*
X100095995Y-138873994D01*
X100071530Y-138841006D01*
X100050416Y-138805780D01*
X100032856Y-138768653D01*
X100019020Y-138729984D01*
X100009041Y-138690145D01*
X100003015Y-138649520D01*
X100001000Y-138608500D01*
X100001000Y-131955500D01*
X100003015Y-131914480D01*
X100009041Y-131873855D01*
X100019020Y-131834016D01*
X100032856Y-131795347D01*
X100050416Y-131758220D01*
X100071530Y-131722994D01*
X100095995Y-131690006D01*
X100123576Y-131659576D01*
X100154006Y-131631995D01*
X100186994Y-131607530D01*
X100222220Y-131586416D01*
X100259347Y-131568856D01*
X100298016Y-131555020D01*
X100337855Y-131545041D01*
X100378480Y-131539015D01*
X100419500Y-131537000D01*
X101256500Y-131537000D01*
X101297520Y-131539015D01*
G37*
G36*
X98757520Y-131539015D02*
G01*
X98798145Y-131545041D01*
X98837984Y-131555020D01*
X98876653Y-131568856D01*
X98913780Y-131586416D01*
X98949006Y-131607530D01*
X98981994Y-131631995D01*
X99012424Y-131659576D01*
X99040005Y-131690006D01*
X99064470Y-131722994D01*
X99085584Y-131758220D01*
X99103144Y-131795347D01*
X99116980Y-131834016D01*
X99126959Y-131873855D01*
X99132985Y-131914480D01*
X99135000Y-131955500D01*
X99135000Y-138608500D01*
X99132985Y-138649520D01*
X99126959Y-138690145D01*
X99116980Y-138729984D01*
X99103144Y-138768653D01*
X99085584Y-138805780D01*
X99064470Y-138841006D01*
X99040005Y-138873994D01*
X99012424Y-138904424D01*
X98981994Y-138932005D01*
X98949006Y-138956470D01*
X98913780Y-138977584D01*
X98876653Y-138995144D01*
X98837984Y-139008980D01*
X98798145Y-139018959D01*
X98757520Y-139024985D01*
X98716500Y-139027000D01*
X97879500Y-139027000D01*
X97838480Y-139024985D01*
X97797855Y-139018959D01*
X97758016Y-139008980D01*
X97719347Y-138995144D01*
X97682220Y-138977584D01*
X97646994Y-138956470D01*
X97614006Y-138932005D01*
X97583576Y-138904424D01*
X97555995Y-138873994D01*
X97531530Y-138841006D01*
X97510416Y-138805780D01*
X97492856Y-138768653D01*
X97479020Y-138729984D01*
X97469041Y-138690145D01*
X97463015Y-138649520D01*
X97461000Y-138608500D01*
X97461000Y-131955500D01*
X97463015Y-131914480D01*
X97469041Y-131873855D01*
X97479020Y-131834016D01*
X97492856Y-131795347D01*
X97510416Y-131758220D01*
X97531530Y-131722994D01*
X97555995Y-131690006D01*
X97583576Y-131659576D01*
X97614006Y-131631995D01*
X97646994Y-131607530D01*
X97682220Y-131586416D01*
X97719347Y-131568856D01*
X97758016Y-131555020D01*
X97797855Y-131545041D01*
X97838480Y-131539015D01*
X97879500Y-131537000D01*
X98716500Y-131537000D01*
X98757520Y-131539015D01*
G37*
G36*
X96217520Y-131539015D02*
G01*
X96258145Y-131545041D01*
X96297984Y-131555020D01*
X96336653Y-131568856D01*
X96373780Y-131586416D01*
X96409006Y-131607530D01*
X96441994Y-131631995D01*
X96472424Y-131659576D01*
X96500005Y-131690006D01*
X96524470Y-131722994D01*
X96545584Y-131758220D01*
X96563144Y-131795347D01*
X96576980Y-131834016D01*
X96586959Y-131873855D01*
X96592985Y-131914480D01*
X96595000Y-131955500D01*
X96595000Y-138608500D01*
X96592985Y-138649520D01*
X96586959Y-138690145D01*
X96576980Y-138729984D01*
X96563144Y-138768653D01*
X96545584Y-138805780D01*
X96524470Y-138841006D01*
X96500005Y-138873994D01*
X96472424Y-138904424D01*
X96441994Y-138932005D01*
X96409006Y-138956470D01*
X96373780Y-138977584D01*
X96336653Y-138995144D01*
X96297984Y-139008980D01*
X96258145Y-139018959D01*
X96217520Y-139024985D01*
X96176500Y-139027000D01*
X95339500Y-139027000D01*
X95298480Y-139024985D01*
X95257855Y-139018959D01*
X95218016Y-139008980D01*
X95179347Y-138995144D01*
X95142220Y-138977584D01*
X95106994Y-138956470D01*
X95074006Y-138932005D01*
X95043576Y-138904424D01*
X95015995Y-138873994D01*
X94991530Y-138841006D01*
X94970416Y-138805780D01*
X94952856Y-138768653D01*
X94939020Y-138729984D01*
X94929041Y-138690145D01*
X94923015Y-138649520D01*
X94921000Y-138608500D01*
X94921000Y-131955500D01*
X94923015Y-131914480D01*
X94929041Y-131873855D01*
X94939020Y-131834016D01*
X94952856Y-131795347D01*
X94970416Y-131758220D01*
X94991530Y-131722994D01*
X95015995Y-131690006D01*
X95043576Y-131659576D01*
X95074006Y-131631995D01*
X95106994Y-131607530D01*
X95142220Y-131586416D01*
X95179347Y-131568856D01*
X95218016Y-131555020D01*
X95257855Y-131545041D01*
X95298480Y-131539015D01*
X95339500Y-131537000D01*
X96176500Y-131537000D01*
X96217520Y-131539015D01*
G37*
G36*
X93677520Y-131539015D02*
G01*
X93718145Y-131545041D01*
X93757984Y-131555020D01*
X93796653Y-131568856D01*
X93833780Y-131586416D01*
X93869006Y-131607530D01*
X93901994Y-131631995D01*
X93932424Y-131659576D01*
X93960005Y-131690006D01*
X93984470Y-131722994D01*
X94005584Y-131758220D01*
X94023144Y-131795347D01*
X94036980Y-131834016D01*
X94046959Y-131873855D01*
X94052985Y-131914480D01*
X94055000Y-131955500D01*
X94055000Y-138608500D01*
X94052985Y-138649520D01*
X94046959Y-138690145D01*
X94036980Y-138729984D01*
X94023144Y-138768653D01*
X94005584Y-138805780D01*
X93984470Y-138841006D01*
X93960005Y-138873994D01*
X93932424Y-138904424D01*
X93901994Y-138932005D01*
X93869006Y-138956470D01*
X93833780Y-138977584D01*
X93796653Y-138995144D01*
X93757984Y-139008980D01*
X93718145Y-139018959D01*
X93677520Y-139024985D01*
X93636500Y-139027000D01*
X92799500Y-139027000D01*
X92758480Y-139024985D01*
X92717855Y-139018959D01*
X92678016Y-139008980D01*
X92639347Y-138995144D01*
X92602220Y-138977584D01*
X92566994Y-138956470D01*
X92534006Y-138932005D01*
X92503576Y-138904424D01*
X92475995Y-138873994D01*
X92451530Y-138841006D01*
X92430416Y-138805780D01*
X92412856Y-138768653D01*
X92399020Y-138729984D01*
X92389041Y-138690145D01*
X92383015Y-138649520D01*
X92381000Y-138608500D01*
X92381000Y-131955500D01*
X92383015Y-131914480D01*
X92389041Y-131873855D01*
X92399020Y-131834016D01*
X92412856Y-131795347D01*
X92430416Y-131758220D01*
X92451530Y-131722994D01*
X92475995Y-131690006D01*
X92503576Y-131659576D01*
X92534006Y-131631995D01*
X92566994Y-131607530D01*
X92602220Y-131586416D01*
X92639347Y-131568856D01*
X92678016Y-131555020D01*
X92717855Y-131545041D01*
X92758480Y-131539015D01*
X92799500Y-131537000D01*
X93636500Y-131537000D01*
X93677520Y-131539015D01*
G37*
G36*
X91137520Y-131539015D02*
G01*
X91178145Y-131545041D01*
X91217984Y-131555020D01*
X91256653Y-131568856D01*
X91293780Y-131586416D01*
X91329006Y-131607530D01*
X91361994Y-131631995D01*
X91392424Y-131659576D01*
X91420005Y-131690006D01*
X91444470Y-131722994D01*
X91465584Y-131758220D01*
X91483144Y-131795347D01*
X91496980Y-131834016D01*
X91506959Y-131873855D01*
X91512985Y-131914480D01*
X91515000Y-131955500D01*
X91515000Y-138608500D01*
X91512985Y-138649520D01*
X91506959Y-138690145D01*
X91496980Y-138729984D01*
X91483144Y-138768653D01*
X91465584Y-138805780D01*
X91444470Y-138841006D01*
X91420005Y-138873994D01*
X91392424Y-138904424D01*
X91361994Y-138932005D01*
X91329006Y-138956470D01*
X91293780Y-138977584D01*
X91256653Y-138995144D01*
X91217984Y-139008980D01*
X91178145Y-139018959D01*
X91137520Y-139024985D01*
X91096500Y-139027000D01*
X90259500Y-139027000D01*
X90218480Y-139024985D01*
X90177855Y-139018959D01*
X90138016Y-139008980D01*
X90099347Y-138995144D01*
X90062220Y-138977584D01*
X90026994Y-138956470D01*
X89994006Y-138932005D01*
X89963576Y-138904424D01*
X89935995Y-138873994D01*
X89911530Y-138841006D01*
X89890416Y-138805780D01*
X89872856Y-138768653D01*
X89859020Y-138729984D01*
X89849041Y-138690145D01*
X89843015Y-138649520D01*
X89841000Y-138608500D01*
X89841000Y-131955500D01*
X89843015Y-131914480D01*
X89849041Y-131873855D01*
X89859020Y-131834016D01*
X89872856Y-131795347D01*
X89890416Y-131758220D01*
X89911530Y-131722994D01*
X89935995Y-131690006D01*
X89963576Y-131659576D01*
X89994006Y-131631995D01*
X90026994Y-131607530D01*
X90062220Y-131586416D01*
X90099347Y-131568856D01*
X90138016Y-131555020D01*
X90177855Y-131545041D01*
X90218480Y-131539015D01*
X90259500Y-131537000D01*
X91096500Y-131537000D01*
X91137520Y-131539015D01*
G37*
G36*
X88597520Y-131539015D02*
G01*
X88638145Y-131545041D01*
X88677984Y-131555020D01*
X88716653Y-131568856D01*
X88753780Y-131586416D01*
X88789006Y-131607530D01*
X88821994Y-131631995D01*
X88852424Y-131659576D01*
X88880005Y-131690006D01*
X88904470Y-131722994D01*
X88925584Y-131758220D01*
X88943144Y-131795347D01*
X88956980Y-131834016D01*
X88966959Y-131873855D01*
X88972985Y-131914480D01*
X88975000Y-131955500D01*
X88975000Y-138608500D01*
X88972985Y-138649520D01*
X88966959Y-138690145D01*
X88956980Y-138729984D01*
X88943144Y-138768653D01*
X88925584Y-138805780D01*
X88904470Y-138841006D01*
X88880005Y-138873994D01*
X88852424Y-138904424D01*
X88821994Y-138932005D01*
X88789006Y-138956470D01*
X88753780Y-138977584D01*
X88716653Y-138995144D01*
X88677984Y-139008980D01*
X88638145Y-139018959D01*
X88597520Y-139024985D01*
X88556500Y-139027000D01*
X87719500Y-139027000D01*
X87678480Y-139024985D01*
X87637855Y-139018959D01*
X87598016Y-139008980D01*
X87559347Y-138995144D01*
X87522220Y-138977584D01*
X87486994Y-138956470D01*
X87454006Y-138932005D01*
X87423576Y-138904424D01*
X87395995Y-138873994D01*
X87371530Y-138841006D01*
X87350416Y-138805780D01*
X87332856Y-138768653D01*
X87319020Y-138729984D01*
X87309041Y-138690145D01*
X87303015Y-138649520D01*
X87301000Y-138608500D01*
X87301000Y-131955500D01*
X87303015Y-131914480D01*
X87309041Y-131873855D01*
X87319020Y-131834016D01*
X87332856Y-131795347D01*
X87350416Y-131758220D01*
X87371530Y-131722994D01*
X87395995Y-131690006D01*
X87423576Y-131659576D01*
X87454006Y-131631995D01*
X87486994Y-131607530D01*
X87522220Y-131586416D01*
X87559347Y-131568856D01*
X87598016Y-131555020D01*
X87637855Y-131545041D01*
X87678480Y-131539015D01*
X87719500Y-131537000D01*
X88556500Y-131537000D01*
X88597520Y-131539015D01*
G37*
G36*
X86057520Y-131539015D02*
G01*
X86098145Y-131545041D01*
X86137984Y-131555020D01*
X86176653Y-131568856D01*
X86213780Y-131586416D01*
X86249006Y-131607530D01*
X86281994Y-131631995D01*
X86312424Y-131659576D01*
X86340005Y-131690006D01*
X86364470Y-131722994D01*
X86385584Y-131758220D01*
X86403144Y-131795347D01*
X86416980Y-131834016D01*
X86426959Y-131873855D01*
X86432985Y-131914480D01*
X86435000Y-131955500D01*
X86435000Y-138608500D01*
X86432985Y-138649520D01*
X86426959Y-138690145D01*
X86416980Y-138729984D01*
X86403144Y-138768653D01*
X86385584Y-138805780D01*
X86364470Y-138841006D01*
X86340005Y-138873994D01*
X86312424Y-138904424D01*
X86281994Y-138932005D01*
X86249006Y-138956470D01*
X86213780Y-138977584D01*
X86176653Y-138995144D01*
X86137984Y-139008980D01*
X86098145Y-139018959D01*
X86057520Y-139024985D01*
X86016500Y-139027000D01*
X85179500Y-139027000D01*
X85138480Y-139024985D01*
X85097855Y-139018959D01*
X85058016Y-139008980D01*
X85019347Y-138995144D01*
X84982220Y-138977584D01*
X84946994Y-138956470D01*
X84914006Y-138932005D01*
X84883576Y-138904424D01*
X84855995Y-138873994D01*
X84831530Y-138841006D01*
X84810416Y-138805780D01*
X84792856Y-138768653D01*
X84779020Y-138729984D01*
X84769041Y-138690145D01*
X84763015Y-138649520D01*
X84761000Y-138608500D01*
X84761000Y-131955500D01*
X84763015Y-131914480D01*
X84769041Y-131873855D01*
X84779020Y-131834016D01*
X84792856Y-131795347D01*
X84810416Y-131758220D01*
X84831530Y-131722994D01*
X84855995Y-131690006D01*
X84883576Y-131659576D01*
X84914006Y-131631995D01*
X84946994Y-131607530D01*
X84982220Y-131586416D01*
X85019347Y-131568856D01*
X85058016Y-131555020D01*
X85097855Y-131545041D01*
X85138480Y-131539015D01*
X85179500Y-131537000D01*
X86016500Y-131537000D01*
X86057520Y-131539015D01*
G37*
G36*
X83517520Y-131539015D02*
G01*
X83558145Y-131545041D01*
X83597984Y-131555020D01*
X83636653Y-131568856D01*
X83673780Y-131586416D01*
X83709006Y-131607530D01*
X83741994Y-131631995D01*
X83772424Y-131659576D01*
X83800005Y-131690006D01*
X83824470Y-131722994D01*
X83845584Y-131758220D01*
X83863144Y-131795347D01*
X83876980Y-131834016D01*
X83886959Y-131873855D01*
X83892985Y-131914480D01*
X83895000Y-131955500D01*
X83895000Y-138608500D01*
X83892985Y-138649520D01*
X83886959Y-138690145D01*
X83876980Y-138729984D01*
X83863144Y-138768653D01*
X83845584Y-138805780D01*
X83824470Y-138841006D01*
X83800005Y-138873994D01*
X83772424Y-138904424D01*
X83741994Y-138932005D01*
X83709006Y-138956470D01*
X83673780Y-138977584D01*
X83636653Y-138995144D01*
X83597984Y-139008980D01*
X83558145Y-139018959D01*
X83517520Y-139024985D01*
X83476500Y-139027000D01*
X82639500Y-139027000D01*
X82598480Y-139024985D01*
X82557855Y-139018959D01*
X82518016Y-139008980D01*
X82479347Y-138995144D01*
X82442220Y-138977584D01*
X82406994Y-138956470D01*
X82374006Y-138932005D01*
X82343576Y-138904424D01*
X82315995Y-138873994D01*
X82291530Y-138841006D01*
X82270416Y-138805780D01*
X82252856Y-138768653D01*
X82239020Y-138729984D01*
X82229041Y-138690145D01*
X82223015Y-138649520D01*
X82221000Y-138608500D01*
X82221000Y-131955500D01*
X82223015Y-131914480D01*
X82229041Y-131873855D01*
X82239020Y-131834016D01*
X82252856Y-131795347D01*
X82270416Y-131758220D01*
X82291530Y-131722994D01*
X82315995Y-131690006D01*
X82343576Y-131659576D01*
X82374006Y-131631995D01*
X82406994Y-131607530D01*
X82442220Y-131586416D01*
X82479347Y-131568856D01*
X82518016Y-131555020D01*
X82557855Y-131545041D01*
X82598480Y-131539015D01*
X82639500Y-131537000D01*
X83476500Y-131537000D01*
X83517520Y-131539015D01*
G37*
G36*
X80977520Y-131539015D02*
G01*
X81018145Y-131545041D01*
X81057984Y-131555020D01*
X81096653Y-131568856D01*
X81133780Y-131586416D01*
X81169006Y-131607530D01*
X81201994Y-131631995D01*
X81232424Y-131659576D01*
X81260005Y-131690006D01*
X81284470Y-131722994D01*
X81305584Y-131758220D01*
X81323144Y-131795347D01*
X81336980Y-131834016D01*
X81346959Y-131873855D01*
X81352985Y-131914480D01*
X81355000Y-131955500D01*
X81355000Y-138608500D01*
X81352985Y-138649520D01*
X81346959Y-138690145D01*
X81336980Y-138729984D01*
X81323144Y-138768653D01*
X81305584Y-138805780D01*
X81284470Y-138841006D01*
X81260005Y-138873994D01*
X81232424Y-138904424D01*
X81201994Y-138932005D01*
X81169006Y-138956470D01*
X81133780Y-138977584D01*
X81096653Y-138995144D01*
X81057984Y-139008980D01*
X81018145Y-139018959D01*
X80977520Y-139024985D01*
X80936500Y-139027000D01*
X80099500Y-139027000D01*
X80058480Y-139024985D01*
X80017855Y-139018959D01*
X79978016Y-139008980D01*
X79939347Y-138995144D01*
X79902220Y-138977584D01*
X79866994Y-138956470D01*
X79834006Y-138932005D01*
X79803576Y-138904424D01*
X79775995Y-138873994D01*
X79751530Y-138841006D01*
X79730416Y-138805780D01*
X79712856Y-138768653D01*
X79699020Y-138729984D01*
X79689041Y-138690145D01*
X79683015Y-138649520D01*
X79681000Y-138608500D01*
X79681000Y-131955500D01*
X79683015Y-131914480D01*
X79689041Y-131873855D01*
X79699020Y-131834016D01*
X79712856Y-131795347D01*
X79730416Y-131758220D01*
X79751530Y-131722994D01*
X79775995Y-131690006D01*
X79803576Y-131659576D01*
X79834006Y-131631995D01*
X79866994Y-131607530D01*
X79902220Y-131586416D01*
X79939347Y-131568856D01*
X79978016Y-131555020D01*
X80017855Y-131545041D01*
X80058480Y-131539015D01*
X80099500Y-131537000D01*
X80936500Y-131537000D01*
X80977520Y-131539015D01*
G37*
G36*
X78437520Y-131539015D02*
G01*
X78478145Y-131545041D01*
X78517984Y-131555020D01*
X78556653Y-131568856D01*
X78593780Y-131586416D01*
X78629006Y-131607530D01*
X78661994Y-131631995D01*
X78692424Y-131659576D01*
X78720005Y-131690006D01*
X78744470Y-131722994D01*
X78765584Y-131758220D01*
X78783144Y-131795347D01*
X78796980Y-131834016D01*
X78806959Y-131873855D01*
X78812985Y-131914480D01*
X78815000Y-131955500D01*
X78815000Y-138608500D01*
X78812985Y-138649520D01*
X78806959Y-138690145D01*
X78796980Y-138729984D01*
X78783144Y-138768653D01*
X78765584Y-138805780D01*
X78744470Y-138841006D01*
X78720005Y-138873994D01*
X78692424Y-138904424D01*
X78661994Y-138932005D01*
X78629006Y-138956470D01*
X78593780Y-138977584D01*
X78556653Y-138995144D01*
X78517984Y-139008980D01*
X78478145Y-139018959D01*
X78437520Y-139024985D01*
X78396500Y-139027000D01*
X77559500Y-139027000D01*
X77518480Y-139024985D01*
X77477855Y-139018959D01*
X77438016Y-139008980D01*
X77399347Y-138995144D01*
X77362220Y-138977584D01*
X77326994Y-138956470D01*
X77294006Y-138932005D01*
X77263576Y-138904424D01*
X77235995Y-138873994D01*
X77211530Y-138841006D01*
X77190416Y-138805780D01*
X77172856Y-138768653D01*
X77159020Y-138729984D01*
X77149041Y-138690145D01*
X77143015Y-138649520D01*
X77141000Y-138608500D01*
X77141000Y-131955500D01*
X77143015Y-131914480D01*
X77149041Y-131873855D01*
X77159020Y-131834016D01*
X77172856Y-131795347D01*
X77190416Y-131758220D01*
X77211530Y-131722994D01*
X77235995Y-131690006D01*
X77263576Y-131659576D01*
X77294006Y-131631995D01*
X77326994Y-131607530D01*
X77362220Y-131586416D01*
X77399347Y-131568856D01*
X77438016Y-131555020D01*
X77477855Y-131545041D01*
X77518480Y-131539015D01*
X77559500Y-131537000D01*
X78396500Y-131537000D01*
X78437520Y-131539015D01*
G37*
G36*
X75897520Y-131539015D02*
G01*
X75938145Y-131545041D01*
X75977984Y-131555020D01*
X76016653Y-131568856D01*
X76053780Y-131586416D01*
X76089006Y-131607530D01*
X76121994Y-131631995D01*
X76152424Y-131659576D01*
X76180005Y-131690006D01*
X76204470Y-131722994D01*
X76225584Y-131758220D01*
X76243144Y-131795347D01*
X76256980Y-131834016D01*
X76266959Y-131873855D01*
X76272985Y-131914480D01*
X76275000Y-131955500D01*
X76275000Y-138608500D01*
X76272985Y-138649520D01*
X76266959Y-138690145D01*
X76256980Y-138729984D01*
X76243144Y-138768653D01*
X76225584Y-138805780D01*
X76204470Y-138841006D01*
X76180005Y-138873994D01*
X76152424Y-138904424D01*
X76121994Y-138932005D01*
X76089006Y-138956470D01*
X76053780Y-138977584D01*
X76016653Y-138995144D01*
X75977984Y-139008980D01*
X75938145Y-139018959D01*
X75897520Y-139024985D01*
X75856500Y-139027000D01*
X75019500Y-139027000D01*
X74978480Y-139024985D01*
X74937855Y-139018959D01*
X74898016Y-139008980D01*
X74859347Y-138995144D01*
X74822220Y-138977584D01*
X74786994Y-138956470D01*
X74754006Y-138932005D01*
X74723576Y-138904424D01*
X74695995Y-138873994D01*
X74671530Y-138841006D01*
X74650416Y-138805780D01*
X74632856Y-138768653D01*
X74619020Y-138729984D01*
X74609041Y-138690145D01*
X74603015Y-138649520D01*
X74601000Y-138608500D01*
X74601000Y-131955500D01*
X74603015Y-131914480D01*
X74609041Y-131873855D01*
X74619020Y-131834016D01*
X74632856Y-131795347D01*
X74650416Y-131758220D01*
X74671530Y-131722994D01*
X74695995Y-131690006D01*
X74723576Y-131659576D01*
X74754006Y-131631995D01*
X74786994Y-131607530D01*
X74822220Y-131586416D01*
X74859347Y-131568856D01*
X74898016Y-131555020D01*
X74937855Y-131545041D01*
X74978480Y-131539015D01*
X75019500Y-131537000D01*
X75856500Y-131537000D01*
X75897520Y-131539015D01*
G37*
G36*
X73357520Y-131539015D02*
G01*
X73398145Y-131545041D01*
X73437984Y-131555020D01*
X73476653Y-131568856D01*
X73513780Y-131586416D01*
X73549006Y-131607530D01*
X73581994Y-131631995D01*
X73612424Y-131659576D01*
X73640005Y-131690006D01*
X73664470Y-131722994D01*
X73685584Y-131758220D01*
X73703144Y-131795347D01*
X73716980Y-131834016D01*
X73726959Y-131873855D01*
X73732985Y-131914480D01*
X73735000Y-131955500D01*
X73735000Y-138608500D01*
X73732985Y-138649520D01*
X73726959Y-138690145D01*
X73716980Y-138729984D01*
X73703144Y-138768653D01*
X73685584Y-138805780D01*
X73664470Y-138841006D01*
X73640005Y-138873994D01*
X73612424Y-138904424D01*
X73581994Y-138932005D01*
X73549006Y-138956470D01*
X73513780Y-138977584D01*
X73476653Y-138995144D01*
X73437984Y-139008980D01*
X73398145Y-139018959D01*
X73357520Y-139024985D01*
X73316500Y-139027000D01*
X72479500Y-139027000D01*
X72438480Y-139024985D01*
X72397855Y-139018959D01*
X72358016Y-139008980D01*
X72319347Y-138995144D01*
X72282220Y-138977584D01*
X72246994Y-138956470D01*
X72214006Y-138932005D01*
X72183576Y-138904424D01*
X72155995Y-138873994D01*
X72131530Y-138841006D01*
X72110416Y-138805780D01*
X72092856Y-138768653D01*
X72079020Y-138729984D01*
X72069041Y-138690145D01*
X72063015Y-138649520D01*
X72061000Y-138608500D01*
X72061000Y-131955500D01*
X72063015Y-131914480D01*
X72069041Y-131873855D01*
X72079020Y-131834016D01*
X72092856Y-131795347D01*
X72110416Y-131758220D01*
X72131530Y-131722994D01*
X72155995Y-131690006D01*
X72183576Y-131659576D01*
X72214006Y-131631995D01*
X72246994Y-131607530D01*
X72282220Y-131586416D01*
X72319347Y-131568856D01*
X72358016Y-131555020D01*
X72397855Y-131545041D01*
X72438480Y-131539015D01*
X72479500Y-131537000D01*
X73316500Y-131537000D01*
X73357520Y-131539015D01*
G37*
G36*
X70817520Y-131539015D02*
G01*
X70858145Y-131545041D01*
X70897984Y-131555020D01*
X70936653Y-131568856D01*
X70973780Y-131586416D01*
X71009006Y-131607530D01*
X71041994Y-131631995D01*
X71072424Y-131659576D01*
X71100005Y-131690006D01*
X71124470Y-131722994D01*
X71145584Y-131758220D01*
X71163144Y-131795347D01*
X71176980Y-131834016D01*
X71186959Y-131873855D01*
X71192985Y-131914480D01*
X71195000Y-131955500D01*
X71195000Y-138608500D01*
X71192985Y-138649520D01*
X71186959Y-138690145D01*
X71176980Y-138729984D01*
X71163144Y-138768653D01*
X71145584Y-138805780D01*
X71124470Y-138841006D01*
X71100005Y-138873994D01*
X71072424Y-138904424D01*
X71041994Y-138932005D01*
X71009006Y-138956470D01*
X70973780Y-138977584D01*
X70936653Y-138995144D01*
X70897984Y-139008980D01*
X70858145Y-139018959D01*
X70817520Y-139024985D01*
X70776500Y-139027000D01*
X69939500Y-139027000D01*
X69898480Y-139024985D01*
X69857855Y-139018959D01*
X69818016Y-139008980D01*
X69779347Y-138995144D01*
X69742220Y-138977584D01*
X69706994Y-138956470D01*
X69674006Y-138932005D01*
X69643576Y-138904424D01*
X69615995Y-138873994D01*
X69591530Y-138841006D01*
X69570416Y-138805780D01*
X69552856Y-138768653D01*
X69539020Y-138729984D01*
X69529041Y-138690145D01*
X69523015Y-138649520D01*
X69521000Y-138608500D01*
X69521000Y-131955500D01*
X69523015Y-131914480D01*
X69529041Y-131873855D01*
X69539020Y-131834016D01*
X69552856Y-131795347D01*
X69570416Y-131758220D01*
X69591530Y-131722994D01*
X69615995Y-131690006D01*
X69643576Y-131659576D01*
X69674006Y-131631995D01*
X69706994Y-131607530D01*
X69742220Y-131586416D01*
X69779347Y-131568856D01*
X69818016Y-131555020D01*
X69857855Y-131545041D01*
X69898480Y-131539015D01*
X69939500Y-131537000D01*
X70776500Y-131537000D01*
X70817520Y-131539015D01*
G37*
G36*
X68277520Y-131539015D02*
G01*
X68318145Y-131545041D01*
X68357984Y-131555020D01*
X68396653Y-131568856D01*
X68433780Y-131586416D01*
X68469006Y-131607530D01*
X68501994Y-131631995D01*
X68532424Y-131659576D01*
X68560005Y-131690006D01*
X68584470Y-131722994D01*
X68605584Y-131758220D01*
X68623144Y-131795347D01*
X68636980Y-131834016D01*
X68646959Y-131873855D01*
X68652985Y-131914480D01*
X68655000Y-131955500D01*
X68655000Y-138608500D01*
X68652985Y-138649520D01*
X68646959Y-138690145D01*
X68636980Y-138729984D01*
X68623144Y-138768653D01*
X68605584Y-138805780D01*
X68584470Y-138841006D01*
X68560005Y-138873994D01*
X68532424Y-138904424D01*
X68501994Y-138932005D01*
X68469006Y-138956470D01*
X68433780Y-138977584D01*
X68396653Y-138995144D01*
X68357984Y-139008980D01*
X68318145Y-139018959D01*
X68277520Y-139024985D01*
X68236500Y-139027000D01*
X67399500Y-139027000D01*
X67358480Y-139024985D01*
X67317855Y-139018959D01*
X67278016Y-139008980D01*
X67239347Y-138995144D01*
X67202220Y-138977584D01*
X67166994Y-138956470D01*
X67134006Y-138932005D01*
X67103576Y-138904424D01*
X67075995Y-138873994D01*
X67051530Y-138841006D01*
X67030416Y-138805780D01*
X67012856Y-138768653D01*
X66999020Y-138729984D01*
X66989041Y-138690145D01*
X66983015Y-138649520D01*
X66981000Y-138608500D01*
X66981000Y-131955500D01*
X66983015Y-131914480D01*
X66989041Y-131873855D01*
X66999020Y-131834016D01*
X67012856Y-131795347D01*
X67030416Y-131758220D01*
X67051530Y-131722994D01*
X67075995Y-131690006D01*
X67103576Y-131659576D01*
X67134006Y-131631995D01*
X67166994Y-131607530D01*
X67202220Y-131586416D01*
X67239347Y-131568856D01*
X67278016Y-131555020D01*
X67317855Y-131545041D01*
X67358480Y-131539015D01*
X67399500Y-131537000D01*
X68236500Y-131537000D01*
X68277520Y-131539015D01*
G37*
G36*
X65737520Y-131539015D02*
G01*
X65778145Y-131545041D01*
X65817984Y-131555020D01*
X65856653Y-131568856D01*
X65893780Y-131586416D01*
X65929006Y-131607530D01*
X65961994Y-131631995D01*
X65992424Y-131659576D01*
X66020005Y-131690006D01*
X66044470Y-131722994D01*
X66065584Y-131758220D01*
X66083144Y-131795347D01*
X66096980Y-131834016D01*
X66106959Y-131873855D01*
X66112985Y-131914480D01*
X66115000Y-131955500D01*
X66115000Y-138608500D01*
X66112985Y-138649520D01*
X66106959Y-138690145D01*
X66096980Y-138729984D01*
X66083144Y-138768653D01*
X66065584Y-138805780D01*
X66044470Y-138841006D01*
X66020005Y-138873994D01*
X65992424Y-138904424D01*
X65961994Y-138932005D01*
X65929006Y-138956470D01*
X65893780Y-138977584D01*
X65856653Y-138995144D01*
X65817984Y-139008980D01*
X65778145Y-139018959D01*
X65737520Y-139024985D01*
X65696500Y-139027000D01*
X64859500Y-139027000D01*
X64818480Y-139024985D01*
X64777855Y-139018959D01*
X64738016Y-139008980D01*
X64699347Y-138995144D01*
X64662220Y-138977584D01*
X64626994Y-138956470D01*
X64594006Y-138932005D01*
X64563576Y-138904424D01*
X64535995Y-138873994D01*
X64511530Y-138841006D01*
X64490416Y-138805780D01*
X64472856Y-138768653D01*
X64459020Y-138729984D01*
X64449041Y-138690145D01*
X64443015Y-138649520D01*
X64441000Y-138608500D01*
X64441000Y-131955500D01*
X64443015Y-131914480D01*
X64449041Y-131873855D01*
X64459020Y-131834016D01*
X64472856Y-131795347D01*
X64490416Y-131758220D01*
X64511530Y-131722994D01*
X64535995Y-131690006D01*
X64563576Y-131659576D01*
X64594006Y-131631995D01*
X64626994Y-131607530D01*
X64662220Y-131586416D01*
X64699347Y-131568856D01*
X64738016Y-131555020D01*
X64777855Y-131545041D01*
X64818480Y-131539015D01*
X64859500Y-131537000D01*
X65696500Y-131537000D01*
X65737520Y-131539015D01*
G37*
G36*
X63197520Y-131539015D02*
G01*
X63238145Y-131545041D01*
X63277984Y-131555020D01*
X63316653Y-131568856D01*
X63353780Y-131586416D01*
X63389006Y-131607530D01*
X63421994Y-131631995D01*
X63452424Y-131659576D01*
X63480005Y-131690006D01*
X63504470Y-131722994D01*
X63525584Y-131758220D01*
X63543144Y-131795347D01*
X63556980Y-131834016D01*
X63566959Y-131873855D01*
X63572985Y-131914480D01*
X63575000Y-131955500D01*
X63575000Y-138608500D01*
X63572985Y-138649520D01*
X63566959Y-138690145D01*
X63556980Y-138729984D01*
X63543144Y-138768653D01*
X63525584Y-138805780D01*
X63504470Y-138841006D01*
X63480005Y-138873994D01*
X63452424Y-138904424D01*
X63421994Y-138932005D01*
X63389006Y-138956470D01*
X63353780Y-138977584D01*
X63316653Y-138995144D01*
X63277984Y-139008980D01*
X63238145Y-139018959D01*
X63197520Y-139024985D01*
X63156500Y-139027000D01*
X62319500Y-139027000D01*
X62278480Y-139024985D01*
X62237855Y-139018959D01*
X62198016Y-139008980D01*
X62159347Y-138995144D01*
X62122220Y-138977584D01*
X62086994Y-138956470D01*
X62054006Y-138932005D01*
X62023576Y-138904424D01*
X61995995Y-138873994D01*
X61971530Y-138841006D01*
X61950416Y-138805780D01*
X61932856Y-138768653D01*
X61919020Y-138729984D01*
X61909041Y-138690145D01*
X61903015Y-138649520D01*
X61901000Y-138608500D01*
X61901000Y-131955500D01*
X61903015Y-131914480D01*
X61909041Y-131873855D01*
X61919020Y-131834016D01*
X61932856Y-131795347D01*
X61950416Y-131758220D01*
X61971530Y-131722994D01*
X61995995Y-131690006D01*
X62023576Y-131659576D01*
X62054006Y-131631995D01*
X62086994Y-131607530D01*
X62122220Y-131586416D01*
X62159347Y-131568856D01*
X62198016Y-131555020D01*
X62237855Y-131545041D01*
X62278480Y-131539015D01*
X62319500Y-131537000D01*
X63156500Y-131537000D01*
X63197520Y-131539015D01*
G37*
G36*
X60657520Y-131539015D02*
G01*
X60698145Y-131545041D01*
X60737984Y-131555020D01*
X60776653Y-131568856D01*
X60813780Y-131586416D01*
X60849006Y-131607530D01*
X60881994Y-131631995D01*
X60912424Y-131659576D01*
X60940005Y-131690006D01*
X60964470Y-131722994D01*
X60985584Y-131758220D01*
X61003144Y-131795347D01*
X61016980Y-131834016D01*
X61026959Y-131873855D01*
X61032985Y-131914480D01*
X61035000Y-131955500D01*
X61035000Y-138608500D01*
X61032985Y-138649520D01*
X61026959Y-138690145D01*
X61016980Y-138729984D01*
X61003144Y-138768653D01*
X60985584Y-138805780D01*
X60964470Y-138841006D01*
X60940005Y-138873994D01*
X60912424Y-138904424D01*
X60881994Y-138932005D01*
X60849006Y-138956470D01*
X60813780Y-138977584D01*
X60776653Y-138995144D01*
X60737984Y-139008980D01*
X60698145Y-139018959D01*
X60657520Y-139024985D01*
X60616500Y-139027000D01*
X59779500Y-139027000D01*
X59738480Y-139024985D01*
X59697855Y-139018959D01*
X59658016Y-139008980D01*
X59619347Y-138995144D01*
X59582220Y-138977584D01*
X59546994Y-138956470D01*
X59514006Y-138932005D01*
X59483576Y-138904424D01*
X59455995Y-138873994D01*
X59431530Y-138841006D01*
X59410416Y-138805780D01*
X59392856Y-138768653D01*
X59379020Y-138729984D01*
X59369041Y-138690145D01*
X59363015Y-138649520D01*
X59361000Y-138608500D01*
X59361000Y-131955500D01*
X59363015Y-131914480D01*
X59369041Y-131873855D01*
X59379020Y-131834016D01*
X59392856Y-131795347D01*
X59410416Y-131758220D01*
X59431530Y-131722994D01*
X59455995Y-131690006D01*
X59483576Y-131659576D01*
X59514006Y-131631995D01*
X59546994Y-131607530D01*
X59582220Y-131586416D01*
X59619347Y-131568856D01*
X59658016Y-131555020D01*
X59697855Y-131545041D01*
X59738480Y-131539015D01*
X59779500Y-131537000D01*
X60616500Y-131537000D01*
X60657520Y-131539015D01*
G37*
G36*
X58117520Y-131539015D02*
G01*
X58158145Y-131545041D01*
X58197984Y-131555020D01*
X58236653Y-131568856D01*
X58273780Y-131586416D01*
X58309006Y-131607530D01*
X58341994Y-131631995D01*
X58372424Y-131659576D01*
X58400005Y-131690006D01*
X58424470Y-131722994D01*
X58445584Y-131758220D01*
X58463144Y-131795347D01*
X58476980Y-131834016D01*
X58486959Y-131873855D01*
X58492985Y-131914480D01*
X58495000Y-131955500D01*
X58495000Y-138608500D01*
X58492985Y-138649520D01*
X58486959Y-138690145D01*
X58476980Y-138729984D01*
X58463144Y-138768653D01*
X58445584Y-138805780D01*
X58424470Y-138841006D01*
X58400005Y-138873994D01*
X58372424Y-138904424D01*
X58341994Y-138932005D01*
X58309006Y-138956470D01*
X58273780Y-138977584D01*
X58236653Y-138995144D01*
X58197984Y-139008980D01*
X58158145Y-139018959D01*
X58117520Y-139024985D01*
X58076500Y-139027000D01*
X57239500Y-139027000D01*
X57198480Y-139024985D01*
X57157855Y-139018959D01*
X57118016Y-139008980D01*
X57079347Y-138995144D01*
X57042220Y-138977584D01*
X57006994Y-138956470D01*
X56974006Y-138932005D01*
X56943576Y-138904424D01*
X56915995Y-138873994D01*
X56891530Y-138841006D01*
X56870416Y-138805780D01*
X56852856Y-138768653D01*
X56839020Y-138729984D01*
X56829041Y-138690145D01*
X56823015Y-138649520D01*
X56821000Y-138608500D01*
X56821000Y-131955500D01*
X56823015Y-131914480D01*
X56829041Y-131873855D01*
X56839020Y-131834016D01*
X56852856Y-131795347D01*
X56870416Y-131758220D01*
X56891530Y-131722994D01*
X56915995Y-131690006D01*
X56943576Y-131659576D01*
X56974006Y-131631995D01*
X57006994Y-131607530D01*
X57042220Y-131586416D01*
X57079347Y-131568856D01*
X57118016Y-131555020D01*
X57157855Y-131545041D01*
X57198480Y-131539015D01*
X57239500Y-131537000D01*
X58076500Y-131537000D01*
X58117520Y-131539015D01*
G37*
D16*
X110998000Y-130175000D03*
D17*
X48514000Y-93726000D03*
X102870000Y-93726000D03*
X48514000Y-129540000D03*
X111506000Y-115189000D03*
M02*
