G04 #@! TF.GenerationSoftware,KiCad,Pcbnew,(5.1.10-1-10_14)*
G04 #@! TF.CreationDate,2021-05-31T18:26:27-04:00*
G04 #@! TF.ProjectId,RAM2GS,52414d32-4753-42e6-9b69-6361645f7063,2.0*
G04 #@! TF.SameCoordinates,Original*
G04 #@! TF.FileFunction,Other,Fab,Top*
%FSLAX46Y46*%
G04 Gerber Fmt 4.6, Leading zero omitted, Abs format (unit mm)*
G04 Created by KiCad (PCBNEW (5.1.10-1-10_14)) date 2021-05-31 18:26:27*
%MOMM*%
%LPD*%
G01*
G04 APERTURE LIST*
%ADD10C,0.100000*%
%ADD11C,0.150000*%
%ADD12C,0.127000*%
%ADD13C,0.063500*%
%ADD14C,0.031750*%
%ADD15C,0.203200*%
%ADD16C,0.095250*%
%ADD17C,0.047625*%
G04 APERTURE END LIST*
D10*
X96267157Y-101051472D02*
X97398528Y-102182843D01*
X95701472Y-101617157D02*
X96267157Y-101051472D01*
X96832843Y-102748528D02*
X95701472Y-101617157D01*
X97398528Y-102182843D02*
X96832843Y-102748528D01*
X99448528Y-104232843D02*
X98882843Y-104798528D01*
X98882843Y-104798528D02*
X97751472Y-103667157D01*
X97751472Y-103667157D02*
X98317157Y-103101472D01*
X98317157Y-103101472D02*
X99448528Y-104232843D01*
X52136000Y-125185000D02*
X55036000Y-125185000D01*
X55036000Y-125185000D02*
X55036000Y-130085000D01*
X55036000Y-130085000D02*
X51136000Y-130085000D01*
X51136000Y-130085000D02*
X51136000Y-126185000D01*
X51136000Y-126185000D02*
X52136000Y-125185000D01*
X70300000Y-102050000D02*
X70300000Y-103250000D01*
X72300000Y-102050000D02*
X70300000Y-102050000D01*
X72300000Y-102950000D02*
X72300000Y-102050000D01*
X72000000Y-103250000D02*
X72300000Y-102950000D01*
X70300000Y-103250000D02*
X72000000Y-103250000D01*
X72300000Y-105225000D02*
X70300000Y-105225000D01*
X72300000Y-103975000D02*
X72300000Y-105225000D01*
X70300000Y-103975000D02*
X72300000Y-103975000D01*
X70300000Y-105225000D02*
X70300000Y-103975000D01*
X69650000Y-107550000D02*
X71250000Y-107550000D01*
X69650000Y-108350000D02*
X69650000Y-107550000D01*
X71250000Y-108350000D02*
X69650000Y-108350000D01*
X71250000Y-107550000D02*
X71250000Y-108350000D01*
X72450000Y-108350000D02*
X72450000Y-107550000D01*
X72450000Y-107550000D02*
X74050000Y-107550000D01*
X74050000Y-107550000D02*
X74050000Y-108350000D01*
X74050000Y-108350000D02*
X72450000Y-108350000D01*
X94900000Y-118050000D02*
X94900000Y-116450000D01*
X95700000Y-118050000D02*
X94900000Y-118050000D01*
X95700000Y-116450000D02*
X95700000Y-118050000D01*
X94900000Y-116450000D02*
X95700000Y-116450000D01*
X79400000Y-101550000D02*
X92400000Y-101550000D01*
X92400000Y-101550000D02*
X92400000Y-115550000D01*
X92400000Y-115550000D02*
X78400000Y-115550000D01*
X78400000Y-115550000D02*
X78400000Y-102550000D01*
X78400000Y-102550000D02*
X79400000Y-101550000D01*
X103537000Y-114500000D02*
X103537000Y-107800000D01*
X107237000Y-107800000D02*
X103537000Y-107800000D01*
X106237000Y-114500000D02*
X103537000Y-114500000D01*
X107237000Y-113500000D02*
X107237000Y-107800000D01*
X107237000Y-113500000D02*
X106237000Y-114500000D01*
X72200000Y-98950000D02*
X72200000Y-99750000D01*
X72200000Y-99750000D02*
X70600000Y-99750000D01*
X70600000Y-99750000D02*
X70600000Y-98950000D01*
X70600000Y-98950000D02*
X72200000Y-98950000D01*
D11*
X93175000Y-127650000D02*
X92175000Y-126650000D01*
X98675000Y-127650000D02*
X93175000Y-127650000D01*
X98675000Y-123250000D02*
X98675000Y-127650000D01*
X92175000Y-123250000D02*
X98675000Y-123250000D01*
X92175000Y-126650000D02*
X92175000Y-123250000D01*
D10*
X89350000Y-98450000D02*
X90950000Y-98450000D01*
X89350000Y-99250000D02*
X89350000Y-98450000D01*
X90950000Y-99250000D02*
X89350000Y-99250000D01*
X90950000Y-98450000D02*
X90950000Y-99250000D01*
X86450000Y-118650000D02*
X84850000Y-118650000D01*
X86450000Y-117850000D02*
X86450000Y-118650000D01*
X84850000Y-117850000D02*
X86450000Y-117850000D01*
X84850000Y-118650000D02*
X84850000Y-117850000D01*
X81350000Y-118650000D02*
X81350000Y-117850000D01*
X81350000Y-117850000D02*
X82950000Y-117850000D01*
X82950000Y-117850000D02*
X82950000Y-118650000D01*
X82950000Y-118650000D02*
X81350000Y-118650000D01*
D11*
X74775000Y-127650000D02*
X73775000Y-126650000D01*
X80275000Y-127650000D02*
X74775000Y-127650000D01*
X80275000Y-123250000D02*
X80275000Y-127650000D01*
X73775000Y-123250000D02*
X80275000Y-123250000D01*
X73775000Y-126650000D02*
X73775000Y-123250000D01*
D10*
X71430000Y-111600000D02*
X72280000Y-111600000D01*
X72780000Y-111100000D02*
X72780000Y-109400000D01*
X71430000Y-111600000D02*
X71430000Y-109400000D01*
X71430000Y-109400000D02*
X72780000Y-109400000D01*
X72280000Y-111600000D02*
X72780000Y-111100000D01*
X70570000Y-122050000D02*
X69720000Y-122050000D01*
X69220000Y-122550000D02*
X69220000Y-124250000D01*
X70570000Y-122050000D02*
X70570000Y-124250000D01*
X70570000Y-124250000D02*
X69220000Y-124250000D01*
X69720000Y-122050000D02*
X69220000Y-122550000D01*
D11*
X102375000Y-127650000D02*
X101375000Y-126650000D01*
X107875000Y-127650000D02*
X102375000Y-127650000D01*
X107875000Y-123250000D02*
X107875000Y-127650000D01*
X101375000Y-123250000D02*
X107875000Y-123250000D01*
X101375000Y-126650000D02*
X101375000Y-123250000D01*
X83975000Y-127650000D02*
X82975000Y-126650000D01*
X89475000Y-127650000D02*
X83975000Y-127650000D01*
X89475000Y-123250000D02*
X89475000Y-127650000D01*
X82975000Y-123250000D02*
X89475000Y-123250000D01*
X82975000Y-126650000D02*
X82975000Y-123250000D01*
D10*
X54950000Y-99750000D02*
X53350000Y-99750000D01*
X54950000Y-98950000D02*
X54950000Y-99750000D01*
X53350000Y-98950000D02*
X54950000Y-98950000D01*
X53350000Y-99750000D02*
X53350000Y-98950000D01*
D11*
X67100000Y-126325000D02*
X67100000Y-127575000D01*
X67100000Y-127575000D02*
X65100000Y-127575000D01*
X65100000Y-127575000D02*
X65100000Y-126325000D01*
X65100000Y-126325000D02*
X67100000Y-126325000D01*
D10*
X69200000Y-120650000D02*
X70800000Y-120650000D01*
X69200000Y-121450000D02*
X69200000Y-120650000D01*
X70800000Y-121450000D02*
X69200000Y-121450000D01*
X70800000Y-120650000D02*
X70800000Y-121450000D01*
X69900000Y-109600000D02*
X69900000Y-111200000D01*
X69100000Y-109600000D02*
X69900000Y-109600000D01*
X69100000Y-111200000D02*
X69100000Y-109600000D01*
X69900000Y-111200000D02*
X69100000Y-111200000D01*
D12*
X113030000Y-131572000D02*
X113030000Y-139700000D01*
X113030000Y-139700000D02*
X55626000Y-139700000D01*
X55626000Y-139700000D02*
X55626000Y-131572000D01*
D10*
X55070000Y-100540000D02*
X64230000Y-100540000D01*
X64230000Y-100540000D02*
X64230000Y-122760000D01*
X64230000Y-122760000D02*
X54070000Y-122760000D01*
X54070000Y-122760000D02*
X54070000Y-101540000D01*
X55070000Y-100540000D02*
X54070000Y-101540000D01*
D11*
X108700000Y-116775000D02*
X106700000Y-116775000D01*
X108700000Y-115525000D02*
X108700000Y-116775000D01*
X106700000Y-115525000D02*
X108700000Y-115525000D01*
X106700000Y-116775000D02*
X106700000Y-115525000D01*
X110500000Y-106175000D02*
X108500000Y-106175000D01*
X110500000Y-104925000D02*
X110500000Y-106175000D01*
X108500000Y-104925000D02*
X110500000Y-104925000D01*
X108500000Y-106175000D02*
X108500000Y-104925000D01*
X110982000Y-128514000D02*
X108982000Y-128514000D01*
X110982000Y-127264000D02*
X110982000Y-128514000D01*
X108982000Y-127264000D02*
X110982000Y-127264000D01*
X108982000Y-128514000D02*
X108982000Y-127264000D01*
X57928000Y-128153000D02*
X59928000Y-128153000D01*
X57928000Y-129403000D02*
X57928000Y-128153000D01*
X59928000Y-129403000D02*
X57928000Y-129403000D01*
X59928000Y-128153000D02*
X59928000Y-129403000D01*
D10*
X72200000Y-124050000D02*
X72200000Y-122450000D01*
X73000000Y-124050000D02*
X72200000Y-124050000D01*
X73000000Y-122450000D02*
X73000000Y-124050000D01*
X72200000Y-122450000D02*
X73000000Y-122450000D01*
X64950000Y-124350000D02*
X63350000Y-124350000D01*
X64950000Y-123550000D02*
X64950000Y-124350000D01*
X63350000Y-123550000D02*
X64950000Y-123550000D01*
X63350000Y-124350000D02*
X63350000Y-123550000D01*
X51750000Y-101300000D02*
X51750000Y-102900000D01*
X50950000Y-101300000D02*
X51750000Y-101300000D01*
X50950000Y-102900000D02*
X50950000Y-101300000D01*
X51750000Y-102900000D02*
X50950000Y-102900000D01*
X64950000Y-99750000D02*
X63350000Y-99750000D01*
X64950000Y-98950000D02*
X64950000Y-99750000D01*
X63350000Y-98950000D02*
X64950000Y-98950000D01*
X63350000Y-99750000D02*
X63350000Y-98950000D01*
X54950000Y-124350000D02*
X53350000Y-124350000D01*
X54950000Y-123550000D02*
X54950000Y-124350000D01*
X53350000Y-123550000D02*
X54950000Y-123550000D01*
X53350000Y-124350000D02*
X53350000Y-123550000D01*
X66550000Y-111600000D02*
X66550000Y-110000000D01*
X67350000Y-111600000D02*
X66550000Y-111600000D01*
X67350000Y-110000000D02*
X67350000Y-111600000D01*
X66550000Y-110000000D02*
X67350000Y-110000000D01*
X51750000Y-106100000D02*
X51750000Y-107700000D01*
X50950000Y-106100000D02*
X51750000Y-106100000D01*
X50950000Y-107700000D02*
X50950000Y-106100000D01*
X51750000Y-107700000D02*
X50950000Y-107700000D01*
X51750000Y-110100000D02*
X51750000Y-111700000D01*
X50950000Y-110100000D02*
X51750000Y-110100000D01*
X50950000Y-111700000D02*
X50950000Y-110100000D01*
X51750000Y-111700000D02*
X50950000Y-111700000D01*
X66550000Y-106800000D02*
X66550000Y-105200000D01*
X67350000Y-106800000D02*
X66550000Y-106800000D01*
X67350000Y-105200000D02*
X67350000Y-106800000D01*
X66550000Y-105200000D02*
X67350000Y-105200000D01*
X99800000Y-124050000D02*
X99800000Y-122450000D01*
X100600000Y-124050000D02*
X99800000Y-124050000D01*
X100600000Y-122450000D02*
X100600000Y-124050000D01*
X99800000Y-122450000D02*
X100600000Y-122450000D01*
X81400000Y-124050000D02*
X81400000Y-122450000D01*
X82200000Y-124050000D02*
X81400000Y-124050000D01*
X82200000Y-122450000D02*
X82200000Y-124050000D01*
X81400000Y-122450000D02*
X82200000Y-122450000D01*
X90600000Y-124050000D02*
X90600000Y-122450000D01*
X91400000Y-124050000D02*
X90600000Y-124050000D01*
X91400000Y-122450000D02*
X91400000Y-124050000D01*
X90600000Y-122450000D02*
X91400000Y-122450000D01*
X52054000Y-93726000D02*
G75*
G03*
X52054000Y-93726000I-1000000J0D01*
G01*
X111236000Y-117983000D02*
G75*
G03*
X111236000Y-117983000I-1000000J0D01*
G01*
X59801000Y-125857000D02*
G75*
G03*
X59801000Y-125857000I-1000000J0D01*
G01*
X101330000Y-93726000D02*
G75*
G03*
X101330000Y-93726000I-1000000J0D01*
G01*
X111998000Y-130175000D02*
G75*
G03*
X111998000Y-130175000I-1000000J0D01*
G01*
X49514000Y-93726000D02*
G75*
G03*
X49514000Y-93726000I-1000000J0D01*
G01*
X103870000Y-93726000D02*
G75*
G03*
X103870000Y-93726000I-1000000J0D01*
G01*
X49514000Y-129540000D02*
G75*
G03*
X49514000Y-129540000I-1000000J0D01*
G01*
X112506000Y-115189000D02*
G75*
G03*
X112506000Y-115189000I-1000000J0D01*
G01*
X68600000Y-116800000D02*
X69600000Y-117800000D01*
X68600000Y-117800000D02*
X68600000Y-112800000D01*
X75600000Y-117800000D02*
X68600000Y-117800000D01*
X75600000Y-112800000D02*
X75600000Y-117800000D01*
X68600000Y-112800000D02*
X75600000Y-112800000D01*
X109550000Y-121300000D02*
X108750000Y-121300000D01*
X108750000Y-121300000D02*
X108750000Y-119700000D01*
X108750000Y-119700000D02*
X109550000Y-119700000D01*
X109550000Y-119700000D02*
X109550000Y-121300000D01*
X111620000Y-124950000D02*
X111620000Y-123550000D01*
X108580000Y-123550000D02*
X111620000Y-123550000D01*
X109150000Y-124950000D02*
X108580000Y-124400000D01*
X108580000Y-124400000D02*
X108580000Y-123550000D01*
X109150000Y-124950000D02*
X111600000Y-124950000D01*
X94500000Y-98450000D02*
X94500000Y-99250000D01*
X94500000Y-99250000D02*
X92900000Y-99250000D01*
X92900000Y-99250000D02*
X92900000Y-98450000D01*
X92900000Y-98450000D02*
X94500000Y-98450000D01*
X75250000Y-110600000D02*
X75250000Y-109000000D01*
X76050000Y-110600000D02*
X75250000Y-110600000D01*
X76050000Y-109000000D02*
X76050000Y-110600000D01*
X75250000Y-109000000D02*
X76050000Y-109000000D01*
X85350000Y-99250000D02*
X85350000Y-98450000D01*
X85350000Y-98450000D02*
X86950000Y-98450000D01*
X86950000Y-98450000D02*
X86950000Y-99250000D01*
X86950000Y-99250000D02*
X85350000Y-99250000D01*
X83450000Y-98450000D02*
X83450000Y-99250000D01*
X83450000Y-99250000D02*
X81850000Y-99250000D01*
X81850000Y-99250000D02*
X81850000Y-98450000D01*
X81850000Y-98450000D02*
X83450000Y-98450000D01*
X76050000Y-107650000D02*
X75250000Y-107650000D01*
X75250000Y-107650000D02*
X75250000Y-106050000D01*
X75250000Y-106050000D02*
X76050000Y-106050000D01*
X76050000Y-106050000D02*
X76050000Y-107650000D01*
X95500000Y-108000000D02*
X95500000Y-109600000D01*
X94700000Y-108000000D02*
X95500000Y-108000000D01*
X94700000Y-109600000D02*
X94700000Y-108000000D01*
X95500000Y-109600000D02*
X94700000Y-109600000D01*
X89850000Y-117850000D02*
X91450000Y-117850000D01*
X89850000Y-118650000D02*
X89850000Y-117850000D01*
X91450000Y-118650000D02*
X89850000Y-118650000D01*
X91450000Y-117850000D02*
X91450000Y-118650000D01*
X94700000Y-111000000D02*
X95500000Y-111000000D01*
X95500000Y-111000000D02*
X95500000Y-112600000D01*
X95500000Y-112600000D02*
X94700000Y-112600000D01*
X94700000Y-112600000D02*
X94700000Y-111000000D01*
X59800000Y-123550000D02*
X61400000Y-123550000D01*
X59800000Y-124350000D02*
X59800000Y-123550000D01*
X61400000Y-124350000D02*
X59800000Y-124350000D01*
X61400000Y-123550000D02*
X61400000Y-124350000D01*
X64070000Y-128500000D02*
X64070000Y-127100000D01*
X61030000Y-127100000D02*
X64070000Y-127100000D01*
X61600000Y-128500000D02*
X61030000Y-127950000D01*
X61030000Y-127950000D02*
X61030000Y-127100000D01*
X61600000Y-128500000D02*
X64050000Y-128500000D01*
X101700000Y-119950000D02*
X101700000Y-120750000D01*
X101700000Y-120750000D02*
X100100000Y-120750000D01*
X100100000Y-120750000D02*
X100100000Y-119950000D01*
X100100000Y-119950000D02*
X101700000Y-119950000D01*
X50500000Y-123550000D02*
X52100000Y-123550000D01*
X50500000Y-124350000D02*
X50500000Y-123550000D01*
X52100000Y-124350000D02*
X50500000Y-124350000D01*
X52100000Y-123550000D02*
X52100000Y-124350000D01*
X47900000Y-122450000D02*
X48700000Y-122450000D01*
X48700000Y-122450000D02*
X48700000Y-124050000D01*
X48700000Y-124050000D02*
X47900000Y-124050000D01*
X47900000Y-124050000D02*
X47900000Y-122450000D01*
X50100000Y-122600000D02*
X50100000Y-121000000D01*
X50900000Y-122600000D02*
X50100000Y-122600000D01*
X50900000Y-121000000D02*
X50900000Y-122600000D01*
X50100000Y-121000000D02*
X50900000Y-121000000D01*
X96350000Y-118050000D02*
X96350000Y-116450000D01*
X97150000Y-118050000D02*
X96350000Y-118050000D01*
X97150000Y-116450000D02*
X97150000Y-118050000D01*
X96350000Y-116450000D02*
X97150000Y-116450000D01*
D13*
X96370394Y-101848684D02*
X96353289Y-101848684D01*
X96319079Y-101831579D01*
X96301973Y-101814473D01*
X96284868Y-101780263D01*
X96284868Y-101746052D01*
X96293421Y-101720394D01*
X96319079Y-101677631D01*
X96344737Y-101651973D01*
X96387500Y-101626316D01*
X96413158Y-101617763D01*
X96447368Y-101617763D01*
X96481579Y-101634868D01*
X96498684Y-101651973D01*
X96515789Y-101686184D01*
X96515789Y-101703289D01*
X96592763Y-101746052D02*
X96703947Y-101857236D01*
X96575657Y-101865789D01*
X96601315Y-101891447D01*
X96609868Y-101917105D01*
X96609868Y-101934210D01*
X96601315Y-101959868D01*
X96558552Y-102002631D01*
X96532894Y-102011184D01*
X96515789Y-102011184D01*
X96490131Y-102002631D01*
X96438815Y-101951315D01*
X96430263Y-101925657D01*
X96430263Y-101908552D01*
X96866447Y-102019736D02*
X96780920Y-101934210D01*
X96686841Y-102011184D01*
X96703947Y-102011184D01*
X96729605Y-102019736D01*
X96772368Y-102062499D01*
X96780920Y-102088157D01*
X96780920Y-102105262D01*
X96772368Y-102130920D01*
X96729605Y-102173683D01*
X96703947Y-102182236D01*
X96686841Y-102182236D01*
X96661184Y-102173683D01*
X96618420Y-102130920D01*
X96609868Y-102105262D01*
X96609868Y-102088157D01*
D14*
X96628421Y-101706117D02*
X96577106Y-101654802D01*
X96602763Y-101680459D02*
X96692566Y-101590657D01*
X96671184Y-101594933D01*
X96654079Y-101594933D01*
X96641250Y-101590657D01*
X96799474Y-101697565D02*
X96756711Y-101654802D01*
X96709671Y-101693288D01*
X96718224Y-101693288D01*
X96731053Y-101697565D01*
X96752434Y-101718946D01*
X96756711Y-101731775D01*
X96756711Y-101740328D01*
X96752434Y-101753157D01*
X96731053Y-101774538D01*
X96718224Y-101778815D01*
X96709671Y-101778815D01*
X96696842Y-101774538D01*
X96675461Y-101753157D01*
X96671184Y-101740328D01*
X96671184Y-101731775D01*
X96812303Y-101770262D02*
X96722500Y-101860064D01*
X96808026Y-101774538D02*
X96820855Y-101778815D01*
X96837961Y-101795920D01*
X96842237Y-101808749D01*
X96842237Y-101817301D01*
X96837961Y-101830130D01*
X96812303Y-101855788D01*
X96799474Y-101860064D01*
X96790921Y-101860064D01*
X96778092Y-101855788D01*
X96760987Y-101838683D01*
X96756711Y-101825854D01*
D13*
X98403289Y-103915789D02*
X98428947Y-103770394D01*
X98300658Y-103813158D02*
X98480263Y-103633552D01*
X98548684Y-103701973D01*
X98557236Y-103727631D01*
X98557236Y-103744737D01*
X98548684Y-103770394D01*
X98523026Y-103796052D01*
X98497368Y-103804605D01*
X98480263Y-103804605D01*
X98454605Y-103796052D01*
X98386184Y-103727631D01*
X98574342Y-104086841D02*
X98471710Y-103984210D01*
X98523026Y-104035526D02*
X98702631Y-103855921D01*
X98659868Y-103864473D01*
X98625657Y-103864473D01*
X98600000Y-103855921D01*
X98865131Y-104018420D02*
X98882236Y-104035526D01*
X98890789Y-104061184D01*
X98890789Y-104078289D01*
X98882236Y-104103947D01*
X98856578Y-104146710D01*
X98813815Y-104189473D01*
X98771052Y-104215131D01*
X98745394Y-104223683D01*
X98728289Y-104223683D01*
X98702631Y-104215131D01*
X98685526Y-104198026D01*
X98676973Y-104172368D01*
X98676973Y-104155262D01*
X98685526Y-104129605D01*
X98711184Y-104086841D01*
X98753947Y-104044078D01*
X98796710Y-104018420D01*
X98822368Y-104009868D01*
X98839473Y-104009868D01*
X98865131Y-104018420D01*
D14*
X98770362Y-103728321D02*
X98710494Y-103788190D01*
X98783191Y-103672729D02*
X98697665Y-103715492D01*
X98753257Y-103771084D01*
X98838783Y-103736874D02*
X98898651Y-103796742D01*
X98770362Y-103848058D01*
D15*
X52640895Y-128641323D02*
X53298876Y-128641323D01*
X53376285Y-128602619D01*
X53414990Y-128563914D01*
X53453695Y-128486504D01*
X53453695Y-128331685D01*
X53414990Y-128254276D01*
X53376285Y-128215571D01*
X53298876Y-128176866D01*
X52640895Y-128176866D01*
X53453695Y-127364066D02*
X53453695Y-127828523D01*
X53453695Y-127596295D02*
X52640895Y-127596295D01*
X52757009Y-127673704D01*
X52834419Y-127751114D01*
X52873123Y-127828523D01*
X52718304Y-127054428D02*
X52679600Y-127015723D01*
X52640895Y-126938314D01*
X52640895Y-126744790D01*
X52679600Y-126667380D01*
X52718304Y-126628676D01*
X52795714Y-126589971D01*
X52873123Y-126589971D01*
X52989238Y-126628676D01*
X53453695Y-127093133D01*
X53453695Y-126589971D01*
D16*
X53813642Y-128632857D02*
X53795500Y-128614714D01*
X53777357Y-128578428D01*
X53777357Y-128487714D01*
X53795500Y-128451428D01*
X53813642Y-128433285D01*
X53849928Y-128415142D01*
X53886214Y-128415142D01*
X53940642Y-128433285D01*
X54158357Y-128651000D01*
X54158357Y-128415142D01*
X53777357Y-128070428D02*
X53777357Y-128251857D01*
X53958785Y-128270000D01*
X53940642Y-128251857D01*
X53922500Y-128215571D01*
X53922500Y-128124857D01*
X53940642Y-128088571D01*
X53958785Y-128070428D01*
X53995071Y-128052285D01*
X54085785Y-128052285D01*
X54122071Y-128070428D01*
X54140214Y-128088571D01*
X54158357Y-128124857D01*
X54158357Y-128215571D01*
X54140214Y-128251857D01*
X54122071Y-128270000D01*
X53958785Y-127762000D02*
X53958785Y-127889000D01*
X54158357Y-127889000D02*
X53777357Y-127889000D01*
X53777357Y-127707571D01*
X53777357Y-127489857D02*
X53777357Y-127453571D01*
X53795500Y-127417285D01*
X53813642Y-127399142D01*
X53849928Y-127381000D01*
X53922500Y-127362857D01*
X54013214Y-127362857D01*
X54085785Y-127381000D01*
X54122071Y-127399142D01*
X54140214Y-127417285D01*
X54158357Y-127453571D01*
X54158357Y-127489857D01*
X54140214Y-127526142D01*
X54122071Y-127544285D01*
X54085785Y-127562428D01*
X54013214Y-127580571D01*
X53922500Y-127580571D01*
X53849928Y-127562428D01*
X53813642Y-127544285D01*
X53795500Y-127526142D01*
X53777357Y-127489857D01*
X54158357Y-127000000D02*
X54158357Y-127217714D01*
X54158357Y-127108857D02*
X53777357Y-127108857D01*
X53831785Y-127145142D01*
X53868071Y-127181428D01*
X53886214Y-127217714D01*
X53777357Y-126764142D02*
X53777357Y-126727857D01*
X53795500Y-126691571D01*
X53813642Y-126673428D01*
X53849928Y-126655285D01*
X53922500Y-126637142D01*
X54013214Y-126637142D01*
X54085785Y-126655285D01*
X54122071Y-126673428D01*
X54140214Y-126691571D01*
X54158357Y-126727857D01*
X54158357Y-126764142D01*
X54140214Y-126800428D01*
X54122071Y-126818571D01*
X54085785Y-126836714D01*
X54013214Y-126854857D01*
X53922500Y-126854857D01*
X53849928Y-126836714D01*
X53813642Y-126818571D01*
X53795500Y-126800428D01*
X53777357Y-126764142D01*
D13*
X71112523Y-102964904D02*
X71112523Y-102710904D01*
X71173000Y-102710904D01*
X71209285Y-102723000D01*
X71233476Y-102747190D01*
X71245571Y-102771380D01*
X71257666Y-102819761D01*
X71257666Y-102856047D01*
X71245571Y-102904428D01*
X71233476Y-102928619D01*
X71209285Y-102952809D01*
X71173000Y-102964904D01*
X71112523Y-102964904D01*
X71499571Y-102964904D02*
X71354428Y-102964904D01*
X71427000Y-102964904D02*
X71427000Y-102710904D01*
X71402809Y-102747190D01*
X71378619Y-102771380D01*
X71354428Y-102783476D01*
X70834333Y-102310904D02*
X70894809Y-102564904D01*
X70943190Y-102383476D01*
X70991571Y-102564904D01*
X71052047Y-102310904D01*
X71148809Y-102564904D02*
X71148809Y-102310904D01*
X71257666Y-102564904D02*
X71257666Y-102431857D01*
X71245571Y-102407666D01*
X71221380Y-102395571D01*
X71185095Y-102395571D01*
X71160904Y-102407666D01*
X71148809Y-102419761D01*
X71378619Y-102564904D02*
X71378619Y-102395571D01*
X71378619Y-102310904D02*
X71366523Y-102323000D01*
X71378619Y-102335095D01*
X71390714Y-102323000D01*
X71378619Y-102310904D01*
X71378619Y-102335095D01*
X71463285Y-102395571D02*
X71560047Y-102395571D01*
X71499571Y-102310904D02*
X71499571Y-102528619D01*
X71511666Y-102552809D01*
X71535857Y-102564904D01*
X71560047Y-102564904D01*
X71741476Y-102552809D02*
X71717285Y-102564904D01*
X71668904Y-102564904D01*
X71644714Y-102552809D01*
X71632619Y-102528619D01*
X71632619Y-102431857D01*
X71644714Y-102407666D01*
X71668904Y-102395571D01*
X71717285Y-102395571D01*
X71741476Y-102407666D01*
X71753571Y-102431857D01*
X71753571Y-102456047D01*
X71632619Y-102480238D01*
X71257666Y-104714904D02*
X71173000Y-104593952D01*
X71112523Y-104714904D02*
X71112523Y-104460904D01*
X71209285Y-104460904D01*
X71233476Y-104473000D01*
X71245571Y-104485095D01*
X71257666Y-104509285D01*
X71257666Y-104545571D01*
X71245571Y-104569761D01*
X71233476Y-104581857D01*
X71209285Y-104593952D01*
X71112523Y-104593952D01*
X71342333Y-104460904D02*
X71511666Y-104460904D01*
X71402809Y-104714904D01*
X71130666Y-105064904D02*
X70985523Y-105064904D01*
X71058095Y-105064904D02*
X71058095Y-104810904D01*
X71033904Y-104847190D01*
X71009714Y-104871380D01*
X70985523Y-104883476D01*
X71275809Y-104919761D02*
X71251619Y-104907666D01*
X71239523Y-104895571D01*
X71227428Y-104871380D01*
X71227428Y-104859285D01*
X71239523Y-104835095D01*
X71251619Y-104823000D01*
X71275809Y-104810904D01*
X71324190Y-104810904D01*
X71348380Y-104823000D01*
X71360476Y-104835095D01*
X71372571Y-104859285D01*
X71372571Y-104871380D01*
X71360476Y-104895571D01*
X71348380Y-104907666D01*
X71324190Y-104919761D01*
X71275809Y-104919761D01*
X71251619Y-104931857D01*
X71239523Y-104943952D01*
X71227428Y-104968142D01*
X71227428Y-105016523D01*
X71239523Y-105040714D01*
X71251619Y-105052809D01*
X71275809Y-105064904D01*
X71324190Y-105064904D01*
X71348380Y-105052809D01*
X71360476Y-105040714D01*
X71372571Y-105016523D01*
X71372571Y-104968142D01*
X71360476Y-104943952D01*
X71348380Y-104931857D01*
X71324190Y-104919761D01*
X71529809Y-104810904D02*
X71554000Y-104810904D01*
X71578190Y-104823000D01*
X71590285Y-104835095D01*
X71602380Y-104859285D01*
X71614476Y-104907666D01*
X71614476Y-104968142D01*
X71602380Y-105016523D01*
X71590285Y-105040714D01*
X71578190Y-105052809D01*
X71554000Y-105064904D01*
X71529809Y-105064904D01*
X71505619Y-105052809D01*
X71493523Y-105040714D01*
X71481428Y-105016523D01*
X71469333Y-104968142D01*
X71469333Y-104907666D01*
X71481428Y-104859285D01*
X71493523Y-104835095D01*
X71505619Y-104823000D01*
X71529809Y-104810904D01*
X70407666Y-108064904D02*
X70323000Y-107943952D01*
X70262523Y-108064904D02*
X70262523Y-107810904D01*
X70359285Y-107810904D01*
X70383476Y-107823000D01*
X70395571Y-107835095D01*
X70407666Y-107859285D01*
X70407666Y-107895571D01*
X70395571Y-107919761D01*
X70383476Y-107931857D01*
X70359285Y-107943952D01*
X70262523Y-107943952D01*
X70552809Y-107919761D02*
X70528619Y-107907666D01*
X70516523Y-107895571D01*
X70504428Y-107871380D01*
X70504428Y-107859285D01*
X70516523Y-107835095D01*
X70528619Y-107823000D01*
X70552809Y-107810904D01*
X70601190Y-107810904D01*
X70625380Y-107823000D01*
X70637476Y-107835095D01*
X70649571Y-107859285D01*
X70649571Y-107871380D01*
X70637476Y-107895571D01*
X70625380Y-107907666D01*
X70601190Y-107919761D01*
X70552809Y-107919761D01*
X70528619Y-107931857D01*
X70516523Y-107943952D01*
X70504428Y-107968142D01*
X70504428Y-108016523D01*
X70516523Y-108040714D01*
X70528619Y-108052809D01*
X70552809Y-108064904D01*
X70601190Y-108064904D01*
X70625380Y-108052809D01*
X70637476Y-108040714D01*
X70649571Y-108016523D01*
X70649571Y-107968142D01*
X70637476Y-107943952D01*
X70625380Y-107931857D01*
X70601190Y-107919761D01*
D14*
X70413714Y-107672785D02*
X70413714Y-107757452D01*
X70383476Y-107624404D02*
X70353238Y-107715119D01*
X70431857Y-107715119D01*
X70468142Y-107630452D02*
X70552809Y-107630452D01*
X70498380Y-107757452D01*
D13*
X73207666Y-108064904D02*
X73123000Y-107943952D01*
X73062523Y-108064904D02*
X73062523Y-107810904D01*
X73159285Y-107810904D01*
X73183476Y-107823000D01*
X73195571Y-107835095D01*
X73207666Y-107859285D01*
X73207666Y-107895571D01*
X73195571Y-107919761D01*
X73183476Y-107931857D01*
X73159285Y-107943952D01*
X73062523Y-107943952D01*
X73328619Y-108064904D02*
X73377000Y-108064904D01*
X73401190Y-108052809D01*
X73413285Y-108040714D01*
X73437476Y-108004428D01*
X73449571Y-107956047D01*
X73449571Y-107859285D01*
X73437476Y-107835095D01*
X73425380Y-107823000D01*
X73401190Y-107810904D01*
X73352809Y-107810904D01*
X73328619Y-107823000D01*
X73316523Y-107835095D01*
X73304428Y-107859285D01*
X73304428Y-107919761D01*
X73316523Y-107943952D01*
X73328619Y-107956047D01*
X73352809Y-107968142D01*
X73401190Y-107968142D01*
X73425380Y-107956047D01*
X73437476Y-107943952D01*
X73449571Y-107919761D01*
D14*
X73213714Y-108172785D02*
X73213714Y-108257452D01*
X73183476Y-108124404D02*
X73153238Y-108215119D01*
X73231857Y-108215119D01*
X73268142Y-108130452D02*
X73352809Y-108130452D01*
X73298380Y-108257452D01*
D13*
X95414904Y-117292333D02*
X95293952Y-117377000D01*
X95414904Y-117437476D02*
X95160904Y-117437476D01*
X95160904Y-117340714D01*
X95173000Y-117316523D01*
X95185095Y-117304428D01*
X95209285Y-117292333D01*
X95245571Y-117292333D01*
X95269761Y-117304428D01*
X95281857Y-117316523D01*
X95293952Y-117340714D01*
X95293952Y-117437476D01*
X95414904Y-117050428D02*
X95414904Y-117195571D01*
X95414904Y-117123000D02*
X95160904Y-117123000D01*
X95197190Y-117147190D01*
X95221380Y-117171380D01*
X95233476Y-117195571D01*
D14*
X95107452Y-117325595D02*
X95107452Y-117398166D01*
X95107452Y-117361880D02*
X94980452Y-117361880D01*
X94998595Y-117373976D01*
X95010690Y-117386071D01*
X95016738Y-117398166D01*
X94980452Y-117246976D02*
X94980452Y-117234880D01*
X94986500Y-117222785D01*
X94992547Y-117216738D01*
X95004642Y-117210690D01*
X95028833Y-117204642D01*
X95059071Y-117204642D01*
X95083261Y-117210690D01*
X95095357Y-117216738D01*
X95101404Y-117222785D01*
X95107452Y-117234880D01*
X95107452Y-117246976D01*
X95101404Y-117259071D01*
X95095357Y-117265119D01*
X95083261Y-117271166D01*
X95059071Y-117277214D01*
X95028833Y-117277214D01*
X95004642Y-117271166D01*
X94992547Y-117265119D01*
X94986500Y-117259071D01*
X94980452Y-117246976D01*
X95107452Y-117150214D02*
X94980452Y-117150214D01*
X95059071Y-117138119D02*
X95107452Y-117101833D01*
X95022785Y-117101833D02*
X95071166Y-117150214D01*
D15*
X84780723Y-108104895D02*
X84780723Y-108762876D01*
X84819428Y-108840285D01*
X84858133Y-108878990D01*
X84935542Y-108917695D01*
X85090361Y-108917695D01*
X85167771Y-108878990D01*
X85206476Y-108840285D01*
X85245180Y-108762876D01*
X85245180Y-108104895D01*
X86057980Y-108917695D02*
X85593523Y-108917695D01*
X85825752Y-108917695D02*
X85825752Y-108104895D01*
X85748342Y-108221009D01*
X85670933Y-108298419D01*
X85593523Y-108337123D01*
D12*
X81904476Y-109829809D02*
X81904476Y-109491142D01*
X81904476Y-109321809D02*
X81880285Y-109346000D01*
X81904476Y-109370190D01*
X81928666Y-109346000D01*
X81904476Y-109321809D01*
X81904476Y-109370190D01*
X82436666Y-109781428D02*
X82412476Y-109805619D01*
X82339904Y-109829809D01*
X82291523Y-109829809D01*
X82218952Y-109805619D01*
X82170571Y-109757238D01*
X82146380Y-109708857D01*
X82122190Y-109612095D01*
X82122190Y-109539523D01*
X82146380Y-109442761D01*
X82170571Y-109394380D01*
X82218952Y-109346000D01*
X82291523Y-109321809D01*
X82339904Y-109321809D01*
X82412476Y-109346000D01*
X82436666Y-109370190D01*
X82654380Y-109563714D02*
X82823714Y-109563714D01*
X82896285Y-109829809D02*
X82654380Y-109829809D01*
X82654380Y-109321809D01*
X82896285Y-109321809D01*
X83331714Y-109491142D02*
X83331714Y-109829809D01*
X83210761Y-109297619D02*
X83089809Y-109660476D01*
X83404285Y-109660476D01*
X83694571Y-109321809D02*
X83742952Y-109321809D01*
X83791333Y-109346000D01*
X83815523Y-109370190D01*
X83839714Y-109418571D01*
X83863904Y-109515333D01*
X83863904Y-109636285D01*
X83839714Y-109733047D01*
X83815523Y-109781428D01*
X83791333Y-109805619D01*
X83742952Y-109829809D01*
X83694571Y-109829809D01*
X83646190Y-109805619D01*
X83622000Y-109781428D01*
X83597809Y-109733047D01*
X83573619Y-109636285D01*
X83573619Y-109515333D01*
X83597809Y-109418571D01*
X83622000Y-109370190D01*
X83646190Y-109346000D01*
X83694571Y-109321809D01*
X84081619Y-109829809D02*
X84081619Y-109321809D01*
X84081619Y-109563714D02*
X84371904Y-109563714D01*
X84371904Y-109829809D02*
X84371904Y-109321809D01*
X84565428Y-109321809D02*
X84904095Y-109829809D01*
X84904095Y-109321809D02*
X84565428Y-109829809D01*
X85363714Y-109829809D02*
X85073428Y-109829809D01*
X85218571Y-109829809D02*
X85218571Y-109321809D01*
X85170190Y-109394380D01*
X85121809Y-109442761D01*
X85073428Y-109466952D01*
X85581428Y-109829809D02*
X85581428Y-109321809D01*
X85871714Y-109829809D02*
X85654000Y-109539523D01*
X85871714Y-109321809D02*
X85581428Y-109612095D01*
X86089428Y-109636285D02*
X86476476Y-109636285D01*
X86645809Y-109321809D02*
X86815142Y-109829809D01*
X86984476Y-109321809D01*
X87492476Y-109878190D02*
X87444095Y-109854000D01*
X87395714Y-109805619D01*
X87323142Y-109733047D01*
X87274761Y-109708857D01*
X87226380Y-109708857D01*
X87250571Y-109829809D02*
X87202190Y-109805619D01*
X87153809Y-109757238D01*
X87129619Y-109660476D01*
X87129619Y-109491142D01*
X87153809Y-109394380D01*
X87202190Y-109346000D01*
X87250571Y-109321809D01*
X87347333Y-109321809D01*
X87395714Y-109346000D01*
X87444095Y-109394380D01*
X87468285Y-109491142D01*
X87468285Y-109660476D01*
X87444095Y-109757238D01*
X87395714Y-109805619D01*
X87347333Y-109829809D01*
X87250571Y-109829809D01*
X87952095Y-109829809D02*
X87661809Y-109829809D01*
X87806952Y-109829809D02*
X87806952Y-109321809D01*
X87758571Y-109394380D01*
X87710190Y-109442761D01*
X87661809Y-109466952D01*
X88266571Y-109321809D02*
X88314952Y-109321809D01*
X88363333Y-109346000D01*
X88387523Y-109370190D01*
X88411714Y-109418571D01*
X88435904Y-109515333D01*
X88435904Y-109636285D01*
X88411714Y-109733047D01*
X88387523Y-109781428D01*
X88363333Y-109805619D01*
X88314952Y-109829809D01*
X88266571Y-109829809D01*
X88218190Y-109805619D01*
X88194000Y-109781428D01*
X88169809Y-109733047D01*
X88145619Y-109636285D01*
X88145619Y-109515333D01*
X88169809Y-109418571D01*
X88194000Y-109370190D01*
X88218190Y-109346000D01*
X88266571Y-109321809D01*
X88750380Y-109321809D02*
X88798761Y-109321809D01*
X88847142Y-109346000D01*
X88871333Y-109370190D01*
X88895523Y-109418571D01*
X88919714Y-109515333D01*
X88919714Y-109636285D01*
X88895523Y-109733047D01*
X88871333Y-109781428D01*
X88847142Y-109805619D01*
X88798761Y-109829809D01*
X88750380Y-109829809D01*
X88702000Y-109805619D01*
X88677809Y-109781428D01*
X88653619Y-109733047D01*
X88629428Y-109636285D01*
X88629428Y-109515333D01*
X88653619Y-109418571D01*
X88677809Y-109370190D01*
X88702000Y-109346000D01*
X88750380Y-109321809D01*
D16*
X106466500Y-113934928D02*
X106466500Y-113753500D01*
X106575357Y-113971214D02*
X106194357Y-113844214D01*
X106575357Y-113717214D01*
X106194357Y-113626500D02*
X106194357Y-113372500D01*
X106575357Y-113626500D01*
X106575357Y-113372500D01*
X106575357Y-113027785D02*
X106575357Y-113245500D01*
X106575357Y-113136642D02*
X106194357Y-113136642D01*
X106248785Y-113172928D01*
X106285071Y-113209214D01*
X106303214Y-113245500D01*
X106575357Y-112664928D02*
X106575357Y-112882642D01*
X106575357Y-112773785D02*
X106194357Y-112773785D01*
X106248785Y-112810071D01*
X106285071Y-112846357D01*
X106303214Y-112882642D01*
X106575357Y-112302071D02*
X106575357Y-112519785D01*
X106575357Y-112410928D02*
X106194357Y-112410928D01*
X106248785Y-112447214D01*
X106285071Y-112483500D01*
X106303214Y-112519785D01*
X106194357Y-112175071D02*
X106194357Y-111921071D01*
X106575357Y-112084357D01*
X106539071Y-111558214D02*
X106557214Y-111576357D01*
X106575357Y-111630785D01*
X106575357Y-111667071D01*
X106557214Y-111721500D01*
X106520928Y-111757785D01*
X106484642Y-111775928D01*
X106412071Y-111794071D01*
X106357642Y-111794071D01*
X106285071Y-111775928D01*
X106248785Y-111757785D01*
X106212500Y-111721500D01*
X106194357Y-111667071D01*
X106194357Y-111630785D01*
X106212500Y-111576357D01*
X106230642Y-111558214D01*
X106575357Y-111394928D02*
X106194357Y-111394928D01*
X106375785Y-111394928D02*
X106375785Y-111177214D01*
X106575357Y-111177214D02*
X106194357Y-111177214D01*
X106430214Y-110995785D02*
X106430214Y-110705500D01*
X106194357Y-110560357D02*
X106194357Y-110324500D01*
X106339500Y-110451500D01*
X106339500Y-110397071D01*
X106357642Y-110360785D01*
X106375785Y-110342642D01*
X106412071Y-110324500D01*
X106502785Y-110324500D01*
X106539071Y-110342642D01*
X106557214Y-110360785D01*
X106575357Y-110397071D01*
X106575357Y-110505928D01*
X106557214Y-110542214D01*
X106539071Y-110560357D01*
X106539071Y-110161214D02*
X106557214Y-110143071D01*
X106575357Y-110161214D01*
X106557214Y-110179357D01*
X106539071Y-110161214D01*
X106575357Y-110161214D01*
X106194357Y-110016071D02*
X106194357Y-109780214D01*
X106339500Y-109907214D01*
X106339500Y-109852785D01*
X106357642Y-109816500D01*
X106375785Y-109798357D01*
X106412071Y-109780214D01*
X106502785Y-109780214D01*
X106539071Y-109798357D01*
X106557214Y-109816500D01*
X106575357Y-109852785D01*
X106575357Y-109961642D01*
X106557214Y-109997928D01*
X106539071Y-110016071D01*
X106194357Y-109671357D02*
X106194357Y-109453642D01*
X106575357Y-109562500D02*
X106194357Y-109562500D01*
X106575357Y-109108928D02*
X106393928Y-109235928D01*
X106575357Y-109326642D02*
X106194357Y-109326642D01*
X106194357Y-109181500D01*
X106212500Y-109145214D01*
X106230642Y-109127071D01*
X106266928Y-109108928D01*
X106321357Y-109108928D01*
X106357642Y-109127071D01*
X106375785Y-109145214D01*
X106393928Y-109181500D01*
X106393928Y-109326642D01*
X106212500Y-108746071D02*
X106194357Y-108782357D01*
X106194357Y-108836785D01*
X106212500Y-108891214D01*
X106248785Y-108927500D01*
X106285071Y-108945642D01*
X106357642Y-108963785D01*
X106412071Y-108963785D01*
X106484642Y-108945642D01*
X106520928Y-108927500D01*
X106557214Y-108891214D01*
X106575357Y-108836785D01*
X106575357Y-108800500D01*
X106557214Y-108746071D01*
X106539071Y-108727928D01*
X106412071Y-108727928D01*
X106412071Y-108800500D01*
X106575357Y-108365071D02*
X106575357Y-108582785D01*
X106575357Y-108473928D02*
X106194357Y-108473928D01*
X106248785Y-108510214D01*
X106285071Y-108546500D01*
X106303214Y-108582785D01*
D15*
X104941895Y-111769276D02*
X105599876Y-111769276D01*
X105677285Y-111730571D01*
X105715990Y-111691866D01*
X105754695Y-111614457D01*
X105754695Y-111459638D01*
X105715990Y-111382228D01*
X105677285Y-111343523D01*
X105599876Y-111304819D01*
X104941895Y-111304819D01*
X105290238Y-110801657D02*
X105251533Y-110879066D01*
X105212828Y-110917771D01*
X105135419Y-110956476D01*
X105096714Y-110956476D01*
X105019304Y-110917771D01*
X104980600Y-110879066D01*
X104941895Y-110801657D01*
X104941895Y-110646838D01*
X104980600Y-110569428D01*
X105019304Y-110530723D01*
X105096714Y-110492019D01*
X105135419Y-110492019D01*
X105212828Y-110530723D01*
X105251533Y-110569428D01*
X105290238Y-110646838D01*
X105290238Y-110801657D01*
X105328942Y-110879066D01*
X105367647Y-110917771D01*
X105445057Y-110956476D01*
X105599876Y-110956476D01*
X105677285Y-110917771D01*
X105715990Y-110879066D01*
X105754695Y-110801657D01*
X105754695Y-110646838D01*
X105715990Y-110569428D01*
X105677285Y-110530723D01*
X105599876Y-110492019D01*
X105445057Y-110492019D01*
X105367647Y-110530723D01*
X105328942Y-110569428D01*
X105290238Y-110646838D01*
D13*
X71236714Y-99440714D02*
X71224619Y-99452809D01*
X71188333Y-99464904D01*
X71164142Y-99464904D01*
X71127857Y-99452809D01*
X71103666Y-99428619D01*
X71091571Y-99404428D01*
X71079476Y-99356047D01*
X71079476Y-99319761D01*
X71091571Y-99271380D01*
X71103666Y-99247190D01*
X71127857Y-99223000D01*
X71164142Y-99210904D01*
X71188333Y-99210904D01*
X71224619Y-99223000D01*
X71236714Y-99235095D01*
X71321380Y-99210904D02*
X71478619Y-99210904D01*
X71393952Y-99307666D01*
X71430238Y-99307666D01*
X71454428Y-99319761D01*
X71466523Y-99331857D01*
X71478619Y-99356047D01*
X71478619Y-99416523D01*
X71466523Y-99440714D01*
X71454428Y-99452809D01*
X71430238Y-99464904D01*
X71357666Y-99464904D01*
X71333476Y-99452809D01*
X71321380Y-99440714D01*
X71696333Y-99295571D02*
X71696333Y-99464904D01*
X71635857Y-99198809D02*
X71575380Y-99380238D01*
X71732619Y-99380238D01*
D14*
X71245785Y-99042547D02*
X71251833Y-99036500D01*
X71263928Y-99030452D01*
X71294166Y-99030452D01*
X71306261Y-99036500D01*
X71312309Y-99042547D01*
X71318357Y-99054642D01*
X71318357Y-99066738D01*
X71312309Y-99084880D01*
X71239738Y-99157452D01*
X71318357Y-99157452D01*
X71427214Y-99072785D02*
X71427214Y-99157452D01*
X71372785Y-99072785D02*
X71372785Y-99139309D01*
X71378833Y-99151404D01*
X71390928Y-99157452D01*
X71409071Y-99157452D01*
X71421166Y-99151404D01*
X71427214Y-99145357D01*
X71481642Y-99042547D02*
X71487690Y-99036500D01*
X71499785Y-99030452D01*
X71530023Y-99030452D01*
X71542119Y-99036500D01*
X71548166Y-99042547D01*
X71554214Y-99054642D01*
X71554214Y-99066738D01*
X71548166Y-99084880D01*
X71475595Y-99157452D01*
X71554214Y-99157452D01*
D15*
X94805723Y-125004895D02*
X94805723Y-125662876D01*
X94844428Y-125740285D01*
X94883133Y-125778990D01*
X94960542Y-125817695D01*
X95115361Y-125817695D01*
X95192771Y-125778990D01*
X95231476Y-125740285D01*
X95270180Y-125662876D01*
X95270180Y-125004895D01*
X96005571Y-125004895D02*
X95850752Y-125004895D01*
X95773342Y-125043600D01*
X95734638Y-125082304D01*
X95657228Y-125198419D01*
X95618523Y-125353238D01*
X95618523Y-125662876D01*
X95657228Y-125740285D01*
X95695933Y-125778990D01*
X95773342Y-125817695D01*
X95928161Y-125817695D01*
X96005571Y-125778990D01*
X96044276Y-125740285D01*
X96082980Y-125662876D01*
X96082980Y-125469352D01*
X96044276Y-125391942D01*
X96005571Y-125353238D01*
X95928161Y-125314533D01*
X95773342Y-125314533D01*
X95695933Y-125353238D01*
X95657228Y-125391942D01*
X95618523Y-125469352D01*
D12*
X92848714Y-126187809D02*
X93187380Y-126187809D01*
X92969666Y-126695809D01*
X93598619Y-126357142D02*
X93598619Y-126695809D01*
X93477666Y-126163619D02*
X93356714Y-126526476D01*
X93671190Y-126526476D01*
X94106619Y-126695809D02*
X93864714Y-126695809D01*
X93864714Y-126187809D01*
X94203380Y-126187809D02*
X94372714Y-126695809D01*
X94542047Y-126187809D01*
X95001666Y-126647428D02*
X94977476Y-126671619D01*
X94904904Y-126695809D01*
X94856523Y-126695809D01*
X94783952Y-126671619D01*
X94735571Y-126623238D01*
X94711380Y-126574857D01*
X94687190Y-126478095D01*
X94687190Y-126405523D01*
X94711380Y-126308761D01*
X94735571Y-126260380D01*
X94783952Y-126212000D01*
X94856523Y-126187809D01*
X94904904Y-126187809D01*
X94977476Y-126212000D01*
X95001666Y-126236190D01*
X95195190Y-126236190D02*
X95219380Y-126212000D01*
X95267761Y-126187809D01*
X95388714Y-126187809D01*
X95437095Y-126212000D01*
X95461285Y-126236190D01*
X95485476Y-126284571D01*
X95485476Y-126332952D01*
X95461285Y-126405523D01*
X95171000Y-126695809D01*
X95485476Y-126695809D01*
X95920904Y-126357142D02*
X95920904Y-126695809D01*
X95799952Y-126163619D02*
X95679000Y-126526476D01*
X95993476Y-126526476D01*
X96428904Y-126187809D02*
X96187000Y-126187809D01*
X96162809Y-126429714D01*
X96187000Y-126405523D01*
X96235380Y-126381333D01*
X96356333Y-126381333D01*
X96404714Y-126405523D01*
X96428904Y-126429714D01*
X96453095Y-126478095D01*
X96453095Y-126599047D01*
X96428904Y-126647428D01*
X96404714Y-126671619D01*
X96356333Y-126695809D01*
X96235380Y-126695809D01*
X96187000Y-126671619D01*
X96162809Y-126647428D01*
X96646619Y-126550666D02*
X96888523Y-126550666D01*
X96598238Y-126695809D02*
X96767571Y-126187809D01*
X96936904Y-126695809D01*
X97106238Y-126695809D02*
X97106238Y-126187809D01*
X97299761Y-126187809D01*
X97348142Y-126212000D01*
X97372333Y-126236190D01*
X97396523Y-126284571D01*
X97396523Y-126357142D01*
X97372333Y-126405523D01*
X97348142Y-126429714D01*
X97299761Y-126453904D01*
X97106238Y-126453904D01*
X97565857Y-126187809D02*
X97686809Y-126695809D01*
X97783571Y-126332952D01*
X97880333Y-126695809D01*
X98001285Y-126187809D01*
D15*
X105023157Y-95493684D02*
X104612631Y-95904210D01*
X104503158Y-95958947D01*
X104393684Y-95958947D01*
X104284211Y-95904210D01*
X104229474Y-95849473D01*
X105214736Y-95794737D02*
X105269473Y-95794737D01*
X105351578Y-95822105D01*
X105488420Y-95958947D01*
X105515788Y-96041052D01*
X105515788Y-96095789D01*
X105488420Y-96177894D01*
X105433683Y-96232631D01*
X105324210Y-96287368D01*
X104667368Y-96287368D01*
X105023157Y-96643157D01*
X106512323Y-96964737D02*
X106101797Y-97375263D01*
X105992324Y-97430000D01*
X105882850Y-97430000D01*
X105773377Y-97375263D01*
X105718640Y-97320526D01*
X106703902Y-97156316D02*
X107032323Y-97484737D01*
X106293376Y-97895263D02*
X106868113Y-97320526D01*
X106786007Y-98059473D02*
X107059691Y-98333157D01*
X106567060Y-98168947D02*
X107333375Y-97785789D01*
X106950218Y-98552104D01*
X107990217Y-98497367D02*
X107962848Y-98415262D01*
X107880743Y-98333157D01*
X107771270Y-98278420D01*
X107661796Y-98278420D01*
X107579691Y-98305789D01*
X107442849Y-98387894D01*
X107360744Y-98469999D01*
X107278638Y-98606841D01*
X107251270Y-98688946D01*
X107251270Y-98798420D01*
X107306007Y-98907893D01*
X107360744Y-98962630D01*
X107470217Y-99017367D01*
X107524954Y-99017367D01*
X107716533Y-98825788D01*
X107607059Y-98716315D01*
D11*
X103625522Y-100792072D02*
X103120446Y-101297148D01*
X102985759Y-101364492D01*
X102851072Y-101364492D01*
X102716385Y-101297148D01*
X102649042Y-101229805D01*
X103861225Y-101162461D02*
X103928568Y-101162461D01*
X104029583Y-101196133D01*
X104197942Y-101364492D01*
X104231614Y-101465507D01*
X104231614Y-101532851D01*
X104197942Y-101633866D01*
X104130599Y-101701209D01*
X103995912Y-101768553D01*
X103187790Y-101768553D01*
X103625522Y-102206286D01*
D13*
X89986714Y-98940714D02*
X89974619Y-98952809D01*
X89938333Y-98964904D01*
X89914142Y-98964904D01*
X89877857Y-98952809D01*
X89853666Y-98928619D01*
X89841571Y-98904428D01*
X89829476Y-98856047D01*
X89829476Y-98819761D01*
X89841571Y-98771380D01*
X89853666Y-98747190D01*
X89877857Y-98723000D01*
X89914142Y-98710904D01*
X89938333Y-98710904D01*
X89974619Y-98723000D01*
X89986714Y-98735095D01*
X90071380Y-98710904D02*
X90228619Y-98710904D01*
X90143952Y-98807666D01*
X90180238Y-98807666D01*
X90204428Y-98819761D01*
X90216523Y-98831857D01*
X90228619Y-98856047D01*
X90228619Y-98916523D01*
X90216523Y-98940714D01*
X90204428Y-98952809D01*
X90180238Y-98964904D01*
X90107666Y-98964904D01*
X90083476Y-98952809D01*
X90071380Y-98940714D01*
X90470523Y-98964904D02*
X90325380Y-98964904D01*
X90397952Y-98964904D02*
X90397952Y-98710904D01*
X90373761Y-98747190D01*
X90349571Y-98771380D01*
X90325380Y-98783476D01*
D14*
X89995785Y-98542547D02*
X90001833Y-98536500D01*
X90013928Y-98530452D01*
X90044166Y-98530452D01*
X90056261Y-98536500D01*
X90062309Y-98542547D01*
X90068357Y-98554642D01*
X90068357Y-98566738D01*
X90062309Y-98584880D01*
X89989738Y-98657452D01*
X90068357Y-98657452D01*
X90177214Y-98572785D02*
X90177214Y-98657452D01*
X90122785Y-98572785D02*
X90122785Y-98639309D01*
X90128833Y-98651404D01*
X90140928Y-98657452D01*
X90159071Y-98657452D01*
X90171166Y-98651404D01*
X90177214Y-98645357D01*
X90231642Y-98542547D02*
X90237690Y-98536500D01*
X90249785Y-98530452D01*
X90280023Y-98530452D01*
X90292119Y-98536500D01*
X90298166Y-98542547D01*
X90304214Y-98554642D01*
X90304214Y-98566738D01*
X90298166Y-98584880D01*
X90225595Y-98657452D01*
X90304214Y-98657452D01*
D13*
X85486714Y-118340714D02*
X85474619Y-118352809D01*
X85438333Y-118364904D01*
X85414142Y-118364904D01*
X85377857Y-118352809D01*
X85353666Y-118328619D01*
X85341571Y-118304428D01*
X85329476Y-118256047D01*
X85329476Y-118219761D01*
X85341571Y-118171380D01*
X85353666Y-118147190D01*
X85377857Y-118123000D01*
X85414142Y-118110904D01*
X85438333Y-118110904D01*
X85474619Y-118123000D01*
X85486714Y-118135095D01*
X85571380Y-118110904D02*
X85728619Y-118110904D01*
X85643952Y-118207666D01*
X85680238Y-118207666D01*
X85704428Y-118219761D01*
X85716523Y-118231857D01*
X85728619Y-118256047D01*
X85728619Y-118316523D01*
X85716523Y-118340714D01*
X85704428Y-118352809D01*
X85680238Y-118364904D01*
X85607666Y-118364904D01*
X85583476Y-118352809D01*
X85571380Y-118340714D01*
X85825380Y-118135095D02*
X85837476Y-118123000D01*
X85861666Y-118110904D01*
X85922142Y-118110904D01*
X85946333Y-118123000D01*
X85958428Y-118135095D01*
X85970523Y-118159285D01*
X85970523Y-118183476D01*
X85958428Y-118219761D01*
X85813285Y-118364904D01*
X85970523Y-118364904D01*
D14*
X85495785Y-118442547D02*
X85501833Y-118436500D01*
X85513928Y-118430452D01*
X85544166Y-118430452D01*
X85556261Y-118436500D01*
X85562309Y-118442547D01*
X85568357Y-118454642D01*
X85568357Y-118466738D01*
X85562309Y-118484880D01*
X85489738Y-118557452D01*
X85568357Y-118557452D01*
X85677214Y-118472785D02*
X85677214Y-118557452D01*
X85622785Y-118472785D02*
X85622785Y-118539309D01*
X85628833Y-118551404D01*
X85640928Y-118557452D01*
X85659071Y-118557452D01*
X85671166Y-118551404D01*
X85677214Y-118545357D01*
X85731642Y-118442547D02*
X85737690Y-118436500D01*
X85749785Y-118430452D01*
X85780023Y-118430452D01*
X85792119Y-118436500D01*
X85798166Y-118442547D01*
X85804214Y-118454642D01*
X85804214Y-118466738D01*
X85798166Y-118484880D01*
X85725595Y-118557452D01*
X85804214Y-118557452D01*
D13*
X81986714Y-118340714D02*
X81974619Y-118352809D01*
X81938333Y-118364904D01*
X81914142Y-118364904D01*
X81877857Y-118352809D01*
X81853666Y-118328619D01*
X81841571Y-118304428D01*
X81829476Y-118256047D01*
X81829476Y-118219761D01*
X81841571Y-118171380D01*
X81853666Y-118147190D01*
X81877857Y-118123000D01*
X81914142Y-118110904D01*
X81938333Y-118110904D01*
X81974619Y-118123000D01*
X81986714Y-118135095D01*
X82228619Y-118364904D02*
X82083476Y-118364904D01*
X82156047Y-118364904D02*
X82156047Y-118110904D01*
X82131857Y-118147190D01*
X82107666Y-118171380D01*
X82083476Y-118183476D01*
X82313285Y-118110904D02*
X82470523Y-118110904D01*
X82385857Y-118207666D01*
X82422142Y-118207666D01*
X82446333Y-118219761D01*
X82458428Y-118231857D01*
X82470523Y-118256047D01*
X82470523Y-118316523D01*
X82458428Y-118340714D01*
X82446333Y-118352809D01*
X82422142Y-118364904D01*
X82349571Y-118364904D01*
X82325380Y-118352809D01*
X82313285Y-118340714D01*
D14*
X81995785Y-118442547D02*
X82001833Y-118436500D01*
X82013928Y-118430452D01*
X82044166Y-118430452D01*
X82056261Y-118436500D01*
X82062309Y-118442547D01*
X82068357Y-118454642D01*
X82068357Y-118466738D01*
X82062309Y-118484880D01*
X81989738Y-118557452D01*
X82068357Y-118557452D01*
X82177214Y-118472785D02*
X82177214Y-118557452D01*
X82122785Y-118472785D02*
X82122785Y-118539309D01*
X82128833Y-118551404D01*
X82140928Y-118557452D01*
X82159071Y-118557452D01*
X82171166Y-118551404D01*
X82177214Y-118545357D01*
X82231642Y-118442547D02*
X82237690Y-118436500D01*
X82249785Y-118430452D01*
X82280023Y-118430452D01*
X82292119Y-118436500D01*
X82298166Y-118442547D01*
X82304214Y-118454642D01*
X82304214Y-118466738D01*
X82298166Y-118484880D01*
X82225595Y-118557452D01*
X82304214Y-118557452D01*
D15*
X76405723Y-125004895D02*
X76405723Y-125662876D01*
X76444428Y-125740285D01*
X76483133Y-125778990D01*
X76560542Y-125817695D01*
X76715361Y-125817695D01*
X76792771Y-125778990D01*
X76831476Y-125740285D01*
X76870180Y-125662876D01*
X76870180Y-125004895D01*
X77605571Y-125275828D02*
X77605571Y-125817695D01*
X77412047Y-124966190D02*
X77218523Y-125546761D01*
X77721685Y-125546761D01*
D12*
X74412428Y-126187809D02*
X74751095Y-126187809D01*
X74533380Y-126695809D01*
X75162333Y-126357142D02*
X75162333Y-126695809D01*
X75041380Y-126163619D02*
X74920428Y-126526476D01*
X75234904Y-126526476D01*
X75404238Y-126550666D02*
X75646142Y-126550666D01*
X75355857Y-126695809D02*
X75525190Y-126187809D01*
X75694523Y-126695809D01*
X75863857Y-126695809D02*
X75863857Y-126187809D01*
X75863857Y-126429714D02*
X76154142Y-126429714D01*
X76154142Y-126695809D02*
X76154142Y-126187809D01*
X76686333Y-126647428D02*
X76662142Y-126671619D01*
X76589571Y-126695809D01*
X76541190Y-126695809D01*
X76468619Y-126671619D01*
X76420238Y-126623238D01*
X76396047Y-126574857D01*
X76371857Y-126478095D01*
X76371857Y-126405523D01*
X76396047Y-126308761D01*
X76420238Y-126260380D01*
X76468619Y-126212000D01*
X76541190Y-126187809D01*
X76589571Y-126187809D01*
X76662142Y-126212000D01*
X76686333Y-126236190D01*
X76831476Y-126187809D02*
X77121761Y-126187809D01*
X76976619Y-126695809D02*
X76976619Y-126187809D01*
X77266904Y-126236190D02*
X77291095Y-126212000D01*
X77339476Y-126187809D01*
X77460428Y-126187809D01*
X77508809Y-126212000D01*
X77533000Y-126236190D01*
X77557190Y-126284571D01*
X77557190Y-126332952D01*
X77533000Y-126405523D01*
X77242714Y-126695809D01*
X77557190Y-126695809D01*
X77992619Y-126357142D02*
X77992619Y-126695809D01*
X77871666Y-126163619D02*
X77750714Y-126526476D01*
X78065190Y-126526476D01*
X78500619Y-126187809D02*
X78258714Y-126187809D01*
X78234523Y-126429714D01*
X78258714Y-126405523D01*
X78307095Y-126381333D01*
X78428047Y-126381333D01*
X78476428Y-126405523D01*
X78500619Y-126429714D01*
X78524809Y-126478095D01*
X78524809Y-126599047D01*
X78500619Y-126647428D01*
X78476428Y-126671619D01*
X78428047Y-126695809D01*
X78307095Y-126695809D01*
X78258714Y-126671619D01*
X78234523Y-126647428D01*
X78742523Y-126695809D02*
X78742523Y-126187809D01*
X78936047Y-126187809D01*
X78984428Y-126212000D01*
X79008619Y-126236190D01*
X79032809Y-126284571D01*
X79032809Y-126357142D01*
X79008619Y-126405523D01*
X78984428Y-126429714D01*
X78936047Y-126453904D01*
X78742523Y-126453904D01*
X79202142Y-126187809D02*
X79323095Y-126695809D01*
X79419857Y-126332952D01*
X79516619Y-126695809D01*
X79637571Y-126187809D01*
D13*
X71960904Y-110814476D02*
X72166523Y-110814476D01*
X72190714Y-110802380D01*
X72202809Y-110790285D01*
X72214904Y-110766095D01*
X72214904Y-110717714D01*
X72202809Y-110693523D01*
X72190714Y-110681428D01*
X72166523Y-110669333D01*
X71960904Y-110669333D01*
X72214904Y-110415333D02*
X72214904Y-110560476D01*
X72214904Y-110487904D02*
X71960904Y-110487904D01*
X71997190Y-110512095D01*
X72021380Y-110536285D01*
X72033476Y-110560476D01*
X71960904Y-110258095D02*
X71960904Y-110233904D01*
X71973000Y-110209714D01*
X71985095Y-110197619D01*
X72009285Y-110185523D01*
X72057666Y-110173428D01*
X72118142Y-110173428D01*
X72166523Y-110185523D01*
X72190714Y-110197619D01*
X72202809Y-110209714D01*
X72214904Y-110233904D01*
X72214904Y-110258095D01*
X72202809Y-110282285D01*
X72190714Y-110294380D01*
X72166523Y-110306476D01*
X72118142Y-110318571D01*
X72057666Y-110318571D01*
X72009285Y-110306476D01*
X71985095Y-110294380D01*
X71973000Y-110282285D01*
X71960904Y-110258095D01*
D17*
X71645678Y-111479714D02*
X71645678Y-111352714D01*
X71836178Y-111434357D01*
X71709178Y-111198500D02*
X71836178Y-111198500D01*
X71636607Y-111243857D02*
X71772678Y-111289214D01*
X71772678Y-111171285D01*
X71836178Y-111008000D02*
X71836178Y-111098714D01*
X71645678Y-111098714D01*
X71645678Y-110971714D02*
X71836178Y-110908214D01*
X71645678Y-110844714D01*
X71818035Y-110672357D02*
X71827107Y-110681428D01*
X71836178Y-110708642D01*
X71836178Y-110726785D01*
X71827107Y-110754000D01*
X71808964Y-110772142D01*
X71790821Y-110781214D01*
X71754535Y-110790285D01*
X71727321Y-110790285D01*
X71691035Y-110781214D01*
X71672892Y-110772142D01*
X71654750Y-110754000D01*
X71645678Y-110726785D01*
X71645678Y-110708642D01*
X71654750Y-110681428D01*
X71663821Y-110672357D01*
X71836178Y-110490928D02*
X71836178Y-110599785D01*
X71836178Y-110545357D02*
X71645678Y-110545357D01*
X71672892Y-110563500D01*
X71691035Y-110581642D01*
X71700107Y-110599785D01*
X71654750Y-110309500D02*
X71645678Y-110327642D01*
X71645678Y-110354857D01*
X71654750Y-110382071D01*
X71672892Y-110400214D01*
X71691035Y-110409285D01*
X71727321Y-110418357D01*
X71754535Y-110418357D01*
X71790821Y-110409285D01*
X71808964Y-110400214D01*
X71827107Y-110382071D01*
X71836178Y-110354857D01*
X71836178Y-110336714D01*
X71827107Y-110309500D01*
X71818035Y-110300428D01*
X71754535Y-110300428D01*
X71754535Y-110336714D01*
X71645678Y-110182500D02*
X71645678Y-110164357D01*
X71654750Y-110146214D01*
X71663821Y-110137142D01*
X71681964Y-110128071D01*
X71718250Y-110119000D01*
X71763607Y-110119000D01*
X71799892Y-110128071D01*
X71818035Y-110137142D01*
X71827107Y-110146214D01*
X71836178Y-110164357D01*
X71836178Y-110182500D01*
X71827107Y-110200642D01*
X71818035Y-110209714D01*
X71799892Y-110218785D01*
X71763607Y-110227857D01*
X71718250Y-110227857D01*
X71681964Y-110218785D01*
X71663821Y-110209714D01*
X71654750Y-110200642D01*
X71645678Y-110182500D01*
X71709178Y-109955714D02*
X71836178Y-109955714D01*
X71636607Y-110001071D02*
X71772678Y-110046428D01*
X71772678Y-109928500D01*
X71654750Y-109756142D02*
X71645678Y-109774285D01*
X71645678Y-109801500D01*
X71654750Y-109828714D01*
X71672892Y-109846857D01*
X71691035Y-109855928D01*
X71727321Y-109865000D01*
X71754535Y-109865000D01*
X71790821Y-109855928D01*
X71808964Y-109846857D01*
X71827107Y-109828714D01*
X71836178Y-109801500D01*
X71836178Y-109783357D01*
X71827107Y-109756142D01*
X71818035Y-109747071D01*
X71754535Y-109747071D01*
X71754535Y-109783357D01*
X71645678Y-109683571D02*
X71836178Y-109638214D01*
X71700107Y-109601928D01*
X71836178Y-109565642D01*
X71645678Y-109520285D01*
D13*
X69760904Y-123343523D02*
X69966523Y-123343523D01*
X69990714Y-123331428D01*
X70002809Y-123319333D01*
X70014904Y-123295142D01*
X70014904Y-123246761D01*
X70002809Y-123222571D01*
X69990714Y-123210476D01*
X69966523Y-123198380D01*
X69760904Y-123198380D01*
X70014904Y-123065333D02*
X70014904Y-123016952D01*
X70002809Y-122992761D01*
X69990714Y-122980666D01*
X69954428Y-122956476D01*
X69906047Y-122944380D01*
X69809285Y-122944380D01*
X69785095Y-122956476D01*
X69773000Y-122968571D01*
X69760904Y-122992761D01*
X69760904Y-123041142D01*
X69773000Y-123065333D01*
X69785095Y-123077428D01*
X69809285Y-123089523D01*
X69869761Y-123089523D01*
X69893952Y-123077428D01*
X69906047Y-123065333D01*
X69918142Y-123041142D01*
X69918142Y-122992761D01*
X69906047Y-122968571D01*
X69893952Y-122956476D01*
X69869761Y-122944380D01*
D17*
X70145678Y-124129714D02*
X70145678Y-124002714D01*
X70336178Y-124084357D01*
X70209178Y-123848500D02*
X70336178Y-123848500D01*
X70136607Y-123893857D02*
X70272678Y-123939214D01*
X70272678Y-123821285D01*
X70336178Y-123658000D02*
X70336178Y-123748714D01*
X70145678Y-123748714D01*
X70145678Y-123621714D02*
X70336178Y-123558214D01*
X70145678Y-123494714D01*
X70318035Y-123322357D02*
X70327107Y-123331428D01*
X70336178Y-123358642D01*
X70336178Y-123376785D01*
X70327107Y-123404000D01*
X70308964Y-123422142D01*
X70290821Y-123431214D01*
X70254535Y-123440285D01*
X70227321Y-123440285D01*
X70191035Y-123431214D01*
X70172892Y-123422142D01*
X70154750Y-123404000D01*
X70145678Y-123376785D01*
X70145678Y-123358642D01*
X70154750Y-123331428D01*
X70163821Y-123322357D01*
X70336178Y-123140928D02*
X70336178Y-123249785D01*
X70336178Y-123195357D02*
X70145678Y-123195357D01*
X70172892Y-123213500D01*
X70191035Y-123231642D01*
X70200107Y-123249785D01*
X70154750Y-122959500D02*
X70145678Y-122977642D01*
X70145678Y-123004857D01*
X70154750Y-123032071D01*
X70172892Y-123050214D01*
X70191035Y-123059285D01*
X70227321Y-123068357D01*
X70254535Y-123068357D01*
X70290821Y-123059285D01*
X70308964Y-123050214D01*
X70327107Y-123032071D01*
X70336178Y-123004857D01*
X70336178Y-122986714D01*
X70327107Y-122959500D01*
X70318035Y-122950428D01*
X70254535Y-122950428D01*
X70254535Y-122986714D01*
X70145678Y-122832500D02*
X70145678Y-122814357D01*
X70154750Y-122796214D01*
X70163821Y-122787142D01*
X70181964Y-122778071D01*
X70218250Y-122769000D01*
X70263607Y-122769000D01*
X70299892Y-122778071D01*
X70318035Y-122787142D01*
X70327107Y-122796214D01*
X70336178Y-122814357D01*
X70336178Y-122832500D01*
X70327107Y-122850642D01*
X70318035Y-122859714D01*
X70299892Y-122868785D01*
X70263607Y-122877857D01*
X70218250Y-122877857D01*
X70181964Y-122868785D01*
X70163821Y-122859714D01*
X70154750Y-122850642D01*
X70145678Y-122832500D01*
X70209178Y-122605714D02*
X70336178Y-122605714D01*
X70136607Y-122651071D02*
X70272678Y-122696428D01*
X70272678Y-122578500D01*
X70154750Y-122406142D02*
X70145678Y-122424285D01*
X70145678Y-122451500D01*
X70154750Y-122478714D01*
X70172892Y-122496857D01*
X70191035Y-122505928D01*
X70227321Y-122515000D01*
X70254535Y-122515000D01*
X70290821Y-122505928D01*
X70308964Y-122496857D01*
X70327107Y-122478714D01*
X70336178Y-122451500D01*
X70336178Y-122433357D01*
X70327107Y-122406142D01*
X70318035Y-122397071D01*
X70254535Y-122397071D01*
X70254535Y-122433357D01*
X70145678Y-122333571D02*
X70336178Y-122288214D01*
X70200107Y-122251928D01*
X70336178Y-122215642D01*
X70145678Y-122170285D01*
D15*
X104005723Y-125004895D02*
X104005723Y-125662876D01*
X104044428Y-125740285D01*
X104083133Y-125778990D01*
X104160542Y-125817695D01*
X104315361Y-125817695D01*
X104392771Y-125778990D01*
X104431476Y-125740285D01*
X104470180Y-125662876D01*
X104470180Y-125004895D01*
X104779819Y-125004895D02*
X105321685Y-125004895D01*
X104973342Y-125817695D01*
D12*
X102048714Y-126187809D02*
X102387380Y-126187809D01*
X102169666Y-126695809D01*
X102798619Y-126357142D02*
X102798619Y-126695809D01*
X102677666Y-126163619D02*
X102556714Y-126526476D01*
X102871190Y-126526476D01*
X103306619Y-126695809D02*
X103064714Y-126695809D01*
X103064714Y-126187809D01*
X103403380Y-126187809D02*
X103572714Y-126695809D01*
X103742047Y-126187809D01*
X104201666Y-126647428D02*
X104177476Y-126671619D01*
X104104904Y-126695809D01*
X104056523Y-126695809D01*
X103983952Y-126671619D01*
X103935571Y-126623238D01*
X103911380Y-126574857D01*
X103887190Y-126478095D01*
X103887190Y-126405523D01*
X103911380Y-126308761D01*
X103935571Y-126260380D01*
X103983952Y-126212000D01*
X104056523Y-126187809D01*
X104104904Y-126187809D01*
X104177476Y-126212000D01*
X104201666Y-126236190D01*
X104395190Y-126236190D02*
X104419380Y-126212000D01*
X104467761Y-126187809D01*
X104588714Y-126187809D01*
X104637095Y-126212000D01*
X104661285Y-126236190D01*
X104685476Y-126284571D01*
X104685476Y-126332952D01*
X104661285Y-126405523D01*
X104371000Y-126695809D01*
X104685476Y-126695809D01*
X105120904Y-126357142D02*
X105120904Y-126695809D01*
X104999952Y-126163619D02*
X104879000Y-126526476D01*
X105193476Y-126526476D01*
X105628904Y-126187809D02*
X105387000Y-126187809D01*
X105362809Y-126429714D01*
X105387000Y-126405523D01*
X105435380Y-126381333D01*
X105556333Y-126381333D01*
X105604714Y-126405523D01*
X105628904Y-126429714D01*
X105653095Y-126478095D01*
X105653095Y-126599047D01*
X105628904Y-126647428D01*
X105604714Y-126671619D01*
X105556333Y-126695809D01*
X105435380Y-126695809D01*
X105387000Y-126671619D01*
X105362809Y-126647428D01*
X105846619Y-126550666D02*
X106088523Y-126550666D01*
X105798238Y-126695809D02*
X105967571Y-126187809D01*
X106136904Y-126695809D01*
X106306238Y-126695809D02*
X106306238Y-126187809D01*
X106499761Y-126187809D01*
X106548142Y-126212000D01*
X106572333Y-126236190D01*
X106596523Y-126284571D01*
X106596523Y-126357142D01*
X106572333Y-126405523D01*
X106548142Y-126429714D01*
X106499761Y-126453904D01*
X106306238Y-126453904D01*
X106765857Y-126187809D02*
X106886809Y-126695809D01*
X106983571Y-126332952D01*
X107080333Y-126695809D01*
X107201285Y-126187809D01*
D15*
X85605723Y-125004895D02*
X85605723Y-125662876D01*
X85644428Y-125740285D01*
X85683133Y-125778990D01*
X85760542Y-125817695D01*
X85915361Y-125817695D01*
X85992771Y-125778990D01*
X86031476Y-125740285D01*
X86070180Y-125662876D01*
X86070180Y-125004895D01*
X86844276Y-125004895D02*
X86457228Y-125004895D01*
X86418523Y-125391942D01*
X86457228Y-125353238D01*
X86534638Y-125314533D01*
X86728161Y-125314533D01*
X86805571Y-125353238D01*
X86844276Y-125391942D01*
X86882980Y-125469352D01*
X86882980Y-125662876D01*
X86844276Y-125740285D01*
X86805571Y-125778990D01*
X86728161Y-125817695D01*
X86534638Y-125817695D01*
X86457228Y-125778990D01*
X86418523Y-125740285D01*
D12*
X83648714Y-126187809D02*
X83987380Y-126187809D01*
X83769666Y-126695809D01*
X84398619Y-126357142D02*
X84398619Y-126695809D01*
X84277666Y-126163619D02*
X84156714Y-126526476D01*
X84471190Y-126526476D01*
X84906619Y-126695809D02*
X84664714Y-126695809D01*
X84664714Y-126187809D01*
X85003380Y-126187809D02*
X85172714Y-126695809D01*
X85342047Y-126187809D01*
X85801666Y-126647428D02*
X85777476Y-126671619D01*
X85704904Y-126695809D01*
X85656523Y-126695809D01*
X85583952Y-126671619D01*
X85535571Y-126623238D01*
X85511380Y-126574857D01*
X85487190Y-126478095D01*
X85487190Y-126405523D01*
X85511380Y-126308761D01*
X85535571Y-126260380D01*
X85583952Y-126212000D01*
X85656523Y-126187809D01*
X85704904Y-126187809D01*
X85777476Y-126212000D01*
X85801666Y-126236190D01*
X85995190Y-126236190D02*
X86019380Y-126212000D01*
X86067761Y-126187809D01*
X86188714Y-126187809D01*
X86237095Y-126212000D01*
X86261285Y-126236190D01*
X86285476Y-126284571D01*
X86285476Y-126332952D01*
X86261285Y-126405523D01*
X85971000Y-126695809D01*
X86285476Y-126695809D01*
X86720904Y-126357142D02*
X86720904Y-126695809D01*
X86599952Y-126163619D02*
X86479000Y-126526476D01*
X86793476Y-126526476D01*
X87228904Y-126187809D02*
X86987000Y-126187809D01*
X86962809Y-126429714D01*
X86987000Y-126405523D01*
X87035380Y-126381333D01*
X87156333Y-126381333D01*
X87204714Y-126405523D01*
X87228904Y-126429714D01*
X87253095Y-126478095D01*
X87253095Y-126599047D01*
X87228904Y-126647428D01*
X87204714Y-126671619D01*
X87156333Y-126695809D01*
X87035380Y-126695809D01*
X86987000Y-126671619D01*
X86962809Y-126647428D01*
X87446619Y-126550666D02*
X87688523Y-126550666D01*
X87398238Y-126695809D02*
X87567571Y-126187809D01*
X87736904Y-126695809D01*
X87906238Y-126695809D02*
X87906238Y-126187809D01*
X88099761Y-126187809D01*
X88148142Y-126212000D01*
X88172333Y-126236190D01*
X88196523Y-126284571D01*
X88196523Y-126357142D01*
X88172333Y-126405523D01*
X88148142Y-126429714D01*
X88099761Y-126453904D01*
X87906238Y-126453904D01*
X88365857Y-126187809D02*
X88486809Y-126695809D01*
X88583571Y-126332952D01*
X88680333Y-126695809D01*
X88801285Y-126187809D01*
D13*
X53986714Y-99440714D02*
X53974619Y-99452809D01*
X53938333Y-99464904D01*
X53914142Y-99464904D01*
X53877857Y-99452809D01*
X53853666Y-99428619D01*
X53841571Y-99404428D01*
X53829476Y-99356047D01*
X53829476Y-99319761D01*
X53841571Y-99271380D01*
X53853666Y-99247190D01*
X53877857Y-99223000D01*
X53914142Y-99210904D01*
X53938333Y-99210904D01*
X53974619Y-99223000D01*
X53986714Y-99235095D01*
X54228619Y-99464904D02*
X54083476Y-99464904D01*
X54156047Y-99464904D02*
X54156047Y-99210904D01*
X54131857Y-99247190D01*
X54107666Y-99271380D01*
X54083476Y-99283476D01*
X54313285Y-99210904D02*
X54482619Y-99210904D01*
X54373761Y-99464904D01*
D14*
X53995785Y-99542547D02*
X54001833Y-99536500D01*
X54013928Y-99530452D01*
X54044166Y-99530452D01*
X54056261Y-99536500D01*
X54062309Y-99542547D01*
X54068357Y-99554642D01*
X54068357Y-99566738D01*
X54062309Y-99584880D01*
X53989738Y-99657452D01*
X54068357Y-99657452D01*
X54177214Y-99572785D02*
X54177214Y-99657452D01*
X54122785Y-99572785D02*
X54122785Y-99639309D01*
X54128833Y-99651404D01*
X54140928Y-99657452D01*
X54159071Y-99657452D01*
X54171166Y-99651404D01*
X54177214Y-99645357D01*
X54231642Y-99542547D02*
X54237690Y-99536500D01*
X54249785Y-99530452D01*
X54280023Y-99530452D01*
X54292119Y-99536500D01*
X54298166Y-99542547D01*
X54304214Y-99554642D01*
X54304214Y-99566738D01*
X54298166Y-99584880D01*
X54225595Y-99657452D01*
X54304214Y-99657452D01*
D13*
X65936714Y-127040714D02*
X65924619Y-127052809D01*
X65888333Y-127064904D01*
X65864142Y-127064904D01*
X65827857Y-127052809D01*
X65803666Y-127028619D01*
X65791571Y-127004428D01*
X65779476Y-126956047D01*
X65779476Y-126919761D01*
X65791571Y-126871380D01*
X65803666Y-126847190D01*
X65827857Y-126823000D01*
X65864142Y-126810904D01*
X65888333Y-126810904D01*
X65924619Y-126823000D01*
X65936714Y-126835095D01*
X66033476Y-126835095D02*
X66045571Y-126823000D01*
X66069761Y-126810904D01*
X66130238Y-126810904D01*
X66154428Y-126823000D01*
X66166523Y-126835095D01*
X66178619Y-126859285D01*
X66178619Y-126883476D01*
X66166523Y-126919761D01*
X66021380Y-127064904D01*
X66178619Y-127064904D01*
X66396333Y-126810904D02*
X66347952Y-126810904D01*
X66323761Y-126823000D01*
X66311666Y-126835095D01*
X66287476Y-126871380D01*
X66275380Y-126919761D01*
X66275380Y-127016523D01*
X66287476Y-127040714D01*
X66299571Y-127052809D01*
X66323761Y-127064904D01*
X66372142Y-127064904D01*
X66396333Y-127052809D01*
X66408428Y-127040714D01*
X66420523Y-127016523D01*
X66420523Y-126956047D01*
X66408428Y-126931857D01*
X66396333Y-126919761D01*
X66372142Y-126907666D01*
X66323761Y-126907666D01*
X66299571Y-126919761D01*
X66287476Y-126931857D01*
X66275380Y-126956047D01*
X65936714Y-126714904D02*
X65791571Y-126714904D01*
X65864142Y-126714904D02*
X65864142Y-126460904D01*
X65839952Y-126497190D01*
X65815761Y-126521380D01*
X65791571Y-126533476D01*
X66093952Y-126460904D02*
X66118142Y-126460904D01*
X66142333Y-126473000D01*
X66154428Y-126485095D01*
X66166523Y-126509285D01*
X66178619Y-126557666D01*
X66178619Y-126618142D01*
X66166523Y-126666523D01*
X66154428Y-126690714D01*
X66142333Y-126702809D01*
X66118142Y-126714904D01*
X66093952Y-126714904D01*
X66069761Y-126702809D01*
X66057666Y-126690714D01*
X66045571Y-126666523D01*
X66033476Y-126618142D01*
X66033476Y-126557666D01*
X66045571Y-126509285D01*
X66057666Y-126485095D01*
X66069761Y-126473000D01*
X66093952Y-126460904D01*
X66396333Y-126545571D02*
X66396333Y-126714904D01*
X66287476Y-126545571D02*
X66287476Y-126678619D01*
X66299571Y-126702809D01*
X66323761Y-126714904D01*
X66360047Y-126714904D01*
X66384238Y-126702809D01*
X66396333Y-126690714D01*
X69836714Y-121140714D02*
X69824619Y-121152809D01*
X69788333Y-121164904D01*
X69764142Y-121164904D01*
X69727857Y-121152809D01*
X69703666Y-121128619D01*
X69691571Y-121104428D01*
X69679476Y-121056047D01*
X69679476Y-121019761D01*
X69691571Y-120971380D01*
X69703666Y-120947190D01*
X69727857Y-120923000D01*
X69764142Y-120910904D01*
X69788333Y-120910904D01*
X69824619Y-120923000D01*
X69836714Y-120935095D01*
X69933476Y-120935095D02*
X69945571Y-120923000D01*
X69969761Y-120910904D01*
X70030238Y-120910904D01*
X70054428Y-120923000D01*
X70066523Y-120935095D01*
X70078619Y-120959285D01*
X70078619Y-120983476D01*
X70066523Y-121019761D01*
X69921380Y-121164904D01*
X70078619Y-121164904D01*
X70163285Y-120910904D02*
X70332619Y-120910904D01*
X70223761Y-121164904D01*
D14*
X69845785Y-120742547D02*
X69851833Y-120736500D01*
X69863928Y-120730452D01*
X69894166Y-120730452D01*
X69906261Y-120736500D01*
X69912309Y-120742547D01*
X69918357Y-120754642D01*
X69918357Y-120766738D01*
X69912309Y-120784880D01*
X69839738Y-120857452D01*
X69918357Y-120857452D01*
X70027214Y-120772785D02*
X70027214Y-120857452D01*
X69972785Y-120772785D02*
X69972785Y-120839309D01*
X69978833Y-120851404D01*
X69990928Y-120857452D01*
X70009071Y-120857452D01*
X70021166Y-120851404D01*
X70027214Y-120845357D01*
X70081642Y-120742547D02*
X70087690Y-120736500D01*
X70099785Y-120730452D01*
X70130023Y-120730452D01*
X70142119Y-120736500D01*
X70148166Y-120742547D01*
X70154214Y-120754642D01*
X70154214Y-120766738D01*
X70148166Y-120784880D01*
X70075595Y-120857452D01*
X70154214Y-120857452D01*
D13*
X69590714Y-110563285D02*
X69602809Y-110575380D01*
X69614904Y-110611666D01*
X69614904Y-110635857D01*
X69602809Y-110672142D01*
X69578619Y-110696333D01*
X69554428Y-110708428D01*
X69506047Y-110720523D01*
X69469761Y-110720523D01*
X69421380Y-110708428D01*
X69397190Y-110696333D01*
X69373000Y-110672142D01*
X69360904Y-110635857D01*
X69360904Y-110611666D01*
X69373000Y-110575380D01*
X69385095Y-110563285D01*
X69614904Y-110321380D02*
X69614904Y-110466523D01*
X69614904Y-110393952D02*
X69360904Y-110393952D01*
X69397190Y-110418142D01*
X69421380Y-110442333D01*
X69433476Y-110466523D01*
X69360904Y-110164142D02*
X69360904Y-110139952D01*
X69373000Y-110115761D01*
X69385095Y-110103666D01*
X69409285Y-110091571D01*
X69457666Y-110079476D01*
X69518142Y-110079476D01*
X69566523Y-110091571D01*
X69590714Y-110103666D01*
X69602809Y-110115761D01*
X69614904Y-110139952D01*
X69614904Y-110164142D01*
X69602809Y-110188333D01*
X69590714Y-110200428D01*
X69566523Y-110212523D01*
X69518142Y-110224619D01*
X69457666Y-110224619D01*
X69409285Y-110212523D01*
X69385095Y-110200428D01*
X69373000Y-110188333D01*
X69360904Y-110164142D01*
D14*
X69692547Y-110554214D02*
X69686500Y-110548166D01*
X69680452Y-110536071D01*
X69680452Y-110505833D01*
X69686500Y-110493738D01*
X69692547Y-110487690D01*
X69704642Y-110481642D01*
X69716738Y-110481642D01*
X69734880Y-110487690D01*
X69807452Y-110560261D01*
X69807452Y-110481642D01*
X69722785Y-110372785D02*
X69807452Y-110372785D01*
X69722785Y-110427214D02*
X69789309Y-110427214D01*
X69801404Y-110421166D01*
X69807452Y-110409071D01*
X69807452Y-110390928D01*
X69801404Y-110378833D01*
X69795357Y-110372785D01*
X69692547Y-110318357D02*
X69686500Y-110312309D01*
X69680452Y-110300214D01*
X69680452Y-110269976D01*
X69686500Y-110257880D01*
X69692547Y-110251833D01*
X69704642Y-110245785D01*
X69716738Y-110245785D01*
X69734880Y-110251833D01*
X69807452Y-110324404D01*
X69807452Y-110245785D01*
D15*
X53764300Y-132396895D02*
X53764300Y-132977466D01*
X53725596Y-133093580D01*
X53648186Y-133170990D01*
X53532072Y-133209695D01*
X53454662Y-133209695D01*
X54577100Y-133209695D02*
X54112643Y-133209695D01*
X54344872Y-133209695D02*
X54344872Y-132396895D01*
X54267462Y-132513009D01*
X54190053Y-132590419D01*
X54112643Y-132629123D01*
X46565215Y-134352695D02*
X46565215Y-133539895D01*
X46952262Y-134352695D02*
X46952262Y-133539895D01*
X47687653Y-133810828D02*
X47687653Y-134468809D01*
X47648948Y-134546219D01*
X47610243Y-134584923D01*
X47532834Y-134623628D01*
X47416720Y-134623628D01*
X47339310Y-134584923D01*
X47687653Y-134313990D02*
X47610243Y-134352695D01*
X47455424Y-134352695D01*
X47378015Y-134313990D01*
X47339310Y-134275285D01*
X47300605Y-134197876D01*
X47300605Y-133965647D01*
X47339310Y-133888238D01*
X47378015Y-133849533D01*
X47455424Y-133810828D01*
X47610243Y-133810828D01*
X47687653Y-133849533D01*
X48035996Y-134313990D02*
X48113405Y-134352695D01*
X48268224Y-134352695D01*
X48345634Y-134313990D01*
X48384339Y-134236580D01*
X48384339Y-134197876D01*
X48345634Y-134120466D01*
X48268224Y-134081761D01*
X48152110Y-134081761D01*
X48074700Y-134043057D01*
X48035996Y-133965647D01*
X48035996Y-133926942D01*
X48074700Y-133849533D01*
X48152110Y-133810828D01*
X48268224Y-133810828D01*
X48345634Y-133849533D01*
X49816415Y-134352695D02*
X49545481Y-133965647D01*
X49351958Y-134352695D02*
X49351958Y-133539895D01*
X49661596Y-133539895D01*
X49739005Y-133578600D01*
X49777710Y-133617304D01*
X49816415Y-133694714D01*
X49816415Y-133810828D01*
X49777710Y-133888238D01*
X49739005Y-133926942D01*
X49661596Y-133965647D01*
X49351958Y-133965647D01*
X50126053Y-134120466D02*
X50513100Y-134120466D01*
X50048643Y-134352695D02*
X50319577Y-133539895D01*
X50590510Y-134352695D01*
X50861443Y-134352695D02*
X50861443Y-133539895D01*
X51132377Y-134120466D01*
X51403310Y-133539895D01*
X51403310Y-134352695D01*
X52409634Y-133926942D02*
X52680567Y-133926942D01*
X52796681Y-134352695D02*
X52409634Y-134352695D01*
X52409634Y-133539895D01*
X52796681Y-133539895D01*
X53067615Y-134352695D02*
X53493367Y-133810828D01*
X53067615Y-133810828D02*
X53493367Y-134352695D01*
X53803005Y-133810828D02*
X53803005Y-134623628D01*
X53803005Y-133849533D02*
X53880415Y-133810828D01*
X54035234Y-133810828D01*
X54112643Y-133849533D01*
X54151348Y-133888238D01*
X54190053Y-133965647D01*
X54190053Y-134197876D01*
X54151348Y-134275285D01*
X54112643Y-134313990D01*
X54035234Y-134352695D01*
X53880415Y-134352695D01*
X53803005Y-134313990D01*
X54538396Y-134275285D02*
X54577100Y-134313990D01*
X54538396Y-134352695D01*
X54499691Y-134313990D01*
X54538396Y-134275285D01*
X54538396Y-134352695D01*
X58530723Y-111204895D02*
X58530723Y-111862876D01*
X58569428Y-111940285D01*
X58608133Y-111978990D01*
X58685542Y-112017695D01*
X58840361Y-112017695D01*
X58917771Y-111978990D01*
X58956476Y-111940285D01*
X58995180Y-111862876D01*
X58995180Y-111204895D01*
X59343523Y-111282304D02*
X59382228Y-111243600D01*
X59459638Y-111204895D01*
X59653161Y-111204895D01*
X59730571Y-111243600D01*
X59769276Y-111282304D01*
X59807980Y-111359714D01*
X59807980Y-111437123D01*
X59769276Y-111553238D01*
X59304819Y-112017695D01*
X59807980Y-112017695D01*
D12*
X56392285Y-112321809D02*
X56513238Y-112829809D01*
X56610000Y-112466952D01*
X56706761Y-112829809D01*
X56827714Y-112321809D01*
X57045428Y-112829809D02*
X57142190Y-112829809D01*
X57190571Y-112805619D01*
X57214761Y-112781428D01*
X57263142Y-112708857D01*
X57287333Y-112612095D01*
X57287333Y-112418571D01*
X57263142Y-112370190D01*
X57238952Y-112346000D01*
X57190571Y-112321809D01*
X57093809Y-112321809D01*
X57045428Y-112346000D01*
X57021238Y-112370190D01*
X56997047Y-112418571D01*
X56997047Y-112539523D01*
X57021238Y-112587904D01*
X57045428Y-112612095D01*
X57093809Y-112636285D01*
X57190571Y-112636285D01*
X57238952Y-112612095D01*
X57263142Y-112587904D01*
X57287333Y-112539523D01*
X57577619Y-112539523D02*
X57529238Y-112515333D01*
X57505047Y-112491142D01*
X57480857Y-112442761D01*
X57480857Y-112418571D01*
X57505047Y-112370190D01*
X57529238Y-112346000D01*
X57577619Y-112321809D01*
X57674380Y-112321809D01*
X57722761Y-112346000D01*
X57746952Y-112370190D01*
X57771142Y-112418571D01*
X57771142Y-112442761D01*
X57746952Y-112491142D01*
X57722761Y-112515333D01*
X57674380Y-112539523D01*
X57577619Y-112539523D01*
X57529238Y-112563714D01*
X57505047Y-112587904D01*
X57480857Y-112636285D01*
X57480857Y-112733047D01*
X57505047Y-112781428D01*
X57529238Y-112805619D01*
X57577619Y-112829809D01*
X57674380Y-112829809D01*
X57722761Y-112805619D01*
X57746952Y-112781428D01*
X57771142Y-112733047D01*
X57771142Y-112636285D01*
X57746952Y-112587904D01*
X57722761Y-112563714D01*
X57674380Y-112539523D01*
X58254952Y-112829809D02*
X57964666Y-112829809D01*
X58109809Y-112829809D02*
X58109809Y-112321809D01*
X58061428Y-112394380D01*
X58013047Y-112442761D01*
X57964666Y-112466952D01*
X58448476Y-112370190D02*
X58472666Y-112346000D01*
X58521047Y-112321809D01*
X58642000Y-112321809D01*
X58690380Y-112346000D01*
X58714571Y-112370190D01*
X58738761Y-112418571D01*
X58738761Y-112466952D01*
X58714571Y-112539523D01*
X58424285Y-112829809D01*
X58738761Y-112829809D01*
X59222571Y-112346000D02*
X59174190Y-112321809D01*
X59101619Y-112321809D01*
X59029047Y-112346000D01*
X58980666Y-112394380D01*
X58956476Y-112442761D01*
X58932285Y-112539523D01*
X58932285Y-112612095D01*
X58956476Y-112708857D01*
X58980666Y-112757238D01*
X59029047Y-112805619D01*
X59101619Y-112829809D01*
X59150000Y-112829809D01*
X59222571Y-112805619D01*
X59246761Y-112781428D01*
X59246761Y-112612095D01*
X59150000Y-112612095D01*
X59682190Y-112321809D02*
X59585428Y-112321809D01*
X59537047Y-112346000D01*
X59512857Y-112370190D01*
X59464476Y-112442761D01*
X59440285Y-112539523D01*
X59440285Y-112733047D01*
X59464476Y-112781428D01*
X59488666Y-112805619D01*
X59537047Y-112829809D01*
X59633809Y-112829809D01*
X59682190Y-112805619D01*
X59706380Y-112781428D01*
X59730571Y-112733047D01*
X59730571Y-112612095D01*
X59706380Y-112563714D01*
X59682190Y-112539523D01*
X59633809Y-112515333D01*
X59537047Y-112515333D01*
X59488666Y-112539523D01*
X59464476Y-112563714D01*
X59440285Y-112612095D01*
X59948285Y-112829809D02*
X59948285Y-112321809D01*
X60238571Y-112829809D02*
X60020857Y-112539523D01*
X60238571Y-112321809D02*
X59948285Y-112612095D01*
X60456285Y-112829809D02*
X60456285Y-112321809D01*
X60456285Y-112563714D02*
X60746571Y-112563714D01*
X60746571Y-112829809D02*
X60746571Y-112321809D01*
X60988476Y-112636285D02*
X61375523Y-112636285D01*
X61835142Y-112321809D02*
X61738380Y-112321809D01*
X61690000Y-112346000D01*
X61665809Y-112370190D01*
X61617428Y-112442761D01*
X61593238Y-112539523D01*
X61593238Y-112733047D01*
X61617428Y-112781428D01*
X61641619Y-112805619D01*
X61690000Y-112829809D01*
X61786761Y-112829809D01*
X61835142Y-112805619D01*
X61859333Y-112781428D01*
X61883523Y-112733047D01*
X61883523Y-112612095D01*
X61859333Y-112563714D01*
X61835142Y-112539523D01*
X61786761Y-112515333D01*
X61690000Y-112515333D01*
X61641619Y-112539523D01*
X61617428Y-112563714D01*
X61593238Y-112612095D01*
D13*
X107657666Y-116240714D02*
X107645571Y-116252809D01*
X107609285Y-116264904D01*
X107585095Y-116264904D01*
X107548809Y-116252809D01*
X107524619Y-116228619D01*
X107512523Y-116204428D01*
X107500428Y-116156047D01*
X107500428Y-116119761D01*
X107512523Y-116071380D01*
X107524619Y-116047190D01*
X107548809Y-116023000D01*
X107585095Y-116010904D01*
X107609285Y-116010904D01*
X107645571Y-116023000D01*
X107657666Y-116035095D01*
X107875380Y-116095571D02*
X107875380Y-116264904D01*
X107814904Y-115998809D02*
X107754428Y-116180238D01*
X107911666Y-116180238D01*
X107536714Y-116614904D02*
X107391571Y-116614904D01*
X107464142Y-116614904D02*
X107464142Y-116360904D01*
X107439952Y-116397190D01*
X107415761Y-116421380D01*
X107391571Y-116433476D01*
X107693952Y-116360904D02*
X107718142Y-116360904D01*
X107742333Y-116373000D01*
X107754428Y-116385095D01*
X107766523Y-116409285D01*
X107778619Y-116457666D01*
X107778619Y-116518142D01*
X107766523Y-116566523D01*
X107754428Y-116590714D01*
X107742333Y-116602809D01*
X107718142Y-116614904D01*
X107693952Y-116614904D01*
X107669761Y-116602809D01*
X107657666Y-116590714D01*
X107645571Y-116566523D01*
X107633476Y-116518142D01*
X107633476Y-116457666D01*
X107645571Y-116409285D01*
X107657666Y-116385095D01*
X107669761Y-116373000D01*
X107693952Y-116360904D01*
X107996333Y-116445571D02*
X107996333Y-116614904D01*
X107887476Y-116445571D02*
X107887476Y-116578619D01*
X107899571Y-116602809D01*
X107923761Y-116614904D01*
X107960047Y-116614904D01*
X107984238Y-116602809D01*
X107996333Y-116590714D01*
X109457666Y-105640714D02*
X109445571Y-105652809D01*
X109409285Y-105664904D01*
X109385095Y-105664904D01*
X109348809Y-105652809D01*
X109324619Y-105628619D01*
X109312523Y-105604428D01*
X109300428Y-105556047D01*
X109300428Y-105519761D01*
X109312523Y-105471380D01*
X109324619Y-105447190D01*
X109348809Y-105423000D01*
X109385095Y-105410904D01*
X109409285Y-105410904D01*
X109445571Y-105423000D01*
X109457666Y-105435095D01*
X109542333Y-105410904D02*
X109699571Y-105410904D01*
X109614904Y-105507666D01*
X109651190Y-105507666D01*
X109675380Y-105519761D01*
X109687476Y-105531857D01*
X109699571Y-105556047D01*
X109699571Y-105616523D01*
X109687476Y-105640714D01*
X109675380Y-105652809D01*
X109651190Y-105664904D01*
X109578619Y-105664904D01*
X109554428Y-105652809D01*
X109542333Y-105640714D01*
X109336714Y-106014904D02*
X109191571Y-106014904D01*
X109264142Y-106014904D02*
X109264142Y-105760904D01*
X109239952Y-105797190D01*
X109215761Y-105821380D01*
X109191571Y-105833476D01*
X109493952Y-105760904D02*
X109518142Y-105760904D01*
X109542333Y-105773000D01*
X109554428Y-105785095D01*
X109566523Y-105809285D01*
X109578619Y-105857666D01*
X109578619Y-105918142D01*
X109566523Y-105966523D01*
X109554428Y-105990714D01*
X109542333Y-106002809D01*
X109518142Y-106014904D01*
X109493952Y-106014904D01*
X109469761Y-106002809D01*
X109457666Y-105990714D01*
X109445571Y-105966523D01*
X109433476Y-105918142D01*
X109433476Y-105857666D01*
X109445571Y-105809285D01*
X109457666Y-105785095D01*
X109469761Y-105773000D01*
X109493952Y-105760904D01*
X109796333Y-105845571D02*
X109796333Y-106014904D01*
X109687476Y-105845571D02*
X109687476Y-105978619D01*
X109699571Y-106002809D01*
X109723761Y-106014904D01*
X109760047Y-106014904D01*
X109784238Y-106002809D01*
X109796333Y-105990714D01*
X109939666Y-127979714D02*
X109927571Y-127991809D01*
X109891285Y-128003904D01*
X109867095Y-128003904D01*
X109830809Y-127991809D01*
X109806619Y-127967619D01*
X109794523Y-127943428D01*
X109782428Y-127895047D01*
X109782428Y-127858761D01*
X109794523Y-127810380D01*
X109806619Y-127786190D01*
X109830809Y-127762000D01*
X109867095Y-127749904D01*
X109891285Y-127749904D01*
X109927571Y-127762000D01*
X109939666Y-127774095D01*
X110036428Y-127774095D02*
X110048523Y-127762000D01*
X110072714Y-127749904D01*
X110133190Y-127749904D01*
X110157380Y-127762000D01*
X110169476Y-127774095D01*
X110181571Y-127798285D01*
X110181571Y-127822476D01*
X110169476Y-127858761D01*
X110024333Y-128003904D01*
X110181571Y-128003904D01*
X109818714Y-128353904D02*
X109673571Y-128353904D01*
X109746142Y-128353904D02*
X109746142Y-128099904D01*
X109721952Y-128136190D01*
X109697761Y-128160380D01*
X109673571Y-128172476D01*
X109975952Y-128099904D02*
X110000142Y-128099904D01*
X110024333Y-128112000D01*
X110036428Y-128124095D01*
X110048523Y-128148285D01*
X110060619Y-128196666D01*
X110060619Y-128257142D01*
X110048523Y-128305523D01*
X110036428Y-128329714D01*
X110024333Y-128341809D01*
X110000142Y-128353904D01*
X109975952Y-128353904D01*
X109951761Y-128341809D01*
X109939666Y-128329714D01*
X109927571Y-128305523D01*
X109915476Y-128257142D01*
X109915476Y-128196666D01*
X109927571Y-128148285D01*
X109939666Y-128124095D01*
X109951761Y-128112000D01*
X109975952Y-128099904D01*
X110278333Y-128184571D02*
X110278333Y-128353904D01*
X110169476Y-128184571D02*
X110169476Y-128317619D01*
X110181571Y-128341809D01*
X110205761Y-128353904D01*
X110242047Y-128353904D01*
X110266238Y-128341809D01*
X110278333Y-128329714D01*
X58885666Y-128868714D02*
X58873571Y-128880809D01*
X58837285Y-128892904D01*
X58813095Y-128892904D01*
X58776809Y-128880809D01*
X58752619Y-128856619D01*
X58740523Y-128832428D01*
X58728428Y-128784047D01*
X58728428Y-128747761D01*
X58740523Y-128699380D01*
X58752619Y-128675190D01*
X58776809Y-128651000D01*
X58813095Y-128638904D01*
X58837285Y-128638904D01*
X58873571Y-128651000D01*
X58885666Y-128663095D01*
X59127571Y-128892904D02*
X58982428Y-128892904D01*
X59055000Y-128892904D02*
X59055000Y-128638904D01*
X59030809Y-128675190D01*
X59006619Y-128699380D01*
X58982428Y-128711476D01*
X58764714Y-128542904D02*
X58619571Y-128542904D01*
X58692142Y-128542904D02*
X58692142Y-128288904D01*
X58667952Y-128325190D01*
X58643761Y-128349380D01*
X58619571Y-128361476D01*
X58921952Y-128288904D02*
X58946142Y-128288904D01*
X58970333Y-128301000D01*
X58982428Y-128313095D01*
X58994523Y-128337285D01*
X59006619Y-128385666D01*
X59006619Y-128446142D01*
X58994523Y-128494523D01*
X58982428Y-128518714D01*
X58970333Y-128530809D01*
X58946142Y-128542904D01*
X58921952Y-128542904D01*
X58897761Y-128530809D01*
X58885666Y-128518714D01*
X58873571Y-128494523D01*
X58861476Y-128446142D01*
X58861476Y-128385666D01*
X58873571Y-128337285D01*
X58885666Y-128313095D01*
X58897761Y-128301000D01*
X58921952Y-128288904D01*
X59224333Y-128373571D02*
X59224333Y-128542904D01*
X59115476Y-128373571D02*
X59115476Y-128506619D01*
X59127571Y-128530809D01*
X59151761Y-128542904D01*
X59188047Y-128542904D01*
X59212238Y-128530809D01*
X59224333Y-128518714D01*
X72690714Y-123292333D02*
X72702809Y-123304428D01*
X72714904Y-123340714D01*
X72714904Y-123364904D01*
X72702809Y-123401190D01*
X72678619Y-123425380D01*
X72654428Y-123437476D01*
X72606047Y-123449571D01*
X72569761Y-123449571D01*
X72521380Y-123437476D01*
X72497190Y-123425380D01*
X72473000Y-123401190D01*
X72460904Y-123364904D01*
X72460904Y-123340714D01*
X72473000Y-123304428D01*
X72485095Y-123292333D01*
X72460904Y-123062523D02*
X72460904Y-123183476D01*
X72581857Y-123195571D01*
X72569761Y-123183476D01*
X72557666Y-123159285D01*
X72557666Y-123098809D01*
X72569761Y-123074619D01*
X72581857Y-123062523D01*
X72606047Y-123050428D01*
X72666523Y-123050428D01*
X72690714Y-123062523D01*
X72702809Y-123074619D01*
X72714904Y-123098809D01*
X72714904Y-123159285D01*
X72702809Y-123183476D01*
X72690714Y-123195571D01*
D14*
X72292547Y-123404214D02*
X72286500Y-123398166D01*
X72280452Y-123386071D01*
X72280452Y-123355833D01*
X72286500Y-123343738D01*
X72292547Y-123337690D01*
X72304642Y-123331642D01*
X72316738Y-123331642D01*
X72334880Y-123337690D01*
X72407452Y-123410261D01*
X72407452Y-123331642D01*
X72322785Y-123222785D02*
X72407452Y-123222785D01*
X72322785Y-123277214D02*
X72389309Y-123277214D01*
X72401404Y-123271166D01*
X72407452Y-123259071D01*
X72407452Y-123240928D01*
X72401404Y-123228833D01*
X72395357Y-123222785D01*
X72292547Y-123168357D02*
X72286500Y-123162309D01*
X72280452Y-123150214D01*
X72280452Y-123119976D01*
X72286500Y-123107880D01*
X72292547Y-123101833D01*
X72304642Y-123095785D01*
X72316738Y-123095785D01*
X72334880Y-123101833D01*
X72407452Y-123174404D01*
X72407452Y-123095785D01*
D13*
X63986714Y-124040714D02*
X63974619Y-124052809D01*
X63938333Y-124064904D01*
X63914142Y-124064904D01*
X63877857Y-124052809D01*
X63853666Y-124028619D01*
X63841571Y-124004428D01*
X63829476Y-123956047D01*
X63829476Y-123919761D01*
X63841571Y-123871380D01*
X63853666Y-123847190D01*
X63877857Y-123823000D01*
X63914142Y-123810904D01*
X63938333Y-123810904D01*
X63974619Y-123823000D01*
X63986714Y-123835095D01*
X64083476Y-123835095D02*
X64095571Y-123823000D01*
X64119761Y-123810904D01*
X64180238Y-123810904D01*
X64204428Y-123823000D01*
X64216523Y-123835095D01*
X64228619Y-123859285D01*
X64228619Y-123883476D01*
X64216523Y-123919761D01*
X64071380Y-124064904D01*
X64228619Y-124064904D01*
X64325380Y-123835095D02*
X64337476Y-123823000D01*
X64361666Y-123810904D01*
X64422142Y-123810904D01*
X64446333Y-123823000D01*
X64458428Y-123835095D01*
X64470523Y-123859285D01*
X64470523Y-123883476D01*
X64458428Y-123919761D01*
X64313285Y-124064904D01*
X64470523Y-124064904D01*
D14*
X63995785Y-124142547D02*
X64001833Y-124136500D01*
X64013928Y-124130452D01*
X64044166Y-124130452D01*
X64056261Y-124136500D01*
X64062309Y-124142547D01*
X64068357Y-124154642D01*
X64068357Y-124166738D01*
X64062309Y-124184880D01*
X63989738Y-124257452D01*
X64068357Y-124257452D01*
X64177214Y-124172785D02*
X64177214Y-124257452D01*
X64122785Y-124172785D02*
X64122785Y-124239309D01*
X64128833Y-124251404D01*
X64140928Y-124257452D01*
X64159071Y-124257452D01*
X64171166Y-124251404D01*
X64177214Y-124245357D01*
X64231642Y-124142547D02*
X64237690Y-124136500D01*
X64249785Y-124130452D01*
X64280023Y-124130452D01*
X64292119Y-124136500D01*
X64298166Y-124142547D01*
X64304214Y-124154642D01*
X64304214Y-124166738D01*
X64298166Y-124184880D01*
X64225595Y-124257452D01*
X64304214Y-124257452D01*
D13*
X51440714Y-102263285D02*
X51452809Y-102275380D01*
X51464904Y-102311666D01*
X51464904Y-102335857D01*
X51452809Y-102372142D01*
X51428619Y-102396333D01*
X51404428Y-102408428D01*
X51356047Y-102420523D01*
X51319761Y-102420523D01*
X51271380Y-102408428D01*
X51247190Y-102396333D01*
X51223000Y-102372142D01*
X51210904Y-102335857D01*
X51210904Y-102311666D01*
X51223000Y-102275380D01*
X51235095Y-102263285D01*
X51464904Y-102021380D02*
X51464904Y-102166523D01*
X51464904Y-102093952D02*
X51210904Y-102093952D01*
X51247190Y-102118142D01*
X51271380Y-102142333D01*
X51283476Y-102166523D01*
X51319761Y-101876238D02*
X51307666Y-101900428D01*
X51295571Y-101912523D01*
X51271380Y-101924619D01*
X51259285Y-101924619D01*
X51235095Y-101912523D01*
X51223000Y-101900428D01*
X51210904Y-101876238D01*
X51210904Y-101827857D01*
X51223000Y-101803666D01*
X51235095Y-101791571D01*
X51259285Y-101779476D01*
X51271380Y-101779476D01*
X51295571Y-101791571D01*
X51307666Y-101803666D01*
X51319761Y-101827857D01*
X51319761Y-101876238D01*
X51331857Y-101900428D01*
X51343952Y-101912523D01*
X51368142Y-101924619D01*
X51416523Y-101924619D01*
X51440714Y-101912523D01*
X51452809Y-101900428D01*
X51464904Y-101876238D01*
X51464904Y-101827857D01*
X51452809Y-101803666D01*
X51440714Y-101791571D01*
X51416523Y-101779476D01*
X51368142Y-101779476D01*
X51343952Y-101791571D01*
X51331857Y-101803666D01*
X51319761Y-101827857D01*
D14*
X51542547Y-102254214D02*
X51536500Y-102248166D01*
X51530452Y-102236071D01*
X51530452Y-102205833D01*
X51536500Y-102193738D01*
X51542547Y-102187690D01*
X51554642Y-102181642D01*
X51566738Y-102181642D01*
X51584880Y-102187690D01*
X51657452Y-102260261D01*
X51657452Y-102181642D01*
X51572785Y-102072785D02*
X51657452Y-102072785D01*
X51572785Y-102127214D02*
X51639309Y-102127214D01*
X51651404Y-102121166D01*
X51657452Y-102109071D01*
X51657452Y-102090928D01*
X51651404Y-102078833D01*
X51645357Y-102072785D01*
X51542547Y-102018357D02*
X51536500Y-102012309D01*
X51530452Y-102000214D01*
X51530452Y-101969976D01*
X51536500Y-101957880D01*
X51542547Y-101951833D01*
X51554642Y-101945785D01*
X51566738Y-101945785D01*
X51584880Y-101951833D01*
X51657452Y-102024404D01*
X51657452Y-101945785D01*
D13*
X63986714Y-99440714D02*
X63974619Y-99452809D01*
X63938333Y-99464904D01*
X63914142Y-99464904D01*
X63877857Y-99452809D01*
X63853666Y-99428619D01*
X63841571Y-99404428D01*
X63829476Y-99356047D01*
X63829476Y-99319761D01*
X63841571Y-99271380D01*
X63853666Y-99247190D01*
X63877857Y-99223000D01*
X63914142Y-99210904D01*
X63938333Y-99210904D01*
X63974619Y-99223000D01*
X63986714Y-99235095D01*
X64083476Y-99235095D02*
X64095571Y-99223000D01*
X64119761Y-99210904D01*
X64180238Y-99210904D01*
X64204428Y-99223000D01*
X64216523Y-99235095D01*
X64228619Y-99259285D01*
X64228619Y-99283476D01*
X64216523Y-99319761D01*
X64071380Y-99464904D01*
X64228619Y-99464904D01*
X64458428Y-99210904D02*
X64337476Y-99210904D01*
X64325380Y-99331857D01*
X64337476Y-99319761D01*
X64361666Y-99307666D01*
X64422142Y-99307666D01*
X64446333Y-99319761D01*
X64458428Y-99331857D01*
X64470523Y-99356047D01*
X64470523Y-99416523D01*
X64458428Y-99440714D01*
X64446333Y-99452809D01*
X64422142Y-99464904D01*
X64361666Y-99464904D01*
X64337476Y-99452809D01*
X64325380Y-99440714D01*
D14*
X63995785Y-99542547D02*
X64001833Y-99536500D01*
X64013928Y-99530452D01*
X64044166Y-99530452D01*
X64056261Y-99536500D01*
X64062309Y-99542547D01*
X64068357Y-99554642D01*
X64068357Y-99566738D01*
X64062309Y-99584880D01*
X63989738Y-99657452D01*
X64068357Y-99657452D01*
X64177214Y-99572785D02*
X64177214Y-99657452D01*
X64122785Y-99572785D02*
X64122785Y-99639309D01*
X64128833Y-99651404D01*
X64140928Y-99657452D01*
X64159071Y-99657452D01*
X64171166Y-99651404D01*
X64177214Y-99645357D01*
X64231642Y-99542547D02*
X64237690Y-99536500D01*
X64249785Y-99530452D01*
X64280023Y-99530452D01*
X64292119Y-99536500D01*
X64298166Y-99542547D01*
X64304214Y-99554642D01*
X64304214Y-99566738D01*
X64298166Y-99584880D01*
X64225595Y-99657452D01*
X64304214Y-99657452D01*
D13*
X53986714Y-124040714D02*
X53974619Y-124052809D01*
X53938333Y-124064904D01*
X53914142Y-124064904D01*
X53877857Y-124052809D01*
X53853666Y-124028619D01*
X53841571Y-124004428D01*
X53829476Y-123956047D01*
X53829476Y-123919761D01*
X53841571Y-123871380D01*
X53853666Y-123847190D01*
X53877857Y-123823000D01*
X53914142Y-123810904D01*
X53938333Y-123810904D01*
X53974619Y-123823000D01*
X53986714Y-123835095D01*
X54083476Y-123835095D02*
X54095571Y-123823000D01*
X54119761Y-123810904D01*
X54180238Y-123810904D01*
X54204428Y-123823000D01*
X54216523Y-123835095D01*
X54228619Y-123859285D01*
X54228619Y-123883476D01*
X54216523Y-123919761D01*
X54071380Y-124064904D01*
X54228619Y-124064904D01*
X54470523Y-124064904D02*
X54325380Y-124064904D01*
X54397952Y-124064904D02*
X54397952Y-123810904D01*
X54373761Y-123847190D01*
X54349571Y-123871380D01*
X54325380Y-123883476D01*
D14*
X53995785Y-124142547D02*
X54001833Y-124136500D01*
X54013928Y-124130452D01*
X54044166Y-124130452D01*
X54056261Y-124136500D01*
X54062309Y-124142547D01*
X54068357Y-124154642D01*
X54068357Y-124166738D01*
X54062309Y-124184880D01*
X53989738Y-124257452D01*
X54068357Y-124257452D01*
X54177214Y-124172785D02*
X54177214Y-124257452D01*
X54122785Y-124172785D02*
X54122785Y-124239309D01*
X54128833Y-124251404D01*
X54140928Y-124257452D01*
X54159071Y-124257452D01*
X54171166Y-124251404D01*
X54177214Y-124245357D01*
X54231642Y-124142547D02*
X54237690Y-124136500D01*
X54249785Y-124130452D01*
X54280023Y-124130452D01*
X54292119Y-124136500D01*
X54298166Y-124142547D01*
X54304214Y-124154642D01*
X54304214Y-124166738D01*
X54298166Y-124184880D01*
X54225595Y-124257452D01*
X54304214Y-124257452D01*
D13*
X67040714Y-110963285D02*
X67052809Y-110975380D01*
X67064904Y-111011666D01*
X67064904Y-111035857D01*
X67052809Y-111072142D01*
X67028619Y-111096333D01*
X67004428Y-111108428D01*
X66956047Y-111120523D01*
X66919761Y-111120523D01*
X66871380Y-111108428D01*
X66847190Y-111096333D01*
X66823000Y-111072142D01*
X66810904Y-111035857D01*
X66810904Y-111011666D01*
X66823000Y-110975380D01*
X66835095Y-110963285D01*
X66835095Y-110866523D02*
X66823000Y-110854428D01*
X66810904Y-110830238D01*
X66810904Y-110769761D01*
X66823000Y-110745571D01*
X66835095Y-110733476D01*
X66859285Y-110721380D01*
X66883476Y-110721380D01*
X66919761Y-110733476D01*
X67064904Y-110878619D01*
X67064904Y-110721380D01*
X66810904Y-110636714D02*
X66810904Y-110479476D01*
X66907666Y-110564142D01*
X66907666Y-110527857D01*
X66919761Y-110503666D01*
X66931857Y-110491571D01*
X66956047Y-110479476D01*
X67016523Y-110479476D01*
X67040714Y-110491571D01*
X67052809Y-110503666D01*
X67064904Y-110527857D01*
X67064904Y-110600428D01*
X67052809Y-110624619D01*
X67040714Y-110636714D01*
D14*
X66642547Y-110954214D02*
X66636500Y-110948166D01*
X66630452Y-110936071D01*
X66630452Y-110905833D01*
X66636500Y-110893738D01*
X66642547Y-110887690D01*
X66654642Y-110881642D01*
X66666738Y-110881642D01*
X66684880Y-110887690D01*
X66757452Y-110960261D01*
X66757452Y-110881642D01*
X66672785Y-110772785D02*
X66757452Y-110772785D01*
X66672785Y-110827214D02*
X66739309Y-110827214D01*
X66751404Y-110821166D01*
X66757452Y-110809071D01*
X66757452Y-110790928D01*
X66751404Y-110778833D01*
X66745357Y-110772785D01*
X66642547Y-110718357D02*
X66636500Y-110712309D01*
X66630452Y-110700214D01*
X66630452Y-110669976D01*
X66636500Y-110657880D01*
X66642547Y-110651833D01*
X66654642Y-110645785D01*
X66666738Y-110645785D01*
X66684880Y-110651833D01*
X66757452Y-110724404D01*
X66757452Y-110645785D01*
D13*
X51440714Y-107063285D02*
X51452809Y-107075380D01*
X51464904Y-107111666D01*
X51464904Y-107135857D01*
X51452809Y-107172142D01*
X51428619Y-107196333D01*
X51404428Y-107208428D01*
X51356047Y-107220523D01*
X51319761Y-107220523D01*
X51271380Y-107208428D01*
X51247190Y-107196333D01*
X51223000Y-107172142D01*
X51210904Y-107135857D01*
X51210904Y-107111666D01*
X51223000Y-107075380D01*
X51235095Y-107063285D01*
X51464904Y-106821380D02*
X51464904Y-106966523D01*
X51464904Y-106893952D02*
X51210904Y-106893952D01*
X51247190Y-106918142D01*
X51271380Y-106942333D01*
X51283476Y-106966523D01*
X51464904Y-106700428D02*
X51464904Y-106652047D01*
X51452809Y-106627857D01*
X51440714Y-106615761D01*
X51404428Y-106591571D01*
X51356047Y-106579476D01*
X51259285Y-106579476D01*
X51235095Y-106591571D01*
X51223000Y-106603666D01*
X51210904Y-106627857D01*
X51210904Y-106676238D01*
X51223000Y-106700428D01*
X51235095Y-106712523D01*
X51259285Y-106724619D01*
X51319761Y-106724619D01*
X51343952Y-106712523D01*
X51356047Y-106700428D01*
X51368142Y-106676238D01*
X51368142Y-106627857D01*
X51356047Y-106603666D01*
X51343952Y-106591571D01*
X51319761Y-106579476D01*
D14*
X51542547Y-107054214D02*
X51536500Y-107048166D01*
X51530452Y-107036071D01*
X51530452Y-107005833D01*
X51536500Y-106993738D01*
X51542547Y-106987690D01*
X51554642Y-106981642D01*
X51566738Y-106981642D01*
X51584880Y-106987690D01*
X51657452Y-107060261D01*
X51657452Y-106981642D01*
X51572785Y-106872785D02*
X51657452Y-106872785D01*
X51572785Y-106927214D02*
X51639309Y-106927214D01*
X51651404Y-106921166D01*
X51657452Y-106909071D01*
X51657452Y-106890928D01*
X51651404Y-106878833D01*
X51645357Y-106872785D01*
X51542547Y-106818357D02*
X51536500Y-106812309D01*
X51530452Y-106800214D01*
X51530452Y-106769976D01*
X51536500Y-106757880D01*
X51542547Y-106751833D01*
X51554642Y-106745785D01*
X51566738Y-106745785D01*
X51584880Y-106751833D01*
X51657452Y-106824404D01*
X51657452Y-106745785D01*
D13*
X51440714Y-111063285D02*
X51452809Y-111075380D01*
X51464904Y-111111666D01*
X51464904Y-111135857D01*
X51452809Y-111172142D01*
X51428619Y-111196333D01*
X51404428Y-111208428D01*
X51356047Y-111220523D01*
X51319761Y-111220523D01*
X51271380Y-111208428D01*
X51247190Y-111196333D01*
X51223000Y-111172142D01*
X51210904Y-111135857D01*
X51210904Y-111111666D01*
X51223000Y-111075380D01*
X51235095Y-111063285D01*
X51235095Y-110966523D02*
X51223000Y-110954428D01*
X51210904Y-110930238D01*
X51210904Y-110869761D01*
X51223000Y-110845571D01*
X51235095Y-110833476D01*
X51259285Y-110821380D01*
X51283476Y-110821380D01*
X51319761Y-110833476D01*
X51464904Y-110978619D01*
X51464904Y-110821380D01*
X51210904Y-110664142D02*
X51210904Y-110639952D01*
X51223000Y-110615761D01*
X51235095Y-110603666D01*
X51259285Y-110591571D01*
X51307666Y-110579476D01*
X51368142Y-110579476D01*
X51416523Y-110591571D01*
X51440714Y-110603666D01*
X51452809Y-110615761D01*
X51464904Y-110639952D01*
X51464904Y-110664142D01*
X51452809Y-110688333D01*
X51440714Y-110700428D01*
X51416523Y-110712523D01*
X51368142Y-110724619D01*
X51307666Y-110724619D01*
X51259285Y-110712523D01*
X51235095Y-110700428D01*
X51223000Y-110688333D01*
X51210904Y-110664142D01*
D14*
X51542547Y-111054214D02*
X51536500Y-111048166D01*
X51530452Y-111036071D01*
X51530452Y-111005833D01*
X51536500Y-110993738D01*
X51542547Y-110987690D01*
X51554642Y-110981642D01*
X51566738Y-110981642D01*
X51584880Y-110987690D01*
X51657452Y-111060261D01*
X51657452Y-110981642D01*
X51572785Y-110872785D02*
X51657452Y-110872785D01*
X51572785Y-110927214D02*
X51639309Y-110927214D01*
X51651404Y-110921166D01*
X51657452Y-110909071D01*
X51657452Y-110890928D01*
X51651404Y-110878833D01*
X51645357Y-110872785D01*
X51542547Y-110818357D02*
X51536500Y-110812309D01*
X51530452Y-110800214D01*
X51530452Y-110769976D01*
X51536500Y-110757880D01*
X51542547Y-110751833D01*
X51554642Y-110745785D01*
X51566738Y-110745785D01*
X51584880Y-110751833D01*
X51657452Y-110824404D01*
X51657452Y-110745785D01*
D13*
X67040714Y-106163285D02*
X67052809Y-106175380D01*
X67064904Y-106211666D01*
X67064904Y-106235857D01*
X67052809Y-106272142D01*
X67028619Y-106296333D01*
X67004428Y-106308428D01*
X66956047Y-106320523D01*
X66919761Y-106320523D01*
X66871380Y-106308428D01*
X66847190Y-106296333D01*
X66823000Y-106272142D01*
X66810904Y-106235857D01*
X66810904Y-106211666D01*
X66823000Y-106175380D01*
X66835095Y-106163285D01*
X66835095Y-106066523D02*
X66823000Y-106054428D01*
X66810904Y-106030238D01*
X66810904Y-105969761D01*
X66823000Y-105945571D01*
X66835095Y-105933476D01*
X66859285Y-105921380D01*
X66883476Y-105921380D01*
X66919761Y-105933476D01*
X67064904Y-106078619D01*
X67064904Y-105921380D01*
X66895571Y-105703666D02*
X67064904Y-105703666D01*
X66798809Y-105764142D02*
X66980238Y-105824619D01*
X66980238Y-105667380D01*
D14*
X66642547Y-106154214D02*
X66636500Y-106148166D01*
X66630452Y-106136071D01*
X66630452Y-106105833D01*
X66636500Y-106093738D01*
X66642547Y-106087690D01*
X66654642Y-106081642D01*
X66666738Y-106081642D01*
X66684880Y-106087690D01*
X66757452Y-106160261D01*
X66757452Y-106081642D01*
X66672785Y-105972785D02*
X66757452Y-105972785D01*
X66672785Y-106027214D02*
X66739309Y-106027214D01*
X66751404Y-106021166D01*
X66757452Y-106009071D01*
X66757452Y-105990928D01*
X66751404Y-105978833D01*
X66745357Y-105972785D01*
X66642547Y-105918357D02*
X66636500Y-105912309D01*
X66630452Y-105900214D01*
X66630452Y-105869976D01*
X66636500Y-105857880D01*
X66642547Y-105851833D01*
X66654642Y-105845785D01*
X66666738Y-105845785D01*
X66684880Y-105851833D01*
X66757452Y-105924404D01*
X66757452Y-105845785D01*
D13*
X100290714Y-123292333D02*
X100302809Y-123304428D01*
X100314904Y-123340714D01*
X100314904Y-123364904D01*
X100302809Y-123401190D01*
X100278619Y-123425380D01*
X100254428Y-123437476D01*
X100206047Y-123449571D01*
X100169761Y-123449571D01*
X100121380Y-123437476D01*
X100097190Y-123425380D01*
X100073000Y-123401190D01*
X100060904Y-123364904D01*
X100060904Y-123340714D01*
X100073000Y-123304428D01*
X100085095Y-123292333D01*
X100169761Y-123147190D02*
X100157666Y-123171380D01*
X100145571Y-123183476D01*
X100121380Y-123195571D01*
X100109285Y-123195571D01*
X100085095Y-123183476D01*
X100073000Y-123171380D01*
X100060904Y-123147190D01*
X100060904Y-123098809D01*
X100073000Y-123074619D01*
X100085095Y-123062523D01*
X100109285Y-123050428D01*
X100121380Y-123050428D01*
X100145571Y-123062523D01*
X100157666Y-123074619D01*
X100169761Y-123098809D01*
X100169761Y-123147190D01*
X100181857Y-123171380D01*
X100193952Y-123183476D01*
X100218142Y-123195571D01*
X100266523Y-123195571D01*
X100290714Y-123183476D01*
X100302809Y-123171380D01*
X100314904Y-123147190D01*
X100314904Y-123098809D01*
X100302809Y-123074619D01*
X100290714Y-123062523D01*
X100266523Y-123050428D01*
X100218142Y-123050428D01*
X100193952Y-123062523D01*
X100181857Y-123074619D01*
X100169761Y-123098809D01*
D14*
X99892547Y-123404214D02*
X99886500Y-123398166D01*
X99880452Y-123386071D01*
X99880452Y-123355833D01*
X99886500Y-123343738D01*
X99892547Y-123337690D01*
X99904642Y-123331642D01*
X99916738Y-123331642D01*
X99934880Y-123337690D01*
X100007452Y-123410261D01*
X100007452Y-123331642D01*
X99922785Y-123222785D02*
X100007452Y-123222785D01*
X99922785Y-123277214D02*
X99989309Y-123277214D01*
X100001404Y-123271166D01*
X100007452Y-123259071D01*
X100007452Y-123240928D01*
X100001404Y-123228833D01*
X99995357Y-123222785D01*
X99892547Y-123168357D02*
X99886500Y-123162309D01*
X99880452Y-123150214D01*
X99880452Y-123119976D01*
X99886500Y-123107880D01*
X99892547Y-123101833D01*
X99904642Y-123095785D01*
X99916738Y-123095785D01*
X99934880Y-123101833D01*
X100007452Y-123174404D01*
X100007452Y-123095785D01*
D13*
X81890714Y-123292333D02*
X81902809Y-123304428D01*
X81914904Y-123340714D01*
X81914904Y-123364904D01*
X81902809Y-123401190D01*
X81878619Y-123425380D01*
X81854428Y-123437476D01*
X81806047Y-123449571D01*
X81769761Y-123449571D01*
X81721380Y-123437476D01*
X81697190Y-123425380D01*
X81673000Y-123401190D01*
X81660904Y-123364904D01*
X81660904Y-123340714D01*
X81673000Y-123304428D01*
X81685095Y-123292333D01*
X81660904Y-123074619D02*
X81660904Y-123123000D01*
X81673000Y-123147190D01*
X81685095Y-123159285D01*
X81721380Y-123183476D01*
X81769761Y-123195571D01*
X81866523Y-123195571D01*
X81890714Y-123183476D01*
X81902809Y-123171380D01*
X81914904Y-123147190D01*
X81914904Y-123098809D01*
X81902809Y-123074619D01*
X81890714Y-123062523D01*
X81866523Y-123050428D01*
X81806047Y-123050428D01*
X81781857Y-123062523D01*
X81769761Y-123074619D01*
X81757666Y-123098809D01*
X81757666Y-123147190D01*
X81769761Y-123171380D01*
X81781857Y-123183476D01*
X81806047Y-123195571D01*
D14*
X81492547Y-123404214D02*
X81486500Y-123398166D01*
X81480452Y-123386071D01*
X81480452Y-123355833D01*
X81486500Y-123343738D01*
X81492547Y-123337690D01*
X81504642Y-123331642D01*
X81516738Y-123331642D01*
X81534880Y-123337690D01*
X81607452Y-123410261D01*
X81607452Y-123331642D01*
X81522785Y-123222785D02*
X81607452Y-123222785D01*
X81522785Y-123277214D02*
X81589309Y-123277214D01*
X81601404Y-123271166D01*
X81607452Y-123259071D01*
X81607452Y-123240928D01*
X81601404Y-123228833D01*
X81595357Y-123222785D01*
X81492547Y-123168357D02*
X81486500Y-123162309D01*
X81480452Y-123150214D01*
X81480452Y-123119976D01*
X81486500Y-123107880D01*
X81492547Y-123101833D01*
X81504642Y-123095785D01*
X81516738Y-123095785D01*
X81534880Y-123101833D01*
X81607452Y-123174404D01*
X81607452Y-123095785D01*
D13*
X91090714Y-123292333D02*
X91102809Y-123304428D01*
X91114904Y-123340714D01*
X91114904Y-123364904D01*
X91102809Y-123401190D01*
X91078619Y-123425380D01*
X91054428Y-123437476D01*
X91006047Y-123449571D01*
X90969761Y-123449571D01*
X90921380Y-123437476D01*
X90897190Y-123425380D01*
X90873000Y-123401190D01*
X90860904Y-123364904D01*
X90860904Y-123340714D01*
X90873000Y-123304428D01*
X90885095Y-123292333D01*
X90860904Y-123207666D02*
X90860904Y-123038333D01*
X91114904Y-123147190D01*
D14*
X90692547Y-123404214D02*
X90686500Y-123398166D01*
X90680452Y-123386071D01*
X90680452Y-123355833D01*
X90686500Y-123343738D01*
X90692547Y-123337690D01*
X90704642Y-123331642D01*
X90716738Y-123331642D01*
X90734880Y-123337690D01*
X90807452Y-123410261D01*
X90807452Y-123331642D01*
X90722785Y-123222785D02*
X90807452Y-123222785D01*
X90722785Y-123277214D02*
X90789309Y-123277214D01*
X90801404Y-123271166D01*
X90807452Y-123259071D01*
X90807452Y-123240928D01*
X90801404Y-123228833D01*
X90795357Y-123222785D01*
X90692547Y-123168357D02*
X90686500Y-123162309D01*
X90680452Y-123150214D01*
X90680452Y-123119976D01*
X90686500Y-123107880D01*
X90692547Y-123101833D01*
X90704642Y-123095785D01*
X90716738Y-123095785D01*
X90734880Y-123101833D01*
X90807452Y-123174404D01*
X90807452Y-123095785D01*
D16*
X50645785Y-93748785D02*
X50518785Y-93748785D01*
X50518785Y-93948357D02*
X50518785Y-93567357D01*
X50700214Y-93567357D01*
X50845357Y-93948357D02*
X50845357Y-93567357D01*
X51026785Y-93948357D02*
X51026785Y-93567357D01*
X51117500Y-93567357D01*
X51171928Y-93585500D01*
X51208214Y-93621785D01*
X51226357Y-93658071D01*
X51244500Y-93730642D01*
X51244500Y-93785071D01*
X51226357Y-93857642D01*
X51208214Y-93893928D01*
X51171928Y-93930214D01*
X51117500Y-93948357D01*
X51026785Y-93948357D01*
X51607357Y-93948357D02*
X51389642Y-93948357D01*
X51498500Y-93948357D02*
X51498500Y-93567357D01*
X51462214Y-93621785D01*
X51425928Y-93658071D01*
X51389642Y-93676214D01*
X109827785Y-118005785D02*
X109700785Y-118005785D01*
X109700785Y-118205357D02*
X109700785Y-117824357D01*
X109882214Y-117824357D01*
X110027357Y-118205357D02*
X110027357Y-117824357D01*
X110208785Y-118205357D02*
X110208785Y-117824357D01*
X110299500Y-117824357D01*
X110353928Y-117842500D01*
X110390214Y-117878785D01*
X110408357Y-117915071D01*
X110426500Y-117987642D01*
X110426500Y-118042071D01*
X110408357Y-118114642D01*
X110390214Y-118150928D01*
X110353928Y-118187214D01*
X110299500Y-118205357D01*
X110208785Y-118205357D01*
X110553500Y-117824357D02*
X110789357Y-117824357D01*
X110662357Y-117969500D01*
X110716785Y-117969500D01*
X110753071Y-117987642D01*
X110771214Y-118005785D01*
X110789357Y-118042071D01*
X110789357Y-118132785D01*
X110771214Y-118169071D01*
X110753071Y-118187214D01*
X110716785Y-118205357D01*
X110607928Y-118205357D01*
X110571642Y-118187214D01*
X110553500Y-118169071D01*
X58392785Y-125879785D02*
X58265785Y-125879785D01*
X58265785Y-126079357D02*
X58265785Y-125698357D01*
X58447214Y-125698357D01*
X58592357Y-126079357D02*
X58592357Y-125698357D01*
X58773785Y-126079357D02*
X58773785Y-125698357D01*
X58864500Y-125698357D01*
X58918928Y-125716500D01*
X58955214Y-125752785D01*
X58973357Y-125789071D01*
X58991500Y-125861642D01*
X58991500Y-125916071D01*
X58973357Y-125988642D01*
X58955214Y-126024928D01*
X58918928Y-126061214D01*
X58864500Y-126079357D01*
X58773785Y-126079357D01*
X59318071Y-125825357D02*
X59318071Y-126079357D01*
X59227357Y-125680214D02*
X59136642Y-125952357D01*
X59372500Y-125952357D01*
X99921785Y-93748785D02*
X99794785Y-93748785D01*
X99794785Y-93948357D02*
X99794785Y-93567357D01*
X99976214Y-93567357D01*
X100121357Y-93948357D02*
X100121357Y-93567357D01*
X100302785Y-93948357D02*
X100302785Y-93567357D01*
X100393500Y-93567357D01*
X100447928Y-93585500D01*
X100484214Y-93621785D01*
X100502357Y-93658071D01*
X100520500Y-93730642D01*
X100520500Y-93785071D01*
X100502357Y-93857642D01*
X100484214Y-93893928D01*
X100447928Y-93930214D01*
X100393500Y-93948357D01*
X100302785Y-93948357D01*
X100665642Y-93603642D02*
X100683785Y-93585500D01*
X100720071Y-93567357D01*
X100810785Y-93567357D01*
X100847071Y-93585500D01*
X100865214Y-93603642D01*
X100883357Y-93639928D01*
X100883357Y-93676214D01*
X100865214Y-93730642D01*
X100647500Y-93948357D01*
X100883357Y-93948357D01*
D10*
X110693238Y-130355952D02*
X110693238Y-129955952D01*
X110693238Y-130146428D02*
X110921809Y-130146428D01*
X110921809Y-130355952D02*
X110921809Y-129955952D01*
X111074190Y-129955952D02*
X111321809Y-129955952D01*
X111188476Y-130108333D01*
X111245619Y-130108333D01*
X111283714Y-130127380D01*
X111302761Y-130146428D01*
X111321809Y-130184523D01*
X111321809Y-130279761D01*
X111302761Y-130317857D01*
X111283714Y-130336904D01*
X111245619Y-130355952D01*
X111131333Y-130355952D01*
X111093238Y-130336904D01*
X111074190Y-130317857D01*
X48209238Y-93906952D02*
X48209238Y-93506952D01*
X48209238Y-93697428D02*
X48437809Y-93697428D01*
X48437809Y-93906952D02*
X48437809Y-93506952D01*
X48837809Y-93906952D02*
X48609238Y-93906952D01*
X48723523Y-93906952D02*
X48723523Y-93506952D01*
X48685428Y-93564095D01*
X48647333Y-93602190D01*
X48609238Y-93621238D01*
X102565238Y-93906952D02*
X102565238Y-93506952D01*
X102565238Y-93697428D02*
X102793809Y-93697428D01*
X102793809Y-93906952D02*
X102793809Y-93506952D01*
X102965238Y-93545047D02*
X102984285Y-93526000D01*
X103022380Y-93506952D01*
X103117619Y-93506952D01*
X103155714Y-93526000D01*
X103174761Y-93545047D01*
X103193809Y-93583142D01*
X103193809Y-93621238D01*
X103174761Y-93678380D01*
X102946190Y-93906952D01*
X103193809Y-93906952D01*
X48209238Y-129720952D02*
X48209238Y-129320952D01*
X48209238Y-129511428D02*
X48437809Y-129511428D01*
X48437809Y-129720952D02*
X48437809Y-129320952D01*
X48799714Y-129454285D02*
X48799714Y-129720952D01*
X48704476Y-129301904D02*
X48609238Y-129587619D01*
X48856857Y-129587619D01*
X111201238Y-115369952D02*
X111201238Y-114969952D01*
X111201238Y-115160428D02*
X111429809Y-115160428D01*
X111429809Y-115369952D02*
X111429809Y-114969952D01*
X111810761Y-114969952D02*
X111620285Y-114969952D01*
X111601238Y-115160428D01*
X111620285Y-115141380D01*
X111658380Y-115122333D01*
X111753619Y-115122333D01*
X111791714Y-115141380D01*
X111810761Y-115160428D01*
X111829809Y-115198523D01*
X111829809Y-115293761D01*
X111810761Y-115331857D01*
X111791714Y-115350904D01*
X111753619Y-115369952D01*
X111658380Y-115369952D01*
X111620285Y-115350904D01*
X111601238Y-115331857D01*
D15*
X71480723Y-114854895D02*
X71480723Y-115512876D01*
X71519428Y-115590285D01*
X71558133Y-115628990D01*
X71635542Y-115667695D01*
X71790361Y-115667695D01*
X71867771Y-115628990D01*
X71906476Y-115590285D01*
X71945180Y-115512876D01*
X71945180Y-114854895D01*
X72254819Y-114854895D02*
X72757980Y-114854895D01*
X72487047Y-115164533D01*
X72603161Y-115164533D01*
X72680571Y-115203238D01*
X72719276Y-115241942D01*
X72757980Y-115319352D01*
X72757980Y-115512876D01*
X72719276Y-115590285D01*
X72680571Y-115628990D01*
X72603161Y-115667695D01*
X72370933Y-115667695D01*
X72293523Y-115628990D01*
X72254819Y-115590285D01*
D12*
X71664571Y-116221809D02*
X71567809Y-116221809D01*
X71519428Y-116246000D01*
X71495238Y-116270190D01*
X71446857Y-116342761D01*
X71422666Y-116439523D01*
X71422666Y-116633047D01*
X71446857Y-116681428D01*
X71471047Y-116705619D01*
X71519428Y-116729809D01*
X71616190Y-116729809D01*
X71664571Y-116705619D01*
X71688761Y-116681428D01*
X71712952Y-116633047D01*
X71712952Y-116512095D01*
X71688761Y-116463714D01*
X71664571Y-116439523D01*
X71616190Y-116415333D01*
X71519428Y-116415333D01*
X71471047Y-116439523D01*
X71446857Y-116463714D01*
X71422666Y-116512095D01*
X72027428Y-116221809D02*
X72075809Y-116221809D01*
X72124190Y-116246000D01*
X72148380Y-116270190D01*
X72172571Y-116318571D01*
X72196761Y-116415333D01*
X72196761Y-116536285D01*
X72172571Y-116633047D01*
X72148380Y-116681428D01*
X72124190Y-116705619D01*
X72075809Y-116729809D01*
X72027428Y-116729809D01*
X71979047Y-116705619D01*
X71954857Y-116681428D01*
X71930666Y-116633047D01*
X71906476Y-116536285D01*
X71906476Y-116415333D01*
X71930666Y-116318571D01*
X71954857Y-116270190D01*
X71979047Y-116246000D01*
X72027428Y-116221809D01*
X72414476Y-116729809D02*
X72414476Y-116221809D01*
X72583809Y-116584666D01*
X72753142Y-116221809D01*
X72753142Y-116729809D01*
D13*
X109240714Y-120663285D02*
X109252809Y-120675380D01*
X109264904Y-120711666D01*
X109264904Y-120735857D01*
X109252809Y-120772142D01*
X109228619Y-120796333D01*
X109204428Y-120808428D01*
X109156047Y-120820523D01*
X109119761Y-120820523D01*
X109071380Y-120808428D01*
X109047190Y-120796333D01*
X109023000Y-120772142D01*
X109010904Y-120735857D01*
X109010904Y-120711666D01*
X109023000Y-120675380D01*
X109035095Y-120663285D01*
X109035095Y-120566523D02*
X109023000Y-120554428D01*
X109010904Y-120530238D01*
X109010904Y-120469761D01*
X109023000Y-120445571D01*
X109035095Y-120433476D01*
X109059285Y-120421380D01*
X109083476Y-120421380D01*
X109119761Y-120433476D01*
X109264904Y-120578619D01*
X109264904Y-120421380D01*
X109119761Y-120276238D02*
X109107666Y-120300428D01*
X109095571Y-120312523D01*
X109071380Y-120324619D01*
X109059285Y-120324619D01*
X109035095Y-120312523D01*
X109023000Y-120300428D01*
X109010904Y-120276238D01*
X109010904Y-120227857D01*
X109023000Y-120203666D01*
X109035095Y-120191571D01*
X109059285Y-120179476D01*
X109071380Y-120179476D01*
X109095571Y-120191571D01*
X109107666Y-120203666D01*
X109119761Y-120227857D01*
X109119761Y-120276238D01*
X109131857Y-120300428D01*
X109143952Y-120312523D01*
X109168142Y-120324619D01*
X109216523Y-120324619D01*
X109240714Y-120312523D01*
X109252809Y-120300428D01*
X109264904Y-120276238D01*
X109264904Y-120227857D01*
X109252809Y-120203666D01*
X109240714Y-120191571D01*
X109216523Y-120179476D01*
X109168142Y-120179476D01*
X109143952Y-120191571D01*
X109131857Y-120203666D01*
X109119761Y-120227857D01*
D14*
X109342547Y-120654214D02*
X109336500Y-120648166D01*
X109330452Y-120636071D01*
X109330452Y-120605833D01*
X109336500Y-120593738D01*
X109342547Y-120587690D01*
X109354642Y-120581642D01*
X109366738Y-120581642D01*
X109384880Y-120587690D01*
X109457452Y-120660261D01*
X109457452Y-120581642D01*
X109372785Y-120472785D02*
X109457452Y-120472785D01*
X109372785Y-120527214D02*
X109439309Y-120527214D01*
X109451404Y-120521166D01*
X109457452Y-120509071D01*
X109457452Y-120490928D01*
X109451404Y-120478833D01*
X109445357Y-120472785D01*
X109342547Y-120418357D02*
X109336500Y-120412309D01*
X109330452Y-120400214D01*
X109330452Y-120369976D01*
X109336500Y-120357880D01*
X109342547Y-120351833D01*
X109354642Y-120345785D01*
X109366738Y-120345785D01*
X109384880Y-120351833D01*
X109457452Y-120424404D01*
X109457452Y-120345785D01*
D16*
X109628285Y-124041357D02*
X109628285Y-124349785D01*
X109646428Y-124386071D01*
X109664571Y-124404214D01*
X109700857Y-124422357D01*
X109773428Y-124422357D01*
X109809714Y-124404214D01*
X109827857Y-124386071D01*
X109846000Y-124349785D01*
X109846000Y-124041357D01*
X110227000Y-124422357D02*
X110009285Y-124422357D01*
X110118142Y-124422357D02*
X110118142Y-124041357D01*
X110081857Y-124095785D01*
X110045571Y-124132071D01*
X110009285Y-124150214D01*
X110589857Y-124422357D02*
X110372142Y-124422357D01*
X110481000Y-124422357D02*
X110481000Y-124041357D01*
X110444714Y-124095785D01*
X110408428Y-124132071D01*
X110372142Y-124150214D01*
D14*
X109235190Y-123871166D02*
X109295666Y-123871166D01*
X109223095Y-123907452D02*
X109265428Y-123780452D01*
X109307761Y-123907452D01*
X109350095Y-123907452D02*
X109350095Y-123780452D01*
X109398476Y-123780452D01*
X109410571Y-123786500D01*
X109416619Y-123792547D01*
X109422666Y-123804642D01*
X109422666Y-123822785D01*
X109416619Y-123834880D01*
X109410571Y-123840928D01*
X109398476Y-123846976D01*
X109350095Y-123846976D01*
X109471047Y-123792547D02*
X109477095Y-123786500D01*
X109489190Y-123780452D01*
X109519428Y-123780452D01*
X109531523Y-123786500D01*
X109537571Y-123792547D01*
X109543619Y-123804642D01*
X109543619Y-123816738D01*
X109537571Y-123834880D01*
X109465000Y-123907452D01*
X109543619Y-123907452D01*
X109664571Y-123907452D02*
X109592000Y-123907452D01*
X109628285Y-123907452D02*
X109628285Y-123780452D01*
X109616190Y-123798595D01*
X109604095Y-123810690D01*
X109592000Y-123816738D01*
X109712952Y-123792547D02*
X109719000Y-123786500D01*
X109731095Y-123780452D01*
X109761333Y-123780452D01*
X109773428Y-123786500D01*
X109779476Y-123792547D01*
X109785523Y-123804642D01*
X109785523Y-123816738D01*
X109779476Y-123834880D01*
X109706904Y-123907452D01*
X109785523Y-123907452D01*
X109827857Y-123780452D02*
X109912523Y-123780452D01*
X109858095Y-123907452D01*
X109960904Y-123907452D02*
X109960904Y-123780452D01*
X110033476Y-123907452D02*
X109979047Y-123834880D01*
X110033476Y-123780452D02*
X109960904Y-123853023D01*
X110087904Y-123859071D02*
X110184666Y-123859071D01*
X110311666Y-123907452D02*
X110239095Y-123907452D01*
X110275380Y-123907452D02*
X110275380Y-123780452D01*
X110263285Y-123798595D01*
X110251190Y-123810690D01*
X110239095Y-123816738D01*
X110366095Y-123895357D02*
X110372142Y-123901404D01*
X110366095Y-123907452D01*
X110360047Y-123901404D01*
X110366095Y-123895357D01*
X110366095Y-123907452D01*
X110420523Y-123792547D02*
X110426571Y-123786500D01*
X110438666Y-123780452D01*
X110468904Y-123780452D01*
X110481000Y-123786500D01*
X110487047Y-123792547D01*
X110493095Y-123804642D01*
X110493095Y-123816738D01*
X110487047Y-123834880D01*
X110414476Y-123907452D01*
X110493095Y-123907452D01*
X110529380Y-123780452D02*
X110601952Y-123780452D01*
X110565666Y-123907452D02*
X110565666Y-123780452D01*
X110716857Y-123907452D02*
X110674523Y-123846976D01*
X110644285Y-123907452D02*
X110644285Y-123780452D01*
X110692666Y-123780452D01*
X110704761Y-123786500D01*
X110710809Y-123792547D01*
X110716857Y-123804642D01*
X110716857Y-123822785D01*
X110710809Y-123834880D01*
X110704761Y-123840928D01*
X110692666Y-123846976D01*
X110644285Y-123846976D01*
X110837809Y-123786500D02*
X110825714Y-123780452D01*
X110807571Y-123780452D01*
X110789428Y-123786500D01*
X110777333Y-123798595D01*
X110771285Y-123810690D01*
X110765238Y-123834880D01*
X110765238Y-123853023D01*
X110771285Y-123877214D01*
X110777333Y-123889309D01*
X110789428Y-123901404D01*
X110807571Y-123907452D01*
X110819666Y-123907452D01*
X110837809Y-123901404D01*
X110843857Y-123895357D01*
X110843857Y-123853023D01*
X110819666Y-123853023D01*
X110964809Y-123907452D02*
X110892238Y-123907452D01*
X110928523Y-123907452D02*
X110928523Y-123780452D01*
X110916428Y-123798595D01*
X110904333Y-123810690D01*
X110892238Y-123816738D01*
D13*
X93536714Y-98940714D02*
X93524619Y-98952809D01*
X93488333Y-98964904D01*
X93464142Y-98964904D01*
X93427857Y-98952809D01*
X93403666Y-98928619D01*
X93391571Y-98904428D01*
X93379476Y-98856047D01*
X93379476Y-98819761D01*
X93391571Y-98771380D01*
X93403666Y-98747190D01*
X93427857Y-98723000D01*
X93464142Y-98710904D01*
X93488333Y-98710904D01*
X93524619Y-98723000D01*
X93536714Y-98735095D01*
X93621380Y-98710904D02*
X93778619Y-98710904D01*
X93693952Y-98807666D01*
X93730238Y-98807666D01*
X93754428Y-98819761D01*
X93766523Y-98831857D01*
X93778619Y-98856047D01*
X93778619Y-98916523D01*
X93766523Y-98940714D01*
X93754428Y-98952809D01*
X93730238Y-98964904D01*
X93657666Y-98964904D01*
X93633476Y-98952809D01*
X93621380Y-98940714D01*
X93935857Y-98710904D02*
X93960047Y-98710904D01*
X93984238Y-98723000D01*
X93996333Y-98735095D01*
X94008428Y-98759285D01*
X94020523Y-98807666D01*
X94020523Y-98868142D01*
X94008428Y-98916523D01*
X93996333Y-98940714D01*
X93984238Y-98952809D01*
X93960047Y-98964904D01*
X93935857Y-98964904D01*
X93911666Y-98952809D01*
X93899571Y-98940714D01*
X93887476Y-98916523D01*
X93875380Y-98868142D01*
X93875380Y-98807666D01*
X93887476Y-98759285D01*
X93899571Y-98735095D01*
X93911666Y-98723000D01*
X93935857Y-98710904D01*
D14*
X93545785Y-98542547D02*
X93551833Y-98536500D01*
X93563928Y-98530452D01*
X93594166Y-98530452D01*
X93606261Y-98536500D01*
X93612309Y-98542547D01*
X93618357Y-98554642D01*
X93618357Y-98566738D01*
X93612309Y-98584880D01*
X93539738Y-98657452D01*
X93618357Y-98657452D01*
X93727214Y-98572785D02*
X93727214Y-98657452D01*
X93672785Y-98572785D02*
X93672785Y-98639309D01*
X93678833Y-98651404D01*
X93690928Y-98657452D01*
X93709071Y-98657452D01*
X93721166Y-98651404D01*
X93727214Y-98645357D01*
X93781642Y-98542547D02*
X93787690Y-98536500D01*
X93799785Y-98530452D01*
X93830023Y-98530452D01*
X93842119Y-98536500D01*
X93848166Y-98542547D01*
X93854214Y-98554642D01*
X93854214Y-98566738D01*
X93848166Y-98584880D01*
X93775595Y-98657452D01*
X93854214Y-98657452D01*
D13*
X75740714Y-109842333D02*
X75752809Y-109854428D01*
X75764904Y-109890714D01*
X75764904Y-109914904D01*
X75752809Y-109951190D01*
X75728619Y-109975380D01*
X75704428Y-109987476D01*
X75656047Y-109999571D01*
X75619761Y-109999571D01*
X75571380Y-109987476D01*
X75547190Y-109975380D01*
X75523000Y-109951190D01*
X75510904Y-109914904D01*
X75510904Y-109890714D01*
X75523000Y-109854428D01*
X75535095Y-109842333D01*
X75764904Y-109721380D02*
X75764904Y-109673000D01*
X75752809Y-109648809D01*
X75740714Y-109636714D01*
X75704428Y-109612523D01*
X75656047Y-109600428D01*
X75559285Y-109600428D01*
X75535095Y-109612523D01*
X75523000Y-109624619D01*
X75510904Y-109648809D01*
X75510904Y-109697190D01*
X75523000Y-109721380D01*
X75535095Y-109733476D01*
X75559285Y-109745571D01*
X75619761Y-109745571D01*
X75643952Y-109733476D01*
X75656047Y-109721380D01*
X75668142Y-109697190D01*
X75668142Y-109648809D01*
X75656047Y-109624619D01*
X75643952Y-109612523D01*
X75619761Y-109600428D01*
D14*
X75342547Y-109954214D02*
X75336500Y-109948166D01*
X75330452Y-109936071D01*
X75330452Y-109905833D01*
X75336500Y-109893738D01*
X75342547Y-109887690D01*
X75354642Y-109881642D01*
X75366738Y-109881642D01*
X75384880Y-109887690D01*
X75457452Y-109960261D01*
X75457452Y-109881642D01*
X75372785Y-109772785D02*
X75457452Y-109772785D01*
X75372785Y-109827214D02*
X75439309Y-109827214D01*
X75451404Y-109821166D01*
X75457452Y-109809071D01*
X75457452Y-109790928D01*
X75451404Y-109778833D01*
X75445357Y-109772785D01*
X75342547Y-109718357D02*
X75336500Y-109712309D01*
X75330452Y-109700214D01*
X75330452Y-109669976D01*
X75336500Y-109657880D01*
X75342547Y-109651833D01*
X75354642Y-109645785D01*
X75366738Y-109645785D01*
X75384880Y-109651833D01*
X75457452Y-109724404D01*
X75457452Y-109645785D01*
D13*
X85986714Y-98940714D02*
X85974619Y-98952809D01*
X85938333Y-98964904D01*
X85914142Y-98964904D01*
X85877857Y-98952809D01*
X85853666Y-98928619D01*
X85841571Y-98904428D01*
X85829476Y-98856047D01*
X85829476Y-98819761D01*
X85841571Y-98771380D01*
X85853666Y-98747190D01*
X85877857Y-98723000D01*
X85914142Y-98710904D01*
X85938333Y-98710904D01*
X85974619Y-98723000D01*
X85986714Y-98735095D01*
X86228619Y-98964904D02*
X86083476Y-98964904D01*
X86156047Y-98964904D02*
X86156047Y-98710904D01*
X86131857Y-98747190D01*
X86107666Y-98771380D01*
X86083476Y-98783476D01*
X86470523Y-98964904D02*
X86325380Y-98964904D01*
X86397952Y-98964904D02*
X86397952Y-98710904D01*
X86373761Y-98747190D01*
X86349571Y-98771380D01*
X86325380Y-98783476D01*
D14*
X85995785Y-99042547D02*
X86001833Y-99036500D01*
X86013928Y-99030452D01*
X86044166Y-99030452D01*
X86056261Y-99036500D01*
X86062309Y-99042547D01*
X86068357Y-99054642D01*
X86068357Y-99066738D01*
X86062309Y-99084880D01*
X85989738Y-99157452D01*
X86068357Y-99157452D01*
X86177214Y-99072785D02*
X86177214Y-99157452D01*
X86122785Y-99072785D02*
X86122785Y-99139309D01*
X86128833Y-99151404D01*
X86140928Y-99157452D01*
X86159071Y-99157452D01*
X86171166Y-99151404D01*
X86177214Y-99145357D01*
X86231642Y-99042547D02*
X86237690Y-99036500D01*
X86249785Y-99030452D01*
X86280023Y-99030452D01*
X86292119Y-99036500D01*
X86298166Y-99042547D01*
X86304214Y-99054642D01*
X86304214Y-99066738D01*
X86298166Y-99084880D01*
X86225595Y-99157452D01*
X86304214Y-99157452D01*
D13*
X82486714Y-98940714D02*
X82474619Y-98952809D01*
X82438333Y-98964904D01*
X82414142Y-98964904D01*
X82377857Y-98952809D01*
X82353666Y-98928619D01*
X82341571Y-98904428D01*
X82329476Y-98856047D01*
X82329476Y-98819761D01*
X82341571Y-98771380D01*
X82353666Y-98747190D01*
X82377857Y-98723000D01*
X82414142Y-98710904D01*
X82438333Y-98710904D01*
X82474619Y-98723000D01*
X82486714Y-98735095D01*
X82728619Y-98964904D02*
X82583476Y-98964904D01*
X82656047Y-98964904D02*
X82656047Y-98710904D01*
X82631857Y-98747190D01*
X82607666Y-98771380D01*
X82583476Y-98783476D01*
X82825380Y-98735095D02*
X82837476Y-98723000D01*
X82861666Y-98710904D01*
X82922142Y-98710904D01*
X82946333Y-98723000D01*
X82958428Y-98735095D01*
X82970523Y-98759285D01*
X82970523Y-98783476D01*
X82958428Y-98819761D01*
X82813285Y-98964904D01*
X82970523Y-98964904D01*
D14*
X82495785Y-98542547D02*
X82501833Y-98536500D01*
X82513928Y-98530452D01*
X82544166Y-98530452D01*
X82556261Y-98536500D01*
X82562309Y-98542547D01*
X82568357Y-98554642D01*
X82568357Y-98566738D01*
X82562309Y-98584880D01*
X82489738Y-98657452D01*
X82568357Y-98657452D01*
X82677214Y-98572785D02*
X82677214Y-98657452D01*
X82622785Y-98572785D02*
X82622785Y-98639309D01*
X82628833Y-98651404D01*
X82640928Y-98657452D01*
X82659071Y-98657452D01*
X82671166Y-98651404D01*
X82677214Y-98645357D01*
X82731642Y-98542547D02*
X82737690Y-98536500D01*
X82749785Y-98530452D01*
X82780023Y-98530452D01*
X82792119Y-98536500D01*
X82798166Y-98542547D01*
X82804214Y-98554642D01*
X82804214Y-98566738D01*
X82798166Y-98584880D01*
X82725595Y-98657452D01*
X82804214Y-98657452D01*
D13*
X75740714Y-107013285D02*
X75752809Y-107025380D01*
X75764904Y-107061666D01*
X75764904Y-107085857D01*
X75752809Y-107122142D01*
X75728619Y-107146333D01*
X75704428Y-107158428D01*
X75656047Y-107170523D01*
X75619761Y-107170523D01*
X75571380Y-107158428D01*
X75547190Y-107146333D01*
X75523000Y-107122142D01*
X75510904Y-107085857D01*
X75510904Y-107061666D01*
X75523000Y-107025380D01*
X75535095Y-107013285D01*
X75764904Y-106771380D02*
X75764904Y-106916523D01*
X75764904Y-106843952D02*
X75510904Y-106843952D01*
X75547190Y-106868142D01*
X75571380Y-106892333D01*
X75583476Y-106916523D01*
X75595571Y-106553666D02*
X75764904Y-106553666D01*
X75498809Y-106614142D02*
X75680238Y-106674619D01*
X75680238Y-106517380D01*
D14*
X75842547Y-107004214D02*
X75836500Y-106998166D01*
X75830452Y-106986071D01*
X75830452Y-106955833D01*
X75836500Y-106943738D01*
X75842547Y-106937690D01*
X75854642Y-106931642D01*
X75866738Y-106931642D01*
X75884880Y-106937690D01*
X75957452Y-107010261D01*
X75957452Y-106931642D01*
X75872785Y-106822785D02*
X75957452Y-106822785D01*
X75872785Y-106877214D02*
X75939309Y-106877214D01*
X75951404Y-106871166D01*
X75957452Y-106859071D01*
X75957452Y-106840928D01*
X75951404Y-106828833D01*
X75945357Y-106822785D01*
X75842547Y-106768357D02*
X75836500Y-106762309D01*
X75830452Y-106750214D01*
X75830452Y-106719976D01*
X75836500Y-106707880D01*
X75842547Y-106701833D01*
X75854642Y-106695785D01*
X75866738Y-106695785D01*
X75884880Y-106701833D01*
X75957452Y-106774404D01*
X75957452Y-106695785D01*
D13*
X95190714Y-108963285D02*
X95202809Y-108975380D01*
X95214904Y-109011666D01*
X95214904Y-109035857D01*
X95202809Y-109072142D01*
X95178619Y-109096333D01*
X95154428Y-109108428D01*
X95106047Y-109120523D01*
X95069761Y-109120523D01*
X95021380Y-109108428D01*
X94997190Y-109096333D01*
X94973000Y-109072142D01*
X94960904Y-109035857D01*
X94960904Y-109011666D01*
X94973000Y-108975380D01*
X94985095Y-108963285D01*
X95214904Y-108721380D02*
X95214904Y-108866523D01*
X95214904Y-108793952D02*
X94960904Y-108793952D01*
X94997190Y-108818142D01*
X95021380Y-108842333D01*
X95033476Y-108866523D01*
X94960904Y-108491571D02*
X94960904Y-108612523D01*
X95081857Y-108624619D01*
X95069761Y-108612523D01*
X95057666Y-108588333D01*
X95057666Y-108527857D01*
X95069761Y-108503666D01*
X95081857Y-108491571D01*
X95106047Y-108479476D01*
X95166523Y-108479476D01*
X95190714Y-108491571D01*
X95202809Y-108503666D01*
X95214904Y-108527857D01*
X95214904Y-108588333D01*
X95202809Y-108612523D01*
X95190714Y-108624619D01*
D14*
X95292547Y-108954214D02*
X95286500Y-108948166D01*
X95280452Y-108936071D01*
X95280452Y-108905833D01*
X95286500Y-108893738D01*
X95292547Y-108887690D01*
X95304642Y-108881642D01*
X95316738Y-108881642D01*
X95334880Y-108887690D01*
X95407452Y-108960261D01*
X95407452Y-108881642D01*
X95322785Y-108772785D02*
X95407452Y-108772785D01*
X95322785Y-108827214D02*
X95389309Y-108827214D01*
X95401404Y-108821166D01*
X95407452Y-108809071D01*
X95407452Y-108790928D01*
X95401404Y-108778833D01*
X95395357Y-108772785D01*
X95292547Y-108718357D02*
X95286500Y-108712309D01*
X95280452Y-108700214D01*
X95280452Y-108669976D01*
X95286500Y-108657880D01*
X95292547Y-108651833D01*
X95304642Y-108645785D01*
X95316738Y-108645785D01*
X95334880Y-108651833D01*
X95407452Y-108724404D01*
X95407452Y-108645785D01*
D13*
X90486714Y-118340714D02*
X90474619Y-118352809D01*
X90438333Y-118364904D01*
X90414142Y-118364904D01*
X90377857Y-118352809D01*
X90353666Y-118328619D01*
X90341571Y-118304428D01*
X90329476Y-118256047D01*
X90329476Y-118219761D01*
X90341571Y-118171380D01*
X90353666Y-118147190D01*
X90377857Y-118123000D01*
X90414142Y-118110904D01*
X90438333Y-118110904D01*
X90474619Y-118123000D01*
X90486714Y-118135095D01*
X90728619Y-118364904D02*
X90583476Y-118364904D01*
X90656047Y-118364904D02*
X90656047Y-118110904D01*
X90631857Y-118147190D01*
X90607666Y-118171380D01*
X90583476Y-118183476D01*
X90946333Y-118110904D02*
X90897952Y-118110904D01*
X90873761Y-118123000D01*
X90861666Y-118135095D01*
X90837476Y-118171380D01*
X90825380Y-118219761D01*
X90825380Y-118316523D01*
X90837476Y-118340714D01*
X90849571Y-118352809D01*
X90873761Y-118364904D01*
X90922142Y-118364904D01*
X90946333Y-118352809D01*
X90958428Y-118340714D01*
X90970523Y-118316523D01*
X90970523Y-118256047D01*
X90958428Y-118231857D01*
X90946333Y-118219761D01*
X90922142Y-118207666D01*
X90873761Y-118207666D01*
X90849571Y-118219761D01*
X90837476Y-118231857D01*
X90825380Y-118256047D01*
D14*
X90495785Y-117942547D02*
X90501833Y-117936500D01*
X90513928Y-117930452D01*
X90544166Y-117930452D01*
X90556261Y-117936500D01*
X90562309Y-117942547D01*
X90568357Y-117954642D01*
X90568357Y-117966738D01*
X90562309Y-117984880D01*
X90489738Y-118057452D01*
X90568357Y-118057452D01*
X90677214Y-117972785D02*
X90677214Y-118057452D01*
X90622785Y-117972785D02*
X90622785Y-118039309D01*
X90628833Y-118051404D01*
X90640928Y-118057452D01*
X90659071Y-118057452D01*
X90671166Y-118051404D01*
X90677214Y-118045357D01*
X90731642Y-117942547D02*
X90737690Y-117936500D01*
X90749785Y-117930452D01*
X90780023Y-117930452D01*
X90792119Y-117936500D01*
X90798166Y-117942547D01*
X90804214Y-117954642D01*
X90804214Y-117966738D01*
X90798166Y-117984880D01*
X90725595Y-118057452D01*
X90804214Y-118057452D01*
D13*
X95190714Y-111963285D02*
X95202809Y-111975380D01*
X95214904Y-112011666D01*
X95214904Y-112035857D01*
X95202809Y-112072142D01*
X95178619Y-112096333D01*
X95154428Y-112108428D01*
X95106047Y-112120523D01*
X95069761Y-112120523D01*
X95021380Y-112108428D01*
X94997190Y-112096333D01*
X94973000Y-112072142D01*
X94960904Y-112035857D01*
X94960904Y-112011666D01*
X94973000Y-111975380D01*
X94985095Y-111963285D01*
X94985095Y-111866523D02*
X94973000Y-111854428D01*
X94960904Y-111830238D01*
X94960904Y-111769761D01*
X94973000Y-111745571D01*
X94985095Y-111733476D01*
X95009285Y-111721380D01*
X95033476Y-111721380D01*
X95069761Y-111733476D01*
X95214904Y-111878619D01*
X95214904Y-111721380D01*
X95214904Y-111600428D02*
X95214904Y-111552047D01*
X95202809Y-111527857D01*
X95190714Y-111515761D01*
X95154428Y-111491571D01*
X95106047Y-111479476D01*
X95009285Y-111479476D01*
X94985095Y-111491571D01*
X94973000Y-111503666D01*
X94960904Y-111527857D01*
X94960904Y-111576238D01*
X94973000Y-111600428D01*
X94985095Y-111612523D01*
X95009285Y-111624619D01*
X95069761Y-111624619D01*
X95093952Y-111612523D01*
X95106047Y-111600428D01*
X95118142Y-111576238D01*
X95118142Y-111527857D01*
X95106047Y-111503666D01*
X95093952Y-111491571D01*
X95069761Y-111479476D01*
D14*
X94792547Y-111954214D02*
X94786500Y-111948166D01*
X94780452Y-111936071D01*
X94780452Y-111905833D01*
X94786500Y-111893738D01*
X94792547Y-111887690D01*
X94804642Y-111881642D01*
X94816738Y-111881642D01*
X94834880Y-111887690D01*
X94907452Y-111960261D01*
X94907452Y-111881642D01*
X94822785Y-111772785D02*
X94907452Y-111772785D01*
X94822785Y-111827214D02*
X94889309Y-111827214D01*
X94901404Y-111821166D01*
X94907452Y-111809071D01*
X94907452Y-111790928D01*
X94901404Y-111778833D01*
X94895357Y-111772785D01*
X94792547Y-111718357D02*
X94786500Y-111712309D01*
X94780452Y-111700214D01*
X94780452Y-111669976D01*
X94786500Y-111657880D01*
X94792547Y-111651833D01*
X94804642Y-111645785D01*
X94816738Y-111645785D01*
X94834880Y-111651833D01*
X94907452Y-111724404D01*
X94907452Y-111645785D01*
D13*
X60436714Y-124040714D02*
X60424619Y-124052809D01*
X60388333Y-124064904D01*
X60364142Y-124064904D01*
X60327857Y-124052809D01*
X60303666Y-124028619D01*
X60291571Y-124004428D01*
X60279476Y-123956047D01*
X60279476Y-123919761D01*
X60291571Y-123871380D01*
X60303666Y-123847190D01*
X60327857Y-123823000D01*
X60364142Y-123810904D01*
X60388333Y-123810904D01*
X60424619Y-123823000D01*
X60436714Y-123835095D01*
X60521380Y-123810904D02*
X60678619Y-123810904D01*
X60593952Y-123907666D01*
X60630238Y-123907666D01*
X60654428Y-123919761D01*
X60666523Y-123931857D01*
X60678619Y-123956047D01*
X60678619Y-124016523D01*
X60666523Y-124040714D01*
X60654428Y-124052809D01*
X60630238Y-124064904D01*
X60557666Y-124064904D01*
X60533476Y-124052809D01*
X60521380Y-124040714D01*
X60763285Y-123810904D02*
X60920523Y-123810904D01*
X60835857Y-123907666D01*
X60872142Y-123907666D01*
X60896333Y-123919761D01*
X60908428Y-123931857D01*
X60920523Y-123956047D01*
X60920523Y-124016523D01*
X60908428Y-124040714D01*
X60896333Y-124052809D01*
X60872142Y-124064904D01*
X60799571Y-124064904D01*
X60775380Y-124052809D01*
X60763285Y-124040714D01*
D14*
X60445785Y-123642547D02*
X60451833Y-123636500D01*
X60463928Y-123630452D01*
X60494166Y-123630452D01*
X60506261Y-123636500D01*
X60512309Y-123642547D01*
X60518357Y-123654642D01*
X60518357Y-123666738D01*
X60512309Y-123684880D01*
X60439738Y-123757452D01*
X60518357Y-123757452D01*
X60627214Y-123672785D02*
X60627214Y-123757452D01*
X60572785Y-123672785D02*
X60572785Y-123739309D01*
X60578833Y-123751404D01*
X60590928Y-123757452D01*
X60609071Y-123757452D01*
X60621166Y-123751404D01*
X60627214Y-123745357D01*
X60681642Y-123642547D02*
X60687690Y-123636500D01*
X60699785Y-123630452D01*
X60730023Y-123630452D01*
X60742119Y-123636500D01*
X60748166Y-123642547D01*
X60754214Y-123654642D01*
X60754214Y-123666738D01*
X60748166Y-123684880D01*
X60675595Y-123757452D01*
X60754214Y-123757452D01*
D16*
X62078285Y-127591357D02*
X62078285Y-127899785D01*
X62096428Y-127936071D01*
X62114571Y-127954214D01*
X62150857Y-127972357D01*
X62223428Y-127972357D01*
X62259714Y-127954214D01*
X62277857Y-127936071D01*
X62296000Y-127899785D01*
X62296000Y-127591357D01*
X62677000Y-127972357D02*
X62459285Y-127972357D01*
X62568142Y-127972357D02*
X62568142Y-127591357D01*
X62531857Y-127645785D01*
X62495571Y-127682071D01*
X62459285Y-127700214D01*
X62804000Y-127591357D02*
X63039857Y-127591357D01*
X62912857Y-127736500D01*
X62967285Y-127736500D01*
X63003571Y-127754642D01*
X63021714Y-127772785D01*
X63039857Y-127809071D01*
X63039857Y-127899785D01*
X63021714Y-127936071D01*
X63003571Y-127954214D01*
X62967285Y-127972357D01*
X62858428Y-127972357D01*
X62822142Y-127954214D01*
X62804000Y-127936071D01*
D14*
X61685190Y-127421166D02*
X61745666Y-127421166D01*
X61673095Y-127457452D02*
X61715428Y-127330452D01*
X61757761Y-127457452D01*
X61800095Y-127457452D02*
X61800095Y-127330452D01*
X61848476Y-127330452D01*
X61860571Y-127336500D01*
X61866619Y-127342547D01*
X61872666Y-127354642D01*
X61872666Y-127372785D01*
X61866619Y-127384880D01*
X61860571Y-127390928D01*
X61848476Y-127396976D01*
X61800095Y-127396976D01*
X61921047Y-127342547D02*
X61927095Y-127336500D01*
X61939190Y-127330452D01*
X61969428Y-127330452D01*
X61981523Y-127336500D01*
X61987571Y-127342547D01*
X61993619Y-127354642D01*
X61993619Y-127366738D01*
X61987571Y-127384880D01*
X61915000Y-127457452D01*
X61993619Y-127457452D01*
X62114571Y-127457452D02*
X62042000Y-127457452D01*
X62078285Y-127457452D02*
X62078285Y-127330452D01*
X62066190Y-127348595D01*
X62054095Y-127360690D01*
X62042000Y-127366738D01*
X62162952Y-127342547D02*
X62169000Y-127336500D01*
X62181095Y-127330452D01*
X62211333Y-127330452D01*
X62223428Y-127336500D01*
X62229476Y-127342547D01*
X62235523Y-127354642D01*
X62235523Y-127366738D01*
X62229476Y-127384880D01*
X62156904Y-127457452D01*
X62235523Y-127457452D01*
X62277857Y-127330452D02*
X62362523Y-127330452D01*
X62308095Y-127457452D01*
X62410904Y-127457452D02*
X62410904Y-127330452D01*
X62483476Y-127457452D02*
X62429047Y-127384880D01*
X62483476Y-127330452D02*
X62410904Y-127403023D01*
X62537904Y-127409071D02*
X62634666Y-127409071D01*
X62689095Y-127342547D02*
X62695142Y-127336500D01*
X62707238Y-127330452D01*
X62737476Y-127330452D01*
X62749571Y-127336500D01*
X62755619Y-127342547D01*
X62761666Y-127354642D01*
X62761666Y-127366738D01*
X62755619Y-127384880D01*
X62683047Y-127457452D01*
X62761666Y-127457452D01*
X62816095Y-127445357D02*
X62822142Y-127451404D01*
X62816095Y-127457452D01*
X62810047Y-127451404D01*
X62816095Y-127445357D01*
X62816095Y-127457452D01*
X62937047Y-127330452D02*
X62876571Y-127330452D01*
X62870523Y-127390928D01*
X62876571Y-127384880D01*
X62888666Y-127378833D01*
X62918904Y-127378833D01*
X62931000Y-127384880D01*
X62937047Y-127390928D01*
X62943095Y-127403023D01*
X62943095Y-127433261D01*
X62937047Y-127445357D01*
X62931000Y-127451404D01*
X62918904Y-127457452D01*
X62888666Y-127457452D01*
X62876571Y-127451404D01*
X62870523Y-127445357D01*
X62979380Y-127330452D02*
X63051952Y-127330452D01*
X63015666Y-127457452D02*
X63015666Y-127330452D01*
X63166857Y-127457452D02*
X63124523Y-127396976D01*
X63094285Y-127457452D02*
X63094285Y-127330452D01*
X63142666Y-127330452D01*
X63154761Y-127336500D01*
X63160809Y-127342547D01*
X63166857Y-127354642D01*
X63166857Y-127372785D01*
X63160809Y-127384880D01*
X63154761Y-127390928D01*
X63142666Y-127396976D01*
X63094285Y-127396976D01*
X63287809Y-127336500D02*
X63275714Y-127330452D01*
X63257571Y-127330452D01*
X63239428Y-127336500D01*
X63227333Y-127348595D01*
X63221285Y-127360690D01*
X63215238Y-127384880D01*
X63215238Y-127403023D01*
X63221285Y-127427214D01*
X63227333Y-127439309D01*
X63239428Y-127451404D01*
X63257571Y-127457452D01*
X63269666Y-127457452D01*
X63287809Y-127451404D01*
X63293857Y-127445357D01*
X63293857Y-127403023D01*
X63269666Y-127403023D01*
X63414809Y-127457452D02*
X63342238Y-127457452D01*
X63378523Y-127457452D02*
X63378523Y-127330452D01*
X63366428Y-127348595D01*
X63354333Y-127360690D01*
X63342238Y-127366738D01*
D13*
X100857666Y-120464904D02*
X100773000Y-120343952D01*
X100712523Y-120464904D02*
X100712523Y-120210904D01*
X100809285Y-120210904D01*
X100833476Y-120223000D01*
X100845571Y-120235095D01*
X100857666Y-120259285D01*
X100857666Y-120295571D01*
X100845571Y-120319761D01*
X100833476Y-120331857D01*
X100809285Y-120343952D01*
X100712523Y-120343952D01*
X101075380Y-120295571D02*
X101075380Y-120464904D01*
X101014904Y-120198809D02*
X100954428Y-120380238D01*
X101111666Y-120380238D01*
D14*
X100824404Y-120157452D02*
X100751833Y-120157452D01*
X100788119Y-120157452D02*
X100788119Y-120030452D01*
X100776023Y-120048595D01*
X100763928Y-120060690D01*
X100751833Y-120066738D01*
X100903023Y-120030452D02*
X100915119Y-120030452D01*
X100927214Y-120036500D01*
X100933261Y-120042547D01*
X100939309Y-120054642D01*
X100945357Y-120078833D01*
X100945357Y-120109071D01*
X100939309Y-120133261D01*
X100933261Y-120145357D01*
X100927214Y-120151404D01*
X100915119Y-120157452D01*
X100903023Y-120157452D01*
X100890928Y-120151404D01*
X100884880Y-120145357D01*
X100878833Y-120133261D01*
X100872785Y-120109071D01*
X100872785Y-120078833D01*
X100878833Y-120054642D01*
X100884880Y-120042547D01*
X100890928Y-120036500D01*
X100903023Y-120030452D01*
X100999785Y-120157452D02*
X100999785Y-120030452D01*
X101011880Y-120109071D02*
X101048166Y-120157452D01*
X101048166Y-120072785D02*
X100999785Y-120121166D01*
D13*
X51257666Y-124064904D02*
X51173000Y-123943952D01*
X51112523Y-124064904D02*
X51112523Y-123810904D01*
X51209285Y-123810904D01*
X51233476Y-123823000D01*
X51245571Y-123835095D01*
X51257666Y-123859285D01*
X51257666Y-123895571D01*
X51245571Y-123919761D01*
X51233476Y-123931857D01*
X51209285Y-123943952D01*
X51112523Y-123943952D01*
X51354428Y-123835095D02*
X51366523Y-123823000D01*
X51390714Y-123810904D01*
X51451190Y-123810904D01*
X51475380Y-123823000D01*
X51487476Y-123835095D01*
X51499571Y-123859285D01*
X51499571Y-123883476D01*
X51487476Y-123919761D01*
X51342333Y-124064904D01*
X51499571Y-124064904D01*
D14*
X51263714Y-123672785D02*
X51263714Y-123757452D01*
X51233476Y-123624404D02*
X51203238Y-123715119D01*
X51281857Y-123715119D01*
X51318142Y-123630452D02*
X51402809Y-123630452D01*
X51348380Y-123757452D01*
D13*
X48414904Y-123292333D02*
X48293952Y-123377000D01*
X48414904Y-123437476D02*
X48160904Y-123437476D01*
X48160904Y-123340714D01*
X48173000Y-123316523D01*
X48185095Y-123304428D01*
X48209285Y-123292333D01*
X48245571Y-123292333D01*
X48269761Y-123304428D01*
X48281857Y-123316523D01*
X48293952Y-123340714D01*
X48293952Y-123437476D01*
X48160904Y-123062523D02*
X48160904Y-123183476D01*
X48281857Y-123195571D01*
X48269761Y-123183476D01*
X48257666Y-123159285D01*
X48257666Y-123098809D01*
X48269761Y-123074619D01*
X48281857Y-123062523D01*
X48306047Y-123050428D01*
X48366523Y-123050428D01*
X48390714Y-123062523D01*
X48402809Y-123074619D01*
X48414904Y-123098809D01*
X48414904Y-123159285D01*
X48402809Y-123183476D01*
X48390714Y-123195571D01*
D14*
X48107452Y-123325595D02*
X48107452Y-123398166D01*
X48107452Y-123361880D02*
X47980452Y-123361880D01*
X47998595Y-123373976D01*
X48010690Y-123386071D01*
X48016738Y-123398166D01*
X47980452Y-123246976D02*
X47980452Y-123234880D01*
X47986500Y-123222785D01*
X47992547Y-123216738D01*
X48004642Y-123210690D01*
X48028833Y-123204642D01*
X48059071Y-123204642D01*
X48083261Y-123210690D01*
X48095357Y-123216738D01*
X48101404Y-123222785D01*
X48107452Y-123234880D01*
X48107452Y-123246976D01*
X48101404Y-123259071D01*
X48095357Y-123265119D01*
X48083261Y-123271166D01*
X48059071Y-123277214D01*
X48028833Y-123277214D01*
X48004642Y-123271166D01*
X47992547Y-123265119D01*
X47986500Y-123259071D01*
X47980452Y-123246976D01*
X48107452Y-123150214D02*
X47980452Y-123150214D01*
X48059071Y-123138119D02*
X48107452Y-123101833D01*
X48022785Y-123101833D02*
X48071166Y-123150214D01*
D13*
X50614904Y-121842333D02*
X50493952Y-121927000D01*
X50614904Y-121987476D02*
X50360904Y-121987476D01*
X50360904Y-121890714D01*
X50373000Y-121866523D01*
X50385095Y-121854428D01*
X50409285Y-121842333D01*
X50445571Y-121842333D01*
X50469761Y-121854428D01*
X50481857Y-121866523D01*
X50493952Y-121890714D01*
X50493952Y-121987476D01*
X50360904Y-121624619D02*
X50360904Y-121673000D01*
X50373000Y-121697190D01*
X50385095Y-121709285D01*
X50421380Y-121733476D01*
X50469761Y-121745571D01*
X50566523Y-121745571D01*
X50590714Y-121733476D01*
X50602809Y-121721380D01*
X50614904Y-121697190D01*
X50614904Y-121648809D01*
X50602809Y-121624619D01*
X50590714Y-121612523D01*
X50566523Y-121600428D01*
X50506047Y-121600428D01*
X50481857Y-121612523D01*
X50469761Y-121624619D01*
X50457666Y-121648809D01*
X50457666Y-121697190D01*
X50469761Y-121721380D01*
X50481857Y-121733476D01*
X50506047Y-121745571D01*
D14*
X50307452Y-121875595D02*
X50307452Y-121948166D01*
X50307452Y-121911880D02*
X50180452Y-121911880D01*
X50198595Y-121923976D01*
X50210690Y-121936071D01*
X50216738Y-121948166D01*
X50180452Y-121796976D02*
X50180452Y-121784880D01*
X50186500Y-121772785D01*
X50192547Y-121766738D01*
X50204642Y-121760690D01*
X50228833Y-121754642D01*
X50259071Y-121754642D01*
X50283261Y-121760690D01*
X50295357Y-121766738D01*
X50301404Y-121772785D01*
X50307452Y-121784880D01*
X50307452Y-121796976D01*
X50301404Y-121809071D01*
X50295357Y-121815119D01*
X50283261Y-121821166D01*
X50259071Y-121827214D01*
X50228833Y-121827214D01*
X50204642Y-121821166D01*
X50192547Y-121815119D01*
X50186500Y-121809071D01*
X50180452Y-121796976D01*
X50307452Y-121700214D02*
X50180452Y-121700214D01*
X50259071Y-121688119D02*
X50307452Y-121651833D01*
X50222785Y-121651833D02*
X50271166Y-121700214D01*
D13*
X96864904Y-117292333D02*
X96743952Y-117377000D01*
X96864904Y-117437476D02*
X96610904Y-117437476D01*
X96610904Y-117340714D01*
X96623000Y-117316523D01*
X96635095Y-117304428D01*
X96659285Y-117292333D01*
X96695571Y-117292333D01*
X96719761Y-117304428D01*
X96731857Y-117316523D01*
X96743952Y-117340714D01*
X96743952Y-117437476D01*
X96610904Y-117207666D02*
X96610904Y-117050428D01*
X96707666Y-117135095D01*
X96707666Y-117098809D01*
X96719761Y-117074619D01*
X96731857Y-117062523D01*
X96756047Y-117050428D01*
X96816523Y-117050428D01*
X96840714Y-117062523D01*
X96852809Y-117074619D01*
X96864904Y-117098809D01*
X96864904Y-117171380D01*
X96852809Y-117195571D01*
X96840714Y-117207666D01*
D14*
X96472785Y-117286285D02*
X96557452Y-117286285D01*
X96424404Y-117316523D02*
X96515119Y-117346761D01*
X96515119Y-117268142D01*
X96430452Y-117231857D02*
X96430452Y-117147190D01*
X96557452Y-117201619D01*
M02*
