G04 #@! TF.GenerationSoftware,KiCad,Pcbnew,7.0.1-0*
G04 #@! TF.CreationDate,2023-11-03T04:24:23-04:00*
G04 #@! TF.ProjectId,RAM2GS,52414d32-4753-42e6-9b69-6361645f7063,2.1*
G04 #@! TF.SameCoordinates,Original*
G04 #@! TF.FileFunction,Paste,Top*
G04 #@! TF.FilePolarity,Positive*
%FSLAX46Y46*%
G04 Gerber Fmt 4.6, Leading zero omitted, Abs format (unit mm)*
G04 Created by KiCad (PCBNEW 7.0.1-0) date 2023-11-03 04:24:23*
%MOMM*%
%LPD*%
G01*
G04 APERTURE LIST*
G04 Aperture macros list*
%AMRoundRect*
0 Rectangle with rounded corners*
0 $1 Rounding radius*
0 $2 $3 $4 $5 $6 $7 $8 $9 X,Y pos of 4 corners*
0 Add a 4 corners polygon primitive as box body*
4,1,4,$2,$3,$4,$5,$6,$7,$8,$9,$2,$3,0*
0 Add four circle primitives for the rounded corners*
1,1,$1+$1,$2,$3*
1,1,$1+$1,$4,$5*
1,1,$1+$1,$6,$7*
1,1,$1+$1,$8,$9*
0 Add four rect primitives between the rounded corners*
20,1,$1+$1,$2,$3,$4,$5,0*
20,1,$1+$1,$4,$5,$6,$7,0*
20,1,$1+$1,$6,$7,$8,$9,0*
20,1,$1+$1,$8,$9,$2,$3,0*%
G04 Aperture macros list end*
%ADD10RoundRect,0.172500X0.262500X-0.212500X0.262500X0.212500X-0.262500X0.212500X-0.262500X-0.212500X0*%
%ADD11RoundRect,0.172500X-0.212500X-0.262500X0.212500X-0.262500X0.212500X0.262500X-0.212500X0.262500X0*%
%ADD12RoundRect,0.172500X-0.262500X0.212500X-0.262500X-0.212500X0.262500X-0.212500X0.262500X0.212500X0*%
%ADD13RoundRect,0.072500X0.112500X-0.612500X0.112500X0.612500X-0.112500X0.612500X-0.112500X-0.612500X0*%
%ADD14RoundRect,0.237500X0.262500X0.437500X-0.262500X0.437500X-0.262500X-0.437500X0.262500X-0.437500X0*%
%ADD15RoundRect,0.237500X-0.262500X-0.437500X0.262500X-0.437500X0.262500X0.437500X-0.262500X0.437500X0*%
%ADD16RoundRect,0.250000X0.700000X0.450000X-0.700000X0.450000X-0.700000X-0.450000X0.700000X-0.450000X0*%
%ADD17RoundRect,0.250000X0.700000X1.600000X-0.700000X1.600000X-0.700000X-1.600000X0.700000X-1.600000X0*%
%ADD18RoundRect,0.187500X-0.494975X-0.194454X-0.194454X-0.494975X0.494975X0.194454X0.194454X0.494975X0*%
%ADD19RoundRect,0.187500X0.494975X0.194454X0.194454X0.494975X-0.494975X-0.194454X-0.194454X-0.494975X0*%
%ADD20RoundRect,0.060000X-0.400000X-0.100000X0.400000X-0.100000X0.400000X0.100000X-0.400000X0.100000X0*%
%ADD21RoundRect,0.040000X-0.662500X-0.075000X0.662500X-0.075000X0.662500X0.075000X-0.662500X0.075000X0*%
%ADD22RoundRect,0.040000X-0.075000X-0.662500X0.075000X-0.662500X0.075000X0.662500X-0.075000X0.662500X0*%
%ADD23RoundRect,0.084500X-0.640500X-0.114500X0.640500X-0.114500X0.640500X0.114500X-0.640500X0.114500X0*%
%ADD24RoundRect,0.261900X-0.800000X-0.700000X0.800000X-0.700000X0.800000X0.700000X-0.800000X0.700000X0*%
%ADD25RoundRect,0.060000X0.400000X0.100000X-0.400000X0.100000X-0.400000X-0.100000X0.400000X-0.100000X0*%
%ADD26RoundRect,0.172500X0.212500X0.262500X-0.212500X0.262500X-0.212500X-0.262500X0.212500X-0.262500X0*%
%ADD27RoundRect,0.187500X0.212500X0.487500X-0.212500X0.487500X-0.212500X-0.487500X0.212500X-0.487500X0*%
%ADD28RoundRect,0.112500X0.162500X-0.512500X0.162500X0.512500X-0.162500X0.512500X-0.162500X-0.512500X0*%
%ADD29RoundRect,0.125000X0.175000X0.300000X-0.175000X0.300000X-0.175000X-0.300000X0.175000X-0.300000X0*%
%ADD30RoundRect,0.125000X-0.175000X-0.300000X0.175000X-0.300000X0.175000X0.300000X-0.175000X0.300000X0*%
%ADD31RoundRect,0.187500X-0.212500X-0.487500X0.212500X-0.487500X0.212500X0.487500X-0.212500X0.487500X0*%
%ADD32RoundRect,0.205650X0.243750X0.456250X-0.243750X0.456250X-0.243750X-0.456250X0.243750X-0.456250X0*%
%ADD33RoundRect,0.125000X-0.300000X0.175000X-0.300000X-0.175000X0.300000X-0.175000X0.300000X0.175000X0*%
G04 APERTURE END LIST*
D10*
X75700000Y-108800000D03*
X75700000Y-107300000D03*
X95100000Y-108800000D03*
X95100000Y-107300000D03*
D11*
X81400000Y-118250000D03*
X82900000Y-118250000D03*
X88400000Y-118250000D03*
X89900000Y-118250000D03*
X81900000Y-98850000D03*
X83400000Y-98850000D03*
D12*
X95500000Y-110900000D03*
X95500000Y-112400000D03*
D11*
X88900000Y-98850000D03*
X90400000Y-98850000D03*
D10*
X51350000Y-107650000D03*
X51350000Y-106150000D03*
X51350000Y-102850000D03*
X51350000Y-101350000D03*
D11*
X53400000Y-99350000D03*
X54900000Y-99350000D03*
X63400000Y-123950000D03*
X64900000Y-123950000D03*
X63400000Y-99350000D03*
X64900000Y-99350000D03*
D12*
X66950000Y-110050000D03*
X66950000Y-111550000D03*
X66950000Y-105250000D03*
X66950000Y-106750000D03*
D10*
X51350000Y-111650000D03*
X51350000Y-110150000D03*
D11*
X53400000Y-123950000D03*
X54900000Y-123950000D03*
D13*
X92500000Y-128400000D03*
X93150000Y-128400000D03*
X93800000Y-128400000D03*
X94450000Y-128400000D03*
X95100000Y-128400000D03*
X95750000Y-128400000D03*
X96400000Y-128400000D03*
X97050000Y-128400000D03*
X97700000Y-128400000D03*
X98350000Y-128400000D03*
X98350000Y-122500000D03*
X97700000Y-122500000D03*
X97050000Y-122500000D03*
X96400000Y-122500000D03*
X95750000Y-122500000D03*
X95100000Y-122500000D03*
X94450000Y-122500000D03*
X93800000Y-122500000D03*
X93150000Y-122500000D03*
X92500000Y-122500000D03*
D12*
X91000000Y-122500000D03*
X91000000Y-124000000D03*
X81800000Y-122500000D03*
X81800000Y-124000000D03*
D13*
X101700000Y-128400000D03*
X102350000Y-128400000D03*
X103000000Y-128400000D03*
X103650000Y-128400000D03*
X104300000Y-128400000D03*
X104950000Y-128400000D03*
X105600000Y-128400000D03*
X106250000Y-128400000D03*
X106900000Y-128400000D03*
X107550000Y-128400000D03*
X107550000Y-122500000D03*
X106900000Y-122500000D03*
X106250000Y-122500000D03*
X105600000Y-122500000D03*
X104950000Y-122500000D03*
X104300000Y-122500000D03*
X103650000Y-122500000D03*
X103000000Y-122500000D03*
X102350000Y-122500000D03*
X101700000Y-122500000D03*
D12*
X72600000Y-122500000D03*
X72600000Y-124000000D03*
D13*
X83300000Y-128400000D03*
X83950000Y-128400000D03*
X84600000Y-128400000D03*
X85250000Y-128400000D03*
X85900000Y-128400000D03*
X86550000Y-128400000D03*
X87200000Y-128400000D03*
X87850000Y-128400000D03*
X88500000Y-128400000D03*
X89150000Y-128400000D03*
X89150000Y-122500000D03*
X88500000Y-122500000D03*
X87850000Y-122500000D03*
X87200000Y-122500000D03*
X86550000Y-122500000D03*
X85900000Y-122500000D03*
X85250000Y-122500000D03*
X84600000Y-122500000D03*
X83950000Y-122500000D03*
X83300000Y-122500000D03*
D14*
X59778000Y-128778000D03*
X58078000Y-128778000D03*
D15*
X109132000Y-127889000D03*
X110832000Y-127889000D03*
D16*
X108537000Y-113450000D03*
D17*
X102237000Y-111150000D03*
D16*
X108537000Y-111150000D03*
X108537000Y-108850000D03*
D15*
X108650000Y-105550000D03*
X110350000Y-105550000D03*
X106850000Y-116150000D03*
X108550000Y-116150000D03*
D18*
X95628249Y-101028249D03*
X96971751Y-102371751D03*
D19*
X99421751Y-104821751D03*
X98078249Y-103478249D03*
D20*
X69050000Y-122500000D03*
X69050000Y-123150000D03*
X69050000Y-123800000D03*
X70750000Y-123800000D03*
X70750000Y-122500000D03*
D13*
X74100000Y-128400000D03*
X74750000Y-128400000D03*
X75400000Y-128400000D03*
X76050000Y-128400000D03*
X76700000Y-128400000D03*
X77350000Y-128400000D03*
X78000000Y-128400000D03*
X78650000Y-128400000D03*
X79300000Y-128400000D03*
X79950000Y-128400000D03*
X79950000Y-122500000D03*
X79300000Y-122500000D03*
X78650000Y-122500000D03*
X78000000Y-122500000D03*
X77350000Y-122500000D03*
X76700000Y-122500000D03*
X76050000Y-122500000D03*
X75400000Y-122500000D03*
X74750000Y-122500000D03*
X74100000Y-122500000D03*
D21*
X77737500Y-102550000D03*
X77737500Y-103050000D03*
X77737500Y-103550000D03*
X77737500Y-104050000D03*
X77737500Y-104550000D03*
X77737500Y-105050000D03*
X77737500Y-105550000D03*
X77737500Y-106050000D03*
X77737500Y-106550000D03*
X77737500Y-107050000D03*
X77737500Y-107550000D03*
X77737500Y-108050000D03*
X77737500Y-108550000D03*
X77737500Y-109050000D03*
X77737500Y-109550000D03*
X77737500Y-110050000D03*
X77737500Y-110550000D03*
X77737500Y-111050000D03*
X77737500Y-111550000D03*
X77737500Y-112050000D03*
X77737500Y-112550000D03*
X77737500Y-113050000D03*
X77737500Y-113550000D03*
X77737500Y-114050000D03*
X77737500Y-114550000D03*
D22*
X79400000Y-116212500D03*
X79900000Y-116212500D03*
X80400000Y-116212500D03*
X80900000Y-116212500D03*
X81400000Y-116212500D03*
X81900000Y-116212500D03*
X82400000Y-116212500D03*
X82900000Y-116212500D03*
X83400000Y-116212500D03*
X83900000Y-116212500D03*
X84400000Y-116212500D03*
X84900000Y-116212500D03*
X85400000Y-116212500D03*
X85900000Y-116212500D03*
X86400000Y-116212500D03*
X86900000Y-116212500D03*
X87400000Y-116212500D03*
X87900000Y-116212500D03*
X88400000Y-116212500D03*
X88900000Y-116212500D03*
X89400000Y-116212500D03*
X89900000Y-116212500D03*
X90400000Y-116212500D03*
X90900000Y-116212500D03*
X91400000Y-116212500D03*
D21*
X93062500Y-114550000D03*
X93062500Y-114050000D03*
X93062500Y-113550000D03*
X93062500Y-113050000D03*
X93062500Y-112550000D03*
X93062500Y-112050000D03*
X93062500Y-111550000D03*
X93062500Y-111050000D03*
X93062500Y-110550000D03*
X93062500Y-110050000D03*
X93062500Y-109550000D03*
X93062500Y-109050000D03*
X93062500Y-108550000D03*
X93062500Y-108050000D03*
X93062500Y-107550000D03*
X93062500Y-107050000D03*
X93062500Y-106550000D03*
X93062500Y-106050000D03*
X93062500Y-105550000D03*
X93062500Y-105050000D03*
X93062500Y-104550000D03*
X93062500Y-104050000D03*
X93062500Y-103550000D03*
X93062500Y-103050000D03*
X93062500Y-102550000D03*
D22*
X91400000Y-100887500D03*
X90900000Y-100887500D03*
X90400000Y-100887500D03*
X89900000Y-100887500D03*
X89400000Y-100887500D03*
X88900000Y-100887500D03*
X88400000Y-100887500D03*
X87900000Y-100887500D03*
X87400000Y-100887500D03*
X86900000Y-100887500D03*
X86400000Y-100887500D03*
X85900000Y-100887500D03*
X85400000Y-100887500D03*
X84900000Y-100887500D03*
X84400000Y-100887500D03*
X83900000Y-100887500D03*
X83400000Y-100887500D03*
X82900000Y-100887500D03*
X82400000Y-100887500D03*
X81900000Y-100887500D03*
X81400000Y-100887500D03*
X80900000Y-100887500D03*
X80400000Y-100887500D03*
X79900000Y-100887500D03*
X79400000Y-100887500D03*
D23*
X53400000Y-101250000D03*
X53400000Y-102050000D03*
X53400000Y-102850000D03*
X53400000Y-103650000D03*
X53400000Y-104450000D03*
X53400000Y-105250000D03*
X53400000Y-106050000D03*
X53400000Y-106850000D03*
X53400000Y-107650000D03*
X53400000Y-108450000D03*
X53400000Y-109250000D03*
X53400000Y-110050000D03*
X53400000Y-110850000D03*
X53400000Y-111650000D03*
X53400000Y-112450000D03*
X53400000Y-113250000D03*
X53400000Y-114050000D03*
X53400000Y-114850000D03*
X53400000Y-115650000D03*
X53400000Y-116450000D03*
X53400000Y-117250000D03*
X53400000Y-118050000D03*
X53400000Y-118850000D03*
X53400000Y-119650000D03*
X53400000Y-120450000D03*
X53400000Y-121250000D03*
X53400000Y-122050000D03*
X64900000Y-122050000D03*
X64900000Y-121250000D03*
X64900000Y-120450000D03*
X64900000Y-119650000D03*
X64900000Y-118850000D03*
X64900000Y-118050000D03*
X64900000Y-117250000D03*
X64900000Y-116450000D03*
X64900000Y-115650000D03*
X64900000Y-114850000D03*
X64900000Y-114050000D03*
X64900000Y-113250000D03*
X64900000Y-112450000D03*
X64900000Y-111650000D03*
X64900000Y-110850000D03*
X64900000Y-110050000D03*
X64900000Y-109250000D03*
X64900000Y-108450000D03*
X64900000Y-107650000D03*
X64900000Y-106850000D03*
X64900000Y-106050000D03*
X64900000Y-105250000D03*
X64900000Y-104450000D03*
X64900000Y-103650000D03*
X64900000Y-102850000D03*
X64900000Y-102050000D03*
X64900000Y-101250000D03*
D24*
X69560000Y-117205000D03*
X74640000Y-117205000D03*
X74640000Y-113395000D03*
X69560000Y-113395000D03*
D25*
X72950000Y-111150000D03*
X72950000Y-110500000D03*
X72950000Y-109850000D03*
X71250000Y-109850000D03*
X71250000Y-111150000D03*
D10*
X69500000Y-111150000D03*
X69500000Y-109650000D03*
D15*
X58300000Y-124250000D03*
X60000000Y-124250000D03*
D26*
X70750000Y-121050000D03*
X69250000Y-121050000D03*
D12*
X100200000Y-122500000D03*
X100200000Y-124000000D03*
D10*
X109150000Y-121250000D03*
X109150000Y-119750000D03*
D27*
X100950000Y-120500000D03*
X99050000Y-120500000D03*
D28*
X109150000Y-125300000D03*
X110100000Y-125300000D03*
X111050000Y-125300000D03*
X111050000Y-123200000D03*
X109150000Y-123200000D03*
D29*
X71250000Y-107950000D03*
X69650000Y-107950000D03*
D30*
X72450000Y-107950000D03*
X74050000Y-107950000D03*
D31*
X70350000Y-104600000D03*
X72250000Y-104600000D03*
D32*
X72237500Y-102650000D03*
X70362500Y-102650000D03*
D33*
X96750000Y-115050000D03*
X96750000Y-116650000D03*
M02*
