G04 #@! TF.GenerationSoftware,KiCad,Pcbnew,7.0.10*
G04 #@! TF.CreationDate,2024-06-11T15:55:15-04:00*
G04 #@! TF.ProjectId,RAM2GS,52414d32-4753-42e6-9b69-6361645f7063,2.2*
G04 #@! TF.SameCoordinates,Original*
G04 #@! TF.FileFunction,Soldermask,Bot*
G04 #@! TF.FilePolarity,Negative*
%FSLAX46Y46*%
G04 Gerber Fmt 4.6, Leading zero omitted, Abs format (unit mm)*
G04 Created by KiCad (PCBNEW 7.0.10) date 2024-06-11 15:55:15*
%MOMM*%
%LPD*%
G01*
G04 APERTURE LIST*
G04 APERTURE END LIST*
G36*
X58123999Y-131543771D02*
G01*
X58135712Y-131547869D01*
X58146592Y-131549176D01*
X58202857Y-131571364D01*
X58252635Y-131588782D01*
X58259071Y-131593532D01*
X58262788Y-131594998D01*
X58325758Y-131642749D01*
X58362289Y-131669711D01*
X58389259Y-131706253D01*
X58437001Y-131769211D01*
X58438466Y-131772926D01*
X58443218Y-131779365D01*
X58460642Y-131829162D01*
X58482822Y-131885406D01*
X58484127Y-131896280D01*
X58488229Y-131908001D01*
X58496200Y-131993000D01*
X58496200Y-132042804D01*
X58533396Y-132080000D01*
X59322603Y-132080000D01*
X59359800Y-132042803D01*
X59359800Y-131996798D01*
X59359800Y-131993000D01*
X59367771Y-131908001D01*
X59371869Y-131896288D01*
X59373176Y-131885407D01*
X59395367Y-131829133D01*
X59412782Y-131779365D01*
X59417531Y-131772929D01*
X59418998Y-131769211D01*
X59466777Y-131706204D01*
X59493711Y-131669711D01*
X59530204Y-131642777D01*
X59593211Y-131594998D01*
X59596929Y-131593531D01*
X59603365Y-131588782D01*
X59653140Y-131571365D01*
X59709406Y-131549177D01*
X59720284Y-131547870D01*
X59732001Y-131543771D01*
X59817000Y-131535800D01*
X60579000Y-131535800D01*
X60663999Y-131543771D01*
X60675712Y-131547869D01*
X60686592Y-131549176D01*
X60742857Y-131571364D01*
X60792635Y-131588782D01*
X60799071Y-131593532D01*
X60802788Y-131594998D01*
X60865758Y-131642749D01*
X60902289Y-131669711D01*
X60929259Y-131706253D01*
X60977001Y-131769211D01*
X60978466Y-131772926D01*
X60983218Y-131779365D01*
X61000642Y-131829162D01*
X61022822Y-131885406D01*
X61024127Y-131896280D01*
X61028229Y-131908001D01*
X61036200Y-131993000D01*
X61036200Y-132042804D01*
X61073396Y-132080000D01*
X61862603Y-132080000D01*
X61899800Y-132042803D01*
X61899800Y-131996798D01*
X61899800Y-131993000D01*
X61907771Y-131908001D01*
X61911869Y-131896288D01*
X61913176Y-131885407D01*
X61935367Y-131829133D01*
X61952782Y-131779365D01*
X61957531Y-131772929D01*
X61958998Y-131769211D01*
X62006777Y-131706204D01*
X62033711Y-131669711D01*
X62070204Y-131642777D01*
X62133211Y-131594998D01*
X62136929Y-131593531D01*
X62143365Y-131588782D01*
X62193140Y-131571365D01*
X62249406Y-131549177D01*
X62260284Y-131547870D01*
X62272001Y-131543771D01*
X62357000Y-131535800D01*
X63119000Y-131535800D01*
X63203999Y-131543771D01*
X63215712Y-131547869D01*
X63226592Y-131549176D01*
X63282857Y-131571364D01*
X63332635Y-131588782D01*
X63339071Y-131593532D01*
X63342788Y-131594998D01*
X63405758Y-131642749D01*
X63442289Y-131669711D01*
X63469259Y-131706253D01*
X63517001Y-131769211D01*
X63518466Y-131772926D01*
X63523218Y-131779365D01*
X63540642Y-131829162D01*
X63562822Y-131885406D01*
X63564127Y-131896280D01*
X63568229Y-131908001D01*
X63576200Y-131993000D01*
X63576200Y-132042804D01*
X63613396Y-132080000D01*
X64402603Y-132080000D01*
X64439800Y-132042803D01*
X64439800Y-131996798D01*
X64439800Y-131993000D01*
X64447771Y-131908001D01*
X64451869Y-131896288D01*
X64453176Y-131885407D01*
X64475367Y-131829133D01*
X64492782Y-131779365D01*
X64497531Y-131772929D01*
X64498998Y-131769211D01*
X64546777Y-131706204D01*
X64573711Y-131669711D01*
X64610204Y-131642777D01*
X64673211Y-131594998D01*
X64676929Y-131593531D01*
X64683365Y-131588782D01*
X64733140Y-131571365D01*
X64789406Y-131549177D01*
X64800284Y-131547870D01*
X64812001Y-131543771D01*
X64897000Y-131535800D01*
X65659000Y-131535800D01*
X65743999Y-131543771D01*
X65755712Y-131547869D01*
X65766592Y-131549176D01*
X65822857Y-131571364D01*
X65872635Y-131588782D01*
X65879071Y-131593532D01*
X65882788Y-131594998D01*
X65945758Y-131642749D01*
X65982289Y-131669711D01*
X66009259Y-131706253D01*
X66057001Y-131769211D01*
X66058466Y-131772926D01*
X66063218Y-131779365D01*
X66080642Y-131829162D01*
X66102822Y-131885406D01*
X66104127Y-131896280D01*
X66108229Y-131908001D01*
X66116200Y-131993000D01*
X66116200Y-132042804D01*
X66153396Y-132080000D01*
X66942603Y-132080000D01*
X66979800Y-132042803D01*
X66979800Y-131996798D01*
X66979800Y-131993000D01*
X66987771Y-131908001D01*
X66991869Y-131896288D01*
X66993176Y-131885407D01*
X67015367Y-131829133D01*
X67032782Y-131779365D01*
X67037531Y-131772929D01*
X67038998Y-131769211D01*
X67086777Y-131706204D01*
X67113711Y-131669711D01*
X67150204Y-131642777D01*
X67213211Y-131594998D01*
X67216929Y-131593531D01*
X67223365Y-131588782D01*
X67273140Y-131571365D01*
X67329406Y-131549177D01*
X67340284Y-131547870D01*
X67352001Y-131543771D01*
X67437000Y-131535800D01*
X68199000Y-131535800D01*
X68283999Y-131543771D01*
X68295712Y-131547869D01*
X68306592Y-131549176D01*
X68362857Y-131571364D01*
X68412635Y-131588782D01*
X68419071Y-131593532D01*
X68422788Y-131594998D01*
X68485758Y-131642749D01*
X68522289Y-131669711D01*
X68549259Y-131706253D01*
X68597001Y-131769211D01*
X68598466Y-131772926D01*
X68603218Y-131779365D01*
X68620642Y-131829162D01*
X68642822Y-131885406D01*
X68644127Y-131896280D01*
X68648229Y-131908001D01*
X68656200Y-131993000D01*
X68656200Y-132042804D01*
X68693396Y-132080000D01*
X69482603Y-132080000D01*
X69519800Y-132042803D01*
X69519800Y-131996798D01*
X69519800Y-131993000D01*
X69527771Y-131908001D01*
X69531869Y-131896288D01*
X69533176Y-131885407D01*
X69555367Y-131829133D01*
X69572782Y-131779365D01*
X69577531Y-131772929D01*
X69578998Y-131769211D01*
X69626777Y-131706204D01*
X69653711Y-131669711D01*
X69690204Y-131642777D01*
X69753211Y-131594998D01*
X69756929Y-131593531D01*
X69763365Y-131588782D01*
X69813140Y-131571365D01*
X69869406Y-131549177D01*
X69880284Y-131547870D01*
X69892001Y-131543771D01*
X69977000Y-131535800D01*
X70739000Y-131535800D01*
X70823999Y-131543771D01*
X70835712Y-131547869D01*
X70846592Y-131549176D01*
X70902857Y-131571364D01*
X70952635Y-131588782D01*
X70959071Y-131593532D01*
X70962788Y-131594998D01*
X71025758Y-131642749D01*
X71062289Y-131669711D01*
X71089259Y-131706253D01*
X71137001Y-131769211D01*
X71138466Y-131772926D01*
X71143218Y-131779365D01*
X71160642Y-131829162D01*
X71182822Y-131885406D01*
X71184127Y-131896280D01*
X71188229Y-131908001D01*
X71196200Y-131993000D01*
X71196200Y-132042804D01*
X71233396Y-132080000D01*
X72022603Y-132080000D01*
X72059800Y-132042803D01*
X72059800Y-131996798D01*
X72059800Y-131993000D01*
X72067771Y-131908001D01*
X72071869Y-131896288D01*
X72073176Y-131885407D01*
X72095367Y-131829133D01*
X72112782Y-131779365D01*
X72117531Y-131772929D01*
X72118998Y-131769211D01*
X72166777Y-131706204D01*
X72193711Y-131669711D01*
X72230204Y-131642777D01*
X72293211Y-131594998D01*
X72296929Y-131593531D01*
X72303365Y-131588782D01*
X72353140Y-131571365D01*
X72409406Y-131549177D01*
X72420284Y-131547870D01*
X72432001Y-131543771D01*
X72517000Y-131535800D01*
X73279000Y-131535800D01*
X73363999Y-131543771D01*
X73375712Y-131547869D01*
X73386592Y-131549176D01*
X73442857Y-131571364D01*
X73492635Y-131588782D01*
X73499071Y-131593532D01*
X73502788Y-131594998D01*
X73565758Y-131642749D01*
X73602289Y-131669711D01*
X73629259Y-131706253D01*
X73677001Y-131769211D01*
X73678466Y-131772926D01*
X73683218Y-131779365D01*
X73700642Y-131829162D01*
X73722822Y-131885406D01*
X73724127Y-131896280D01*
X73728229Y-131908001D01*
X73736200Y-131993000D01*
X73736200Y-132042804D01*
X73773396Y-132080000D01*
X74562603Y-132080000D01*
X74599800Y-132042803D01*
X74599800Y-131996798D01*
X74599800Y-131993000D01*
X74607771Y-131908001D01*
X74611869Y-131896288D01*
X74613176Y-131885407D01*
X74635367Y-131829133D01*
X74652782Y-131779365D01*
X74657531Y-131772929D01*
X74658998Y-131769211D01*
X74706777Y-131706204D01*
X74733711Y-131669711D01*
X74770204Y-131642777D01*
X74833211Y-131594998D01*
X74836929Y-131593531D01*
X74843365Y-131588782D01*
X74893140Y-131571365D01*
X74949406Y-131549177D01*
X74960284Y-131547870D01*
X74972001Y-131543771D01*
X75057000Y-131535800D01*
X75819000Y-131535800D01*
X75903999Y-131543771D01*
X75915712Y-131547869D01*
X75926592Y-131549176D01*
X75982857Y-131571364D01*
X76032635Y-131588782D01*
X76039071Y-131593532D01*
X76042788Y-131594998D01*
X76105758Y-131642749D01*
X76142289Y-131669711D01*
X76169259Y-131706253D01*
X76217001Y-131769211D01*
X76218466Y-131772926D01*
X76223218Y-131779365D01*
X76240642Y-131829162D01*
X76262822Y-131885406D01*
X76264127Y-131896280D01*
X76268229Y-131908001D01*
X76276200Y-131993000D01*
X76276200Y-132042804D01*
X76313396Y-132080000D01*
X77102603Y-132080000D01*
X77139800Y-132042803D01*
X77139800Y-131996798D01*
X77139800Y-131993000D01*
X77147771Y-131908001D01*
X77151869Y-131896288D01*
X77153176Y-131885407D01*
X77175367Y-131829133D01*
X77192782Y-131779365D01*
X77197531Y-131772929D01*
X77198998Y-131769211D01*
X77246777Y-131706204D01*
X77273711Y-131669711D01*
X77310204Y-131642777D01*
X77373211Y-131594998D01*
X77376929Y-131593531D01*
X77383365Y-131588782D01*
X77433140Y-131571365D01*
X77489406Y-131549177D01*
X77500284Y-131547870D01*
X77512001Y-131543771D01*
X77597000Y-131535800D01*
X78359000Y-131535800D01*
X78443999Y-131543771D01*
X78455712Y-131547869D01*
X78466592Y-131549176D01*
X78522857Y-131571364D01*
X78572635Y-131588782D01*
X78579071Y-131593532D01*
X78582788Y-131594998D01*
X78645758Y-131642749D01*
X78682289Y-131669711D01*
X78709259Y-131706253D01*
X78757001Y-131769211D01*
X78758466Y-131772926D01*
X78763218Y-131779365D01*
X78780642Y-131829162D01*
X78802822Y-131885406D01*
X78804127Y-131896280D01*
X78808229Y-131908001D01*
X78816200Y-131993000D01*
X78816200Y-132042804D01*
X78853396Y-132080000D01*
X79642603Y-132080000D01*
X79679800Y-132042803D01*
X79679800Y-131996798D01*
X79679800Y-131993000D01*
X79687771Y-131908001D01*
X79691869Y-131896288D01*
X79693176Y-131885407D01*
X79715367Y-131829133D01*
X79732782Y-131779365D01*
X79737531Y-131772929D01*
X79738998Y-131769211D01*
X79786777Y-131706204D01*
X79813711Y-131669711D01*
X79850204Y-131642777D01*
X79913211Y-131594998D01*
X79916929Y-131593531D01*
X79923365Y-131588782D01*
X79973140Y-131571365D01*
X80029406Y-131549177D01*
X80040284Y-131547870D01*
X80052001Y-131543771D01*
X80137000Y-131535800D01*
X80899000Y-131535800D01*
X80983999Y-131543771D01*
X80995712Y-131547869D01*
X81006592Y-131549176D01*
X81062857Y-131571364D01*
X81112635Y-131588782D01*
X81119071Y-131593532D01*
X81122788Y-131594998D01*
X81185758Y-131642749D01*
X81222289Y-131669711D01*
X81249259Y-131706253D01*
X81297001Y-131769211D01*
X81298466Y-131772926D01*
X81303218Y-131779365D01*
X81320642Y-131829162D01*
X81342822Y-131885406D01*
X81344127Y-131896280D01*
X81348229Y-131908001D01*
X81356200Y-131993000D01*
X81356200Y-132042804D01*
X81393396Y-132080000D01*
X82182603Y-132080000D01*
X82219800Y-132042803D01*
X82219800Y-131996798D01*
X82219800Y-131993000D01*
X82227771Y-131908001D01*
X82231869Y-131896288D01*
X82233176Y-131885407D01*
X82255367Y-131829133D01*
X82272782Y-131779365D01*
X82277531Y-131772929D01*
X82278998Y-131769211D01*
X82326777Y-131706204D01*
X82353711Y-131669711D01*
X82390204Y-131642777D01*
X82453211Y-131594998D01*
X82456929Y-131593531D01*
X82463365Y-131588782D01*
X82513140Y-131571365D01*
X82569406Y-131549177D01*
X82580284Y-131547870D01*
X82592001Y-131543771D01*
X82677000Y-131535800D01*
X83439000Y-131535800D01*
X83523999Y-131543771D01*
X83535712Y-131547869D01*
X83546592Y-131549176D01*
X83602857Y-131571364D01*
X83652635Y-131588782D01*
X83659071Y-131593532D01*
X83662788Y-131594998D01*
X83725758Y-131642749D01*
X83762289Y-131669711D01*
X83789259Y-131706253D01*
X83837001Y-131769211D01*
X83838466Y-131772926D01*
X83843218Y-131779365D01*
X83860642Y-131829162D01*
X83882822Y-131885406D01*
X83884127Y-131896280D01*
X83888229Y-131908001D01*
X83896200Y-131993000D01*
X83896200Y-132042804D01*
X83933396Y-132080000D01*
X84722603Y-132080000D01*
X84759800Y-132042803D01*
X84759800Y-131996798D01*
X84759800Y-131993000D01*
X84767771Y-131908001D01*
X84771869Y-131896288D01*
X84773176Y-131885407D01*
X84795367Y-131829133D01*
X84812782Y-131779365D01*
X84817531Y-131772929D01*
X84818998Y-131769211D01*
X84866777Y-131706204D01*
X84893711Y-131669711D01*
X84930204Y-131642777D01*
X84993211Y-131594998D01*
X84996929Y-131593531D01*
X85003365Y-131588782D01*
X85053140Y-131571365D01*
X85109406Y-131549177D01*
X85120284Y-131547870D01*
X85132001Y-131543771D01*
X85217000Y-131535800D01*
X85979000Y-131535800D01*
X86063999Y-131543771D01*
X86075712Y-131547869D01*
X86086592Y-131549176D01*
X86142857Y-131571364D01*
X86192635Y-131588782D01*
X86199071Y-131593532D01*
X86202788Y-131594998D01*
X86265758Y-131642749D01*
X86302289Y-131669711D01*
X86329259Y-131706253D01*
X86377001Y-131769211D01*
X86378466Y-131772926D01*
X86383218Y-131779365D01*
X86400642Y-131829162D01*
X86422822Y-131885406D01*
X86424127Y-131896280D01*
X86428229Y-131908001D01*
X86436200Y-131993000D01*
X86436200Y-132042804D01*
X86473396Y-132080000D01*
X87262603Y-132080000D01*
X87299800Y-132042803D01*
X87299800Y-131996798D01*
X87299800Y-131993000D01*
X87307771Y-131908001D01*
X87311869Y-131896288D01*
X87313176Y-131885407D01*
X87335367Y-131829133D01*
X87352782Y-131779365D01*
X87357531Y-131772929D01*
X87358998Y-131769211D01*
X87406777Y-131706204D01*
X87433711Y-131669711D01*
X87470204Y-131642777D01*
X87533211Y-131594998D01*
X87536929Y-131593531D01*
X87543365Y-131588782D01*
X87593140Y-131571365D01*
X87649406Y-131549177D01*
X87660284Y-131547870D01*
X87672001Y-131543771D01*
X87757000Y-131535800D01*
X88519000Y-131535800D01*
X88603999Y-131543771D01*
X88615712Y-131547869D01*
X88626592Y-131549176D01*
X88682857Y-131571364D01*
X88732635Y-131588782D01*
X88739071Y-131593532D01*
X88742788Y-131594998D01*
X88805758Y-131642749D01*
X88842289Y-131669711D01*
X88869259Y-131706253D01*
X88917001Y-131769211D01*
X88918466Y-131772926D01*
X88923218Y-131779365D01*
X88940642Y-131829162D01*
X88962822Y-131885406D01*
X88964127Y-131896280D01*
X88968229Y-131908001D01*
X88976200Y-131993000D01*
X88976200Y-132042804D01*
X89013396Y-132080000D01*
X89802603Y-132080000D01*
X89839800Y-132042803D01*
X89839800Y-131996798D01*
X89839800Y-131993000D01*
X89847771Y-131908001D01*
X89851869Y-131896288D01*
X89853176Y-131885407D01*
X89875367Y-131829133D01*
X89892782Y-131779365D01*
X89897531Y-131772929D01*
X89898998Y-131769211D01*
X89946777Y-131706204D01*
X89973711Y-131669711D01*
X90010204Y-131642777D01*
X90073211Y-131594998D01*
X90076929Y-131593531D01*
X90083365Y-131588782D01*
X90133140Y-131571365D01*
X90189406Y-131549177D01*
X90200284Y-131547870D01*
X90212001Y-131543771D01*
X90297000Y-131535800D01*
X91059000Y-131535800D01*
X91143999Y-131543771D01*
X91155712Y-131547869D01*
X91166592Y-131549176D01*
X91222857Y-131571364D01*
X91272635Y-131588782D01*
X91279071Y-131593532D01*
X91282788Y-131594998D01*
X91345758Y-131642749D01*
X91382289Y-131669711D01*
X91409259Y-131706253D01*
X91457001Y-131769211D01*
X91458466Y-131772926D01*
X91463218Y-131779365D01*
X91480642Y-131829162D01*
X91502822Y-131885406D01*
X91504127Y-131896280D01*
X91508229Y-131908001D01*
X91516200Y-131993000D01*
X91516200Y-132042804D01*
X91553396Y-132080000D01*
X92342603Y-132080000D01*
X92379800Y-132042803D01*
X92379800Y-131996798D01*
X92379800Y-131993000D01*
X92387771Y-131908001D01*
X92391869Y-131896288D01*
X92393176Y-131885407D01*
X92415367Y-131829133D01*
X92432782Y-131779365D01*
X92437531Y-131772929D01*
X92438998Y-131769211D01*
X92486777Y-131706204D01*
X92513711Y-131669711D01*
X92550204Y-131642777D01*
X92613211Y-131594998D01*
X92616929Y-131593531D01*
X92623365Y-131588782D01*
X92673140Y-131571365D01*
X92729406Y-131549177D01*
X92740284Y-131547870D01*
X92752001Y-131543771D01*
X92837000Y-131535800D01*
X93599000Y-131535800D01*
X93683999Y-131543771D01*
X93695712Y-131547869D01*
X93706592Y-131549176D01*
X93762857Y-131571364D01*
X93812635Y-131588782D01*
X93819071Y-131593532D01*
X93822788Y-131594998D01*
X93885758Y-131642749D01*
X93922289Y-131669711D01*
X93949259Y-131706253D01*
X93997001Y-131769211D01*
X93998466Y-131772926D01*
X94003218Y-131779365D01*
X94020642Y-131829162D01*
X94042822Y-131885406D01*
X94044127Y-131896280D01*
X94048229Y-131908001D01*
X94056200Y-131993000D01*
X94056200Y-132042804D01*
X94093396Y-132080000D01*
X94882603Y-132080000D01*
X94919800Y-132042803D01*
X94919800Y-131996798D01*
X94919800Y-131993000D01*
X94927771Y-131908001D01*
X94931869Y-131896288D01*
X94933176Y-131885407D01*
X94955367Y-131829133D01*
X94972782Y-131779365D01*
X94977531Y-131772929D01*
X94978998Y-131769211D01*
X95026777Y-131706204D01*
X95053711Y-131669711D01*
X95090204Y-131642777D01*
X95153211Y-131594998D01*
X95156929Y-131593531D01*
X95163365Y-131588782D01*
X95213140Y-131571365D01*
X95269406Y-131549177D01*
X95280284Y-131547870D01*
X95292001Y-131543771D01*
X95377000Y-131535800D01*
X96139000Y-131535800D01*
X96223999Y-131543771D01*
X96235712Y-131547869D01*
X96246592Y-131549176D01*
X96302857Y-131571364D01*
X96352635Y-131588782D01*
X96359071Y-131593532D01*
X96362788Y-131594998D01*
X96425758Y-131642749D01*
X96462289Y-131669711D01*
X96489259Y-131706253D01*
X96537001Y-131769211D01*
X96538466Y-131772926D01*
X96543218Y-131779365D01*
X96560642Y-131829162D01*
X96582822Y-131885406D01*
X96584127Y-131896280D01*
X96588229Y-131908001D01*
X96596200Y-131993000D01*
X96596200Y-132042804D01*
X96633396Y-132080000D01*
X97422603Y-132080000D01*
X97459800Y-132042803D01*
X97459800Y-131996798D01*
X97459800Y-131993000D01*
X97467771Y-131908001D01*
X97471869Y-131896288D01*
X97473176Y-131885407D01*
X97495367Y-131829133D01*
X97512782Y-131779365D01*
X97517531Y-131772929D01*
X97518998Y-131769211D01*
X97566777Y-131706204D01*
X97593711Y-131669711D01*
X97630204Y-131642777D01*
X97693211Y-131594998D01*
X97696929Y-131593531D01*
X97703365Y-131588782D01*
X97753140Y-131571365D01*
X97809406Y-131549177D01*
X97820284Y-131547870D01*
X97832001Y-131543771D01*
X97917000Y-131535800D01*
X98679000Y-131535800D01*
X98763999Y-131543771D01*
X98775712Y-131547869D01*
X98786592Y-131549176D01*
X98842857Y-131571364D01*
X98892635Y-131588782D01*
X98899071Y-131593532D01*
X98902788Y-131594998D01*
X98965758Y-131642749D01*
X99002289Y-131669711D01*
X99029259Y-131706253D01*
X99077001Y-131769211D01*
X99078466Y-131772926D01*
X99083218Y-131779365D01*
X99100642Y-131829162D01*
X99122822Y-131885406D01*
X99124127Y-131896280D01*
X99128229Y-131908001D01*
X99136200Y-131993000D01*
X99136200Y-132042804D01*
X99173396Y-132080000D01*
X99962603Y-132080000D01*
X99999800Y-132042803D01*
X99999800Y-131996798D01*
X99999800Y-131993000D01*
X100007771Y-131908001D01*
X100011869Y-131896288D01*
X100013176Y-131885407D01*
X100035367Y-131829133D01*
X100052782Y-131779365D01*
X100057531Y-131772929D01*
X100058998Y-131769211D01*
X100106777Y-131706204D01*
X100133711Y-131669711D01*
X100170204Y-131642777D01*
X100233211Y-131594998D01*
X100236929Y-131593531D01*
X100243365Y-131588782D01*
X100293140Y-131571365D01*
X100349406Y-131549177D01*
X100360284Y-131547870D01*
X100372001Y-131543771D01*
X100457000Y-131535800D01*
X101219000Y-131535800D01*
X101303999Y-131543771D01*
X101315712Y-131547869D01*
X101326592Y-131549176D01*
X101382857Y-131571364D01*
X101432635Y-131588782D01*
X101439071Y-131593532D01*
X101442788Y-131594998D01*
X101505758Y-131642749D01*
X101542289Y-131669711D01*
X101569259Y-131706253D01*
X101617001Y-131769211D01*
X101618466Y-131772926D01*
X101623218Y-131779365D01*
X101640642Y-131829162D01*
X101662822Y-131885406D01*
X101664127Y-131896280D01*
X101668229Y-131908001D01*
X101676200Y-131993000D01*
X101676200Y-132042804D01*
X101713396Y-132080000D01*
X102502603Y-132080000D01*
X102539800Y-132042803D01*
X102539800Y-131996798D01*
X102539800Y-131993000D01*
X102547771Y-131908001D01*
X102551869Y-131896288D01*
X102553176Y-131885407D01*
X102575367Y-131829133D01*
X102592782Y-131779365D01*
X102597531Y-131772929D01*
X102598998Y-131769211D01*
X102646777Y-131706204D01*
X102673711Y-131669711D01*
X102710204Y-131642777D01*
X102773211Y-131594998D01*
X102776929Y-131593531D01*
X102783365Y-131588782D01*
X102833140Y-131571365D01*
X102889406Y-131549177D01*
X102900284Y-131547870D01*
X102912001Y-131543771D01*
X102997000Y-131535800D01*
X103759000Y-131535800D01*
X103843999Y-131543771D01*
X103855712Y-131547869D01*
X103866592Y-131549176D01*
X103922857Y-131571364D01*
X103972635Y-131588782D01*
X103979071Y-131593532D01*
X103982788Y-131594998D01*
X104045758Y-131642749D01*
X104082289Y-131669711D01*
X104109259Y-131706253D01*
X104157001Y-131769211D01*
X104158466Y-131772926D01*
X104163218Y-131779365D01*
X104180642Y-131829162D01*
X104202822Y-131885406D01*
X104204127Y-131896280D01*
X104208229Y-131908001D01*
X104216200Y-131993000D01*
X104216200Y-132042804D01*
X104253396Y-132080000D01*
X105042603Y-132080000D01*
X105079800Y-132042803D01*
X105079800Y-131996798D01*
X105079800Y-131993000D01*
X105087771Y-131908001D01*
X105091869Y-131896288D01*
X105093176Y-131885407D01*
X105115367Y-131829133D01*
X105132782Y-131779365D01*
X105137531Y-131772929D01*
X105138998Y-131769211D01*
X105186777Y-131706204D01*
X105213711Y-131669711D01*
X105250204Y-131642777D01*
X105313211Y-131594998D01*
X105316929Y-131593531D01*
X105323365Y-131588782D01*
X105373140Y-131571365D01*
X105429406Y-131549177D01*
X105440284Y-131547870D01*
X105452001Y-131543771D01*
X105537000Y-131535800D01*
X106299000Y-131535800D01*
X106383999Y-131543771D01*
X106395712Y-131547869D01*
X106406592Y-131549176D01*
X106462857Y-131571364D01*
X106512635Y-131588782D01*
X106519071Y-131593532D01*
X106522788Y-131594998D01*
X106585758Y-131642749D01*
X106622289Y-131669711D01*
X106649259Y-131706253D01*
X106697001Y-131769211D01*
X106698466Y-131772926D01*
X106703218Y-131779365D01*
X106720642Y-131829162D01*
X106742822Y-131885406D01*
X106744127Y-131896280D01*
X106748229Y-131908001D01*
X106756200Y-131993000D01*
X106756200Y-132042804D01*
X106793396Y-132080000D01*
X107582603Y-132080000D01*
X107619800Y-132042803D01*
X107619800Y-131996798D01*
X107619800Y-131993000D01*
X107627771Y-131908001D01*
X107631869Y-131896288D01*
X107633176Y-131885407D01*
X107655367Y-131829133D01*
X107672782Y-131779365D01*
X107677531Y-131772929D01*
X107678998Y-131769211D01*
X107726777Y-131706204D01*
X107753711Y-131669711D01*
X107790204Y-131642777D01*
X107853211Y-131594998D01*
X107856929Y-131593531D01*
X107863365Y-131588782D01*
X107913140Y-131571365D01*
X107969406Y-131549177D01*
X107980284Y-131547870D01*
X107992001Y-131543771D01*
X108077000Y-131535800D01*
X108839000Y-131535800D01*
X108923999Y-131543771D01*
X108935712Y-131547869D01*
X108946592Y-131549176D01*
X109002857Y-131571364D01*
X109052635Y-131588782D01*
X109059071Y-131593532D01*
X109062788Y-131594998D01*
X109125758Y-131642749D01*
X109162289Y-131669711D01*
X109189259Y-131706253D01*
X109237001Y-131769211D01*
X109238466Y-131772926D01*
X109243218Y-131779365D01*
X109260642Y-131829162D01*
X109282822Y-131885406D01*
X109284127Y-131896280D01*
X109288229Y-131908001D01*
X109296200Y-131993000D01*
X109296200Y-132042804D01*
X109333396Y-132080000D01*
X110122603Y-132080000D01*
X110159800Y-132042803D01*
X110159800Y-131996798D01*
X110159800Y-131993000D01*
X110167771Y-131908001D01*
X110171869Y-131896288D01*
X110173176Y-131885407D01*
X110195367Y-131829133D01*
X110212782Y-131779365D01*
X110217531Y-131772929D01*
X110218998Y-131769211D01*
X110266777Y-131706204D01*
X110293711Y-131669711D01*
X110330204Y-131642777D01*
X110393211Y-131594998D01*
X110396929Y-131593531D01*
X110403365Y-131588782D01*
X110453140Y-131571365D01*
X110509406Y-131549177D01*
X110520284Y-131547870D01*
X110532001Y-131543771D01*
X110617000Y-131535800D01*
X111379000Y-131535800D01*
X111463999Y-131543771D01*
X111475712Y-131547869D01*
X111486592Y-131549176D01*
X111542857Y-131571364D01*
X111592635Y-131588782D01*
X111599071Y-131593532D01*
X111602788Y-131594998D01*
X111665758Y-131642749D01*
X111702289Y-131669711D01*
X111729259Y-131706253D01*
X111777001Y-131769211D01*
X111778466Y-131772926D01*
X111783218Y-131779365D01*
X111800642Y-131829162D01*
X111822822Y-131885406D01*
X111824127Y-131896280D01*
X111828229Y-131908001D01*
X111836200Y-131993000D01*
X111836200Y-132042804D01*
X111873396Y-132080000D01*
X113538000Y-132080000D01*
X113538000Y-139446000D01*
X113030000Y-139954000D01*
X113017372Y-139954000D01*
X55638631Y-139954000D01*
X55626000Y-139954000D01*
X55118000Y-139446000D01*
X55118000Y-132080000D01*
X56782603Y-132080000D01*
X56819800Y-132042803D01*
X56819800Y-131996798D01*
X56819800Y-131993000D01*
X56827771Y-131908001D01*
X56831869Y-131896288D01*
X56833176Y-131885407D01*
X56855367Y-131829133D01*
X56872782Y-131779365D01*
X56877531Y-131772929D01*
X56878998Y-131769211D01*
X56926777Y-131706204D01*
X56953711Y-131669711D01*
X56990204Y-131642777D01*
X57053211Y-131594998D01*
X57056929Y-131593531D01*
X57063365Y-131588782D01*
X57113140Y-131571365D01*
X57169406Y-131549177D01*
X57180284Y-131547870D01*
X57192001Y-131543771D01*
X57277000Y-131535800D01*
X58039000Y-131535800D01*
X58123999Y-131543771D01*
G37*
G36*
X111292516Y-129139883D02*
G01*
X111477704Y-129211625D01*
X111646555Y-129316174D01*
X111793321Y-129449969D01*
X111913004Y-129608454D01*
X112001527Y-129786232D01*
X112055876Y-129977249D01*
X112074200Y-130175000D01*
X112055876Y-130372751D01*
X112001527Y-130563768D01*
X111913004Y-130741546D01*
X111793321Y-130900031D01*
X111646555Y-131033826D01*
X111477704Y-131138375D01*
X111292516Y-131210117D01*
X111097299Y-131246609D01*
X110898701Y-131246609D01*
X110703484Y-131210117D01*
X110518296Y-131138375D01*
X110349445Y-131033826D01*
X110202679Y-130900031D01*
X110082996Y-130741546D01*
X109994473Y-130563768D01*
X109940124Y-130372751D01*
X109921800Y-130175000D01*
X109940124Y-129977249D01*
X109994473Y-129786232D01*
X110082996Y-129608454D01*
X110202679Y-129449969D01*
X110349445Y-129316174D01*
X110518296Y-129211625D01*
X110703484Y-129139883D01*
X110898701Y-129103391D01*
X111097299Y-129103391D01*
X111292516Y-129139883D01*
G37*
G36*
X48675105Y-128834152D02*
G01*
X48828132Y-128887699D01*
X48965407Y-128973954D01*
X49080046Y-129088593D01*
X49166301Y-129225868D01*
X49219848Y-129378895D01*
X49238000Y-129540000D01*
X49219848Y-129701105D01*
X49166301Y-129854132D01*
X49080046Y-129991407D01*
X48965407Y-130106046D01*
X48828132Y-130192301D01*
X48675105Y-130245848D01*
X48514000Y-130264000D01*
X48352895Y-130245848D01*
X48199868Y-130192301D01*
X48062593Y-130106046D01*
X47947954Y-129991407D01*
X47861699Y-129854132D01*
X47808152Y-129701105D01*
X47790000Y-129540000D01*
X47808152Y-129378895D01*
X47861699Y-129225868D01*
X47947954Y-129088593D01*
X48062593Y-128973954D01*
X48199868Y-128887699D01*
X48352895Y-128834152D01*
X48514000Y-128816000D01*
X48675105Y-128834152D01*
G37*
G36*
X111667105Y-114483152D02*
G01*
X111820132Y-114536699D01*
X111957407Y-114622954D01*
X112072046Y-114737593D01*
X112158301Y-114874868D01*
X112211848Y-115027895D01*
X112230000Y-115189000D01*
X112211848Y-115350105D01*
X112158301Y-115503132D01*
X112072046Y-115640407D01*
X111957407Y-115755046D01*
X111820132Y-115841301D01*
X111667105Y-115894848D01*
X111506000Y-115913000D01*
X111344895Y-115894848D01*
X111191868Y-115841301D01*
X111054593Y-115755046D01*
X110939954Y-115640407D01*
X110853699Y-115503132D01*
X110800152Y-115350105D01*
X110782000Y-115189000D01*
X110800152Y-115027895D01*
X110853699Y-114874868D01*
X110939954Y-114737593D01*
X111054593Y-114622954D01*
X111191868Y-114536699D01*
X111344895Y-114483152D01*
X111506000Y-114465000D01*
X111667105Y-114483152D01*
G37*
G36*
X103244418Y-103313638D02*
G01*
X103457181Y-103370647D01*
X103656812Y-103463737D01*
X103837246Y-103590078D01*
X103992999Y-103745831D01*
X104119340Y-103926265D01*
X104212430Y-104125896D01*
X104269439Y-104338659D01*
X104288637Y-104558090D01*
X104269439Y-104777521D01*
X104212430Y-104990284D01*
X104119340Y-105189915D01*
X103992999Y-105370349D01*
X103837246Y-105526102D01*
X103656812Y-105652443D01*
X103457181Y-105745533D01*
X103244418Y-105802542D01*
X103024987Y-105821740D01*
X102805556Y-105802542D01*
X102592793Y-105745533D01*
X102393162Y-105652443D01*
X102212728Y-105526102D01*
X102056975Y-105370349D01*
X101930634Y-105189915D01*
X101837544Y-104990284D01*
X101780535Y-104777521D01*
X101761337Y-104558090D01*
X101780535Y-104338659D01*
X101837544Y-104125896D01*
X101930634Y-103926265D01*
X102056975Y-103745831D01*
X102212728Y-103590078D01*
X102393162Y-103463737D01*
X102592793Y-103370647D01*
X102805556Y-103313638D01*
X103024987Y-103294440D01*
X103244418Y-103313638D01*
G37*
G36*
X105484825Y-104260627D02*
G01*
X105518486Y-104260627D01*
X105557079Y-104270139D01*
X105597571Y-104275470D01*
X105625289Y-104286951D01*
X105652147Y-104293571D01*
X105692869Y-104314943D01*
X105735406Y-104332563D01*
X105754812Y-104347454D01*
X105774039Y-104357545D01*
X105813346Y-104392368D01*
X105853768Y-104423385D01*
X105865256Y-104438357D01*
X105877080Y-104448832D01*
X105910987Y-104497955D01*
X105944590Y-104541747D01*
X105949654Y-104553973D01*
X105955281Y-104562125D01*
X105979686Y-104626476D01*
X106001683Y-104679582D01*
X106002670Y-104687081D01*
X106004096Y-104690841D01*
X106015145Y-104781839D01*
X106021156Y-104827497D01*
X106015144Y-104873158D01*
X106004096Y-104964152D01*
X106002670Y-104967910D01*
X106001683Y-104975412D01*
X105979681Y-105028528D01*
X105955281Y-105092868D01*
X105949655Y-105101018D01*
X105944590Y-105113247D01*
X105910980Y-105157047D01*
X105877080Y-105206161D01*
X105865259Y-105216633D01*
X105853768Y-105231609D01*
X105813337Y-105262632D01*
X105774039Y-105297448D01*
X105754816Y-105307536D01*
X105735406Y-105322431D01*
X105692860Y-105340053D01*
X105652147Y-105361422D01*
X105625294Y-105368040D01*
X105597571Y-105379524D01*
X105557076Y-105384855D01*
X105518486Y-105394367D01*
X105484825Y-105394367D01*
X105449656Y-105398997D01*
X105414487Y-105394367D01*
X105380826Y-105394367D01*
X105342234Y-105384854D01*
X105301741Y-105379524D01*
X105274019Y-105368041D01*
X105247164Y-105361422D01*
X105206446Y-105340052D01*
X105163906Y-105322431D01*
X105144497Y-105307538D01*
X105125272Y-105297448D01*
X105085966Y-105262626D01*
X105045544Y-105231609D01*
X105034055Y-105216636D01*
X105022231Y-105206161D01*
X104988321Y-105157034D01*
X104954722Y-105113247D01*
X104949658Y-105101021D01*
X104944030Y-105092868D01*
X104919618Y-105028499D01*
X104897629Y-104975412D01*
X104896641Y-104967914D01*
X104895215Y-104964152D01*
X104884154Y-104873060D01*
X104878156Y-104827497D01*
X104884153Y-104781936D01*
X104895215Y-104690841D01*
X104896642Y-104687077D01*
X104897629Y-104679582D01*
X104919614Y-104626505D01*
X104944030Y-104562125D01*
X104949659Y-104553969D01*
X104954722Y-104541747D01*
X104988314Y-104497968D01*
X105022231Y-104448832D01*
X105034057Y-104438354D01*
X105045544Y-104423385D01*
X105085958Y-104392374D01*
X105125272Y-104357545D01*
X105144501Y-104347452D01*
X105163906Y-104332563D01*
X105206437Y-104314945D01*
X105247164Y-104293571D01*
X105274023Y-104286950D01*
X105301741Y-104275470D01*
X105342231Y-104270139D01*
X105380826Y-104260627D01*
X105414487Y-104260627D01*
X105449656Y-104255997D01*
X105484825Y-104260627D01*
G37*
G36*
X106921666Y-102823786D02*
G01*
X106955327Y-102823786D01*
X106993920Y-102833298D01*
X107034412Y-102838629D01*
X107062130Y-102850110D01*
X107088988Y-102856730D01*
X107129710Y-102878102D01*
X107172247Y-102895722D01*
X107191653Y-102910613D01*
X107210880Y-102920704D01*
X107250187Y-102955527D01*
X107290609Y-102986544D01*
X107302097Y-103001516D01*
X107313921Y-103011991D01*
X107347828Y-103061114D01*
X107381431Y-103104906D01*
X107386495Y-103117132D01*
X107392122Y-103125284D01*
X107416527Y-103189635D01*
X107438524Y-103242741D01*
X107439511Y-103250240D01*
X107440937Y-103254000D01*
X107451986Y-103344998D01*
X107457997Y-103390656D01*
X107451985Y-103436317D01*
X107440937Y-103527311D01*
X107439511Y-103531069D01*
X107438524Y-103538571D01*
X107416522Y-103591687D01*
X107392122Y-103656027D01*
X107386496Y-103664177D01*
X107381431Y-103676406D01*
X107347821Y-103720206D01*
X107313921Y-103769320D01*
X107302100Y-103779792D01*
X107290609Y-103794768D01*
X107250178Y-103825791D01*
X107210880Y-103860607D01*
X107191657Y-103870695D01*
X107172247Y-103885590D01*
X107129701Y-103903212D01*
X107088988Y-103924581D01*
X107062135Y-103931199D01*
X107034412Y-103942683D01*
X106993917Y-103948014D01*
X106955327Y-103957526D01*
X106921666Y-103957526D01*
X106886497Y-103962156D01*
X106851328Y-103957526D01*
X106817667Y-103957526D01*
X106779075Y-103948013D01*
X106738582Y-103942683D01*
X106710860Y-103931200D01*
X106684005Y-103924581D01*
X106643287Y-103903211D01*
X106600747Y-103885590D01*
X106581338Y-103870697D01*
X106562113Y-103860607D01*
X106522807Y-103825785D01*
X106482385Y-103794768D01*
X106470896Y-103779795D01*
X106459072Y-103769320D01*
X106425162Y-103720193D01*
X106391563Y-103676406D01*
X106386499Y-103664180D01*
X106380871Y-103656027D01*
X106356459Y-103591658D01*
X106334470Y-103538571D01*
X106333482Y-103531073D01*
X106332056Y-103527311D01*
X106320995Y-103436219D01*
X106314997Y-103390656D01*
X106320994Y-103345095D01*
X106332056Y-103254000D01*
X106333483Y-103250236D01*
X106334470Y-103242741D01*
X106356455Y-103189664D01*
X106380871Y-103125284D01*
X106386500Y-103117128D01*
X106391563Y-103104906D01*
X106425155Y-103061127D01*
X106459072Y-103011991D01*
X106470898Y-103001513D01*
X106482385Y-102986544D01*
X106522799Y-102955533D01*
X106562113Y-102920704D01*
X106581342Y-102910611D01*
X106600747Y-102895722D01*
X106643278Y-102878104D01*
X106684005Y-102856730D01*
X106710864Y-102850109D01*
X106738582Y-102838629D01*
X106779072Y-102833298D01*
X106817667Y-102823786D01*
X106851328Y-102823786D01*
X106886497Y-102819156D01*
X106921666Y-102823786D01*
G37*
G36*
X106836521Y-99721535D02*
G01*
X107049284Y-99778544D01*
X107248915Y-99871634D01*
X107429349Y-99997975D01*
X107585102Y-100153728D01*
X107711443Y-100334162D01*
X107804533Y-100533793D01*
X107861542Y-100746556D01*
X107880740Y-100965987D01*
X107861542Y-101185418D01*
X107804533Y-101398181D01*
X107711443Y-101597812D01*
X107585102Y-101778246D01*
X107429349Y-101933999D01*
X107248915Y-102060340D01*
X107049284Y-102153430D01*
X106836521Y-102210439D01*
X106617090Y-102229637D01*
X106397659Y-102210439D01*
X106184896Y-102153430D01*
X105985265Y-102060340D01*
X105804831Y-101933999D01*
X105649078Y-101778246D01*
X105522737Y-101597812D01*
X105429647Y-101398181D01*
X105372638Y-101185418D01*
X105353440Y-100965987D01*
X105372638Y-100746556D01*
X105429647Y-100533793D01*
X105522737Y-100334162D01*
X105649078Y-100153728D01*
X105804831Y-99997975D01*
X105985265Y-99871634D01*
X106184896Y-99778544D01*
X106397659Y-99721535D01*
X106617090Y-99702337D01*
X106836521Y-99721535D01*
G37*
G36*
X99203303Y-99272522D02*
G01*
X99416066Y-99329531D01*
X99615697Y-99422621D01*
X99796131Y-99548962D01*
X99951884Y-99704715D01*
X100078225Y-99885149D01*
X100171315Y-100084780D01*
X100228324Y-100297543D01*
X100247522Y-100516974D01*
X100228324Y-100736405D01*
X100171315Y-100949168D01*
X100078225Y-101148799D01*
X99951884Y-101329233D01*
X99796131Y-101484986D01*
X99615697Y-101611327D01*
X99416066Y-101704417D01*
X99203303Y-101761426D01*
X98983872Y-101780624D01*
X98764441Y-101761426D01*
X98551678Y-101704417D01*
X98352047Y-101611327D01*
X98171613Y-101484986D01*
X98015860Y-101329233D01*
X97889519Y-101148799D01*
X97796429Y-100949168D01*
X97739420Y-100736405D01*
X97720222Y-100516974D01*
X97739420Y-100297543D01*
X97796429Y-100084780D01*
X97889519Y-99885149D01*
X98015860Y-99704715D01*
X98171613Y-99548962D01*
X98352047Y-99422621D01*
X98551678Y-99329531D01*
X98764441Y-99272522D01*
X98983872Y-99253324D01*
X99203303Y-99272522D01*
G37*
G36*
X100815092Y-98154053D02*
G01*
X100848753Y-98154053D01*
X100887346Y-98163565D01*
X100927838Y-98168896D01*
X100955556Y-98180377D01*
X100982414Y-98186997D01*
X101023136Y-98208369D01*
X101065673Y-98225989D01*
X101085079Y-98240880D01*
X101104306Y-98250971D01*
X101143613Y-98285794D01*
X101184035Y-98316811D01*
X101195523Y-98331783D01*
X101207347Y-98342258D01*
X101241254Y-98391381D01*
X101274857Y-98435173D01*
X101279921Y-98447399D01*
X101285548Y-98455551D01*
X101309953Y-98519902D01*
X101331950Y-98573008D01*
X101332937Y-98580507D01*
X101334363Y-98584267D01*
X101345412Y-98675265D01*
X101351423Y-98720923D01*
X101345411Y-98766584D01*
X101334363Y-98857578D01*
X101332937Y-98861336D01*
X101331950Y-98868838D01*
X101309948Y-98921954D01*
X101285548Y-98986294D01*
X101279922Y-98994444D01*
X101274857Y-99006673D01*
X101241247Y-99050473D01*
X101207347Y-99099587D01*
X101195526Y-99110059D01*
X101184035Y-99125035D01*
X101143604Y-99156058D01*
X101104306Y-99190874D01*
X101085083Y-99200962D01*
X101065673Y-99215857D01*
X101023127Y-99233479D01*
X100982414Y-99254848D01*
X100955561Y-99261466D01*
X100927838Y-99272950D01*
X100887343Y-99278281D01*
X100848753Y-99287793D01*
X100815092Y-99287793D01*
X100779923Y-99292423D01*
X100744754Y-99287793D01*
X100711093Y-99287793D01*
X100672501Y-99278280D01*
X100632008Y-99272950D01*
X100604286Y-99261467D01*
X100577431Y-99254848D01*
X100536713Y-99233478D01*
X100494173Y-99215857D01*
X100474764Y-99200964D01*
X100455539Y-99190874D01*
X100416233Y-99156052D01*
X100375811Y-99125035D01*
X100364322Y-99110062D01*
X100352498Y-99099587D01*
X100318588Y-99050460D01*
X100284989Y-99006673D01*
X100279925Y-98994447D01*
X100274297Y-98986294D01*
X100249885Y-98921925D01*
X100227896Y-98868838D01*
X100226908Y-98861340D01*
X100225482Y-98857578D01*
X100214421Y-98766486D01*
X100208423Y-98720923D01*
X100214420Y-98675362D01*
X100225482Y-98584267D01*
X100226909Y-98580503D01*
X100227896Y-98573008D01*
X100249881Y-98519931D01*
X100274297Y-98455551D01*
X100279926Y-98447395D01*
X100284989Y-98435173D01*
X100318581Y-98391394D01*
X100352498Y-98342258D01*
X100364324Y-98331780D01*
X100375811Y-98316811D01*
X100416225Y-98285800D01*
X100455539Y-98250971D01*
X100474768Y-98240878D01*
X100494173Y-98225989D01*
X100536704Y-98208371D01*
X100577431Y-98186997D01*
X100604290Y-98180376D01*
X100632008Y-98168896D01*
X100672498Y-98163565D01*
X100711093Y-98154053D01*
X100744754Y-98154053D01*
X100779923Y-98149423D01*
X100815092Y-98154053D01*
G37*
G36*
X102795405Y-95680420D02*
G01*
X103008168Y-95737429D01*
X103207799Y-95830519D01*
X103388233Y-95956860D01*
X103543986Y-96112613D01*
X103670327Y-96293047D01*
X103763417Y-96492678D01*
X103820426Y-96705441D01*
X103839624Y-96924872D01*
X103820426Y-97144303D01*
X103763417Y-97357066D01*
X103670327Y-97556697D01*
X103543986Y-97737131D01*
X103388233Y-97892884D01*
X103207799Y-98019225D01*
X103008168Y-98112315D01*
X102795405Y-98169324D01*
X102575974Y-98188522D01*
X102356543Y-98169324D01*
X102143780Y-98112315D01*
X101944149Y-98019225D01*
X101763715Y-97892884D01*
X101607962Y-97737131D01*
X101481621Y-97556697D01*
X101388531Y-97357066D01*
X101331522Y-97144303D01*
X101312324Y-96924872D01*
X101331522Y-96705441D01*
X101388531Y-96492678D01*
X101481621Y-96293047D01*
X101607962Y-96112613D01*
X101763715Y-95956860D01*
X101944149Y-95830519D01*
X102143780Y-95737429D01*
X102356543Y-95680420D01*
X102575974Y-95661222D01*
X102795405Y-95680420D01*
G37*
G36*
X48675105Y-93020152D02*
G01*
X48828132Y-93073699D01*
X48965407Y-93159954D01*
X49080046Y-93274593D01*
X49166301Y-93411868D01*
X49219848Y-93564895D01*
X49238000Y-93726000D01*
X49219848Y-93887105D01*
X49166301Y-94040132D01*
X49080046Y-94177407D01*
X48965407Y-94292046D01*
X48828132Y-94378301D01*
X48675105Y-94431848D01*
X48514000Y-94450000D01*
X48352895Y-94431848D01*
X48199868Y-94378301D01*
X48062593Y-94292046D01*
X47947954Y-94177407D01*
X47861699Y-94040132D01*
X47808152Y-93887105D01*
X47790000Y-93726000D01*
X47808152Y-93564895D01*
X47861699Y-93411868D01*
X47947954Y-93274593D01*
X48062593Y-93159954D01*
X48199868Y-93073699D01*
X48352895Y-93020152D01*
X48514000Y-93002000D01*
X48675105Y-93020152D01*
G37*
G36*
X103031105Y-93020152D02*
G01*
X103184132Y-93073699D01*
X103321407Y-93159954D01*
X103436046Y-93274593D01*
X103522301Y-93411868D01*
X103575848Y-93564895D01*
X103594000Y-93726000D01*
X103575848Y-93887105D01*
X103522301Y-94040132D01*
X103436046Y-94177407D01*
X103321407Y-94292046D01*
X103184132Y-94378301D01*
X103031105Y-94431848D01*
X102870000Y-94450000D01*
X102708895Y-94431848D01*
X102555868Y-94378301D01*
X102418593Y-94292046D01*
X102303954Y-94177407D01*
X102217699Y-94040132D01*
X102164152Y-93887105D01*
X102146000Y-93726000D01*
X102164152Y-93564895D01*
X102217699Y-93411868D01*
X102303954Y-93274593D01*
X102418593Y-93159954D01*
X102555868Y-93073699D01*
X102708895Y-93020152D01*
X102870000Y-93002000D01*
X103031105Y-93020152D01*
G37*
M02*
