G04 #@! TF.GenerationSoftware,KiCad,Pcbnew,7.0.10*
G04 #@! TF.CreationDate,2024-06-11T15:55:15-04:00*
G04 #@! TF.ProjectId,RAM2GS,52414d32-4753-42e6-9b69-6361645f7063,2.2*
G04 #@! TF.SameCoordinates,Original*
G04 #@! TF.FileFunction,Legend,Bot*
G04 #@! TF.FilePolarity,Positive*
%FSLAX46Y46*%
G04 Gerber Fmt 4.6, Leading zero omitted, Abs format (unit mm)*
G04 Created by KiCad (PCBNEW 7.0.10) date 2024-06-11 15:55:15*
%MOMM*%
%LPD*%
G01*
G04 APERTURE LIST*
G04 Aperture macros list*
%AMRoundRect*
0 Rectangle with rounded corners*
0 $1 Rounding radius*
0 $2 $3 $4 $5 $6 $7 $8 $9 X,Y pos of 4 corners*
0 Add a 4 corners polygon primitive as box body*
4,1,4,$2,$3,$4,$5,$6,$7,$8,$9,$2,$3,0*
0 Add four circle primitives for the rounded corners*
1,1,$1+$1,$2,$3*
1,1,$1+$1,$4,$5*
1,1,$1+$1,$6,$7*
1,1,$1+$1,$8,$9*
0 Add four rect primitives between the rounded corners*
20,1,$1+$1,$2,$3,$4,$5,0*
20,1,$1+$1,$4,$5,$6,$7,0*
20,1,$1+$1,$6,$7,$8,$9,0*
20,1,$1+$1,$8,$9,$2,$3,0*%
G04 Aperture macros list end*
%ADD10C,0.200000*%
%ADD11C,0.203200*%
%ADD12C,0.190500*%
%ADD13C,0.000000*%
%ADD14C,2.152400*%
%ADD15C,2.527300*%
%ADD16C,1.143000*%
%ADD17C,1.448000*%
%ADD18RoundRect,0.419100X-0.419100X-3.327100X0.419100X-3.327100X0.419100X3.327100X-0.419100X3.327100X0*%
G04 APERTURE END LIST*
D10*
X48895000Y-119634000D02*
X47625000Y-119634000D01*
X47625000Y-119634000D02*
X48006000Y-120015000D01*
X47625000Y-119634000D02*
X48006000Y-119253000D01*
X47625000Y-105537000D02*
X48006000Y-105918000D01*
X47625000Y-105537000D02*
X48006000Y-105156000D01*
X48895000Y-105537000D02*
X47625000Y-105537000D01*
X49276000Y-102171500D02*
X49276000Y-104330500D01*
X49276000Y-104330500D02*
X47371000Y-103251000D01*
X47371000Y-103251000D02*
X49276000Y-102171500D01*
X47694126Y-106873524D02*
X47694126Y-107599238D01*
X48964126Y-107236381D02*
X47694126Y-107236381D01*
X48964126Y-108204000D02*
X48903650Y-108083048D01*
X48903650Y-108083048D02*
X48843173Y-108022571D01*
X48843173Y-108022571D02*
X48722221Y-107962095D01*
X48722221Y-107962095D02*
X48359364Y-107962095D01*
X48359364Y-107962095D02*
X48238411Y-108022571D01*
X48238411Y-108022571D02*
X48177935Y-108083048D01*
X48177935Y-108083048D02*
X48117459Y-108204000D01*
X48117459Y-108204000D02*
X48117459Y-108385429D01*
X48117459Y-108385429D02*
X48177935Y-108506381D01*
X48177935Y-108506381D02*
X48238411Y-108566857D01*
X48238411Y-108566857D02*
X48359364Y-108627333D01*
X48359364Y-108627333D02*
X48722221Y-108627333D01*
X48722221Y-108627333D02*
X48843173Y-108566857D01*
X48843173Y-108566857D02*
X48903650Y-108506381D01*
X48903650Y-108506381D02*
X48964126Y-108385429D01*
X48964126Y-108385429D02*
X48964126Y-108204000D01*
X48117459Y-109050667D02*
X48964126Y-109292572D01*
X48964126Y-109292572D02*
X48359364Y-109534477D01*
X48359364Y-109534477D02*
X48964126Y-109776381D01*
X48964126Y-109776381D02*
X48117459Y-110018286D01*
X48964126Y-111046381D02*
X48298888Y-111046381D01*
X48298888Y-111046381D02*
X48177935Y-110985905D01*
X48177935Y-110985905D02*
X48117459Y-110864953D01*
X48117459Y-110864953D02*
X48117459Y-110623048D01*
X48117459Y-110623048D02*
X48177935Y-110502095D01*
X48903650Y-111046381D02*
X48964126Y-110925429D01*
X48964126Y-110925429D02*
X48964126Y-110623048D01*
X48964126Y-110623048D02*
X48903650Y-110502095D01*
X48903650Y-110502095D02*
X48782697Y-110441619D01*
X48782697Y-110441619D02*
X48661745Y-110441619D01*
X48661745Y-110441619D02*
X48540792Y-110502095D01*
X48540792Y-110502095D02*
X48480316Y-110623048D01*
X48480316Y-110623048D02*
X48480316Y-110925429D01*
X48480316Y-110925429D02*
X48419840Y-111046381D01*
X48964126Y-111651143D02*
X48117459Y-111651143D01*
X48359364Y-111651143D02*
X48238411Y-111711620D01*
X48238411Y-111711620D02*
X48177935Y-111772096D01*
X48177935Y-111772096D02*
X48117459Y-111893048D01*
X48117459Y-111893048D02*
X48117459Y-112014001D01*
X48964126Y-112981619D02*
X47694126Y-112981619D01*
X48903650Y-112981619D02*
X48964126Y-112860667D01*
X48964126Y-112860667D02*
X48964126Y-112618762D01*
X48964126Y-112618762D02*
X48903650Y-112497810D01*
X48903650Y-112497810D02*
X48843173Y-112437333D01*
X48843173Y-112437333D02*
X48722221Y-112376857D01*
X48722221Y-112376857D02*
X48359364Y-112376857D01*
X48359364Y-112376857D02*
X48238411Y-112437333D01*
X48238411Y-112437333D02*
X48177935Y-112497810D01*
X48177935Y-112497810D02*
X48117459Y-112618762D01*
X48117459Y-112618762D02*
X48117459Y-112860667D01*
X48117459Y-112860667D02*
X48177935Y-112981619D01*
X48964126Y-115279715D02*
X48359364Y-114856381D01*
X48964126Y-114554000D02*
X47694126Y-114554000D01*
X47694126Y-114554000D02*
X47694126Y-115037810D01*
X47694126Y-115037810D02*
X47754602Y-115158762D01*
X47754602Y-115158762D02*
X47815078Y-115219239D01*
X47815078Y-115219239D02*
X47936030Y-115279715D01*
X47936030Y-115279715D02*
X48117459Y-115279715D01*
X48117459Y-115279715D02*
X48238411Y-115219239D01*
X48238411Y-115219239D02*
X48298888Y-115158762D01*
X48298888Y-115158762D02*
X48359364Y-115037810D01*
X48359364Y-115037810D02*
X48359364Y-114554000D01*
X48903650Y-116307810D02*
X48964126Y-116186858D01*
X48964126Y-116186858D02*
X48964126Y-115944953D01*
X48964126Y-115944953D02*
X48903650Y-115824000D01*
X48903650Y-115824000D02*
X48782697Y-115763524D01*
X48782697Y-115763524D02*
X48298888Y-115763524D01*
X48298888Y-115763524D02*
X48177935Y-115824000D01*
X48177935Y-115824000D02*
X48117459Y-115944953D01*
X48117459Y-115944953D02*
X48117459Y-116186858D01*
X48117459Y-116186858D02*
X48177935Y-116307810D01*
X48177935Y-116307810D02*
X48298888Y-116368286D01*
X48298888Y-116368286D02*
X48419840Y-116368286D01*
X48419840Y-116368286D02*
X48540792Y-115763524D01*
X48964126Y-117456857D02*
X48298888Y-117456857D01*
X48298888Y-117456857D02*
X48177935Y-117396381D01*
X48177935Y-117396381D02*
X48117459Y-117275429D01*
X48117459Y-117275429D02*
X48117459Y-117033524D01*
X48117459Y-117033524D02*
X48177935Y-116912571D01*
X48903650Y-117456857D02*
X48964126Y-117335905D01*
X48964126Y-117335905D02*
X48964126Y-117033524D01*
X48964126Y-117033524D02*
X48903650Y-116912571D01*
X48903650Y-116912571D02*
X48782697Y-116852095D01*
X48782697Y-116852095D02*
X48661745Y-116852095D01*
X48661745Y-116852095D02*
X48540792Y-116912571D01*
X48540792Y-116912571D02*
X48480316Y-117033524D01*
X48480316Y-117033524D02*
X48480316Y-117335905D01*
X48480316Y-117335905D02*
X48419840Y-117456857D01*
X48964126Y-118061619D02*
X48117459Y-118061619D01*
X48359364Y-118061619D02*
X48238411Y-118122096D01*
X48238411Y-118122096D02*
X48177935Y-118182572D01*
X48177935Y-118182572D02*
X48117459Y-118303524D01*
X48117459Y-118303524D02*
X48117459Y-118424477D01*
D11*
X104713314Y-130540449D02*
X104713314Y-129727649D01*
X104713314Y-129727649D02*
X104519790Y-129727649D01*
X104519790Y-129727649D02*
X104403676Y-129766354D01*
X104403676Y-129766354D02*
X104326266Y-129843764D01*
X104326266Y-129843764D02*
X104287561Y-129921173D01*
X104287561Y-129921173D02*
X104248857Y-130075992D01*
X104248857Y-130075992D02*
X104248857Y-130192106D01*
X104248857Y-130192106D02*
X104287561Y-130346925D01*
X104287561Y-130346925D02*
X104326266Y-130424335D01*
X104326266Y-130424335D02*
X104403676Y-130501745D01*
X104403676Y-130501745D02*
X104519790Y-130540449D01*
X104519790Y-130540449D02*
X104713314Y-130540449D01*
X103939218Y-129805059D02*
X103900514Y-129766354D01*
X103900514Y-129766354D02*
X103823104Y-129727649D01*
X103823104Y-129727649D02*
X103629580Y-129727649D01*
X103629580Y-129727649D02*
X103552171Y-129766354D01*
X103552171Y-129766354D02*
X103513466Y-129805059D01*
X103513466Y-129805059D02*
X103474761Y-129882468D01*
X103474761Y-129882468D02*
X103474761Y-129959878D01*
X103474761Y-129959878D02*
X103513466Y-130075992D01*
X103513466Y-130075992D02*
X103977923Y-130540449D01*
X103977923Y-130540449D02*
X103474761Y-130540449D01*
X103165123Y-129805059D02*
X103126419Y-129766354D01*
X103126419Y-129766354D02*
X103049009Y-129727649D01*
X103049009Y-129727649D02*
X102855485Y-129727649D01*
X102855485Y-129727649D02*
X102778076Y-129766354D01*
X102778076Y-129766354D02*
X102739371Y-129805059D01*
X102739371Y-129805059D02*
X102700666Y-129882468D01*
X102700666Y-129882468D02*
X102700666Y-129959878D01*
X102700666Y-129959878D02*
X102739371Y-130075992D01*
X102739371Y-130075992D02*
X103203828Y-130540449D01*
X103203828Y-130540449D02*
X102700666Y-130540449D01*
X102391028Y-130308221D02*
X102003981Y-130308221D01*
X102468438Y-130540449D02*
X102197505Y-129727649D01*
X102197505Y-129727649D02*
X101926571Y-130540449D01*
D12*
X48866201Y-103250999D02*
X48904906Y-103289704D01*
X48904906Y-103289704D02*
X48943610Y-103250999D01*
X48943610Y-103250999D02*
X48904906Y-103212295D01*
X48904906Y-103212295D02*
X48866201Y-103250999D01*
X48866201Y-103250999D02*
X48943610Y-103250999D01*
X48633972Y-103250999D02*
X48169515Y-103212295D01*
X48169515Y-103212295D02*
X48130810Y-103250999D01*
X48130810Y-103250999D02*
X48169515Y-103289704D01*
X48169515Y-103289704D02*
X48633972Y-103250999D01*
X48633972Y-103250999D02*
X48130810Y-103250999D01*
D11*
X54386237Y-129092649D02*
X53844371Y-129092649D01*
X53844371Y-129092649D02*
X54386237Y-129905449D01*
X54386237Y-129905449D02*
X53844371Y-129905449D01*
X53534733Y-129905449D02*
X53534733Y-129092649D01*
X53070276Y-129905449D02*
X53418618Y-129440992D01*
X53070276Y-129092649D02*
X53534733Y-129557106D01*
X52683228Y-129866745D02*
X52683228Y-129905449D01*
X52683228Y-129905449D02*
X52721933Y-129982859D01*
X52721933Y-129982859D02*
X52760637Y-130021564D01*
X51289856Y-129131354D02*
X51367266Y-129092649D01*
X51367266Y-129092649D02*
X51483380Y-129092649D01*
X51483380Y-129092649D02*
X51599494Y-129131354D01*
X51599494Y-129131354D02*
X51676904Y-129208764D01*
X51676904Y-129208764D02*
X51715609Y-129286173D01*
X51715609Y-129286173D02*
X51754313Y-129440992D01*
X51754313Y-129440992D02*
X51754313Y-129557106D01*
X51754313Y-129557106D02*
X51715609Y-129711925D01*
X51715609Y-129711925D02*
X51676904Y-129789335D01*
X51676904Y-129789335D02*
X51599494Y-129866745D01*
X51599494Y-129866745D02*
X51483380Y-129905449D01*
X51483380Y-129905449D02*
X51405971Y-129905449D01*
X51405971Y-129905449D02*
X51289856Y-129866745D01*
X51289856Y-129866745D02*
X51251152Y-129828040D01*
X51251152Y-129828040D02*
X51251152Y-129557106D01*
X51251152Y-129557106D02*
X51405971Y-129557106D01*
X50631875Y-129479697D02*
X50902809Y-129479697D01*
X50902809Y-129905449D02*
X50902809Y-129092649D01*
X50902809Y-129092649D02*
X50515761Y-129092649D01*
%LPC*%
D13*
G36*
X113538000Y-139446000D02*
G01*
X113030000Y-139954000D01*
X55626000Y-139954000D01*
X55118000Y-139446000D01*
X55118000Y-132080000D01*
X113538000Y-132080000D01*
X113538000Y-139446000D01*
G37*
D14*
X110998000Y-130175000D03*
D15*
X102575974Y-96924872D03*
D16*
X100779923Y-98720923D03*
D15*
X98983872Y-100516974D03*
X106617090Y-100965987D03*
X103024987Y-104558090D03*
D16*
X106886497Y-103390656D03*
X105449656Y-104827497D03*
D17*
X48514000Y-93726000D03*
X102870000Y-93726000D03*
X48514000Y-129540000D03*
X111506000Y-115189000D03*
D18*
X110998000Y-135282000D03*
X108458000Y-135282000D03*
X105918000Y-135282000D03*
X103378000Y-135282000D03*
X100838000Y-135282000D03*
X98298000Y-135282000D03*
X95758000Y-135282000D03*
X93218000Y-135282000D03*
X90678000Y-135282000D03*
X88138000Y-135282000D03*
X85598000Y-135282000D03*
X83058000Y-135282000D03*
X80518000Y-135282000D03*
X77978000Y-135282000D03*
X75438000Y-135282000D03*
X72898000Y-135282000D03*
X70358000Y-135282000D03*
X67818000Y-135282000D03*
X65278000Y-135282000D03*
X62738000Y-135282000D03*
X60198000Y-135282000D03*
X57658000Y-135282000D03*
%LPD*%
M02*
