G04 #@! TF.GenerationSoftware,KiCad,Pcbnew,(5.1.5-0-10_14)*
G04 #@! TF.CreationDate,2020-07-05T22:44:08-04:00*
G04 #@! TF.ProjectId,RAM2GS,52414d32-4753-42e6-9b69-6361645f7063,rev?*
G04 #@! TF.SameCoordinates,Original*
G04 #@! TF.FileFunction,Other,Fab,Top*
%FSLAX46Y46*%
G04 Gerber Fmt 4.6, Leading zero omitted, Abs format (unit mm)*
G04 Created by KiCad (PCBNEW (5.1.5-0-10_14)) date 2020-07-05 22:44:08*
%MOMM*%
%LPD*%
G04 APERTURE LIST*
%ADD10C,0.100000*%
%ADD11C,0.127000*%
%ADD12C,0.150000*%
%ADD13C,0.063500*%
%ADD14C,0.047625*%
%ADD15C,0.203200*%
%ADD16C,0.031750*%
G04 APERTURE END LIST*
D10*
X70570000Y-122050000D02*
X69720000Y-122050000D01*
X69220000Y-122550000D02*
X69220000Y-124250000D01*
X70570000Y-122050000D02*
X70570000Y-124250000D01*
X70570000Y-124250000D02*
X69220000Y-124250000D01*
X69720000Y-122050000D02*
X69220000Y-122550000D01*
X69180000Y-109000000D02*
X70030000Y-109000000D01*
X70530000Y-108500000D02*
X70530000Y-106800000D01*
X69180000Y-109000000D02*
X69180000Y-106800000D01*
X69180000Y-106800000D02*
X70530000Y-106800000D01*
X70030000Y-109000000D02*
X70530000Y-108500000D01*
X72800000Y-107300000D02*
X73800000Y-107300000D01*
X73800000Y-107300000D02*
X73800000Y-109300000D01*
X73800000Y-109300000D02*
X72800000Y-109300000D01*
X72800000Y-109300000D02*
X72800000Y-107300000D01*
X69850000Y-101300000D02*
X70850000Y-101300000D01*
X70850000Y-101300000D02*
X70850000Y-103300000D01*
X70850000Y-103300000D02*
X69850000Y-103300000D01*
X69850000Y-103300000D02*
X69850000Y-101300000D01*
X69850000Y-103900000D02*
X70850000Y-103900000D01*
X70850000Y-103900000D02*
X70850000Y-105900000D01*
X70850000Y-105900000D02*
X69850000Y-105900000D01*
X69850000Y-105900000D02*
X69850000Y-103900000D01*
X102950000Y-120650000D02*
X102950000Y-119650000D01*
X102950000Y-119650000D02*
X104950000Y-119650000D01*
X104950000Y-119650000D02*
X104950000Y-120650000D01*
X104950000Y-120650000D02*
X102950000Y-120650000D01*
X105600000Y-120650000D02*
X105600000Y-119650000D01*
X105600000Y-119650000D02*
X107600000Y-119650000D01*
X107600000Y-119650000D02*
X107600000Y-120650000D01*
X107600000Y-120650000D02*
X105600000Y-120650000D01*
X79400000Y-101550000D02*
X92400000Y-101550000D01*
X92400000Y-101550000D02*
X92400000Y-115550000D01*
X92400000Y-115550000D02*
X78400000Y-115550000D01*
X78400000Y-115550000D02*
X78400000Y-102550000D01*
X78400000Y-102550000D02*
X79400000Y-101550000D01*
X111998000Y-123063000D02*
G75*
G03X111998000Y-123063000I-1000000J0D01*
G01*
D11*
X113030000Y-131572000D02*
X113030000Y-139700000D01*
X113030000Y-139700000D02*
X55626000Y-139700000D01*
X55626000Y-139700000D02*
X55626000Y-131572000D01*
D10*
X68500000Y-111150000D02*
X69500000Y-112150000D01*
X71700000Y-109650000D02*
X68500000Y-109650000D01*
X71700000Y-112150000D02*
X71700000Y-109650000D01*
X68500000Y-112150000D02*
X71700000Y-112150000D01*
X68500000Y-109650000D02*
X68500000Y-112150000D01*
X107237000Y-113500000D02*
X106237000Y-114500000D01*
X107237000Y-113500000D02*
X107237000Y-107800000D01*
X106237000Y-114500000D02*
X103537000Y-114500000D01*
X107237000Y-107800000D02*
X103537000Y-107800000D01*
X103537000Y-114500000D02*
X103537000Y-107800000D01*
X55070000Y-100540000D02*
X54070000Y-101540000D01*
X54070000Y-122760000D02*
X54070000Y-101540000D01*
X64230000Y-122760000D02*
X54070000Y-122760000D01*
X64230000Y-100540000D02*
X64230000Y-122760000D01*
X55070000Y-100540000D02*
X64230000Y-100540000D01*
D12*
X108700000Y-116775000D02*
X106700000Y-116775000D01*
X108700000Y-115525000D02*
X108700000Y-116775000D01*
X106700000Y-115525000D02*
X108700000Y-115525000D01*
X106700000Y-116775000D02*
X106700000Y-115525000D01*
X110500000Y-106175000D02*
X108500000Y-106175000D01*
X110500000Y-104925000D02*
X110500000Y-106175000D01*
X108500000Y-104925000D02*
X110500000Y-104925000D01*
X108500000Y-106175000D02*
X108500000Y-104925000D01*
X110982000Y-128514000D02*
X108982000Y-128514000D01*
X110982000Y-127264000D02*
X110982000Y-128514000D01*
X108982000Y-127264000D02*
X110982000Y-127264000D01*
X108982000Y-128514000D02*
X108982000Y-127264000D01*
X57928000Y-128153000D02*
X59928000Y-128153000D01*
X57928000Y-129403000D02*
X57928000Y-128153000D01*
X59928000Y-129403000D02*
X57928000Y-129403000D01*
X59928000Y-128153000D02*
X59928000Y-129403000D01*
D10*
X76700000Y-116600000D02*
X76700000Y-118200000D01*
X75900000Y-116600000D02*
X76700000Y-116600000D01*
X75900000Y-118200000D02*
X75900000Y-116600000D01*
X76700000Y-118200000D02*
X75900000Y-118200000D01*
X72200000Y-124050000D02*
X72200000Y-122450000D01*
X73000000Y-124050000D02*
X72200000Y-124050000D01*
X73000000Y-122450000D02*
X73000000Y-124050000D01*
X72200000Y-122450000D02*
X73000000Y-122450000D01*
X95500000Y-107250000D02*
X95500000Y-108850000D01*
X94700000Y-107250000D02*
X95500000Y-107250000D01*
X94700000Y-108850000D02*
X94700000Y-107250000D01*
X95500000Y-108850000D02*
X94700000Y-108850000D01*
X64950000Y-124150000D02*
X63350000Y-124150000D01*
X64950000Y-123350000D02*
X64950000Y-124150000D01*
X63350000Y-123350000D02*
X64950000Y-123350000D01*
X63350000Y-124150000D02*
X63350000Y-123350000D01*
X54950000Y-99950000D02*
X53350000Y-99950000D01*
X54950000Y-99150000D02*
X54950000Y-99950000D01*
X53350000Y-99150000D02*
X54950000Y-99150000D01*
X53350000Y-99950000D02*
X53350000Y-99150000D01*
X51750000Y-101300000D02*
X51750000Y-102900000D01*
X50950000Y-101300000D02*
X51750000Y-101300000D01*
X50950000Y-102900000D02*
X50950000Y-101300000D01*
X51750000Y-102900000D02*
X50950000Y-102900000D01*
X90450000Y-99250000D02*
X88850000Y-99250000D01*
X90450000Y-98450000D02*
X90450000Y-99250000D01*
X88850000Y-98450000D02*
X90450000Y-98450000D01*
X88850000Y-99250000D02*
X88850000Y-98450000D01*
X95100000Y-112450000D02*
X95100000Y-110850000D01*
X95900000Y-112450000D02*
X95100000Y-112450000D01*
X95900000Y-110850000D02*
X95900000Y-112450000D01*
X95100000Y-110850000D02*
X95900000Y-110850000D01*
X83450000Y-99250000D02*
X81850000Y-99250000D01*
X83450000Y-98450000D02*
X83450000Y-99250000D01*
X81850000Y-98450000D02*
X83450000Y-98450000D01*
X81850000Y-99250000D02*
X81850000Y-98450000D01*
X64950000Y-99950000D02*
X63350000Y-99950000D01*
X64950000Y-99150000D02*
X64950000Y-99950000D01*
X63350000Y-99150000D02*
X64950000Y-99150000D01*
X63350000Y-99950000D02*
X63350000Y-99150000D01*
X54950000Y-124150000D02*
X53350000Y-124150000D01*
X54950000Y-123350000D02*
X54950000Y-124150000D01*
X53350000Y-123350000D02*
X54950000Y-123350000D01*
X53350000Y-124150000D02*
X53350000Y-123350000D01*
X66550000Y-111600000D02*
X66550000Y-110000000D01*
X67350000Y-111600000D02*
X66550000Y-111600000D01*
X67350000Y-110000000D02*
X67350000Y-111600000D01*
X66550000Y-110000000D02*
X67350000Y-110000000D01*
X51750000Y-106100000D02*
X51750000Y-107700000D01*
X50950000Y-106100000D02*
X51750000Y-106100000D01*
X50950000Y-107700000D02*
X50950000Y-106100000D01*
X51750000Y-107700000D02*
X50950000Y-107700000D01*
X89950000Y-118650000D02*
X88350000Y-118650000D01*
X89950000Y-117850000D02*
X89950000Y-118650000D01*
X88350000Y-117850000D02*
X89950000Y-117850000D01*
X88350000Y-118650000D02*
X88350000Y-117850000D01*
X82950000Y-118650000D02*
X81350000Y-118650000D01*
X82950000Y-117850000D02*
X82950000Y-118650000D01*
X81350000Y-117850000D02*
X82950000Y-117850000D01*
X81350000Y-118650000D02*
X81350000Y-117850000D01*
X76100000Y-107250000D02*
X76100000Y-108850000D01*
X75300000Y-107250000D02*
X76100000Y-107250000D01*
X75300000Y-108850000D02*
X75300000Y-107250000D01*
X76100000Y-108850000D02*
X75300000Y-108850000D01*
X51750000Y-110100000D02*
X51750000Y-111700000D01*
X50950000Y-110100000D02*
X51750000Y-110100000D01*
X50950000Y-111700000D02*
X50950000Y-110100000D01*
X51750000Y-111700000D02*
X50950000Y-111700000D01*
X66550000Y-106800000D02*
X66550000Y-105200000D01*
X67350000Y-106800000D02*
X66550000Y-106800000D01*
X67350000Y-105200000D02*
X67350000Y-106800000D01*
X66550000Y-105200000D02*
X67350000Y-105200000D01*
X99800000Y-124050000D02*
X99800000Y-122450000D01*
X100600000Y-124050000D02*
X99800000Y-124050000D01*
X100600000Y-122450000D02*
X100600000Y-124050000D01*
X99800000Y-122450000D02*
X100600000Y-122450000D01*
X81400000Y-124050000D02*
X81400000Y-122450000D01*
X82200000Y-124050000D02*
X81400000Y-124050000D01*
X82200000Y-122450000D02*
X82200000Y-124050000D01*
X81400000Y-122450000D02*
X82200000Y-122450000D01*
X90600000Y-124050000D02*
X90600000Y-122450000D01*
X91400000Y-124050000D02*
X90600000Y-124050000D01*
X91400000Y-122450000D02*
X91400000Y-124050000D01*
X90600000Y-122450000D02*
X91400000Y-122450000D01*
D12*
X74775000Y-127650000D02*
X73775000Y-126650000D01*
X80275000Y-127650000D02*
X74775000Y-127650000D01*
X80275000Y-123250000D02*
X80275000Y-127650000D01*
X73775000Y-123250000D02*
X80275000Y-123250000D01*
X73775000Y-126650000D02*
X73775000Y-123250000D01*
X83975000Y-127650000D02*
X82975000Y-126650000D01*
X89475000Y-127650000D02*
X83975000Y-127650000D01*
X89475000Y-123250000D02*
X89475000Y-127650000D01*
X82975000Y-123250000D02*
X89475000Y-123250000D01*
X82975000Y-126650000D02*
X82975000Y-123250000D01*
X102375000Y-127650000D02*
X101375000Y-126650000D01*
X107875000Y-127650000D02*
X102375000Y-127650000D01*
X107875000Y-123250000D02*
X107875000Y-127650000D01*
X101375000Y-123250000D02*
X107875000Y-123250000D01*
X101375000Y-126650000D02*
X101375000Y-123250000D01*
X93175000Y-127650000D02*
X92175000Y-126650000D01*
X98675000Y-127650000D02*
X93175000Y-127650000D01*
X98675000Y-123250000D02*
X98675000Y-127650000D01*
X92175000Y-123250000D02*
X98675000Y-123250000D01*
X92175000Y-126650000D02*
X92175000Y-123250000D01*
D10*
X52054000Y-93726000D02*
G75*
G03X52054000Y-93726000I-1000000J0D01*
G01*
X111998000Y-125603000D02*
G75*
G03X111998000Y-125603000I-1000000J0D01*
G01*
X52054000Y-129540000D02*
G75*
G03X52054000Y-129540000I-1000000J0D01*
G01*
X101330000Y-93726000D02*
G75*
G03X101330000Y-93726000I-1000000J0D01*
G01*
X111998000Y-130175000D02*
G75*
G03X111998000Y-130175000I-1000000J0D01*
G01*
X103870000Y-93726000D02*
G75*
G03X103870000Y-93726000I-1000000J0D01*
G01*
X49514000Y-93726000D02*
G75*
G03X49514000Y-93726000I-1000000J0D01*
G01*
X49514000Y-129540000D02*
G75*
G03X49514000Y-129540000I-1000000J0D01*
G01*
X96565165Y-102849049D02*
X95150951Y-101434835D01*
X97449049Y-101965165D02*
X96565165Y-102849049D01*
X96034835Y-100550951D02*
X97449049Y-101965165D01*
X95150951Y-101434835D02*
X96034835Y-100550951D01*
X98484835Y-103000951D02*
X99899049Y-104415165D01*
X97600951Y-103884835D02*
X98484835Y-103000951D01*
X99015165Y-105299049D02*
X97600951Y-103884835D01*
X99899049Y-104415165D02*
X99015165Y-105299049D01*
X72700000Y-126275000D02*
X70700000Y-126275000D01*
X72700000Y-125025000D02*
X72700000Y-126275000D01*
X70700000Y-125025000D02*
X72700000Y-125025000D01*
X70700000Y-126275000D02*
X70700000Y-125025000D01*
D13*
X69760904Y-123343523D02*
X69966523Y-123343523D01*
X69990714Y-123331428D01*
X70002809Y-123319333D01*
X70014904Y-123295142D01*
X70014904Y-123246761D01*
X70002809Y-123222571D01*
X69990714Y-123210476D01*
X69966523Y-123198380D01*
X69760904Y-123198380D01*
X70014904Y-123065333D02*
X70014904Y-123016952D01*
X70002809Y-122992761D01*
X69990714Y-122980666D01*
X69954428Y-122956476D01*
X69906047Y-122944380D01*
X69809285Y-122944380D01*
X69785095Y-122956476D01*
X69773000Y-122968571D01*
X69760904Y-122992761D01*
X69760904Y-123041142D01*
X69773000Y-123065333D01*
X69785095Y-123077428D01*
X69809285Y-123089523D01*
X69869761Y-123089523D01*
X69893952Y-123077428D01*
X69906047Y-123065333D01*
X69918142Y-123041142D01*
X69918142Y-122992761D01*
X69906047Y-122968571D01*
X69893952Y-122956476D01*
X69869761Y-122944380D01*
D14*
X70145678Y-124129714D02*
X70145678Y-124002714D01*
X70336178Y-124084357D01*
X70209178Y-123848500D02*
X70336178Y-123848500D01*
X70136607Y-123893857D02*
X70272678Y-123939214D01*
X70272678Y-123821285D01*
X70336178Y-123658000D02*
X70336178Y-123748714D01*
X70145678Y-123748714D01*
X70145678Y-123621714D02*
X70336178Y-123558214D01*
X70145678Y-123494714D01*
X70318035Y-123322357D02*
X70327107Y-123331428D01*
X70336178Y-123358642D01*
X70336178Y-123376785D01*
X70327107Y-123404000D01*
X70308964Y-123422142D01*
X70290821Y-123431214D01*
X70254535Y-123440285D01*
X70227321Y-123440285D01*
X70191035Y-123431214D01*
X70172892Y-123422142D01*
X70154750Y-123404000D01*
X70145678Y-123376785D01*
X70145678Y-123358642D01*
X70154750Y-123331428D01*
X70163821Y-123322357D01*
X70336178Y-123140928D02*
X70336178Y-123249785D01*
X70336178Y-123195357D02*
X70145678Y-123195357D01*
X70172892Y-123213500D01*
X70191035Y-123231642D01*
X70200107Y-123249785D01*
X70154750Y-122959500D02*
X70145678Y-122977642D01*
X70145678Y-123004857D01*
X70154750Y-123032071D01*
X70172892Y-123050214D01*
X70191035Y-123059285D01*
X70227321Y-123068357D01*
X70254535Y-123068357D01*
X70290821Y-123059285D01*
X70308964Y-123050214D01*
X70327107Y-123032071D01*
X70336178Y-123004857D01*
X70336178Y-122986714D01*
X70327107Y-122959500D01*
X70318035Y-122950428D01*
X70254535Y-122950428D01*
X70254535Y-122986714D01*
X70145678Y-122832500D02*
X70145678Y-122814357D01*
X70154750Y-122796214D01*
X70163821Y-122787142D01*
X70181964Y-122778071D01*
X70218250Y-122769000D01*
X70263607Y-122769000D01*
X70299892Y-122778071D01*
X70318035Y-122787142D01*
X70327107Y-122796214D01*
X70336178Y-122814357D01*
X70336178Y-122832500D01*
X70327107Y-122850642D01*
X70318035Y-122859714D01*
X70299892Y-122868785D01*
X70263607Y-122877857D01*
X70218250Y-122877857D01*
X70181964Y-122868785D01*
X70163821Y-122859714D01*
X70154750Y-122850642D01*
X70145678Y-122832500D01*
X70209178Y-122605714D02*
X70336178Y-122605714D01*
X70136607Y-122651071D02*
X70272678Y-122696428D01*
X70272678Y-122578500D01*
X70154750Y-122406142D02*
X70145678Y-122424285D01*
X70145678Y-122451500D01*
X70154750Y-122478714D01*
X70172892Y-122496857D01*
X70191035Y-122505928D01*
X70227321Y-122515000D01*
X70254535Y-122515000D01*
X70290821Y-122505928D01*
X70308964Y-122496857D01*
X70327107Y-122478714D01*
X70336178Y-122451500D01*
X70336178Y-122433357D01*
X70327107Y-122406142D01*
X70318035Y-122397071D01*
X70254535Y-122397071D01*
X70254535Y-122433357D01*
X70145678Y-122333571D02*
X70336178Y-122288214D01*
X70200107Y-122251928D01*
X70336178Y-122215642D01*
X70145678Y-122170285D01*
D13*
X69710904Y-108214476D02*
X69916523Y-108214476D01*
X69940714Y-108202380D01*
X69952809Y-108190285D01*
X69964904Y-108166095D01*
X69964904Y-108117714D01*
X69952809Y-108093523D01*
X69940714Y-108081428D01*
X69916523Y-108069333D01*
X69710904Y-108069333D01*
X69964904Y-107815333D02*
X69964904Y-107960476D01*
X69964904Y-107887904D02*
X69710904Y-107887904D01*
X69747190Y-107912095D01*
X69771380Y-107936285D01*
X69783476Y-107960476D01*
X69710904Y-107658095D02*
X69710904Y-107633904D01*
X69723000Y-107609714D01*
X69735095Y-107597619D01*
X69759285Y-107585523D01*
X69807666Y-107573428D01*
X69868142Y-107573428D01*
X69916523Y-107585523D01*
X69940714Y-107597619D01*
X69952809Y-107609714D01*
X69964904Y-107633904D01*
X69964904Y-107658095D01*
X69952809Y-107682285D01*
X69940714Y-107694380D01*
X69916523Y-107706476D01*
X69868142Y-107718571D01*
X69807666Y-107718571D01*
X69759285Y-107706476D01*
X69735095Y-107694380D01*
X69723000Y-107682285D01*
X69710904Y-107658095D01*
D14*
X69395678Y-108879714D02*
X69395678Y-108752714D01*
X69586178Y-108834357D01*
X69459178Y-108598500D02*
X69586178Y-108598500D01*
X69386607Y-108643857D02*
X69522678Y-108689214D01*
X69522678Y-108571285D01*
X69586178Y-108408000D02*
X69586178Y-108498714D01*
X69395678Y-108498714D01*
X69395678Y-108371714D02*
X69586178Y-108308214D01*
X69395678Y-108244714D01*
X69568035Y-108072357D02*
X69577107Y-108081428D01*
X69586178Y-108108642D01*
X69586178Y-108126785D01*
X69577107Y-108154000D01*
X69558964Y-108172142D01*
X69540821Y-108181214D01*
X69504535Y-108190285D01*
X69477321Y-108190285D01*
X69441035Y-108181214D01*
X69422892Y-108172142D01*
X69404750Y-108154000D01*
X69395678Y-108126785D01*
X69395678Y-108108642D01*
X69404750Y-108081428D01*
X69413821Y-108072357D01*
X69586178Y-107890928D02*
X69586178Y-107999785D01*
X69586178Y-107945357D02*
X69395678Y-107945357D01*
X69422892Y-107963500D01*
X69441035Y-107981642D01*
X69450107Y-107999785D01*
X69404750Y-107709500D02*
X69395678Y-107727642D01*
X69395678Y-107754857D01*
X69404750Y-107782071D01*
X69422892Y-107800214D01*
X69441035Y-107809285D01*
X69477321Y-107818357D01*
X69504535Y-107818357D01*
X69540821Y-107809285D01*
X69558964Y-107800214D01*
X69577107Y-107782071D01*
X69586178Y-107754857D01*
X69586178Y-107736714D01*
X69577107Y-107709500D01*
X69568035Y-107700428D01*
X69504535Y-107700428D01*
X69504535Y-107736714D01*
X69395678Y-107582500D02*
X69395678Y-107564357D01*
X69404750Y-107546214D01*
X69413821Y-107537142D01*
X69431964Y-107528071D01*
X69468250Y-107519000D01*
X69513607Y-107519000D01*
X69549892Y-107528071D01*
X69568035Y-107537142D01*
X69577107Y-107546214D01*
X69586178Y-107564357D01*
X69586178Y-107582500D01*
X69577107Y-107600642D01*
X69568035Y-107609714D01*
X69549892Y-107618785D01*
X69513607Y-107627857D01*
X69468250Y-107627857D01*
X69431964Y-107618785D01*
X69413821Y-107609714D01*
X69404750Y-107600642D01*
X69395678Y-107582500D01*
X69459178Y-107355714D02*
X69586178Y-107355714D01*
X69386607Y-107401071D02*
X69522678Y-107446428D01*
X69522678Y-107328500D01*
X69404750Y-107156142D02*
X69395678Y-107174285D01*
X69395678Y-107201500D01*
X69404750Y-107228714D01*
X69422892Y-107246857D01*
X69441035Y-107255928D01*
X69477321Y-107265000D01*
X69504535Y-107265000D01*
X69540821Y-107255928D01*
X69558964Y-107246857D01*
X69577107Y-107228714D01*
X69586178Y-107201500D01*
X69586178Y-107183357D01*
X69577107Y-107156142D01*
X69568035Y-107147071D01*
X69504535Y-107147071D01*
X69504535Y-107183357D01*
X69395678Y-107083571D02*
X69586178Y-107038214D01*
X69450107Y-107001928D01*
X69586178Y-106965642D01*
X69395678Y-106920285D01*
D13*
X73414904Y-108475380D02*
X73293952Y-108560047D01*
X73414904Y-108620523D02*
X73160904Y-108620523D01*
X73160904Y-108523761D01*
X73173000Y-108499571D01*
X73185095Y-108487476D01*
X73209285Y-108475380D01*
X73245571Y-108475380D01*
X73269761Y-108487476D01*
X73281857Y-108499571D01*
X73293952Y-108523761D01*
X73293952Y-108620523D01*
X73414904Y-108366523D02*
X73160904Y-108366523D01*
X73414904Y-108221380D01*
X73160904Y-108221380D01*
X73414904Y-107967380D02*
X73414904Y-108112523D01*
X73414904Y-108039952D02*
X73160904Y-108039952D01*
X73197190Y-108064142D01*
X73221380Y-108088333D01*
X73233476Y-108112523D01*
D14*
X73559178Y-108522250D02*
X73686178Y-108522250D01*
X73486607Y-108567607D02*
X73622678Y-108612964D01*
X73622678Y-108495035D01*
X73686178Y-108440607D02*
X73559178Y-108340821D01*
X73559178Y-108440607D02*
X73686178Y-108340821D01*
X73495678Y-108286392D02*
X73495678Y-108168464D01*
X73568250Y-108231964D01*
X73568250Y-108204750D01*
X73577321Y-108186607D01*
X73586392Y-108177535D01*
X73604535Y-108168464D01*
X73649892Y-108168464D01*
X73668035Y-108177535D01*
X73677107Y-108186607D01*
X73686178Y-108204750D01*
X73686178Y-108259178D01*
X73677107Y-108277321D01*
X73668035Y-108286392D01*
X73495678Y-108050535D02*
X73495678Y-108032392D01*
X73504750Y-108014250D01*
X73513821Y-108005178D01*
X73531964Y-107996107D01*
X73568250Y-107987035D01*
X73613607Y-107987035D01*
X73649892Y-107996107D01*
X73668035Y-108005178D01*
X73677107Y-108014250D01*
X73686178Y-108032392D01*
X73686178Y-108050535D01*
X73677107Y-108068678D01*
X73668035Y-108077750D01*
X73649892Y-108086821D01*
X73613607Y-108095892D01*
X73568250Y-108095892D01*
X73531964Y-108086821D01*
X73513821Y-108077750D01*
X73504750Y-108068678D01*
X73495678Y-108050535D01*
D13*
X70464904Y-102475380D02*
X70343952Y-102560047D01*
X70464904Y-102620523D02*
X70210904Y-102620523D01*
X70210904Y-102523761D01*
X70223000Y-102499571D01*
X70235095Y-102487476D01*
X70259285Y-102475380D01*
X70295571Y-102475380D01*
X70319761Y-102487476D01*
X70331857Y-102499571D01*
X70343952Y-102523761D01*
X70343952Y-102620523D01*
X70464904Y-102366523D02*
X70210904Y-102366523D01*
X70464904Y-102221380D01*
X70210904Y-102221380D01*
X70235095Y-102112523D02*
X70223000Y-102100428D01*
X70210904Y-102076238D01*
X70210904Y-102015761D01*
X70223000Y-101991571D01*
X70235095Y-101979476D01*
X70259285Y-101967380D01*
X70283476Y-101967380D01*
X70319761Y-101979476D01*
X70464904Y-102124619D01*
X70464904Y-101967380D01*
D14*
X70609178Y-102522250D02*
X70736178Y-102522250D01*
X70536607Y-102567607D02*
X70672678Y-102612964D01*
X70672678Y-102495035D01*
X70736178Y-102440607D02*
X70609178Y-102340821D01*
X70609178Y-102440607D02*
X70736178Y-102340821D01*
X70609178Y-102186607D02*
X70736178Y-102186607D01*
X70536607Y-102231964D02*
X70672678Y-102277321D01*
X70672678Y-102159392D01*
X70545678Y-102104964D02*
X70545678Y-101977964D01*
X70736178Y-102059607D01*
D13*
X70464904Y-105075380D02*
X70343952Y-105160047D01*
X70464904Y-105220523D02*
X70210904Y-105220523D01*
X70210904Y-105123761D01*
X70223000Y-105099571D01*
X70235095Y-105087476D01*
X70259285Y-105075380D01*
X70295571Y-105075380D01*
X70319761Y-105087476D01*
X70331857Y-105099571D01*
X70343952Y-105123761D01*
X70343952Y-105220523D01*
X70464904Y-104966523D02*
X70210904Y-104966523D01*
X70464904Y-104821380D01*
X70210904Y-104821380D01*
X70210904Y-104724619D02*
X70210904Y-104567380D01*
X70307666Y-104652047D01*
X70307666Y-104615761D01*
X70319761Y-104591571D01*
X70331857Y-104579476D01*
X70356047Y-104567380D01*
X70416523Y-104567380D01*
X70440714Y-104579476D01*
X70452809Y-104591571D01*
X70464904Y-104615761D01*
X70464904Y-104688333D01*
X70452809Y-104712523D01*
X70440714Y-104724619D01*
D14*
X70609178Y-105122250D02*
X70736178Y-105122250D01*
X70536607Y-105167607D02*
X70672678Y-105212964D01*
X70672678Y-105095035D01*
X70736178Y-105040607D02*
X70609178Y-104940821D01*
X70609178Y-105040607D02*
X70736178Y-104940821D01*
X70609178Y-104786607D02*
X70736178Y-104786607D01*
X70536607Y-104831964D02*
X70672678Y-104877321D01*
X70672678Y-104759392D01*
X70545678Y-104704964D02*
X70545678Y-104577964D01*
X70736178Y-104659607D01*
D13*
X103774619Y-120264904D02*
X103689952Y-120143952D01*
X103629476Y-120264904D02*
X103629476Y-120010904D01*
X103726238Y-120010904D01*
X103750428Y-120023000D01*
X103762523Y-120035095D01*
X103774619Y-120059285D01*
X103774619Y-120095571D01*
X103762523Y-120119761D01*
X103750428Y-120131857D01*
X103726238Y-120143952D01*
X103629476Y-120143952D01*
X103883476Y-120264904D02*
X103883476Y-120010904D01*
X104028619Y-120264904D01*
X104028619Y-120010904D01*
X104258428Y-120095571D02*
X104258428Y-120264904D01*
X104197952Y-119998809D02*
X104137476Y-120180238D01*
X104294714Y-120180238D01*
D14*
X103727750Y-119809178D02*
X103727750Y-119936178D01*
X103682392Y-119736607D02*
X103637035Y-119872678D01*
X103754964Y-119872678D01*
X103809392Y-119936178D02*
X103909178Y-119809178D01*
X103809392Y-119809178D02*
X103909178Y-119936178D01*
X104063392Y-119809178D02*
X104063392Y-119936178D01*
X104018035Y-119736607D02*
X103972678Y-119872678D01*
X104090607Y-119872678D01*
X104145035Y-119745678D02*
X104272035Y-119745678D01*
X104190392Y-119936178D01*
D13*
X106424619Y-120264904D02*
X106339952Y-120143952D01*
X106279476Y-120264904D02*
X106279476Y-120010904D01*
X106376238Y-120010904D01*
X106400428Y-120023000D01*
X106412523Y-120035095D01*
X106424619Y-120059285D01*
X106424619Y-120095571D01*
X106412523Y-120119761D01*
X106400428Y-120131857D01*
X106376238Y-120143952D01*
X106279476Y-120143952D01*
X106533476Y-120264904D02*
X106533476Y-120010904D01*
X106678619Y-120264904D01*
X106678619Y-120010904D01*
X106920523Y-120010904D02*
X106799571Y-120010904D01*
X106787476Y-120131857D01*
X106799571Y-120119761D01*
X106823761Y-120107666D01*
X106884238Y-120107666D01*
X106908428Y-120119761D01*
X106920523Y-120131857D01*
X106932619Y-120156047D01*
X106932619Y-120216523D01*
X106920523Y-120240714D01*
X106908428Y-120252809D01*
X106884238Y-120264904D01*
X106823761Y-120264904D01*
X106799571Y-120252809D01*
X106787476Y-120240714D01*
D14*
X106377750Y-119809178D02*
X106377750Y-119936178D01*
X106332392Y-119736607D02*
X106287035Y-119872678D01*
X106404964Y-119872678D01*
X106459392Y-119936178D02*
X106559178Y-119809178D01*
X106459392Y-119809178D02*
X106559178Y-119936178D01*
X106713392Y-119809178D02*
X106713392Y-119936178D01*
X106668035Y-119736607D02*
X106622678Y-119872678D01*
X106740607Y-119872678D01*
X106795035Y-119745678D02*
X106922035Y-119745678D01*
X106840392Y-119936178D01*
D15*
X84780723Y-108104895D02*
X84780723Y-108762876D01*
X84819428Y-108840285D01*
X84858133Y-108878990D01*
X84935542Y-108917695D01*
X85090361Y-108917695D01*
X85167771Y-108878990D01*
X85206476Y-108840285D01*
X85245180Y-108762876D01*
X85245180Y-108104895D01*
X86057980Y-108917695D02*
X85593523Y-108917695D01*
X85825752Y-108917695D02*
X85825752Y-108104895D01*
X85748342Y-108221009D01*
X85670933Y-108298419D01*
X85593523Y-108337123D01*
D11*
X83101904Y-109463714D02*
X83271238Y-109463714D01*
X83343809Y-109729809D02*
X83101904Y-109729809D01*
X83101904Y-109221809D01*
X83343809Y-109221809D01*
X83561523Y-109729809D02*
X83561523Y-109221809D01*
X83755047Y-109221809D01*
X83803428Y-109246000D01*
X83827619Y-109270190D01*
X83851809Y-109318571D01*
X83851809Y-109391142D01*
X83827619Y-109439523D01*
X83803428Y-109463714D01*
X83755047Y-109487904D01*
X83561523Y-109487904D01*
X84069523Y-109729809D02*
X84069523Y-109221809D01*
X84238857Y-109584666D01*
X84408190Y-109221809D01*
X84408190Y-109729809D01*
X84625904Y-109270190D02*
X84650095Y-109246000D01*
X84698476Y-109221809D01*
X84819428Y-109221809D01*
X84867809Y-109246000D01*
X84892000Y-109270190D01*
X84916190Y-109318571D01*
X84916190Y-109366952D01*
X84892000Y-109439523D01*
X84601714Y-109729809D01*
X84916190Y-109729809D01*
X85351619Y-109391142D02*
X85351619Y-109729809D01*
X85230666Y-109197619D02*
X85109714Y-109560476D01*
X85424190Y-109560476D01*
X85714476Y-109221809D02*
X85762857Y-109221809D01*
X85811238Y-109246000D01*
X85835428Y-109270190D01*
X85859619Y-109318571D01*
X85883809Y-109415333D01*
X85883809Y-109536285D01*
X85859619Y-109633047D01*
X85835428Y-109681428D01*
X85811238Y-109705619D01*
X85762857Y-109729809D01*
X85714476Y-109729809D01*
X85666095Y-109705619D01*
X85641904Y-109681428D01*
X85617714Y-109633047D01*
X85593523Y-109536285D01*
X85593523Y-109415333D01*
X85617714Y-109318571D01*
X85641904Y-109270190D01*
X85666095Y-109246000D01*
X85714476Y-109221809D01*
X86028952Y-109221809D02*
X86319238Y-109221809D01*
X86174095Y-109729809D02*
X86174095Y-109221809D01*
X86754666Y-109729809D02*
X86464380Y-109729809D01*
X86609523Y-109729809D02*
X86609523Y-109221809D01*
X86561142Y-109294380D01*
X86512761Y-109342761D01*
X86464380Y-109366952D01*
X87069142Y-109221809D02*
X87117523Y-109221809D01*
X87165904Y-109246000D01*
X87190095Y-109270190D01*
X87214285Y-109318571D01*
X87238476Y-109415333D01*
X87238476Y-109536285D01*
X87214285Y-109633047D01*
X87190095Y-109681428D01*
X87165904Y-109705619D01*
X87117523Y-109729809D01*
X87069142Y-109729809D01*
X87020761Y-109705619D01*
X86996571Y-109681428D01*
X86972380Y-109633047D01*
X86948190Y-109536285D01*
X86948190Y-109415333D01*
X86972380Y-109318571D01*
X86996571Y-109270190D01*
X87020761Y-109246000D01*
X87069142Y-109221809D01*
X87552952Y-109221809D02*
X87601333Y-109221809D01*
X87649714Y-109246000D01*
X87673904Y-109270190D01*
X87698095Y-109318571D01*
X87722285Y-109415333D01*
X87722285Y-109536285D01*
X87698095Y-109633047D01*
X87673904Y-109681428D01*
X87649714Y-109705619D01*
X87601333Y-109729809D01*
X87552952Y-109729809D01*
X87504571Y-109705619D01*
X87480380Y-109681428D01*
X87456190Y-109633047D01*
X87432000Y-109536285D01*
X87432000Y-109415333D01*
X87456190Y-109318571D01*
X87480380Y-109270190D01*
X87504571Y-109246000D01*
X87552952Y-109221809D01*
D10*
X110693238Y-123243952D02*
X110693238Y-122843952D01*
X110693238Y-123034428D02*
X110921809Y-123034428D01*
X110921809Y-123243952D02*
X110921809Y-122843952D01*
X111302761Y-122843952D02*
X111112285Y-122843952D01*
X111093238Y-123034428D01*
X111112285Y-123015380D01*
X111150380Y-122996333D01*
X111245619Y-122996333D01*
X111283714Y-123015380D01*
X111302761Y-123034428D01*
X111321809Y-123072523D01*
X111321809Y-123167761D01*
X111302761Y-123205857D01*
X111283714Y-123224904D01*
X111245619Y-123243952D01*
X111150380Y-123243952D01*
X111112285Y-123224904D01*
X111093238Y-123205857D01*
D15*
X84057066Y-139889895D02*
X84057066Y-140470466D01*
X84018361Y-140586580D01*
X83940952Y-140663990D01*
X83824838Y-140702695D01*
X83747428Y-140702695D01*
X84869866Y-140702695D02*
X84405409Y-140702695D01*
X84637638Y-140702695D02*
X84637638Y-139889895D01*
X84560228Y-140006009D01*
X84482819Y-140083419D01*
X84405409Y-140122123D01*
X78870628Y-141845695D02*
X78870628Y-141032895D01*
X79141561Y-141613466D01*
X79412495Y-141032895D01*
X79412495Y-141845695D01*
X80109180Y-141806990D02*
X80031771Y-141845695D01*
X79876952Y-141845695D01*
X79799542Y-141806990D01*
X79760838Y-141729580D01*
X79760838Y-141419942D01*
X79799542Y-141342533D01*
X79876952Y-141303828D01*
X80031771Y-141303828D01*
X80109180Y-141342533D01*
X80147885Y-141419942D01*
X80147885Y-141497352D01*
X79760838Y-141574761D01*
X80496228Y-141845695D02*
X80496228Y-141303828D01*
X80496228Y-141381238D02*
X80534933Y-141342533D01*
X80612342Y-141303828D01*
X80728457Y-141303828D01*
X80805866Y-141342533D01*
X80844571Y-141419942D01*
X80844571Y-141845695D01*
X80844571Y-141419942D02*
X80883276Y-141342533D01*
X80960685Y-141303828D01*
X81076800Y-141303828D01*
X81154209Y-141342533D01*
X81192914Y-141419942D01*
X81192914Y-141845695D01*
X81696076Y-141845695D02*
X81618666Y-141806990D01*
X81579961Y-141768285D01*
X81541257Y-141690876D01*
X81541257Y-141458647D01*
X81579961Y-141381238D01*
X81618666Y-141342533D01*
X81696076Y-141303828D01*
X81812190Y-141303828D01*
X81889600Y-141342533D01*
X81928304Y-141381238D01*
X81967009Y-141458647D01*
X81967009Y-141690876D01*
X81928304Y-141768285D01*
X81889600Y-141806990D01*
X81812190Y-141845695D01*
X81696076Y-141845695D01*
X82315352Y-141845695D02*
X82315352Y-141303828D01*
X82315352Y-141458647D02*
X82354057Y-141381238D01*
X82392761Y-141342533D01*
X82470171Y-141303828D01*
X82547580Y-141303828D01*
X82741104Y-141303828D02*
X82934628Y-141845695D01*
X83128152Y-141303828D02*
X82934628Y-141845695D01*
X82857219Y-142039219D01*
X82818514Y-142077923D01*
X82741104Y-142116628D01*
X84057066Y-141419942D02*
X84328000Y-141419942D01*
X84444114Y-141845695D02*
X84057066Y-141845695D01*
X84057066Y-141032895D01*
X84444114Y-141032895D01*
X84715047Y-141845695D02*
X85140800Y-141303828D01*
X84715047Y-141303828D02*
X85140800Y-141845695D01*
X85450438Y-141303828D02*
X85450438Y-142116628D01*
X85450438Y-141342533D02*
X85527847Y-141303828D01*
X85682666Y-141303828D01*
X85760076Y-141342533D01*
X85798780Y-141381238D01*
X85837485Y-141458647D01*
X85837485Y-141690876D01*
X85798780Y-141768285D01*
X85760076Y-141806990D01*
X85682666Y-141845695D01*
X85527847Y-141845695D01*
X85450438Y-141806990D01*
X86534171Y-141845695D02*
X86534171Y-141419942D01*
X86495466Y-141342533D01*
X86418057Y-141303828D01*
X86263238Y-141303828D01*
X86185828Y-141342533D01*
X86534171Y-141806990D02*
X86456761Y-141845695D01*
X86263238Y-141845695D01*
X86185828Y-141806990D01*
X86147123Y-141729580D01*
X86147123Y-141652171D01*
X86185828Y-141574761D01*
X86263238Y-141536057D01*
X86456761Y-141536057D01*
X86534171Y-141497352D01*
X86921219Y-141303828D02*
X86921219Y-141845695D01*
X86921219Y-141381238D02*
X86959923Y-141342533D01*
X87037333Y-141303828D01*
X87153447Y-141303828D01*
X87230857Y-141342533D01*
X87269561Y-141419942D01*
X87269561Y-141845695D01*
X87617904Y-141806990D02*
X87695314Y-141845695D01*
X87850133Y-141845695D01*
X87927542Y-141806990D01*
X87966247Y-141729580D01*
X87966247Y-141690876D01*
X87927542Y-141613466D01*
X87850133Y-141574761D01*
X87734019Y-141574761D01*
X87656609Y-141536057D01*
X87617904Y-141458647D01*
X87617904Y-141419942D01*
X87656609Y-141342533D01*
X87734019Y-141303828D01*
X87850133Y-141303828D01*
X87927542Y-141342533D01*
X88314590Y-141845695D02*
X88314590Y-141303828D01*
X88314590Y-141032895D02*
X88275885Y-141071600D01*
X88314590Y-141110304D01*
X88353295Y-141071600D01*
X88314590Y-141032895D01*
X88314590Y-141110304D01*
X88817752Y-141845695D02*
X88740342Y-141806990D01*
X88701638Y-141768285D01*
X88662933Y-141690876D01*
X88662933Y-141458647D01*
X88701638Y-141381238D01*
X88740342Y-141342533D01*
X88817752Y-141303828D01*
X88933866Y-141303828D01*
X89011276Y-141342533D01*
X89049980Y-141381238D01*
X89088685Y-141458647D01*
X89088685Y-141690876D01*
X89049980Y-141768285D01*
X89011276Y-141806990D01*
X88933866Y-141845695D01*
X88817752Y-141845695D01*
X89437028Y-141303828D02*
X89437028Y-141845695D01*
X89437028Y-141381238D02*
X89475733Y-141342533D01*
X89553142Y-141303828D01*
X89669257Y-141303828D01*
X89746666Y-141342533D01*
X89785371Y-141419942D01*
X89785371Y-141845695D01*
X106832210Y-97312737D02*
X106421684Y-97723263D01*
X106312211Y-97778000D01*
X106202737Y-97778000D01*
X106093264Y-97723263D01*
X106038527Y-97668526D01*
X107023789Y-97504316D02*
X107352210Y-97832737D01*
X106613263Y-98243263D02*
X107188000Y-97668526D01*
X107105894Y-98407473D02*
X107379578Y-98681157D01*
X106886947Y-98516947D02*
X107653262Y-98133789D01*
X107270105Y-98900104D01*
X108310104Y-98845367D02*
X108282735Y-98763262D01*
X108200630Y-98681157D01*
X108091157Y-98626420D01*
X107981683Y-98626420D01*
X107899578Y-98653789D01*
X107762736Y-98735894D01*
X107680631Y-98817999D01*
X107598525Y-98954841D01*
X107571157Y-99036946D01*
X107571157Y-99146420D01*
X107625894Y-99255893D01*
X107680631Y-99310630D01*
X107790104Y-99365367D01*
X107844841Y-99365367D01*
X108036420Y-99173788D01*
X107926946Y-99064315D01*
X105279157Y-95759684D02*
X104868631Y-96170210D01*
X104759158Y-96224947D01*
X104649684Y-96224947D01*
X104540211Y-96170210D01*
X104485474Y-96115473D01*
X105470736Y-96060737D02*
X105525473Y-96060737D01*
X105607578Y-96088105D01*
X105744420Y-96224947D01*
X105771788Y-96307052D01*
X105771788Y-96361789D01*
X105744420Y-96443894D01*
X105689683Y-96498631D01*
X105580210Y-96553368D01*
X104923368Y-96553368D01*
X105279157Y-96909157D01*
D11*
X69712952Y-110621809D02*
X69712952Y-111033047D01*
X69737142Y-111081428D01*
X69761333Y-111105619D01*
X69809714Y-111129809D01*
X69906476Y-111129809D01*
X69954857Y-111105619D01*
X69979047Y-111081428D01*
X70003238Y-111033047D01*
X70003238Y-110621809D01*
X70196761Y-110621809D02*
X70511238Y-110621809D01*
X70341904Y-110815333D01*
X70414476Y-110815333D01*
X70462857Y-110839523D01*
X70487047Y-110863714D01*
X70511238Y-110912095D01*
X70511238Y-111033047D01*
X70487047Y-111081428D01*
X70462857Y-111105619D01*
X70414476Y-111129809D01*
X70269333Y-111129809D01*
X70220952Y-111105619D01*
X70196761Y-111081428D01*
X69664571Y-112721809D02*
X69567809Y-112721809D01*
X69519428Y-112746000D01*
X69495238Y-112770190D01*
X69446857Y-112842761D01*
X69422666Y-112939523D01*
X69422666Y-113133047D01*
X69446857Y-113181428D01*
X69471047Y-113205619D01*
X69519428Y-113229809D01*
X69616190Y-113229809D01*
X69664571Y-113205619D01*
X69688761Y-113181428D01*
X69712952Y-113133047D01*
X69712952Y-113012095D01*
X69688761Y-112963714D01*
X69664571Y-112939523D01*
X69616190Y-112915333D01*
X69519428Y-112915333D01*
X69471047Y-112939523D01*
X69446857Y-112963714D01*
X69422666Y-113012095D01*
X70027428Y-112721809D02*
X70075809Y-112721809D01*
X70124190Y-112746000D01*
X70148380Y-112770190D01*
X70172571Y-112818571D01*
X70196761Y-112915333D01*
X70196761Y-113036285D01*
X70172571Y-113133047D01*
X70148380Y-113181428D01*
X70124190Y-113205619D01*
X70075809Y-113229809D01*
X70027428Y-113229809D01*
X69979047Y-113205619D01*
X69954857Y-113181428D01*
X69930666Y-113133047D01*
X69906476Y-113036285D01*
X69906476Y-112915333D01*
X69930666Y-112818571D01*
X69954857Y-112770190D01*
X69979047Y-112746000D01*
X70027428Y-112721809D01*
X70414476Y-113229809D02*
X70414476Y-112721809D01*
X70583809Y-113084666D01*
X70753142Y-112721809D01*
X70753142Y-113229809D01*
X106632809Y-112940095D02*
X106632809Y-113182000D01*
X106124809Y-113182000D01*
X106632809Y-112770761D02*
X106124809Y-112770761D01*
X106124809Y-112649809D01*
X106149000Y-112577238D01*
X106197380Y-112528857D01*
X106245761Y-112504666D01*
X106342523Y-112480476D01*
X106415095Y-112480476D01*
X106511857Y-112504666D01*
X106560238Y-112528857D01*
X106608619Y-112577238D01*
X106632809Y-112649809D01*
X106632809Y-112770761D01*
X106632809Y-111996666D02*
X106632809Y-112286952D01*
X106632809Y-112141809D02*
X106124809Y-112141809D01*
X106197380Y-112190190D01*
X106245761Y-112238571D01*
X106269952Y-112286952D01*
X106632809Y-111512857D02*
X106632809Y-111803142D01*
X106632809Y-111658000D02*
X106124809Y-111658000D01*
X106197380Y-111706380D01*
X106245761Y-111754761D01*
X106269952Y-111803142D01*
X106632809Y-111029047D02*
X106632809Y-111319333D01*
X106632809Y-111174190D02*
X106124809Y-111174190D01*
X106197380Y-111222571D01*
X106245761Y-111270952D01*
X106269952Y-111319333D01*
X106124809Y-110859714D02*
X106124809Y-110521047D01*
X106632809Y-110738761D01*
X106608619Y-110351714D02*
X106632809Y-110279142D01*
X106632809Y-110158190D01*
X106608619Y-110109809D01*
X106584428Y-110085619D01*
X106536047Y-110061428D01*
X106487666Y-110061428D01*
X106439285Y-110085619D01*
X106415095Y-110109809D01*
X106390904Y-110158190D01*
X106366714Y-110254952D01*
X106342523Y-110303333D01*
X106318333Y-110327523D01*
X106269952Y-110351714D01*
X106221571Y-110351714D01*
X106173190Y-110327523D01*
X106149000Y-110303333D01*
X106124809Y-110254952D01*
X106124809Y-110134000D01*
X106149000Y-110061428D01*
X106124809Y-109892095D02*
X106124809Y-109577619D01*
X106318333Y-109746952D01*
X106318333Y-109674380D01*
X106342523Y-109626000D01*
X106366714Y-109601809D01*
X106415095Y-109577619D01*
X106536047Y-109577619D01*
X106584428Y-109601809D01*
X106608619Y-109626000D01*
X106632809Y-109674380D01*
X106632809Y-109819523D01*
X106608619Y-109867904D01*
X106584428Y-109892095D01*
X106124809Y-109408285D02*
X106124809Y-109093809D01*
X106318333Y-109263142D01*
X106318333Y-109190571D01*
X106342523Y-109142190D01*
X106366714Y-109118000D01*
X106415095Y-109093809D01*
X106536047Y-109093809D01*
X106584428Y-109118000D01*
X106608619Y-109142190D01*
X106632809Y-109190571D01*
X106632809Y-109335714D01*
X106608619Y-109384095D01*
X106584428Y-109408285D01*
D15*
X104941895Y-111769276D02*
X105599876Y-111769276D01*
X105677285Y-111730571D01*
X105715990Y-111691866D01*
X105754695Y-111614457D01*
X105754695Y-111459638D01*
X105715990Y-111382228D01*
X105677285Y-111343523D01*
X105599876Y-111304819D01*
X104941895Y-111304819D01*
X105290238Y-110801657D02*
X105251533Y-110879066D01*
X105212828Y-110917771D01*
X105135419Y-110956476D01*
X105096714Y-110956476D01*
X105019304Y-110917771D01*
X104980600Y-110879066D01*
X104941895Y-110801657D01*
X104941895Y-110646838D01*
X104980600Y-110569428D01*
X105019304Y-110530723D01*
X105096714Y-110492019D01*
X105135419Y-110492019D01*
X105212828Y-110530723D01*
X105251533Y-110569428D01*
X105290238Y-110646838D01*
X105290238Y-110801657D01*
X105328942Y-110879066D01*
X105367647Y-110917771D01*
X105445057Y-110956476D01*
X105599876Y-110956476D01*
X105677285Y-110917771D01*
X105715990Y-110879066D01*
X105754695Y-110801657D01*
X105754695Y-110646838D01*
X105715990Y-110569428D01*
X105677285Y-110530723D01*
X105599876Y-110492019D01*
X105445057Y-110492019D01*
X105367647Y-110530723D01*
X105328942Y-110569428D01*
X105290238Y-110646838D01*
X58530723Y-111204895D02*
X58530723Y-111862876D01*
X58569428Y-111940285D01*
X58608133Y-111978990D01*
X58685542Y-112017695D01*
X58840361Y-112017695D01*
X58917771Y-111978990D01*
X58956476Y-111940285D01*
X58995180Y-111862876D01*
X58995180Y-111204895D01*
X59343523Y-111282304D02*
X59382228Y-111243600D01*
X59459638Y-111204895D01*
X59653161Y-111204895D01*
X59730571Y-111243600D01*
X59769276Y-111282304D01*
X59807980Y-111359714D01*
X59807980Y-111437123D01*
X59769276Y-111553238D01*
X59304819Y-112017695D01*
X59807980Y-112017695D01*
D11*
X56392285Y-112321809D02*
X56513238Y-112829809D01*
X56610000Y-112466952D01*
X56706761Y-112829809D01*
X56827714Y-112321809D01*
X57045428Y-112829809D02*
X57142190Y-112829809D01*
X57190571Y-112805619D01*
X57214761Y-112781428D01*
X57263142Y-112708857D01*
X57287333Y-112612095D01*
X57287333Y-112418571D01*
X57263142Y-112370190D01*
X57238952Y-112346000D01*
X57190571Y-112321809D01*
X57093809Y-112321809D01*
X57045428Y-112346000D01*
X57021238Y-112370190D01*
X56997047Y-112418571D01*
X56997047Y-112539523D01*
X57021238Y-112587904D01*
X57045428Y-112612095D01*
X57093809Y-112636285D01*
X57190571Y-112636285D01*
X57238952Y-112612095D01*
X57263142Y-112587904D01*
X57287333Y-112539523D01*
X57577619Y-112539523D02*
X57529238Y-112515333D01*
X57505047Y-112491142D01*
X57480857Y-112442761D01*
X57480857Y-112418571D01*
X57505047Y-112370190D01*
X57529238Y-112346000D01*
X57577619Y-112321809D01*
X57674380Y-112321809D01*
X57722761Y-112346000D01*
X57746952Y-112370190D01*
X57771142Y-112418571D01*
X57771142Y-112442761D01*
X57746952Y-112491142D01*
X57722761Y-112515333D01*
X57674380Y-112539523D01*
X57577619Y-112539523D01*
X57529238Y-112563714D01*
X57505047Y-112587904D01*
X57480857Y-112636285D01*
X57480857Y-112733047D01*
X57505047Y-112781428D01*
X57529238Y-112805619D01*
X57577619Y-112829809D01*
X57674380Y-112829809D01*
X57722761Y-112805619D01*
X57746952Y-112781428D01*
X57771142Y-112733047D01*
X57771142Y-112636285D01*
X57746952Y-112587904D01*
X57722761Y-112563714D01*
X57674380Y-112539523D01*
X58206571Y-112321809D02*
X58109809Y-112321809D01*
X58061428Y-112346000D01*
X58037238Y-112370190D01*
X57988857Y-112442761D01*
X57964666Y-112539523D01*
X57964666Y-112733047D01*
X57988857Y-112781428D01*
X58013047Y-112805619D01*
X58061428Y-112829809D01*
X58158190Y-112829809D01*
X58206571Y-112805619D01*
X58230761Y-112781428D01*
X58254952Y-112733047D01*
X58254952Y-112612095D01*
X58230761Y-112563714D01*
X58206571Y-112539523D01*
X58158190Y-112515333D01*
X58061428Y-112515333D01*
X58013047Y-112539523D01*
X57988857Y-112563714D01*
X57964666Y-112612095D01*
X58690380Y-112491142D02*
X58690380Y-112829809D01*
X58569428Y-112297619D02*
X58448476Y-112660476D01*
X58762952Y-112660476D01*
X59222571Y-112346000D02*
X59174190Y-112321809D01*
X59101619Y-112321809D01*
X59029047Y-112346000D01*
X58980666Y-112394380D01*
X58956476Y-112442761D01*
X58932285Y-112539523D01*
X58932285Y-112612095D01*
X58956476Y-112708857D01*
X58980666Y-112757238D01*
X59029047Y-112805619D01*
X59101619Y-112829809D01*
X59150000Y-112829809D01*
X59222571Y-112805619D01*
X59246761Y-112781428D01*
X59246761Y-112612095D01*
X59150000Y-112612095D01*
X59682190Y-112321809D02*
X59585428Y-112321809D01*
X59537047Y-112346000D01*
X59512857Y-112370190D01*
X59464476Y-112442761D01*
X59440285Y-112539523D01*
X59440285Y-112733047D01*
X59464476Y-112781428D01*
X59488666Y-112805619D01*
X59537047Y-112829809D01*
X59633809Y-112829809D01*
X59682190Y-112805619D01*
X59706380Y-112781428D01*
X59730571Y-112733047D01*
X59730571Y-112612095D01*
X59706380Y-112563714D01*
X59682190Y-112539523D01*
X59633809Y-112515333D01*
X59537047Y-112515333D01*
X59488666Y-112539523D01*
X59464476Y-112563714D01*
X59440285Y-112612095D01*
X59948285Y-112829809D02*
X59948285Y-112321809D01*
X60238571Y-112829809D02*
X60020857Y-112539523D01*
X60238571Y-112321809D02*
X59948285Y-112612095D01*
X60456285Y-112829809D02*
X60456285Y-112321809D01*
X60456285Y-112563714D02*
X60746571Y-112563714D01*
X60746571Y-112829809D02*
X60746571Y-112321809D01*
X60988476Y-112636285D02*
X61375523Y-112636285D01*
X61835142Y-112321809D02*
X61738380Y-112321809D01*
X61690000Y-112346000D01*
X61665809Y-112370190D01*
X61617428Y-112442761D01*
X61593238Y-112539523D01*
X61593238Y-112733047D01*
X61617428Y-112781428D01*
X61641619Y-112805619D01*
X61690000Y-112829809D01*
X61786761Y-112829809D01*
X61835142Y-112805619D01*
X61859333Y-112781428D01*
X61883523Y-112733047D01*
X61883523Y-112612095D01*
X61859333Y-112563714D01*
X61835142Y-112539523D01*
X61786761Y-112515333D01*
X61690000Y-112515333D01*
X61641619Y-112539523D01*
X61617428Y-112563714D01*
X61593238Y-112612095D01*
D13*
X107657666Y-116240714D02*
X107645571Y-116252809D01*
X107609285Y-116264904D01*
X107585095Y-116264904D01*
X107548809Y-116252809D01*
X107524619Y-116228619D01*
X107512523Y-116204428D01*
X107500428Y-116156047D01*
X107500428Y-116119761D01*
X107512523Y-116071380D01*
X107524619Y-116047190D01*
X107548809Y-116023000D01*
X107585095Y-116010904D01*
X107609285Y-116010904D01*
X107645571Y-116023000D01*
X107657666Y-116035095D01*
X107875380Y-116095571D02*
X107875380Y-116264904D01*
X107814904Y-115998809D02*
X107754428Y-116180238D01*
X107911666Y-116180238D01*
X107536714Y-116614904D02*
X107391571Y-116614904D01*
X107464142Y-116614904D02*
X107464142Y-116360904D01*
X107439952Y-116397190D01*
X107415761Y-116421380D01*
X107391571Y-116433476D01*
X107693952Y-116360904D02*
X107718142Y-116360904D01*
X107742333Y-116373000D01*
X107754428Y-116385095D01*
X107766523Y-116409285D01*
X107778619Y-116457666D01*
X107778619Y-116518142D01*
X107766523Y-116566523D01*
X107754428Y-116590714D01*
X107742333Y-116602809D01*
X107718142Y-116614904D01*
X107693952Y-116614904D01*
X107669761Y-116602809D01*
X107657666Y-116590714D01*
X107645571Y-116566523D01*
X107633476Y-116518142D01*
X107633476Y-116457666D01*
X107645571Y-116409285D01*
X107657666Y-116385095D01*
X107669761Y-116373000D01*
X107693952Y-116360904D01*
X107996333Y-116445571D02*
X107996333Y-116614904D01*
X107887476Y-116445571D02*
X107887476Y-116578619D01*
X107899571Y-116602809D01*
X107923761Y-116614904D01*
X107960047Y-116614904D01*
X107984238Y-116602809D01*
X107996333Y-116590714D01*
X109457666Y-105640714D02*
X109445571Y-105652809D01*
X109409285Y-105664904D01*
X109385095Y-105664904D01*
X109348809Y-105652809D01*
X109324619Y-105628619D01*
X109312523Y-105604428D01*
X109300428Y-105556047D01*
X109300428Y-105519761D01*
X109312523Y-105471380D01*
X109324619Y-105447190D01*
X109348809Y-105423000D01*
X109385095Y-105410904D01*
X109409285Y-105410904D01*
X109445571Y-105423000D01*
X109457666Y-105435095D01*
X109542333Y-105410904D02*
X109699571Y-105410904D01*
X109614904Y-105507666D01*
X109651190Y-105507666D01*
X109675380Y-105519761D01*
X109687476Y-105531857D01*
X109699571Y-105556047D01*
X109699571Y-105616523D01*
X109687476Y-105640714D01*
X109675380Y-105652809D01*
X109651190Y-105664904D01*
X109578619Y-105664904D01*
X109554428Y-105652809D01*
X109542333Y-105640714D01*
X109336714Y-106014904D02*
X109191571Y-106014904D01*
X109264142Y-106014904D02*
X109264142Y-105760904D01*
X109239952Y-105797190D01*
X109215761Y-105821380D01*
X109191571Y-105833476D01*
X109493952Y-105760904D02*
X109518142Y-105760904D01*
X109542333Y-105773000D01*
X109554428Y-105785095D01*
X109566523Y-105809285D01*
X109578619Y-105857666D01*
X109578619Y-105918142D01*
X109566523Y-105966523D01*
X109554428Y-105990714D01*
X109542333Y-106002809D01*
X109518142Y-106014904D01*
X109493952Y-106014904D01*
X109469761Y-106002809D01*
X109457666Y-105990714D01*
X109445571Y-105966523D01*
X109433476Y-105918142D01*
X109433476Y-105857666D01*
X109445571Y-105809285D01*
X109457666Y-105785095D01*
X109469761Y-105773000D01*
X109493952Y-105760904D01*
X109796333Y-105845571D02*
X109796333Y-106014904D01*
X109687476Y-105845571D02*
X109687476Y-105978619D01*
X109699571Y-106002809D01*
X109723761Y-106014904D01*
X109760047Y-106014904D01*
X109784238Y-106002809D01*
X109796333Y-105990714D01*
X109939666Y-127979714D02*
X109927571Y-127991809D01*
X109891285Y-128003904D01*
X109867095Y-128003904D01*
X109830809Y-127991809D01*
X109806619Y-127967619D01*
X109794523Y-127943428D01*
X109782428Y-127895047D01*
X109782428Y-127858761D01*
X109794523Y-127810380D01*
X109806619Y-127786190D01*
X109830809Y-127762000D01*
X109867095Y-127749904D01*
X109891285Y-127749904D01*
X109927571Y-127762000D01*
X109939666Y-127774095D01*
X110036428Y-127774095D02*
X110048523Y-127762000D01*
X110072714Y-127749904D01*
X110133190Y-127749904D01*
X110157380Y-127762000D01*
X110169476Y-127774095D01*
X110181571Y-127798285D01*
X110181571Y-127822476D01*
X110169476Y-127858761D01*
X110024333Y-128003904D01*
X110181571Y-128003904D01*
X109818714Y-128353904D02*
X109673571Y-128353904D01*
X109746142Y-128353904D02*
X109746142Y-128099904D01*
X109721952Y-128136190D01*
X109697761Y-128160380D01*
X109673571Y-128172476D01*
X109975952Y-128099904D02*
X110000142Y-128099904D01*
X110024333Y-128112000D01*
X110036428Y-128124095D01*
X110048523Y-128148285D01*
X110060619Y-128196666D01*
X110060619Y-128257142D01*
X110048523Y-128305523D01*
X110036428Y-128329714D01*
X110024333Y-128341809D01*
X110000142Y-128353904D01*
X109975952Y-128353904D01*
X109951761Y-128341809D01*
X109939666Y-128329714D01*
X109927571Y-128305523D01*
X109915476Y-128257142D01*
X109915476Y-128196666D01*
X109927571Y-128148285D01*
X109939666Y-128124095D01*
X109951761Y-128112000D01*
X109975952Y-128099904D01*
X110278333Y-128184571D02*
X110278333Y-128353904D01*
X110169476Y-128184571D02*
X110169476Y-128317619D01*
X110181571Y-128341809D01*
X110205761Y-128353904D01*
X110242047Y-128353904D01*
X110266238Y-128341809D01*
X110278333Y-128329714D01*
X58885666Y-128868714D02*
X58873571Y-128880809D01*
X58837285Y-128892904D01*
X58813095Y-128892904D01*
X58776809Y-128880809D01*
X58752619Y-128856619D01*
X58740523Y-128832428D01*
X58728428Y-128784047D01*
X58728428Y-128747761D01*
X58740523Y-128699380D01*
X58752619Y-128675190D01*
X58776809Y-128651000D01*
X58813095Y-128638904D01*
X58837285Y-128638904D01*
X58873571Y-128651000D01*
X58885666Y-128663095D01*
X59127571Y-128892904D02*
X58982428Y-128892904D01*
X59055000Y-128892904D02*
X59055000Y-128638904D01*
X59030809Y-128675190D01*
X59006619Y-128699380D01*
X58982428Y-128711476D01*
X58764714Y-128542904D02*
X58619571Y-128542904D01*
X58692142Y-128542904D02*
X58692142Y-128288904D01*
X58667952Y-128325190D01*
X58643761Y-128349380D01*
X58619571Y-128361476D01*
X58921952Y-128288904D02*
X58946142Y-128288904D01*
X58970333Y-128301000D01*
X58982428Y-128313095D01*
X58994523Y-128337285D01*
X59006619Y-128385666D01*
X59006619Y-128446142D01*
X58994523Y-128494523D01*
X58982428Y-128518714D01*
X58970333Y-128530809D01*
X58946142Y-128542904D01*
X58921952Y-128542904D01*
X58897761Y-128530809D01*
X58885666Y-128518714D01*
X58873571Y-128494523D01*
X58861476Y-128446142D01*
X58861476Y-128385666D01*
X58873571Y-128337285D01*
X58885666Y-128313095D01*
X58897761Y-128301000D01*
X58921952Y-128288904D01*
X59224333Y-128373571D02*
X59224333Y-128542904D01*
X59115476Y-128373571D02*
X59115476Y-128506619D01*
X59127571Y-128530809D01*
X59151761Y-128542904D01*
X59188047Y-128542904D01*
X59212238Y-128530809D01*
X59224333Y-128518714D01*
X76390714Y-117563285D02*
X76402809Y-117575380D01*
X76414904Y-117611666D01*
X76414904Y-117635857D01*
X76402809Y-117672142D01*
X76378619Y-117696333D01*
X76354428Y-117708428D01*
X76306047Y-117720523D01*
X76269761Y-117720523D01*
X76221380Y-117708428D01*
X76197190Y-117696333D01*
X76173000Y-117672142D01*
X76160904Y-117635857D01*
X76160904Y-117611666D01*
X76173000Y-117575380D01*
X76185095Y-117563285D01*
X76414904Y-117321380D02*
X76414904Y-117466523D01*
X76414904Y-117393952D02*
X76160904Y-117393952D01*
X76197190Y-117418142D01*
X76221380Y-117442333D01*
X76233476Y-117466523D01*
X76160904Y-117164142D02*
X76160904Y-117139952D01*
X76173000Y-117115761D01*
X76185095Y-117103666D01*
X76209285Y-117091571D01*
X76257666Y-117079476D01*
X76318142Y-117079476D01*
X76366523Y-117091571D01*
X76390714Y-117103666D01*
X76402809Y-117115761D01*
X76414904Y-117139952D01*
X76414904Y-117164142D01*
X76402809Y-117188333D01*
X76390714Y-117200428D01*
X76366523Y-117212523D01*
X76318142Y-117224619D01*
X76257666Y-117224619D01*
X76209285Y-117212523D01*
X76185095Y-117200428D01*
X76173000Y-117188333D01*
X76160904Y-117164142D01*
D16*
X76492547Y-117554214D02*
X76486500Y-117548166D01*
X76480452Y-117536071D01*
X76480452Y-117505833D01*
X76486500Y-117493738D01*
X76492547Y-117487690D01*
X76504642Y-117481642D01*
X76516738Y-117481642D01*
X76534880Y-117487690D01*
X76607452Y-117560261D01*
X76607452Y-117481642D01*
X76522785Y-117372785D02*
X76607452Y-117372785D01*
X76522785Y-117427214D02*
X76589309Y-117427214D01*
X76601404Y-117421166D01*
X76607452Y-117409071D01*
X76607452Y-117390928D01*
X76601404Y-117378833D01*
X76595357Y-117372785D01*
X76492547Y-117318357D02*
X76486500Y-117312309D01*
X76480452Y-117300214D01*
X76480452Y-117269976D01*
X76486500Y-117257880D01*
X76492547Y-117251833D01*
X76504642Y-117245785D01*
X76516738Y-117245785D01*
X76534880Y-117251833D01*
X76607452Y-117324404D01*
X76607452Y-117245785D01*
D13*
X72690714Y-123292333D02*
X72702809Y-123304428D01*
X72714904Y-123340714D01*
X72714904Y-123364904D01*
X72702809Y-123401190D01*
X72678619Y-123425380D01*
X72654428Y-123437476D01*
X72606047Y-123449571D01*
X72569761Y-123449571D01*
X72521380Y-123437476D01*
X72497190Y-123425380D01*
X72473000Y-123401190D01*
X72460904Y-123364904D01*
X72460904Y-123340714D01*
X72473000Y-123304428D01*
X72485095Y-123292333D01*
X72460904Y-123062523D02*
X72460904Y-123183476D01*
X72581857Y-123195571D01*
X72569761Y-123183476D01*
X72557666Y-123159285D01*
X72557666Y-123098809D01*
X72569761Y-123074619D01*
X72581857Y-123062523D01*
X72606047Y-123050428D01*
X72666523Y-123050428D01*
X72690714Y-123062523D01*
X72702809Y-123074619D01*
X72714904Y-123098809D01*
X72714904Y-123159285D01*
X72702809Y-123183476D01*
X72690714Y-123195571D01*
D16*
X72292547Y-123404214D02*
X72286500Y-123398166D01*
X72280452Y-123386071D01*
X72280452Y-123355833D01*
X72286500Y-123343738D01*
X72292547Y-123337690D01*
X72304642Y-123331642D01*
X72316738Y-123331642D01*
X72334880Y-123337690D01*
X72407452Y-123410261D01*
X72407452Y-123331642D01*
X72322785Y-123222785D02*
X72407452Y-123222785D01*
X72322785Y-123277214D02*
X72389309Y-123277214D01*
X72401404Y-123271166D01*
X72407452Y-123259071D01*
X72407452Y-123240928D01*
X72401404Y-123228833D01*
X72395357Y-123222785D01*
X72292547Y-123168357D02*
X72286500Y-123162309D01*
X72280452Y-123150214D01*
X72280452Y-123119976D01*
X72286500Y-123107880D01*
X72292547Y-123101833D01*
X72304642Y-123095785D01*
X72316738Y-123095785D01*
X72334880Y-123101833D01*
X72407452Y-123174404D01*
X72407452Y-123095785D01*
D13*
X95190714Y-108213285D02*
X95202809Y-108225380D01*
X95214904Y-108261666D01*
X95214904Y-108285857D01*
X95202809Y-108322142D01*
X95178619Y-108346333D01*
X95154428Y-108358428D01*
X95106047Y-108370523D01*
X95069761Y-108370523D01*
X95021380Y-108358428D01*
X94997190Y-108346333D01*
X94973000Y-108322142D01*
X94960904Y-108285857D01*
X94960904Y-108261666D01*
X94973000Y-108225380D01*
X94985095Y-108213285D01*
X95214904Y-107971380D02*
X95214904Y-108116523D01*
X95214904Y-108043952D02*
X94960904Y-108043952D01*
X94997190Y-108068142D01*
X95021380Y-108092333D01*
X95033476Y-108116523D01*
X95045571Y-107753666D02*
X95214904Y-107753666D01*
X94948809Y-107814142D02*
X95130238Y-107874619D01*
X95130238Y-107717380D01*
D16*
X95292547Y-108204214D02*
X95286500Y-108198166D01*
X95280452Y-108186071D01*
X95280452Y-108155833D01*
X95286500Y-108143738D01*
X95292547Y-108137690D01*
X95304642Y-108131642D01*
X95316738Y-108131642D01*
X95334880Y-108137690D01*
X95407452Y-108210261D01*
X95407452Y-108131642D01*
X95322785Y-108022785D02*
X95407452Y-108022785D01*
X95322785Y-108077214D02*
X95389309Y-108077214D01*
X95401404Y-108071166D01*
X95407452Y-108059071D01*
X95407452Y-108040928D01*
X95401404Y-108028833D01*
X95395357Y-108022785D01*
X95292547Y-107968357D02*
X95286500Y-107962309D01*
X95280452Y-107950214D01*
X95280452Y-107919976D01*
X95286500Y-107907880D01*
X95292547Y-107901833D01*
X95304642Y-107895785D01*
X95316738Y-107895785D01*
X95334880Y-107901833D01*
X95407452Y-107974404D01*
X95407452Y-107895785D01*
D13*
X63986714Y-123840714D02*
X63974619Y-123852809D01*
X63938333Y-123864904D01*
X63914142Y-123864904D01*
X63877857Y-123852809D01*
X63853666Y-123828619D01*
X63841571Y-123804428D01*
X63829476Y-123756047D01*
X63829476Y-123719761D01*
X63841571Y-123671380D01*
X63853666Y-123647190D01*
X63877857Y-123623000D01*
X63914142Y-123610904D01*
X63938333Y-123610904D01*
X63974619Y-123623000D01*
X63986714Y-123635095D01*
X64083476Y-123635095D02*
X64095571Y-123623000D01*
X64119761Y-123610904D01*
X64180238Y-123610904D01*
X64204428Y-123623000D01*
X64216523Y-123635095D01*
X64228619Y-123659285D01*
X64228619Y-123683476D01*
X64216523Y-123719761D01*
X64071380Y-123864904D01*
X64228619Y-123864904D01*
X64325380Y-123635095D02*
X64337476Y-123623000D01*
X64361666Y-123610904D01*
X64422142Y-123610904D01*
X64446333Y-123623000D01*
X64458428Y-123635095D01*
X64470523Y-123659285D01*
X64470523Y-123683476D01*
X64458428Y-123719761D01*
X64313285Y-123864904D01*
X64470523Y-123864904D01*
D16*
X63995785Y-123942547D02*
X64001833Y-123936500D01*
X64013928Y-123930452D01*
X64044166Y-123930452D01*
X64056261Y-123936500D01*
X64062309Y-123942547D01*
X64068357Y-123954642D01*
X64068357Y-123966738D01*
X64062309Y-123984880D01*
X63989738Y-124057452D01*
X64068357Y-124057452D01*
X64177214Y-123972785D02*
X64177214Y-124057452D01*
X64122785Y-123972785D02*
X64122785Y-124039309D01*
X64128833Y-124051404D01*
X64140928Y-124057452D01*
X64159071Y-124057452D01*
X64171166Y-124051404D01*
X64177214Y-124045357D01*
X64231642Y-123942547D02*
X64237690Y-123936500D01*
X64249785Y-123930452D01*
X64280023Y-123930452D01*
X64292119Y-123936500D01*
X64298166Y-123942547D01*
X64304214Y-123954642D01*
X64304214Y-123966738D01*
X64298166Y-123984880D01*
X64225595Y-124057452D01*
X64304214Y-124057452D01*
D13*
X53986714Y-99640714D02*
X53974619Y-99652809D01*
X53938333Y-99664904D01*
X53914142Y-99664904D01*
X53877857Y-99652809D01*
X53853666Y-99628619D01*
X53841571Y-99604428D01*
X53829476Y-99556047D01*
X53829476Y-99519761D01*
X53841571Y-99471380D01*
X53853666Y-99447190D01*
X53877857Y-99423000D01*
X53914142Y-99410904D01*
X53938333Y-99410904D01*
X53974619Y-99423000D01*
X53986714Y-99435095D01*
X54228619Y-99664904D02*
X54083476Y-99664904D01*
X54156047Y-99664904D02*
X54156047Y-99410904D01*
X54131857Y-99447190D01*
X54107666Y-99471380D01*
X54083476Y-99483476D01*
X54313285Y-99410904D02*
X54482619Y-99410904D01*
X54373761Y-99664904D01*
D16*
X53995785Y-99742547D02*
X54001833Y-99736500D01*
X54013928Y-99730452D01*
X54044166Y-99730452D01*
X54056261Y-99736500D01*
X54062309Y-99742547D01*
X54068357Y-99754642D01*
X54068357Y-99766738D01*
X54062309Y-99784880D01*
X53989738Y-99857452D01*
X54068357Y-99857452D01*
X54177214Y-99772785D02*
X54177214Y-99857452D01*
X54122785Y-99772785D02*
X54122785Y-99839309D01*
X54128833Y-99851404D01*
X54140928Y-99857452D01*
X54159071Y-99857452D01*
X54171166Y-99851404D01*
X54177214Y-99845357D01*
X54231642Y-99742547D02*
X54237690Y-99736500D01*
X54249785Y-99730452D01*
X54280023Y-99730452D01*
X54292119Y-99736500D01*
X54298166Y-99742547D01*
X54304214Y-99754642D01*
X54304214Y-99766738D01*
X54298166Y-99784880D01*
X54225595Y-99857452D01*
X54304214Y-99857452D01*
D13*
X51440714Y-102263285D02*
X51452809Y-102275380D01*
X51464904Y-102311666D01*
X51464904Y-102335857D01*
X51452809Y-102372142D01*
X51428619Y-102396333D01*
X51404428Y-102408428D01*
X51356047Y-102420523D01*
X51319761Y-102420523D01*
X51271380Y-102408428D01*
X51247190Y-102396333D01*
X51223000Y-102372142D01*
X51210904Y-102335857D01*
X51210904Y-102311666D01*
X51223000Y-102275380D01*
X51235095Y-102263285D01*
X51464904Y-102021380D02*
X51464904Y-102166523D01*
X51464904Y-102093952D02*
X51210904Y-102093952D01*
X51247190Y-102118142D01*
X51271380Y-102142333D01*
X51283476Y-102166523D01*
X51319761Y-101876238D02*
X51307666Y-101900428D01*
X51295571Y-101912523D01*
X51271380Y-101924619D01*
X51259285Y-101924619D01*
X51235095Y-101912523D01*
X51223000Y-101900428D01*
X51210904Y-101876238D01*
X51210904Y-101827857D01*
X51223000Y-101803666D01*
X51235095Y-101791571D01*
X51259285Y-101779476D01*
X51271380Y-101779476D01*
X51295571Y-101791571D01*
X51307666Y-101803666D01*
X51319761Y-101827857D01*
X51319761Y-101876238D01*
X51331857Y-101900428D01*
X51343952Y-101912523D01*
X51368142Y-101924619D01*
X51416523Y-101924619D01*
X51440714Y-101912523D01*
X51452809Y-101900428D01*
X51464904Y-101876238D01*
X51464904Y-101827857D01*
X51452809Y-101803666D01*
X51440714Y-101791571D01*
X51416523Y-101779476D01*
X51368142Y-101779476D01*
X51343952Y-101791571D01*
X51331857Y-101803666D01*
X51319761Y-101827857D01*
D16*
X51542547Y-102254214D02*
X51536500Y-102248166D01*
X51530452Y-102236071D01*
X51530452Y-102205833D01*
X51536500Y-102193738D01*
X51542547Y-102187690D01*
X51554642Y-102181642D01*
X51566738Y-102181642D01*
X51584880Y-102187690D01*
X51657452Y-102260261D01*
X51657452Y-102181642D01*
X51572785Y-102072785D02*
X51657452Y-102072785D01*
X51572785Y-102127214D02*
X51639309Y-102127214D01*
X51651404Y-102121166D01*
X51657452Y-102109071D01*
X51657452Y-102090928D01*
X51651404Y-102078833D01*
X51645357Y-102072785D01*
X51542547Y-102018357D02*
X51536500Y-102012309D01*
X51530452Y-102000214D01*
X51530452Y-101969976D01*
X51536500Y-101957880D01*
X51542547Y-101951833D01*
X51554642Y-101945785D01*
X51566738Y-101945785D01*
X51584880Y-101951833D01*
X51657452Y-102024404D01*
X51657452Y-101945785D01*
D13*
X89486714Y-98940714D02*
X89474619Y-98952809D01*
X89438333Y-98964904D01*
X89414142Y-98964904D01*
X89377857Y-98952809D01*
X89353666Y-98928619D01*
X89341571Y-98904428D01*
X89329476Y-98856047D01*
X89329476Y-98819761D01*
X89341571Y-98771380D01*
X89353666Y-98747190D01*
X89377857Y-98723000D01*
X89414142Y-98710904D01*
X89438333Y-98710904D01*
X89474619Y-98723000D01*
X89486714Y-98735095D01*
X89728619Y-98964904D02*
X89583476Y-98964904D01*
X89656047Y-98964904D02*
X89656047Y-98710904D01*
X89631857Y-98747190D01*
X89607666Y-98771380D01*
X89583476Y-98783476D01*
X89958428Y-98710904D02*
X89837476Y-98710904D01*
X89825380Y-98831857D01*
X89837476Y-98819761D01*
X89861666Y-98807666D01*
X89922142Y-98807666D01*
X89946333Y-98819761D01*
X89958428Y-98831857D01*
X89970523Y-98856047D01*
X89970523Y-98916523D01*
X89958428Y-98940714D01*
X89946333Y-98952809D01*
X89922142Y-98964904D01*
X89861666Y-98964904D01*
X89837476Y-98952809D01*
X89825380Y-98940714D01*
D16*
X89495785Y-99042547D02*
X89501833Y-99036500D01*
X89513928Y-99030452D01*
X89544166Y-99030452D01*
X89556261Y-99036500D01*
X89562309Y-99042547D01*
X89568357Y-99054642D01*
X89568357Y-99066738D01*
X89562309Y-99084880D01*
X89489738Y-99157452D01*
X89568357Y-99157452D01*
X89677214Y-99072785D02*
X89677214Y-99157452D01*
X89622785Y-99072785D02*
X89622785Y-99139309D01*
X89628833Y-99151404D01*
X89640928Y-99157452D01*
X89659071Y-99157452D01*
X89671166Y-99151404D01*
X89677214Y-99145357D01*
X89731642Y-99042547D02*
X89737690Y-99036500D01*
X89749785Y-99030452D01*
X89780023Y-99030452D01*
X89792119Y-99036500D01*
X89798166Y-99042547D01*
X89804214Y-99054642D01*
X89804214Y-99066738D01*
X89798166Y-99084880D01*
X89725595Y-99157452D01*
X89804214Y-99157452D01*
D13*
X95590714Y-111813285D02*
X95602809Y-111825380D01*
X95614904Y-111861666D01*
X95614904Y-111885857D01*
X95602809Y-111922142D01*
X95578619Y-111946333D01*
X95554428Y-111958428D01*
X95506047Y-111970523D01*
X95469761Y-111970523D01*
X95421380Y-111958428D01*
X95397190Y-111946333D01*
X95373000Y-111922142D01*
X95360904Y-111885857D01*
X95360904Y-111861666D01*
X95373000Y-111825380D01*
X95385095Y-111813285D01*
X95614904Y-111571380D02*
X95614904Y-111716523D01*
X95614904Y-111643952D02*
X95360904Y-111643952D01*
X95397190Y-111668142D01*
X95421380Y-111692333D01*
X95433476Y-111716523D01*
X95360904Y-111486714D02*
X95360904Y-111329476D01*
X95457666Y-111414142D01*
X95457666Y-111377857D01*
X95469761Y-111353666D01*
X95481857Y-111341571D01*
X95506047Y-111329476D01*
X95566523Y-111329476D01*
X95590714Y-111341571D01*
X95602809Y-111353666D01*
X95614904Y-111377857D01*
X95614904Y-111450428D01*
X95602809Y-111474619D01*
X95590714Y-111486714D01*
D16*
X95192547Y-111804214D02*
X95186500Y-111798166D01*
X95180452Y-111786071D01*
X95180452Y-111755833D01*
X95186500Y-111743738D01*
X95192547Y-111737690D01*
X95204642Y-111731642D01*
X95216738Y-111731642D01*
X95234880Y-111737690D01*
X95307452Y-111810261D01*
X95307452Y-111731642D01*
X95222785Y-111622785D02*
X95307452Y-111622785D01*
X95222785Y-111677214D02*
X95289309Y-111677214D01*
X95301404Y-111671166D01*
X95307452Y-111659071D01*
X95307452Y-111640928D01*
X95301404Y-111628833D01*
X95295357Y-111622785D01*
X95192547Y-111568357D02*
X95186500Y-111562309D01*
X95180452Y-111550214D01*
X95180452Y-111519976D01*
X95186500Y-111507880D01*
X95192547Y-111501833D01*
X95204642Y-111495785D01*
X95216738Y-111495785D01*
X95234880Y-111501833D01*
X95307452Y-111574404D01*
X95307452Y-111495785D01*
D13*
X82486714Y-98940714D02*
X82474619Y-98952809D01*
X82438333Y-98964904D01*
X82414142Y-98964904D01*
X82377857Y-98952809D01*
X82353666Y-98928619D01*
X82341571Y-98904428D01*
X82329476Y-98856047D01*
X82329476Y-98819761D01*
X82341571Y-98771380D01*
X82353666Y-98747190D01*
X82377857Y-98723000D01*
X82414142Y-98710904D01*
X82438333Y-98710904D01*
X82474619Y-98723000D01*
X82486714Y-98735095D01*
X82728619Y-98964904D02*
X82583476Y-98964904D01*
X82656047Y-98964904D02*
X82656047Y-98710904D01*
X82631857Y-98747190D01*
X82607666Y-98771380D01*
X82583476Y-98783476D01*
X82946333Y-98710904D02*
X82897952Y-98710904D01*
X82873761Y-98723000D01*
X82861666Y-98735095D01*
X82837476Y-98771380D01*
X82825380Y-98819761D01*
X82825380Y-98916523D01*
X82837476Y-98940714D01*
X82849571Y-98952809D01*
X82873761Y-98964904D01*
X82922142Y-98964904D01*
X82946333Y-98952809D01*
X82958428Y-98940714D01*
X82970523Y-98916523D01*
X82970523Y-98856047D01*
X82958428Y-98831857D01*
X82946333Y-98819761D01*
X82922142Y-98807666D01*
X82873761Y-98807666D01*
X82849571Y-98819761D01*
X82837476Y-98831857D01*
X82825380Y-98856047D01*
D16*
X82495785Y-99042547D02*
X82501833Y-99036500D01*
X82513928Y-99030452D01*
X82544166Y-99030452D01*
X82556261Y-99036500D01*
X82562309Y-99042547D01*
X82568357Y-99054642D01*
X82568357Y-99066738D01*
X82562309Y-99084880D01*
X82489738Y-99157452D01*
X82568357Y-99157452D01*
X82677214Y-99072785D02*
X82677214Y-99157452D01*
X82622785Y-99072785D02*
X82622785Y-99139309D01*
X82628833Y-99151404D01*
X82640928Y-99157452D01*
X82659071Y-99157452D01*
X82671166Y-99151404D01*
X82677214Y-99145357D01*
X82731642Y-99042547D02*
X82737690Y-99036500D01*
X82749785Y-99030452D01*
X82780023Y-99030452D01*
X82792119Y-99036500D01*
X82798166Y-99042547D01*
X82804214Y-99054642D01*
X82804214Y-99066738D01*
X82798166Y-99084880D01*
X82725595Y-99157452D01*
X82804214Y-99157452D01*
D13*
X63986714Y-99640714D02*
X63974619Y-99652809D01*
X63938333Y-99664904D01*
X63914142Y-99664904D01*
X63877857Y-99652809D01*
X63853666Y-99628619D01*
X63841571Y-99604428D01*
X63829476Y-99556047D01*
X63829476Y-99519761D01*
X63841571Y-99471380D01*
X63853666Y-99447190D01*
X63877857Y-99423000D01*
X63914142Y-99410904D01*
X63938333Y-99410904D01*
X63974619Y-99423000D01*
X63986714Y-99435095D01*
X64083476Y-99435095D02*
X64095571Y-99423000D01*
X64119761Y-99410904D01*
X64180238Y-99410904D01*
X64204428Y-99423000D01*
X64216523Y-99435095D01*
X64228619Y-99459285D01*
X64228619Y-99483476D01*
X64216523Y-99519761D01*
X64071380Y-99664904D01*
X64228619Y-99664904D01*
X64458428Y-99410904D02*
X64337476Y-99410904D01*
X64325380Y-99531857D01*
X64337476Y-99519761D01*
X64361666Y-99507666D01*
X64422142Y-99507666D01*
X64446333Y-99519761D01*
X64458428Y-99531857D01*
X64470523Y-99556047D01*
X64470523Y-99616523D01*
X64458428Y-99640714D01*
X64446333Y-99652809D01*
X64422142Y-99664904D01*
X64361666Y-99664904D01*
X64337476Y-99652809D01*
X64325380Y-99640714D01*
D16*
X63995785Y-99742547D02*
X64001833Y-99736500D01*
X64013928Y-99730452D01*
X64044166Y-99730452D01*
X64056261Y-99736500D01*
X64062309Y-99742547D01*
X64068357Y-99754642D01*
X64068357Y-99766738D01*
X64062309Y-99784880D01*
X63989738Y-99857452D01*
X64068357Y-99857452D01*
X64177214Y-99772785D02*
X64177214Y-99857452D01*
X64122785Y-99772785D02*
X64122785Y-99839309D01*
X64128833Y-99851404D01*
X64140928Y-99857452D01*
X64159071Y-99857452D01*
X64171166Y-99851404D01*
X64177214Y-99845357D01*
X64231642Y-99742547D02*
X64237690Y-99736500D01*
X64249785Y-99730452D01*
X64280023Y-99730452D01*
X64292119Y-99736500D01*
X64298166Y-99742547D01*
X64304214Y-99754642D01*
X64304214Y-99766738D01*
X64298166Y-99784880D01*
X64225595Y-99857452D01*
X64304214Y-99857452D01*
D13*
X53986714Y-123840714D02*
X53974619Y-123852809D01*
X53938333Y-123864904D01*
X53914142Y-123864904D01*
X53877857Y-123852809D01*
X53853666Y-123828619D01*
X53841571Y-123804428D01*
X53829476Y-123756047D01*
X53829476Y-123719761D01*
X53841571Y-123671380D01*
X53853666Y-123647190D01*
X53877857Y-123623000D01*
X53914142Y-123610904D01*
X53938333Y-123610904D01*
X53974619Y-123623000D01*
X53986714Y-123635095D01*
X54083476Y-123635095D02*
X54095571Y-123623000D01*
X54119761Y-123610904D01*
X54180238Y-123610904D01*
X54204428Y-123623000D01*
X54216523Y-123635095D01*
X54228619Y-123659285D01*
X54228619Y-123683476D01*
X54216523Y-123719761D01*
X54071380Y-123864904D01*
X54228619Y-123864904D01*
X54470523Y-123864904D02*
X54325380Y-123864904D01*
X54397952Y-123864904D02*
X54397952Y-123610904D01*
X54373761Y-123647190D01*
X54349571Y-123671380D01*
X54325380Y-123683476D01*
D16*
X53995785Y-123942547D02*
X54001833Y-123936500D01*
X54013928Y-123930452D01*
X54044166Y-123930452D01*
X54056261Y-123936500D01*
X54062309Y-123942547D01*
X54068357Y-123954642D01*
X54068357Y-123966738D01*
X54062309Y-123984880D01*
X53989738Y-124057452D01*
X54068357Y-124057452D01*
X54177214Y-123972785D02*
X54177214Y-124057452D01*
X54122785Y-123972785D02*
X54122785Y-124039309D01*
X54128833Y-124051404D01*
X54140928Y-124057452D01*
X54159071Y-124057452D01*
X54171166Y-124051404D01*
X54177214Y-124045357D01*
X54231642Y-123942547D02*
X54237690Y-123936500D01*
X54249785Y-123930452D01*
X54280023Y-123930452D01*
X54292119Y-123936500D01*
X54298166Y-123942547D01*
X54304214Y-123954642D01*
X54304214Y-123966738D01*
X54298166Y-123984880D01*
X54225595Y-124057452D01*
X54304214Y-124057452D01*
D13*
X67040714Y-110963285D02*
X67052809Y-110975380D01*
X67064904Y-111011666D01*
X67064904Y-111035857D01*
X67052809Y-111072142D01*
X67028619Y-111096333D01*
X67004428Y-111108428D01*
X66956047Y-111120523D01*
X66919761Y-111120523D01*
X66871380Y-111108428D01*
X66847190Y-111096333D01*
X66823000Y-111072142D01*
X66810904Y-111035857D01*
X66810904Y-111011666D01*
X66823000Y-110975380D01*
X66835095Y-110963285D01*
X66835095Y-110866523D02*
X66823000Y-110854428D01*
X66810904Y-110830238D01*
X66810904Y-110769761D01*
X66823000Y-110745571D01*
X66835095Y-110733476D01*
X66859285Y-110721380D01*
X66883476Y-110721380D01*
X66919761Y-110733476D01*
X67064904Y-110878619D01*
X67064904Y-110721380D01*
X66810904Y-110636714D02*
X66810904Y-110479476D01*
X66907666Y-110564142D01*
X66907666Y-110527857D01*
X66919761Y-110503666D01*
X66931857Y-110491571D01*
X66956047Y-110479476D01*
X67016523Y-110479476D01*
X67040714Y-110491571D01*
X67052809Y-110503666D01*
X67064904Y-110527857D01*
X67064904Y-110600428D01*
X67052809Y-110624619D01*
X67040714Y-110636714D01*
D16*
X66642547Y-110954214D02*
X66636500Y-110948166D01*
X66630452Y-110936071D01*
X66630452Y-110905833D01*
X66636500Y-110893738D01*
X66642547Y-110887690D01*
X66654642Y-110881642D01*
X66666738Y-110881642D01*
X66684880Y-110887690D01*
X66757452Y-110960261D01*
X66757452Y-110881642D01*
X66672785Y-110772785D02*
X66757452Y-110772785D01*
X66672785Y-110827214D02*
X66739309Y-110827214D01*
X66751404Y-110821166D01*
X66757452Y-110809071D01*
X66757452Y-110790928D01*
X66751404Y-110778833D01*
X66745357Y-110772785D01*
X66642547Y-110718357D02*
X66636500Y-110712309D01*
X66630452Y-110700214D01*
X66630452Y-110669976D01*
X66636500Y-110657880D01*
X66642547Y-110651833D01*
X66654642Y-110645785D01*
X66666738Y-110645785D01*
X66684880Y-110651833D01*
X66757452Y-110724404D01*
X66757452Y-110645785D01*
D13*
X51440714Y-107063285D02*
X51452809Y-107075380D01*
X51464904Y-107111666D01*
X51464904Y-107135857D01*
X51452809Y-107172142D01*
X51428619Y-107196333D01*
X51404428Y-107208428D01*
X51356047Y-107220523D01*
X51319761Y-107220523D01*
X51271380Y-107208428D01*
X51247190Y-107196333D01*
X51223000Y-107172142D01*
X51210904Y-107135857D01*
X51210904Y-107111666D01*
X51223000Y-107075380D01*
X51235095Y-107063285D01*
X51464904Y-106821380D02*
X51464904Y-106966523D01*
X51464904Y-106893952D02*
X51210904Y-106893952D01*
X51247190Y-106918142D01*
X51271380Y-106942333D01*
X51283476Y-106966523D01*
X51464904Y-106700428D02*
X51464904Y-106652047D01*
X51452809Y-106627857D01*
X51440714Y-106615761D01*
X51404428Y-106591571D01*
X51356047Y-106579476D01*
X51259285Y-106579476D01*
X51235095Y-106591571D01*
X51223000Y-106603666D01*
X51210904Y-106627857D01*
X51210904Y-106676238D01*
X51223000Y-106700428D01*
X51235095Y-106712523D01*
X51259285Y-106724619D01*
X51319761Y-106724619D01*
X51343952Y-106712523D01*
X51356047Y-106700428D01*
X51368142Y-106676238D01*
X51368142Y-106627857D01*
X51356047Y-106603666D01*
X51343952Y-106591571D01*
X51319761Y-106579476D01*
D16*
X51542547Y-107054214D02*
X51536500Y-107048166D01*
X51530452Y-107036071D01*
X51530452Y-107005833D01*
X51536500Y-106993738D01*
X51542547Y-106987690D01*
X51554642Y-106981642D01*
X51566738Y-106981642D01*
X51584880Y-106987690D01*
X51657452Y-107060261D01*
X51657452Y-106981642D01*
X51572785Y-106872785D02*
X51657452Y-106872785D01*
X51572785Y-106927214D02*
X51639309Y-106927214D01*
X51651404Y-106921166D01*
X51657452Y-106909071D01*
X51657452Y-106890928D01*
X51651404Y-106878833D01*
X51645357Y-106872785D01*
X51542547Y-106818357D02*
X51536500Y-106812309D01*
X51530452Y-106800214D01*
X51530452Y-106769976D01*
X51536500Y-106757880D01*
X51542547Y-106751833D01*
X51554642Y-106745785D01*
X51566738Y-106745785D01*
X51584880Y-106751833D01*
X51657452Y-106824404D01*
X51657452Y-106745785D01*
D13*
X88986714Y-118340714D02*
X88974619Y-118352809D01*
X88938333Y-118364904D01*
X88914142Y-118364904D01*
X88877857Y-118352809D01*
X88853666Y-118328619D01*
X88841571Y-118304428D01*
X88829476Y-118256047D01*
X88829476Y-118219761D01*
X88841571Y-118171380D01*
X88853666Y-118147190D01*
X88877857Y-118123000D01*
X88914142Y-118110904D01*
X88938333Y-118110904D01*
X88974619Y-118123000D01*
X88986714Y-118135095D01*
X89228619Y-118364904D02*
X89083476Y-118364904D01*
X89156047Y-118364904D02*
X89156047Y-118110904D01*
X89131857Y-118147190D01*
X89107666Y-118171380D01*
X89083476Y-118183476D01*
X89325380Y-118135095D02*
X89337476Y-118123000D01*
X89361666Y-118110904D01*
X89422142Y-118110904D01*
X89446333Y-118123000D01*
X89458428Y-118135095D01*
X89470523Y-118159285D01*
X89470523Y-118183476D01*
X89458428Y-118219761D01*
X89313285Y-118364904D01*
X89470523Y-118364904D01*
D16*
X88995785Y-118442547D02*
X89001833Y-118436500D01*
X89013928Y-118430452D01*
X89044166Y-118430452D01*
X89056261Y-118436500D01*
X89062309Y-118442547D01*
X89068357Y-118454642D01*
X89068357Y-118466738D01*
X89062309Y-118484880D01*
X88989738Y-118557452D01*
X89068357Y-118557452D01*
X89177214Y-118472785D02*
X89177214Y-118557452D01*
X89122785Y-118472785D02*
X89122785Y-118539309D01*
X89128833Y-118551404D01*
X89140928Y-118557452D01*
X89159071Y-118557452D01*
X89171166Y-118551404D01*
X89177214Y-118545357D01*
X89231642Y-118442547D02*
X89237690Y-118436500D01*
X89249785Y-118430452D01*
X89280023Y-118430452D01*
X89292119Y-118436500D01*
X89298166Y-118442547D01*
X89304214Y-118454642D01*
X89304214Y-118466738D01*
X89298166Y-118484880D01*
X89225595Y-118557452D01*
X89304214Y-118557452D01*
D13*
X81986714Y-118340714D02*
X81974619Y-118352809D01*
X81938333Y-118364904D01*
X81914142Y-118364904D01*
X81877857Y-118352809D01*
X81853666Y-118328619D01*
X81841571Y-118304428D01*
X81829476Y-118256047D01*
X81829476Y-118219761D01*
X81841571Y-118171380D01*
X81853666Y-118147190D01*
X81877857Y-118123000D01*
X81914142Y-118110904D01*
X81938333Y-118110904D01*
X81974619Y-118123000D01*
X81986714Y-118135095D01*
X82228619Y-118364904D02*
X82083476Y-118364904D01*
X82156047Y-118364904D02*
X82156047Y-118110904D01*
X82131857Y-118147190D01*
X82107666Y-118171380D01*
X82083476Y-118183476D01*
X82470523Y-118364904D02*
X82325380Y-118364904D01*
X82397952Y-118364904D02*
X82397952Y-118110904D01*
X82373761Y-118147190D01*
X82349571Y-118171380D01*
X82325380Y-118183476D01*
D16*
X81995785Y-118442547D02*
X82001833Y-118436500D01*
X82013928Y-118430452D01*
X82044166Y-118430452D01*
X82056261Y-118436500D01*
X82062309Y-118442547D01*
X82068357Y-118454642D01*
X82068357Y-118466738D01*
X82062309Y-118484880D01*
X81989738Y-118557452D01*
X82068357Y-118557452D01*
X82177214Y-118472785D02*
X82177214Y-118557452D01*
X82122785Y-118472785D02*
X82122785Y-118539309D01*
X82128833Y-118551404D01*
X82140928Y-118557452D01*
X82159071Y-118557452D01*
X82171166Y-118551404D01*
X82177214Y-118545357D01*
X82231642Y-118442547D02*
X82237690Y-118436500D01*
X82249785Y-118430452D01*
X82280023Y-118430452D01*
X82292119Y-118436500D01*
X82298166Y-118442547D01*
X82304214Y-118454642D01*
X82304214Y-118466738D01*
X82298166Y-118484880D01*
X82225595Y-118557452D01*
X82304214Y-118557452D01*
D13*
X75790714Y-108092333D02*
X75802809Y-108104428D01*
X75814904Y-108140714D01*
X75814904Y-108164904D01*
X75802809Y-108201190D01*
X75778619Y-108225380D01*
X75754428Y-108237476D01*
X75706047Y-108249571D01*
X75669761Y-108249571D01*
X75621380Y-108237476D01*
X75597190Y-108225380D01*
X75573000Y-108201190D01*
X75560904Y-108164904D01*
X75560904Y-108140714D01*
X75573000Y-108104428D01*
X75585095Y-108092333D01*
X75814904Y-107971380D02*
X75814904Y-107923000D01*
X75802809Y-107898809D01*
X75790714Y-107886714D01*
X75754428Y-107862523D01*
X75706047Y-107850428D01*
X75609285Y-107850428D01*
X75585095Y-107862523D01*
X75573000Y-107874619D01*
X75560904Y-107898809D01*
X75560904Y-107947190D01*
X75573000Y-107971380D01*
X75585095Y-107983476D01*
X75609285Y-107995571D01*
X75669761Y-107995571D01*
X75693952Y-107983476D01*
X75706047Y-107971380D01*
X75718142Y-107947190D01*
X75718142Y-107898809D01*
X75706047Y-107874619D01*
X75693952Y-107862523D01*
X75669761Y-107850428D01*
D16*
X75892547Y-108204214D02*
X75886500Y-108198166D01*
X75880452Y-108186071D01*
X75880452Y-108155833D01*
X75886500Y-108143738D01*
X75892547Y-108137690D01*
X75904642Y-108131642D01*
X75916738Y-108131642D01*
X75934880Y-108137690D01*
X76007452Y-108210261D01*
X76007452Y-108131642D01*
X75922785Y-108022785D02*
X76007452Y-108022785D01*
X75922785Y-108077214D02*
X75989309Y-108077214D01*
X76001404Y-108071166D01*
X76007452Y-108059071D01*
X76007452Y-108040928D01*
X76001404Y-108028833D01*
X75995357Y-108022785D01*
X75892547Y-107968357D02*
X75886500Y-107962309D01*
X75880452Y-107950214D01*
X75880452Y-107919976D01*
X75886500Y-107907880D01*
X75892547Y-107901833D01*
X75904642Y-107895785D01*
X75916738Y-107895785D01*
X75934880Y-107901833D01*
X76007452Y-107974404D01*
X76007452Y-107895785D01*
D13*
X51440714Y-111063285D02*
X51452809Y-111075380D01*
X51464904Y-111111666D01*
X51464904Y-111135857D01*
X51452809Y-111172142D01*
X51428619Y-111196333D01*
X51404428Y-111208428D01*
X51356047Y-111220523D01*
X51319761Y-111220523D01*
X51271380Y-111208428D01*
X51247190Y-111196333D01*
X51223000Y-111172142D01*
X51210904Y-111135857D01*
X51210904Y-111111666D01*
X51223000Y-111075380D01*
X51235095Y-111063285D01*
X51235095Y-110966523D02*
X51223000Y-110954428D01*
X51210904Y-110930238D01*
X51210904Y-110869761D01*
X51223000Y-110845571D01*
X51235095Y-110833476D01*
X51259285Y-110821380D01*
X51283476Y-110821380D01*
X51319761Y-110833476D01*
X51464904Y-110978619D01*
X51464904Y-110821380D01*
X51210904Y-110664142D02*
X51210904Y-110639952D01*
X51223000Y-110615761D01*
X51235095Y-110603666D01*
X51259285Y-110591571D01*
X51307666Y-110579476D01*
X51368142Y-110579476D01*
X51416523Y-110591571D01*
X51440714Y-110603666D01*
X51452809Y-110615761D01*
X51464904Y-110639952D01*
X51464904Y-110664142D01*
X51452809Y-110688333D01*
X51440714Y-110700428D01*
X51416523Y-110712523D01*
X51368142Y-110724619D01*
X51307666Y-110724619D01*
X51259285Y-110712523D01*
X51235095Y-110700428D01*
X51223000Y-110688333D01*
X51210904Y-110664142D01*
D16*
X51542547Y-111054214D02*
X51536500Y-111048166D01*
X51530452Y-111036071D01*
X51530452Y-111005833D01*
X51536500Y-110993738D01*
X51542547Y-110987690D01*
X51554642Y-110981642D01*
X51566738Y-110981642D01*
X51584880Y-110987690D01*
X51657452Y-111060261D01*
X51657452Y-110981642D01*
X51572785Y-110872785D02*
X51657452Y-110872785D01*
X51572785Y-110927214D02*
X51639309Y-110927214D01*
X51651404Y-110921166D01*
X51657452Y-110909071D01*
X51657452Y-110890928D01*
X51651404Y-110878833D01*
X51645357Y-110872785D01*
X51542547Y-110818357D02*
X51536500Y-110812309D01*
X51530452Y-110800214D01*
X51530452Y-110769976D01*
X51536500Y-110757880D01*
X51542547Y-110751833D01*
X51554642Y-110745785D01*
X51566738Y-110745785D01*
X51584880Y-110751833D01*
X51657452Y-110824404D01*
X51657452Y-110745785D01*
D13*
X67040714Y-106163285D02*
X67052809Y-106175380D01*
X67064904Y-106211666D01*
X67064904Y-106235857D01*
X67052809Y-106272142D01*
X67028619Y-106296333D01*
X67004428Y-106308428D01*
X66956047Y-106320523D01*
X66919761Y-106320523D01*
X66871380Y-106308428D01*
X66847190Y-106296333D01*
X66823000Y-106272142D01*
X66810904Y-106235857D01*
X66810904Y-106211666D01*
X66823000Y-106175380D01*
X66835095Y-106163285D01*
X66835095Y-106066523D02*
X66823000Y-106054428D01*
X66810904Y-106030238D01*
X66810904Y-105969761D01*
X66823000Y-105945571D01*
X66835095Y-105933476D01*
X66859285Y-105921380D01*
X66883476Y-105921380D01*
X66919761Y-105933476D01*
X67064904Y-106078619D01*
X67064904Y-105921380D01*
X66895571Y-105703666D02*
X67064904Y-105703666D01*
X66798809Y-105764142D02*
X66980238Y-105824619D01*
X66980238Y-105667380D01*
D16*
X66642547Y-106154214D02*
X66636500Y-106148166D01*
X66630452Y-106136071D01*
X66630452Y-106105833D01*
X66636500Y-106093738D01*
X66642547Y-106087690D01*
X66654642Y-106081642D01*
X66666738Y-106081642D01*
X66684880Y-106087690D01*
X66757452Y-106160261D01*
X66757452Y-106081642D01*
X66672785Y-105972785D02*
X66757452Y-105972785D01*
X66672785Y-106027214D02*
X66739309Y-106027214D01*
X66751404Y-106021166D01*
X66757452Y-106009071D01*
X66757452Y-105990928D01*
X66751404Y-105978833D01*
X66745357Y-105972785D01*
X66642547Y-105918357D02*
X66636500Y-105912309D01*
X66630452Y-105900214D01*
X66630452Y-105869976D01*
X66636500Y-105857880D01*
X66642547Y-105851833D01*
X66654642Y-105845785D01*
X66666738Y-105845785D01*
X66684880Y-105851833D01*
X66757452Y-105924404D01*
X66757452Y-105845785D01*
D13*
X100290714Y-123292333D02*
X100302809Y-123304428D01*
X100314904Y-123340714D01*
X100314904Y-123364904D01*
X100302809Y-123401190D01*
X100278619Y-123425380D01*
X100254428Y-123437476D01*
X100206047Y-123449571D01*
X100169761Y-123449571D01*
X100121380Y-123437476D01*
X100097190Y-123425380D01*
X100073000Y-123401190D01*
X100060904Y-123364904D01*
X100060904Y-123340714D01*
X100073000Y-123304428D01*
X100085095Y-123292333D01*
X100169761Y-123147190D02*
X100157666Y-123171380D01*
X100145571Y-123183476D01*
X100121380Y-123195571D01*
X100109285Y-123195571D01*
X100085095Y-123183476D01*
X100073000Y-123171380D01*
X100060904Y-123147190D01*
X100060904Y-123098809D01*
X100073000Y-123074619D01*
X100085095Y-123062523D01*
X100109285Y-123050428D01*
X100121380Y-123050428D01*
X100145571Y-123062523D01*
X100157666Y-123074619D01*
X100169761Y-123098809D01*
X100169761Y-123147190D01*
X100181857Y-123171380D01*
X100193952Y-123183476D01*
X100218142Y-123195571D01*
X100266523Y-123195571D01*
X100290714Y-123183476D01*
X100302809Y-123171380D01*
X100314904Y-123147190D01*
X100314904Y-123098809D01*
X100302809Y-123074619D01*
X100290714Y-123062523D01*
X100266523Y-123050428D01*
X100218142Y-123050428D01*
X100193952Y-123062523D01*
X100181857Y-123074619D01*
X100169761Y-123098809D01*
D16*
X99892547Y-123404214D02*
X99886500Y-123398166D01*
X99880452Y-123386071D01*
X99880452Y-123355833D01*
X99886500Y-123343738D01*
X99892547Y-123337690D01*
X99904642Y-123331642D01*
X99916738Y-123331642D01*
X99934880Y-123337690D01*
X100007452Y-123410261D01*
X100007452Y-123331642D01*
X99922785Y-123222785D02*
X100007452Y-123222785D01*
X99922785Y-123277214D02*
X99989309Y-123277214D01*
X100001404Y-123271166D01*
X100007452Y-123259071D01*
X100007452Y-123240928D01*
X100001404Y-123228833D01*
X99995357Y-123222785D01*
X99892547Y-123168357D02*
X99886500Y-123162309D01*
X99880452Y-123150214D01*
X99880452Y-123119976D01*
X99886500Y-123107880D01*
X99892547Y-123101833D01*
X99904642Y-123095785D01*
X99916738Y-123095785D01*
X99934880Y-123101833D01*
X100007452Y-123174404D01*
X100007452Y-123095785D01*
D13*
X81890714Y-123292333D02*
X81902809Y-123304428D01*
X81914904Y-123340714D01*
X81914904Y-123364904D01*
X81902809Y-123401190D01*
X81878619Y-123425380D01*
X81854428Y-123437476D01*
X81806047Y-123449571D01*
X81769761Y-123449571D01*
X81721380Y-123437476D01*
X81697190Y-123425380D01*
X81673000Y-123401190D01*
X81660904Y-123364904D01*
X81660904Y-123340714D01*
X81673000Y-123304428D01*
X81685095Y-123292333D01*
X81660904Y-123074619D02*
X81660904Y-123123000D01*
X81673000Y-123147190D01*
X81685095Y-123159285D01*
X81721380Y-123183476D01*
X81769761Y-123195571D01*
X81866523Y-123195571D01*
X81890714Y-123183476D01*
X81902809Y-123171380D01*
X81914904Y-123147190D01*
X81914904Y-123098809D01*
X81902809Y-123074619D01*
X81890714Y-123062523D01*
X81866523Y-123050428D01*
X81806047Y-123050428D01*
X81781857Y-123062523D01*
X81769761Y-123074619D01*
X81757666Y-123098809D01*
X81757666Y-123147190D01*
X81769761Y-123171380D01*
X81781857Y-123183476D01*
X81806047Y-123195571D01*
D16*
X81492547Y-123404214D02*
X81486500Y-123398166D01*
X81480452Y-123386071D01*
X81480452Y-123355833D01*
X81486500Y-123343738D01*
X81492547Y-123337690D01*
X81504642Y-123331642D01*
X81516738Y-123331642D01*
X81534880Y-123337690D01*
X81607452Y-123410261D01*
X81607452Y-123331642D01*
X81522785Y-123222785D02*
X81607452Y-123222785D01*
X81522785Y-123277214D02*
X81589309Y-123277214D01*
X81601404Y-123271166D01*
X81607452Y-123259071D01*
X81607452Y-123240928D01*
X81601404Y-123228833D01*
X81595357Y-123222785D01*
X81492547Y-123168357D02*
X81486500Y-123162309D01*
X81480452Y-123150214D01*
X81480452Y-123119976D01*
X81486500Y-123107880D01*
X81492547Y-123101833D01*
X81504642Y-123095785D01*
X81516738Y-123095785D01*
X81534880Y-123101833D01*
X81607452Y-123174404D01*
X81607452Y-123095785D01*
D13*
X91090714Y-123292333D02*
X91102809Y-123304428D01*
X91114904Y-123340714D01*
X91114904Y-123364904D01*
X91102809Y-123401190D01*
X91078619Y-123425380D01*
X91054428Y-123437476D01*
X91006047Y-123449571D01*
X90969761Y-123449571D01*
X90921380Y-123437476D01*
X90897190Y-123425380D01*
X90873000Y-123401190D01*
X90860904Y-123364904D01*
X90860904Y-123340714D01*
X90873000Y-123304428D01*
X90885095Y-123292333D01*
X90860904Y-123207666D02*
X90860904Y-123038333D01*
X91114904Y-123147190D01*
D16*
X90692547Y-123404214D02*
X90686500Y-123398166D01*
X90680452Y-123386071D01*
X90680452Y-123355833D01*
X90686500Y-123343738D01*
X90692547Y-123337690D01*
X90704642Y-123331642D01*
X90716738Y-123331642D01*
X90734880Y-123337690D01*
X90807452Y-123410261D01*
X90807452Y-123331642D01*
X90722785Y-123222785D02*
X90807452Y-123222785D01*
X90722785Y-123277214D02*
X90789309Y-123277214D01*
X90801404Y-123271166D01*
X90807452Y-123259071D01*
X90807452Y-123240928D01*
X90801404Y-123228833D01*
X90795357Y-123222785D01*
X90692547Y-123168357D02*
X90686500Y-123162309D01*
X90680452Y-123150214D01*
X90680452Y-123119976D01*
X90686500Y-123107880D01*
X90692547Y-123101833D01*
X90704642Y-123095785D01*
X90716738Y-123095785D01*
X90734880Y-123101833D01*
X90807452Y-123174404D01*
X90807452Y-123095785D01*
D15*
X76405723Y-125004895D02*
X76405723Y-125662876D01*
X76444428Y-125740285D01*
X76483133Y-125778990D01*
X76560542Y-125817695D01*
X76715361Y-125817695D01*
X76792771Y-125778990D01*
X76831476Y-125740285D01*
X76870180Y-125662876D01*
X76870180Y-125004895D01*
X77605571Y-125275828D02*
X77605571Y-125817695D01*
X77412047Y-124966190D02*
X77218523Y-125546761D01*
X77721685Y-125546761D01*
D11*
X74956714Y-126187809D02*
X75295380Y-126187809D01*
X75077666Y-126695809D01*
X75706619Y-126357142D02*
X75706619Y-126695809D01*
X75585666Y-126163619D02*
X75464714Y-126526476D01*
X75779190Y-126526476D01*
X75948523Y-126550666D02*
X76190428Y-126550666D01*
X75900142Y-126695809D02*
X76069476Y-126187809D01*
X76238809Y-126695809D01*
X76408142Y-126695809D02*
X76408142Y-126187809D01*
X76408142Y-126429714D02*
X76698428Y-126429714D01*
X76698428Y-126695809D02*
X76698428Y-126187809D01*
X77230619Y-126647428D02*
X77206428Y-126671619D01*
X77133857Y-126695809D01*
X77085476Y-126695809D01*
X77012904Y-126671619D01*
X76964523Y-126623238D01*
X76940333Y-126574857D01*
X76916142Y-126478095D01*
X76916142Y-126405523D01*
X76940333Y-126308761D01*
X76964523Y-126260380D01*
X77012904Y-126212000D01*
X77085476Y-126187809D01*
X77133857Y-126187809D01*
X77206428Y-126212000D01*
X77230619Y-126236190D01*
X77375761Y-126187809D02*
X77666047Y-126187809D01*
X77520904Y-126695809D02*
X77520904Y-126187809D01*
X77811190Y-126236190D02*
X77835380Y-126212000D01*
X77883761Y-126187809D01*
X78004714Y-126187809D01*
X78053095Y-126212000D01*
X78077285Y-126236190D01*
X78101476Y-126284571D01*
X78101476Y-126332952D01*
X78077285Y-126405523D01*
X77787000Y-126695809D01*
X78101476Y-126695809D01*
X78536904Y-126357142D02*
X78536904Y-126695809D01*
X78415952Y-126163619D02*
X78295000Y-126526476D01*
X78609476Y-126526476D01*
X79044904Y-126187809D02*
X78803000Y-126187809D01*
X78778809Y-126429714D01*
X78803000Y-126405523D01*
X78851380Y-126381333D01*
X78972333Y-126381333D01*
X79020714Y-126405523D01*
X79044904Y-126429714D01*
X79069095Y-126478095D01*
X79069095Y-126599047D01*
X79044904Y-126647428D01*
X79020714Y-126671619D01*
X78972333Y-126695809D01*
X78851380Y-126695809D01*
X78803000Y-126671619D01*
X78778809Y-126647428D01*
D15*
X85605723Y-125004895D02*
X85605723Y-125662876D01*
X85644428Y-125740285D01*
X85683133Y-125778990D01*
X85760542Y-125817695D01*
X85915361Y-125817695D01*
X85992771Y-125778990D01*
X86031476Y-125740285D01*
X86070180Y-125662876D01*
X86070180Y-125004895D01*
X86844276Y-125004895D02*
X86457228Y-125004895D01*
X86418523Y-125391942D01*
X86457228Y-125353238D01*
X86534638Y-125314533D01*
X86728161Y-125314533D01*
X86805571Y-125353238D01*
X86844276Y-125391942D01*
X86882980Y-125469352D01*
X86882980Y-125662876D01*
X86844276Y-125740285D01*
X86805571Y-125778990D01*
X86728161Y-125817695D01*
X86534638Y-125817695D01*
X86457228Y-125778990D01*
X86418523Y-125740285D01*
D11*
X84350238Y-126187809D02*
X84688904Y-126187809D01*
X84471190Y-126695809D01*
X85100142Y-126357142D02*
X85100142Y-126695809D01*
X84979190Y-126163619D02*
X84858238Y-126526476D01*
X85172714Y-126526476D01*
X85342047Y-126550666D02*
X85583952Y-126550666D01*
X85293666Y-126695809D02*
X85463000Y-126187809D01*
X85632333Y-126695809D01*
X85801666Y-126695809D02*
X85801666Y-126187809D01*
X85801666Y-126429714D02*
X86091952Y-126429714D01*
X86091952Y-126695809D02*
X86091952Y-126187809D01*
X86624142Y-126647428D02*
X86599952Y-126671619D01*
X86527380Y-126695809D01*
X86479000Y-126695809D01*
X86406428Y-126671619D01*
X86358047Y-126623238D01*
X86333857Y-126574857D01*
X86309666Y-126478095D01*
X86309666Y-126405523D01*
X86333857Y-126308761D01*
X86358047Y-126260380D01*
X86406428Y-126212000D01*
X86479000Y-126187809D01*
X86527380Y-126187809D01*
X86599952Y-126212000D01*
X86624142Y-126236190D01*
X86817666Y-126236190D02*
X86841857Y-126212000D01*
X86890238Y-126187809D01*
X87011190Y-126187809D01*
X87059571Y-126212000D01*
X87083761Y-126236190D01*
X87107952Y-126284571D01*
X87107952Y-126332952D01*
X87083761Y-126405523D01*
X86793476Y-126695809D01*
X87107952Y-126695809D01*
X87543380Y-126357142D02*
X87543380Y-126695809D01*
X87422428Y-126163619D02*
X87301476Y-126526476D01*
X87615952Y-126526476D01*
X88051380Y-126187809D02*
X87809476Y-126187809D01*
X87785285Y-126429714D01*
X87809476Y-126405523D01*
X87857857Y-126381333D01*
X87978809Y-126381333D01*
X88027190Y-126405523D01*
X88051380Y-126429714D01*
X88075571Y-126478095D01*
X88075571Y-126599047D01*
X88051380Y-126647428D01*
X88027190Y-126671619D01*
X87978809Y-126695809D01*
X87857857Y-126695809D01*
X87809476Y-126671619D01*
X87785285Y-126647428D01*
D15*
X104005723Y-125004895D02*
X104005723Y-125662876D01*
X104044428Y-125740285D01*
X104083133Y-125778990D01*
X104160542Y-125817695D01*
X104315361Y-125817695D01*
X104392771Y-125778990D01*
X104431476Y-125740285D01*
X104470180Y-125662876D01*
X104470180Y-125004895D01*
X104779819Y-125004895D02*
X105321685Y-125004895D01*
X104973342Y-125817695D01*
D11*
X102871190Y-126187809D02*
X103209857Y-126187809D01*
X102992142Y-126695809D01*
X103621095Y-126357142D02*
X103621095Y-126695809D01*
X103500142Y-126163619D02*
X103379190Y-126526476D01*
X103693666Y-126526476D01*
X104129095Y-126695809D02*
X103887190Y-126695809D01*
X103887190Y-126187809D01*
X104225857Y-126187809D02*
X104395190Y-126695809D01*
X104564523Y-126187809D01*
X104661285Y-126187809D02*
X104951571Y-126187809D01*
X104806428Y-126695809D02*
X104806428Y-126187809D01*
X105096714Y-126236190D02*
X105120904Y-126212000D01*
X105169285Y-126187809D01*
X105290238Y-126187809D01*
X105338619Y-126212000D01*
X105362809Y-126236190D01*
X105387000Y-126284571D01*
X105387000Y-126332952D01*
X105362809Y-126405523D01*
X105072523Y-126695809D01*
X105387000Y-126695809D01*
X105822428Y-126357142D02*
X105822428Y-126695809D01*
X105701476Y-126163619D02*
X105580523Y-126526476D01*
X105895000Y-126526476D01*
X106330428Y-126187809D02*
X106088523Y-126187809D01*
X106064333Y-126429714D01*
X106088523Y-126405523D01*
X106136904Y-126381333D01*
X106257857Y-126381333D01*
X106306238Y-126405523D01*
X106330428Y-126429714D01*
X106354619Y-126478095D01*
X106354619Y-126599047D01*
X106330428Y-126647428D01*
X106306238Y-126671619D01*
X106257857Y-126695809D01*
X106136904Y-126695809D01*
X106088523Y-126671619D01*
X106064333Y-126647428D01*
D15*
X94805723Y-125004895D02*
X94805723Y-125662876D01*
X94844428Y-125740285D01*
X94883133Y-125778990D01*
X94960542Y-125817695D01*
X95115361Y-125817695D01*
X95192771Y-125778990D01*
X95231476Y-125740285D01*
X95270180Y-125662876D01*
X95270180Y-125004895D01*
X96005571Y-125004895D02*
X95850752Y-125004895D01*
X95773342Y-125043600D01*
X95734638Y-125082304D01*
X95657228Y-125198419D01*
X95618523Y-125353238D01*
X95618523Y-125662876D01*
X95657228Y-125740285D01*
X95695933Y-125778990D01*
X95773342Y-125817695D01*
X95928161Y-125817695D01*
X96005571Y-125778990D01*
X96044276Y-125740285D01*
X96082980Y-125662876D01*
X96082980Y-125469352D01*
X96044276Y-125391942D01*
X96005571Y-125353238D01*
X95928161Y-125314533D01*
X95773342Y-125314533D01*
X95695933Y-125353238D01*
X95657228Y-125391942D01*
X95618523Y-125469352D01*
D11*
X93671190Y-126187809D02*
X94009857Y-126187809D01*
X93792142Y-126695809D01*
X94421095Y-126357142D02*
X94421095Y-126695809D01*
X94300142Y-126163619D02*
X94179190Y-126526476D01*
X94493666Y-126526476D01*
X94929095Y-126695809D02*
X94687190Y-126695809D01*
X94687190Y-126187809D01*
X95025857Y-126187809D02*
X95195190Y-126695809D01*
X95364523Y-126187809D01*
X95461285Y-126187809D02*
X95751571Y-126187809D01*
X95606428Y-126695809D02*
X95606428Y-126187809D01*
X95896714Y-126236190D02*
X95920904Y-126212000D01*
X95969285Y-126187809D01*
X96090238Y-126187809D01*
X96138619Y-126212000D01*
X96162809Y-126236190D01*
X96187000Y-126284571D01*
X96187000Y-126332952D01*
X96162809Y-126405523D01*
X95872523Y-126695809D01*
X96187000Y-126695809D01*
X96622428Y-126357142D02*
X96622428Y-126695809D01*
X96501476Y-126163619D02*
X96380523Y-126526476D01*
X96695000Y-126526476D01*
X97130428Y-126187809D02*
X96888523Y-126187809D01*
X96864333Y-126429714D01*
X96888523Y-126405523D01*
X96936904Y-126381333D01*
X97057857Y-126381333D01*
X97106238Y-126405523D01*
X97130428Y-126429714D01*
X97154619Y-126478095D01*
X97154619Y-126599047D01*
X97130428Y-126647428D01*
X97106238Y-126671619D01*
X97057857Y-126695809D01*
X96936904Y-126695809D01*
X96888523Y-126671619D01*
X96864333Y-126647428D01*
D10*
X50625428Y-93697428D02*
X50492095Y-93697428D01*
X50492095Y-93906952D02*
X50492095Y-93506952D01*
X50682571Y-93506952D01*
X50834952Y-93906952D02*
X50834952Y-93506952D01*
X51025428Y-93906952D02*
X51025428Y-93506952D01*
X51120666Y-93506952D01*
X51177809Y-93526000D01*
X51215904Y-93564095D01*
X51234952Y-93602190D01*
X51254000Y-93678380D01*
X51254000Y-93735523D01*
X51234952Y-93811714D01*
X51215904Y-93849809D01*
X51177809Y-93887904D01*
X51120666Y-93906952D01*
X51025428Y-93906952D01*
X51634952Y-93906952D02*
X51406380Y-93906952D01*
X51520666Y-93906952D02*
X51520666Y-93506952D01*
X51482571Y-93564095D01*
X51444476Y-93602190D01*
X51406380Y-93621238D01*
X110569428Y-125574428D02*
X110436095Y-125574428D01*
X110436095Y-125783952D02*
X110436095Y-125383952D01*
X110626571Y-125383952D01*
X110778952Y-125783952D02*
X110778952Y-125383952D01*
X110969428Y-125783952D02*
X110969428Y-125383952D01*
X111064666Y-125383952D01*
X111121809Y-125403000D01*
X111159904Y-125441095D01*
X111178952Y-125479190D01*
X111198000Y-125555380D01*
X111198000Y-125612523D01*
X111178952Y-125688714D01*
X111159904Y-125726809D01*
X111121809Y-125764904D01*
X111064666Y-125783952D01*
X110969428Y-125783952D01*
X111331333Y-125383952D02*
X111578952Y-125383952D01*
X111445619Y-125536333D01*
X111502761Y-125536333D01*
X111540857Y-125555380D01*
X111559904Y-125574428D01*
X111578952Y-125612523D01*
X111578952Y-125707761D01*
X111559904Y-125745857D01*
X111540857Y-125764904D01*
X111502761Y-125783952D01*
X111388476Y-125783952D01*
X111350380Y-125764904D01*
X111331333Y-125745857D01*
X50625428Y-129511428D02*
X50492095Y-129511428D01*
X50492095Y-129720952D02*
X50492095Y-129320952D01*
X50682571Y-129320952D01*
X50834952Y-129720952D02*
X50834952Y-129320952D01*
X51025428Y-129720952D02*
X51025428Y-129320952D01*
X51120666Y-129320952D01*
X51177809Y-129340000D01*
X51215904Y-129378095D01*
X51234952Y-129416190D01*
X51254000Y-129492380D01*
X51254000Y-129549523D01*
X51234952Y-129625714D01*
X51215904Y-129663809D01*
X51177809Y-129701904D01*
X51120666Y-129720952D01*
X51025428Y-129720952D01*
X51596857Y-129454285D02*
X51596857Y-129720952D01*
X51501619Y-129301904D02*
X51406380Y-129587619D01*
X51654000Y-129587619D01*
X99901428Y-93697428D02*
X99768095Y-93697428D01*
X99768095Y-93906952D02*
X99768095Y-93506952D01*
X99958571Y-93506952D01*
X100110952Y-93906952D02*
X100110952Y-93506952D01*
X100301428Y-93906952D02*
X100301428Y-93506952D01*
X100396666Y-93506952D01*
X100453809Y-93526000D01*
X100491904Y-93564095D01*
X100510952Y-93602190D01*
X100530000Y-93678380D01*
X100530000Y-93735523D01*
X100510952Y-93811714D01*
X100491904Y-93849809D01*
X100453809Y-93887904D01*
X100396666Y-93906952D01*
X100301428Y-93906952D01*
X100682380Y-93545047D02*
X100701428Y-93526000D01*
X100739523Y-93506952D01*
X100834761Y-93506952D01*
X100872857Y-93526000D01*
X100891904Y-93545047D01*
X100910952Y-93583142D01*
X100910952Y-93621238D01*
X100891904Y-93678380D01*
X100663333Y-93906952D01*
X100910952Y-93906952D01*
X110693238Y-130355952D02*
X110693238Y-129955952D01*
X110693238Y-130146428D02*
X110921809Y-130146428D01*
X110921809Y-130355952D02*
X110921809Y-129955952D01*
X111074190Y-129955952D02*
X111321809Y-129955952D01*
X111188476Y-130108333D01*
X111245619Y-130108333D01*
X111283714Y-130127380D01*
X111302761Y-130146428D01*
X111321809Y-130184523D01*
X111321809Y-130279761D01*
X111302761Y-130317857D01*
X111283714Y-130336904D01*
X111245619Y-130355952D01*
X111131333Y-130355952D01*
X111093238Y-130336904D01*
X111074190Y-130317857D01*
X102565238Y-93906952D02*
X102565238Y-93506952D01*
X102565238Y-93697428D02*
X102793809Y-93697428D01*
X102793809Y-93906952D02*
X102793809Y-93506952D01*
X102965238Y-93545047D02*
X102984285Y-93526000D01*
X103022380Y-93506952D01*
X103117619Y-93506952D01*
X103155714Y-93526000D01*
X103174761Y-93545047D01*
X103193809Y-93583142D01*
X103193809Y-93621238D01*
X103174761Y-93678380D01*
X102946190Y-93906952D01*
X103193809Y-93906952D01*
X48209238Y-93906952D02*
X48209238Y-93506952D01*
X48209238Y-93697428D02*
X48437809Y-93697428D01*
X48437809Y-93906952D02*
X48437809Y-93506952D01*
X48837809Y-93906952D02*
X48609238Y-93906952D01*
X48723523Y-93906952D02*
X48723523Y-93506952D01*
X48685428Y-93564095D01*
X48647333Y-93602190D01*
X48609238Y-93621238D01*
X48209238Y-129720952D02*
X48209238Y-129320952D01*
X48209238Y-129511428D02*
X48437809Y-129511428D01*
X48437809Y-129720952D02*
X48437809Y-129320952D01*
X48799714Y-129454285D02*
X48799714Y-129720952D01*
X48704476Y-129301904D02*
X48609238Y-129587619D01*
X48856857Y-129587619D01*
D13*
X96188815Y-101751315D02*
X96214473Y-101605921D01*
X96086184Y-101648684D02*
X96265789Y-101469079D01*
X96334210Y-101537500D01*
X96342763Y-101563158D01*
X96342763Y-101580263D01*
X96334210Y-101605921D01*
X96308552Y-101631579D01*
X96282894Y-101640131D01*
X96265789Y-101640131D01*
X96240131Y-101631579D01*
X96171710Y-101563158D01*
X96359868Y-101922368D02*
X96257236Y-101819736D01*
X96308552Y-101871052D02*
X96488157Y-101691447D01*
X96445394Y-101700000D01*
X96411184Y-101700000D01*
X96385526Y-101691447D01*
X95864355Y-101921829D02*
X95761723Y-101819197D01*
X95813039Y-101870513D02*
X95992644Y-101690908D01*
X95949881Y-101699460D01*
X95915671Y-101699460D01*
X95890013Y-101690908D01*
X95941328Y-101998802D02*
X96120933Y-101819197D01*
X96026855Y-101947487D02*
X96009749Y-102067223D01*
X96129486Y-101947487D02*
X95992644Y-101947487D01*
X96240670Y-101973144D02*
X96257775Y-101973144D01*
X96283433Y-101981697D01*
X96326196Y-102024460D01*
X96334749Y-102050118D01*
X96334749Y-102067223D01*
X96326196Y-102092881D01*
X96309091Y-102109986D01*
X96274881Y-102127092D01*
X96069618Y-102127092D01*
X96180802Y-102238276D01*
X98638815Y-104201315D02*
X98664473Y-104055921D01*
X98536184Y-104098684D02*
X98715789Y-103919079D01*
X98784210Y-103987500D01*
X98792763Y-104013158D01*
X98792763Y-104030263D01*
X98784210Y-104055921D01*
X98758552Y-104081579D01*
X98732894Y-104090131D01*
X98715789Y-104090131D01*
X98690131Y-104081579D01*
X98621710Y-104013158D01*
X98869736Y-104107236D02*
X98886841Y-104107236D01*
X98912499Y-104115789D01*
X98955262Y-104158552D01*
X98963815Y-104184210D01*
X98963815Y-104201315D01*
X98955262Y-104226973D01*
X98938157Y-104244078D01*
X98903947Y-104261184D01*
X98698684Y-104261184D01*
X98809868Y-104372368D01*
X98869197Y-103611723D02*
X98886302Y-103611723D01*
X98911960Y-103620276D01*
X98954723Y-103663039D01*
X98963276Y-103688697D01*
X98963276Y-103705802D01*
X98954723Y-103731460D01*
X98937618Y-103748565D01*
X98903408Y-103765671D01*
X98698145Y-103765671D01*
X98809329Y-103876855D01*
X99040250Y-103782776D02*
X99057355Y-103782776D01*
X99083013Y-103791328D01*
X99125776Y-103834092D01*
X99134328Y-103859749D01*
X99134328Y-103876855D01*
X99125776Y-103902513D01*
X99108671Y-103919618D01*
X99074460Y-103936723D01*
X98869197Y-103936723D01*
X98980381Y-104047907D01*
X99057355Y-104124881D02*
X99236960Y-103945276D01*
X99142881Y-104073565D02*
X99125776Y-104193302D01*
X99245513Y-104073565D02*
X99108671Y-104073565D01*
X71657666Y-125764904D02*
X71573000Y-125643952D01*
X71512523Y-125764904D02*
X71512523Y-125510904D01*
X71609285Y-125510904D01*
X71633476Y-125523000D01*
X71645571Y-125535095D01*
X71657666Y-125559285D01*
X71657666Y-125595571D01*
X71645571Y-125619761D01*
X71633476Y-125631857D01*
X71609285Y-125643952D01*
X71512523Y-125643952D01*
X71742333Y-125510904D02*
X71899571Y-125510904D01*
X71814904Y-125607666D01*
X71851190Y-125607666D01*
X71875380Y-125619761D01*
X71887476Y-125631857D01*
X71899571Y-125656047D01*
X71899571Y-125716523D01*
X71887476Y-125740714D01*
X71875380Y-125752809D01*
X71851190Y-125764904D01*
X71778619Y-125764904D01*
X71754428Y-125752809D01*
X71742333Y-125740714D01*
X71530666Y-126114904D02*
X71385523Y-126114904D01*
X71458095Y-126114904D02*
X71458095Y-125860904D01*
X71433904Y-125897190D01*
X71409714Y-125921380D01*
X71385523Y-125933476D01*
X71687904Y-125860904D02*
X71712095Y-125860904D01*
X71736285Y-125873000D01*
X71748380Y-125885095D01*
X71760476Y-125909285D01*
X71772571Y-125957666D01*
X71772571Y-126018142D01*
X71760476Y-126066523D01*
X71748380Y-126090714D01*
X71736285Y-126102809D01*
X71712095Y-126114904D01*
X71687904Y-126114904D01*
X71663714Y-126102809D01*
X71651619Y-126090714D01*
X71639523Y-126066523D01*
X71627428Y-126018142D01*
X71627428Y-125957666D01*
X71639523Y-125909285D01*
X71651619Y-125885095D01*
X71663714Y-125873000D01*
X71687904Y-125860904D01*
X71929809Y-125860904D02*
X71954000Y-125860904D01*
X71978190Y-125873000D01*
X71990285Y-125885095D01*
X72002380Y-125909285D01*
X72014476Y-125957666D01*
X72014476Y-126018142D01*
X72002380Y-126066523D01*
X71990285Y-126090714D01*
X71978190Y-126102809D01*
X71954000Y-126114904D01*
X71929809Y-126114904D01*
X71905619Y-126102809D01*
X71893523Y-126090714D01*
X71881428Y-126066523D01*
X71869333Y-126018142D01*
X71869333Y-125957666D01*
X71881428Y-125909285D01*
X71893523Y-125885095D01*
X71905619Y-125873000D01*
X71929809Y-125860904D01*
M02*
