G04 #@! TF.GenerationSoftware,KiCad,Pcbnew,(5.1.5-0-10_14)*
G04 #@! TF.CreationDate,2020-09-29T17:55:38-04:00*
G04 #@! TF.ProjectId,RAM2GS,52414d32-4753-42e6-9b69-6361645f7063,1.0*
G04 #@! TF.SameCoordinates,Original*
G04 #@! TF.FileFunction,Other,Fab,Top*
%FSLAX46Y46*%
G04 Gerber Fmt 4.6, Leading zero omitted, Abs format (unit mm)*
G04 Created by KiCad (PCBNEW (5.1.5-0-10_14)) date 2020-09-29 17:55:38*
%MOMM*%
%LPD*%
G04 APERTURE LIST*
%ADD10C,0.150000*%
%ADD11C,0.100000*%
%ADD12C,0.127000*%
%ADD13C,0.203200*%
%ADD14C,0.063500*%
%ADD15C,0.047625*%
%ADD16C,0.031750*%
%ADD17C,0.095250*%
G04 APERTURE END LIST*
D10*
X74775000Y-127650000D02*
X73775000Y-126650000D01*
X80275000Y-127650000D02*
X74775000Y-127650000D01*
X80275000Y-123250000D02*
X80275000Y-127650000D01*
X73775000Y-123250000D02*
X80275000Y-123250000D01*
X73775000Y-126650000D02*
X73775000Y-123250000D01*
D11*
X71430000Y-111600000D02*
X72280000Y-111600000D01*
X72780000Y-111100000D02*
X72780000Y-109400000D01*
X71430000Y-111600000D02*
X71430000Y-109400000D01*
X71430000Y-109400000D02*
X72780000Y-109400000D01*
X72280000Y-111600000D02*
X72780000Y-111100000D01*
X70570000Y-122050000D02*
X69720000Y-122050000D01*
X69220000Y-122550000D02*
X69220000Y-124250000D01*
X70570000Y-122050000D02*
X70570000Y-124250000D01*
X70570000Y-124250000D02*
X69220000Y-124250000D01*
X69720000Y-122050000D02*
X69220000Y-122550000D01*
X103537000Y-114500000D02*
X103537000Y-107800000D01*
X107237000Y-107800000D02*
X103537000Y-107800000D01*
X106237000Y-114500000D02*
X103537000Y-114500000D01*
X107237000Y-113500000D02*
X107237000Y-107800000D01*
X107237000Y-113500000D02*
X106237000Y-114500000D01*
D10*
X93175000Y-127650000D02*
X92175000Y-126650000D01*
X98675000Y-127650000D02*
X93175000Y-127650000D01*
X98675000Y-123250000D02*
X98675000Y-127650000D01*
X92175000Y-123250000D02*
X98675000Y-123250000D01*
X92175000Y-126650000D02*
X92175000Y-123250000D01*
X102375000Y-127650000D02*
X101375000Y-126650000D01*
X107875000Y-127650000D02*
X102375000Y-127650000D01*
X107875000Y-123250000D02*
X107875000Y-127650000D01*
X101375000Y-123250000D02*
X107875000Y-123250000D01*
X101375000Y-126650000D02*
X101375000Y-123250000D01*
X83975000Y-127650000D02*
X82975000Y-126650000D01*
X89475000Y-127650000D02*
X83975000Y-127650000D01*
X89475000Y-123250000D02*
X89475000Y-127650000D01*
X82975000Y-123250000D02*
X89475000Y-123250000D01*
X82975000Y-126650000D02*
X82975000Y-123250000D01*
D11*
X79400000Y-101550000D02*
X92400000Y-101550000D01*
X92400000Y-101550000D02*
X92400000Y-115550000D01*
X92400000Y-115550000D02*
X78400000Y-115550000D01*
X78400000Y-115550000D02*
X78400000Y-102550000D01*
X78400000Y-102550000D02*
X79400000Y-101550000D01*
X54950000Y-99750000D02*
X53350000Y-99750000D01*
X54950000Y-98950000D02*
X54950000Y-99750000D01*
X53350000Y-98950000D02*
X54950000Y-98950000D01*
X53350000Y-99750000D02*
X53350000Y-98950000D01*
D10*
X60150000Y-124875000D02*
X58150000Y-124875000D01*
X60150000Y-123625000D02*
X60150000Y-124875000D01*
X58150000Y-123625000D02*
X60150000Y-123625000D01*
X58150000Y-124875000D02*
X58150000Y-123625000D01*
D11*
X69200000Y-120650000D02*
X70800000Y-120650000D01*
X69200000Y-121450000D02*
X69200000Y-120650000D01*
X70800000Y-121450000D02*
X69200000Y-121450000D01*
X70800000Y-120650000D02*
X70800000Y-121450000D01*
X69900000Y-109600000D02*
X69900000Y-111200000D01*
X69100000Y-109600000D02*
X69900000Y-109600000D01*
X69100000Y-111200000D02*
X69100000Y-109600000D01*
X69900000Y-111200000D02*
X69100000Y-111200000D01*
D12*
X113030000Y-131572000D02*
X113030000Y-139700000D01*
X113030000Y-139700000D02*
X55626000Y-139700000D01*
X55626000Y-139700000D02*
X55626000Y-131572000D01*
D11*
X55070000Y-100540000D02*
X64230000Y-100540000D01*
X64230000Y-100540000D02*
X64230000Y-122760000D01*
X64230000Y-122760000D02*
X54070000Y-122760000D01*
X54070000Y-122760000D02*
X54070000Y-101540000D01*
X55070000Y-100540000D02*
X54070000Y-101540000D01*
D10*
X108700000Y-116775000D02*
X106700000Y-116775000D01*
X108700000Y-115525000D02*
X108700000Y-116775000D01*
X106700000Y-115525000D02*
X108700000Y-115525000D01*
X106700000Y-116775000D02*
X106700000Y-115525000D01*
X110500000Y-106175000D02*
X108500000Y-106175000D01*
X110500000Y-104925000D02*
X110500000Y-106175000D01*
X108500000Y-104925000D02*
X110500000Y-104925000D01*
X108500000Y-106175000D02*
X108500000Y-104925000D01*
X110982000Y-128514000D02*
X108982000Y-128514000D01*
X110982000Y-127264000D02*
X110982000Y-128514000D01*
X108982000Y-127264000D02*
X110982000Y-127264000D01*
X108982000Y-128514000D02*
X108982000Y-127264000D01*
X57928000Y-128153000D02*
X59928000Y-128153000D01*
X57928000Y-129403000D02*
X57928000Y-128153000D01*
X59928000Y-129403000D02*
X57928000Y-129403000D01*
X59928000Y-128153000D02*
X59928000Y-129403000D01*
D11*
X72200000Y-124050000D02*
X72200000Y-122450000D01*
X73000000Y-124050000D02*
X72200000Y-124050000D01*
X73000000Y-122450000D02*
X73000000Y-124050000D01*
X72200000Y-122450000D02*
X73000000Y-122450000D01*
X95500000Y-107250000D02*
X95500000Y-108850000D01*
X94700000Y-107250000D02*
X95500000Y-107250000D01*
X94700000Y-108850000D02*
X94700000Y-107250000D01*
X95500000Y-108850000D02*
X94700000Y-108850000D01*
X64950000Y-124350000D02*
X63350000Y-124350000D01*
X64950000Y-123550000D02*
X64950000Y-124350000D01*
X63350000Y-123550000D02*
X64950000Y-123550000D01*
X63350000Y-124350000D02*
X63350000Y-123550000D01*
X51750000Y-101300000D02*
X51750000Y-102900000D01*
X50950000Y-101300000D02*
X51750000Y-101300000D01*
X50950000Y-102900000D02*
X50950000Y-101300000D01*
X51750000Y-102900000D02*
X50950000Y-102900000D01*
X90450000Y-99250000D02*
X88850000Y-99250000D01*
X90450000Y-98450000D02*
X90450000Y-99250000D01*
X88850000Y-98450000D02*
X90450000Y-98450000D01*
X88850000Y-99250000D02*
X88850000Y-98450000D01*
X95100000Y-112450000D02*
X95100000Y-110850000D01*
X95900000Y-112450000D02*
X95100000Y-112450000D01*
X95900000Y-110850000D02*
X95900000Y-112450000D01*
X95100000Y-110850000D02*
X95900000Y-110850000D01*
X83450000Y-99250000D02*
X81850000Y-99250000D01*
X83450000Y-98450000D02*
X83450000Y-99250000D01*
X81850000Y-98450000D02*
X83450000Y-98450000D01*
X81850000Y-99250000D02*
X81850000Y-98450000D01*
X64950000Y-99750000D02*
X63350000Y-99750000D01*
X64950000Y-98950000D02*
X64950000Y-99750000D01*
X63350000Y-98950000D02*
X64950000Y-98950000D01*
X63350000Y-99750000D02*
X63350000Y-98950000D01*
X54950000Y-124350000D02*
X53350000Y-124350000D01*
X54950000Y-123550000D02*
X54950000Y-124350000D01*
X53350000Y-123550000D02*
X54950000Y-123550000D01*
X53350000Y-124350000D02*
X53350000Y-123550000D01*
X66550000Y-111600000D02*
X66550000Y-110000000D01*
X67350000Y-111600000D02*
X66550000Y-111600000D01*
X67350000Y-110000000D02*
X67350000Y-111600000D01*
X66550000Y-110000000D02*
X67350000Y-110000000D01*
X51750000Y-106100000D02*
X51750000Y-107700000D01*
X50950000Y-106100000D02*
X51750000Y-106100000D01*
X50950000Y-107700000D02*
X50950000Y-106100000D01*
X51750000Y-107700000D02*
X50950000Y-107700000D01*
X89950000Y-118650000D02*
X88350000Y-118650000D01*
X89950000Y-117850000D02*
X89950000Y-118650000D01*
X88350000Y-117850000D02*
X89950000Y-117850000D01*
X88350000Y-118650000D02*
X88350000Y-117850000D01*
X82950000Y-118650000D02*
X81350000Y-118650000D01*
X82950000Y-117850000D02*
X82950000Y-118650000D01*
X81350000Y-117850000D02*
X82950000Y-117850000D01*
X81350000Y-118650000D02*
X81350000Y-117850000D01*
X76100000Y-107250000D02*
X76100000Y-108850000D01*
X75300000Y-107250000D02*
X76100000Y-107250000D01*
X75300000Y-108850000D02*
X75300000Y-107250000D01*
X76100000Y-108850000D02*
X75300000Y-108850000D01*
X51750000Y-110100000D02*
X51750000Y-111700000D01*
X50950000Y-110100000D02*
X51750000Y-110100000D01*
X50950000Y-111700000D02*
X50950000Y-110100000D01*
X51750000Y-111700000D02*
X50950000Y-111700000D01*
X66550000Y-106800000D02*
X66550000Y-105200000D01*
X67350000Y-106800000D02*
X66550000Y-106800000D01*
X67350000Y-105200000D02*
X67350000Y-106800000D01*
X66550000Y-105200000D02*
X67350000Y-105200000D01*
X99800000Y-124050000D02*
X99800000Y-122450000D01*
X100600000Y-124050000D02*
X99800000Y-124050000D01*
X100600000Y-122450000D02*
X100600000Y-124050000D01*
X99800000Y-122450000D02*
X100600000Y-122450000D01*
X81400000Y-124050000D02*
X81400000Y-122450000D01*
X82200000Y-124050000D02*
X81400000Y-124050000D01*
X82200000Y-122450000D02*
X82200000Y-124050000D01*
X81400000Y-122450000D02*
X82200000Y-122450000D01*
X90600000Y-124050000D02*
X90600000Y-122450000D01*
X91400000Y-124050000D02*
X90600000Y-124050000D01*
X91400000Y-122450000D02*
X91400000Y-124050000D01*
X90600000Y-122450000D02*
X91400000Y-122450000D01*
X52054000Y-93726000D02*
G75*
G03X52054000Y-93726000I-1000000J0D01*
G01*
X111998000Y-125603000D02*
G75*
G03X111998000Y-125603000I-1000000J0D01*
G01*
X52054000Y-129540000D02*
G75*
G03X52054000Y-129540000I-1000000J0D01*
G01*
X101330000Y-93726000D02*
G75*
G03X101330000Y-93726000I-1000000J0D01*
G01*
X111998000Y-130175000D02*
G75*
G03X111998000Y-130175000I-1000000J0D01*
G01*
X96565165Y-102849049D02*
X95150951Y-101434835D01*
X97449049Y-101965165D02*
X96565165Y-102849049D01*
X96034835Y-100550951D02*
X97449049Y-101965165D01*
X95150951Y-101434835D02*
X96034835Y-100550951D01*
X98484835Y-103000951D02*
X99899049Y-104415165D01*
X97600951Y-103884835D02*
X98484835Y-103000951D01*
X99015165Y-105299049D02*
X97600951Y-103884835D01*
X99899049Y-104415165D02*
X99015165Y-105299049D01*
X72700000Y-126275000D02*
X70700000Y-126275000D01*
X72700000Y-125025000D02*
X72700000Y-126275000D01*
X70700000Y-125025000D02*
X72700000Y-125025000D01*
X70700000Y-126275000D02*
X70700000Y-125025000D01*
X49514000Y-93726000D02*
G75*
G03X49514000Y-93726000I-1000000J0D01*
G01*
X103870000Y-93726000D02*
G75*
G03X103870000Y-93726000I-1000000J0D01*
G01*
X49514000Y-129540000D02*
G75*
G03X49514000Y-129540000I-1000000J0D01*
G01*
X111998000Y-123063000D02*
G75*
G03X111998000Y-123063000I-1000000J0D01*
G01*
X70900000Y-108400000D02*
X70900000Y-107400000D01*
X70900000Y-107400000D02*
X72900000Y-107400000D01*
X72900000Y-107400000D02*
X72900000Y-108400000D01*
X72900000Y-108400000D02*
X70900000Y-108400000D01*
X69850000Y-101300000D02*
X70850000Y-101300000D01*
X70850000Y-101300000D02*
X70850000Y-103300000D01*
X70850000Y-103300000D02*
X69850000Y-103300000D01*
X69850000Y-103300000D02*
X69850000Y-101300000D01*
X69850000Y-103900000D02*
X70850000Y-103900000D01*
X70850000Y-103900000D02*
X70850000Y-105900000D01*
X70850000Y-105900000D02*
X69850000Y-105900000D01*
X69850000Y-105900000D02*
X69850000Y-103900000D01*
X102950000Y-120650000D02*
X102950000Y-119650000D01*
X102950000Y-119650000D02*
X104950000Y-119650000D01*
X104950000Y-119650000D02*
X104950000Y-120650000D01*
X104950000Y-120650000D02*
X102950000Y-120650000D01*
X105600000Y-120650000D02*
X105600000Y-119650000D01*
X105600000Y-119650000D02*
X107600000Y-119650000D01*
X107600000Y-119650000D02*
X107600000Y-120650000D01*
X107600000Y-120650000D02*
X105600000Y-120650000D01*
X68600000Y-116800000D02*
X69600000Y-117800000D01*
X68600000Y-117800000D02*
X68600000Y-112800000D01*
X75600000Y-117800000D02*
X68600000Y-117800000D01*
X75600000Y-112800000D02*
X75600000Y-117800000D01*
X68600000Y-112800000D02*
X75600000Y-112800000D01*
D13*
X76405723Y-125004895D02*
X76405723Y-125662876D01*
X76444428Y-125740285D01*
X76483133Y-125778990D01*
X76560542Y-125817695D01*
X76715361Y-125817695D01*
X76792771Y-125778990D01*
X76831476Y-125740285D01*
X76870180Y-125662876D01*
X76870180Y-125004895D01*
X77605571Y-125275828D02*
X77605571Y-125817695D01*
X77412047Y-124966190D02*
X77218523Y-125546761D01*
X77721685Y-125546761D01*
D12*
X74412428Y-126187809D02*
X74751095Y-126187809D01*
X74533380Y-126695809D01*
X75162333Y-126357142D02*
X75162333Y-126695809D01*
X75041380Y-126163619D02*
X74920428Y-126526476D01*
X75234904Y-126526476D01*
X75404238Y-126550666D02*
X75646142Y-126550666D01*
X75355857Y-126695809D02*
X75525190Y-126187809D01*
X75694523Y-126695809D01*
X75863857Y-126695809D02*
X75863857Y-126187809D01*
X75863857Y-126429714D02*
X76154142Y-126429714D01*
X76154142Y-126695809D02*
X76154142Y-126187809D01*
X76686333Y-126647428D02*
X76662142Y-126671619D01*
X76589571Y-126695809D01*
X76541190Y-126695809D01*
X76468619Y-126671619D01*
X76420238Y-126623238D01*
X76396047Y-126574857D01*
X76371857Y-126478095D01*
X76371857Y-126405523D01*
X76396047Y-126308761D01*
X76420238Y-126260380D01*
X76468619Y-126212000D01*
X76541190Y-126187809D01*
X76589571Y-126187809D01*
X76662142Y-126212000D01*
X76686333Y-126236190D01*
X76831476Y-126187809D02*
X77121761Y-126187809D01*
X76976619Y-126695809D02*
X76976619Y-126187809D01*
X77266904Y-126236190D02*
X77291095Y-126212000D01*
X77339476Y-126187809D01*
X77460428Y-126187809D01*
X77508809Y-126212000D01*
X77533000Y-126236190D01*
X77557190Y-126284571D01*
X77557190Y-126332952D01*
X77533000Y-126405523D01*
X77242714Y-126695809D01*
X77557190Y-126695809D01*
X77992619Y-126357142D02*
X77992619Y-126695809D01*
X77871666Y-126163619D02*
X77750714Y-126526476D01*
X78065190Y-126526476D01*
X78500619Y-126187809D02*
X78258714Y-126187809D01*
X78234523Y-126429714D01*
X78258714Y-126405523D01*
X78307095Y-126381333D01*
X78428047Y-126381333D01*
X78476428Y-126405523D01*
X78500619Y-126429714D01*
X78524809Y-126478095D01*
X78524809Y-126599047D01*
X78500619Y-126647428D01*
X78476428Y-126671619D01*
X78428047Y-126695809D01*
X78307095Y-126695809D01*
X78258714Y-126671619D01*
X78234523Y-126647428D01*
X78742523Y-126695809D02*
X78742523Y-126187809D01*
X78936047Y-126187809D01*
X78984428Y-126212000D01*
X79008619Y-126236190D01*
X79032809Y-126284571D01*
X79032809Y-126357142D01*
X79008619Y-126405523D01*
X78984428Y-126429714D01*
X78936047Y-126453904D01*
X78742523Y-126453904D01*
X79202142Y-126187809D02*
X79323095Y-126695809D01*
X79419857Y-126332952D01*
X79516619Y-126695809D01*
X79637571Y-126187809D01*
D14*
X71960904Y-110814476D02*
X72166523Y-110814476D01*
X72190714Y-110802380D01*
X72202809Y-110790285D01*
X72214904Y-110766095D01*
X72214904Y-110717714D01*
X72202809Y-110693523D01*
X72190714Y-110681428D01*
X72166523Y-110669333D01*
X71960904Y-110669333D01*
X72214904Y-110415333D02*
X72214904Y-110560476D01*
X72214904Y-110487904D02*
X71960904Y-110487904D01*
X71997190Y-110512095D01*
X72021380Y-110536285D01*
X72033476Y-110560476D01*
X71960904Y-110258095D02*
X71960904Y-110233904D01*
X71973000Y-110209714D01*
X71985095Y-110197619D01*
X72009285Y-110185523D01*
X72057666Y-110173428D01*
X72118142Y-110173428D01*
X72166523Y-110185523D01*
X72190714Y-110197619D01*
X72202809Y-110209714D01*
X72214904Y-110233904D01*
X72214904Y-110258095D01*
X72202809Y-110282285D01*
X72190714Y-110294380D01*
X72166523Y-110306476D01*
X72118142Y-110318571D01*
X72057666Y-110318571D01*
X72009285Y-110306476D01*
X71985095Y-110294380D01*
X71973000Y-110282285D01*
X71960904Y-110258095D01*
D15*
X71645678Y-111479714D02*
X71645678Y-111352714D01*
X71836178Y-111434357D01*
X71709178Y-111198500D02*
X71836178Y-111198500D01*
X71636607Y-111243857D02*
X71772678Y-111289214D01*
X71772678Y-111171285D01*
X71836178Y-111008000D02*
X71836178Y-111098714D01*
X71645678Y-111098714D01*
X71645678Y-110971714D02*
X71836178Y-110908214D01*
X71645678Y-110844714D01*
X71818035Y-110672357D02*
X71827107Y-110681428D01*
X71836178Y-110708642D01*
X71836178Y-110726785D01*
X71827107Y-110754000D01*
X71808964Y-110772142D01*
X71790821Y-110781214D01*
X71754535Y-110790285D01*
X71727321Y-110790285D01*
X71691035Y-110781214D01*
X71672892Y-110772142D01*
X71654750Y-110754000D01*
X71645678Y-110726785D01*
X71645678Y-110708642D01*
X71654750Y-110681428D01*
X71663821Y-110672357D01*
X71836178Y-110490928D02*
X71836178Y-110599785D01*
X71836178Y-110545357D02*
X71645678Y-110545357D01*
X71672892Y-110563500D01*
X71691035Y-110581642D01*
X71700107Y-110599785D01*
X71654750Y-110309500D02*
X71645678Y-110327642D01*
X71645678Y-110354857D01*
X71654750Y-110382071D01*
X71672892Y-110400214D01*
X71691035Y-110409285D01*
X71727321Y-110418357D01*
X71754535Y-110418357D01*
X71790821Y-110409285D01*
X71808964Y-110400214D01*
X71827107Y-110382071D01*
X71836178Y-110354857D01*
X71836178Y-110336714D01*
X71827107Y-110309500D01*
X71818035Y-110300428D01*
X71754535Y-110300428D01*
X71754535Y-110336714D01*
X71645678Y-110182500D02*
X71645678Y-110164357D01*
X71654750Y-110146214D01*
X71663821Y-110137142D01*
X71681964Y-110128071D01*
X71718250Y-110119000D01*
X71763607Y-110119000D01*
X71799892Y-110128071D01*
X71818035Y-110137142D01*
X71827107Y-110146214D01*
X71836178Y-110164357D01*
X71836178Y-110182500D01*
X71827107Y-110200642D01*
X71818035Y-110209714D01*
X71799892Y-110218785D01*
X71763607Y-110227857D01*
X71718250Y-110227857D01*
X71681964Y-110218785D01*
X71663821Y-110209714D01*
X71654750Y-110200642D01*
X71645678Y-110182500D01*
X71709178Y-109955714D02*
X71836178Y-109955714D01*
X71636607Y-110001071D02*
X71772678Y-110046428D01*
X71772678Y-109928500D01*
X71654750Y-109756142D02*
X71645678Y-109774285D01*
X71645678Y-109801500D01*
X71654750Y-109828714D01*
X71672892Y-109846857D01*
X71691035Y-109855928D01*
X71727321Y-109865000D01*
X71754535Y-109865000D01*
X71790821Y-109855928D01*
X71808964Y-109846857D01*
X71827107Y-109828714D01*
X71836178Y-109801500D01*
X71836178Y-109783357D01*
X71827107Y-109756142D01*
X71818035Y-109747071D01*
X71754535Y-109747071D01*
X71754535Y-109783357D01*
X71645678Y-109683571D02*
X71836178Y-109638214D01*
X71700107Y-109601928D01*
X71836178Y-109565642D01*
X71645678Y-109520285D01*
D14*
X69760904Y-123343523D02*
X69966523Y-123343523D01*
X69990714Y-123331428D01*
X70002809Y-123319333D01*
X70014904Y-123295142D01*
X70014904Y-123246761D01*
X70002809Y-123222571D01*
X69990714Y-123210476D01*
X69966523Y-123198380D01*
X69760904Y-123198380D01*
X70014904Y-123065333D02*
X70014904Y-123016952D01*
X70002809Y-122992761D01*
X69990714Y-122980666D01*
X69954428Y-122956476D01*
X69906047Y-122944380D01*
X69809285Y-122944380D01*
X69785095Y-122956476D01*
X69773000Y-122968571D01*
X69760904Y-122992761D01*
X69760904Y-123041142D01*
X69773000Y-123065333D01*
X69785095Y-123077428D01*
X69809285Y-123089523D01*
X69869761Y-123089523D01*
X69893952Y-123077428D01*
X69906047Y-123065333D01*
X69918142Y-123041142D01*
X69918142Y-122992761D01*
X69906047Y-122968571D01*
X69893952Y-122956476D01*
X69869761Y-122944380D01*
D15*
X70145678Y-124129714D02*
X70145678Y-124002714D01*
X70336178Y-124084357D01*
X70209178Y-123848500D02*
X70336178Y-123848500D01*
X70136607Y-123893857D02*
X70272678Y-123939214D01*
X70272678Y-123821285D01*
X70336178Y-123658000D02*
X70336178Y-123748714D01*
X70145678Y-123748714D01*
X70145678Y-123621714D02*
X70336178Y-123558214D01*
X70145678Y-123494714D01*
X70318035Y-123322357D02*
X70327107Y-123331428D01*
X70336178Y-123358642D01*
X70336178Y-123376785D01*
X70327107Y-123404000D01*
X70308964Y-123422142D01*
X70290821Y-123431214D01*
X70254535Y-123440285D01*
X70227321Y-123440285D01*
X70191035Y-123431214D01*
X70172892Y-123422142D01*
X70154750Y-123404000D01*
X70145678Y-123376785D01*
X70145678Y-123358642D01*
X70154750Y-123331428D01*
X70163821Y-123322357D01*
X70336178Y-123140928D02*
X70336178Y-123249785D01*
X70336178Y-123195357D02*
X70145678Y-123195357D01*
X70172892Y-123213500D01*
X70191035Y-123231642D01*
X70200107Y-123249785D01*
X70154750Y-122959500D02*
X70145678Y-122977642D01*
X70145678Y-123004857D01*
X70154750Y-123032071D01*
X70172892Y-123050214D01*
X70191035Y-123059285D01*
X70227321Y-123068357D01*
X70254535Y-123068357D01*
X70290821Y-123059285D01*
X70308964Y-123050214D01*
X70327107Y-123032071D01*
X70336178Y-123004857D01*
X70336178Y-122986714D01*
X70327107Y-122959500D01*
X70318035Y-122950428D01*
X70254535Y-122950428D01*
X70254535Y-122986714D01*
X70145678Y-122832500D02*
X70145678Y-122814357D01*
X70154750Y-122796214D01*
X70163821Y-122787142D01*
X70181964Y-122778071D01*
X70218250Y-122769000D01*
X70263607Y-122769000D01*
X70299892Y-122778071D01*
X70318035Y-122787142D01*
X70327107Y-122796214D01*
X70336178Y-122814357D01*
X70336178Y-122832500D01*
X70327107Y-122850642D01*
X70318035Y-122859714D01*
X70299892Y-122868785D01*
X70263607Y-122877857D01*
X70218250Y-122877857D01*
X70181964Y-122868785D01*
X70163821Y-122859714D01*
X70154750Y-122850642D01*
X70145678Y-122832500D01*
X70209178Y-122605714D02*
X70336178Y-122605714D01*
X70136607Y-122651071D02*
X70272678Y-122696428D01*
X70272678Y-122578500D01*
X70154750Y-122406142D02*
X70145678Y-122424285D01*
X70145678Y-122451500D01*
X70154750Y-122478714D01*
X70172892Y-122496857D01*
X70191035Y-122505928D01*
X70227321Y-122515000D01*
X70254535Y-122515000D01*
X70290821Y-122505928D01*
X70308964Y-122496857D01*
X70327107Y-122478714D01*
X70336178Y-122451500D01*
X70336178Y-122433357D01*
X70327107Y-122406142D01*
X70318035Y-122397071D01*
X70254535Y-122397071D01*
X70254535Y-122433357D01*
X70145678Y-122333571D02*
X70336178Y-122288214D01*
X70200107Y-122251928D01*
X70336178Y-122215642D01*
X70145678Y-122170285D01*
D12*
X106487666Y-113919809D02*
X106487666Y-113677904D01*
X106632809Y-113968190D02*
X106124809Y-113798857D01*
X106632809Y-113629523D01*
X106124809Y-113508571D02*
X106124809Y-113169904D01*
X106632809Y-113508571D01*
X106632809Y-113169904D01*
X106632809Y-112710285D02*
X106632809Y-113000571D01*
X106632809Y-112855428D02*
X106124809Y-112855428D01*
X106197380Y-112903809D01*
X106245761Y-112952190D01*
X106269952Y-113000571D01*
X106632809Y-112226476D02*
X106632809Y-112516761D01*
X106632809Y-112371619D02*
X106124809Y-112371619D01*
X106197380Y-112420000D01*
X106245761Y-112468380D01*
X106269952Y-112516761D01*
X106632809Y-111742666D02*
X106632809Y-112032952D01*
X106632809Y-111887809D02*
X106124809Y-111887809D01*
X106197380Y-111936190D01*
X106245761Y-111984571D01*
X106269952Y-112032952D01*
X106124809Y-111573333D02*
X106124809Y-111234666D01*
X106632809Y-111452380D01*
X106584428Y-110750857D02*
X106608619Y-110775047D01*
X106632809Y-110847619D01*
X106632809Y-110896000D01*
X106608619Y-110968571D01*
X106560238Y-111016952D01*
X106511857Y-111041142D01*
X106415095Y-111065333D01*
X106342523Y-111065333D01*
X106245761Y-111041142D01*
X106197380Y-111016952D01*
X106149000Y-110968571D01*
X106124809Y-110896000D01*
X106124809Y-110847619D01*
X106149000Y-110775047D01*
X106173190Y-110750857D01*
X106632809Y-110533142D02*
X106124809Y-110533142D01*
X106366714Y-110533142D02*
X106366714Y-110242857D01*
X106632809Y-110242857D02*
X106124809Y-110242857D01*
X106439285Y-110000952D02*
X106439285Y-109613904D01*
X106124809Y-109420380D02*
X106124809Y-109105904D01*
X106318333Y-109275238D01*
X106318333Y-109202666D01*
X106342523Y-109154285D01*
X106366714Y-109130095D01*
X106415095Y-109105904D01*
X106536047Y-109105904D01*
X106584428Y-109130095D01*
X106608619Y-109154285D01*
X106632809Y-109202666D01*
X106632809Y-109347809D01*
X106608619Y-109396190D01*
X106584428Y-109420380D01*
X106584428Y-108888190D02*
X106608619Y-108864000D01*
X106632809Y-108888190D01*
X106608619Y-108912380D01*
X106584428Y-108888190D01*
X106632809Y-108888190D01*
X106124809Y-108694666D02*
X106124809Y-108380190D01*
X106318333Y-108549523D01*
X106318333Y-108476952D01*
X106342523Y-108428571D01*
X106366714Y-108404380D01*
X106415095Y-108380190D01*
X106536047Y-108380190D01*
X106584428Y-108404380D01*
X106608619Y-108428571D01*
X106632809Y-108476952D01*
X106632809Y-108622095D01*
X106608619Y-108670476D01*
X106584428Y-108694666D01*
D13*
X104941895Y-111769276D02*
X105599876Y-111769276D01*
X105677285Y-111730571D01*
X105715990Y-111691866D01*
X105754695Y-111614457D01*
X105754695Y-111459638D01*
X105715990Y-111382228D01*
X105677285Y-111343523D01*
X105599876Y-111304819D01*
X104941895Y-111304819D01*
X105290238Y-110801657D02*
X105251533Y-110879066D01*
X105212828Y-110917771D01*
X105135419Y-110956476D01*
X105096714Y-110956476D01*
X105019304Y-110917771D01*
X104980600Y-110879066D01*
X104941895Y-110801657D01*
X104941895Y-110646838D01*
X104980600Y-110569428D01*
X105019304Y-110530723D01*
X105096714Y-110492019D01*
X105135419Y-110492019D01*
X105212828Y-110530723D01*
X105251533Y-110569428D01*
X105290238Y-110646838D01*
X105290238Y-110801657D01*
X105328942Y-110879066D01*
X105367647Y-110917771D01*
X105445057Y-110956476D01*
X105599876Y-110956476D01*
X105677285Y-110917771D01*
X105715990Y-110879066D01*
X105754695Y-110801657D01*
X105754695Y-110646838D01*
X105715990Y-110569428D01*
X105677285Y-110530723D01*
X105599876Y-110492019D01*
X105445057Y-110492019D01*
X105367647Y-110530723D01*
X105328942Y-110569428D01*
X105290238Y-110646838D01*
X94805723Y-125004895D02*
X94805723Y-125662876D01*
X94844428Y-125740285D01*
X94883133Y-125778990D01*
X94960542Y-125817695D01*
X95115361Y-125817695D01*
X95192771Y-125778990D01*
X95231476Y-125740285D01*
X95270180Y-125662876D01*
X95270180Y-125004895D01*
X96005571Y-125004895D02*
X95850752Y-125004895D01*
X95773342Y-125043600D01*
X95734638Y-125082304D01*
X95657228Y-125198419D01*
X95618523Y-125353238D01*
X95618523Y-125662876D01*
X95657228Y-125740285D01*
X95695933Y-125778990D01*
X95773342Y-125817695D01*
X95928161Y-125817695D01*
X96005571Y-125778990D01*
X96044276Y-125740285D01*
X96082980Y-125662876D01*
X96082980Y-125469352D01*
X96044276Y-125391942D01*
X96005571Y-125353238D01*
X95928161Y-125314533D01*
X95773342Y-125314533D01*
X95695933Y-125353238D01*
X95657228Y-125391942D01*
X95618523Y-125469352D01*
D12*
X92848714Y-126187809D02*
X93187380Y-126187809D01*
X92969666Y-126695809D01*
X93598619Y-126357142D02*
X93598619Y-126695809D01*
X93477666Y-126163619D02*
X93356714Y-126526476D01*
X93671190Y-126526476D01*
X94106619Y-126695809D02*
X93864714Y-126695809D01*
X93864714Y-126187809D01*
X94203380Y-126187809D02*
X94372714Y-126695809D01*
X94542047Y-126187809D01*
X95001666Y-126647428D02*
X94977476Y-126671619D01*
X94904904Y-126695809D01*
X94856523Y-126695809D01*
X94783952Y-126671619D01*
X94735571Y-126623238D01*
X94711380Y-126574857D01*
X94687190Y-126478095D01*
X94687190Y-126405523D01*
X94711380Y-126308761D01*
X94735571Y-126260380D01*
X94783952Y-126212000D01*
X94856523Y-126187809D01*
X94904904Y-126187809D01*
X94977476Y-126212000D01*
X95001666Y-126236190D01*
X95195190Y-126236190D02*
X95219380Y-126212000D01*
X95267761Y-126187809D01*
X95388714Y-126187809D01*
X95437095Y-126212000D01*
X95461285Y-126236190D01*
X95485476Y-126284571D01*
X95485476Y-126332952D01*
X95461285Y-126405523D01*
X95171000Y-126695809D01*
X95485476Y-126695809D01*
X95920904Y-126357142D02*
X95920904Y-126695809D01*
X95799952Y-126163619D02*
X95679000Y-126526476D01*
X95993476Y-126526476D01*
X96428904Y-126187809D02*
X96187000Y-126187809D01*
X96162809Y-126429714D01*
X96187000Y-126405523D01*
X96235380Y-126381333D01*
X96356333Y-126381333D01*
X96404714Y-126405523D01*
X96428904Y-126429714D01*
X96453095Y-126478095D01*
X96453095Y-126599047D01*
X96428904Y-126647428D01*
X96404714Y-126671619D01*
X96356333Y-126695809D01*
X96235380Y-126695809D01*
X96187000Y-126671619D01*
X96162809Y-126647428D01*
X96646619Y-126550666D02*
X96888523Y-126550666D01*
X96598238Y-126695809D02*
X96767571Y-126187809D01*
X96936904Y-126695809D01*
X97106238Y-126695809D02*
X97106238Y-126187809D01*
X97299761Y-126187809D01*
X97348142Y-126212000D01*
X97372333Y-126236190D01*
X97396523Y-126284571D01*
X97396523Y-126357142D01*
X97372333Y-126405523D01*
X97348142Y-126429714D01*
X97299761Y-126453904D01*
X97106238Y-126453904D01*
X97565857Y-126187809D02*
X97686809Y-126695809D01*
X97783571Y-126332952D01*
X97880333Y-126695809D01*
X98001285Y-126187809D01*
D13*
X104005723Y-125004895D02*
X104005723Y-125662876D01*
X104044428Y-125740285D01*
X104083133Y-125778990D01*
X104160542Y-125817695D01*
X104315361Y-125817695D01*
X104392771Y-125778990D01*
X104431476Y-125740285D01*
X104470180Y-125662876D01*
X104470180Y-125004895D01*
X104779819Y-125004895D02*
X105321685Y-125004895D01*
X104973342Y-125817695D01*
D12*
X102048714Y-126187809D02*
X102387380Y-126187809D01*
X102169666Y-126695809D01*
X102798619Y-126357142D02*
X102798619Y-126695809D01*
X102677666Y-126163619D02*
X102556714Y-126526476D01*
X102871190Y-126526476D01*
X103306619Y-126695809D02*
X103064714Y-126695809D01*
X103064714Y-126187809D01*
X103403380Y-126187809D02*
X103572714Y-126695809D01*
X103742047Y-126187809D01*
X104201666Y-126647428D02*
X104177476Y-126671619D01*
X104104904Y-126695809D01*
X104056523Y-126695809D01*
X103983952Y-126671619D01*
X103935571Y-126623238D01*
X103911380Y-126574857D01*
X103887190Y-126478095D01*
X103887190Y-126405523D01*
X103911380Y-126308761D01*
X103935571Y-126260380D01*
X103983952Y-126212000D01*
X104056523Y-126187809D01*
X104104904Y-126187809D01*
X104177476Y-126212000D01*
X104201666Y-126236190D01*
X104395190Y-126236190D02*
X104419380Y-126212000D01*
X104467761Y-126187809D01*
X104588714Y-126187809D01*
X104637095Y-126212000D01*
X104661285Y-126236190D01*
X104685476Y-126284571D01*
X104685476Y-126332952D01*
X104661285Y-126405523D01*
X104371000Y-126695809D01*
X104685476Y-126695809D01*
X105120904Y-126357142D02*
X105120904Y-126695809D01*
X104999952Y-126163619D02*
X104879000Y-126526476D01*
X105193476Y-126526476D01*
X105628904Y-126187809D02*
X105387000Y-126187809D01*
X105362809Y-126429714D01*
X105387000Y-126405523D01*
X105435380Y-126381333D01*
X105556333Y-126381333D01*
X105604714Y-126405523D01*
X105628904Y-126429714D01*
X105653095Y-126478095D01*
X105653095Y-126599047D01*
X105628904Y-126647428D01*
X105604714Y-126671619D01*
X105556333Y-126695809D01*
X105435380Y-126695809D01*
X105387000Y-126671619D01*
X105362809Y-126647428D01*
X105846619Y-126550666D02*
X106088523Y-126550666D01*
X105798238Y-126695809D02*
X105967571Y-126187809D01*
X106136904Y-126695809D01*
X106306238Y-126695809D02*
X106306238Y-126187809D01*
X106499761Y-126187809D01*
X106548142Y-126212000D01*
X106572333Y-126236190D01*
X106596523Y-126284571D01*
X106596523Y-126357142D01*
X106572333Y-126405523D01*
X106548142Y-126429714D01*
X106499761Y-126453904D01*
X106306238Y-126453904D01*
X106765857Y-126187809D02*
X106886809Y-126695809D01*
X106983571Y-126332952D01*
X107080333Y-126695809D01*
X107201285Y-126187809D01*
D13*
X85605723Y-125004895D02*
X85605723Y-125662876D01*
X85644428Y-125740285D01*
X85683133Y-125778990D01*
X85760542Y-125817695D01*
X85915361Y-125817695D01*
X85992771Y-125778990D01*
X86031476Y-125740285D01*
X86070180Y-125662876D01*
X86070180Y-125004895D01*
X86844276Y-125004895D02*
X86457228Y-125004895D01*
X86418523Y-125391942D01*
X86457228Y-125353238D01*
X86534638Y-125314533D01*
X86728161Y-125314533D01*
X86805571Y-125353238D01*
X86844276Y-125391942D01*
X86882980Y-125469352D01*
X86882980Y-125662876D01*
X86844276Y-125740285D01*
X86805571Y-125778990D01*
X86728161Y-125817695D01*
X86534638Y-125817695D01*
X86457228Y-125778990D01*
X86418523Y-125740285D01*
D12*
X83648714Y-126187809D02*
X83987380Y-126187809D01*
X83769666Y-126695809D01*
X84398619Y-126357142D02*
X84398619Y-126695809D01*
X84277666Y-126163619D02*
X84156714Y-126526476D01*
X84471190Y-126526476D01*
X84906619Y-126695809D02*
X84664714Y-126695809D01*
X84664714Y-126187809D01*
X85003380Y-126187809D02*
X85172714Y-126695809D01*
X85342047Y-126187809D01*
X85801666Y-126647428D02*
X85777476Y-126671619D01*
X85704904Y-126695809D01*
X85656523Y-126695809D01*
X85583952Y-126671619D01*
X85535571Y-126623238D01*
X85511380Y-126574857D01*
X85487190Y-126478095D01*
X85487190Y-126405523D01*
X85511380Y-126308761D01*
X85535571Y-126260380D01*
X85583952Y-126212000D01*
X85656523Y-126187809D01*
X85704904Y-126187809D01*
X85777476Y-126212000D01*
X85801666Y-126236190D01*
X85995190Y-126236190D02*
X86019380Y-126212000D01*
X86067761Y-126187809D01*
X86188714Y-126187809D01*
X86237095Y-126212000D01*
X86261285Y-126236190D01*
X86285476Y-126284571D01*
X86285476Y-126332952D01*
X86261285Y-126405523D01*
X85971000Y-126695809D01*
X86285476Y-126695809D01*
X86720904Y-126357142D02*
X86720904Y-126695809D01*
X86599952Y-126163619D02*
X86479000Y-126526476D01*
X86793476Y-126526476D01*
X87228904Y-126187809D02*
X86987000Y-126187809D01*
X86962809Y-126429714D01*
X86987000Y-126405523D01*
X87035380Y-126381333D01*
X87156333Y-126381333D01*
X87204714Y-126405523D01*
X87228904Y-126429714D01*
X87253095Y-126478095D01*
X87253095Y-126599047D01*
X87228904Y-126647428D01*
X87204714Y-126671619D01*
X87156333Y-126695809D01*
X87035380Y-126695809D01*
X86987000Y-126671619D01*
X86962809Y-126647428D01*
X87446619Y-126550666D02*
X87688523Y-126550666D01*
X87398238Y-126695809D02*
X87567571Y-126187809D01*
X87736904Y-126695809D01*
X87906238Y-126695809D02*
X87906238Y-126187809D01*
X88099761Y-126187809D01*
X88148142Y-126212000D01*
X88172333Y-126236190D01*
X88196523Y-126284571D01*
X88196523Y-126357142D01*
X88172333Y-126405523D01*
X88148142Y-126429714D01*
X88099761Y-126453904D01*
X87906238Y-126453904D01*
X88365857Y-126187809D02*
X88486809Y-126695809D01*
X88583571Y-126332952D01*
X88680333Y-126695809D01*
X88801285Y-126187809D01*
D13*
X84780723Y-108104895D02*
X84780723Y-108762876D01*
X84819428Y-108840285D01*
X84858133Y-108878990D01*
X84935542Y-108917695D01*
X85090361Y-108917695D01*
X85167771Y-108878990D01*
X85206476Y-108840285D01*
X85245180Y-108762876D01*
X85245180Y-108104895D01*
X86057980Y-108917695D02*
X85593523Y-108917695D01*
X85825752Y-108917695D02*
X85825752Y-108104895D01*
X85748342Y-108221009D01*
X85670933Y-108298419D01*
X85593523Y-108337123D01*
X80503847Y-109741942D02*
X80774780Y-109741942D01*
X80890895Y-110167695D02*
X80503847Y-110167695D01*
X80503847Y-109354895D01*
X80890895Y-109354895D01*
X81239238Y-110167695D02*
X81239238Y-109354895D01*
X81548876Y-109354895D01*
X81626285Y-109393600D01*
X81664990Y-109432304D01*
X81703695Y-109509714D01*
X81703695Y-109625828D01*
X81664990Y-109703238D01*
X81626285Y-109741942D01*
X81548876Y-109780647D01*
X81239238Y-109780647D01*
X82052038Y-110167695D02*
X82052038Y-109354895D01*
X82322971Y-109935466D01*
X82593904Y-109354895D01*
X82593904Y-110167695D01*
X82942247Y-109432304D02*
X82980952Y-109393600D01*
X83058361Y-109354895D01*
X83251885Y-109354895D01*
X83329295Y-109393600D01*
X83368000Y-109432304D01*
X83406704Y-109509714D01*
X83406704Y-109587123D01*
X83368000Y-109703238D01*
X82903542Y-110167695D01*
X83406704Y-110167695D01*
X84103390Y-109625828D02*
X84103390Y-110167695D01*
X83909866Y-109316190D02*
X83716342Y-109896761D01*
X84219504Y-109896761D01*
X84683961Y-109354895D02*
X84761371Y-109354895D01*
X84838780Y-109393600D01*
X84877485Y-109432304D01*
X84916190Y-109509714D01*
X84954895Y-109664533D01*
X84954895Y-109858057D01*
X84916190Y-110012876D01*
X84877485Y-110090285D01*
X84838780Y-110128990D01*
X84761371Y-110167695D01*
X84683961Y-110167695D01*
X84606552Y-110128990D01*
X84567847Y-110090285D01*
X84529142Y-110012876D01*
X84490438Y-109858057D01*
X84490438Y-109664533D01*
X84529142Y-109509714D01*
X84567847Y-109432304D01*
X84606552Y-109393600D01*
X84683961Y-109354895D01*
X85187123Y-109354895D02*
X85651580Y-109354895D01*
X85419352Y-110167695D02*
X85419352Y-109354895D01*
X86348266Y-110167695D02*
X85883809Y-110167695D01*
X86116038Y-110167695D02*
X86116038Y-109354895D01*
X86038628Y-109471009D01*
X85961219Y-109548419D01*
X85883809Y-109587123D01*
X86851428Y-109354895D02*
X86928838Y-109354895D01*
X87006247Y-109393600D01*
X87044952Y-109432304D01*
X87083657Y-109509714D01*
X87122361Y-109664533D01*
X87122361Y-109858057D01*
X87083657Y-110012876D01*
X87044952Y-110090285D01*
X87006247Y-110128990D01*
X86928838Y-110167695D01*
X86851428Y-110167695D01*
X86774019Y-110128990D01*
X86735314Y-110090285D01*
X86696609Y-110012876D01*
X86657904Y-109858057D01*
X86657904Y-109664533D01*
X86696609Y-109509714D01*
X86735314Y-109432304D01*
X86774019Y-109393600D01*
X86851428Y-109354895D01*
X87625523Y-109354895D02*
X87702933Y-109354895D01*
X87780342Y-109393600D01*
X87819047Y-109432304D01*
X87857752Y-109509714D01*
X87896457Y-109664533D01*
X87896457Y-109858057D01*
X87857752Y-110012876D01*
X87819047Y-110090285D01*
X87780342Y-110128990D01*
X87702933Y-110167695D01*
X87625523Y-110167695D01*
X87548114Y-110128990D01*
X87509409Y-110090285D01*
X87470704Y-110012876D01*
X87432000Y-109858057D01*
X87432000Y-109664533D01*
X87470704Y-109509714D01*
X87509409Y-109432304D01*
X87548114Y-109393600D01*
X87625523Y-109354895D01*
X88709257Y-110090285D02*
X88670552Y-110128990D01*
X88554438Y-110167695D01*
X88477028Y-110167695D01*
X88360914Y-110128990D01*
X88283504Y-110051580D01*
X88244800Y-109974171D01*
X88206095Y-109819352D01*
X88206095Y-109703238D01*
X88244800Y-109548419D01*
X88283504Y-109471009D01*
X88360914Y-109393600D01*
X88477028Y-109354895D01*
X88554438Y-109354895D01*
X88670552Y-109393600D01*
X88709257Y-109432304D01*
X89444647Y-109354895D02*
X89057600Y-109354895D01*
X89018895Y-109741942D01*
X89057600Y-109703238D01*
X89135009Y-109664533D01*
X89328533Y-109664533D01*
X89405942Y-109703238D01*
X89444647Y-109741942D01*
X89483352Y-109819352D01*
X89483352Y-110012876D01*
X89444647Y-110090285D01*
X89405942Y-110128990D01*
X89328533Y-110167695D01*
X89135009Y-110167695D01*
X89057600Y-110128990D01*
X89018895Y-110090285D01*
X89831695Y-110167695D02*
X89831695Y-109354895D01*
X90296152Y-110167695D01*
X90296152Y-109354895D01*
D14*
X53986714Y-99440714D02*
X53974619Y-99452809D01*
X53938333Y-99464904D01*
X53914142Y-99464904D01*
X53877857Y-99452809D01*
X53853666Y-99428619D01*
X53841571Y-99404428D01*
X53829476Y-99356047D01*
X53829476Y-99319761D01*
X53841571Y-99271380D01*
X53853666Y-99247190D01*
X53877857Y-99223000D01*
X53914142Y-99210904D01*
X53938333Y-99210904D01*
X53974619Y-99223000D01*
X53986714Y-99235095D01*
X54228619Y-99464904D02*
X54083476Y-99464904D01*
X54156047Y-99464904D02*
X54156047Y-99210904D01*
X54131857Y-99247190D01*
X54107666Y-99271380D01*
X54083476Y-99283476D01*
X54313285Y-99210904D02*
X54482619Y-99210904D01*
X54373761Y-99464904D01*
D16*
X53995785Y-99542547D02*
X54001833Y-99536500D01*
X54013928Y-99530452D01*
X54044166Y-99530452D01*
X54056261Y-99536500D01*
X54062309Y-99542547D01*
X54068357Y-99554642D01*
X54068357Y-99566738D01*
X54062309Y-99584880D01*
X53989738Y-99657452D01*
X54068357Y-99657452D01*
X54177214Y-99572785D02*
X54177214Y-99657452D01*
X54122785Y-99572785D02*
X54122785Y-99639309D01*
X54128833Y-99651404D01*
X54140928Y-99657452D01*
X54159071Y-99657452D01*
X54171166Y-99651404D01*
X54177214Y-99645357D01*
X54231642Y-99542547D02*
X54237690Y-99536500D01*
X54249785Y-99530452D01*
X54280023Y-99530452D01*
X54292119Y-99536500D01*
X54298166Y-99542547D01*
X54304214Y-99554642D01*
X54304214Y-99566738D01*
X54298166Y-99584880D01*
X54225595Y-99657452D01*
X54304214Y-99657452D01*
D14*
X58986714Y-124340714D02*
X58974619Y-124352809D01*
X58938333Y-124364904D01*
X58914142Y-124364904D01*
X58877857Y-124352809D01*
X58853666Y-124328619D01*
X58841571Y-124304428D01*
X58829476Y-124256047D01*
X58829476Y-124219761D01*
X58841571Y-124171380D01*
X58853666Y-124147190D01*
X58877857Y-124123000D01*
X58914142Y-124110904D01*
X58938333Y-124110904D01*
X58974619Y-124123000D01*
X58986714Y-124135095D01*
X59083476Y-124135095D02*
X59095571Y-124123000D01*
X59119761Y-124110904D01*
X59180238Y-124110904D01*
X59204428Y-124123000D01*
X59216523Y-124135095D01*
X59228619Y-124159285D01*
X59228619Y-124183476D01*
X59216523Y-124219761D01*
X59071380Y-124364904D01*
X59228619Y-124364904D01*
X59446333Y-124110904D02*
X59397952Y-124110904D01*
X59373761Y-124123000D01*
X59361666Y-124135095D01*
X59337476Y-124171380D01*
X59325380Y-124219761D01*
X59325380Y-124316523D01*
X59337476Y-124340714D01*
X59349571Y-124352809D01*
X59373761Y-124364904D01*
X59422142Y-124364904D01*
X59446333Y-124352809D01*
X59458428Y-124340714D01*
X59470523Y-124316523D01*
X59470523Y-124256047D01*
X59458428Y-124231857D01*
X59446333Y-124219761D01*
X59422142Y-124207666D01*
X59373761Y-124207666D01*
X59349571Y-124219761D01*
X59337476Y-124231857D01*
X59325380Y-124256047D01*
X58986714Y-124714904D02*
X58841571Y-124714904D01*
X58914142Y-124714904D02*
X58914142Y-124460904D01*
X58889952Y-124497190D01*
X58865761Y-124521380D01*
X58841571Y-124533476D01*
X59143952Y-124460904D02*
X59168142Y-124460904D01*
X59192333Y-124473000D01*
X59204428Y-124485095D01*
X59216523Y-124509285D01*
X59228619Y-124557666D01*
X59228619Y-124618142D01*
X59216523Y-124666523D01*
X59204428Y-124690714D01*
X59192333Y-124702809D01*
X59168142Y-124714904D01*
X59143952Y-124714904D01*
X59119761Y-124702809D01*
X59107666Y-124690714D01*
X59095571Y-124666523D01*
X59083476Y-124618142D01*
X59083476Y-124557666D01*
X59095571Y-124509285D01*
X59107666Y-124485095D01*
X59119761Y-124473000D01*
X59143952Y-124460904D01*
X59446333Y-124545571D02*
X59446333Y-124714904D01*
X59337476Y-124545571D02*
X59337476Y-124678619D01*
X59349571Y-124702809D01*
X59373761Y-124714904D01*
X59410047Y-124714904D01*
X59434238Y-124702809D01*
X59446333Y-124690714D01*
X69836714Y-121140714D02*
X69824619Y-121152809D01*
X69788333Y-121164904D01*
X69764142Y-121164904D01*
X69727857Y-121152809D01*
X69703666Y-121128619D01*
X69691571Y-121104428D01*
X69679476Y-121056047D01*
X69679476Y-121019761D01*
X69691571Y-120971380D01*
X69703666Y-120947190D01*
X69727857Y-120923000D01*
X69764142Y-120910904D01*
X69788333Y-120910904D01*
X69824619Y-120923000D01*
X69836714Y-120935095D01*
X69933476Y-120935095D02*
X69945571Y-120923000D01*
X69969761Y-120910904D01*
X70030238Y-120910904D01*
X70054428Y-120923000D01*
X70066523Y-120935095D01*
X70078619Y-120959285D01*
X70078619Y-120983476D01*
X70066523Y-121019761D01*
X69921380Y-121164904D01*
X70078619Y-121164904D01*
X70163285Y-120910904D02*
X70332619Y-120910904D01*
X70223761Y-121164904D01*
D16*
X69845785Y-120742547D02*
X69851833Y-120736500D01*
X69863928Y-120730452D01*
X69894166Y-120730452D01*
X69906261Y-120736500D01*
X69912309Y-120742547D01*
X69918357Y-120754642D01*
X69918357Y-120766738D01*
X69912309Y-120784880D01*
X69839738Y-120857452D01*
X69918357Y-120857452D01*
X70027214Y-120772785D02*
X70027214Y-120857452D01*
X69972785Y-120772785D02*
X69972785Y-120839309D01*
X69978833Y-120851404D01*
X69990928Y-120857452D01*
X70009071Y-120857452D01*
X70021166Y-120851404D01*
X70027214Y-120845357D01*
X70081642Y-120742547D02*
X70087690Y-120736500D01*
X70099785Y-120730452D01*
X70130023Y-120730452D01*
X70142119Y-120736500D01*
X70148166Y-120742547D01*
X70154214Y-120754642D01*
X70154214Y-120766738D01*
X70148166Y-120784880D01*
X70075595Y-120857452D01*
X70154214Y-120857452D01*
D14*
X69590714Y-110563285D02*
X69602809Y-110575380D01*
X69614904Y-110611666D01*
X69614904Y-110635857D01*
X69602809Y-110672142D01*
X69578619Y-110696333D01*
X69554428Y-110708428D01*
X69506047Y-110720523D01*
X69469761Y-110720523D01*
X69421380Y-110708428D01*
X69397190Y-110696333D01*
X69373000Y-110672142D01*
X69360904Y-110635857D01*
X69360904Y-110611666D01*
X69373000Y-110575380D01*
X69385095Y-110563285D01*
X69614904Y-110321380D02*
X69614904Y-110466523D01*
X69614904Y-110393952D02*
X69360904Y-110393952D01*
X69397190Y-110418142D01*
X69421380Y-110442333D01*
X69433476Y-110466523D01*
X69360904Y-110164142D02*
X69360904Y-110139952D01*
X69373000Y-110115761D01*
X69385095Y-110103666D01*
X69409285Y-110091571D01*
X69457666Y-110079476D01*
X69518142Y-110079476D01*
X69566523Y-110091571D01*
X69590714Y-110103666D01*
X69602809Y-110115761D01*
X69614904Y-110139952D01*
X69614904Y-110164142D01*
X69602809Y-110188333D01*
X69590714Y-110200428D01*
X69566523Y-110212523D01*
X69518142Y-110224619D01*
X69457666Y-110224619D01*
X69409285Y-110212523D01*
X69385095Y-110200428D01*
X69373000Y-110188333D01*
X69360904Y-110164142D01*
D16*
X69692547Y-110554214D02*
X69686500Y-110548166D01*
X69680452Y-110536071D01*
X69680452Y-110505833D01*
X69686500Y-110493738D01*
X69692547Y-110487690D01*
X69704642Y-110481642D01*
X69716738Y-110481642D01*
X69734880Y-110487690D01*
X69807452Y-110560261D01*
X69807452Y-110481642D01*
X69722785Y-110372785D02*
X69807452Y-110372785D01*
X69722785Y-110427214D02*
X69789309Y-110427214D01*
X69801404Y-110421166D01*
X69807452Y-110409071D01*
X69807452Y-110390928D01*
X69801404Y-110378833D01*
X69795357Y-110372785D01*
X69692547Y-110318357D02*
X69686500Y-110312309D01*
X69680452Y-110300214D01*
X69680452Y-110269976D01*
X69686500Y-110257880D01*
X69692547Y-110251833D01*
X69704642Y-110245785D01*
X69716738Y-110245785D01*
X69734880Y-110251833D01*
X69807452Y-110324404D01*
X69807452Y-110245785D01*
D13*
X84057066Y-139889895D02*
X84057066Y-140470466D01*
X84018361Y-140586580D01*
X83940952Y-140663990D01*
X83824838Y-140702695D01*
X83747428Y-140702695D01*
X84869866Y-140702695D02*
X84405409Y-140702695D01*
X84637638Y-140702695D02*
X84637638Y-139889895D01*
X84560228Y-140006009D01*
X84482819Y-140083419D01*
X84405409Y-140122123D01*
X78870628Y-141845695D02*
X78870628Y-141032895D01*
X79141561Y-141613466D01*
X79412495Y-141032895D01*
X79412495Y-141845695D01*
X80109180Y-141806990D02*
X80031771Y-141845695D01*
X79876952Y-141845695D01*
X79799542Y-141806990D01*
X79760838Y-141729580D01*
X79760838Y-141419942D01*
X79799542Y-141342533D01*
X79876952Y-141303828D01*
X80031771Y-141303828D01*
X80109180Y-141342533D01*
X80147885Y-141419942D01*
X80147885Y-141497352D01*
X79760838Y-141574761D01*
X80496228Y-141845695D02*
X80496228Y-141303828D01*
X80496228Y-141381238D02*
X80534933Y-141342533D01*
X80612342Y-141303828D01*
X80728457Y-141303828D01*
X80805866Y-141342533D01*
X80844571Y-141419942D01*
X80844571Y-141845695D01*
X80844571Y-141419942D02*
X80883276Y-141342533D01*
X80960685Y-141303828D01*
X81076800Y-141303828D01*
X81154209Y-141342533D01*
X81192914Y-141419942D01*
X81192914Y-141845695D01*
X81696076Y-141845695D02*
X81618666Y-141806990D01*
X81579961Y-141768285D01*
X81541257Y-141690876D01*
X81541257Y-141458647D01*
X81579961Y-141381238D01*
X81618666Y-141342533D01*
X81696076Y-141303828D01*
X81812190Y-141303828D01*
X81889600Y-141342533D01*
X81928304Y-141381238D01*
X81967009Y-141458647D01*
X81967009Y-141690876D01*
X81928304Y-141768285D01*
X81889600Y-141806990D01*
X81812190Y-141845695D01*
X81696076Y-141845695D01*
X82315352Y-141845695D02*
X82315352Y-141303828D01*
X82315352Y-141458647D02*
X82354057Y-141381238D01*
X82392761Y-141342533D01*
X82470171Y-141303828D01*
X82547580Y-141303828D01*
X82741104Y-141303828D02*
X82934628Y-141845695D01*
X83128152Y-141303828D02*
X82934628Y-141845695D01*
X82857219Y-142039219D01*
X82818514Y-142077923D01*
X82741104Y-142116628D01*
X84057066Y-141419942D02*
X84328000Y-141419942D01*
X84444114Y-141845695D02*
X84057066Y-141845695D01*
X84057066Y-141032895D01*
X84444114Y-141032895D01*
X84715047Y-141845695D02*
X85140800Y-141303828D01*
X84715047Y-141303828D02*
X85140800Y-141845695D01*
X85450438Y-141303828D02*
X85450438Y-142116628D01*
X85450438Y-141342533D02*
X85527847Y-141303828D01*
X85682666Y-141303828D01*
X85760076Y-141342533D01*
X85798780Y-141381238D01*
X85837485Y-141458647D01*
X85837485Y-141690876D01*
X85798780Y-141768285D01*
X85760076Y-141806990D01*
X85682666Y-141845695D01*
X85527847Y-141845695D01*
X85450438Y-141806990D01*
X86534171Y-141845695D02*
X86534171Y-141419942D01*
X86495466Y-141342533D01*
X86418057Y-141303828D01*
X86263238Y-141303828D01*
X86185828Y-141342533D01*
X86534171Y-141806990D02*
X86456761Y-141845695D01*
X86263238Y-141845695D01*
X86185828Y-141806990D01*
X86147123Y-141729580D01*
X86147123Y-141652171D01*
X86185828Y-141574761D01*
X86263238Y-141536057D01*
X86456761Y-141536057D01*
X86534171Y-141497352D01*
X86921219Y-141303828D02*
X86921219Y-141845695D01*
X86921219Y-141381238D02*
X86959923Y-141342533D01*
X87037333Y-141303828D01*
X87153447Y-141303828D01*
X87230857Y-141342533D01*
X87269561Y-141419942D01*
X87269561Y-141845695D01*
X87617904Y-141806990D02*
X87695314Y-141845695D01*
X87850133Y-141845695D01*
X87927542Y-141806990D01*
X87966247Y-141729580D01*
X87966247Y-141690876D01*
X87927542Y-141613466D01*
X87850133Y-141574761D01*
X87734019Y-141574761D01*
X87656609Y-141536057D01*
X87617904Y-141458647D01*
X87617904Y-141419942D01*
X87656609Y-141342533D01*
X87734019Y-141303828D01*
X87850133Y-141303828D01*
X87927542Y-141342533D01*
X88314590Y-141845695D02*
X88314590Y-141303828D01*
X88314590Y-141032895D02*
X88275885Y-141071600D01*
X88314590Y-141110304D01*
X88353295Y-141071600D01*
X88314590Y-141032895D01*
X88314590Y-141110304D01*
X88817752Y-141845695D02*
X88740342Y-141806990D01*
X88701638Y-141768285D01*
X88662933Y-141690876D01*
X88662933Y-141458647D01*
X88701638Y-141381238D01*
X88740342Y-141342533D01*
X88817752Y-141303828D01*
X88933866Y-141303828D01*
X89011276Y-141342533D01*
X89049980Y-141381238D01*
X89088685Y-141458647D01*
X89088685Y-141690876D01*
X89049980Y-141768285D01*
X89011276Y-141806990D01*
X88933866Y-141845695D01*
X88817752Y-141845695D01*
X89437028Y-141303828D02*
X89437028Y-141845695D01*
X89437028Y-141381238D02*
X89475733Y-141342533D01*
X89553142Y-141303828D01*
X89669257Y-141303828D01*
X89746666Y-141342533D01*
X89785371Y-141419942D01*
X89785371Y-141845695D01*
X105023157Y-95493684D02*
X104612631Y-95904210D01*
X104503158Y-95958947D01*
X104393684Y-95958947D01*
X104284211Y-95904210D01*
X104229474Y-95849473D01*
X105214736Y-95794737D02*
X105269473Y-95794737D01*
X105351578Y-95822105D01*
X105488420Y-95958947D01*
X105515788Y-96041052D01*
X105515788Y-96095789D01*
X105488420Y-96177894D01*
X105433683Y-96232631D01*
X105324210Y-96287368D01*
X104667368Y-96287368D01*
X105023157Y-96643157D01*
X106512323Y-96964737D02*
X106101797Y-97375263D01*
X105992324Y-97430000D01*
X105882850Y-97430000D01*
X105773377Y-97375263D01*
X105718640Y-97320526D01*
X106703902Y-97156316D02*
X107032323Y-97484737D01*
X106293376Y-97895263D02*
X106868113Y-97320526D01*
X106786007Y-98059473D02*
X107059691Y-98333157D01*
X106567060Y-98168947D02*
X107333375Y-97785789D01*
X106950218Y-98552104D01*
X107990217Y-98497367D02*
X107962848Y-98415262D01*
X107880743Y-98333157D01*
X107771270Y-98278420D01*
X107661796Y-98278420D01*
X107579691Y-98305789D01*
X107442849Y-98387894D01*
X107360744Y-98469999D01*
X107278638Y-98606841D01*
X107251270Y-98688946D01*
X107251270Y-98798420D01*
X107306007Y-98907893D01*
X107360744Y-98962630D01*
X107470217Y-99017367D01*
X107524954Y-99017367D01*
X107716533Y-98825788D01*
X107607059Y-98716315D01*
D10*
X103625522Y-100792072D02*
X103120446Y-101297148D01*
X102985759Y-101364492D01*
X102851072Y-101364492D01*
X102716385Y-101297148D01*
X102649042Y-101229805D01*
X103861225Y-101162461D02*
X103928568Y-101162461D01*
X104029583Y-101196133D01*
X104197942Y-101364492D01*
X104231614Y-101465507D01*
X104231614Y-101532851D01*
X104197942Y-101633866D01*
X104130599Y-101701209D01*
X103995912Y-101768553D01*
X103187790Y-101768553D01*
X103625522Y-102206286D01*
D13*
X58530723Y-111204895D02*
X58530723Y-111862876D01*
X58569428Y-111940285D01*
X58608133Y-111978990D01*
X58685542Y-112017695D01*
X58840361Y-112017695D01*
X58917771Y-111978990D01*
X58956476Y-111940285D01*
X58995180Y-111862876D01*
X58995180Y-111204895D01*
X59343523Y-111282304D02*
X59382228Y-111243600D01*
X59459638Y-111204895D01*
X59653161Y-111204895D01*
X59730571Y-111243600D01*
X59769276Y-111282304D01*
X59807980Y-111359714D01*
X59807980Y-111437123D01*
X59769276Y-111553238D01*
X59304819Y-112017695D01*
X59807980Y-112017695D01*
D12*
X56392285Y-112321809D02*
X56513238Y-112829809D01*
X56610000Y-112466952D01*
X56706761Y-112829809D01*
X56827714Y-112321809D01*
X57045428Y-112829809D02*
X57142190Y-112829809D01*
X57190571Y-112805619D01*
X57214761Y-112781428D01*
X57263142Y-112708857D01*
X57287333Y-112612095D01*
X57287333Y-112418571D01*
X57263142Y-112370190D01*
X57238952Y-112346000D01*
X57190571Y-112321809D01*
X57093809Y-112321809D01*
X57045428Y-112346000D01*
X57021238Y-112370190D01*
X56997047Y-112418571D01*
X56997047Y-112539523D01*
X57021238Y-112587904D01*
X57045428Y-112612095D01*
X57093809Y-112636285D01*
X57190571Y-112636285D01*
X57238952Y-112612095D01*
X57263142Y-112587904D01*
X57287333Y-112539523D01*
X57577619Y-112539523D02*
X57529238Y-112515333D01*
X57505047Y-112491142D01*
X57480857Y-112442761D01*
X57480857Y-112418571D01*
X57505047Y-112370190D01*
X57529238Y-112346000D01*
X57577619Y-112321809D01*
X57674380Y-112321809D01*
X57722761Y-112346000D01*
X57746952Y-112370190D01*
X57771142Y-112418571D01*
X57771142Y-112442761D01*
X57746952Y-112491142D01*
X57722761Y-112515333D01*
X57674380Y-112539523D01*
X57577619Y-112539523D01*
X57529238Y-112563714D01*
X57505047Y-112587904D01*
X57480857Y-112636285D01*
X57480857Y-112733047D01*
X57505047Y-112781428D01*
X57529238Y-112805619D01*
X57577619Y-112829809D01*
X57674380Y-112829809D01*
X57722761Y-112805619D01*
X57746952Y-112781428D01*
X57771142Y-112733047D01*
X57771142Y-112636285D01*
X57746952Y-112587904D01*
X57722761Y-112563714D01*
X57674380Y-112539523D01*
X58254952Y-112829809D02*
X57964666Y-112829809D01*
X58109809Y-112829809D02*
X58109809Y-112321809D01*
X58061428Y-112394380D01*
X58013047Y-112442761D01*
X57964666Y-112466952D01*
X58448476Y-112370190D02*
X58472666Y-112346000D01*
X58521047Y-112321809D01*
X58642000Y-112321809D01*
X58690380Y-112346000D01*
X58714571Y-112370190D01*
X58738761Y-112418571D01*
X58738761Y-112466952D01*
X58714571Y-112539523D01*
X58424285Y-112829809D01*
X58738761Y-112829809D01*
X59222571Y-112346000D02*
X59174190Y-112321809D01*
X59101619Y-112321809D01*
X59029047Y-112346000D01*
X58980666Y-112394380D01*
X58956476Y-112442761D01*
X58932285Y-112539523D01*
X58932285Y-112612095D01*
X58956476Y-112708857D01*
X58980666Y-112757238D01*
X59029047Y-112805619D01*
X59101619Y-112829809D01*
X59150000Y-112829809D01*
X59222571Y-112805619D01*
X59246761Y-112781428D01*
X59246761Y-112612095D01*
X59150000Y-112612095D01*
X59682190Y-112321809D02*
X59585428Y-112321809D01*
X59537047Y-112346000D01*
X59512857Y-112370190D01*
X59464476Y-112442761D01*
X59440285Y-112539523D01*
X59440285Y-112733047D01*
X59464476Y-112781428D01*
X59488666Y-112805619D01*
X59537047Y-112829809D01*
X59633809Y-112829809D01*
X59682190Y-112805619D01*
X59706380Y-112781428D01*
X59730571Y-112733047D01*
X59730571Y-112612095D01*
X59706380Y-112563714D01*
X59682190Y-112539523D01*
X59633809Y-112515333D01*
X59537047Y-112515333D01*
X59488666Y-112539523D01*
X59464476Y-112563714D01*
X59440285Y-112612095D01*
X59948285Y-112829809D02*
X59948285Y-112321809D01*
X60238571Y-112829809D02*
X60020857Y-112539523D01*
X60238571Y-112321809D02*
X59948285Y-112612095D01*
X60456285Y-112829809D02*
X60456285Y-112321809D01*
X60456285Y-112563714D02*
X60746571Y-112563714D01*
X60746571Y-112829809D02*
X60746571Y-112321809D01*
X60988476Y-112636285D02*
X61375523Y-112636285D01*
X61835142Y-112321809D02*
X61738380Y-112321809D01*
X61690000Y-112346000D01*
X61665809Y-112370190D01*
X61617428Y-112442761D01*
X61593238Y-112539523D01*
X61593238Y-112733047D01*
X61617428Y-112781428D01*
X61641619Y-112805619D01*
X61690000Y-112829809D01*
X61786761Y-112829809D01*
X61835142Y-112805619D01*
X61859333Y-112781428D01*
X61883523Y-112733047D01*
X61883523Y-112612095D01*
X61859333Y-112563714D01*
X61835142Y-112539523D01*
X61786761Y-112515333D01*
X61690000Y-112515333D01*
X61641619Y-112539523D01*
X61617428Y-112563714D01*
X61593238Y-112612095D01*
D14*
X107657666Y-116240714D02*
X107645571Y-116252809D01*
X107609285Y-116264904D01*
X107585095Y-116264904D01*
X107548809Y-116252809D01*
X107524619Y-116228619D01*
X107512523Y-116204428D01*
X107500428Y-116156047D01*
X107500428Y-116119761D01*
X107512523Y-116071380D01*
X107524619Y-116047190D01*
X107548809Y-116023000D01*
X107585095Y-116010904D01*
X107609285Y-116010904D01*
X107645571Y-116023000D01*
X107657666Y-116035095D01*
X107875380Y-116095571D02*
X107875380Y-116264904D01*
X107814904Y-115998809D02*
X107754428Y-116180238D01*
X107911666Y-116180238D01*
X107536714Y-116614904D02*
X107391571Y-116614904D01*
X107464142Y-116614904D02*
X107464142Y-116360904D01*
X107439952Y-116397190D01*
X107415761Y-116421380D01*
X107391571Y-116433476D01*
X107693952Y-116360904D02*
X107718142Y-116360904D01*
X107742333Y-116373000D01*
X107754428Y-116385095D01*
X107766523Y-116409285D01*
X107778619Y-116457666D01*
X107778619Y-116518142D01*
X107766523Y-116566523D01*
X107754428Y-116590714D01*
X107742333Y-116602809D01*
X107718142Y-116614904D01*
X107693952Y-116614904D01*
X107669761Y-116602809D01*
X107657666Y-116590714D01*
X107645571Y-116566523D01*
X107633476Y-116518142D01*
X107633476Y-116457666D01*
X107645571Y-116409285D01*
X107657666Y-116385095D01*
X107669761Y-116373000D01*
X107693952Y-116360904D01*
X107996333Y-116445571D02*
X107996333Y-116614904D01*
X107887476Y-116445571D02*
X107887476Y-116578619D01*
X107899571Y-116602809D01*
X107923761Y-116614904D01*
X107960047Y-116614904D01*
X107984238Y-116602809D01*
X107996333Y-116590714D01*
X109457666Y-105640714D02*
X109445571Y-105652809D01*
X109409285Y-105664904D01*
X109385095Y-105664904D01*
X109348809Y-105652809D01*
X109324619Y-105628619D01*
X109312523Y-105604428D01*
X109300428Y-105556047D01*
X109300428Y-105519761D01*
X109312523Y-105471380D01*
X109324619Y-105447190D01*
X109348809Y-105423000D01*
X109385095Y-105410904D01*
X109409285Y-105410904D01*
X109445571Y-105423000D01*
X109457666Y-105435095D01*
X109542333Y-105410904D02*
X109699571Y-105410904D01*
X109614904Y-105507666D01*
X109651190Y-105507666D01*
X109675380Y-105519761D01*
X109687476Y-105531857D01*
X109699571Y-105556047D01*
X109699571Y-105616523D01*
X109687476Y-105640714D01*
X109675380Y-105652809D01*
X109651190Y-105664904D01*
X109578619Y-105664904D01*
X109554428Y-105652809D01*
X109542333Y-105640714D01*
X109336714Y-106014904D02*
X109191571Y-106014904D01*
X109264142Y-106014904D02*
X109264142Y-105760904D01*
X109239952Y-105797190D01*
X109215761Y-105821380D01*
X109191571Y-105833476D01*
X109493952Y-105760904D02*
X109518142Y-105760904D01*
X109542333Y-105773000D01*
X109554428Y-105785095D01*
X109566523Y-105809285D01*
X109578619Y-105857666D01*
X109578619Y-105918142D01*
X109566523Y-105966523D01*
X109554428Y-105990714D01*
X109542333Y-106002809D01*
X109518142Y-106014904D01*
X109493952Y-106014904D01*
X109469761Y-106002809D01*
X109457666Y-105990714D01*
X109445571Y-105966523D01*
X109433476Y-105918142D01*
X109433476Y-105857666D01*
X109445571Y-105809285D01*
X109457666Y-105785095D01*
X109469761Y-105773000D01*
X109493952Y-105760904D01*
X109796333Y-105845571D02*
X109796333Y-106014904D01*
X109687476Y-105845571D02*
X109687476Y-105978619D01*
X109699571Y-106002809D01*
X109723761Y-106014904D01*
X109760047Y-106014904D01*
X109784238Y-106002809D01*
X109796333Y-105990714D01*
X109939666Y-127979714D02*
X109927571Y-127991809D01*
X109891285Y-128003904D01*
X109867095Y-128003904D01*
X109830809Y-127991809D01*
X109806619Y-127967619D01*
X109794523Y-127943428D01*
X109782428Y-127895047D01*
X109782428Y-127858761D01*
X109794523Y-127810380D01*
X109806619Y-127786190D01*
X109830809Y-127762000D01*
X109867095Y-127749904D01*
X109891285Y-127749904D01*
X109927571Y-127762000D01*
X109939666Y-127774095D01*
X110036428Y-127774095D02*
X110048523Y-127762000D01*
X110072714Y-127749904D01*
X110133190Y-127749904D01*
X110157380Y-127762000D01*
X110169476Y-127774095D01*
X110181571Y-127798285D01*
X110181571Y-127822476D01*
X110169476Y-127858761D01*
X110024333Y-128003904D01*
X110181571Y-128003904D01*
X109818714Y-128353904D02*
X109673571Y-128353904D01*
X109746142Y-128353904D02*
X109746142Y-128099904D01*
X109721952Y-128136190D01*
X109697761Y-128160380D01*
X109673571Y-128172476D01*
X109975952Y-128099904D02*
X110000142Y-128099904D01*
X110024333Y-128112000D01*
X110036428Y-128124095D01*
X110048523Y-128148285D01*
X110060619Y-128196666D01*
X110060619Y-128257142D01*
X110048523Y-128305523D01*
X110036428Y-128329714D01*
X110024333Y-128341809D01*
X110000142Y-128353904D01*
X109975952Y-128353904D01*
X109951761Y-128341809D01*
X109939666Y-128329714D01*
X109927571Y-128305523D01*
X109915476Y-128257142D01*
X109915476Y-128196666D01*
X109927571Y-128148285D01*
X109939666Y-128124095D01*
X109951761Y-128112000D01*
X109975952Y-128099904D01*
X110278333Y-128184571D02*
X110278333Y-128353904D01*
X110169476Y-128184571D02*
X110169476Y-128317619D01*
X110181571Y-128341809D01*
X110205761Y-128353904D01*
X110242047Y-128353904D01*
X110266238Y-128341809D01*
X110278333Y-128329714D01*
X58885666Y-128868714D02*
X58873571Y-128880809D01*
X58837285Y-128892904D01*
X58813095Y-128892904D01*
X58776809Y-128880809D01*
X58752619Y-128856619D01*
X58740523Y-128832428D01*
X58728428Y-128784047D01*
X58728428Y-128747761D01*
X58740523Y-128699380D01*
X58752619Y-128675190D01*
X58776809Y-128651000D01*
X58813095Y-128638904D01*
X58837285Y-128638904D01*
X58873571Y-128651000D01*
X58885666Y-128663095D01*
X59127571Y-128892904D02*
X58982428Y-128892904D01*
X59055000Y-128892904D02*
X59055000Y-128638904D01*
X59030809Y-128675190D01*
X59006619Y-128699380D01*
X58982428Y-128711476D01*
X58764714Y-128542904D02*
X58619571Y-128542904D01*
X58692142Y-128542904D02*
X58692142Y-128288904D01*
X58667952Y-128325190D01*
X58643761Y-128349380D01*
X58619571Y-128361476D01*
X58921952Y-128288904D02*
X58946142Y-128288904D01*
X58970333Y-128301000D01*
X58982428Y-128313095D01*
X58994523Y-128337285D01*
X59006619Y-128385666D01*
X59006619Y-128446142D01*
X58994523Y-128494523D01*
X58982428Y-128518714D01*
X58970333Y-128530809D01*
X58946142Y-128542904D01*
X58921952Y-128542904D01*
X58897761Y-128530809D01*
X58885666Y-128518714D01*
X58873571Y-128494523D01*
X58861476Y-128446142D01*
X58861476Y-128385666D01*
X58873571Y-128337285D01*
X58885666Y-128313095D01*
X58897761Y-128301000D01*
X58921952Y-128288904D01*
X59224333Y-128373571D02*
X59224333Y-128542904D01*
X59115476Y-128373571D02*
X59115476Y-128506619D01*
X59127571Y-128530809D01*
X59151761Y-128542904D01*
X59188047Y-128542904D01*
X59212238Y-128530809D01*
X59224333Y-128518714D01*
X72690714Y-123292333D02*
X72702809Y-123304428D01*
X72714904Y-123340714D01*
X72714904Y-123364904D01*
X72702809Y-123401190D01*
X72678619Y-123425380D01*
X72654428Y-123437476D01*
X72606047Y-123449571D01*
X72569761Y-123449571D01*
X72521380Y-123437476D01*
X72497190Y-123425380D01*
X72473000Y-123401190D01*
X72460904Y-123364904D01*
X72460904Y-123340714D01*
X72473000Y-123304428D01*
X72485095Y-123292333D01*
X72460904Y-123062523D02*
X72460904Y-123183476D01*
X72581857Y-123195571D01*
X72569761Y-123183476D01*
X72557666Y-123159285D01*
X72557666Y-123098809D01*
X72569761Y-123074619D01*
X72581857Y-123062523D01*
X72606047Y-123050428D01*
X72666523Y-123050428D01*
X72690714Y-123062523D01*
X72702809Y-123074619D01*
X72714904Y-123098809D01*
X72714904Y-123159285D01*
X72702809Y-123183476D01*
X72690714Y-123195571D01*
D16*
X72292547Y-123404214D02*
X72286500Y-123398166D01*
X72280452Y-123386071D01*
X72280452Y-123355833D01*
X72286500Y-123343738D01*
X72292547Y-123337690D01*
X72304642Y-123331642D01*
X72316738Y-123331642D01*
X72334880Y-123337690D01*
X72407452Y-123410261D01*
X72407452Y-123331642D01*
X72322785Y-123222785D02*
X72407452Y-123222785D01*
X72322785Y-123277214D02*
X72389309Y-123277214D01*
X72401404Y-123271166D01*
X72407452Y-123259071D01*
X72407452Y-123240928D01*
X72401404Y-123228833D01*
X72395357Y-123222785D01*
X72292547Y-123168357D02*
X72286500Y-123162309D01*
X72280452Y-123150214D01*
X72280452Y-123119976D01*
X72286500Y-123107880D01*
X72292547Y-123101833D01*
X72304642Y-123095785D01*
X72316738Y-123095785D01*
X72334880Y-123101833D01*
X72407452Y-123174404D01*
X72407452Y-123095785D01*
D14*
X95190714Y-108213285D02*
X95202809Y-108225380D01*
X95214904Y-108261666D01*
X95214904Y-108285857D01*
X95202809Y-108322142D01*
X95178619Y-108346333D01*
X95154428Y-108358428D01*
X95106047Y-108370523D01*
X95069761Y-108370523D01*
X95021380Y-108358428D01*
X94997190Y-108346333D01*
X94973000Y-108322142D01*
X94960904Y-108285857D01*
X94960904Y-108261666D01*
X94973000Y-108225380D01*
X94985095Y-108213285D01*
X95214904Y-107971380D02*
X95214904Y-108116523D01*
X95214904Y-108043952D02*
X94960904Y-108043952D01*
X94997190Y-108068142D01*
X95021380Y-108092333D01*
X95033476Y-108116523D01*
X95045571Y-107753666D02*
X95214904Y-107753666D01*
X94948809Y-107814142D02*
X95130238Y-107874619D01*
X95130238Y-107717380D01*
D16*
X95292547Y-108204214D02*
X95286500Y-108198166D01*
X95280452Y-108186071D01*
X95280452Y-108155833D01*
X95286500Y-108143738D01*
X95292547Y-108137690D01*
X95304642Y-108131642D01*
X95316738Y-108131642D01*
X95334880Y-108137690D01*
X95407452Y-108210261D01*
X95407452Y-108131642D01*
X95322785Y-108022785D02*
X95407452Y-108022785D01*
X95322785Y-108077214D02*
X95389309Y-108077214D01*
X95401404Y-108071166D01*
X95407452Y-108059071D01*
X95407452Y-108040928D01*
X95401404Y-108028833D01*
X95395357Y-108022785D01*
X95292547Y-107968357D02*
X95286500Y-107962309D01*
X95280452Y-107950214D01*
X95280452Y-107919976D01*
X95286500Y-107907880D01*
X95292547Y-107901833D01*
X95304642Y-107895785D01*
X95316738Y-107895785D01*
X95334880Y-107901833D01*
X95407452Y-107974404D01*
X95407452Y-107895785D01*
D14*
X63986714Y-124040714D02*
X63974619Y-124052809D01*
X63938333Y-124064904D01*
X63914142Y-124064904D01*
X63877857Y-124052809D01*
X63853666Y-124028619D01*
X63841571Y-124004428D01*
X63829476Y-123956047D01*
X63829476Y-123919761D01*
X63841571Y-123871380D01*
X63853666Y-123847190D01*
X63877857Y-123823000D01*
X63914142Y-123810904D01*
X63938333Y-123810904D01*
X63974619Y-123823000D01*
X63986714Y-123835095D01*
X64083476Y-123835095D02*
X64095571Y-123823000D01*
X64119761Y-123810904D01*
X64180238Y-123810904D01*
X64204428Y-123823000D01*
X64216523Y-123835095D01*
X64228619Y-123859285D01*
X64228619Y-123883476D01*
X64216523Y-123919761D01*
X64071380Y-124064904D01*
X64228619Y-124064904D01*
X64325380Y-123835095D02*
X64337476Y-123823000D01*
X64361666Y-123810904D01*
X64422142Y-123810904D01*
X64446333Y-123823000D01*
X64458428Y-123835095D01*
X64470523Y-123859285D01*
X64470523Y-123883476D01*
X64458428Y-123919761D01*
X64313285Y-124064904D01*
X64470523Y-124064904D01*
D16*
X63995785Y-124142547D02*
X64001833Y-124136500D01*
X64013928Y-124130452D01*
X64044166Y-124130452D01*
X64056261Y-124136500D01*
X64062309Y-124142547D01*
X64068357Y-124154642D01*
X64068357Y-124166738D01*
X64062309Y-124184880D01*
X63989738Y-124257452D01*
X64068357Y-124257452D01*
X64177214Y-124172785D02*
X64177214Y-124257452D01*
X64122785Y-124172785D02*
X64122785Y-124239309D01*
X64128833Y-124251404D01*
X64140928Y-124257452D01*
X64159071Y-124257452D01*
X64171166Y-124251404D01*
X64177214Y-124245357D01*
X64231642Y-124142547D02*
X64237690Y-124136500D01*
X64249785Y-124130452D01*
X64280023Y-124130452D01*
X64292119Y-124136500D01*
X64298166Y-124142547D01*
X64304214Y-124154642D01*
X64304214Y-124166738D01*
X64298166Y-124184880D01*
X64225595Y-124257452D01*
X64304214Y-124257452D01*
D14*
X51440714Y-102263285D02*
X51452809Y-102275380D01*
X51464904Y-102311666D01*
X51464904Y-102335857D01*
X51452809Y-102372142D01*
X51428619Y-102396333D01*
X51404428Y-102408428D01*
X51356047Y-102420523D01*
X51319761Y-102420523D01*
X51271380Y-102408428D01*
X51247190Y-102396333D01*
X51223000Y-102372142D01*
X51210904Y-102335857D01*
X51210904Y-102311666D01*
X51223000Y-102275380D01*
X51235095Y-102263285D01*
X51464904Y-102021380D02*
X51464904Y-102166523D01*
X51464904Y-102093952D02*
X51210904Y-102093952D01*
X51247190Y-102118142D01*
X51271380Y-102142333D01*
X51283476Y-102166523D01*
X51319761Y-101876238D02*
X51307666Y-101900428D01*
X51295571Y-101912523D01*
X51271380Y-101924619D01*
X51259285Y-101924619D01*
X51235095Y-101912523D01*
X51223000Y-101900428D01*
X51210904Y-101876238D01*
X51210904Y-101827857D01*
X51223000Y-101803666D01*
X51235095Y-101791571D01*
X51259285Y-101779476D01*
X51271380Y-101779476D01*
X51295571Y-101791571D01*
X51307666Y-101803666D01*
X51319761Y-101827857D01*
X51319761Y-101876238D01*
X51331857Y-101900428D01*
X51343952Y-101912523D01*
X51368142Y-101924619D01*
X51416523Y-101924619D01*
X51440714Y-101912523D01*
X51452809Y-101900428D01*
X51464904Y-101876238D01*
X51464904Y-101827857D01*
X51452809Y-101803666D01*
X51440714Y-101791571D01*
X51416523Y-101779476D01*
X51368142Y-101779476D01*
X51343952Y-101791571D01*
X51331857Y-101803666D01*
X51319761Y-101827857D01*
D16*
X51542547Y-102254214D02*
X51536500Y-102248166D01*
X51530452Y-102236071D01*
X51530452Y-102205833D01*
X51536500Y-102193738D01*
X51542547Y-102187690D01*
X51554642Y-102181642D01*
X51566738Y-102181642D01*
X51584880Y-102187690D01*
X51657452Y-102260261D01*
X51657452Y-102181642D01*
X51572785Y-102072785D02*
X51657452Y-102072785D01*
X51572785Y-102127214D02*
X51639309Y-102127214D01*
X51651404Y-102121166D01*
X51657452Y-102109071D01*
X51657452Y-102090928D01*
X51651404Y-102078833D01*
X51645357Y-102072785D01*
X51542547Y-102018357D02*
X51536500Y-102012309D01*
X51530452Y-102000214D01*
X51530452Y-101969976D01*
X51536500Y-101957880D01*
X51542547Y-101951833D01*
X51554642Y-101945785D01*
X51566738Y-101945785D01*
X51584880Y-101951833D01*
X51657452Y-102024404D01*
X51657452Y-101945785D01*
D14*
X89486714Y-98940714D02*
X89474619Y-98952809D01*
X89438333Y-98964904D01*
X89414142Y-98964904D01*
X89377857Y-98952809D01*
X89353666Y-98928619D01*
X89341571Y-98904428D01*
X89329476Y-98856047D01*
X89329476Y-98819761D01*
X89341571Y-98771380D01*
X89353666Y-98747190D01*
X89377857Y-98723000D01*
X89414142Y-98710904D01*
X89438333Y-98710904D01*
X89474619Y-98723000D01*
X89486714Y-98735095D01*
X89728619Y-98964904D02*
X89583476Y-98964904D01*
X89656047Y-98964904D02*
X89656047Y-98710904D01*
X89631857Y-98747190D01*
X89607666Y-98771380D01*
X89583476Y-98783476D01*
X89958428Y-98710904D02*
X89837476Y-98710904D01*
X89825380Y-98831857D01*
X89837476Y-98819761D01*
X89861666Y-98807666D01*
X89922142Y-98807666D01*
X89946333Y-98819761D01*
X89958428Y-98831857D01*
X89970523Y-98856047D01*
X89970523Y-98916523D01*
X89958428Y-98940714D01*
X89946333Y-98952809D01*
X89922142Y-98964904D01*
X89861666Y-98964904D01*
X89837476Y-98952809D01*
X89825380Y-98940714D01*
D16*
X89495785Y-99042547D02*
X89501833Y-99036500D01*
X89513928Y-99030452D01*
X89544166Y-99030452D01*
X89556261Y-99036500D01*
X89562309Y-99042547D01*
X89568357Y-99054642D01*
X89568357Y-99066738D01*
X89562309Y-99084880D01*
X89489738Y-99157452D01*
X89568357Y-99157452D01*
X89677214Y-99072785D02*
X89677214Y-99157452D01*
X89622785Y-99072785D02*
X89622785Y-99139309D01*
X89628833Y-99151404D01*
X89640928Y-99157452D01*
X89659071Y-99157452D01*
X89671166Y-99151404D01*
X89677214Y-99145357D01*
X89731642Y-99042547D02*
X89737690Y-99036500D01*
X89749785Y-99030452D01*
X89780023Y-99030452D01*
X89792119Y-99036500D01*
X89798166Y-99042547D01*
X89804214Y-99054642D01*
X89804214Y-99066738D01*
X89798166Y-99084880D01*
X89725595Y-99157452D01*
X89804214Y-99157452D01*
D14*
X95590714Y-111813285D02*
X95602809Y-111825380D01*
X95614904Y-111861666D01*
X95614904Y-111885857D01*
X95602809Y-111922142D01*
X95578619Y-111946333D01*
X95554428Y-111958428D01*
X95506047Y-111970523D01*
X95469761Y-111970523D01*
X95421380Y-111958428D01*
X95397190Y-111946333D01*
X95373000Y-111922142D01*
X95360904Y-111885857D01*
X95360904Y-111861666D01*
X95373000Y-111825380D01*
X95385095Y-111813285D01*
X95614904Y-111571380D02*
X95614904Y-111716523D01*
X95614904Y-111643952D02*
X95360904Y-111643952D01*
X95397190Y-111668142D01*
X95421380Y-111692333D01*
X95433476Y-111716523D01*
X95360904Y-111486714D02*
X95360904Y-111329476D01*
X95457666Y-111414142D01*
X95457666Y-111377857D01*
X95469761Y-111353666D01*
X95481857Y-111341571D01*
X95506047Y-111329476D01*
X95566523Y-111329476D01*
X95590714Y-111341571D01*
X95602809Y-111353666D01*
X95614904Y-111377857D01*
X95614904Y-111450428D01*
X95602809Y-111474619D01*
X95590714Y-111486714D01*
D16*
X95192547Y-111804214D02*
X95186500Y-111798166D01*
X95180452Y-111786071D01*
X95180452Y-111755833D01*
X95186500Y-111743738D01*
X95192547Y-111737690D01*
X95204642Y-111731642D01*
X95216738Y-111731642D01*
X95234880Y-111737690D01*
X95307452Y-111810261D01*
X95307452Y-111731642D01*
X95222785Y-111622785D02*
X95307452Y-111622785D01*
X95222785Y-111677214D02*
X95289309Y-111677214D01*
X95301404Y-111671166D01*
X95307452Y-111659071D01*
X95307452Y-111640928D01*
X95301404Y-111628833D01*
X95295357Y-111622785D01*
X95192547Y-111568357D02*
X95186500Y-111562309D01*
X95180452Y-111550214D01*
X95180452Y-111519976D01*
X95186500Y-111507880D01*
X95192547Y-111501833D01*
X95204642Y-111495785D01*
X95216738Y-111495785D01*
X95234880Y-111501833D01*
X95307452Y-111574404D01*
X95307452Y-111495785D01*
D14*
X82486714Y-98940714D02*
X82474619Y-98952809D01*
X82438333Y-98964904D01*
X82414142Y-98964904D01*
X82377857Y-98952809D01*
X82353666Y-98928619D01*
X82341571Y-98904428D01*
X82329476Y-98856047D01*
X82329476Y-98819761D01*
X82341571Y-98771380D01*
X82353666Y-98747190D01*
X82377857Y-98723000D01*
X82414142Y-98710904D01*
X82438333Y-98710904D01*
X82474619Y-98723000D01*
X82486714Y-98735095D01*
X82728619Y-98964904D02*
X82583476Y-98964904D01*
X82656047Y-98964904D02*
X82656047Y-98710904D01*
X82631857Y-98747190D01*
X82607666Y-98771380D01*
X82583476Y-98783476D01*
X82946333Y-98710904D02*
X82897952Y-98710904D01*
X82873761Y-98723000D01*
X82861666Y-98735095D01*
X82837476Y-98771380D01*
X82825380Y-98819761D01*
X82825380Y-98916523D01*
X82837476Y-98940714D01*
X82849571Y-98952809D01*
X82873761Y-98964904D01*
X82922142Y-98964904D01*
X82946333Y-98952809D01*
X82958428Y-98940714D01*
X82970523Y-98916523D01*
X82970523Y-98856047D01*
X82958428Y-98831857D01*
X82946333Y-98819761D01*
X82922142Y-98807666D01*
X82873761Y-98807666D01*
X82849571Y-98819761D01*
X82837476Y-98831857D01*
X82825380Y-98856047D01*
D16*
X82495785Y-99042547D02*
X82501833Y-99036500D01*
X82513928Y-99030452D01*
X82544166Y-99030452D01*
X82556261Y-99036500D01*
X82562309Y-99042547D01*
X82568357Y-99054642D01*
X82568357Y-99066738D01*
X82562309Y-99084880D01*
X82489738Y-99157452D01*
X82568357Y-99157452D01*
X82677214Y-99072785D02*
X82677214Y-99157452D01*
X82622785Y-99072785D02*
X82622785Y-99139309D01*
X82628833Y-99151404D01*
X82640928Y-99157452D01*
X82659071Y-99157452D01*
X82671166Y-99151404D01*
X82677214Y-99145357D01*
X82731642Y-99042547D02*
X82737690Y-99036500D01*
X82749785Y-99030452D01*
X82780023Y-99030452D01*
X82792119Y-99036500D01*
X82798166Y-99042547D01*
X82804214Y-99054642D01*
X82804214Y-99066738D01*
X82798166Y-99084880D01*
X82725595Y-99157452D01*
X82804214Y-99157452D01*
D14*
X63986714Y-99440714D02*
X63974619Y-99452809D01*
X63938333Y-99464904D01*
X63914142Y-99464904D01*
X63877857Y-99452809D01*
X63853666Y-99428619D01*
X63841571Y-99404428D01*
X63829476Y-99356047D01*
X63829476Y-99319761D01*
X63841571Y-99271380D01*
X63853666Y-99247190D01*
X63877857Y-99223000D01*
X63914142Y-99210904D01*
X63938333Y-99210904D01*
X63974619Y-99223000D01*
X63986714Y-99235095D01*
X64083476Y-99235095D02*
X64095571Y-99223000D01*
X64119761Y-99210904D01*
X64180238Y-99210904D01*
X64204428Y-99223000D01*
X64216523Y-99235095D01*
X64228619Y-99259285D01*
X64228619Y-99283476D01*
X64216523Y-99319761D01*
X64071380Y-99464904D01*
X64228619Y-99464904D01*
X64458428Y-99210904D02*
X64337476Y-99210904D01*
X64325380Y-99331857D01*
X64337476Y-99319761D01*
X64361666Y-99307666D01*
X64422142Y-99307666D01*
X64446333Y-99319761D01*
X64458428Y-99331857D01*
X64470523Y-99356047D01*
X64470523Y-99416523D01*
X64458428Y-99440714D01*
X64446333Y-99452809D01*
X64422142Y-99464904D01*
X64361666Y-99464904D01*
X64337476Y-99452809D01*
X64325380Y-99440714D01*
D16*
X63995785Y-99542547D02*
X64001833Y-99536500D01*
X64013928Y-99530452D01*
X64044166Y-99530452D01*
X64056261Y-99536500D01*
X64062309Y-99542547D01*
X64068357Y-99554642D01*
X64068357Y-99566738D01*
X64062309Y-99584880D01*
X63989738Y-99657452D01*
X64068357Y-99657452D01*
X64177214Y-99572785D02*
X64177214Y-99657452D01*
X64122785Y-99572785D02*
X64122785Y-99639309D01*
X64128833Y-99651404D01*
X64140928Y-99657452D01*
X64159071Y-99657452D01*
X64171166Y-99651404D01*
X64177214Y-99645357D01*
X64231642Y-99542547D02*
X64237690Y-99536500D01*
X64249785Y-99530452D01*
X64280023Y-99530452D01*
X64292119Y-99536500D01*
X64298166Y-99542547D01*
X64304214Y-99554642D01*
X64304214Y-99566738D01*
X64298166Y-99584880D01*
X64225595Y-99657452D01*
X64304214Y-99657452D01*
D14*
X53986714Y-124040714D02*
X53974619Y-124052809D01*
X53938333Y-124064904D01*
X53914142Y-124064904D01*
X53877857Y-124052809D01*
X53853666Y-124028619D01*
X53841571Y-124004428D01*
X53829476Y-123956047D01*
X53829476Y-123919761D01*
X53841571Y-123871380D01*
X53853666Y-123847190D01*
X53877857Y-123823000D01*
X53914142Y-123810904D01*
X53938333Y-123810904D01*
X53974619Y-123823000D01*
X53986714Y-123835095D01*
X54083476Y-123835095D02*
X54095571Y-123823000D01*
X54119761Y-123810904D01*
X54180238Y-123810904D01*
X54204428Y-123823000D01*
X54216523Y-123835095D01*
X54228619Y-123859285D01*
X54228619Y-123883476D01*
X54216523Y-123919761D01*
X54071380Y-124064904D01*
X54228619Y-124064904D01*
X54470523Y-124064904D02*
X54325380Y-124064904D01*
X54397952Y-124064904D02*
X54397952Y-123810904D01*
X54373761Y-123847190D01*
X54349571Y-123871380D01*
X54325380Y-123883476D01*
D16*
X53995785Y-124142547D02*
X54001833Y-124136500D01*
X54013928Y-124130452D01*
X54044166Y-124130452D01*
X54056261Y-124136500D01*
X54062309Y-124142547D01*
X54068357Y-124154642D01*
X54068357Y-124166738D01*
X54062309Y-124184880D01*
X53989738Y-124257452D01*
X54068357Y-124257452D01*
X54177214Y-124172785D02*
X54177214Y-124257452D01*
X54122785Y-124172785D02*
X54122785Y-124239309D01*
X54128833Y-124251404D01*
X54140928Y-124257452D01*
X54159071Y-124257452D01*
X54171166Y-124251404D01*
X54177214Y-124245357D01*
X54231642Y-124142547D02*
X54237690Y-124136500D01*
X54249785Y-124130452D01*
X54280023Y-124130452D01*
X54292119Y-124136500D01*
X54298166Y-124142547D01*
X54304214Y-124154642D01*
X54304214Y-124166738D01*
X54298166Y-124184880D01*
X54225595Y-124257452D01*
X54304214Y-124257452D01*
D14*
X67040714Y-110963285D02*
X67052809Y-110975380D01*
X67064904Y-111011666D01*
X67064904Y-111035857D01*
X67052809Y-111072142D01*
X67028619Y-111096333D01*
X67004428Y-111108428D01*
X66956047Y-111120523D01*
X66919761Y-111120523D01*
X66871380Y-111108428D01*
X66847190Y-111096333D01*
X66823000Y-111072142D01*
X66810904Y-111035857D01*
X66810904Y-111011666D01*
X66823000Y-110975380D01*
X66835095Y-110963285D01*
X66835095Y-110866523D02*
X66823000Y-110854428D01*
X66810904Y-110830238D01*
X66810904Y-110769761D01*
X66823000Y-110745571D01*
X66835095Y-110733476D01*
X66859285Y-110721380D01*
X66883476Y-110721380D01*
X66919761Y-110733476D01*
X67064904Y-110878619D01*
X67064904Y-110721380D01*
X66810904Y-110636714D02*
X66810904Y-110479476D01*
X66907666Y-110564142D01*
X66907666Y-110527857D01*
X66919761Y-110503666D01*
X66931857Y-110491571D01*
X66956047Y-110479476D01*
X67016523Y-110479476D01*
X67040714Y-110491571D01*
X67052809Y-110503666D01*
X67064904Y-110527857D01*
X67064904Y-110600428D01*
X67052809Y-110624619D01*
X67040714Y-110636714D01*
D16*
X66642547Y-110954214D02*
X66636500Y-110948166D01*
X66630452Y-110936071D01*
X66630452Y-110905833D01*
X66636500Y-110893738D01*
X66642547Y-110887690D01*
X66654642Y-110881642D01*
X66666738Y-110881642D01*
X66684880Y-110887690D01*
X66757452Y-110960261D01*
X66757452Y-110881642D01*
X66672785Y-110772785D02*
X66757452Y-110772785D01*
X66672785Y-110827214D02*
X66739309Y-110827214D01*
X66751404Y-110821166D01*
X66757452Y-110809071D01*
X66757452Y-110790928D01*
X66751404Y-110778833D01*
X66745357Y-110772785D01*
X66642547Y-110718357D02*
X66636500Y-110712309D01*
X66630452Y-110700214D01*
X66630452Y-110669976D01*
X66636500Y-110657880D01*
X66642547Y-110651833D01*
X66654642Y-110645785D01*
X66666738Y-110645785D01*
X66684880Y-110651833D01*
X66757452Y-110724404D01*
X66757452Y-110645785D01*
D14*
X51440714Y-107063285D02*
X51452809Y-107075380D01*
X51464904Y-107111666D01*
X51464904Y-107135857D01*
X51452809Y-107172142D01*
X51428619Y-107196333D01*
X51404428Y-107208428D01*
X51356047Y-107220523D01*
X51319761Y-107220523D01*
X51271380Y-107208428D01*
X51247190Y-107196333D01*
X51223000Y-107172142D01*
X51210904Y-107135857D01*
X51210904Y-107111666D01*
X51223000Y-107075380D01*
X51235095Y-107063285D01*
X51464904Y-106821380D02*
X51464904Y-106966523D01*
X51464904Y-106893952D02*
X51210904Y-106893952D01*
X51247190Y-106918142D01*
X51271380Y-106942333D01*
X51283476Y-106966523D01*
X51464904Y-106700428D02*
X51464904Y-106652047D01*
X51452809Y-106627857D01*
X51440714Y-106615761D01*
X51404428Y-106591571D01*
X51356047Y-106579476D01*
X51259285Y-106579476D01*
X51235095Y-106591571D01*
X51223000Y-106603666D01*
X51210904Y-106627857D01*
X51210904Y-106676238D01*
X51223000Y-106700428D01*
X51235095Y-106712523D01*
X51259285Y-106724619D01*
X51319761Y-106724619D01*
X51343952Y-106712523D01*
X51356047Y-106700428D01*
X51368142Y-106676238D01*
X51368142Y-106627857D01*
X51356047Y-106603666D01*
X51343952Y-106591571D01*
X51319761Y-106579476D01*
D16*
X51542547Y-107054214D02*
X51536500Y-107048166D01*
X51530452Y-107036071D01*
X51530452Y-107005833D01*
X51536500Y-106993738D01*
X51542547Y-106987690D01*
X51554642Y-106981642D01*
X51566738Y-106981642D01*
X51584880Y-106987690D01*
X51657452Y-107060261D01*
X51657452Y-106981642D01*
X51572785Y-106872785D02*
X51657452Y-106872785D01*
X51572785Y-106927214D02*
X51639309Y-106927214D01*
X51651404Y-106921166D01*
X51657452Y-106909071D01*
X51657452Y-106890928D01*
X51651404Y-106878833D01*
X51645357Y-106872785D01*
X51542547Y-106818357D02*
X51536500Y-106812309D01*
X51530452Y-106800214D01*
X51530452Y-106769976D01*
X51536500Y-106757880D01*
X51542547Y-106751833D01*
X51554642Y-106745785D01*
X51566738Y-106745785D01*
X51584880Y-106751833D01*
X51657452Y-106824404D01*
X51657452Y-106745785D01*
D14*
X88986714Y-118340714D02*
X88974619Y-118352809D01*
X88938333Y-118364904D01*
X88914142Y-118364904D01*
X88877857Y-118352809D01*
X88853666Y-118328619D01*
X88841571Y-118304428D01*
X88829476Y-118256047D01*
X88829476Y-118219761D01*
X88841571Y-118171380D01*
X88853666Y-118147190D01*
X88877857Y-118123000D01*
X88914142Y-118110904D01*
X88938333Y-118110904D01*
X88974619Y-118123000D01*
X88986714Y-118135095D01*
X89228619Y-118364904D02*
X89083476Y-118364904D01*
X89156047Y-118364904D02*
X89156047Y-118110904D01*
X89131857Y-118147190D01*
X89107666Y-118171380D01*
X89083476Y-118183476D01*
X89325380Y-118135095D02*
X89337476Y-118123000D01*
X89361666Y-118110904D01*
X89422142Y-118110904D01*
X89446333Y-118123000D01*
X89458428Y-118135095D01*
X89470523Y-118159285D01*
X89470523Y-118183476D01*
X89458428Y-118219761D01*
X89313285Y-118364904D01*
X89470523Y-118364904D01*
D16*
X88995785Y-118442547D02*
X89001833Y-118436500D01*
X89013928Y-118430452D01*
X89044166Y-118430452D01*
X89056261Y-118436500D01*
X89062309Y-118442547D01*
X89068357Y-118454642D01*
X89068357Y-118466738D01*
X89062309Y-118484880D01*
X88989738Y-118557452D01*
X89068357Y-118557452D01*
X89177214Y-118472785D02*
X89177214Y-118557452D01*
X89122785Y-118472785D02*
X89122785Y-118539309D01*
X89128833Y-118551404D01*
X89140928Y-118557452D01*
X89159071Y-118557452D01*
X89171166Y-118551404D01*
X89177214Y-118545357D01*
X89231642Y-118442547D02*
X89237690Y-118436500D01*
X89249785Y-118430452D01*
X89280023Y-118430452D01*
X89292119Y-118436500D01*
X89298166Y-118442547D01*
X89304214Y-118454642D01*
X89304214Y-118466738D01*
X89298166Y-118484880D01*
X89225595Y-118557452D01*
X89304214Y-118557452D01*
D14*
X81986714Y-118340714D02*
X81974619Y-118352809D01*
X81938333Y-118364904D01*
X81914142Y-118364904D01*
X81877857Y-118352809D01*
X81853666Y-118328619D01*
X81841571Y-118304428D01*
X81829476Y-118256047D01*
X81829476Y-118219761D01*
X81841571Y-118171380D01*
X81853666Y-118147190D01*
X81877857Y-118123000D01*
X81914142Y-118110904D01*
X81938333Y-118110904D01*
X81974619Y-118123000D01*
X81986714Y-118135095D01*
X82228619Y-118364904D02*
X82083476Y-118364904D01*
X82156047Y-118364904D02*
X82156047Y-118110904D01*
X82131857Y-118147190D01*
X82107666Y-118171380D01*
X82083476Y-118183476D01*
X82470523Y-118364904D02*
X82325380Y-118364904D01*
X82397952Y-118364904D02*
X82397952Y-118110904D01*
X82373761Y-118147190D01*
X82349571Y-118171380D01*
X82325380Y-118183476D01*
D16*
X81995785Y-118442547D02*
X82001833Y-118436500D01*
X82013928Y-118430452D01*
X82044166Y-118430452D01*
X82056261Y-118436500D01*
X82062309Y-118442547D01*
X82068357Y-118454642D01*
X82068357Y-118466738D01*
X82062309Y-118484880D01*
X81989738Y-118557452D01*
X82068357Y-118557452D01*
X82177214Y-118472785D02*
X82177214Y-118557452D01*
X82122785Y-118472785D02*
X82122785Y-118539309D01*
X82128833Y-118551404D01*
X82140928Y-118557452D01*
X82159071Y-118557452D01*
X82171166Y-118551404D01*
X82177214Y-118545357D01*
X82231642Y-118442547D02*
X82237690Y-118436500D01*
X82249785Y-118430452D01*
X82280023Y-118430452D01*
X82292119Y-118436500D01*
X82298166Y-118442547D01*
X82304214Y-118454642D01*
X82304214Y-118466738D01*
X82298166Y-118484880D01*
X82225595Y-118557452D01*
X82304214Y-118557452D01*
D14*
X75790714Y-108092333D02*
X75802809Y-108104428D01*
X75814904Y-108140714D01*
X75814904Y-108164904D01*
X75802809Y-108201190D01*
X75778619Y-108225380D01*
X75754428Y-108237476D01*
X75706047Y-108249571D01*
X75669761Y-108249571D01*
X75621380Y-108237476D01*
X75597190Y-108225380D01*
X75573000Y-108201190D01*
X75560904Y-108164904D01*
X75560904Y-108140714D01*
X75573000Y-108104428D01*
X75585095Y-108092333D01*
X75814904Y-107971380D02*
X75814904Y-107923000D01*
X75802809Y-107898809D01*
X75790714Y-107886714D01*
X75754428Y-107862523D01*
X75706047Y-107850428D01*
X75609285Y-107850428D01*
X75585095Y-107862523D01*
X75573000Y-107874619D01*
X75560904Y-107898809D01*
X75560904Y-107947190D01*
X75573000Y-107971380D01*
X75585095Y-107983476D01*
X75609285Y-107995571D01*
X75669761Y-107995571D01*
X75693952Y-107983476D01*
X75706047Y-107971380D01*
X75718142Y-107947190D01*
X75718142Y-107898809D01*
X75706047Y-107874619D01*
X75693952Y-107862523D01*
X75669761Y-107850428D01*
D16*
X75892547Y-108204214D02*
X75886500Y-108198166D01*
X75880452Y-108186071D01*
X75880452Y-108155833D01*
X75886500Y-108143738D01*
X75892547Y-108137690D01*
X75904642Y-108131642D01*
X75916738Y-108131642D01*
X75934880Y-108137690D01*
X76007452Y-108210261D01*
X76007452Y-108131642D01*
X75922785Y-108022785D02*
X76007452Y-108022785D01*
X75922785Y-108077214D02*
X75989309Y-108077214D01*
X76001404Y-108071166D01*
X76007452Y-108059071D01*
X76007452Y-108040928D01*
X76001404Y-108028833D01*
X75995357Y-108022785D01*
X75892547Y-107968357D02*
X75886500Y-107962309D01*
X75880452Y-107950214D01*
X75880452Y-107919976D01*
X75886500Y-107907880D01*
X75892547Y-107901833D01*
X75904642Y-107895785D01*
X75916738Y-107895785D01*
X75934880Y-107901833D01*
X76007452Y-107974404D01*
X76007452Y-107895785D01*
D14*
X51440714Y-111063285D02*
X51452809Y-111075380D01*
X51464904Y-111111666D01*
X51464904Y-111135857D01*
X51452809Y-111172142D01*
X51428619Y-111196333D01*
X51404428Y-111208428D01*
X51356047Y-111220523D01*
X51319761Y-111220523D01*
X51271380Y-111208428D01*
X51247190Y-111196333D01*
X51223000Y-111172142D01*
X51210904Y-111135857D01*
X51210904Y-111111666D01*
X51223000Y-111075380D01*
X51235095Y-111063285D01*
X51235095Y-110966523D02*
X51223000Y-110954428D01*
X51210904Y-110930238D01*
X51210904Y-110869761D01*
X51223000Y-110845571D01*
X51235095Y-110833476D01*
X51259285Y-110821380D01*
X51283476Y-110821380D01*
X51319761Y-110833476D01*
X51464904Y-110978619D01*
X51464904Y-110821380D01*
X51210904Y-110664142D02*
X51210904Y-110639952D01*
X51223000Y-110615761D01*
X51235095Y-110603666D01*
X51259285Y-110591571D01*
X51307666Y-110579476D01*
X51368142Y-110579476D01*
X51416523Y-110591571D01*
X51440714Y-110603666D01*
X51452809Y-110615761D01*
X51464904Y-110639952D01*
X51464904Y-110664142D01*
X51452809Y-110688333D01*
X51440714Y-110700428D01*
X51416523Y-110712523D01*
X51368142Y-110724619D01*
X51307666Y-110724619D01*
X51259285Y-110712523D01*
X51235095Y-110700428D01*
X51223000Y-110688333D01*
X51210904Y-110664142D01*
D16*
X51542547Y-111054214D02*
X51536500Y-111048166D01*
X51530452Y-111036071D01*
X51530452Y-111005833D01*
X51536500Y-110993738D01*
X51542547Y-110987690D01*
X51554642Y-110981642D01*
X51566738Y-110981642D01*
X51584880Y-110987690D01*
X51657452Y-111060261D01*
X51657452Y-110981642D01*
X51572785Y-110872785D02*
X51657452Y-110872785D01*
X51572785Y-110927214D02*
X51639309Y-110927214D01*
X51651404Y-110921166D01*
X51657452Y-110909071D01*
X51657452Y-110890928D01*
X51651404Y-110878833D01*
X51645357Y-110872785D01*
X51542547Y-110818357D02*
X51536500Y-110812309D01*
X51530452Y-110800214D01*
X51530452Y-110769976D01*
X51536500Y-110757880D01*
X51542547Y-110751833D01*
X51554642Y-110745785D01*
X51566738Y-110745785D01*
X51584880Y-110751833D01*
X51657452Y-110824404D01*
X51657452Y-110745785D01*
D14*
X67040714Y-106163285D02*
X67052809Y-106175380D01*
X67064904Y-106211666D01*
X67064904Y-106235857D01*
X67052809Y-106272142D01*
X67028619Y-106296333D01*
X67004428Y-106308428D01*
X66956047Y-106320523D01*
X66919761Y-106320523D01*
X66871380Y-106308428D01*
X66847190Y-106296333D01*
X66823000Y-106272142D01*
X66810904Y-106235857D01*
X66810904Y-106211666D01*
X66823000Y-106175380D01*
X66835095Y-106163285D01*
X66835095Y-106066523D02*
X66823000Y-106054428D01*
X66810904Y-106030238D01*
X66810904Y-105969761D01*
X66823000Y-105945571D01*
X66835095Y-105933476D01*
X66859285Y-105921380D01*
X66883476Y-105921380D01*
X66919761Y-105933476D01*
X67064904Y-106078619D01*
X67064904Y-105921380D01*
X66895571Y-105703666D02*
X67064904Y-105703666D01*
X66798809Y-105764142D02*
X66980238Y-105824619D01*
X66980238Y-105667380D01*
D16*
X66642547Y-106154214D02*
X66636500Y-106148166D01*
X66630452Y-106136071D01*
X66630452Y-106105833D01*
X66636500Y-106093738D01*
X66642547Y-106087690D01*
X66654642Y-106081642D01*
X66666738Y-106081642D01*
X66684880Y-106087690D01*
X66757452Y-106160261D01*
X66757452Y-106081642D01*
X66672785Y-105972785D02*
X66757452Y-105972785D01*
X66672785Y-106027214D02*
X66739309Y-106027214D01*
X66751404Y-106021166D01*
X66757452Y-106009071D01*
X66757452Y-105990928D01*
X66751404Y-105978833D01*
X66745357Y-105972785D01*
X66642547Y-105918357D02*
X66636500Y-105912309D01*
X66630452Y-105900214D01*
X66630452Y-105869976D01*
X66636500Y-105857880D01*
X66642547Y-105851833D01*
X66654642Y-105845785D01*
X66666738Y-105845785D01*
X66684880Y-105851833D01*
X66757452Y-105924404D01*
X66757452Y-105845785D01*
D14*
X100290714Y-123292333D02*
X100302809Y-123304428D01*
X100314904Y-123340714D01*
X100314904Y-123364904D01*
X100302809Y-123401190D01*
X100278619Y-123425380D01*
X100254428Y-123437476D01*
X100206047Y-123449571D01*
X100169761Y-123449571D01*
X100121380Y-123437476D01*
X100097190Y-123425380D01*
X100073000Y-123401190D01*
X100060904Y-123364904D01*
X100060904Y-123340714D01*
X100073000Y-123304428D01*
X100085095Y-123292333D01*
X100169761Y-123147190D02*
X100157666Y-123171380D01*
X100145571Y-123183476D01*
X100121380Y-123195571D01*
X100109285Y-123195571D01*
X100085095Y-123183476D01*
X100073000Y-123171380D01*
X100060904Y-123147190D01*
X100060904Y-123098809D01*
X100073000Y-123074619D01*
X100085095Y-123062523D01*
X100109285Y-123050428D01*
X100121380Y-123050428D01*
X100145571Y-123062523D01*
X100157666Y-123074619D01*
X100169761Y-123098809D01*
X100169761Y-123147190D01*
X100181857Y-123171380D01*
X100193952Y-123183476D01*
X100218142Y-123195571D01*
X100266523Y-123195571D01*
X100290714Y-123183476D01*
X100302809Y-123171380D01*
X100314904Y-123147190D01*
X100314904Y-123098809D01*
X100302809Y-123074619D01*
X100290714Y-123062523D01*
X100266523Y-123050428D01*
X100218142Y-123050428D01*
X100193952Y-123062523D01*
X100181857Y-123074619D01*
X100169761Y-123098809D01*
D16*
X99892547Y-123404214D02*
X99886500Y-123398166D01*
X99880452Y-123386071D01*
X99880452Y-123355833D01*
X99886500Y-123343738D01*
X99892547Y-123337690D01*
X99904642Y-123331642D01*
X99916738Y-123331642D01*
X99934880Y-123337690D01*
X100007452Y-123410261D01*
X100007452Y-123331642D01*
X99922785Y-123222785D02*
X100007452Y-123222785D01*
X99922785Y-123277214D02*
X99989309Y-123277214D01*
X100001404Y-123271166D01*
X100007452Y-123259071D01*
X100007452Y-123240928D01*
X100001404Y-123228833D01*
X99995357Y-123222785D01*
X99892547Y-123168357D02*
X99886500Y-123162309D01*
X99880452Y-123150214D01*
X99880452Y-123119976D01*
X99886500Y-123107880D01*
X99892547Y-123101833D01*
X99904642Y-123095785D01*
X99916738Y-123095785D01*
X99934880Y-123101833D01*
X100007452Y-123174404D01*
X100007452Y-123095785D01*
D14*
X81890714Y-123292333D02*
X81902809Y-123304428D01*
X81914904Y-123340714D01*
X81914904Y-123364904D01*
X81902809Y-123401190D01*
X81878619Y-123425380D01*
X81854428Y-123437476D01*
X81806047Y-123449571D01*
X81769761Y-123449571D01*
X81721380Y-123437476D01*
X81697190Y-123425380D01*
X81673000Y-123401190D01*
X81660904Y-123364904D01*
X81660904Y-123340714D01*
X81673000Y-123304428D01*
X81685095Y-123292333D01*
X81660904Y-123074619D02*
X81660904Y-123123000D01*
X81673000Y-123147190D01*
X81685095Y-123159285D01*
X81721380Y-123183476D01*
X81769761Y-123195571D01*
X81866523Y-123195571D01*
X81890714Y-123183476D01*
X81902809Y-123171380D01*
X81914904Y-123147190D01*
X81914904Y-123098809D01*
X81902809Y-123074619D01*
X81890714Y-123062523D01*
X81866523Y-123050428D01*
X81806047Y-123050428D01*
X81781857Y-123062523D01*
X81769761Y-123074619D01*
X81757666Y-123098809D01*
X81757666Y-123147190D01*
X81769761Y-123171380D01*
X81781857Y-123183476D01*
X81806047Y-123195571D01*
D16*
X81492547Y-123404214D02*
X81486500Y-123398166D01*
X81480452Y-123386071D01*
X81480452Y-123355833D01*
X81486500Y-123343738D01*
X81492547Y-123337690D01*
X81504642Y-123331642D01*
X81516738Y-123331642D01*
X81534880Y-123337690D01*
X81607452Y-123410261D01*
X81607452Y-123331642D01*
X81522785Y-123222785D02*
X81607452Y-123222785D01*
X81522785Y-123277214D02*
X81589309Y-123277214D01*
X81601404Y-123271166D01*
X81607452Y-123259071D01*
X81607452Y-123240928D01*
X81601404Y-123228833D01*
X81595357Y-123222785D01*
X81492547Y-123168357D02*
X81486500Y-123162309D01*
X81480452Y-123150214D01*
X81480452Y-123119976D01*
X81486500Y-123107880D01*
X81492547Y-123101833D01*
X81504642Y-123095785D01*
X81516738Y-123095785D01*
X81534880Y-123101833D01*
X81607452Y-123174404D01*
X81607452Y-123095785D01*
D14*
X91090714Y-123292333D02*
X91102809Y-123304428D01*
X91114904Y-123340714D01*
X91114904Y-123364904D01*
X91102809Y-123401190D01*
X91078619Y-123425380D01*
X91054428Y-123437476D01*
X91006047Y-123449571D01*
X90969761Y-123449571D01*
X90921380Y-123437476D01*
X90897190Y-123425380D01*
X90873000Y-123401190D01*
X90860904Y-123364904D01*
X90860904Y-123340714D01*
X90873000Y-123304428D01*
X90885095Y-123292333D01*
X90860904Y-123207666D02*
X90860904Y-123038333D01*
X91114904Y-123147190D01*
D16*
X90692547Y-123404214D02*
X90686500Y-123398166D01*
X90680452Y-123386071D01*
X90680452Y-123355833D01*
X90686500Y-123343738D01*
X90692547Y-123337690D01*
X90704642Y-123331642D01*
X90716738Y-123331642D01*
X90734880Y-123337690D01*
X90807452Y-123410261D01*
X90807452Y-123331642D01*
X90722785Y-123222785D02*
X90807452Y-123222785D01*
X90722785Y-123277214D02*
X90789309Y-123277214D01*
X90801404Y-123271166D01*
X90807452Y-123259071D01*
X90807452Y-123240928D01*
X90801404Y-123228833D01*
X90795357Y-123222785D01*
X90692547Y-123168357D02*
X90686500Y-123162309D01*
X90680452Y-123150214D01*
X90680452Y-123119976D01*
X90686500Y-123107880D01*
X90692547Y-123101833D01*
X90704642Y-123095785D01*
X90716738Y-123095785D01*
X90734880Y-123101833D01*
X90807452Y-123174404D01*
X90807452Y-123095785D01*
D17*
X50645785Y-93748785D02*
X50518785Y-93748785D01*
X50518785Y-93948357D02*
X50518785Y-93567357D01*
X50700214Y-93567357D01*
X50845357Y-93948357D02*
X50845357Y-93567357D01*
X51026785Y-93948357D02*
X51026785Y-93567357D01*
X51117500Y-93567357D01*
X51171928Y-93585500D01*
X51208214Y-93621785D01*
X51226357Y-93658071D01*
X51244500Y-93730642D01*
X51244500Y-93785071D01*
X51226357Y-93857642D01*
X51208214Y-93893928D01*
X51171928Y-93930214D01*
X51117500Y-93948357D01*
X51026785Y-93948357D01*
X51607357Y-93948357D02*
X51389642Y-93948357D01*
X51498500Y-93948357D02*
X51498500Y-93567357D01*
X51462214Y-93621785D01*
X51425928Y-93658071D01*
X51389642Y-93676214D01*
X110589785Y-125625785D02*
X110462785Y-125625785D01*
X110462785Y-125825357D02*
X110462785Y-125444357D01*
X110644214Y-125444357D01*
X110789357Y-125825357D02*
X110789357Y-125444357D01*
X110970785Y-125825357D02*
X110970785Y-125444357D01*
X111061500Y-125444357D01*
X111115928Y-125462500D01*
X111152214Y-125498785D01*
X111170357Y-125535071D01*
X111188500Y-125607642D01*
X111188500Y-125662071D01*
X111170357Y-125734642D01*
X111152214Y-125770928D01*
X111115928Y-125807214D01*
X111061500Y-125825357D01*
X110970785Y-125825357D01*
X111315500Y-125444357D02*
X111551357Y-125444357D01*
X111424357Y-125589500D01*
X111478785Y-125589500D01*
X111515071Y-125607642D01*
X111533214Y-125625785D01*
X111551357Y-125662071D01*
X111551357Y-125752785D01*
X111533214Y-125789071D01*
X111515071Y-125807214D01*
X111478785Y-125825357D01*
X111369928Y-125825357D01*
X111333642Y-125807214D01*
X111315500Y-125789071D01*
X50645785Y-129562785D02*
X50518785Y-129562785D01*
X50518785Y-129762357D02*
X50518785Y-129381357D01*
X50700214Y-129381357D01*
X50845357Y-129762357D02*
X50845357Y-129381357D01*
X51026785Y-129762357D02*
X51026785Y-129381357D01*
X51117500Y-129381357D01*
X51171928Y-129399500D01*
X51208214Y-129435785D01*
X51226357Y-129472071D01*
X51244500Y-129544642D01*
X51244500Y-129599071D01*
X51226357Y-129671642D01*
X51208214Y-129707928D01*
X51171928Y-129744214D01*
X51117500Y-129762357D01*
X51026785Y-129762357D01*
X51571071Y-129508357D02*
X51571071Y-129762357D01*
X51480357Y-129363214D02*
X51389642Y-129635357D01*
X51625500Y-129635357D01*
X99921785Y-93748785D02*
X99794785Y-93748785D01*
X99794785Y-93948357D02*
X99794785Y-93567357D01*
X99976214Y-93567357D01*
X100121357Y-93948357D02*
X100121357Y-93567357D01*
X100302785Y-93948357D02*
X100302785Y-93567357D01*
X100393500Y-93567357D01*
X100447928Y-93585500D01*
X100484214Y-93621785D01*
X100502357Y-93658071D01*
X100520500Y-93730642D01*
X100520500Y-93785071D01*
X100502357Y-93857642D01*
X100484214Y-93893928D01*
X100447928Y-93930214D01*
X100393500Y-93948357D01*
X100302785Y-93948357D01*
X100665642Y-93603642D02*
X100683785Y-93585500D01*
X100720071Y-93567357D01*
X100810785Y-93567357D01*
X100847071Y-93585500D01*
X100865214Y-93603642D01*
X100883357Y-93639928D01*
X100883357Y-93676214D01*
X100865214Y-93730642D01*
X100647500Y-93948357D01*
X100883357Y-93948357D01*
D11*
X110693238Y-130355952D02*
X110693238Y-129955952D01*
X110693238Y-130146428D02*
X110921809Y-130146428D01*
X110921809Y-130355952D02*
X110921809Y-129955952D01*
X111074190Y-129955952D02*
X111321809Y-129955952D01*
X111188476Y-130108333D01*
X111245619Y-130108333D01*
X111283714Y-130127380D01*
X111302761Y-130146428D01*
X111321809Y-130184523D01*
X111321809Y-130279761D01*
X111302761Y-130317857D01*
X111283714Y-130336904D01*
X111245619Y-130355952D01*
X111131333Y-130355952D01*
X111093238Y-130336904D01*
X111074190Y-130317857D01*
D14*
X96188815Y-101751315D02*
X96214473Y-101605921D01*
X96086184Y-101648684D02*
X96265789Y-101469079D01*
X96334210Y-101537500D01*
X96342763Y-101563158D01*
X96342763Y-101580263D01*
X96334210Y-101605921D01*
X96308552Y-101631579D01*
X96282894Y-101640131D01*
X96265789Y-101640131D01*
X96240131Y-101631579D01*
X96171710Y-101563158D01*
X96359868Y-101922368D02*
X96257236Y-101819736D01*
X96308552Y-101871052D02*
X96488157Y-101691447D01*
X96445394Y-101700000D01*
X96411184Y-101700000D01*
X96385526Y-101691447D01*
X95924223Y-101656697D02*
X95941328Y-101656697D01*
X95966986Y-101665250D01*
X96009749Y-101708013D01*
X96018302Y-101733671D01*
X96018302Y-101750776D01*
X96009749Y-101776434D01*
X95992644Y-101793539D01*
X95958434Y-101810645D01*
X95753171Y-101810645D01*
X95864355Y-101921829D01*
X96095276Y-101827750D02*
X96112381Y-101827750D01*
X96138039Y-101836302D01*
X96180802Y-101879066D01*
X96189354Y-101904723D01*
X96189354Y-101921829D01*
X96180802Y-101947487D01*
X96163697Y-101964592D01*
X96129486Y-101981697D01*
X95924223Y-101981697D01*
X96035407Y-102092881D01*
X96112381Y-102169855D02*
X96291986Y-101990250D01*
X96197907Y-102118539D02*
X96180802Y-102238276D01*
X96300539Y-102118539D02*
X96163697Y-102118539D01*
X98638815Y-104201315D02*
X98664473Y-104055921D01*
X98536184Y-104098684D02*
X98715789Y-103919079D01*
X98784210Y-103987500D01*
X98792763Y-104013158D01*
X98792763Y-104030263D01*
X98784210Y-104055921D01*
X98758552Y-104081579D01*
X98732894Y-104090131D01*
X98715789Y-104090131D01*
X98690131Y-104081579D01*
X98621710Y-104013158D01*
X98869736Y-104107236D02*
X98886841Y-104107236D01*
X98912499Y-104115789D01*
X98955262Y-104158552D01*
X98963815Y-104184210D01*
X98963815Y-104201315D01*
X98955262Y-104226973D01*
X98938157Y-104244078D01*
X98903947Y-104261184D01*
X98698684Y-104261184D01*
X98809868Y-104372368D01*
X98869197Y-103611723D02*
X98886302Y-103611723D01*
X98911960Y-103620276D01*
X98954723Y-103663039D01*
X98963276Y-103688697D01*
X98963276Y-103705802D01*
X98954723Y-103731460D01*
X98937618Y-103748565D01*
X98903408Y-103765671D01*
X98698145Y-103765671D01*
X98809329Y-103876855D01*
X99040250Y-103782776D02*
X99057355Y-103782776D01*
X99083013Y-103791328D01*
X99125776Y-103834092D01*
X99134328Y-103859749D01*
X99134328Y-103876855D01*
X99125776Y-103902513D01*
X99108671Y-103919618D01*
X99074460Y-103936723D01*
X98869197Y-103936723D01*
X98980381Y-104047907D01*
X99057355Y-104124881D02*
X99236960Y-103945276D01*
X99142881Y-104073565D02*
X99125776Y-104193302D01*
X99245513Y-104073565D02*
X99108671Y-104073565D01*
X71657666Y-125764904D02*
X71573000Y-125643952D01*
X71512523Y-125764904D02*
X71512523Y-125510904D01*
X71609285Y-125510904D01*
X71633476Y-125523000D01*
X71645571Y-125535095D01*
X71657666Y-125559285D01*
X71657666Y-125595571D01*
X71645571Y-125619761D01*
X71633476Y-125631857D01*
X71609285Y-125643952D01*
X71512523Y-125643952D01*
X71742333Y-125510904D02*
X71899571Y-125510904D01*
X71814904Y-125607666D01*
X71851190Y-125607666D01*
X71875380Y-125619761D01*
X71887476Y-125631857D01*
X71899571Y-125656047D01*
X71899571Y-125716523D01*
X71887476Y-125740714D01*
X71875380Y-125752809D01*
X71851190Y-125764904D01*
X71778619Y-125764904D01*
X71754428Y-125752809D01*
X71742333Y-125740714D01*
X71530666Y-126114904D02*
X71385523Y-126114904D01*
X71458095Y-126114904D02*
X71458095Y-125860904D01*
X71433904Y-125897190D01*
X71409714Y-125921380D01*
X71385523Y-125933476D01*
X71687904Y-125860904D02*
X71712095Y-125860904D01*
X71736285Y-125873000D01*
X71748380Y-125885095D01*
X71760476Y-125909285D01*
X71772571Y-125957666D01*
X71772571Y-126018142D01*
X71760476Y-126066523D01*
X71748380Y-126090714D01*
X71736285Y-126102809D01*
X71712095Y-126114904D01*
X71687904Y-126114904D01*
X71663714Y-126102809D01*
X71651619Y-126090714D01*
X71639523Y-126066523D01*
X71627428Y-126018142D01*
X71627428Y-125957666D01*
X71639523Y-125909285D01*
X71651619Y-125885095D01*
X71663714Y-125873000D01*
X71687904Y-125860904D01*
X71929809Y-125860904D02*
X71954000Y-125860904D01*
X71978190Y-125873000D01*
X71990285Y-125885095D01*
X72002380Y-125909285D01*
X72014476Y-125957666D01*
X72014476Y-126018142D01*
X72002380Y-126066523D01*
X71990285Y-126090714D01*
X71978190Y-126102809D01*
X71954000Y-126114904D01*
X71929809Y-126114904D01*
X71905619Y-126102809D01*
X71893523Y-126090714D01*
X71881428Y-126066523D01*
X71869333Y-126018142D01*
X71869333Y-125957666D01*
X71881428Y-125909285D01*
X71893523Y-125885095D01*
X71905619Y-125873000D01*
X71929809Y-125860904D01*
D11*
X48209238Y-93906952D02*
X48209238Y-93506952D01*
X48209238Y-93697428D02*
X48437809Y-93697428D01*
X48437809Y-93906952D02*
X48437809Y-93506952D01*
X48837809Y-93906952D02*
X48609238Y-93906952D01*
X48723523Y-93906952D02*
X48723523Y-93506952D01*
X48685428Y-93564095D01*
X48647333Y-93602190D01*
X48609238Y-93621238D01*
X102565238Y-93906952D02*
X102565238Y-93506952D01*
X102565238Y-93697428D02*
X102793809Y-93697428D01*
X102793809Y-93906952D02*
X102793809Y-93506952D01*
X102965238Y-93545047D02*
X102984285Y-93526000D01*
X103022380Y-93506952D01*
X103117619Y-93506952D01*
X103155714Y-93526000D01*
X103174761Y-93545047D01*
X103193809Y-93583142D01*
X103193809Y-93621238D01*
X103174761Y-93678380D01*
X102946190Y-93906952D01*
X103193809Y-93906952D01*
X48209238Y-129720952D02*
X48209238Y-129320952D01*
X48209238Y-129511428D02*
X48437809Y-129511428D01*
X48437809Y-129720952D02*
X48437809Y-129320952D01*
X48799714Y-129454285D02*
X48799714Y-129720952D01*
X48704476Y-129301904D02*
X48609238Y-129587619D01*
X48856857Y-129587619D01*
X110693238Y-123243952D02*
X110693238Y-122843952D01*
X110693238Y-123034428D02*
X110921809Y-123034428D01*
X110921809Y-123243952D02*
X110921809Y-122843952D01*
X111302761Y-122843952D02*
X111112285Y-122843952D01*
X111093238Y-123034428D01*
X111112285Y-123015380D01*
X111150380Y-122996333D01*
X111245619Y-122996333D01*
X111283714Y-123015380D01*
X111302761Y-123034428D01*
X111321809Y-123072523D01*
X111321809Y-123167761D01*
X111302761Y-123205857D01*
X111283714Y-123224904D01*
X111245619Y-123243952D01*
X111150380Y-123243952D01*
X111112285Y-123224904D01*
X111093238Y-123205857D01*
D14*
X71724619Y-108014904D02*
X71639952Y-107893952D01*
X71579476Y-108014904D02*
X71579476Y-107760904D01*
X71676238Y-107760904D01*
X71700428Y-107773000D01*
X71712523Y-107785095D01*
X71724619Y-107809285D01*
X71724619Y-107845571D01*
X71712523Y-107869761D01*
X71700428Y-107881857D01*
X71676238Y-107893952D01*
X71579476Y-107893952D01*
X71833476Y-108014904D02*
X71833476Y-107760904D01*
X71978619Y-108014904D01*
X71978619Y-107760904D01*
X72232619Y-108014904D02*
X72087476Y-108014904D01*
X72160047Y-108014904D02*
X72160047Y-107760904D01*
X72135857Y-107797190D01*
X72111666Y-107821380D01*
X72087476Y-107833476D01*
D15*
X71677750Y-107559178D02*
X71677750Y-107686178D01*
X71632392Y-107486607D02*
X71587035Y-107622678D01*
X71704964Y-107622678D01*
X71759392Y-107686178D02*
X71859178Y-107559178D01*
X71759392Y-107559178D02*
X71859178Y-107686178D01*
X71913607Y-107495678D02*
X72031535Y-107495678D01*
X71968035Y-107568250D01*
X71995250Y-107568250D01*
X72013392Y-107577321D01*
X72022464Y-107586392D01*
X72031535Y-107604535D01*
X72031535Y-107649892D01*
X72022464Y-107668035D01*
X72013392Y-107677107D01*
X71995250Y-107686178D01*
X71940821Y-107686178D01*
X71922678Y-107677107D01*
X71913607Y-107668035D01*
X72095035Y-107495678D02*
X72212964Y-107495678D01*
X72149464Y-107568250D01*
X72176678Y-107568250D01*
X72194821Y-107577321D01*
X72203892Y-107586392D01*
X72212964Y-107604535D01*
X72212964Y-107649892D01*
X72203892Y-107668035D01*
X72194821Y-107677107D01*
X72176678Y-107686178D01*
X72122250Y-107686178D01*
X72104107Y-107677107D01*
X72095035Y-107668035D01*
D14*
X70464904Y-102475380D02*
X70343952Y-102560047D01*
X70464904Y-102620523D02*
X70210904Y-102620523D01*
X70210904Y-102523761D01*
X70223000Y-102499571D01*
X70235095Y-102487476D01*
X70259285Y-102475380D01*
X70295571Y-102475380D01*
X70319761Y-102487476D01*
X70331857Y-102499571D01*
X70343952Y-102523761D01*
X70343952Y-102620523D01*
X70464904Y-102366523D02*
X70210904Y-102366523D01*
X70464904Y-102221380D01*
X70210904Y-102221380D01*
X70235095Y-102112523D02*
X70223000Y-102100428D01*
X70210904Y-102076238D01*
X70210904Y-102015761D01*
X70223000Y-101991571D01*
X70235095Y-101979476D01*
X70259285Y-101967380D01*
X70283476Y-101967380D01*
X70319761Y-101979476D01*
X70464904Y-102124619D01*
X70464904Y-101967380D01*
D15*
X70609178Y-102522250D02*
X70736178Y-102522250D01*
X70536607Y-102567607D02*
X70672678Y-102612964D01*
X70672678Y-102495035D01*
X70736178Y-102440607D02*
X70609178Y-102340821D01*
X70609178Y-102440607D02*
X70736178Y-102340821D01*
X70545678Y-102286392D02*
X70545678Y-102168464D01*
X70618250Y-102231964D01*
X70618250Y-102204750D01*
X70627321Y-102186607D01*
X70636392Y-102177535D01*
X70654535Y-102168464D01*
X70699892Y-102168464D01*
X70718035Y-102177535D01*
X70727107Y-102186607D01*
X70736178Y-102204750D01*
X70736178Y-102259178D01*
X70727107Y-102277321D01*
X70718035Y-102286392D01*
X70545678Y-102104964D02*
X70545678Y-101987035D01*
X70618250Y-102050535D01*
X70618250Y-102023321D01*
X70627321Y-102005178D01*
X70636392Y-101996107D01*
X70654535Y-101987035D01*
X70699892Y-101987035D01*
X70718035Y-101996107D01*
X70727107Y-102005178D01*
X70736178Y-102023321D01*
X70736178Y-102077750D01*
X70727107Y-102095892D01*
X70718035Y-102104964D01*
D14*
X70464904Y-105075380D02*
X70343952Y-105160047D01*
X70464904Y-105220523D02*
X70210904Y-105220523D01*
X70210904Y-105123761D01*
X70223000Y-105099571D01*
X70235095Y-105087476D01*
X70259285Y-105075380D01*
X70295571Y-105075380D01*
X70319761Y-105087476D01*
X70331857Y-105099571D01*
X70343952Y-105123761D01*
X70343952Y-105220523D01*
X70464904Y-104966523D02*
X70210904Y-104966523D01*
X70464904Y-104821380D01*
X70210904Y-104821380D01*
X70210904Y-104724619D02*
X70210904Y-104567380D01*
X70307666Y-104652047D01*
X70307666Y-104615761D01*
X70319761Y-104591571D01*
X70331857Y-104579476D01*
X70356047Y-104567380D01*
X70416523Y-104567380D01*
X70440714Y-104579476D01*
X70452809Y-104591571D01*
X70464904Y-104615761D01*
X70464904Y-104688333D01*
X70452809Y-104712523D01*
X70440714Y-104724619D01*
D15*
X70609178Y-105122250D02*
X70736178Y-105122250D01*
X70536607Y-105167607D02*
X70672678Y-105212964D01*
X70672678Y-105095035D01*
X70736178Y-105040607D02*
X70609178Y-104940821D01*
X70609178Y-105040607D02*
X70736178Y-104940821D01*
X70545678Y-104886392D02*
X70545678Y-104768464D01*
X70618250Y-104831964D01*
X70618250Y-104804750D01*
X70627321Y-104786607D01*
X70636392Y-104777535D01*
X70654535Y-104768464D01*
X70699892Y-104768464D01*
X70718035Y-104777535D01*
X70727107Y-104786607D01*
X70736178Y-104804750D01*
X70736178Y-104859178D01*
X70727107Y-104877321D01*
X70718035Y-104886392D01*
X70545678Y-104704964D02*
X70545678Y-104587035D01*
X70618250Y-104650535D01*
X70618250Y-104623321D01*
X70627321Y-104605178D01*
X70636392Y-104596107D01*
X70654535Y-104587035D01*
X70699892Y-104587035D01*
X70718035Y-104596107D01*
X70727107Y-104605178D01*
X70736178Y-104623321D01*
X70736178Y-104677750D01*
X70727107Y-104695892D01*
X70718035Y-104704964D01*
D14*
X103774619Y-120264904D02*
X103689952Y-120143952D01*
X103629476Y-120264904D02*
X103629476Y-120010904D01*
X103726238Y-120010904D01*
X103750428Y-120023000D01*
X103762523Y-120035095D01*
X103774619Y-120059285D01*
X103774619Y-120095571D01*
X103762523Y-120119761D01*
X103750428Y-120131857D01*
X103726238Y-120143952D01*
X103629476Y-120143952D01*
X103883476Y-120264904D02*
X103883476Y-120010904D01*
X104028619Y-120264904D01*
X104028619Y-120010904D01*
X104258428Y-120095571D02*
X104258428Y-120264904D01*
X104197952Y-119998809D02*
X104137476Y-120180238D01*
X104294714Y-120180238D01*
D15*
X103727750Y-119809178D02*
X103727750Y-119936178D01*
X103682392Y-119736607D02*
X103637035Y-119872678D01*
X103754964Y-119872678D01*
X103809392Y-119936178D02*
X103909178Y-119809178D01*
X103809392Y-119809178D02*
X103909178Y-119936178D01*
X103963607Y-119745678D02*
X104081535Y-119745678D01*
X104018035Y-119818250D01*
X104045250Y-119818250D01*
X104063392Y-119827321D01*
X104072464Y-119836392D01*
X104081535Y-119854535D01*
X104081535Y-119899892D01*
X104072464Y-119918035D01*
X104063392Y-119927107D01*
X104045250Y-119936178D01*
X103990821Y-119936178D01*
X103972678Y-119927107D01*
X103963607Y-119918035D01*
X104145035Y-119745678D02*
X104262964Y-119745678D01*
X104199464Y-119818250D01*
X104226678Y-119818250D01*
X104244821Y-119827321D01*
X104253892Y-119836392D01*
X104262964Y-119854535D01*
X104262964Y-119899892D01*
X104253892Y-119918035D01*
X104244821Y-119927107D01*
X104226678Y-119936178D01*
X104172250Y-119936178D01*
X104154107Y-119927107D01*
X104145035Y-119918035D01*
D14*
X106424619Y-120264904D02*
X106339952Y-120143952D01*
X106279476Y-120264904D02*
X106279476Y-120010904D01*
X106376238Y-120010904D01*
X106400428Y-120023000D01*
X106412523Y-120035095D01*
X106424619Y-120059285D01*
X106424619Y-120095571D01*
X106412523Y-120119761D01*
X106400428Y-120131857D01*
X106376238Y-120143952D01*
X106279476Y-120143952D01*
X106533476Y-120264904D02*
X106533476Y-120010904D01*
X106678619Y-120264904D01*
X106678619Y-120010904D01*
X106920523Y-120010904D02*
X106799571Y-120010904D01*
X106787476Y-120131857D01*
X106799571Y-120119761D01*
X106823761Y-120107666D01*
X106884238Y-120107666D01*
X106908428Y-120119761D01*
X106920523Y-120131857D01*
X106932619Y-120156047D01*
X106932619Y-120216523D01*
X106920523Y-120240714D01*
X106908428Y-120252809D01*
X106884238Y-120264904D01*
X106823761Y-120264904D01*
X106799571Y-120252809D01*
X106787476Y-120240714D01*
D15*
X106377750Y-119809178D02*
X106377750Y-119936178D01*
X106332392Y-119736607D02*
X106287035Y-119872678D01*
X106404964Y-119872678D01*
X106459392Y-119936178D02*
X106559178Y-119809178D01*
X106459392Y-119809178D02*
X106559178Y-119936178D01*
X106613607Y-119745678D02*
X106731535Y-119745678D01*
X106668035Y-119818250D01*
X106695250Y-119818250D01*
X106713392Y-119827321D01*
X106722464Y-119836392D01*
X106731535Y-119854535D01*
X106731535Y-119899892D01*
X106722464Y-119918035D01*
X106713392Y-119927107D01*
X106695250Y-119936178D01*
X106640821Y-119936178D01*
X106622678Y-119927107D01*
X106613607Y-119918035D01*
X106795035Y-119745678D02*
X106912964Y-119745678D01*
X106849464Y-119818250D01*
X106876678Y-119818250D01*
X106894821Y-119827321D01*
X106903892Y-119836392D01*
X106912964Y-119854535D01*
X106912964Y-119899892D01*
X106903892Y-119918035D01*
X106894821Y-119927107D01*
X106876678Y-119936178D01*
X106822250Y-119936178D01*
X106804107Y-119927107D01*
X106795035Y-119918035D01*
D13*
X71480723Y-114854895D02*
X71480723Y-115512876D01*
X71519428Y-115590285D01*
X71558133Y-115628990D01*
X71635542Y-115667695D01*
X71790361Y-115667695D01*
X71867771Y-115628990D01*
X71906476Y-115590285D01*
X71945180Y-115512876D01*
X71945180Y-114854895D01*
X72254819Y-114854895D02*
X72757980Y-114854895D01*
X72487047Y-115164533D01*
X72603161Y-115164533D01*
X72680571Y-115203238D01*
X72719276Y-115241942D01*
X72757980Y-115319352D01*
X72757980Y-115512876D01*
X72719276Y-115590285D01*
X72680571Y-115628990D01*
X72603161Y-115667695D01*
X72370933Y-115667695D01*
X72293523Y-115628990D01*
X72254819Y-115590285D01*
D12*
X71664571Y-116221809D02*
X71567809Y-116221809D01*
X71519428Y-116246000D01*
X71495238Y-116270190D01*
X71446857Y-116342761D01*
X71422666Y-116439523D01*
X71422666Y-116633047D01*
X71446857Y-116681428D01*
X71471047Y-116705619D01*
X71519428Y-116729809D01*
X71616190Y-116729809D01*
X71664571Y-116705619D01*
X71688761Y-116681428D01*
X71712952Y-116633047D01*
X71712952Y-116512095D01*
X71688761Y-116463714D01*
X71664571Y-116439523D01*
X71616190Y-116415333D01*
X71519428Y-116415333D01*
X71471047Y-116439523D01*
X71446857Y-116463714D01*
X71422666Y-116512095D01*
X72027428Y-116221809D02*
X72075809Y-116221809D01*
X72124190Y-116246000D01*
X72148380Y-116270190D01*
X72172571Y-116318571D01*
X72196761Y-116415333D01*
X72196761Y-116536285D01*
X72172571Y-116633047D01*
X72148380Y-116681428D01*
X72124190Y-116705619D01*
X72075809Y-116729809D01*
X72027428Y-116729809D01*
X71979047Y-116705619D01*
X71954857Y-116681428D01*
X71930666Y-116633047D01*
X71906476Y-116536285D01*
X71906476Y-116415333D01*
X71930666Y-116318571D01*
X71954857Y-116270190D01*
X71979047Y-116246000D01*
X72027428Y-116221809D01*
X72414476Y-116729809D02*
X72414476Y-116221809D01*
X72583809Y-116584666D01*
X72753142Y-116221809D01*
X72753142Y-116729809D01*
M02*
