G04 #@! TF.GenerationSoftware,KiCad,Pcbnew,7.0.1-0*
G04 #@! TF.CreationDate,2023-11-03T04:24:25-04:00*
G04 #@! TF.ProjectId,RAM2GS,52414d32-4753-42e6-9b69-6361645f7063,2.1*
G04 #@! TF.SameCoordinates,Original*
G04 #@! TF.FileFunction,Soldermask,Top*
G04 #@! TF.FilePolarity,Negative*
%FSLAX46Y46*%
G04 Gerber Fmt 4.6, Leading zero omitted, Abs format (unit mm)*
G04 Created by KiCad (PCBNEW 7.0.1-0) date 2023-11-03 04:24:25*
%MOMM*%
%LPD*%
G01*
G04 APERTURE LIST*
G04 Aperture macros list*
%AMRoundRect*
0 Rectangle with rounded corners*
0 $1 Rounding radius*
0 $2 $3 $4 $5 $6 $7 $8 $9 X,Y pos of 4 corners*
0 Add a 4 corners polygon primitive as box body*
4,1,4,$2,$3,$4,$5,$6,$7,$8,$9,$2,$3,0*
0 Add four circle primitives for the rounded corners*
1,1,$1+$1,$2,$3*
1,1,$1+$1,$4,$5*
1,1,$1+$1,$6,$7*
1,1,$1+$1,$8,$9*
0 Add four rect primitives between the rounded corners*
20,1,$1+$1,$2,$3,$4,$5,0*
20,1,$1+$1,$4,$5,$6,$7,0*
20,1,$1+$1,$6,$7,$8,$9,0*
20,1,$1+$1,$8,$9,$2,$3,0*%
G04 Aperture macros list end*
%ADD10C,0.000000*%
%ADD11RoundRect,0.457200X-0.381000X-3.289000X0.381000X-3.289000X0.381000X3.289000X-0.381000X3.289000X0*%
%ADD12RoundRect,0.262500X0.262500X-0.212500X0.262500X0.212500X-0.262500X0.212500X-0.262500X-0.212500X0*%
%ADD13RoundRect,0.262500X-0.212500X-0.262500X0.212500X-0.262500X0.212500X0.262500X-0.212500X0.262500X0*%
%ADD14RoundRect,0.262500X-0.262500X0.212500X-0.262500X-0.212500X0.262500X-0.212500X0.262500X0.212500X0*%
%ADD15C,2.152400*%
%ADD16RoundRect,0.136500X0.112500X-0.612500X0.112500X0.612500X-0.112500X0.612500X-0.112500X-0.612500X0*%
%ADD17RoundRect,0.312500X0.262500X0.437500X-0.262500X0.437500X-0.262500X-0.437500X0.262500X-0.437500X0*%
%ADD18RoundRect,0.312500X-0.262500X-0.437500X0.262500X-0.437500X0.262500X0.437500X-0.262500X0.437500X0*%
%ADD19C,2.000000*%
%ADD20RoundRect,0.350000X0.700000X0.450000X-0.700000X0.450000X-0.700000X-0.450000X0.700000X-0.450000X0*%
%ADD21RoundRect,0.350000X0.700000X1.600000X-0.700000X1.600000X-0.700000X-1.600000X0.700000X-1.600000X0*%
%ADD22RoundRect,0.262500X-0.494975X-0.194454X-0.194454X-0.494975X0.494975X0.194454X0.194454X0.494975X0*%
%ADD23RoundRect,0.262500X0.494975X0.194454X0.194454X0.494975X-0.494975X-0.194454X-0.194454X-0.494975X0*%
%ADD24RoundRect,0.140000X-0.400000X-0.100000X0.400000X-0.100000X0.400000X0.100000X-0.400000X0.100000X0*%
%ADD25C,2.527300*%
%ADD26C,1.143000*%
%ADD27C,0.939800*%
%ADD28RoundRect,0.164500X-0.640500X-0.114500X0.640500X-0.114500X0.640500X0.114500X-0.640500X0.114500X0*%
%ADD29RoundRect,0.376200X-0.800000X-0.700000X0.800000X-0.700000X0.800000X0.700000X-0.800000X0.700000X0*%
%ADD30RoundRect,0.140000X0.400000X0.100000X-0.400000X0.100000X-0.400000X-0.100000X0.400000X-0.100000X0*%
%ADD31C,1.448000*%
%ADD32RoundRect,0.262500X0.212500X0.262500X-0.212500X0.262500X-0.212500X-0.262500X0.212500X-0.262500X0*%
%ADD33RoundRect,0.099000X0.075000X-0.662500X0.075000X0.662500X-0.075000X0.662500X-0.075000X-0.662500X0*%
%ADD34RoundRect,0.099000X0.662500X-0.075000X0.662500X0.075000X-0.662500X0.075000X-0.662500X-0.075000X0*%
%ADD35RoundRect,0.225000X-0.875000X-0.175000X0.875000X-0.175000X0.875000X0.175000X-0.875000X0.175000X0*%
%ADD36RoundRect,0.212500X0.162500X-0.512500X0.162500X0.512500X-0.162500X0.512500X-0.162500X-0.512500X0*%
%ADD37RoundRect,0.262500X0.212500X0.487500X-0.212500X0.487500X-0.212500X-0.487500X0.212500X-0.487500X0*%
%ADD38RoundRect,0.225000X-0.175000X-0.300000X0.175000X-0.300000X0.175000X0.300000X-0.175000X0.300000X0*%
%ADD39RoundRect,0.225000X0.175000X0.300000X-0.175000X0.300000X-0.175000X-0.300000X0.175000X-0.300000X0*%
%ADD40RoundRect,0.319950X0.243750X0.456250X-0.243750X0.456250X-0.243750X-0.456250X0.243750X-0.456250X0*%
%ADD41RoundRect,0.262500X-0.212500X-0.487500X0.212500X-0.487500X0.212500X0.487500X-0.212500X0.487500X0*%
%ADD42RoundRect,0.225000X-0.300000X0.175000X-0.300000X-0.175000X0.300000X-0.175000X0.300000X0.175000X0*%
%ADD43RoundRect,0.225000X0.088388X-0.335876X0.335876X-0.088388X-0.088388X0.335876X-0.335876X0.088388X0*%
%ADD44RoundRect,0.262500X0.035355X-0.335876X0.335876X-0.035355X-0.035355X0.335876X-0.335876X0.035355X0*%
G04 APERTURE END LIST*
D10*
G36*
X113538000Y-139446000D02*
G01*
X113030000Y-139954000D01*
X55626000Y-139954000D01*
X55118000Y-139446000D01*
X55118000Y-132080000D01*
X113538000Y-132080000D01*
X113538000Y-139446000D01*
G37*
D11*
X57658000Y-135282000D03*
X60198000Y-135282000D03*
X62738000Y-135282000D03*
X65278000Y-135282000D03*
X67818000Y-135282000D03*
X70358000Y-135282000D03*
X72898000Y-135282000D03*
X75438000Y-135282000D03*
X77978000Y-135282000D03*
X80518000Y-135282000D03*
X83058000Y-135282000D03*
X85598000Y-135282000D03*
X88138000Y-135282000D03*
X90678000Y-135282000D03*
X93218000Y-135282000D03*
X95758000Y-135282000D03*
X98298000Y-135282000D03*
X100838000Y-135282000D03*
X103378000Y-135282000D03*
X105918000Y-135282000D03*
X108458000Y-135282000D03*
X110998000Y-135282000D03*
D12*
X51350000Y-107650000D03*
X51350000Y-106150000D03*
X51350000Y-102850000D03*
X51350000Y-101350000D03*
D13*
X53400000Y-99350000D03*
X54900000Y-99350000D03*
X63400000Y-123950000D03*
X64900000Y-123950000D03*
X63400000Y-99350000D03*
X64900000Y-99350000D03*
D14*
X66950000Y-110050000D03*
X66950000Y-111550000D03*
X66950000Y-105250000D03*
X66950000Y-106750000D03*
D12*
X51350000Y-111650000D03*
X51350000Y-110150000D03*
D13*
X53400000Y-123950000D03*
X54900000Y-123950000D03*
D15*
X110998000Y-130175000D03*
D14*
X100200000Y-122500000D03*
X100200000Y-124000000D03*
D16*
X92500000Y-128400000D03*
X93150000Y-128400000D03*
X93800000Y-128400000D03*
X94450000Y-128400000D03*
X95100000Y-128400000D03*
X95750000Y-128400000D03*
X96400000Y-128400000D03*
X97050000Y-128400000D03*
X97700000Y-128400000D03*
X98350000Y-128400000D03*
X98350000Y-122500000D03*
X97700000Y-122500000D03*
X97050000Y-122500000D03*
X96400000Y-122500000D03*
X95750000Y-122500000D03*
X95100000Y-122500000D03*
X94450000Y-122500000D03*
X93800000Y-122500000D03*
X93150000Y-122500000D03*
X92500000Y-122500000D03*
D14*
X91000000Y-122500000D03*
X91000000Y-124000000D03*
X81800000Y-122500000D03*
X81800000Y-124000000D03*
D16*
X101700000Y-128400000D03*
X102350000Y-128400000D03*
X103000000Y-128400000D03*
X103650000Y-128400000D03*
X104300000Y-128400000D03*
X104950000Y-128400000D03*
X105600000Y-128400000D03*
X106250000Y-128400000D03*
X106900000Y-128400000D03*
X107550000Y-128400000D03*
X107550000Y-122500000D03*
X106900000Y-122500000D03*
X106250000Y-122500000D03*
X105600000Y-122500000D03*
X104950000Y-122500000D03*
X104300000Y-122500000D03*
X103650000Y-122500000D03*
X103000000Y-122500000D03*
X102350000Y-122500000D03*
X101700000Y-122500000D03*
D14*
X72600000Y-122500000D03*
X72600000Y-124000000D03*
D16*
X83300000Y-128400000D03*
X83950000Y-128400000D03*
X84600000Y-128400000D03*
X85250000Y-128400000D03*
X85900000Y-128400000D03*
X86550000Y-128400000D03*
X87200000Y-128400000D03*
X87850000Y-128400000D03*
X88500000Y-128400000D03*
X89150000Y-128400000D03*
X89150000Y-122500000D03*
X88500000Y-122500000D03*
X87850000Y-122500000D03*
X87200000Y-122500000D03*
X86550000Y-122500000D03*
X85900000Y-122500000D03*
X85250000Y-122500000D03*
X84600000Y-122500000D03*
X83950000Y-122500000D03*
X83300000Y-122500000D03*
D17*
X59778000Y-128778000D03*
X58078000Y-128778000D03*
D18*
X109132000Y-127889000D03*
X110832000Y-127889000D03*
D19*
X100330000Y-93726000D03*
D20*
X108537000Y-113450000D03*
D21*
X102237000Y-111150000D03*
D20*
X108537000Y-111150000D03*
X108537000Y-108850000D03*
D18*
X108650000Y-105550000D03*
X110350000Y-105550000D03*
X106850000Y-116150000D03*
X108550000Y-116150000D03*
D22*
X95628249Y-101028249D03*
X96971751Y-102371751D03*
D23*
X99421751Y-104821751D03*
X98078249Y-103478249D03*
D19*
X51054000Y-93726000D03*
D24*
X69050000Y-122500000D03*
X69050000Y-123150000D03*
X69050000Y-123800000D03*
X70750000Y-123800000D03*
X70750000Y-122500000D03*
D25*
X102575974Y-96924872D03*
D26*
X100779923Y-98720923D03*
D25*
X98983872Y-100516974D03*
X106617090Y-100965987D03*
X103024987Y-104558090D03*
D26*
X106886497Y-103390656D03*
X105449656Y-104827497D03*
D27*
X101228936Y-100067962D03*
X102126962Y-100965987D03*
X103024987Y-101864013D03*
X103923013Y-102762038D03*
X104821038Y-103660064D03*
X105719064Y-102762038D03*
X104821038Y-101864013D03*
X103923013Y-100965987D03*
X103024987Y-100067962D03*
X102126962Y-99169936D03*
D16*
X74100000Y-128400000D03*
X74750000Y-128400000D03*
X75400000Y-128400000D03*
X76050000Y-128400000D03*
X76700000Y-128400000D03*
X77350000Y-128400000D03*
X78000000Y-128400000D03*
X78650000Y-128400000D03*
X79300000Y-128400000D03*
X79950000Y-128400000D03*
X79950000Y-122500000D03*
X79300000Y-122500000D03*
X78650000Y-122500000D03*
X78000000Y-122500000D03*
X77350000Y-122500000D03*
X76700000Y-122500000D03*
X76050000Y-122500000D03*
X75400000Y-122500000D03*
X74750000Y-122500000D03*
X74100000Y-122500000D03*
D28*
X53400000Y-101250000D03*
X53400000Y-102050000D03*
X53400000Y-102850000D03*
X53400000Y-103650000D03*
X53400000Y-104450000D03*
X53400000Y-105250000D03*
X53400000Y-106050000D03*
X53400000Y-106850000D03*
X53400000Y-107650000D03*
X53400000Y-108450000D03*
X53400000Y-109250000D03*
X53400000Y-110050000D03*
X53400000Y-110850000D03*
X53400000Y-111650000D03*
X53400000Y-112450000D03*
X53400000Y-113250000D03*
X53400000Y-114050000D03*
X53400000Y-114850000D03*
X53400000Y-115650000D03*
X53400000Y-116450000D03*
X53400000Y-117250000D03*
X53400000Y-118050000D03*
X53400000Y-118850000D03*
X53400000Y-119650000D03*
X53400000Y-120450000D03*
X53400000Y-121250000D03*
X53400000Y-122050000D03*
X64900000Y-122050000D03*
X64900000Y-121250000D03*
X64900000Y-120450000D03*
X64900000Y-119650000D03*
X64900000Y-118850000D03*
X64900000Y-118050000D03*
X64900000Y-117250000D03*
X64900000Y-116450000D03*
X64900000Y-115650000D03*
X64900000Y-114850000D03*
X64900000Y-114050000D03*
X64900000Y-113250000D03*
X64900000Y-112450000D03*
X64900000Y-111650000D03*
X64900000Y-110850000D03*
X64900000Y-110050000D03*
X64900000Y-109250000D03*
X64900000Y-108450000D03*
X64900000Y-107650000D03*
X64900000Y-106850000D03*
X64900000Y-106050000D03*
X64900000Y-105250000D03*
X64900000Y-104450000D03*
X64900000Y-103650000D03*
X64900000Y-102850000D03*
X64900000Y-102050000D03*
X64900000Y-101250000D03*
D29*
X69560000Y-117205000D03*
X74640000Y-117205000D03*
X74640000Y-113395000D03*
X69560000Y-113395000D03*
D30*
X72950000Y-111150000D03*
X72950000Y-110500000D03*
X72950000Y-109850000D03*
X71250000Y-109850000D03*
X71250000Y-111150000D03*
D12*
X69500000Y-111150000D03*
X69500000Y-109650000D03*
D31*
X48514000Y-93726000D03*
X102870000Y-93726000D03*
D18*
X58300000Y-124250000D03*
X60000000Y-124250000D03*
D32*
X70750000Y-121050000D03*
X69250000Y-121050000D03*
X79900000Y-98900000D03*
X78400000Y-98900000D03*
X87150000Y-98900000D03*
X85650000Y-98900000D03*
D14*
X95050000Y-106550000D03*
X95050000Y-108050000D03*
X95050000Y-110050000D03*
X95050000Y-111550000D03*
D13*
X83650000Y-118200000D03*
X85150000Y-118200000D03*
D14*
X75700000Y-109600000D03*
X75700000Y-111100000D03*
D13*
X90900000Y-118200000D03*
X92400000Y-118200000D03*
D12*
X75700000Y-108300000D03*
X75700000Y-106800000D03*
D33*
X79400000Y-116212500D03*
X79900000Y-116212500D03*
X80400000Y-116212500D03*
X80900000Y-116212500D03*
X81400000Y-116212500D03*
X81900000Y-116212500D03*
X82400000Y-116212500D03*
X82900000Y-116212500D03*
X83400000Y-116212500D03*
X83900000Y-116212500D03*
X84400000Y-116212500D03*
X84900000Y-116212500D03*
X85400000Y-116212500D03*
X85900000Y-116212500D03*
X86400000Y-116212500D03*
X86900000Y-116212500D03*
X87400000Y-116212500D03*
X87900000Y-116212500D03*
X88400000Y-116212500D03*
X88900000Y-116212500D03*
X89400000Y-116212500D03*
X89900000Y-116212500D03*
X90400000Y-116212500D03*
X90900000Y-116212500D03*
X91400000Y-116212500D03*
D34*
X93062500Y-114550000D03*
X93062500Y-114050000D03*
X93062500Y-113550000D03*
X93062500Y-113050000D03*
X93062500Y-112550000D03*
X93062500Y-112050000D03*
X93062500Y-111550000D03*
X93062500Y-111050000D03*
X93062500Y-110550000D03*
X93062500Y-110050000D03*
X93062500Y-109550000D03*
X93062500Y-109050000D03*
X93062500Y-108550000D03*
X93062500Y-108050000D03*
X93062500Y-107550000D03*
X93062500Y-107050000D03*
X93062500Y-106550000D03*
X93062500Y-106050000D03*
X93062500Y-105550000D03*
X93062500Y-105050000D03*
X93062500Y-104550000D03*
X93062500Y-104050000D03*
X93062500Y-103550000D03*
X93062500Y-103050000D03*
X93062500Y-102550000D03*
D33*
X91400000Y-100887500D03*
X90900000Y-100887500D03*
X90400000Y-100887500D03*
X89900000Y-100887500D03*
X89400000Y-100887500D03*
X88900000Y-100887500D03*
X88400000Y-100887500D03*
X87900000Y-100887500D03*
X87400000Y-100887500D03*
X86900000Y-100887500D03*
X86400000Y-100887500D03*
X85900000Y-100887500D03*
X85400000Y-100887500D03*
X84900000Y-100887500D03*
X84400000Y-100887500D03*
X83900000Y-100887500D03*
X83400000Y-100887500D03*
X82900000Y-100887500D03*
X82400000Y-100887500D03*
X81900000Y-100887500D03*
X81400000Y-100887500D03*
X80900000Y-100887500D03*
X80400000Y-100887500D03*
X79900000Y-100887500D03*
X79400000Y-100887500D03*
D34*
X77737500Y-102550000D03*
X77737500Y-103050000D03*
X77737500Y-103550000D03*
X77737500Y-104050000D03*
X77737500Y-104550000D03*
X77737500Y-105050000D03*
X77737500Y-105550000D03*
X77737500Y-106050000D03*
X77737500Y-106550000D03*
X77737500Y-107050000D03*
X77737500Y-107550000D03*
X77737500Y-108050000D03*
X77737500Y-108550000D03*
X77737500Y-109050000D03*
X77737500Y-109550000D03*
X77737500Y-110050000D03*
X77737500Y-110550000D03*
X77737500Y-111050000D03*
X77737500Y-111550000D03*
X77737500Y-112050000D03*
X77737500Y-112550000D03*
X77737500Y-113050000D03*
X77737500Y-113550000D03*
X77737500Y-114050000D03*
X77737500Y-114550000D03*
D19*
X48514000Y-123952000D03*
D31*
X48514000Y-129540000D03*
D35*
X50559000Y-125730000D03*
X50559000Y-127000000D03*
X50559000Y-128270000D03*
X50559000Y-129540000D03*
X55613000Y-129540000D03*
X55613000Y-128270000D03*
X55613000Y-127000000D03*
X55613000Y-125730000D03*
D31*
X111506000Y-115189000D03*
D19*
X110236000Y-117983000D03*
D36*
X109150000Y-125300000D03*
X110100000Y-125300000D03*
X111050000Y-125300000D03*
X111050000Y-123200000D03*
X109150000Y-123200000D03*
D12*
X109150000Y-121250000D03*
X109150000Y-119750000D03*
D37*
X100950000Y-120500000D03*
X99050000Y-120500000D03*
D38*
X72450000Y-107950000D03*
X74050000Y-107950000D03*
D39*
X71250000Y-107950000D03*
X69650000Y-107950000D03*
D40*
X72237500Y-102650000D03*
X70362500Y-102650000D03*
D41*
X70350000Y-104600000D03*
X72250000Y-104600000D03*
D42*
X96750000Y-115050000D03*
X96750000Y-116650000D03*
D43*
X97234315Y-98765685D03*
X98365685Y-97634315D03*
D44*
X94519670Y-100030330D03*
X95580330Y-98969670D03*
M02*
