M48
; DRILL file {KiCad 7.0.10} date Tuesday, June 11, 2024 at 03:55:18 PM
; FORMAT={-:-/ absolute / metric / decimal}
; #@! TF.CreationDate,2024-06-11T15:55:18-04:00
; #@! TF.GenerationSoftware,Kicad,Pcbnew,7.0.10
; #@! TF.FileFunction,MixedPlating,1,4
FMAT,2
METRIC
; #@! TA.AperFunction,Plated,PTH,ViaDrill
T1C0.300
; #@! TA.AperFunction,Plated,PTH,ViaDrill
T2C0.400
; #@! TA.AperFunction,Plated,PTH,ViaDrill
T3C0.500
; #@! TA.AperFunction,Plated,PTH,ViaDrill
T4C0.762
; #@! TA.AperFunction,Plated,PTH,ComponentDrill
T5C1.100
; #@! TA.AperFunction,NonPlated,NPTH,ComponentDrill
T6C0.991
; #@! TA.AperFunction,NonPlated,NPTH,ComponentDrill
T7C1.152
; #@! TA.AperFunction,NonPlated,NPTH,ComponentDrill
T8C2.375
%
G90
G05
T1
X46.99Y-97.663
X46.99Y-102.743
X46.99Y-107.823
X46.99Y-112.903
X46.99Y-117.983
X46.99Y-123.063
X46.99Y-128.143
X49.149Y-125.73
X49.149Y-127.0
X49.149Y-128.27
X49.911Y-131.064
X50.038Y-99.822
X50.038Y-115.443
X50.038Y-120.523
X50.35Y-101.35
X50.35Y-102.85
X50.35Y-106.15
X50.35Y-107.65
X50.35Y-110.15
X50.35Y-111.65
X50.863Y-130.365
X51.35Y-100.4
X51.35Y-103.8
X51.35Y-105.2
X51.35Y-108.5
X51.35Y-109.3
X51.35Y-112.6
X52.07Y-129.54
X52.25Y-102.85
X52.25Y-107.65
X52.25Y-110.05
X52.25Y-111.65
X52.25Y-122.05
X52.451Y-92.202
X52.55Y-99.35
X52.55Y-123.95
X53.4Y-98.45
X53.4Y-100.6
X53.4Y-122.7
X53.4Y-124.85
X54.102Y-125.857
X54.102Y-128.27
X54.102Y-129.54
X54.55Y-101.25
X54.55Y-102.85
X54.55Y-105.25
X54.55Y-107.65
X54.55Y-110.05
X54.55Y-111.65
X54.55Y-122.05
X54.65Y-114.05
X54.65Y-115.65
X54.65Y-117.25
X54.65Y-118.85
X54.65Y-120.45
X54.8Y-94.996
X54.9Y-98.45
X54.9Y-100.25
X54.9Y-123.05
X54.9Y-124.85
X55.1Y-112.45
X55.2Y-114.85
X55.2Y-116.45
X55.2Y-118.05
X55.2Y-119.65
X55.2Y-121.25
X55.25Y-102.05
X55.25Y-103.55
X55.25Y-104.55
X55.25Y-105.95
X55.25Y-106.95
X55.25Y-108.35
X55.25Y-109.35
X55.25Y-110.85
X55.65Y-113.25
X55.75Y-99.35
X55.75Y-123.95
X57.023Y-127.0
X57.087Y-125.73
X57.087Y-128.905
X57.25Y-124.25
X57.531Y-92.202
X57.531Y-97.282
X57.75Y-122.05
X57.95Y-111.65
X58.3Y-123.05
X58.35Y-127.55
X59.15Y-101.25
X59.15Y-102.85
X59.15Y-104.05
X59.15Y-105.25
X59.15Y-106.45
X59.15Y-107.65
X59.15Y-108.85
X59.15Y-110.05
X59.75Y-127.55
X60.0Y-123.05
X60.0Y-125.4
X60.06Y-99.799
X60.35Y-111.65
X60.55Y-122.05
X61.05Y-124.25
X61.722Y-130.937
X62.55Y-99.35
X62.55Y-123.95
X62.611Y-92.202
X63.05Y-102.05
X63.05Y-103.55
X63.05Y-104.55
X63.05Y-105.95
X63.05Y-106.95
X63.05Y-108.35
X63.05Y-109.35
X63.05Y-110.85
X63.4Y-98.45
X63.4Y-100.25
X63.4Y-123.0
X63.4Y-124.8
X63.75Y-101.25
X63.75Y-102.85
X63.75Y-105.25
X63.75Y-107.65
X63.75Y-110.05
X63.75Y-111.65
X63.75Y-122.05
X64.008Y-130.937
X64.9Y-98.45
X64.9Y-100.6
X64.9Y-122.7
X64.9Y-124.8
X65.278Y-130.048
X65.75Y-99.35
X65.75Y-123.95
X66.05Y-101.25
X66.05Y-102.85
X66.05Y-105.25
X66.05Y-110.05
X66.05Y-111.65
X66.05Y-122.05
X66.1Y-117.25
X66.1Y-118.85
X66.1Y-120.45
X66.15Y-113.25
X66.548Y-130.937
X66.65Y-114.85
X66.7Y-116.45
X66.7Y-118.05
X66.7Y-119.65
X66.7Y-121.25
X66.95Y-107.6
X66.95Y-109.1
X66.95Y-112.4
X67.1Y-104.3
X67.5Y-125.45
X67.691Y-92.202
X67.8Y-110.15
X67.8Y-111.55
X67.85Y-106.75
X68.05Y-113.3
X68.05Y-127.75
X68.45Y-121.2
X68.65Y-109.55
X69.05Y-124.4
X69.088Y-130.937
X69.5Y-108.85
X69.5Y-112.0
X69.5Y-120.15
X70.231Y-99.822
X70.35Y-111.15
X70.4Y-127.75
X70.75Y-120.2
X70.75Y-121.9
X70.85Y-119.4
X71.25Y-111.75
X71.55Y-121.05
X71.628Y-130.937
X71.75Y-124.0
X71.8Y-127.7
X72.25Y-100.0
X72.6Y-121.65
X72.771Y-92.202
X73.05Y-104.6
X73.05Y-109.25
X73.1Y-127.8
X73.279Y-130.048
X73.475Y-122.5
X73.5Y-124.0
X73.85Y-109.85
X73.85Y-111.65
X73.9Y-120.4
X74.1Y-121.4
X74.1Y-127.25
X74.168Y-130.937
X74.5Y-129.8
X74.65Y-118.75
X74.85Y-106.95
X74.85Y-108.4
X74.85Y-109.7
X74.85Y-110.9
X75.75Y-111.9
X75.85Y-104.88
X76.25Y-117.2
X76.45Y-126.1
X76.6Y-102.55
X76.6Y-103.55
X76.6Y-104.55
X76.6Y-105.55
X76.6Y-106.55
X76.6Y-108.4
X76.6Y-109.4
X76.6Y-110.4
X76.6Y-111.4
X76.6Y-112.55
X76.6Y-113.55
X76.6Y-114.55
X76.7Y-125.15
X76.708Y-130.937
X77.2Y-126.75
X77.5Y-125.75
X77.775Y-129.975
X77.851Y-92.202
X78.55Y-98.05
X78.55Y-99.75
X78.85Y-100.9
X78.85Y-103.05
X78.85Y-104.05
X78.85Y-105.05
X78.85Y-106.55
X78.85Y-108.55
X78.85Y-111.05
X78.85Y-112.05
X78.85Y-113.05
X78.85Y-114.05
X79.12Y-102.0
X79.248Y-130.937
X79.5Y-105.8
X79.5Y-110.55
X79.61Y-104.8
X79.7Y-107.05
X79.75Y-98.05
X79.8Y-111.55
X79.9Y-99.75
X79.9Y-108.85
X79.92Y-102.0
X79.95Y-127.25
X80.2Y-107.9
X80.4Y-102.9
X80.5Y-110.7
X80.6Y-128.4
X80.9Y-102.0
X80.9Y-124.0
X80.95Y-122.5
X81.4Y-99.75
X81.5Y-127.25
X81.788Y-130.937
X81.8Y-121.7
X81.9Y-102.0
X81.95Y-129.15
X82.4Y-99.75
X82.65Y-124.1
X82.65Y-128.4
X82.675Y-122.5
X82.85Y-118.3
X82.9Y-102.0
X82.931Y-92.202
X83.3Y-121.35
X83.3Y-123.6
X83.4Y-99.75
X83.65Y-126.95
X83.8Y-119.05
X83.9Y-102.0
X83.9Y-115.1
X83.9Y-117.35
X84.1Y-121.35
X84.1Y-123.6
X84.328Y-130.937
X84.4Y-99.75
X84.6Y-127.25
X84.85Y-97.65
X84.85Y-98.75
X84.9Y-102.0
X84.9Y-115.1
X84.9Y-117.35
X85.0Y-119.05
X85.4Y-103.0
X85.8Y-98.05
X85.9Y-99.75
X85.9Y-102.0
X85.95Y-118.2
X86.4Y-103.0
X86.8Y-125.0
X86.868Y-130.937
X86.9Y-99.75
X86.9Y-102.0
X87.0Y-98.05
X87.249Y-124.142
X87.6Y-113.55
X87.9Y-102.0
X88.011Y-92.202
X88.138Y-130.048
X88.5Y-98.75
X88.6Y-112.1
X88.9Y-99.75
X88.9Y-111.05
X88.9Y-114.05
X89.1Y-118.15
X89.15Y-127.25
X89.15Y-129.55
X89.4Y-102.0
X89.408Y-130.937
X89.8Y-128.4
X89.9Y-98.75
X90.1Y-124.0
X90.15Y-122.5
X90.4Y-99.75
X90.65Y-109.0
X90.9Y-115.1
X90.9Y-117.35
X90.95Y-108.0
X91.0Y-121.7
X91.0Y-127.15
X91.05Y-119.05
X91.15Y-112.55
X91.3Y-107.05
X91.7Y-115.1
X91.85Y-124.07
X91.85Y-128.4
X91.875Y-122.5
X91.948Y-130.937
X91.95Y-103.55
X91.95Y-106.55
X91.95Y-107.55
X91.95Y-108.55
X91.95Y-110.05
X91.95Y-111.55
X91.95Y-112.55
X91.95Y-116.2
X92.25Y-117.35
X92.25Y-119.05
X92.5Y-121.4
X92.5Y-123.6
X93.091Y-92.202
X93.1Y-127.25
X93.3Y-121.4
X93.3Y-123.6
X93.8Y-126.55
X93.85Y-117.95
X93.9Y-99.4
X94.15Y-116.95
X94.2Y-106.9
X94.2Y-107.7
X94.2Y-110.05
X94.2Y-111.3
X94.2Y-112.3
X94.2Y-113.1
X94.4Y-102.25
X94.45Y-115.95
X94.45Y-127.25
X94.488Y-130.937
X94.6Y-120.85
X94.75Y-103.8
X95.05Y-112.35
X95.05Y-113.9
X95.1Y-126.5
X95.631Y-94.742
X95.75Y-127.25
X95.9Y-107.9
X95.9Y-110.2
X95.9Y-111.4
X96.2Y-99.6
X96.4Y-126.5
X96.95Y-100.45
X97.028Y-130.937
X97.05Y-127.25
X97.6Y-124.4
X97.7Y-126.5
X97.75Y-119.65
X98.171Y-92.202
X98.35Y-127.25
X98.85Y-102.7
X99.0Y-128.4
X99.3Y-124.0
X99.35Y-122.5
X99.568Y-130.937
X100.2Y-121.7
X100.2Y-124.85
X100.55Y-127.75
X100.838Y-130.746
X101.05Y-124.1
X101.05Y-128.4
X101.075Y-122.5
X101.536Y-101.536
X101.7Y-121.4
X101.7Y-123.6
X102.108Y-130.937
X102.25Y-102.75
X102.35Y-127.25
X102.5Y-121.4
X102.5Y-123.6
X103.0Y-126.5
X103.65Y-127.25
X103.8Y-98.55
X104.3Y-126.5
X104.6Y-106.25
X104.648Y-130.937
X104.8Y-114.95
X104.85Y-99.75
X104.95Y-127.25
X105.1Y-109.05
X105.6Y-126.5
X105.85Y-116.15
X105.918Y-130.175
X106.25Y-127.25
X106.625Y-104.575
X106.68Y-95.377
X106.807Y-130.937
X107.15Y-118.5
X107.163Y-129.87
X107.55Y-127.3
X108.25Y-119.9
X108.3Y-121.2
X109.15Y-122.1
X109.347Y-98.044
X110.05Y-119.9
X110.05Y-121.1
X110.1Y-126.4
X112.014Y-100.965
X112.014Y-107.569
X112.014Y-112.649
X112.014Y-117.729
X112.014Y-127.889
T2
X106.85Y-114.9
X110.35Y-106.8
T3
X100.3Y-106.15
X100.3Y-108.65
X100.3Y-110.15
X100.3Y-111.65
X100.3Y-113.15
X100.3Y-114.65
X100.3Y-116.15
X102.3Y-116.15
X104.3Y-116.15
X107.5Y-105.55
X108.65Y-104.2
X110.1Y-116.15
X110.35Y-104.2
X111.55Y-105.55
T4
X57.658Y-130.556
X60.198Y-130.556
X102.3Y-108.15
X102.3Y-114.15
X104.15Y-111.15
X106.55Y-111.15
X106.6Y-108.85
X106.6Y-113.45
X108.458Y-130.556
X108.65Y-107.15
X110.45Y-108.85
X110.45Y-113.45
X110.65Y-111.15
T5
X110.998Y-130.175
T6
X100.78Y-98.721
X105.45Y-104.827
X106.886Y-103.391
T7
X48.514Y-93.726
X48.514Y-129.54
X102.87Y-93.726
X111.506Y-115.189
T8
X98.984Y-100.517
X102.576Y-96.925
X103.025Y-104.558
X106.617Y-100.966
M30
