G04 #@! TF.GenerationSoftware,KiCad,Pcbnew,(5.1.10-1-10_14)*
G04 #@! TF.CreationDate,2021-05-31T20:01:23-04:00*
G04 #@! TF.ProjectId,RAM2GS,52414d32-4753-42e6-9b69-6361645f7063,2.0*
G04 #@! TF.SameCoordinates,Original*
G04 #@! TF.FileFunction,Soldermask,Bot*
G04 #@! TF.FilePolarity,Negative*
%FSLAX46Y46*%
G04 Gerber Fmt 4.6, Leading zero omitted, Abs format (unit mm)*
G04 Created by KiCad (PCBNEW (5.1.10-1-10_14)) date 2021-05-31 20:01:23*
%MOMM*%
%LPD*%
G01*
G04 APERTURE LIST*
%ADD10C,0.100000*%
%ADD11C,1.448000*%
%ADD12C,2.524900*%
%ADD13C,1.140600*%
%ADD14C,2.150000*%
G04 APERTURE END LIST*
D10*
G36*
X113538000Y-139446000D02*
G01*
X113030000Y-139954000D01*
X55626000Y-139954000D01*
X55118000Y-139446000D01*
X55118000Y-132080000D01*
X113538000Y-132080000D01*
X113538000Y-139446000D01*
G37*
G36*
X113538000Y-139446000D02*
G01*
X113030000Y-139954000D01*
X55626000Y-139954000D01*
X55118000Y-139446000D01*
X55118000Y-132080000D01*
X113538000Y-132080000D01*
X113538000Y-139446000D01*
G37*
D11*
X48514000Y-129540000D03*
G36*
G01*
X110161000Y-138608500D02*
X110161000Y-131955500D01*
G75*
G02*
X110579500Y-131537000I418500J0D01*
G01*
X111416500Y-131537000D01*
G75*
G02*
X111835000Y-131955500I0J-418500D01*
G01*
X111835000Y-138608500D01*
G75*
G02*
X111416500Y-139027000I-418500J0D01*
G01*
X110579500Y-139027000D01*
G75*
G02*
X110161000Y-138608500I0J418500D01*
G01*
G37*
G36*
G01*
X107621000Y-138608500D02*
X107621000Y-131955500D01*
G75*
G02*
X108039500Y-131537000I418500J0D01*
G01*
X108876500Y-131537000D01*
G75*
G02*
X109295000Y-131955500I0J-418500D01*
G01*
X109295000Y-138608500D01*
G75*
G02*
X108876500Y-139027000I-418500J0D01*
G01*
X108039500Y-139027000D01*
G75*
G02*
X107621000Y-138608500I0J418500D01*
G01*
G37*
G36*
G01*
X105081000Y-138608500D02*
X105081000Y-131955500D01*
G75*
G02*
X105499500Y-131537000I418500J0D01*
G01*
X106336500Y-131537000D01*
G75*
G02*
X106755000Y-131955500I0J-418500D01*
G01*
X106755000Y-138608500D01*
G75*
G02*
X106336500Y-139027000I-418500J0D01*
G01*
X105499500Y-139027000D01*
G75*
G02*
X105081000Y-138608500I0J418500D01*
G01*
G37*
G36*
G01*
X102541000Y-138608500D02*
X102541000Y-131955500D01*
G75*
G02*
X102959500Y-131537000I418500J0D01*
G01*
X103796500Y-131537000D01*
G75*
G02*
X104215000Y-131955500I0J-418500D01*
G01*
X104215000Y-138608500D01*
G75*
G02*
X103796500Y-139027000I-418500J0D01*
G01*
X102959500Y-139027000D01*
G75*
G02*
X102541000Y-138608500I0J418500D01*
G01*
G37*
G36*
G01*
X100001000Y-138608500D02*
X100001000Y-131955500D01*
G75*
G02*
X100419500Y-131537000I418500J0D01*
G01*
X101256500Y-131537000D01*
G75*
G02*
X101675000Y-131955500I0J-418500D01*
G01*
X101675000Y-138608500D01*
G75*
G02*
X101256500Y-139027000I-418500J0D01*
G01*
X100419500Y-139027000D01*
G75*
G02*
X100001000Y-138608500I0J418500D01*
G01*
G37*
G36*
G01*
X97461000Y-138608500D02*
X97461000Y-131955500D01*
G75*
G02*
X97879500Y-131537000I418500J0D01*
G01*
X98716500Y-131537000D01*
G75*
G02*
X99135000Y-131955500I0J-418500D01*
G01*
X99135000Y-138608500D01*
G75*
G02*
X98716500Y-139027000I-418500J0D01*
G01*
X97879500Y-139027000D01*
G75*
G02*
X97461000Y-138608500I0J418500D01*
G01*
G37*
G36*
G01*
X94921000Y-138608500D02*
X94921000Y-131955500D01*
G75*
G02*
X95339500Y-131537000I418500J0D01*
G01*
X96176500Y-131537000D01*
G75*
G02*
X96595000Y-131955500I0J-418500D01*
G01*
X96595000Y-138608500D01*
G75*
G02*
X96176500Y-139027000I-418500J0D01*
G01*
X95339500Y-139027000D01*
G75*
G02*
X94921000Y-138608500I0J418500D01*
G01*
G37*
G36*
G01*
X92381000Y-138608500D02*
X92381000Y-131955500D01*
G75*
G02*
X92799500Y-131537000I418500J0D01*
G01*
X93636500Y-131537000D01*
G75*
G02*
X94055000Y-131955500I0J-418500D01*
G01*
X94055000Y-138608500D01*
G75*
G02*
X93636500Y-139027000I-418500J0D01*
G01*
X92799500Y-139027000D01*
G75*
G02*
X92381000Y-138608500I0J418500D01*
G01*
G37*
G36*
G01*
X89841000Y-138608500D02*
X89841000Y-131955500D01*
G75*
G02*
X90259500Y-131537000I418500J0D01*
G01*
X91096500Y-131537000D01*
G75*
G02*
X91515000Y-131955500I0J-418500D01*
G01*
X91515000Y-138608500D01*
G75*
G02*
X91096500Y-139027000I-418500J0D01*
G01*
X90259500Y-139027000D01*
G75*
G02*
X89841000Y-138608500I0J418500D01*
G01*
G37*
G36*
G01*
X87301000Y-138608500D02*
X87301000Y-131955500D01*
G75*
G02*
X87719500Y-131537000I418500J0D01*
G01*
X88556500Y-131537000D01*
G75*
G02*
X88975000Y-131955500I0J-418500D01*
G01*
X88975000Y-138608500D01*
G75*
G02*
X88556500Y-139027000I-418500J0D01*
G01*
X87719500Y-139027000D01*
G75*
G02*
X87301000Y-138608500I0J418500D01*
G01*
G37*
G36*
G01*
X84761000Y-138608500D02*
X84761000Y-131955500D01*
G75*
G02*
X85179500Y-131537000I418500J0D01*
G01*
X86016500Y-131537000D01*
G75*
G02*
X86435000Y-131955500I0J-418500D01*
G01*
X86435000Y-138608500D01*
G75*
G02*
X86016500Y-139027000I-418500J0D01*
G01*
X85179500Y-139027000D01*
G75*
G02*
X84761000Y-138608500I0J418500D01*
G01*
G37*
G36*
G01*
X82221000Y-138608500D02*
X82221000Y-131955500D01*
G75*
G02*
X82639500Y-131537000I418500J0D01*
G01*
X83476500Y-131537000D01*
G75*
G02*
X83895000Y-131955500I0J-418500D01*
G01*
X83895000Y-138608500D01*
G75*
G02*
X83476500Y-139027000I-418500J0D01*
G01*
X82639500Y-139027000D01*
G75*
G02*
X82221000Y-138608500I0J418500D01*
G01*
G37*
G36*
G01*
X79681000Y-138608500D02*
X79681000Y-131955500D01*
G75*
G02*
X80099500Y-131537000I418500J0D01*
G01*
X80936500Y-131537000D01*
G75*
G02*
X81355000Y-131955500I0J-418500D01*
G01*
X81355000Y-138608500D01*
G75*
G02*
X80936500Y-139027000I-418500J0D01*
G01*
X80099500Y-139027000D01*
G75*
G02*
X79681000Y-138608500I0J418500D01*
G01*
G37*
G36*
G01*
X77141000Y-138608500D02*
X77141000Y-131955500D01*
G75*
G02*
X77559500Y-131537000I418500J0D01*
G01*
X78396500Y-131537000D01*
G75*
G02*
X78815000Y-131955500I0J-418500D01*
G01*
X78815000Y-138608500D01*
G75*
G02*
X78396500Y-139027000I-418500J0D01*
G01*
X77559500Y-139027000D01*
G75*
G02*
X77141000Y-138608500I0J418500D01*
G01*
G37*
G36*
G01*
X74601000Y-138608500D02*
X74601000Y-131955500D01*
G75*
G02*
X75019500Y-131537000I418500J0D01*
G01*
X75856500Y-131537000D01*
G75*
G02*
X76275000Y-131955500I0J-418500D01*
G01*
X76275000Y-138608500D01*
G75*
G02*
X75856500Y-139027000I-418500J0D01*
G01*
X75019500Y-139027000D01*
G75*
G02*
X74601000Y-138608500I0J418500D01*
G01*
G37*
G36*
G01*
X72061000Y-138608500D02*
X72061000Y-131955500D01*
G75*
G02*
X72479500Y-131537000I418500J0D01*
G01*
X73316500Y-131537000D01*
G75*
G02*
X73735000Y-131955500I0J-418500D01*
G01*
X73735000Y-138608500D01*
G75*
G02*
X73316500Y-139027000I-418500J0D01*
G01*
X72479500Y-139027000D01*
G75*
G02*
X72061000Y-138608500I0J418500D01*
G01*
G37*
G36*
G01*
X69521000Y-138608500D02*
X69521000Y-131955500D01*
G75*
G02*
X69939500Y-131537000I418500J0D01*
G01*
X70776500Y-131537000D01*
G75*
G02*
X71195000Y-131955500I0J-418500D01*
G01*
X71195000Y-138608500D01*
G75*
G02*
X70776500Y-139027000I-418500J0D01*
G01*
X69939500Y-139027000D01*
G75*
G02*
X69521000Y-138608500I0J418500D01*
G01*
G37*
G36*
G01*
X66981000Y-138608500D02*
X66981000Y-131955500D01*
G75*
G02*
X67399500Y-131537000I418500J0D01*
G01*
X68236500Y-131537000D01*
G75*
G02*
X68655000Y-131955500I0J-418500D01*
G01*
X68655000Y-138608500D01*
G75*
G02*
X68236500Y-139027000I-418500J0D01*
G01*
X67399500Y-139027000D01*
G75*
G02*
X66981000Y-138608500I0J418500D01*
G01*
G37*
G36*
G01*
X64441000Y-138608500D02*
X64441000Y-131955500D01*
G75*
G02*
X64859500Y-131537000I418500J0D01*
G01*
X65696500Y-131537000D01*
G75*
G02*
X66115000Y-131955500I0J-418500D01*
G01*
X66115000Y-138608500D01*
G75*
G02*
X65696500Y-139027000I-418500J0D01*
G01*
X64859500Y-139027000D01*
G75*
G02*
X64441000Y-138608500I0J418500D01*
G01*
G37*
G36*
G01*
X61901000Y-138608500D02*
X61901000Y-131955500D01*
G75*
G02*
X62319500Y-131537000I418500J0D01*
G01*
X63156500Y-131537000D01*
G75*
G02*
X63575000Y-131955500I0J-418500D01*
G01*
X63575000Y-138608500D01*
G75*
G02*
X63156500Y-139027000I-418500J0D01*
G01*
X62319500Y-139027000D01*
G75*
G02*
X61901000Y-138608500I0J418500D01*
G01*
G37*
G36*
G01*
X59361000Y-138608500D02*
X59361000Y-131955500D01*
G75*
G02*
X59779500Y-131537000I418500J0D01*
G01*
X60616500Y-131537000D01*
G75*
G02*
X61035000Y-131955500I0J-418500D01*
G01*
X61035000Y-138608500D01*
G75*
G02*
X60616500Y-139027000I-418500J0D01*
G01*
X59779500Y-139027000D01*
G75*
G02*
X59361000Y-138608500I0J418500D01*
G01*
G37*
G36*
G01*
X56821000Y-138608500D02*
X56821000Y-131955500D01*
G75*
G02*
X57239500Y-131537000I418500J0D01*
G01*
X58076500Y-131537000D01*
G75*
G02*
X58495000Y-131955500I0J-418500D01*
G01*
X58495000Y-138608500D01*
G75*
G02*
X58076500Y-139027000I-418500J0D01*
G01*
X57239500Y-139027000D01*
G75*
G02*
X56821000Y-138608500I0J418500D01*
G01*
G37*
D12*
X106617090Y-100965987D03*
X103024987Y-104558090D03*
X98983872Y-100516974D03*
X102575974Y-96924872D03*
D13*
X100779923Y-98720923D03*
X105449656Y-104827497D03*
X106886497Y-103390656D03*
D14*
X110998000Y-130175000D03*
D11*
X48514000Y-93726000D03*
X102870000Y-93726000D03*
X111506000Y-115189000D03*
M02*
