G04 #@! TF.GenerationSoftware,KiCad,Pcbnew,(5.1.10-1-10_14)*
G04 #@! TF.CreationDate,2021-05-31T18:24:55-04:00*
G04 #@! TF.ProjectId,RAM2GS,52414d32-4753-42e6-9b69-6361645f7063,2.0*
G04 #@! TF.SameCoordinates,Original*
G04 #@! TF.FileFunction,Legend,Top*
G04 #@! TF.FilePolarity,Positive*
%FSLAX46Y46*%
G04 Gerber Fmt 4.6, Leading zero omitted, Abs format (unit mm)*
G04 Created by KiCad (PCBNEW (5.1.10-1-10_14)) date 2021-05-31 18:24:55*
%MOMM*%
%LPD*%
G01*
G04 APERTURE LIST*
%ADD10C,0.300000*%
%ADD11C,0.200000*%
%ADD12C,0.190500*%
%ADD13C,0.203200*%
%ADD14C,0.225000*%
%ADD15C,0.150000*%
%ADD16C,0.120000*%
%ADD17C,0.152400*%
%ADD18C,0.100000*%
%ADD19C,1.448000*%
%ADD20C,2.000000*%
%ADD21C,2.524900*%
%ADD22C,0.937400*%
%ADD23C,1.140600*%
%ADD24C,2.150000*%
G04 APERTURE END LIST*
D10*
X62249571Y-95643000D02*
X62106714Y-95571571D01*
X61892428Y-95571571D01*
X61678142Y-95643000D01*
X61535285Y-95785857D01*
X61463857Y-95928714D01*
X61392428Y-96214428D01*
X61392428Y-96428714D01*
X61463857Y-96714428D01*
X61535285Y-96857285D01*
X61678142Y-97000142D01*
X61892428Y-97071571D01*
X62035285Y-97071571D01*
X62249571Y-97000142D01*
X62321000Y-96928714D01*
X62321000Y-96428714D01*
X62035285Y-96428714D01*
X62821000Y-95571571D02*
X63178142Y-97071571D01*
X63463857Y-96000142D01*
X63749571Y-97071571D01*
X64106714Y-95571571D01*
D11*
X48895000Y-103251000D02*
X47625000Y-103251000D01*
X47625000Y-103251000D02*
X48006000Y-103632000D01*
X48895000Y-117475000D02*
X47625000Y-117475000D01*
X47625000Y-103251000D02*
X48006000Y-102870000D01*
X49276000Y-120650000D02*
X49276000Y-118618000D01*
X49276000Y-118618000D02*
X47498000Y-119634000D01*
X47498000Y-119634000D02*
X49276000Y-120650000D01*
X47625000Y-117475000D02*
X48006000Y-117856000D01*
X47625000Y-117475000D02*
X48006000Y-117094000D01*
X47691523Y-116138476D02*
X47691523Y-115412761D01*
X48961523Y-115775619D02*
X47691523Y-115775619D01*
X48961523Y-114808000D02*
X48901047Y-114928952D01*
X48840571Y-114989428D01*
X48719619Y-115049904D01*
X48356761Y-115049904D01*
X48235809Y-114989428D01*
X48175333Y-114928952D01*
X48114857Y-114808000D01*
X48114857Y-114626571D01*
X48175333Y-114505619D01*
X48235809Y-114445142D01*
X48356761Y-114384666D01*
X48719619Y-114384666D01*
X48840571Y-114445142D01*
X48901047Y-114505619D01*
X48961523Y-114626571D01*
X48961523Y-114808000D01*
X48114857Y-113961333D02*
X48961523Y-113719428D01*
X48356761Y-113477523D01*
X48961523Y-113235619D01*
X48114857Y-112993714D01*
X48961523Y-111965619D02*
X48296285Y-111965619D01*
X48175333Y-112026095D01*
X48114857Y-112147047D01*
X48114857Y-112388952D01*
X48175333Y-112509904D01*
X48901047Y-111965619D02*
X48961523Y-112086571D01*
X48961523Y-112388952D01*
X48901047Y-112509904D01*
X48780095Y-112570380D01*
X48659142Y-112570380D01*
X48538190Y-112509904D01*
X48477714Y-112388952D01*
X48477714Y-112086571D01*
X48417238Y-111965619D01*
X48961523Y-111360857D02*
X48114857Y-111360857D01*
X48356761Y-111360857D02*
X48235809Y-111300380D01*
X48175333Y-111239904D01*
X48114857Y-111118952D01*
X48114857Y-110998000D01*
X48961523Y-110030380D02*
X47691523Y-110030380D01*
X48901047Y-110030380D02*
X48961523Y-110151333D01*
X48961523Y-110393238D01*
X48901047Y-110514190D01*
X48840571Y-110574666D01*
X48719619Y-110635142D01*
X48356761Y-110635142D01*
X48235809Y-110574666D01*
X48175333Y-110514190D01*
X48114857Y-110393238D01*
X48114857Y-110151333D01*
X48175333Y-110030380D01*
X48961523Y-107732285D02*
X48356761Y-108155619D01*
X48961523Y-108458000D02*
X47691523Y-108458000D01*
X47691523Y-107974190D01*
X47752000Y-107853238D01*
X47812476Y-107792761D01*
X47933428Y-107732285D01*
X48114857Y-107732285D01*
X48235809Y-107792761D01*
X48296285Y-107853238D01*
X48356761Y-107974190D01*
X48356761Y-108458000D01*
X48901047Y-106704190D02*
X48961523Y-106825142D01*
X48961523Y-107067047D01*
X48901047Y-107188000D01*
X48780095Y-107248476D01*
X48296285Y-107248476D01*
X48175333Y-107188000D01*
X48114857Y-107067047D01*
X48114857Y-106825142D01*
X48175333Y-106704190D01*
X48296285Y-106643714D01*
X48417238Y-106643714D01*
X48538190Y-107248476D01*
X48961523Y-105555142D02*
X48296285Y-105555142D01*
X48175333Y-105615619D01*
X48114857Y-105736571D01*
X48114857Y-105978476D01*
X48175333Y-106099428D01*
X48901047Y-105555142D02*
X48961523Y-105676095D01*
X48961523Y-105978476D01*
X48901047Y-106099428D01*
X48780095Y-106159904D01*
X48659142Y-106159904D01*
X48538190Y-106099428D01*
X48477714Y-105978476D01*
X48477714Y-105676095D01*
X48417238Y-105555142D01*
X48961523Y-104950380D02*
X48114857Y-104950380D01*
X48356761Y-104950380D02*
X48235809Y-104889904D01*
X48175333Y-104829428D01*
X48114857Y-104708476D01*
X48114857Y-104587523D01*
D12*
X48913142Y-119634000D02*
X48949428Y-119597714D01*
X48985714Y-119634000D01*
X48949428Y-119670285D01*
X48913142Y-119634000D01*
X48985714Y-119634000D01*
X48695428Y-119634000D02*
X48260000Y-119670285D01*
X48223714Y-119634000D01*
X48260000Y-119597714D01*
X48695428Y-119634000D01*
X48223714Y-119634000D01*
D10*
X65711000Y-96071571D02*
X65711000Y-97071571D01*
X65353857Y-95500142D02*
X64996714Y-96571571D01*
X65925285Y-96571571D01*
X66425285Y-95714428D02*
X66496714Y-95643000D01*
X66639571Y-95571571D01*
X66996714Y-95571571D01*
X67139571Y-95643000D01*
X67211000Y-95714428D01*
X67282428Y-95857285D01*
X67282428Y-96000142D01*
X67211000Y-96214428D01*
X66353857Y-97071571D01*
X67282428Y-97071571D01*
X68211000Y-95571571D02*
X68353857Y-95571571D01*
X68496714Y-95643000D01*
X68568142Y-95714428D01*
X68639571Y-95857285D01*
X68711000Y-96143000D01*
X68711000Y-96500142D01*
X68639571Y-96785857D01*
X68568142Y-96928714D01*
X68496714Y-97000142D01*
X68353857Y-97071571D01*
X68211000Y-97071571D01*
X68068142Y-97000142D01*
X67996714Y-96928714D01*
X67925285Y-96785857D01*
X67853857Y-96500142D01*
X67853857Y-96143000D01*
X67925285Y-95857285D01*
X67996714Y-95714428D01*
X68068142Y-95643000D01*
X68211000Y-95571571D01*
X70139571Y-97071571D02*
X69282428Y-97071571D01*
X69711000Y-97071571D02*
X69711000Y-95571571D01*
X69568142Y-95785857D01*
X69425285Y-95928714D01*
X69282428Y-96000142D01*
X70782428Y-97071571D02*
X70782428Y-95571571D01*
X71139571Y-95571571D01*
X71353857Y-95643000D01*
X71496714Y-95785857D01*
X71568142Y-95928714D01*
X71639571Y-96214428D01*
X71639571Y-96428714D01*
X71568142Y-96714428D01*
X71496714Y-96857285D01*
X71353857Y-97000142D01*
X71139571Y-97071571D01*
X70782428Y-97071571D01*
D13*
X82985428Y-95921285D02*
X83372476Y-95921285D01*
X83130571Y-96598619D02*
X83130571Y-95727761D01*
X83178952Y-95631000D01*
X83275714Y-95582619D01*
X83372476Y-95582619D01*
X83856285Y-96598619D02*
X83759523Y-96550238D01*
X83711142Y-96501857D01*
X83662761Y-96405095D01*
X83662761Y-96114809D01*
X83711142Y-96018047D01*
X83759523Y-95969666D01*
X83856285Y-95921285D01*
X84001428Y-95921285D01*
X84098190Y-95969666D01*
X84146571Y-96018047D01*
X84194952Y-96114809D01*
X84194952Y-96405095D01*
X84146571Y-96501857D01*
X84098190Y-96550238D01*
X84001428Y-96598619D01*
X83856285Y-96598619D01*
X84630380Y-96598619D02*
X84630380Y-95921285D01*
X84630380Y-96114809D02*
X84678761Y-96018047D01*
X84727142Y-95969666D01*
X84823904Y-95921285D01*
X84920666Y-95921285D01*
X85985047Y-96308333D02*
X86468857Y-96308333D01*
X85888285Y-96598619D02*
X86226952Y-95582619D01*
X86565619Y-96598619D01*
X86904285Y-95921285D02*
X86904285Y-96937285D01*
X86904285Y-95969666D02*
X87001047Y-95921285D01*
X87194571Y-95921285D01*
X87291333Y-95969666D01*
X87339714Y-96018047D01*
X87388095Y-96114809D01*
X87388095Y-96405095D01*
X87339714Y-96501857D01*
X87291333Y-96550238D01*
X87194571Y-96598619D01*
X87001047Y-96598619D01*
X86904285Y-96550238D01*
X87823523Y-95921285D02*
X87823523Y-96937285D01*
X87823523Y-95969666D02*
X87920285Y-95921285D01*
X88113809Y-95921285D01*
X88210571Y-95969666D01*
X88258952Y-96018047D01*
X88307333Y-96114809D01*
X88307333Y-96405095D01*
X88258952Y-96501857D01*
X88210571Y-96550238D01*
X88113809Y-96598619D01*
X87920285Y-96598619D01*
X87823523Y-96550238D01*
X88887904Y-96598619D02*
X88791142Y-96550238D01*
X88742761Y-96453476D01*
X88742761Y-95582619D01*
X89662000Y-96550238D02*
X89565238Y-96598619D01*
X89371714Y-96598619D01*
X89274952Y-96550238D01*
X89226571Y-96453476D01*
X89226571Y-96066428D01*
X89274952Y-95969666D01*
X89371714Y-95921285D01*
X89565238Y-95921285D01*
X89662000Y-95969666D01*
X89710380Y-96066428D01*
X89710380Y-96163190D01*
X89226571Y-96259952D01*
X90919904Y-96598619D02*
X90919904Y-95582619D01*
X91403714Y-96598619D02*
X91403714Y-95582619D01*
X92322952Y-95921285D02*
X92322952Y-96743761D01*
X92274571Y-96840523D01*
X92226190Y-96888904D01*
X92129428Y-96937285D01*
X91984285Y-96937285D01*
X91887523Y-96888904D01*
X92322952Y-96550238D02*
X92226190Y-96598619D01*
X92032666Y-96598619D01*
X91935904Y-96550238D01*
X91887523Y-96501857D01*
X91839142Y-96405095D01*
X91839142Y-96114809D01*
X91887523Y-96018047D01*
X91935904Y-95969666D01*
X92032666Y-95921285D01*
X92226190Y-95921285D01*
X92322952Y-95969666D01*
X92758380Y-96550238D02*
X92855142Y-96598619D01*
X93048666Y-96598619D01*
X93145428Y-96550238D01*
X93193809Y-96453476D01*
X93193809Y-96405095D01*
X93145428Y-96308333D01*
X93048666Y-96259952D01*
X92903523Y-96259952D01*
X92806761Y-96211571D01*
X92758380Y-96114809D01*
X92758380Y-96066428D01*
X92806761Y-95969666D01*
X92903523Y-95921285D01*
X93048666Y-95921285D01*
X93145428Y-95969666D01*
D14*
X56769000Y-92837000D02*
X56623857Y-92764428D01*
X56406142Y-92764428D01*
X56188428Y-92837000D01*
X56043285Y-92982142D01*
X55970714Y-93127285D01*
X55898142Y-93417571D01*
X55898142Y-93635285D01*
X55970714Y-93925571D01*
X56043285Y-94070714D01*
X56188428Y-94215857D01*
X56406142Y-94288428D01*
X56551285Y-94288428D01*
X56769000Y-94215857D01*
X56841571Y-94143285D01*
X56841571Y-93635285D01*
X56551285Y-93635285D01*
X58147857Y-94288428D02*
X58147857Y-93490142D01*
X58075285Y-93345000D01*
X57930142Y-93272428D01*
X57639857Y-93272428D01*
X57494714Y-93345000D01*
X58147857Y-94215857D02*
X58002714Y-94288428D01*
X57639857Y-94288428D01*
X57494714Y-94215857D01*
X57422142Y-94070714D01*
X57422142Y-93925571D01*
X57494714Y-93780428D01*
X57639857Y-93707857D01*
X58002714Y-93707857D01*
X58147857Y-93635285D01*
X58873571Y-94288428D02*
X58873571Y-93272428D01*
X58873571Y-93562714D02*
X58946142Y-93417571D01*
X59018714Y-93345000D01*
X59163857Y-93272428D01*
X59309000Y-93272428D01*
X59817000Y-94288428D02*
X59817000Y-93272428D01*
X59817000Y-93562714D02*
X59889571Y-93417571D01*
X59962142Y-93345000D01*
X60107285Y-93272428D01*
X60252428Y-93272428D01*
X61341000Y-94215857D02*
X61195857Y-94288428D01*
X60905571Y-94288428D01*
X60760428Y-94215857D01*
X60687857Y-94070714D01*
X60687857Y-93490142D01*
X60760428Y-93345000D01*
X60905571Y-93272428D01*
X61195857Y-93272428D01*
X61341000Y-93345000D01*
X61413571Y-93490142D01*
X61413571Y-93635285D01*
X60687857Y-93780428D01*
X61849000Y-93272428D02*
X62429571Y-93272428D01*
X62066714Y-92764428D02*
X62066714Y-94070714D01*
X62139285Y-94215857D01*
X62284428Y-94288428D01*
X62429571Y-94288428D01*
X62719857Y-93272428D02*
X63300428Y-93272428D01*
X62937571Y-92764428D02*
X62937571Y-94070714D01*
X63010142Y-94215857D01*
X63155285Y-94288428D01*
X63300428Y-94288428D01*
X63881000Y-92764428D02*
X63881000Y-92837000D01*
X63808428Y-92982142D01*
X63735857Y-93054714D01*
X64461571Y-94215857D02*
X64606714Y-94288428D01*
X64897000Y-94288428D01*
X65042142Y-94215857D01*
X65114714Y-94070714D01*
X65114714Y-93998142D01*
X65042142Y-93853000D01*
X64897000Y-93780428D01*
X64679285Y-93780428D01*
X64534142Y-93707857D01*
X64461571Y-93562714D01*
X64461571Y-93490142D01*
X64534142Y-93345000D01*
X64679285Y-93272428D01*
X64897000Y-93272428D01*
X65042142Y-93345000D01*
X66783857Y-92764428D02*
X67146714Y-94288428D01*
X67437000Y-93199857D01*
X67727285Y-94288428D01*
X68090142Y-92764428D01*
X68888428Y-94288428D02*
X68743285Y-94215857D01*
X68670714Y-94143285D01*
X68598142Y-93998142D01*
X68598142Y-93562714D01*
X68670714Y-93417571D01*
X68743285Y-93345000D01*
X68888428Y-93272428D01*
X69106142Y-93272428D01*
X69251285Y-93345000D01*
X69323857Y-93417571D01*
X69396428Y-93562714D01*
X69396428Y-93998142D01*
X69323857Y-94143285D01*
X69251285Y-94215857D01*
X69106142Y-94288428D01*
X68888428Y-94288428D01*
X70049571Y-94288428D02*
X70049571Y-93272428D01*
X70049571Y-93562714D02*
X70122142Y-93417571D01*
X70194714Y-93345000D01*
X70339857Y-93272428D01*
X70485000Y-93272428D01*
X70993000Y-94288428D02*
X70993000Y-92764428D01*
X71138142Y-93707857D02*
X71573571Y-94288428D01*
X71573571Y-93272428D02*
X70993000Y-93853000D01*
X72154142Y-94215857D02*
X72299285Y-94288428D01*
X72589571Y-94288428D01*
X72734714Y-94215857D01*
X72807285Y-94070714D01*
X72807285Y-93998142D01*
X72734714Y-93853000D01*
X72589571Y-93780428D01*
X72371857Y-93780428D01*
X72226714Y-93707857D01*
X72154142Y-93562714D01*
X72154142Y-93490142D01*
X72226714Y-93345000D01*
X72371857Y-93272428D01*
X72589571Y-93272428D01*
X72734714Y-93345000D01*
X73460428Y-94288428D02*
X73460428Y-92764428D01*
X74113571Y-94288428D02*
X74113571Y-93490142D01*
X74041000Y-93345000D01*
X73895857Y-93272428D01*
X73678142Y-93272428D01*
X73533000Y-93345000D01*
X73460428Y-93417571D01*
X75057000Y-94288428D02*
X74911857Y-94215857D01*
X74839285Y-94143285D01*
X74766714Y-93998142D01*
X74766714Y-93562714D01*
X74839285Y-93417571D01*
X74911857Y-93345000D01*
X75057000Y-93272428D01*
X75274714Y-93272428D01*
X75419857Y-93345000D01*
X75492428Y-93417571D01*
X75565000Y-93562714D01*
X75565000Y-93998142D01*
X75492428Y-94143285D01*
X75419857Y-94215857D01*
X75274714Y-94288428D01*
X75057000Y-94288428D01*
X76218142Y-93272428D02*
X76218142Y-94796428D01*
X76218142Y-93345000D02*
X76363285Y-93272428D01*
X76653571Y-93272428D01*
X76798714Y-93345000D01*
X76871285Y-93417571D01*
X76943857Y-93562714D01*
X76943857Y-93998142D01*
X76871285Y-94143285D01*
X76798714Y-94215857D01*
X76653571Y-94288428D01*
X76363285Y-94288428D01*
X76218142Y-94215857D01*
D10*
X82912857Y-93671571D02*
X82767714Y-93599000D01*
X82695142Y-93526428D01*
X82622571Y-93381285D01*
X82622571Y-93308714D01*
X82695142Y-93163571D01*
X82767714Y-93091000D01*
X82912857Y-93018428D01*
X83203142Y-93018428D01*
X83348285Y-93091000D01*
X83420857Y-93163571D01*
X83493428Y-93308714D01*
X83493428Y-93381285D01*
X83420857Y-93526428D01*
X83348285Y-93599000D01*
X83203142Y-93671571D01*
X82912857Y-93671571D01*
X82767714Y-93744142D01*
X82695142Y-93816714D01*
X82622571Y-93961857D01*
X82622571Y-94252142D01*
X82695142Y-94397285D01*
X82767714Y-94469857D01*
X82912857Y-94542428D01*
X83203142Y-94542428D01*
X83348285Y-94469857D01*
X83420857Y-94397285D01*
X83493428Y-94252142D01*
X83493428Y-93961857D01*
X83420857Y-93816714D01*
X83348285Y-93744142D01*
X83203142Y-93671571D01*
X85307714Y-94542428D02*
X85307714Y-93018428D01*
X85815714Y-94107000D01*
X86323714Y-93018428D01*
X86323714Y-94542428D01*
X87557428Y-93744142D02*
X87775142Y-93816714D01*
X87847714Y-93889285D01*
X87920285Y-94034428D01*
X87920285Y-94252142D01*
X87847714Y-94397285D01*
X87775142Y-94469857D01*
X87630000Y-94542428D01*
X87049428Y-94542428D01*
X87049428Y-93018428D01*
X87557428Y-93018428D01*
X87702571Y-93091000D01*
X87775142Y-93163571D01*
X87847714Y-93308714D01*
X87847714Y-93453857D01*
X87775142Y-93599000D01*
X87702571Y-93671571D01*
X87557428Y-93744142D01*
X87049428Y-93744142D01*
X90605428Y-94542428D02*
X90097428Y-93816714D01*
X89734571Y-94542428D02*
X89734571Y-93018428D01*
X90315142Y-93018428D01*
X90460285Y-93091000D01*
X90532857Y-93163571D01*
X90605428Y-93308714D01*
X90605428Y-93526428D01*
X90532857Y-93671571D01*
X90460285Y-93744142D01*
X90315142Y-93816714D01*
X89734571Y-93816714D01*
X91186000Y-94107000D02*
X91911714Y-94107000D01*
X91040857Y-94542428D02*
X91548857Y-93018428D01*
X92056857Y-94542428D01*
X92564857Y-94542428D02*
X92564857Y-93018428D01*
X93072857Y-94107000D01*
X93580857Y-93018428D01*
X93580857Y-94542428D01*
D15*
X108075000Y-127675000D02*
X108075000Y-123225000D01*
X101175000Y-129200000D02*
X101175000Y-123225000D01*
D16*
X53850000Y-122550000D02*
X53850000Y-122950000D01*
X64450000Y-122550000D02*
X64450000Y-122950000D01*
X64450000Y-100350000D02*
X64450000Y-100750000D01*
X53850000Y-122950000D02*
X64450000Y-122950000D01*
X53850000Y-100350000D02*
X64450000Y-100350000D01*
X53850000Y-100750000D02*
X53850000Y-100350000D01*
X52650000Y-100750000D02*
X53850000Y-100750000D01*
X70162779Y-120540000D02*
X69837221Y-120540000D01*
X70162779Y-121560000D02*
X69837221Y-121560000D01*
X70010000Y-110562779D02*
X70010000Y-110237221D01*
X68990000Y-110562779D02*
X68990000Y-110237221D01*
X92510000Y-114960000D02*
X93800000Y-114960000D01*
X92510000Y-115660000D02*
X92510000Y-114960000D01*
X91810000Y-115660000D02*
X92510000Y-115660000D01*
X78290000Y-115660000D02*
X78290000Y-114960000D01*
X78990000Y-115660000D02*
X78290000Y-115660000D01*
X92510000Y-101440000D02*
X92510000Y-102140000D01*
X91810000Y-101440000D02*
X92510000Y-101440000D01*
X78290000Y-101440000D02*
X78290000Y-102140000D01*
X78990000Y-101440000D02*
X78290000Y-101440000D01*
X72962779Y-119140000D02*
X72637221Y-119140000D01*
X72962779Y-120160000D02*
X72637221Y-120160000D01*
X75437221Y-119140000D02*
X75762779Y-119140000D01*
X75437221Y-120160000D02*
X75762779Y-120160000D01*
X70300000Y-103610000D02*
X72985000Y-103610000D01*
X72985000Y-103610000D02*
X72985000Y-101690000D01*
X72985000Y-101690000D02*
X70300000Y-101690000D01*
D17*
X70893600Y-103800000D02*
X71706400Y-103800000D01*
X70893600Y-105400000D02*
X71706400Y-105400000D01*
D16*
X73087221Y-108460000D02*
X73412779Y-108460000D01*
X73087221Y-107440000D02*
X73412779Y-107440000D01*
X70612779Y-108460000D02*
X70287221Y-108460000D01*
X70612779Y-107440000D02*
X70287221Y-107440000D01*
X78460000Y-119162779D02*
X78460000Y-118837221D01*
X77440000Y-119162779D02*
X77440000Y-118837221D01*
D17*
X103477000Y-107740000D02*
X103477000Y-109000000D01*
X103477000Y-114560000D02*
X103477000Y-113300000D01*
X107237000Y-107740000D02*
X103477000Y-107740000D01*
X109487000Y-114560000D02*
X103477000Y-114560000D01*
D16*
X68200000Y-118500000D02*
X72100000Y-118500000D01*
X68200000Y-118500000D02*
X68200000Y-115300000D01*
D15*
X80475000Y-127675000D02*
X80475000Y-123225000D01*
X73575000Y-129200000D02*
X73575000Y-123225000D01*
D16*
X72780000Y-109340000D02*
X71370000Y-109340000D01*
X71370000Y-111660000D02*
X73400000Y-111660000D01*
X69220000Y-124310000D02*
X70630000Y-124310000D01*
X70630000Y-121990000D02*
X68600000Y-121990000D01*
D15*
X98875000Y-127675000D02*
X98875000Y-123225000D01*
X91975000Y-129200000D02*
X91975000Y-123225000D01*
X89675000Y-127675000D02*
X89675000Y-123225000D01*
X82775000Y-129200000D02*
X82775000Y-123225000D01*
D16*
X53987221Y-98840000D02*
X54312779Y-98840000D01*
X53987221Y-99860000D02*
X54312779Y-99860000D01*
D17*
X58743600Y-123450000D02*
X59556400Y-123450000D01*
X58743600Y-125050000D02*
X59556400Y-125050000D01*
D16*
X100330910Y-100067962D02*
X100779923Y-99618949D01*
X100779923Y-100516974D02*
X100330910Y-100067962D01*
D17*
X107293600Y-115350000D02*
X108106400Y-115350000D01*
X107293600Y-116950000D02*
X108106400Y-116950000D01*
X109093600Y-104750000D02*
X109906400Y-104750000D01*
X109093600Y-106350000D02*
X109906400Y-106350000D01*
X109575600Y-127089000D02*
X110388400Y-127089000D01*
X109575600Y-128689000D02*
X110388400Y-128689000D01*
X59334400Y-129578000D02*
X58521600Y-129578000D01*
X59334400Y-127978000D02*
X58521600Y-127978000D01*
D16*
X73110000Y-123087221D02*
X73110000Y-123412779D01*
X72090000Y-123087221D02*
X72090000Y-123412779D01*
X63987221Y-123440000D02*
X64312779Y-123440000D01*
X63987221Y-124460000D02*
X64312779Y-124460000D01*
X50840000Y-102262779D02*
X50840000Y-101937221D01*
X51860000Y-102262779D02*
X51860000Y-101937221D01*
X63987221Y-98840000D02*
X64312779Y-98840000D01*
X63987221Y-99860000D02*
X64312779Y-99860000D01*
X53987221Y-123440000D02*
X54312779Y-123440000D01*
X53987221Y-124460000D02*
X54312779Y-124460000D01*
X67460000Y-110637221D02*
X67460000Y-110962779D01*
X66440000Y-110637221D02*
X66440000Y-110962779D01*
X50840000Y-107062779D02*
X50840000Y-106737221D01*
X51860000Y-107062779D02*
X51860000Y-106737221D01*
X50840000Y-111062779D02*
X50840000Y-110737221D01*
X51860000Y-111062779D02*
X51860000Y-110737221D01*
X67460000Y-105837221D02*
X67460000Y-106162779D01*
X66440000Y-105837221D02*
X66440000Y-106162779D01*
X100710000Y-123087221D02*
X100710000Y-123412779D01*
X99690000Y-123087221D02*
X99690000Y-123412779D01*
X82310000Y-123087221D02*
X82310000Y-123412779D01*
X81290000Y-123087221D02*
X81290000Y-123412779D01*
X91510000Y-123087221D02*
X91510000Y-123412779D01*
X90490000Y-123087221D02*
X90490000Y-123412779D01*
X109660000Y-120662779D02*
X109660000Y-120337221D01*
X108640000Y-120662779D02*
X108640000Y-120337221D01*
D17*
X100406400Y-119700000D02*
X99593600Y-119700000D01*
X100406400Y-121300000D02*
X99593600Y-121300000D01*
D16*
X108520000Y-123490000D02*
X108520000Y-125650000D01*
X111680000Y-123490000D02*
X111680000Y-124950000D01*
X81312779Y-118760000D02*
X80987221Y-118760000D01*
X81312779Y-117740000D02*
X80987221Y-117740000D01*
X90812779Y-98340000D02*
X90487221Y-98340000D01*
X90812779Y-99360000D02*
X90487221Y-99360000D01*
X87812779Y-118760000D02*
X87487221Y-118760000D01*
X87812779Y-117740000D02*
X87487221Y-117740000D01*
X81737221Y-99360000D02*
X82062779Y-99360000D01*
X81737221Y-98340000D02*
X82062779Y-98340000D01*
X78812779Y-98340000D02*
X78487221Y-98340000D01*
X78812779Y-99360000D02*
X78487221Y-99360000D01*
X76210000Y-104637221D02*
X76210000Y-104962779D01*
X75190000Y-104637221D02*
X75190000Y-104962779D01*
X91987221Y-118760000D02*
X92312779Y-118760000D01*
X91987221Y-117740000D02*
X92312779Y-117740000D01*
X94590000Y-112462779D02*
X94590000Y-112137221D01*
X95610000Y-112462779D02*
X95610000Y-112137221D01*
X96240000Y-115687221D02*
X96240000Y-116012779D01*
X97260000Y-115687221D02*
X97260000Y-116012779D01*
X97574273Y-103754478D02*
X97804478Y-103524273D01*
X98295522Y-104475727D02*
X98525727Y-104245522D01*
X99345522Y-105525727D02*
X99575727Y-105295522D01*
X98624273Y-104804478D02*
X98854478Y-104574273D01*
X96754478Y-102474273D02*
X96524273Y-102704478D01*
X97475727Y-103195522D02*
X97245522Y-103425727D01*
X97374273Y-97954478D02*
X97604478Y-97724273D01*
X98095522Y-98675727D02*
X98325727Y-98445522D01*
D13*
X104005723Y-125004895D02*
X104005723Y-125662876D01*
X104044428Y-125740285D01*
X104083133Y-125778990D01*
X104160542Y-125817695D01*
X104315361Y-125817695D01*
X104392771Y-125778990D01*
X104431476Y-125740285D01*
X104470180Y-125662876D01*
X104470180Y-125004895D01*
X104779819Y-125004895D02*
X105321685Y-125004895D01*
X104973342Y-125817695D01*
X58530723Y-111204895D02*
X58530723Y-111862876D01*
X58569428Y-111940285D01*
X58608133Y-111978990D01*
X58685542Y-112017695D01*
X58840361Y-112017695D01*
X58917771Y-111978990D01*
X58956476Y-111940285D01*
X58995180Y-111862876D01*
X58995180Y-111204895D01*
X59343523Y-111282304D02*
X59382228Y-111243600D01*
X59459638Y-111204895D01*
X59653161Y-111204895D01*
X59730571Y-111243600D01*
X59769276Y-111282304D01*
X59807980Y-111359714D01*
X59807980Y-111437123D01*
X59769276Y-111553238D01*
X59304819Y-112017695D01*
X59807980Y-112017695D01*
X84780723Y-108104895D02*
X84780723Y-108762876D01*
X84819428Y-108840285D01*
X84858133Y-108878990D01*
X84935542Y-108917695D01*
X85090361Y-108917695D01*
X85167771Y-108878990D01*
X85206476Y-108840285D01*
X85245180Y-108762876D01*
X85245180Y-108104895D01*
X86057980Y-108917695D02*
X85593523Y-108917695D01*
X85825752Y-108917695D02*
X85825752Y-108104895D01*
X85748342Y-108221009D01*
X85670933Y-108298419D01*
X85593523Y-108337123D01*
X104941895Y-111769276D02*
X105599876Y-111769276D01*
X105677285Y-111730571D01*
X105715990Y-111691866D01*
X105754695Y-111614457D01*
X105754695Y-111459638D01*
X105715990Y-111382228D01*
X105677285Y-111343523D01*
X105599876Y-111304819D01*
X104941895Y-111304819D01*
X105290238Y-110801657D02*
X105251533Y-110879066D01*
X105212828Y-110917771D01*
X105135419Y-110956476D01*
X105096714Y-110956476D01*
X105019304Y-110917771D01*
X104980600Y-110879066D01*
X104941895Y-110801657D01*
X104941895Y-110646838D01*
X104980600Y-110569428D01*
X105019304Y-110530723D01*
X105096714Y-110492019D01*
X105135419Y-110492019D01*
X105212828Y-110530723D01*
X105251533Y-110569428D01*
X105290238Y-110646838D01*
X105290238Y-110801657D01*
X105328942Y-110879066D01*
X105367647Y-110917771D01*
X105445057Y-110956476D01*
X105599876Y-110956476D01*
X105677285Y-110917771D01*
X105715990Y-110879066D01*
X105754695Y-110801657D01*
X105754695Y-110646838D01*
X105715990Y-110569428D01*
X105677285Y-110530723D01*
X105599876Y-110492019D01*
X105445057Y-110492019D01*
X105367647Y-110530723D01*
X105328942Y-110569428D01*
X105290238Y-110646838D01*
X76405723Y-125004895D02*
X76405723Y-125662876D01*
X76444428Y-125740285D01*
X76483133Y-125778990D01*
X76560542Y-125817695D01*
X76715361Y-125817695D01*
X76792771Y-125778990D01*
X76831476Y-125740285D01*
X76870180Y-125662876D01*
X76870180Y-125004895D01*
X77605571Y-125275828D02*
X77605571Y-125817695D01*
X77412047Y-124966190D02*
X77218523Y-125546761D01*
X77721685Y-125546761D01*
X94805723Y-125004895D02*
X94805723Y-125662876D01*
X94844428Y-125740285D01*
X94883133Y-125778990D01*
X94960542Y-125817695D01*
X95115361Y-125817695D01*
X95192771Y-125778990D01*
X95231476Y-125740285D01*
X95270180Y-125662876D01*
X95270180Y-125004895D01*
X96005571Y-125004895D02*
X95850752Y-125004895D01*
X95773342Y-125043600D01*
X95734638Y-125082304D01*
X95657228Y-125198419D01*
X95618523Y-125353238D01*
X95618523Y-125662876D01*
X95657228Y-125740285D01*
X95695933Y-125778990D01*
X95773342Y-125817695D01*
X95928161Y-125817695D01*
X96005571Y-125778990D01*
X96044276Y-125740285D01*
X96082980Y-125662876D01*
X96082980Y-125469352D01*
X96044276Y-125391942D01*
X96005571Y-125353238D01*
X95928161Y-125314533D01*
X95773342Y-125314533D01*
X95695933Y-125353238D01*
X95657228Y-125391942D01*
X95618523Y-125469352D01*
X85605723Y-125004895D02*
X85605723Y-125662876D01*
X85644428Y-125740285D01*
X85683133Y-125778990D01*
X85760542Y-125817695D01*
X85915361Y-125817695D01*
X85992771Y-125778990D01*
X86031476Y-125740285D01*
X86070180Y-125662876D01*
X86070180Y-125004895D01*
X86844276Y-125004895D02*
X86457228Y-125004895D01*
X86418523Y-125391942D01*
X86457228Y-125353238D01*
X86534638Y-125314533D01*
X86728161Y-125314533D01*
X86805571Y-125353238D01*
X86844276Y-125391942D01*
X86882980Y-125469352D01*
X86882980Y-125662876D01*
X86844276Y-125740285D01*
X86805571Y-125778990D01*
X86728161Y-125817695D01*
X86534638Y-125817695D01*
X86457228Y-125778990D01*
X86418523Y-125740285D01*
%LPC*%
D18*
G36*
X113538000Y-139446000D02*
G01*
X113030000Y-139954000D01*
X55626000Y-139954000D01*
X55118000Y-139446000D01*
X55118000Y-132080000D01*
X113538000Y-132080000D01*
X113538000Y-139446000D01*
G37*
G36*
G01*
X101824500Y-123249000D02*
X101575500Y-123249000D01*
G75*
G02*
X101451000Y-123124500I0J124500D01*
G01*
X101451000Y-121875500D01*
G75*
G02*
X101575500Y-121751000I124500J0D01*
G01*
X101824500Y-121751000D01*
G75*
G02*
X101949000Y-121875500I0J-124500D01*
G01*
X101949000Y-123124500D01*
G75*
G02*
X101824500Y-123249000I-124500J0D01*
G01*
G37*
G36*
G01*
X102474500Y-123249000D02*
X102225500Y-123249000D01*
G75*
G02*
X102101000Y-123124500I0J124500D01*
G01*
X102101000Y-121875500D01*
G75*
G02*
X102225500Y-121751000I124500J0D01*
G01*
X102474500Y-121751000D01*
G75*
G02*
X102599000Y-121875500I0J-124500D01*
G01*
X102599000Y-123124500D01*
G75*
G02*
X102474500Y-123249000I-124500J0D01*
G01*
G37*
G36*
G01*
X103124500Y-123249000D02*
X102875500Y-123249000D01*
G75*
G02*
X102751000Y-123124500I0J124500D01*
G01*
X102751000Y-121875500D01*
G75*
G02*
X102875500Y-121751000I124500J0D01*
G01*
X103124500Y-121751000D01*
G75*
G02*
X103249000Y-121875500I0J-124500D01*
G01*
X103249000Y-123124500D01*
G75*
G02*
X103124500Y-123249000I-124500J0D01*
G01*
G37*
G36*
G01*
X103774500Y-123249000D02*
X103525500Y-123249000D01*
G75*
G02*
X103401000Y-123124500I0J124500D01*
G01*
X103401000Y-121875500D01*
G75*
G02*
X103525500Y-121751000I124500J0D01*
G01*
X103774500Y-121751000D01*
G75*
G02*
X103899000Y-121875500I0J-124500D01*
G01*
X103899000Y-123124500D01*
G75*
G02*
X103774500Y-123249000I-124500J0D01*
G01*
G37*
G36*
G01*
X104424500Y-123249000D02*
X104175500Y-123249000D01*
G75*
G02*
X104051000Y-123124500I0J124500D01*
G01*
X104051000Y-121875500D01*
G75*
G02*
X104175500Y-121751000I124500J0D01*
G01*
X104424500Y-121751000D01*
G75*
G02*
X104549000Y-121875500I0J-124500D01*
G01*
X104549000Y-123124500D01*
G75*
G02*
X104424500Y-123249000I-124500J0D01*
G01*
G37*
G36*
G01*
X105074500Y-123249000D02*
X104825500Y-123249000D01*
G75*
G02*
X104701000Y-123124500I0J124500D01*
G01*
X104701000Y-121875500D01*
G75*
G02*
X104825500Y-121751000I124500J0D01*
G01*
X105074500Y-121751000D01*
G75*
G02*
X105199000Y-121875500I0J-124500D01*
G01*
X105199000Y-123124500D01*
G75*
G02*
X105074500Y-123249000I-124500J0D01*
G01*
G37*
G36*
G01*
X105724500Y-123249000D02*
X105475500Y-123249000D01*
G75*
G02*
X105351000Y-123124500I0J124500D01*
G01*
X105351000Y-121875500D01*
G75*
G02*
X105475500Y-121751000I124500J0D01*
G01*
X105724500Y-121751000D01*
G75*
G02*
X105849000Y-121875500I0J-124500D01*
G01*
X105849000Y-123124500D01*
G75*
G02*
X105724500Y-123249000I-124500J0D01*
G01*
G37*
G36*
G01*
X106374500Y-123249000D02*
X106125500Y-123249000D01*
G75*
G02*
X106001000Y-123124500I0J124500D01*
G01*
X106001000Y-121875500D01*
G75*
G02*
X106125500Y-121751000I124500J0D01*
G01*
X106374500Y-121751000D01*
G75*
G02*
X106499000Y-121875500I0J-124500D01*
G01*
X106499000Y-123124500D01*
G75*
G02*
X106374500Y-123249000I-124500J0D01*
G01*
G37*
G36*
G01*
X107024500Y-123249000D02*
X106775500Y-123249000D01*
G75*
G02*
X106651000Y-123124500I0J124500D01*
G01*
X106651000Y-121875500D01*
G75*
G02*
X106775500Y-121751000I124500J0D01*
G01*
X107024500Y-121751000D01*
G75*
G02*
X107149000Y-121875500I0J-124500D01*
G01*
X107149000Y-123124500D01*
G75*
G02*
X107024500Y-123249000I-124500J0D01*
G01*
G37*
G36*
G01*
X107674500Y-123249000D02*
X107425500Y-123249000D01*
G75*
G02*
X107301000Y-123124500I0J124500D01*
G01*
X107301000Y-121875500D01*
G75*
G02*
X107425500Y-121751000I124500J0D01*
G01*
X107674500Y-121751000D01*
G75*
G02*
X107799000Y-121875500I0J-124500D01*
G01*
X107799000Y-123124500D01*
G75*
G02*
X107674500Y-123249000I-124500J0D01*
G01*
G37*
G36*
G01*
X107674500Y-129149000D02*
X107425500Y-129149000D01*
G75*
G02*
X107301000Y-129024500I0J124500D01*
G01*
X107301000Y-127775500D01*
G75*
G02*
X107425500Y-127651000I124500J0D01*
G01*
X107674500Y-127651000D01*
G75*
G02*
X107799000Y-127775500I0J-124500D01*
G01*
X107799000Y-129024500D01*
G75*
G02*
X107674500Y-129149000I-124500J0D01*
G01*
G37*
G36*
G01*
X107024500Y-129149000D02*
X106775500Y-129149000D01*
G75*
G02*
X106651000Y-129024500I0J124500D01*
G01*
X106651000Y-127775500D01*
G75*
G02*
X106775500Y-127651000I124500J0D01*
G01*
X107024500Y-127651000D01*
G75*
G02*
X107149000Y-127775500I0J-124500D01*
G01*
X107149000Y-129024500D01*
G75*
G02*
X107024500Y-129149000I-124500J0D01*
G01*
G37*
G36*
G01*
X106374500Y-129149000D02*
X106125500Y-129149000D01*
G75*
G02*
X106001000Y-129024500I0J124500D01*
G01*
X106001000Y-127775500D01*
G75*
G02*
X106125500Y-127651000I124500J0D01*
G01*
X106374500Y-127651000D01*
G75*
G02*
X106499000Y-127775500I0J-124500D01*
G01*
X106499000Y-129024500D01*
G75*
G02*
X106374500Y-129149000I-124500J0D01*
G01*
G37*
G36*
G01*
X105724500Y-129149000D02*
X105475500Y-129149000D01*
G75*
G02*
X105351000Y-129024500I0J124500D01*
G01*
X105351000Y-127775500D01*
G75*
G02*
X105475500Y-127651000I124500J0D01*
G01*
X105724500Y-127651000D01*
G75*
G02*
X105849000Y-127775500I0J-124500D01*
G01*
X105849000Y-129024500D01*
G75*
G02*
X105724500Y-129149000I-124500J0D01*
G01*
G37*
G36*
G01*
X105074500Y-129149000D02*
X104825500Y-129149000D01*
G75*
G02*
X104701000Y-129024500I0J124500D01*
G01*
X104701000Y-127775500D01*
G75*
G02*
X104825500Y-127651000I124500J0D01*
G01*
X105074500Y-127651000D01*
G75*
G02*
X105199000Y-127775500I0J-124500D01*
G01*
X105199000Y-129024500D01*
G75*
G02*
X105074500Y-129149000I-124500J0D01*
G01*
G37*
G36*
G01*
X104424500Y-129149000D02*
X104175500Y-129149000D01*
G75*
G02*
X104051000Y-129024500I0J124500D01*
G01*
X104051000Y-127775500D01*
G75*
G02*
X104175500Y-127651000I124500J0D01*
G01*
X104424500Y-127651000D01*
G75*
G02*
X104549000Y-127775500I0J-124500D01*
G01*
X104549000Y-129024500D01*
G75*
G02*
X104424500Y-129149000I-124500J0D01*
G01*
G37*
G36*
G01*
X103774500Y-129149000D02*
X103525500Y-129149000D01*
G75*
G02*
X103401000Y-129024500I0J124500D01*
G01*
X103401000Y-127775500D01*
G75*
G02*
X103525500Y-127651000I124500J0D01*
G01*
X103774500Y-127651000D01*
G75*
G02*
X103899000Y-127775500I0J-124500D01*
G01*
X103899000Y-129024500D01*
G75*
G02*
X103774500Y-129149000I-124500J0D01*
G01*
G37*
G36*
G01*
X103124500Y-129149000D02*
X102875500Y-129149000D01*
G75*
G02*
X102751000Y-129024500I0J124500D01*
G01*
X102751000Y-127775500D01*
G75*
G02*
X102875500Y-127651000I124500J0D01*
G01*
X103124500Y-127651000D01*
G75*
G02*
X103249000Y-127775500I0J-124500D01*
G01*
X103249000Y-129024500D01*
G75*
G02*
X103124500Y-129149000I-124500J0D01*
G01*
G37*
G36*
G01*
X102474500Y-129149000D02*
X102225500Y-129149000D01*
G75*
G02*
X102101000Y-129024500I0J124500D01*
G01*
X102101000Y-127775500D01*
G75*
G02*
X102225500Y-127651000I124500J0D01*
G01*
X102474500Y-127651000D01*
G75*
G02*
X102599000Y-127775500I0J-124500D01*
G01*
X102599000Y-129024500D01*
G75*
G02*
X102474500Y-129149000I-124500J0D01*
G01*
G37*
G36*
G01*
X101824500Y-129149000D02*
X101575500Y-129149000D01*
G75*
G02*
X101451000Y-129024500I0J124500D01*
G01*
X101451000Y-127775500D01*
G75*
G02*
X101575500Y-127651000I124500J0D01*
G01*
X101824500Y-127651000D01*
G75*
G02*
X101949000Y-127775500I0J-124500D01*
G01*
X101949000Y-129024500D01*
G75*
G02*
X101824500Y-129149000I-124500J0D01*
G01*
G37*
G36*
G01*
X64095000Y-101389500D02*
X64095000Y-101110500D01*
G75*
G02*
X64234500Y-100971000I139500J0D01*
G01*
X65565500Y-100971000D01*
G75*
G02*
X65705000Y-101110500I0J-139500D01*
G01*
X65705000Y-101389500D01*
G75*
G02*
X65565500Y-101529000I-139500J0D01*
G01*
X64234500Y-101529000D01*
G75*
G02*
X64095000Y-101389500I0J139500D01*
G01*
G37*
G36*
G01*
X64095000Y-102189500D02*
X64095000Y-101910500D01*
G75*
G02*
X64234500Y-101771000I139500J0D01*
G01*
X65565500Y-101771000D01*
G75*
G02*
X65705000Y-101910500I0J-139500D01*
G01*
X65705000Y-102189500D01*
G75*
G02*
X65565500Y-102329000I-139500J0D01*
G01*
X64234500Y-102329000D01*
G75*
G02*
X64095000Y-102189500I0J139500D01*
G01*
G37*
G36*
G01*
X64095000Y-102989500D02*
X64095000Y-102710500D01*
G75*
G02*
X64234500Y-102571000I139500J0D01*
G01*
X65565500Y-102571000D01*
G75*
G02*
X65705000Y-102710500I0J-139500D01*
G01*
X65705000Y-102989500D01*
G75*
G02*
X65565500Y-103129000I-139500J0D01*
G01*
X64234500Y-103129000D01*
G75*
G02*
X64095000Y-102989500I0J139500D01*
G01*
G37*
G36*
G01*
X64095000Y-103789500D02*
X64095000Y-103510500D01*
G75*
G02*
X64234500Y-103371000I139500J0D01*
G01*
X65565500Y-103371000D01*
G75*
G02*
X65705000Y-103510500I0J-139500D01*
G01*
X65705000Y-103789500D01*
G75*
G02*
X65565500Y-103929000I-139500J0D01*
G01*
X64234500Y-103929000D01*
G75*
G02*
X64095000Y-103789500I0J139500D01*
G01*
G37*
G36*
G01*
X64095000Y-104589500D02*
X64095000Y-104310500D01*
G75*
G02*
X64234500Y-104171000I139500J0D01*
G01*
X65565500Y-104171000D01*
G75*
G02*
X65705000Y-104310500I0J-139500D01*
G01*
X65705000Y-104589500D01*
G75*
G02*
X65565500Y-104729000I-139500J0D01*
G01*
X64234500Y-104729000D01*
G75*
G02*
X64095000Y-104589500I0J139500D01*
G01*
G37*
G36*
G01*
X64095000Y-105389500D02*
X64095000Y-105110500D01*
G75*
G02*
X64234500Y-104971000I139500J0D01*
G01*
X65565500Y-104971000D01*
G75*
G02*
X65705000Y-105110500I0J-139500D01*
G01*
X65705000Y-105389500D01*
G75*
G02*
X65565500Y-105529000I-139500J0D01*
G01*
X64234500Y-105529000D01*
G75*
G02*
X64095000Y-105389500I0J139500D01*
G01*
G37*
G36*
G01*
X64095000Y-106189500D02*
X64095000Y-105910500D01*
G75*
G02*
X64234500Y-105771000I139500J0D01*
G01*
X65565500Y-105771000D01*
G75*
G02*
X65705000Y-105910500I0J-139500D01*
G01*
X65705000Y-106189500D01*
G75*
G02*
X65565500Y-106329000I-139500J0D01*
G01*
X64234500Y-106329000D01*
G75*
G02*
X64095000Y-106189500I0J139500D01*
G01*
G37*
G36*
G01*
X64095000Y-106989500D02*
X64095000Y-106710500D01*
G75*
G02*
X64234500Y-106571000I139500J0D01*
G01*
X65565500Y-106571000D01*
G75*
G02*
X65705000Y-106710500I0J-139500D01*
G01*
X65705000Y-106989500D01*
G75*
G02*
X65565500Y-107129000I-139500J0D01*
G01*
X64234500Y-107129000D01*
G75*
G02*
X64095000Y-106989500I0J139500D01*
G01*
G37*
G36*
G01*
X64095000Y-107789500D02*
X64095000Y-107510500D01*
G75*
G02*
X64234500Y-107371000I139500J0D01*
G01*
X65565500Y-107371000D01*
G75*
G02*
X65705000Y-107510500I0J-139500D01*
G01*
X65705000Y-107789500D01*
G75*
G02*
X65565500Y-107929000I-139500J0D01*
G01*
X64234500Y-107929000D01*
G75*
G02*
X64095000Y-107789500I0J139500D01*
G01*
G37*
G36*
G01*
X64095000Y-108589500D02*
X64095000Y-108310500D01*
G75*
G02*
X64234500Y-108171000I139500J0D01*
G01*
X65565500Y-108171000D01*
G75*
G02*
X65705000Y-108310500I0J-139500D01*
G01*
X65705000Y-108589500D01*
G75*
G02*
X65565500Y-108729000I-139500J0D01*
G01*
X64234500Y-108729000D01*
G75*
G02*
X64095000Y-108589500I0J139500D01*
G01*
G37*
G36*
G01*
X64095000Y-109389500D02*
X64095000Y-109110500D01*
G75*
G02*
X64234500Y-108971000I139500J0D01*
G01*
X65565500Y-108971000D01*
G75*
G02*
X65705000Y-109110500I0J-139500D01*
G01*
X65705000Y-109389500D01*
G75*
G02*
X65565500Y-109529000I-139500J0D01*
G01*
X64234500Y-109529000D01*
G75*
G02*
X64095000Y-109389500I0J139500D01*
G01*
G37*
G36*
G01*
X64095000Y-110189500D02*
X64095000Y-109910500D01*
G75*
G02*
X64234500Y-109771000I139500J0D01*
G01*
X65565500Y-109771000D01*
G75*
G02*
X65705000Y-109910500I0J-139500D01*
G01*
X65705000Y-110189500D01*
G75*
G02*
X65565500Y-110329000I-139500J0D01*
G01*
X64234500Y-110329000D01*
G75*
G02*
X64095000Y-110189500I0J139500D01*
G01*
G37*
G36*
G01*
X64095000Y-110989500D02*
X64095000Y-110710500D01*
G75*
G02*
X64234500Y-110571000I139500J0D01*
G01*
X65565500Y-110571000D01*
G75*
G02*
X65705000Y-110710500I0J-139500D01*
G01*
X65705000Y-110989500D01*
G75*
G02*
X65565500Y-111129000I-139500J0D01*
G01*
X64234500Y-111129000D01*
G75*
G02*
X64095000Y-110989500I0J139500D01*
G01*
G37*
G36*
G01*
X64095000Y-111789500D02*
X64095000Y-111510500D01*
G75*
G02*
X64234500Y-111371000I139500J0D01*
G01*
X65565500Y-111371000D01*
G75*
G02*
X65705000Y-111510500I0J-139500D01*
G01*
X65705000Y-111789500D01*
G75*
G02*
X65565500Y-111929000I-139500J0D01*
G01*
X64234500Y-111929000D01*
G75*
G02*
X64095000Y-111789500I0J139500D01*
G01*
G37*
G36*
G01*
X64095000Y-112589500D02*
X64095000Y-112310500D01*
G75*
G02*
X64234500Y-112171000I139500J0D01*
G01*
X65565500Y-112171000D01*
G75*
G02*
X65705000Y-112310500I0J-139500D01*
G01*
X65705000Y-112589500D01*
G75*
G02*
X65565500Y-112729000I-139500J0D01*
G01*
X64234500Y-112729000D01*
G75*
G02*
X64095000Y-112589500I0J139500D01*
G01*
G37*
G36*
G01*
X64095000Y-113389500D02*
X64095000Y-113110500D01*
G75*
G02*
X64234500Y-112971000I139500J0D01*
G01*
X65565500Y-112971000D01*
G75*
G02*
X65705000Y-113110500I0J-139500D01*
G01*
X65705000Y-113389500D01*
G75*
G02*
X65565500Y-113529000I-139500J0D01*
G01*
X64234500Y-113529000D01*
G75*
G02*
X64095000Y-113389500I0J139500D01*
G01*
G37*
G36*
G01*
X64095000Y-114189500D02*
X64095000Y-113910500D01*
G75*
G02*
X64234500Y-113771000I139500J0D01*
G01*
X65565500Y-113771000D01*
G75*
G02*
X65705000Y-113910500I0J-139500D01*
G01*
X65705000Y-114189500D01*
G75*
G02*
X65565500Y-114329000I-139500J0D01*
G01*
X64234500Y-114329000D01*
G75*
G02*
X64095000Y-114189500I0J139500D01*
G01*
G37*
G36*
G01*
X64095000Y-114989500D02*
X64095000Y-114710500D01*
G75*
G02*
X64234500Y-114571000I139500J0D01*
G01*
X65565500Y-114571000D01*
G75*
G02*
X65705000Y-114710500I0J-139500D01*
G01*
X65705000Y-114989500D01*
G75*
G02*
X65565500Y-115129000I-139500J0D01*
G01*
X64234500Y-115129000D01*
G75*
G02*
X64095000Y-114989500I0J139500D01*
G01*
G37*
G36*
G01*
X64095000Y-115789500D02*
X64095000Y-115510500D01*
G75*
G02*
X64234500Y-115371000I139500J0D01*
G01*
X65565500Y-115371000D01*
G75*
G02*
X65705000Y-115510500I0J-139500D01*
G01*
X65705000Y-115789500D01*
G75*
G02*
X65565500Y-115929000I-139500J0D01*
G01*
X64234500Y-115929000D01*
G75*
G02*
X64095000Y-115789500I0J139500D01*
G01*
G37*
G36*
G01*
X64095000Y-116589500D02*
X64095000Y-116310500D01*
G75*
G02*
X64234500Y-116171000I139500J0D01*
G01*
X65565500Y-116171000D01*
G75*
G02*
X65705000Y-116310500I0J-139500D01*
G01*
X65705000Y-116589500D01*
G75*
G02*
X65565500Y-116729000I-139500J0D01*
G01*
X64234500Y-116729000D01*
G75*
G02*
X64095000Y-116589500I0J139500D01*
G01*
G37*
G36*
G01*
X64095000Y-117389500D02*
X64095000Y-117110500D01*
G75*
G02*
X64234500Y-116971000I139500J0D01*
G01*
X65565500Y-116971000D01*
G75*
G02*
X65705000Y-117110500I0J-139500D01*
G01*
X65705000Y-117389500D01*
G75*
G02*
X65565500Y-117529000I-139500J0D01*
G01*
X64234500Y-117529000D01*
G75*
G02*
X64095000Y-117389500I0J139500D01*
G01*
G37*
G36*
G01*
X64095000Y-118189500D02*
X64095000Y-117910500D01*
G75*
G02*
X64234500Y-117771000I139500J0D01*
G01*
X65565500Y-117771000D01*
G75*
G02*
X65705000Y-117910500I0J-139500D01*
G01*
X65705000Y-118189500D01*
G75*
G02*
X65565500Y-118329000I-139500J0D01*
G01*
X64234500Y-118329000D01*
G75*
G02*
X64095000Y-118189500I0J139500D01*
G01*
G37*
G36*
G01*
X64095000Y-118989500D02*
X64095000Y-118710500D01*
G75*
G02*
X64234500Y-118571000I139500J0D01*
G01*
X65565500Y-118571000D01*
G75*
G02*
X65705000Y-118710500I0J-139500D01*
G01*
X65705000Y-118989500D01*
G75*
G02*
X65565500Y-119129000I-139500J0D01*
G01*
X64234500Y-119129000D01*
G75*
G02*
X64095000Y-118989500I0J139500D01*
G01*
G37*
G36*
G01*
X64095000Y-119789500D02*
X64095000Y-119510500D01*
G75*
G02*
X64234500Y-119371000I139500J0D01*
G01*
X65565500Y-119371000D01*
G75*
G02*
X65705000Y-119510500I0J-139500D01*
G01*
X65705000Y-119789500D01*
G75*
G02*
X65565500Y-119929000I-139500J0D01*
G01*
X64234500Y-119929000D01*
G75*
G02*
X64095000Y-119789500I0J139500D01*
G01*
G37*
G36*
G01*
X64095000Y-120589500D02*
X64095000Y-120310500D01*
G75*
G02*
X64234500Y-120171000I139500J0D01*
G01*
X65565500Y-120171000D01*
G75*
G02*
X65705000Y-120310500I0J-139500D01*
G01*
X65705000Y-120589500D01*
G75*
G02*
X65565500Y-120729000I-139500J0D01*
G01*
X64234500Y-120729000D01*
G75*
G02*
X64095000Y-120589500I0J139500D01*
G01*
G37*
G36*
G01*
X64095000Y-121389500D02*
X64095000Y-121110500D01*
G75*
G02*
X64234500Y-120971000I139500J0D01*
G01*
X65565500Y-120971000D01*
G75*
G02*
X65705000Y-121110500I0J-139500D01*
G01*
X65705000Y-121389500D01*
G75*
G02*
X65565500Y-121529000I-139500J0D01*
G01*
X64234500Y-121529000D01*
G75*
G02*
X64095000Y-121389500I0J139500D01*
G01*
G37*
G36*
G01*
X64095000Y-122189500D02*
X64095000Y-121910500D01*
G75*
G02*
X64234500Y-121771000I139500J0D01*
G01*
X65565500Y-121771000D01*
G75*
G02*
X65705000Y-121910500I0J-139500D01*
G01*
X65705000Y-122189500D01*
G75*
G02*
X65565500Y-122329000I-139500J0D01*
G01*
X64234500Y-122329000D01*
G75*
G02*
X64095000Y-122189500I0J139500D01*
G01*
G37*
G36*
G01*
X52595000Y-122189500D02*
X52595000Y-121910500D01*
G75*
G02*
X52734500Y-121771000I139500J0D01*
G01*
X54065500Y-121771000D01*
G75*
G02*
X54205000Y-121910500I0J-139500D01*
G01*
X54205000Y-122189500D01*
G75*
G02*
X54065500Y-122329000I-139500J0D01*
G01*
X52734500Y-122329000D01*
G75*
G02*
X52595000Y-122189500I0J139500D01*
G01*
G37*
G36*
G01*
X52595000Y-121389500D02*
X52595000Y-121110500D01*
G75*
G02*
X52734500Y-120971000I139500J0D01*
G01*
X54065500Y-120971000D01*
G75*
G02*
X54205000Y-121110500I0J-139500D01*
G01*
X54205000Y-121389500D01*
G75*
G02*
X54065500Y-121529000I-139500J0D01*
G01*
X52734500Y-121529000D01*
G75*
G02*
X52595000Y-121389500I0J139500D01*
G01*
G37*
G36*
G01*
X52595000Y-120589500D02*
X52595000Y-120310500D01*
G75*
G02*
X52734500Y-120171000I139500J0D01*
G01*
X54065500Y-120171000D01*
G75*
G02*
X54205000Y-120310500I0J-139500D01*
G01*
X54205000Y-120589500D01*
G75*
G02*
X54065500Y-120729000I-139500J0D01*
G01*
X52734500Y-120729000D01*
G75*
G02*
X52595000Y-120589500I0J139500D01*
G01*
G37*
G36*
G01*
X52595000Y-119789500D02*
X52595000Y-119510500D01*
G75*
G02*
X52734500Y-119371000I139500J0D01*
G01*
X54065500Y-119371000D01*
G75*
G02*
X54205000Y-119510500I0J-139500D01*
G01*
X54205000Y-119789500D01*
G75*
G02*
X54065500Y-119929000I-139500J0D01*
G01*
X52734500Y-119929000D01*
G75*
G02*
X52595000Y-119789500I0J139500D01*
G01*
G37*
G36*
G01*
X52595000Y-118989500D02*
X52595000Y-118710500D01*
G75*
G02*
X52734500Y-118571000I139500J0D01*
G01*
X54065500Y-118571000D01*
G75*
G02*
X54205000Y-118710500I0J-139500D01*
G01*
X54205000Y-118989500D01*
G75*
G02*
X54065500Y-119129000I-139500J0D01*
G01*
X52734500Y-119129000D01*
G75*
G02*
X52595000Y-118989500I0J139500D01*
G01*
G37*
G36*
G01*
X52595000Y-118189500D02*
X52595000Y-117910500D01*
G75*
G02*
X52734500Y-117771000I139500J0D01*
G01*
X54065500Y-117771000D01*
G75*
G02*
X54205000Y-117910500I0J-139500D01*
G01*
X54205000Y-118189500D01*
G75*
G02*
X54065500Y-118329000I-139500J0D01*
G01*
X52734500Y-118329000D01*
G75*
G02*
X52595000Y-118189500I0J139500D01*
G01*
G37*
G36*
G01*
X52595000Y-117389500D02*
X52595000Y-117110500D01*
G75*
G02*
X52734500Y-116971000I139500J0D01*
G01*
X54065500Y-116971000D01*
G75*
G02*
X54205000Y-117110500I0J-139500D01*
G01*
X54205000Y-117389500D01*
G75*
G02*
X54065500Y-117529000I-139500J0D01*
G01*
X52734500Y-117529000D01*
G75*
G02*
X52595000Y-117389500I0J139500D01*
G01*
G37*
G36*
G01*
X52595000Y-116589500D02*
X52595000Y-116310500D01*
G75*
G02*
X52734500Y-116171000I139500J0D01*
G01*
X54065500Y-116171000D01*
G75*
G02*
X54205000Y-116310500I0J-139500D01*
G01*
X54205000Y-116589500D01*
G75*
G02*
X54065500Y-116729000I-139500J0D01*
G01*
X52734500Y-116729000D01*
G75*
G02*
X52595000Y-116589500I0J139500D01*
G01*
G37*
G36*
G01*
X52595000Y-115789500D02*
X52595000Y-115510500D01*
G75*
G02*
X52734500Y-115371000I139500J0D01*
G01*
X54065500Y-115371000D01*
G75*
G02*
X54205000Y-115510500I0J-139500D01*
G01*
X54205000Y-115789500D01*
G75*
G02*
X54065500Y-115929000I-139500J0D01*
G01*
X52734500Y-115929000D01*
G75*
G02*
X52595000Y-115789500I0J139500D01*
G01*
G37*
G36*
G01*
X52595000Y-114989500D02*
X52595000Y-114710500D01*
G75*
G02*
X52734500Y-114571000I139500J0D01*
G01*
X54065500Y-114571000D01*
G75*
G02*
X54205000Y-114710500I0J-139500D01*
G01*
X54205000Y-114989500D01*
G75*
G02*
X54065500Y-115129000I-139500J0D01*
G01*
X52734500Y-115129000D01*
G75*
G02*
X52595000Y-114989500I0J139500D01*
G01*
G37*
G36*
G01*
X52595000Y-114189500D02*
X52595000Y-113910500D01*
G75*
G02*
X52734500Y-113771000I139500J0D01*
G01*
X54065500Y-113771000D01*
G75*
G02*
X54205000Y-113910500I0J-139500D01*
G01*
X54205000Y-114189500D01*
G75*
G02*
X54065500Y-114329000I-139500J0D01*
G01*
X52734500Y-114329000D01*
G75*
G02*
X52595000Y-114189500I0J139500D01*
G01*
G37*
G36*
G01*
X52595000Y-113389500D02*
X52595000Y-113110500D01*
G75*
G02*
X52734500Y-112971000I139500J0D01*
G01*
X54065500Y-112971000D01*
G75*
G02*
X54205000Y-113110500I0J-139500D01*
G01*
X54205000Y-113389500D01*
G75*
G02*
X54065500Y-113529000I-139500J0D01*
G01*
X52734500Y-113529000D01*
G75*
G02*
X52595000Y-113389500I0J139500D01*
G01*
G37*
G36*
G01*
X52595000Y-112589500D02*
X52595000Y-112310500D01*
G75*
G02*
X52734500Y-112171000I139500J0D01*
G01*
X54065500Y-112171000D01*
G75*
G02*
X54205000Y-112310500I0J-139500D01*
G01*
X54205000Y-112589500D01*
G75*
G02*
X54065500Y-112729000I-139500J0D01*
G01*
X52734500Y-112729000D01*
G75*
G02*
X52595000Y-112589500I0J139500D01*
G01*
G37*
G36*
G01*
X52595000Y-111789500D02*
X52595000Y-111510500D01*
G75*
G02*
X52734500Y-111371000I139500J0D01*
G01*
X54065500Y-111371000D01*
G75*
G02*
X54205000Y-111510500I0J-139500D01*
G01*
X54205000Y-111789500D01*
G75*
G02*
X54065500Y-111929000I-139500J0D01*
G01*
X52734500Y-111929000D01*
G75*
G02*
X52595000Y-111789500I0J139500D01*
G01*
G37*
G36*
G01*
X52595000Y-110989500D02*
X52595000Y-110710500D01*
G75*
G02*
X52734500Y-110571000I139500J0D01*
G01*
X54065500Y-110571000D01*
G75*
G02*
X54205000Y-110710500I0J-139500D01*
G01*
X54205000Y-110989500D01*
G75*
G02*
X54065500Y-111129000I-139500J0D01*
G01*
X52734500Y-111129000D01*
G75*
G02*
X52595000Y-110989500I0J139500D01*
G01*
G37*
G36*
G01*
X52595000Y-110189500D02*
X52595000Y-109910500D01*
G75*
G02*
X52734500Y-109771000I139500J0D01*
G01*
X54065500Y-109771000D01*
G75*
G02*
X54205000Y-109910500I0J-139500D01*
G01*
X54205000Y-110189500D01*
G75*
G02*
X54065500Y-110329000I-139500J0D01*
G01*
X52734500Y-110329000D01*
G75*
G02*
X52595000Y-110189500I0J139500D01*
G01*
G37*
G36*
G01*
X52595000Y-109389500D02*
X52595000Y-109110500D01*
G75*
G02*
X52734500Y-108971000I139500J0D01*
G01*
X54065500Y-108971000D01*
G75*
G02*
X54205000Y-109110500I0J-139500D01*
G01*
X54205000Y-109389500D01*
G75*
G02*
X54065500Y-109529000I-139500J0D01*
G01*
X52734500Y-109529000D01*
G75*
G02*
X52595000Y-109389500I0J139500D01*
G01*
G37*
G36*
G01*
X52595000Y-108589500D02*
X52595000Y-108310500D01*
G75*
G02*
X52734500Y-108171000I139500J0D01*
G01*
X54065500Y-108171000D01*
G75*
G02*
X54205000Y-108310500I0J-139500D01*
G01*
X54205000Y-108589500D01*
G75*
G02*
X54065500Y-108729000I-139500J0D01*
G01*
X52734500Y-108729000D01*
G75*
G02*
X52595000Y-108589500I0J139500D01*
G01*
G37*
G36*
G01*
X52595000Y-107789500D02*
X52595000Y-107510500D01*
G75*
G02*
X52734500Y-107371000I139500J0D01*
G01*
X54065500Y-107371000D01*
G75*
G02*
X54205000Y-107510500I0J-139500D01*
G01*
X54205000Y-107789500D01*
G75*
G02*
X54065500Y-107929000I-139500J0D01*
G01*
X52734500Y-107929000D01*
G75*
G02*
X52595000Y-107789500I0J139500D01*
G01*
G37*
G36*
G01*
X52595000Y-106989500D02*
X52595000Y-106710500D01*
G75*
G02*
X52734500Y-106571000I139500J0D01*
G01*
X54065500Y-106571000D01*
G75*
G02*
X54205000Y-106710500I0J-139500D01*
G01*
X54205000Y-106989500D01*
G75*
G02*
X54065500Y-107129000I-139500J0D01*
G01*
X52734500Y-107129000D01*
G75*
G02*
X52595000Y-106989500I0J139500D01*
G01*
G37*
G36*
G01*
X52595000Y-106189500D02*
X52595000Y-105910500D01*
G75*
G02*
X52734500Y-105771000I139500J0D01*
G01*
X54065500Y-105771000D01*
G75*
G02*
X54205000Y-105910500I0J-139500D01*
G01*
X54205000Y-106189500D01*
G75*
G02*
X54065500Y-106329000I-139500J0D01*
G01*
X52734500Y-106329000D01*
G75*
G02*
X52595000Y-106189500I0J139500D01*
G01*
G37*
G36*
G01*
X52595000Y-105389500D02*
X52595000Y-105110500D01*
G75*
G02*
X52734500Y-104971000I139500J0D01*
G01*
X54065500Y-104971000D01*
G75*
G02*
X54205000Y-105110500I0J-139500D01*
G01*
X54205000Y-105389500D01*
G75*
G02*
X54065500Y-105529000I-139500J0D01*
G01*
X52734500Y-105529000D01*
G75*
G02*
X52595000Y-105389500I0J139500D01*
G01*
G37*
G36*
G01*
X52595000Y-104589500D02*
X52595000Y-104310500D01*
G75*
G02*
X52734500Y-104171000I139500J0D01*
G01*
X54065500Y-104171000D01*
G75*
G02*
X54205000Y-104310500I0J-139500D01*
G01*
X54205000Y-104589500D01*
G75*
G02*
X54065500Y-104729000I-139500J0D01*
G01*
X52734500Y-104729000D01*
G75*
G02*
X52595000Y-104589500I0J139500D01*
G01*
G37*
G36*
G01*
X52595000Y-103789500D02*
X52595000Y-103510500D01*
G75*
G02*
X52734500Y-103371000I139500J0D01*
G01*
X54065500Y-103371000D01*
G75*
G02*
X54205000Y-103510500I0J-139500D01*
G01*
X54205000Y-103789500D01*
G75*
G02*
X54065500Y-103929000I-139500J0D01*
G01*
X52734500Y-103929000D01*
G75*
G02*
X52595000Y-103789500I0J139500D01*
G01*
G37*
G36*
G01*
X52595000Y-102989500D02*
X52595000Y-102710500D01*
G75*
G02*
X52734500Y-102571000I139500J0D01*
G01*
X54065500Y-102571000D01*
G75*
G02*
X54205000Y-102710500I0J-139500D01*
G01*
X54205000Y-102989500D01*
G75*
G02*
X54065500Y-103129000I-139500J0D01*
G01*
X52734500Y-103129000D01*
G75*
G02*
X52595000Y-102989500I0J139500D01*
G01*
G37*
G36*
G01*
X52595000Y-102189500D02*
X52595000Y-101910500D01*
G75*
G02*
X52734500Y-101771000I139500J0D01*
G01*
X54065500Y-101771000D01*
G75*
G02*
X54205000Y-101910500I0J-139500D01*
G01*
X54205000Y-102189500D01*
G75*
G02*
X54065500Y-102329000I-139500J0D01*
G01*
X52734500Y-102329000D01*
G75*
G02*
X52595000Y-102189500I0J139500D01*
G01*
G37*
G36*
G01*
X52595000Y-101389500D02*
X52595000Y-101110500D01*
G75*
G02*
X52734500Y-100971000I139500J0D01*
G01*
X54065500Y-100971000D01*
G75*
G02*
X54205000Y-101110500I0J-139500D01*
G01*
X54205000Y-101389500D01*
G75*
G02*
X54065500Y-101529000I-139500J0D01*
G01*
X52734500Y-101529000D01*
G75*
G02*
X52595000Y-101389500I0J139500D01*
G01*
G37*
G36*
G01*
X69725000Y-120762500D02*
X69725000Y-121337500D01*
G75*
G02*
X69487500Y-121575000I-237500J0D01*
G01*
X69012500Y-121575000D01*
G75*
G02*
X68775000Y-121337500I0J237500D01*
G01*
X68775000Y-120762500D01*
G75*
G02*
X69012500Y-120525000I237500J0D01*
G01*
X69487500Y-120525000D01*
G75*
G02*
X69725000Y-120762500I0J-237500D01*
G01*
G37*
G36*
G01*
X71225000Y-120762500D02*
X71225000Y-121337500D01*
G75*
G02*
X70987500Y-121575000I-237500J0D01*
G01*
X70512500Y-121575000D01*
G75*
G02*
X70275000Y-121337500I0J237500D01*
G01*
X70275000Y-120762500D01*
G75*
G02*
X70512500Y-120525000I237500J0D01*
G01*
X70987500Y-120525000D01*
G75*
G02*
X71225000Y-120762500I0J-237500D01*
G01*
G37*
G36*
G01*
X69787500Y-110125000D02*
X69212500Y-110125000D01*
G75*
G02*
X68975000Y-109887500I0J237500D01*
G01*
X68975000Y-109412500D01*
G75*
G02*
X69212500Y-109175000I237500J0D01*
G01*
X69787500Y-109175000D01*
G75*
G02*
X70025000Y-109412500I0J-237500D01*
G01*
X70025000Y-109887500D01*
G75*
G02*
X69787500Y-110125000I-237500J0D01*
G01*
G37*
G36*
G01*
X69787500Y-111625000D02*
X69212500Y-111625000D01*
G75*
G02*
X68975000Y-111387500I0J237500D01*
G01*
X68975000Y-110912500D01*
G75*
G02*
X69212500Y-110675000I237500J0D01*
G01*
X69787500Y-110675000D01*
G75*
G02*
X70025000Y-110912500I0J-237500D01*
G01*
X70025000Y-111387500D01*
G75*
G02*
X69787500Y-111625000I-237500J0D01*
G01*
G37*
G36*
G01*
X93824000Y-114463000D02*
X93824000Y-114637000D01*
G75*
G02*
X93737000Y-114724000I-87000J0D01*
G01*
X92388000Y-114724000D01*
G75*
G02*
X92301000Y-114637000I0J87000D01*
G01*
X92301000Y-114463000D01*
G75*
G02*
X92388000Y-114376000I87000J0D01*
G01*
X93737000Y-114376000D01*
G75*
G02*
X93824000Y-114463000I0J-87000D01*
G01*
G37*
G36*
G01*
X93824000Y-113963000D02*
X93824000Y-114137000D01*
G75*
G02*
X93737000Y-114224000I-87000J0D01*
G01*
X92388000Y-114224000D01*
G75*
G02*
X92301000Y-114137000I0J87000D01*
G01*
X92301000Y-113963000D01*
G75*
G02*
X92388000Y-113876000I87000J0D01*
G01*
X93737000Y-113876000D01*
G75*
G02*
X93824000Y-113963000I0J-87000D01*
G01*
G37*
G36*
G01*
X93824000Y-113463000D02*
X93824000Y-113637000D01*
G75*
G02*
X93737000Y-113724000I-87000J0D01*
G01*
X92388000Y-113724000D01*
G75*
G02*
X92301000Y-113637000I0J87000D01*
G01*
X92301000Y-113463000D01*
G75*
G02*
X92388000Y-113376000I87000J0D01*
G01*
X93737000Y-113376000D01*
G75*
G02*
X93824000Y-113463000I0J-87000D01*
G01*
G37*
G36*
G01*
X93824000Y-112963000D02*
X93824000Y-113137000D01*
G75*
G02*
X93737000Y-113224000I-87000J0D01*
G01*
X92388000Y-113224000D01*
G75*
G02*
X92301000Y-113137000I0J87000D01*
G01*
X92301000Y-112963000D01*
G75*
G02*
X92388000Y-112876000I87000J0D01*
G01*
X93737000Y-112876000D01*
G75*
G02*
X93824000Y-112963000I0J-87000D01*
G01*
G37*
G36*
G01*
X93824000Y-112463000D02*
X93824000Y-112637000D01*
G75*
G02*
X93737000Y-112724000I-87000J0D01*
G01*
X92388000Y-112724000D01*
G75*
G02*
X92301000Y-112637000I0J87000D01*
G01*
X92301000Y-112463000D01*
G75*
G02*
X92388000Y-112376000I87000J0D01*
G01*
X93737000Y-112376000D01*
G75*
G02*
X93824000Y-112463000I0J-87000D01*
G01*
G37*
G36*
G01*
X93824000Y-111963000D02*
X93824000Y-112137000D01*
G75*
G02*
X93737000Y-112224000I-87000J0D01*
G01*
X92388000Y-112224000D01*
G75*
G02*
X92301000Y-112137000I0J87000D01*
G01*
X92301000Y-111963000D01*
G75*
G02*
X92388000Y-111876000I87000J0D01*
G01*
X93737000Y-111876000D01*
G75*
G02*
X93824000Y-111963000I0J-87000D01*
G01*
G37*
G36*
G01*
X93824000Y-111463000D02*
X93824000Y-111637000D01*
G75*
G02*
X93737000Y-111724000I-87000J0D01*
G01*
X92388000Y-111724000D01*
G75*
G02*
X92301000Y-111637000I0J87000D01*
G01*
X92301000Y-111463000D01*
G75*
G02*
X92388000Y-111376000I87000J0D01*
G01*
X93737000Y-111376000D01*
G75*
G02*
X93824000Y-111463000I0J-87000D01*
G01*
G37*
G36*
G01*
X93824000Y-110963000D02*
X93824000Y-111137000D01*
G75*
G02*
X93737000Y-111224000I-87000J0D01*
G01*
X92388000Y-111224000D01*
G75*
G02*
X92301000Y-111137000I0J87000D01*
G01*
X92301000Y-110963000D01*
G75*
G02*
X92388000Y-110876000I87000J0D01*
G01*
X93737000Y-110876000D01*
G75*
G02*
X93824000Y-110963000I0J-87000D01*
G01*
G37*
G36*
G01*
X93824000Y-110463000D02*
X93824000Y-110637000D01*
G75*
G02*
X93737000Y-110724000I-87000J0D01*
G01*
X92388000Y-110724000D01*
G75*
G02*
X92301000Y-110637000I0J87000D01*
G01*
X92301000Y-110463000D01*
G75*
G02*
X92388000Y-110376000I87000J0D01*
G01*
X93737000Y-110376000D01*
G75*
G02*
X93824000Y-110463000I0J-87000D01*
G01*
G37*
G36*
G01*
X93824000Y-109963000D02*
X93824000Y-110137000D01*
G75*
G02*
X93737000Y-110224000I-87000J0D01*
G01*
X92388000Y-110224000D01*
G75*
G02*
X92301000Y-110137000I0J87000D01*
G01*
X92301000Y-109963000D01*
G75*
G02*
X92388000Y-109876000I87000J0D01*
G01*
X93737000Y-109876000D01*
G75*
G02*
X93824000Y-109963000I0J-87000D01*
G01*
G37*
G36*
G01*
X93824000Y-109463000D02*
X93824000Y-109637000D01*
G75*
G02*
X93737000Y-109724000I-87000J0D01*
G01*
X92388000Y-109724000D01*
G75*
G02*
X92301000Y-109637000I0J87000D01*
G01*
X92301000Y-109463000D01*
G75*
G02*
X92388000Y-109376000I87000J0D01*
G01*
X93737000Y-109376000D01*
G75*
G02*
X93824000Y-109463000I0J-87000D01*
G01*
G37*
G36*
G01*
X93824000Y-108963000D02*
X93824000Y-109137000D01*
G75*
G02*
X93737000Y-109224000I-87000J0D01*
G01*
X92388000Y-109224000D01*
G75*
G02*
X92301000Y-109137000I0J87000D01*
G01*
X92301000Y-108963000D01*
G75*
G02*
X92388000Y-108876000I87000J0D01*
G01*
X93737000Y-108876000D01*
G75*
G02*
X93824000Y-108963000I0J-87000D01*
G01*
G37*
G36*
G01*
X93824000Y-108463000D02*
X93824000Y-108637000D01*
G75*
G02*
X93737000Y-108724000I-87000J0D01*
G01*
X92388000Y-108724000D01*
G75*
G02*
X92301000Y-108637000I0J87000D01*
G01*
X92301000Y-108463000D01*
G75*
G02*
X92388000Y-108376000I87000J0D01*
G01*
X93737000Y-108376000D01*
G75*
G02*
X93824000Y-108463000I0J-87000D01*
G01*
G37*
G36*
G01*
X93824000Y-107963000D02*
X93824000Y-108137000D01*
G75*
G02*
X93737000Y-108224000I-87000J0D01*
G01*
X92388000Y-108224000D01*
G75*
G02*
X92301000Y-108137000I0J87000D01*
G01*
X92301000Y-107963000D01*
G75*
G02*
X92388000Y-107876000I87000J0D01*
G01*
X93737000Y-107876000D01*
G75*
G02*
X93824000Y-107963000I0J-87000D01*
G01*
G37*
G36*
G01*
X93824000Y-107463000D02*
X93824000Y-107637000D01*
G75*
G02*
X93737000Y-107724000I-87000J0D01*
G01*
X92388000Y-107724000D01*
G75*
G02*
X92301000Y-107637000I0J87000D01*
G01*
X92301000Y-107463000D01*
G75*
G02*
X92388000Y-107376000I87000J0D01*
G01*
X93737000Y-107376000D01*
G75*
G02*
X93824000Y-107463000I0J-87000D01*
G01*
G37*
G36*
G01*
X93824000Y-106963000D02*
X93824000Y-107137000D01*
G75*
G02*
X93737000Y-107224000I-87000J0D01*
G01*
X92388000Y-107224000D01*
G75*
G02*
X92301000Y-107137000I0J87000D01*
G01*
X92301000Y-106963000D01*
G75*
G02*
X92388000Y-106876000I87000J0D01*
G01*
X93737000Y-106876000D01*
G75*
G02*
X93824000Y-106963000I0J-87000D01*
G01*
G37*
G36*
G01*
X93824000Y-106463000D02*
X93824000Y-106637000D01*
G75*
G02*
X93737000Y-106724000I-87000J0D01*
G01*
X92388000Y-106724000D01*
G75*
G02*
X92301000Y-106637000I0J87000D01*
G01*
X92301000Y-106463000D01*
G75*
G02*
X92388000Y-106376000I87000J0D01*
G01*
X93737000Y-106376000D01*
G75*
G02*
X93824000Y-106463000I0J-87000D01*
G01*
G37*
G36*
G01*
X93824000Y-105963000D02*
X93824000Y-106137000D01*
G75*
G02*
X93737000Y-106224000I-87000J0D01*
G01*
X92388000Y-106224000D01*
G75*
G02*
X92301000Y-106137000I0J87000D01*
G01*
X92301000Y-105963000D01*
G75*
G02*
X92388000Y-105876000I87000J0D01*
G01*
X93737000Y-105876000D01*
G75*
G02*
X93824000Y-105963000I0J-87000D01*
G01*
G37*
G36*
G01*
X93824000Y-105463000D02*
X93824000Y-105637000D01*
G75*
G02*
X93737000Y-105724000I-87000J0D01*
G01*
X92388000Y-105724000D01*
G75*
G02*
X92301000Y-105637000I0J87000D01*
G01*
X92301000Y-105463000D01*
G75*
G02*
X92388000Y-105376000I87000J0D01*
G01*
X93737000Y-105376000D01*
G75*
G02*
X93824000Y-105463000I0J-87000D01*
G01*
G37*
G36*
G01*
X93824000Y-104963000D02*
X93824000Y-105137000D01*
G75*
G02*
X93737000Y-105224000I-87000J0D01*
G01*
X92388000Y-105224000D01*
G75*
G02*
X92301000Y-105137000I0J87000D01*
G01*
X92301000Y-104963000D01*
G75*
G02*
X92388000Y-104876000I87000J0D01*
G01*
X93737000Y-104876000D01*
G75*
G02*
X93824000Y-104963000I0J-87000D01*
G01*
G37*
G36*
G01*
X93824000Y-104463000D02*
X93824000Y-104637000D01*
G75*
G02*
X93737000Y-104724000I-87000J0D01*
G01*
X92388000Y-104724000D01*
G75*
G02*
X92301000Y-104637000I0J87000D01*
G01*
X92301000Y-104463000D01*
G75*
G02*
X92388000Y-104376000I87000J0D01*
G01*
X93737000Y-104376000D01*
G75*
G02*
X93824000Y-104463000I0J-87000D01*
G01*
G37*
G36*
G01*
X93824000Y-103963000D02*
X93824000Y-104137000D01*
G75*
G02*
X93737000Y-104224000I-87000J0D01*
G01*
X92388000Y-104224000D01*
G75*
G02*
X92301000Y-104137000I0J87000D01*
G01*
X92301000Y-103963000D01*
G75*
G02*
X92388000Y-103876000I87000J0D01*
G01*
X93737000Y-103876000D01*
G75*
G02*
X93824000Y-103963000I0J-87000D01*
G01*
G37*
G36*
G01*
X93824000Y-103463000D02*
X93824000Y-103637000D01*
G75*
G02*
X93737000Y-103724000I-87000J0D01*
G01*
X92388000Y-103724000D01*
G75*
G02*
X92301000Y-103637000I0J87000D01*
G01*
X92301000Y-103463000D01*
G75*
G02*
X92388000Y-103376000I87000J0D01*
G01*
X93737000Y-103376000D01*
G75*
G02*
X93824000Y-103463000I0J-87000D01*
G01*
G37*
G36*
G01*
X93824000Y-102963000D02*
X93824000Y-103137000D01*
G75*
G02*
X93737000Y-103224000I-87000J0D01*
G01*
X92388000Y-103224000D01*
G75*
G02*
X92301000Y-103137000I0J87000D01*
G01*
X92301000Y-102963000D01*
G75*
G02*
X92388000Y-102876000I87000J0D01*
G01*
X93737000Y-102876000D01*
G75*
G02*
X93824000Y-102963000I0J-87000D01*
G01*
G37*
G36*
G01*
X93824000Y-102463000D02*
X93824000Y-102637000D01*
G75*
G02*
X93737000Y-102724000I-87000J0D01*
G01*
X92388000Y-102724000D01*
G75*
G02*
X92301000Y-102637000I0J87000D01*
G01*
X92301000Y-102463000D01*
G75*
G02*
X92388000Y-102376000I87000J0D01*
G01*
X93737000Y-102376000D01*
G75*
G02*
X93824000Y-102463000I0J-87000D01*
G01*
G37*
G36*
G01*
X91574000Y-100213000D02*
X91574000Y-101562000D01*
G75*
G02*
X91487000Y-101649000I-87000J0D01*
G01*
X91313000Y-101649000D01*
G75*
G02*
X91226000Y-101562000I0J87000D01*
G01*
X91226000Y-100213000D01*
G75*
G02*
X91313000Y-100126000I87000J0D01*
G01*
X91487000Y-100126000D01*
G75*
G02*
X91574000Y-100213000I0J-87000D01*
G01*
G37*
G36*
G01*
X91074000Y-100213000D02*
X91074000Y-101562000D01*
G75*
G02*
X90987000Y-101649000I-87000J0D01*
G01*
X90813000Y-101649000D01*
G75*
G02*
X90726000Y-101562000I0J87000D01*
G01*
X90726000Y-100213000D01*
G75*
G02*
X90813000Y-100126000I87000J0D01*
G01*
X90987000Y-100126000D01*
G75*
G02*
X91074000Y-100213000I0J-87000D01*
G01*
G37*
G36*
G01*
X90574000Y-100213000D02*
X90574000Y-101562000D01*
G75*
G02*
X90487000Y-101649000I-87000J0D01*
G01*
X90313000Y-101649000D01*
G75*
G02*
X90226000Y-101562000I0J87000D01*
G01*
X90226000Y-100213000D01*
G75*
G02*
X90313000Y-100126000I87000J0D01*
G01*
X90487000Y-100126000D01*
G75*
G02*
X90574000Y-100213000I0J-87000D01*
G01*
G37*
G36*
G01*
X90074000Y-100213000D02*
X90074000Y-101562000D01*
G75*
G02*
X89987000Y-101649000I-87000J0D01*
G01*
X89813000Y-101649000D01*
G75*
G02*
X89726000Y-101562000I0J87000D01*
G01*
X89726000Y-100213000D01*
G75*
G02*
X89813000Y-100126000I87000J0D01*
G01*
X89987000Y-100126000D01*
G75*
G02*
X90074000Y-100213000I0J-87000D01*
G01*
G37*
G36*
G01*
X89574000Y-100213000D02*
X89574000Y-101562000D01*
G75*
G02*
X89487000Y-101649000I-87000J0D01*
G01*
X89313000Y-101649000D01*
G75*
G02*
X89226000Y-101562000I0J87000D01*
G01*
X89226000Y-100213000D01*
G75*
G02*
X89313000Y-100126000I87000J0D01*
G01*
X89487000Y-100126000D01*
G75*
G02*
X89574000Y-100213000I0J-87000D01*
G01*
G37*
G36*
G01*
X89074000Y-100213000D02*
X89074000Y-101562000D01*
G75*
G02*
X88987000Y-101649000I-87000J0D01*
G01*
X88813000Y-101649000D01*
G75*
G02*
X88726000Y-101562000I0J87000D01*
G01*
X88726000Y-100213000D01*
G75*
G02*
X88813000Y-100126000I87000J0D01*
G01*
X88987000Y-100126000D01*
G75*
G02*
X89074000Y-100213000I0J-87000D01*
G01*
G37*
G36*
G01*
X88574000Y-100213000D02*
X88574000Y-101562000D01*
G75*
G02*
X88487000Y-101649000I-87000J0D01*
G01*
X88313000Y-101649000D01*
G75*
G02*
X88226000Y-101562000I0J87000D01*
G01*
X88226000Y-100213000D01*
G75*
G02*
X88313000Y-100126000I87000J0D01*
G01*
X88487000Y-100126000D01*
G75*
G02*
X88574000Y-100213000I0J-87000D01*
G01*
G37*
G36*
G01*
X88074000Y-100213000D02*
X88074000Y-101562000D01*
G75*
G02*
X87987000Y-101649000I-87000J0D01*
G01*
X87813000Y-101649000D01*
G75*
G02*
X87726000Y-101562000I0J87000D01*
G01*
X87726000Y-100213000D01*
G75*
G02*
X87813000Y-100126000I87000J0D01*
G01*
X87987000Y-100126000D01*
G75*
G02*
X88074000Y-100213000I0J-87000D01*
G01*
G37*
G36*
G01*
X87574000Y-100213000D02*
X87574000Y-101562000D01*
G75*
G02*
X87487000Y-101649000I-87000J0D01*
G01*
X87313000Y-101649000D01*
G75*
G02*
X87226000Y-101562000I0J87000D01*
G01*
X87226000Y-100213000D01*
G75*
G02*
X87313000Y-100126000I87000J0D01*
G01*
X87487000Y-100126000D01*
G75*
G02*
X87574000Y-100213000I0J-87000D01*
G01*
G37*
G36*
G01*
X87074000Y-100213000D02*
X87074000Y-101562000D01*
G75*
G02*
X86987000Y-101649000I-87000J0D01*
G01*
X86813000Y-101649000D01*
G75*
G02*
X86726000Y-101562000I0J87000D01*
G01*
X86726000Y-100213000D01*
G75*
G02*
X86813000Y-100126000I87000J0D01*
G01*
X86987000Y-100126000D01*
G75*
G02*
X87074000Y-100213000I0J-87000D01*
G01*
G37*
G36*
G01*
X86574000Y-100213000D02*
X86574000Y-101562000D01*
G75*
G02*
X86487000Y-101649000I-87000J0D01*
G01*
X86313000Y-101649000D01*
G75*
G02*
X86226000Y-101562000I0J87000D01*
G01*
X86226000Y-100213000D01*
G75*
G02*
X86313000Y-100126000I87000J0D01*
G01*
X86487000Y-100126000D01*
G75*
G02*
X86574000Y-100213000I0J-87000D01*
G01*
G37*
G36*
G01*
X86074000Y-100213000D02*
X86074000Y-101562000D01*
G75*
G02*
X85987000Y-101649000I-87000J0D01*
G01*
X85813000Y-101649000D01*
G75*
G02*
X85726000Y-101562000I0J87000D01*
G01*
X85726000Y-100213000D01*
G75*
G02*
X85813000Y-100126000I87000J0D01*
G01*
X85987000Y-100126000D01*
G75*
G02*
X86074000Y-100213000I0J-87000D01*
G01*
G37*
G36*
G01*
X85574000Y-100213000D02*
X85574000Y-101562000D01*
G75*
G02*
X85487000Y-101649000I-87000J0D01*
G01*
X85313000Y-101649000D01*
G75*
G02*
X85226000Y-101562000I0J87000D01*
G01*
X85226000Y-100213000D01*
G75*
G02*
X85313000Y-100126000I87000J0D01*
G01*
X85487000Y-100126000D01*
G75*
G02*
X85574000Y-100213000I0J-87000D01*
G01*
G37*
G36*
G01*
X85074000Y-100213000D02*
X85074000Y-101562000D01*
G75*
G02*
X84987000Y-101649000I-87000J0D01*
G01*
X84813000Y-101649000D01*
G75*
G02*
X84726000Y-101562000I0J87000D01*
G01*
X84726000Y-100213000D01*
G75*
G02*
X84813000Y-100126000I87000J0D01*
G01*
X84987000Y-100126000D01*
G75*
G02*
X85074000Y-100213000I0J-87000D01*
G01*
G37*
G36*
G01*
X84574000Y-100213000D02*
X84574000Y-101562000D01*
G75*
G02*
X84487000Y-101649000I-87000J0D01*
G01*
X84313000Y-101649000D01*
G75*
G02*
X84226000Y-101562000I0J87000D01*
G01*
X84226000Y-100213000D01*
G75*
G02*
X84313000Y-100126000I87000J0D01*
G01*
X84487000Y-100126000D01*
G75*
G02*
X84574000Y-100213000I0J-87000D01*
G01*
G37*
G36*
G01*
X84074000Y-100213000D02*
X84074000Y-101562000D01*
G75*
G02*
X83987000Y-101649000I-87000J0D01*
G01*
X83813000Y-101649000D01*
G75*
G02*
X83726000Y-101562000I0J87000D01*
G01*
X83726000Y-100213000D01*
G75*
G02*
X83813000Y-100126000I87000J0D01*
G01*
X83987000Y-100126000D01*
G75*
G02*
X84074000Y-100213000I0J-87000D01*
G01*
G37*
G36*
G01*
X83574000Y-100213000D02*
X83574000Y-101562000D01*
G75*
G02*
X83487000Y-101649000I-87000J0D01*
G01*
X83313000Y-101649000D01*
G75*
G02*
X83226000Y-101562000I0J87000D01*
G01*
X83226000Y-100213000D01*
G75*
G02*
X83313000Y-100126000I87000J0D01*
G01*
X83487000Y-100126000D01*
G75*
G02*
X83574000Y-100213000I0J-87000D01*
G01*
G37*
G36*
G01*
X83074000Y-100213000D02*
X83074000Y-101562000D01*
G75*
G02*
X82987000Y-101649000I-87000J0D01*
G01*
X82813000Y-101649000D01*
G75*
G02*
X82726000Y-101562000I0J87000D01*
G01*
X82726000Y-100213000D01*
G75*
G02*
X82813000Y-100126000I87000J0D01*
G01*
X82987000Y-100126000D01*
G75*
G02*
X83074000Y-100213000I0J-87000D01*
G01*
G37*
G36*
G01*
X82574000Y-100213000D02*
X82574000Y-101562000D01*
G75*
G02*
X82487000Y-101649000I-87000J0D01*
G01*
X82313000Y-101649000D01*
G75*
G02*
X82226000Y-101562000I0J87000D01*
G01*
X82226000Y-100213000D01*
G75*
G02*
X82313000Y-100126000I87000J0D01*
G01*
X82487000Y-100126000D01*
G75*
G02*
X82574000Y-100213000I0J-87000D01*
G01*
G37*
G36*
G01*
X82074000Y-100213000D02*
X82074000Y-101562000D01*
G75*
G02*
X81987000Y-101649000I-87000J0D01*
G01*
X81813000Y-101649000D01*
G75*
G02*
X81726000Y-101562000I0J87000D01*
G01*
X81726000Y-100213000D01*
G75*
G02*
X81813000Y-100126000I87000J0D01*
G01*
X81987000Y-100126000D01*
G75*
G02*
X82074000Y-100213000I0J-87000D01*
G01*
G37*
G36*
G01*
X81574000Y-100213000D02*
X81574000Y-101562000D01*
G75*
G02*
X81487000Y-101649000I-87000J0D01*
G01*
X81313000Y-101649000D01*
G75*
G02*
X81226000Y-101562000I0J87000D01*
G01*
X81226000Y-100213000D01*
G75*
G02*
X81313000Y-100126000I87000J0D01*
G01*
X81487000Y-100126000D01*
G75*
G02*
X81574000Y-100213000I0J-87000D01*
G01*
G37*
G36*
G01*
X81074000Y-100213000D02*
X81074000Y-101562000D01*
G75*
G02*
X80987000Y-101649000I-87000J0D01*
G01*
X80813000Y-101649000D01*
G75*
G02*
X80726000Y-101562000I0J87000D01*
G01*
X80726000Y-100213000D01*
G75*
G02*
X80813000Y-100126000I87000J0D01*
G01*
X80987000Y-100126000D01*
G75*
G02*
X81074000Y-100213000I0J-87000D01*
G01*
G37*
G36*
G01*
X80574000Y-100213000D02*
X80574000Y-101562000D01*
G75*
G02*
X80487000Y-101649000I-87000J0D01*
G01*
X80313000Y-101649000D01*
G75*
G02*
X80226000Y-101562000I0J87000D01*
G01*
X80226000Y-100213000D01*
G75*
G02*
X80313000Y-100126000I87000J0D01*
G01*
X80487000Y-100126000D01*
G75*
G02*
X80574000Y-100213000I0J-87000D01*
G01*
G37*
G36*
G01*
X80074000Y-100213000D02*
X80074000Y-101562000D01*
G75*
G02*
X79987000Y-101649000I-87000J0D01*
G01*
X79813000Y-101649000D01*
G75*
G02*
X79726000Y-101562000I0J87000D01*
G01*
X79726000Y-100213000D01*
G75*
G02*
X79813000Y-100126000I87000J0D01*
G01*
X79987000Y-100126000D01*
G75*
G02*
X80074000Y-100213000I0J-87000D01*
G01*
G37*
G36*
G01*
X79574000Y-100213000D02*
X79574000Y-101562000D01*
G75*
G02*
X79487000Y-101649000I-87000J0D01*
G01*
X79313000Y-101649000D01*
G75*
G02*
X79226000Y-101562000I0J87000D01*
G01*
X79226000Y-100213000D01*
G75*
G02*
X79313000Y-100126000I87000J0D01*
G01*
X79487000Y-100126000D01*
G75*
G02*
X79574000Y-100213000I0J-87000D01*
G01*
G37*
G36*
G01*
X78499000Y-102463000D02*
X78499000Y-102637000D01*
G75*
G02*
X78412000Y-102724000I-87000J0D01*
G01*
X77063000Y-102724000D01*
G75*
G02*
X76976000Y-102637000I0J87000D01*
G01*
X76976000Y-102463000D01*
G75*
G02*
X77063000Y-102376000I87000J0D01*
G01*
X78412000Y-102376000D01*
G75*
G02*
X78499000Y-102463000I0J-87000D01*
G01*
G37*
G36*
G01*
X78499000Y-102963000D02*
X78499000Y-103137000D01*
G75*
G02*
X78412000Y-103224000I-87000J0D01*
G01*
X77063000Y-103224000D01*
G75*
G02*
X76976000Y-103137000I0J87000D01*
G01*
X76976000Y-102963000D01*
G75*
G02*
X77063000Y-102876000I87000J0D01*
G01*
X78412000Y-102876000D01*
G75*
G02*
X78499000Y-102963000I0J-87000D01*
G01*
G37*
G36*
G01*
X78499000Y-103463000D02*
X78499000Y-103637000D01*
G75*
G02*
X78412000Y-103724000I-87000J0D01*
G01*
X77063000Y-103724000D01*
G75*
G02*
X76976000Y-103637000I0J87000D01*
G01*
X76976000Y-103463000D01*
G75*
G02*
X77063000Y-103376000I87000J0D01*
G01*
X78412000Y-103376000D01*
G75*
G02*
X78499000Y-103463000I0J-87000D01*
G01*
G37*
G36*
G01*
X78499000Y-103963000D02*
X78499000Y-104137000D01*
G75*
G02*
X78412000Y-104224000I-87000J0D01*
G01*
X77063000Y-104224000D01*
G75*
G02*
X76976000Y-104137000I0J87000D01*
G01*
X76976000Y-103963000D01*
G75*
G02*
X77063000Y-103876000I87000J0D01*
G01*
X78412000Y-103876000D01*
G75*
G02*
X78499000Y-103963000I0J-87000D01*
G01*
G37*
G36*
G01*
X78499000Y-104463000D02*
X78499000Y-104637000D01*
G75*
G02*
X78412000Y-104724000I-87000J0D01*
G01*
X77063000Y-104724000D01*
G75*
G02*
X76976000Y-104637000I0J87000D01*
G01*
X76976000Y-104463000D01*
G75*
G02*
X77063000Y-104376000I87000J0D01*
G01*
X78412000Y-104376000D01*
G75*
G02*
X78499000Y-104463000I0J-87000D01*
G01*
G37*
G36*
G01*
X78499000Y-104963000D02*
X78499000Y-105137000D01*
G75*
G02*
X78412000Y-105224000I-87000J0D01*
G01*
X77063000Y-105224000D01*
G75*
G02*
X76976000Y-105137000I0J87000D01*
G01*
X76976000Y-104963000D01*
G75*
G02*
X77063000Y-104876000I87000J0D01*
G01*
X78412000Y-104876000D01*
G75*
G02*
X78499000Y-104963000I0J-87000D01*
G01*
G37*
G36*
G01*
X78499000Y-105463000D02*
X78499000Y-105637000D01*
G75*
G02*
X78412000Y-105724000I-87000J0D01*
G01*
X77063000Y-105724000D01*
G75*
G02*
X76976000Y-105637000I0J87000D01*
G01*
X76976000Y-105463000D01*
G75*
G02*
X77063000Y-105376000I87000J0D01*
G01*
X78412000Y-105376000D01*
G75*
G02*
X78499000Y-105463000I0J-87000D01*
G01*
G37*
G36*
G01*
X78499000Y-105963000D02*
X78499000Y-106137000D01*
G75*
G02*
X78412000Y-106224000I-87000J0D01*
G01*
X77063000Y-106224000D01*
G75*
G02*
X76976000Y-106137000I0J87000D01*
G01*
X76976000Y-105963000D01*
G75*
G02*
X77063000Y-105876000I87000J0D01*
G01*
X78412000Y-105876000D01*
G75*
G02*
X78499000Y-105963000I0J-87000D01*
G01*
G37*
G36*
G01*
X78499000Y-106463000D02*
X78499000Y-106637000D01*
G75*
G02*
X78412000Y-106724000I-87000J0D01*
G01*
X77063000Y-106724000D01*
G75*
G02*
X76976000Y-106637000I0J87000D01*
G01*
X76976000Y-106463000D01*
G75*
G02*
X77063000Y-106376000I87000J0D01*
G01*
X78412000Y-106376000D01*
G75*
G02*
X78499000Y-106463000I0J-87000D01*
G01*
G37*
G36*
G01*
X78499000Y-106963000D02*
X78499000Y-107137000D01*
G75*
G02*
X78412000Y-107224000I-87000J0D01*
G01*
X77063000Y-107224000D01*
G75*
G02*
X76976000Y-107137000I0J87000D01*
G01*
X76976000Y-106963000D01*
G75*
G02*
X77063000Y-106876000I87000J0D01*
G01*
X78412000Y-106876000D01*
G75*
G02*
X78499000Y-106963000I0J-87000D01*
G01*
G37*
G36*
G01*
X78499000Y-107463000D02*
X78499000Y-107637000D01*
G75*
G02*
X78412000Y-107724000I-87000J0D01*
G01*
X77063000Y-107724000D01*
G75*
G02*
X76976000Y-107637000I0J87000D01*
G01*
X76976000Y-107463000D01*
G75*
G02*
X77063000Y-107376000I87000J0D01*
G01*
X78412000Y-107376000D01*
G75*
G02*
X78499000Y-107463000I0J-87000D01*
G01*
G37*
G36*
G01*
X78499000Y-107963000D02*
X78499000Y-108137000D01*
G75*
G02*
X78412000Y-108224000I-87000J0D01*
G01*
X77063000Y-108224000D01*
G75*
G02*
X76976000Y-108137000I0J87000D01*
G01*
X76976000Y-107963000D01*
G75*
G02*
X77063000Y-107876000I87000J0D01*
G01*
X78412000Y-107876000D01*
G75*
G02*
X78499000Y-107963000I0J-87000D01*
G01*
G37*
G36*
G01*
X78499000Y-108463000D02*
X78499000Y-108637000D01*
G75*
G02*
X78412000Y-108724000I-87000J0D01*
G01*
X77063000Y-108724000D01*
G75*
G02*
X76976000Y-108637000I0J87000D01*
G01*
X76976000Y-108463000D01*
G75*
G02*
X77063000Y-108376000I87000J0D01*
G01*
X78412000Y-108376000D01*
G75*
G02*
X78499000Y-108463000I0J-87000D01*
G01*
G37*
G36*
G01*
X78499000Y-108963000D02*
X78499000Y-109137000D01*
G75*
G02*
X78412000Y-109224000I-87000J0D01*
G01*
X77063000Y-109224000D01*
G75*
G02*
X76976000Y-109137000I0J87000D01*
G01*
X76976000Y-108963000D01*
G75*
G02*
X77063000Y-108876000I87000J0D01*
G01*
X78412000Y-108876000D01*
G75*
G02*
X78499000Y-108963000I0J-87000D01*
G01*
G37*
G36*
G01*
X78499000Y-109463000D02*
X78499000Y-109637000D01*
G75*
G02*
X78412000Y-109724000I-87000J0D01*
G01*
X77063000Y-109724000D01*
G75*
G02*
X76976000Y-109637000I0J87000D01*
G01*
X76976000Y-109463000D01*
G75*
G02*
X77063000Y-109376000I87000J0D01*
G01*
X78412000Y-109376000D01*
G75*
G02*
X78499000Y-109463000I0J-87000D01*
G01*
G37*
G36*
G01*
X78499000Y-109963000D02*
X78499000Y-110137000D01*
G75*
G02*
X78412000Y-110224000I-87000J0D01*
G01*
X77063000Y-110224000D01*
G75*
G02*
X76976000Y-110137000I0J87000D01*
G01*
X76976000Y-109963000D01*
G75*
G02*
X77063000Y-109876000I87000J0D01*
G01*
X78412000Y-109876000D01*
G75*
G02*
X78499000Y-109963000I0J-87000D01*
G01*
G37*
G36*
G01*
X78499000Y-110463000D02*
X78499000Y-110637000D01*
G75*
G02*
X78412000Y-110724000I-87000J0D01*
G01*
X77063000Y-110724000D01*
G75*
G02*
X76976000Y-110637000I0J87000D01*
G01*
X76976000Y-110463000D01*
G75*
G02*
X77063000Y-110376000I87000J0D01*
G01*
X78412000Y-110376000D01*
G75*
G02*
X78499000Y-110463000I0J-87000D01*
G01*
G37*
G36*
G01*
X78499000Y-110963000D02*
X78499000Y-111137000D01*
G75*
G02*
X78412000Y-111224000I-87000J0D01*
G01*
X77063000Y-111224000D01*
G75*
G02*
X76976000Y-111137000I0J87000D01*
G01*
X76976000Y-110963000D01*
G75*
G02*
X77063000Y-110876000I87000J0D01*
G01*
X78412000Y-110876000D01*
G75*
G02*
X78499000Y-110963000I0J-87000D01*
G01*
G37*
G36*
G01*
X78499000Y-111463000D02*
X78499000Y-111637000D01*
G75*
G02*
X78412000Y-111724000I-87000J0D01*
G01*
X77063000Y-111724000D01*
G75*
G02*
X76976000Y-111637000I0J87000D01*
G01*
X76976000Y-111463000D01*
G75*
G02*
X77063000Y-111376000I87000J0D01*
G01*
X78412000Y-111376000D01*
G75*
G02*
X78499000Y-111463000I0J-87000D01*
G01*
G37*
G36*
G01*
X78499000Y-111963000D02*
X78499000Y-112137000D01*
G75*
G02*
X78412000Y-112224000I-87000J0D01*
G01*
X77063000Y-112224000D01*
G75*
G02*
X76976000Y-112137000I0J87000D01*
G01*
X76976000Y-111963000D01*
G75*
G02*
X77063000Y-111876000I87000J0D01*
G01*
X78412000Y-111876000D01*
G75*
G02*
X78499000Y-111963000I0J-87000D01*
G01*
G37*
G36*
G01*
X78499000Y-112463000D02*
X78499000Y-112637000D01*
G75*
G02*
X78412000Y-112724000I-87000J0D01*
G01*
X77063000Y-112724000D01*
G75*
G02*
X76976000Y-112637000I0J87000D01*
G01*
X76976000Y-112463000D01*
G75*
G02*
X77063000Y-112376000I87000J0D01*
G01*
X78412000Y-112376000D01*
G75*
G02*
X78499000Y-112463000I0J-87000D01*
G01*
G37*
G36*
G01*
X78499000Y-112963000D02*
X78499000Y-113137000D01*
G75*
G02*
X78412000Y-113224000I-87000J0D01*
G01*
X77063000Y-113224000D01*
G75*
G02*
X76976000Y-113137000I0J87000D01*
G01*
X76976000Y-112963000D01*
G75*
G02*
X77063000Y-112876000I87000J0D01*
G01*
X78412000Y-112876000D01*
G75*
G02*
X78499000Y-112963000I0J-87000D01*
G01*
G37*
G36*
G01*
X78499000Y-113463000D02*
X78499000Y-113637000D01*
G75*
G02*
X78412000Y-113724000I-87000J0D01*
G01*
X77063000Y-113724000D01*
G75*
G02*
X76976000Y-113637000I0J87000D01*
G01*
X76976000Y-113463000D01*
G75*
G02*
X77063000Y-113376000I87000J0D01*
G01*
X78412000Y-113376000D01*
G75*
G02*
X78499000Y-113463000I0J-87000D01*
G01*
G37*
G36*
G01*
X78499000Y-113963000D02*
X78499000Y-114137000D01*
G75*
G02*
X78412000Y-114224000I-87000J0D01*
G01*
X77063000Y-114224000D01*
G75*
G02*
X76976000Y-114137000I0J87000D01*
G01*
X76976000Y-113963000D01*
G75*
G02*
X77063000Y-113876000I87000J0D01*
G01*
X78412000Y-113876000D01*
G75*
G02*
X78499000Y-113963000I0J-87000D01*
G01*
G37*
G36*
G01*
X78499000Y-114463000D02*
X78499000Y-114637000D01*
G75*
G02*
X78412000Y-114724000I-87000J0D01*
G01*
X77063000Y-114724000D01*
G75*
G02*
X76976000Y-114637000I0J87000D01*
G01*
X76976000Y-114463000D01*
G75*
G02*
X77063000Y-114376000I87000J0D01*
G01*
X78412000Y-114376000D01*
G75*
G02*
X78499000Y-114463000I0J-87000D01*
G01*
G37*
G36*
G01*
X79574000Y-115538000D02*
X79574000Y-116887000D01*
G75*
G02*
X79487000Y-116974000I-87000J0D01*
G01*
X79313000Y-116974000D01*
G75*
G02*
X79226000Y-116887000I0J87000D01*
G01*
X79226000Y-115538000D01*
G75*
G02*
X79313000Y-115451000I87000J0D01*
G01*
X79487000Y-115451000D01*
G75*
G02*
X79574000Y-115538000I0J-87000D01*
G01*
G37*
G36*
G01*
X80074000Y-115538000D02*
X80074000Y-116887000D01*
G75*
G02*
X79987000Y-116974000I-87000J0D01*
G01*
X79813000Y-116974000D01*
G75*
G02*
X79726000Y-116887000I0J87000D01*
G01*
X79726000Y-115538000D01*
G75*
G02*
X79813000Y-115451000I87000J0D01*
G01*
X79987000Y-115451000D01*
G75*
G02*
X80074000Y-115538000I0J-87000D01*
G01*
G37*
G36*
G01*
X80574000Y-115538000D02*
X80574000Y-116887000D01*
G75*
G02*
X80487000Y-116974000I-87000J0D01*
G01*
X80313000Y-116974000D01*
G75*
G02*
X80226000Y-116887000I0J87000D01*
G01*
X80226000Y-115538000D01*
G75*
G02*
X80313000Y-115451000I87000J0D01*
G01*
X80487000Y-115451000D01*
G75*
G02*
X80574000Y-115538000I0J-87000D01*
G01*
G37*
G36*
G01*
X81074000Y-115538000D02*
X81074000Y-116887000D01*
G75*
G02*
X80987000Y-116974000I-87000J0D01*
G01*
X80813000Y-116974000D01*
G75*
G02*
X80726000Y-116887000I0J87000D01*
G01*
X80726000Y-115538000D01*
G75*
G02*
X80813000Y-115451000I87000J0D01*
G01*
X80987000Y-115451000D01*
G75*
G02*
X81074000Y-115538000I0J-87000D01*
G01*
G37*
G36*
G01*
X81574000Y-115538000D02*
X81574000Y-116887000D01*
G75*
G02*
X81487000Y-116974000I-87000J0D01*
G01*
X81313000Y-116974000D01*
G75*
G02*
X81226000Y-116887000I0J87000D01*
G01*
X81226000Y-115538000D01*
G75*
G02*
X81313000Y-115451000I87000J0D01*
G01*
X81487000Y-115451000D01*
G75*
G02*
X81574000Y-115538000I0J-87000D01*
G01*
G37*
G36*
G01*
X82074000Y-115538000D02*
X82074000Y-116887000D01*
G75*
G02*
X81987000Y-116974000I-87000J0D01*
G01*
X81813000Y-116974000D01*
G75*
G02*
X81726000Y-116887000I0J87000D01*
G01*
X81726000Y-115538000D01*
G75*
G02*
X81813000Y-115451000I87000J0D01*
G01*
X81987000Y-115451000D01*
G75*
G02*
X82074000Y-115538000I0J-87000D01*
G01*
G37*
G36*
G01*
X82574000Y-115538000D02*
X82574000Y-116887000D01*
G75*
G02*
X82487000Y-116974000I-87000J0D01*
G01*
X82313000Y-116974000D01*
G75*
G02*
X82226000Y-116887000I0J87000D01*
G01*
X82226000Y-115538000D01*
G75*
G02*
X82313000Y-115451000I87000J0D01*
G01*
X82487000Y-115451000D01*
G75*
G02*
X82574000Y-115538000I0J-87000D01*
G01*
G37*
G36*
G01*
X83074000Y-115538000D02*
X83074000Y-116887000D01*
G75*
G02*
X82987000Y-116974000I-87000J0D01*
G01*
X82813000Y-116974000D01*
G75*
G02*
X82726000Y-116887000I0J87000D01*
G01*
X82726000Y-115538000D01*
G75*
G02*
X82813000Y-115451000I87000J0D01*
G01*
X82987000Y-115451000D01*
G75*
G02*
X83074000Y-115538000I0J-87000D01*
G01*
G37*
G36*
G01*
X83574000Y-115538000D02*
X83574000Y-116887000D01*
G75*
G02*
X83487000Y-116974000I-87000J0D01*
G01*
X83313000Y-116974000D01*
G75*
G02*
X83226000Y-116887000I0J87000D01*
G01*
X83226000Y-115538000D01*
G75*
G02*
X83313000Y-115451000I87000J0D01*
G01*
X83487000Y-115451000D01*
G75*
G02*
X83574000Y-115538000I0J-87000D01*
G01*
G37*
G36*
G01*
X84074000Y-115538000D02*
X84074000Y-116887000D01*
G75*
G02*
X83987000Y-116974000I-87000J0D01*
G01*
X83813000Y-116974000D01*
G75*
G02*
X83726000Y-116887000I0J87000D01*
G01*
X83726000Y-115538000D01*
G75*
G02*
X83813000Y-115451000I87000J0D01*
G01*
X83987000Y-115451000D01*
G75*
G02*
X84074000Y-115538000I0J-87000D01*
G01*
G37*
G36*
G01*
X84574000Y-115538000D02*
X84574000Y-116887000D01*
G75*
G02*
X84487000Y-116974000I-87000J0D01*
G01*
X84313000Y-116974000D01*
G75*
G02*
X84226000Y-116887000I0J87000D01*
G01*
X84226000Y-115538000D01*
G75*
G02*
X84313000Y-115451000I87000J0D01*
G01*
X84487000Y-115451000D01*
G75*
G02*
X84574000Y-115538000I0J-87000D01*
G01*
G37*
G36*
G01*
X85074000Y-115538000D02*
X85074000Y-116887000D01*
G75*
G02*
X84987000Y-116974000I-87000J0D01*
G01*
X84813000Y-116974000D01*
G75*
G02*
X84726000Y-116887000I0J87000D01*
G01*
X84726000Y-115538000D01*
G75*
G02*
X84813000Y-115451000I87000J0D01*
G01*
X84987000Y-115451000D01*
G75*
G02*
X85074000Y-115538000I0J-87000D01*
G01*
G37*
G36*
G01*
X85574000Y-115538000D02*
X85574000Y-116887000D01*
G75*
G02*
X85487000Y-116974000I-87000J0D01*
G01*
X85313000Y-116974000D01*
G75*
G02*
X85226000Y-116887000I0J87000D01*
G01*
X85226000Y-115538000D01*
G75*
G02*
X85313000Y-115451000I87000J0D01*
G01*
X85487000Y-115451000D01*
G75*
G02*
X85574000Y-115538000I0J-87000D01*
G01*
G37*
G36*
G01*
X86074000Y-115538000D02*
X86074000Y-116887000D01*
G75*
G02*
X85987000Y-116974000I-87000J0D01*
G01*
X85813000Y-116974000D01*
G75*
G02*
X85726000Y-116887000I0J87000D01*
G01*
X85726000Y-115538000D01*
G75*
G02*
X85813000Y-115451000I87000J0D01*
G01*
X85987000Y-115451000D01*
G75*
G02*
X86074000Y-115538000I0J-87000D01*
G01*
G37*
G36*
G01*
X86574000Y-115538000D02*
X86574000Y-116887000D01*
G75*
G02*
X86487000Y-116974000I-87000J0D01*
G01*
X86313000Y-116974000D01*
G75*
G02*
X86226000Y-116887000I0J87000D01*
G01*
X86226000Y-115538000D01*
G75*
G02*
X86313000Y-115451000I87000J0D01*
G01*
X86487000Y-115451000D01*
G75*
G02*
X86574000Y-115538000I0J-87000D01*
G01*
G37*
G36*
G01*
X87074000Y-115538000D02*
X87074000Y-116887000D01*
G75*
G02*
X86987000Y-116974000I-87000J0D01*
G01*
X86813000Y-116974000D01*
G75*
G02*
X86726000Y-116887000I0J87000D01*
G01*
X86726000Y-115538000D01*
G75*
G02*
X86813000Y-115451000I87000J0D01*
G01*
X86987000Y-115451000D01*
G75*
G02*
X87074000Y-115538000I0J-87000D01*
G01*
G37*
G36*
G01*
X87574000Y-115538000D02*
X87574000Y-116887000D01*
G75*
G02*
X87487000Y-116974000I-87000J0D01*
G01*
X87313000Y-116974000D01*
G75*
G02*
X87226000Y-116887000I0J87000D01*
G01*
X87226000Y-115538000D01*
G75*
G02*
X87313000Y-115451000I87000J0D01*
G01*
X87487000Y-115451000D01*
G75*
G02*
X87574000Y-115538000I0J-87000D01*
G01*
G37*
G36*
G01*
X88074000Y-115538000D02*
X88074000Y-116887000D01*
G75*
G02*
X87987000Y-116974000I-87000J0D01*
G01*
X87813000Y-116974000D01*
G75*
G02*
X87726000Y-116887000I0J87000D01*
G01*
X87726000Y-115538000D01*
G75*
G02*
X87813000Y-115451000I87000J0D01*
G01*
X87987000Y-115451000D01*
G75*
G02*
X88074000Y-115538000I0J-87000D01*
G01*
G37*
G36*
G01*
X88574000Y-115538000D02*
X88574000Y-116887000D01*
G75*
G02*
X88487000Y-116974000I-87000J0D01*
G01*
X88313000Y-116974000D01*
G75*
G02*
X88226000Y-116887000I0J87000D01*
G01*
X88226000Y-115538000D01*
G75*
G02*
X88313000Y-115451000I87000J0D01*
G01*
X88487000Y-115451000D01*
G75*
G02*
X88574000Y-115538000I0J-87000D01*
G01*
G37*
G36*
G01*
X89074000Y-115538000D02*
X89074000Y-116887000D01*
G75*
G02*
X88987000Y-116974000I-87000J0D01*
G01*
X88813000Y-116974000D01*
G75*
G02*
X88726000Y-116887000I0J87000D01*
G01*
X88726000Y-115538000D01*
G75*
G02*
X88813000Y-115451000I87000J0D01*
G01*
X88987000Y-115451000D01*
G75*
G02*
X89074000Y-115538000I0J-87000D01*
G01*
G37*
G36*
G01*
X89574000Y-115538000D02*
X89574000Y-116887000D01*
G75*
G02*
X89487000Y-116974000I-87000J0D01*
G01*
X89313000Y-116974000D01*
G75*
G02*
X89226000Y-116887000I0J87000D01*
G01*
X89226000Y-115538000D01*
G75*
G02*
X89313000Y-115451000I87000J0D01*
G01*
X89487000Y-115451000D01*
G75*
G02*
X89574000Y-115538000I0J-87000D01*
G01*
G37*
G36*
G01*
X90074000Y-115538000D02*
X90074000Y-116887000D01*
G75*
G02*
X89987000Y-116974000I-87000J0D01*
G01*
X89813000Y-116974000D01*
G75*
G02*
X89726000Y-116887000I0J87000D01*
G01*
X89726000Y-115538000D01*
G75*
G02*
X89813000Y-115451000I87000J0D01*
G01*
X89987000Y-115451000D01*
G75*
G02*
X90074000Y-115538000I0J-87000D01*
G01*
G37*
G36*
G01*
X90574000Y-115538000D02*
X90574000Y-116887000D01*
G75*
G02*
X90487000Y-116974000I-87000J0D01*
G01*
X90313000Y-116974000D01*
G75*
G02*
X90226000Y-116887000I0J87000D01*
G01*
X90226000Y-115538000D01*
G75*
G02*
X90313000Y-115451000I87000J0D01*
G01*
X90487000Y-115451000D01*
G75*
G02*
X90574000Y-115538000I0J-87000D01*
G01*
G37*
G36*
G01*
X91074000Y-115538000D02*
X91074000Y-116887000D01*
G75*
G02*
X90987000Y-116974000I-87000J0D01*
G01*
X90813000Y-116974000D01*
G75*
G02*
X90726000Y-116887000I0J87000D01*
G01*
X90726000Y-115538000D01*
G75*
G02*
X90813000Y-115451000I87000J0D01*
G01*
X90987000Y-115451000D01*
G75*
G02*
X91074000Y-115538000I0J-87000D01*
G01*
G37*
G36*
G01*
X91574000Y-115538000D02*
X91574000Y-116887000D01*
G75*
G02*
X91487000Y-116974000I-87000J0D01*
G01*
X91313000Y-116974000D01*
G75*
G02*
X91226000Y-116887000I0J87000D01*
G01*
X91226000Y-115538000D01*
G75*
G02*
X91313000Y-115451000I87000J0D01*
G01*
X91487000Y-115451000D01*
G75*
G02*
X91574000Y-115538000I0J-87000D01*
G01*
G37*
G36*
G01*
X74000000Y-119325000D02*
X74000000Y-119975000D01*
G75*
G02*
X73800000Y-120175000I-200000J0D01*
G01*
X73400000Y-120175000D01*
G75*
G02*
X73200000Y-119975000I0J200000D01*
G01*
X73200000Y-119325000D01*
G75*
G02*
X73400000Y-119125000I200000J0D01*
G01*
X73800000Y-119125000D01*
G75*
G02*
X74000000Y-119325000I0J-200000D01*
G01*
G37*
G36*
G01*
X72400000Y-119325000D02*
X72400000Y-119975000D01*
G75*
G02*
X72200000Y-120175000I-200000J0D01*
G01*
X71800000Y-120175000D01*
G75*
G02*
X71600000Y-119975000I0J200000D01*
G01*
X71600000Y-119325000D01*
G75*
G02*
X71800000Y-119125000I200000J0D01*
G01*
X72200000Y-119125000D01*
G75*
G02*
X72400000Y-119325000I0J-200000D01*
G01*
G37*
G36*
G01*
X76000000Y-119975000D02*
X76000000Y-119325000D01*
G75*
G02*
X76200000Y-119125000I200000J0D01*
G01*
X76600000Y-119125000D01*
G75*
G02*
X76800000Y-119325000I0J-200000D01*
G01*
X76800000Y-119975000D01*
G75*
G02*
X76600000Y-120175000I-200000J0D01*
G01*
X76200000Y-120175000D01*
G75*
G02*
X76000000Y-119975000I0J200000D01*
G01*
G37*
G36*
G01*
X74400000Y-119975000D02*
X74400000Y-119325000D01*
G75*
G02*
X74600000Y-119125000I200000J0D01*
G01*
X75000000Y-119125000D01*
G75*
G02*
X75200000Y-119325000I0J-200000D01*
G01*
X75200000Y-119975000D01*
G75*
G02*
X75000000Y-120175000I-200000J0D01*
G01*
X74600000Y-120175000D01*
G75*
G02*
X74400000Y-119975000I0J200000D01*
G01*
G37*
G36*
G01*
X72800000Y-102156250D02*
X72800000Y-103143750D01*
G75*
G02*
X72518750Y-103425000I-281250J0D01*
G01*
X71956250Y-103425000D01*
G75*
G02*
X71675000Y-103143750I0J281250D01*
G01*
X71675000Y-102156250D01*
G75*
G02*
X71956250Y-101875000I281250J0D01*
G01*
X72518750Y-101875000D01*
G75*
G02*
X72800000Y-102156250I0J-281250D01*
G01*
G37*
G36*
G01*
X70925000Y-102156250D02*
X70925000Y-103143750D01*
G75*
G02*
X70643750Y-103425000I-281250J0D01*
G01*
X70081250Y-103425000D01*
G75*
G02*
X69800000Y-103143750I0J281250D01*
G01*
X69800000Y-102156250D01*
G75*
G02*
X70081250Y-101875000I281250J0D01*
G01*
X70643750Y-101875000D01*
G75*
G02*
X70925000Y-102156250I0J-281250D01*
G01*
G37*
G36*
G01*
X69875000Y-105112500D02*
X69875000Y-104087500D01*
G75*
G02*
X70112500Y-103850000I237500J0D01*
G01*
X70587500Y-103850000D01*
G75*
G02*
X70825000Y-104087500I0J-237500D01*
G01*
X70825000Y-105112500D01*
G75*
G02*
X70587500Y-105350000I-237500J0D01*
G01*
X70112500Y-105350000D01*
G75*
G02*
X69875000Y-105112500I0J237500D01*
G01*
G37*
G36*
G01*
X71775000Y-105112500D02*
X71775000Y-104087500D01*
G75*
G02*
X72012500Y-103850000I237500J0D01*
G01*
X72487500Y-103850000D01*
G75*
G02*
X72725000Y-104087500I0J-237500D01*
G01*
X72725000Y-105112500D01*
G75*
G02*
X72487500Y-105350000I-237500J0D01*
G01*
X72012500Y-105350000D01*
G75*
G02*
X71775000Y-105112500I0J237500D01*
G01*
G37*
G36*
G01*
X73650000Y-108275000D02*
X73650000Y-107625000D01*
G75*
G02*
X73850000Y-107425000I200000J0D01*
G01*
X74250000Y-107425000D01*
G75*
G02*
X74450000Y-107625000I0J-200000D01*
G01*
X74450000Y-108275000D01*
G75*
G02*
X74250000Y-108475000I-200000J0D01*
G01*
X73850000Y-108475000D01*
G75*
G02*
X73650000Y-108275000I0J200000D01*
G01*
G37*
G36*
G01*
X72050000Y-108275000D02*
X72050000Y-107625000D01*
G75*
G02*
X72250000Y-107425000I200000J0D01*
G01*
X72650000Y-107425000D01*
G75*
G02*
X72850000Y-107625000I0J-200000D01*
G01*
X72850000Y-108275000D01*
G75*
G02*
X72650000Y-108475000I-200000J0D01*
G01*
X72250000Y-108475000D01*
G75*
G02*
X72050000Y-108275000I0J200000D01*
G01*
G37*
G36*
G01*
X71650000Y-107625000D02*
X71650000Y-108275000D01*
G75*
G02*
X71450000Y-108475000I-200000J0D01*
G01*
X71050000Y-108475000D01*
G75*
G02*
X70850000Y-108275000I0J200000D01*
G01*
X70850000Y-107625000D01*
G75*
G02*
X71050000Y-107425000I200000J0D01*
G01*
X71450000Y-107425000D01*
G75*
G02*
X71650000Y-107625000I0J-200000D01*
G01*
G37*
G36*
G01*
X70050000Y-107625000D02*
X70050000Y-108275000D01*
G75*
G02*
X69850000Y-108475000I-200000J0D01*
G01*
X69450000Y-108475000D01*
G75*
G02*
X69250000Y-108275000I0J200000D01*
G01*
X69250000Y-107625000D01*
G75*
G02*
X69450000Y-107425000I200000J0D01*
G01*
X69850000Y-107425000D01*
G75*
G02*
X70050000Y-107625000I0J-200000D01*
G01*
G37*
G36*
G01*
X78275000Y-120200000D02*
X77625000Y-120200000D01*
G75*
G02*
X77425000Y-120000000I0J200000D01*
G01*
X77425000Y-119600000D01*
G75*
G02*
X77625000Y-119400000I200000J0D01*
G01*
X78275000Y-119400000D01*
G75*
G02*
X78475000Y-119600000I0J-200000D01*
G01*
X78475000Y-120000000D01*
G75*
G02*
X78275000Y-120200000I-200000J0D01*
G01*
G37*
G36*
G01*
X78275000Y-118600000D02*
X77625000Y-118600000D01*
G75*
G02*
X77425000Y-118400000I0J200000D01*
G01*
X77425000Y-118000000D01*
G75*
G02*
X77625000Y-117800000I200000J0D01*
G01*
X78275000Y-117800000D01*
G75*
G02*
X78475000Y-118000000I0J-200000D01*
G01*
X78475000Y-118400000D01*
G75*
G02*
X78275000Y-118600000I-200000J0D01*
G01*
G37*
G36*
G01*
X109587000Y-112970000D02*
X109587000Y-113930000D01*
G75*
G02*
X109267000Y-114250000I-320000J0D01*
G01*
X107807000Y-114250000D01*
G75*
G02*
X107487000Y-113930000I0J320000D01*
G01*
X107487000Y-112970000D01*
G75*
G02*
X107807000Y-112650000I320000J0D01*
G01*
X109267000Y-112650000D01*
G75*
G02*
X109587000Y-112970000I0J-320000D01*
G01*
G37*
G36*
G01*
X109587000Y-108370000D02*
X109587000Y-109330000D01*
G75*
G02*
X109267000Y-109650000I-320000J0D01*
G01*
X107807000Y-109650000D01*
G75*
G02*
X107487000Y-109330000I0J320000D01*
G01*
X107487000Y-108370000D01*
G75*
G02*
X107807000Y-108050000I320000J0D01*
G01*
X109267000Y-108050000D01*
G75*
G02*
X109587000Y-108370000I0J-320000D01*
G01*
G37*
G36*
G01*
X109587000Y-110670000D02*
X109587000Y-111630000D01*
G75*
G02*
X109267000Y-111950000I-320000J0D01*
G01*
X107807000Y-111950000D01*
G75*
G02*
X107487000Y-111630000I0J320000D01*
G01*
X107487000Y-110670000D01*
G75*
G02*
X107807000Y-110350000I320000J0D01*
G01*
X109267000Y-110350000D01*
G75*
G02*
X109587000Y-110670000I0J-320000D01*
G01*
G37*
G36*
G01*
X103287000Y-109515000D02*
X103287000Y-112785000D01*
G75*
G02*
X102972000Y-113100000I-315000J0D01*
G01*
X101502000Y-113100000D01*
G75*
G02*
X101187000Y-112785000I0J315000D01*
G01*
X101187000Y-109515000D01*
G75*
G02*
X101502000Y-109200000I315000J0D01*
G01*
X102972000Y-109200000D01*
G75*
G02*
X103287000Y-109515000I0J-315000D01*
G01*
G37*
G36*
G01*
X68385000Y-114147500D02*
X68385000Y-112642500D01*
G75*
G02*
X68707500Y-112320000I322500J0D01*
G01*
X70412500Y-112320000D01*
G75*
G02*
X70735000Y-112642500I0J-322500D01*
G01*
X70735000Y-114147500D01*
G75*
G02*
X70412500Y-114470000I-322500J0D01*
G01*
X68707500Y-114470000D01*
G75*
G02*
X68385000Y-114147500I0J322500D01*
G01*
G37*
G36*
G01*
X73465000Y-114147500D02*
X73465000Y-112642500D01*
G75*
G02*
X73787500Y-112320000I322500J0D01*
G01*
X75492500Y-112320000D01*
G75*
G02*
X75815000Y-112642500I0J-322500D01*
G01*
X75815000Y-114147500D01*
G75*
G02*
X75492500Y-114470000I-322500J0D01*
G01*
X73787500Y-114470000D01*
G75*
G02*
X73465000Y-114147500I0J322500D01*
G01*
G37*
G36*
G01*
X73465000Y-117957500D02*
X73465000Y-116452500D01*
G75*
G02*
X73787500Y-116130000I322500J0D01*
G01*
X75492500Y-116130000D01*
G75*
G02*
X75815000Y-116452500I0J-322500D01*
G01*
X75815000Y-117957500D01*
G75*
G02*
X75492500Y-118280000I-322500J0D01*
G01*
X73787500Y-118280000D01*
G75*
G02*
X73465000Y-117957500I0J322500D01*
G01*
G37*
G36*
G01*
X68385000Y-117957500D02*
X68385000Y-116452500D01*
G75*
G02*
X68707500Y-116130000I322500J0D01*
G01*
X70412500Y-116130000D01*
G75*
G02*
X70735000Y-116452500I0J-322500D01*
G01*
X70735000Y-117957500D01*
G75*
G02*
X70412500Y-118280000I-322500J0D01*
G01*
X68707500Y-118280000D01*
G75*
G02*
X68385000Y-117957500I0J322500D01*
G01*
G37*
D19*
X48514000Y-129540000D03*
D20*
X48514000Y-123952000D03*
G36*
G01*
X74224500Y-123249000D02*
X73975500Y-123249000D01*
G75*
G02*
X73851000Y-123124500I0J124500D01*
G01*
X73851000Y-121875500D01*
G75*
G02*
X73975500Y-121751000I124500J0D01*
G01*
X74224500Y-121751000D01*
G75*
G02*
X74349000Y-121875500I0J-124500D01*
G01*
X74349000Y-123124500D01*
G75*
G02*
X74224500Y-123249000I-124500J0D01*
G01*
G37*
G36*
G01*
X74874500Y-123249000D02*
X74625500Y-123249000D01*
G75*
G02*
X74501000Y-123124500I0J124500D01*
G01*
X74501000Y-121875500D01*
G75*
G02*
X74625500Y-121751000I124500J0D01*
G01*
X74874500Y-121751000D01*
G75*
G02*
X74999000Y-121875500I0J-124500D01*
G01*
X74999000Y-123124500D01*
G75*
G02*
X74874500Y-123249000I-124500J0D01*
G01*
G37*
G36*
G01*
X75524500Y-123249000D02*
X75275500Y-123249000D01*
G75*
G02*
X75151000Y-123124500I0J124500D01*
G01*
X75151000Y-121875500D01*
G75*
G02*
X75275500Y-121751000I124500J0D01*
G01*
X75524500Y-121751000D01*
G75*
G02*
X75649000Y-121875500I0J-124500D01*
G01*
X75649000Y-123124500D01*
G75*
G02*
X75524500Y-123249000I-124500J0D01*
G01*
G37*
G36*
G01*
X76174500Y-123249000D02*
X75925500Y-123249000D01*
G75*
G02*
X75801000Y-123124500I0J124500D01*
G01*
X75801000Y-121875500D01*
G75*
G02*
X75925500Y-121751000I124500J0D01*
G01*
X76174500Y-121751000D01*
G75*
G02*
X76299000Y-121875500I0J-124500D01*
G01*
X76299000Y-123124500D01*
G75*
G02*
X76174500Y-123249000I-124500J0D01*
G01*
G37*
G36*
G01*
X76824500Y-123249000D02*
X76575500Y-123249000D01*
G75*
G02*
X76451000Y-123124500I0J124500D01*
G01*
X76451000Y-121875500D01*
G75*
G02*
X76575500Y-121751000I124500J0D01*
G01*
X76824500Y-121751000D01*
G75*
G02*
X76949000Y-121875500I0J-124500D01*
G01*
X76949000Y-123124500D01*
G75*
G02*
X76824500Y-123249000I-124500J0D01*
G01*
G37*
G36*
G01*
X77474500Y-123249000D02*
X77225500Y-123249000D01*
G75*
G02*
X77101000Y-123124500I0J124500D01*
G01*
X77101000Y-121875500D01*
G75*
G02*
X77225500Y-121751000I124500J0D01*
G01*
X77474500Y-121751000D01*
G75*
G02*
X77599000Y-121875500I0J-124500D01*
G01*
X77599000Y-123124500D01*
G75*
G02*
X77474500Y-123249000I-124500J0D01*
G01*
G37*
G36*
G01*
X78124500Y-123249000D02*
X77875500Y-123249000D01*
G75*
G02*
X77751000Y-123124500I0J124500D01*
G01*
X77751000Y-121875500D01*
G75*
G02*
X77875500Y-121751000I124500J0D01*
G01*
X78124500Y-121751000D01*
G75*
G02*
X78249000Y-121875500I0J-124500D01*
G01*
X78249000Y-123124500D01*
G75*
G02*
X78124500Y-123249000I-124500J0D01*
G01*
G37*
G36*
G01*
X78774500Y-123249000D02*
X78525500Y-123249000D01*
G75*
G02*
X78401000Y-123124500I0J124500D01*
G01*
X78401000Y-121875500D01*
G75*
G02*
X78525500Y-121751000I124500J0D01*
G01*
X78774500Y-121751000D01*
G75*
G02*
X78899000Y-121875500I0J-124500D01*
G01*
X78899000Y-123124500D01*
G75*
G02*
X78774500Y-123249000I-124500J0D01*
G01*
G37*
G36*
G01*
X79424500Y-123249000D02*
X79175500Y-123249000D01*
G75*
G02*
X79051000Y-123124500I0J124500D01*
G01*
X79051000Y-121875500D01*
G75*
G02*
X79175500Y-121751000I124500J0D01*
G01*
X79424500Y-121751000D01*
G75*
G02*
X79549000Y-121875500I0J-124500D01*
G01*
X79549000Y-123124500D01*
G75*
G02*
X79424500Y-123249000I-124500J0D01*
G01*
G37*
G36*
G01*
X80074500Y-123249000D02*
X79825500Y-123249000D01*
G75*
G02*
X79701000Y-123124500I0J124500D01*
G01*
X79701000Y-121875500D01*
G75*
G02*
X79825500Y-121751000I124500J0D01*
G01*
X80074500Y-121751000D01*
G75*
G02*
X80199000Y-121875500I0J-124500D01*
G01*
X80199000Y-123124500D01*
G75*
G02*
X80074500Y-123249000I-124500J0D01*
G01*
G37*
G36*
G01*
X80074500Y-129149000D02*
X79825500Y-129149000D01*
G75*
G02*
X79701000Y-129024500I0J124500D01*
G01*
X79701000Y-127775500D01*
G75*
G02*
X79825500Y-127651000I124500J0D01*
G01*
X80074500Y-127651000D01*
G75*
G02*
X80199000Y-127775500I0J-124500D01*
G01*
X80199000Y-129024500D01*
G75*
G02*
X80074500Y-129149000I-124500J0D01*
G01*
G37*
G36*
G01*
X79424500Y-129149000D02*
X79175500Y-129149000D01*
G75*
G02*
X79051000Y-129024500I0J124500D01*
G01*
X79051000Y-127775500D01*
G75*
G02*
X79175500Y-127651000I124500J0D01*
G01*
X79424500Y-127651000D01*
G75*
G02*
X79549000Y-127775500I0J-124500D01*
G01*
X79549000Y-129024500D01*
G75*
G02*
X79424500Y-129149000I-124500J0D01*
G01*
G37*
G36*
G01*
X78774500Y-129149000D02*
X78525500Y-129149000D01*
G75*
G02*
X78401000Y-129024500I0J124500D01*
G01*
X78401000Y-127775500D01*
G75*
G02*
X78525500Y-127651000I124500J0D01*
G01*
X78774500Y-127651000D01*
G75*
G02*
X78899000Y-127775500I0J-124500D01*
G01*
X78899000Y-129024500D01*
G75*
G02*
X78774500Y-129149000I-124500J0D01*
G01*
G37*
G36*
G01*
X78124500Y-129149000D02*
X77875500Y-129149000D01*
G75*
G02*
X77751000Y-129024500I0J124500D01*
G01*
X77751000Y-127775500D01*
G75*
G02*
X77875500Y-127651000I124500J0D01*
G01*
X78124500Y-127651000D01*
G75*
G02*
X78249000Y-127775500I0J-124500D01*
G01*
X78249000Y-129024500D01*
G75*
G02*
X78124500Y-129149000I-124500J0D01*
G01*
G37*
G36*
G01*
X77474500Y-129149000D02*
X77225500Y-129149000D01*
G75*
G02*
X77101000Y-129024500I0J124500D01*
G01*
X77101000Y-127775500D01*
G75*
G02*
X77225500Y-127651000I124500J0D01*
G01*
X77474500Y-127651000D01*
G75*
G02*
X77599000Y-127775500I0J-124500D01*
G01*
X77599000Y-129024500D01*
G75*
G02*
X77474500Y-129149000I-124500J0D01*
G01*
G37*
G36*
G01*
X76824500Y-129149000D02*
X76575500Y-129149000D01*
G75*
G02*
X76451000Y-129024500I0J124500D01*
G01*
X76451000Y-127775500D01*
G75*
G02*
X76575500Y-127651000I124500J0D01*
G01*
X76824500Y-127651000D01*
G75*
G02*
X76949000Y-127775500I0J-124500D01*
G01*
X76949000Y-129024500D01*
G75*
G02*
X76824500Y-129149000I-124500J0D01*
G01*
G37*
G36*
G01*
X76174500Y-129149000D02*
X75925500Y-129149000D01*
G75*
G02*
X75801000Y-129024500I0J124500D01*
G01*
X75801000Y-127775500D01*
G75*
G02*
X75925500Y-127651000I124500J0D01*
G01*
X76174500Y-127651000D01*
G75*
G02*
X76299000Y-127775500I0J-124500D01*
G01*
X76299000Y-129024500D01*
G75*
G02*
X76174500Y-129149000I-124500J0D01*
G01*
G37*
G36*
G01*
X75524500Y-129149000D02*
X75275500Y-129149000D01*
G75*
G02*
X75151000Y-129024500I0J124500D01*
G01*
X75151000Y-127775500D01*
G75*
G02*
X75275500Y-127651000I124500J0D01*
G01*
X75524500Y-127651000D01*
G75*
G02*
X75649000Y-127775500I0J-124500D01*
G01*
X75649000Y-129024500D01*
G75*
G02*
X75524500Y-129149000I-124500J0D01*
G01*
G37*
G36*
G01*
X74874500Y-129149000D02*
X74625500Y-129149000D01*
G75*
G02*
X74501000Y-129024500I0J124500D01*
G01*
X74501000Y-127775500D01*
G75*
G02*
X74625500Y-127651000I124500J0D01*
G01*
X74874500Y-127651000D01*
G75*
G02*
X74999000Y-127775500I0J-124500D01*
G01*
X74999000Y-129024500D01*
G75*
G02*
X74874500Y-129149000I-124500J0D01*
G01*
G37*
G36*
G01*
X74224500Y-129149000D02*
X73975500Y-129149000D01*
G75*
G02*
X73851000Y-129024500I0J124500D01*
G01*
X73851000Y-127775500D01*
G75*
G02*
X73975500Y-127651000I124500J0D01*
G01*
X74224500Y-127651000D01*
G75*
G02*
X74349000Y-127775500I0J-124500D01*
G01*
X74349000Y-129024500D01*
G75*
G02*
X74224500Y-129149000I-124500J0D01*
G01*
G37*
G36*
G01*
X71790000Y-111030000D02*
X71790000Y-111270000D01*
G75*
G02*
X71670000Y-111390000I-120000J0D01*
G01*
X70830000Y-111390000D01*
G75*
G02*
X70710000Y-111270000I0J120000D01*
G01*
X70710000Y-111030000D01*
G75*
G02*
X70830000Y-110910000I120000J0D01*
G01*
X71670000Y-110910000D01*
G75*
G02*
X71790000Y-111030000I0J-120000D01*
G01*
G37*
G36*
G01*
X71790000Y-109730000D02*
X71790000Y-109970000D01*
G75*
G02*
X71670000Y-110090000I-120000J0D01*
G01*
X70830000Y-110090000D01*
G75*
G02*
X70710000Y-109970000I0J120000D01*
G01*
X70710000Y-109730000D01*
G75*
G02*
X70830000Y-109610000I120000J0D01*
G01*
X71670000Y-109610000D01*
G75*
G02*
X71790000Y-109730000I0J-120000D01*
G01*
G37*
G36*
G01*
X73490000Y-110380000D02*
X73490000Y-110620000D01*
G75*
G02*
X73370000Y-110740000I-120000J0D01*
G01*
X72530000Y-110740000D01*
G75*
G02*
X72410000Y-110620000I0J120000D01*
G01*
X72410000Y-110380000D01*
G75*
G02*
X72530000Y-110260000I120000J0D01*
G01*
X73370000Y-110260000D01*
G75*
G02*
X73490000Y-110380000I0J-120000D01*
G01*
G37*
G36*
G01*
X73490000Y-111030000D02*
X73490000Y-111270000D01*
G75*
G02*
X73370000Y-111390000I-120000J0D01*
G01*
X72530000Y-111390000D01*
G75*
G02*
X72410000Y-111270000I0J120000D01*
G01*
X72410000Y-111030000D01*
G75*
G02*
X72530000Y-110910000I120000J0D01*
G01*
X73370000Y-110910000D01*
G75*
G02*
X73490000Y-111030000I0J-120000D01*
G01*
G37*
G36*
G01*
X73490000Y-109730000D02*
X73490000Y-109970000D01*
G75*
G02*
X73370000Y-110090000I-120000J0D01*
G01*
X72530000Y-110090000D01*
G75*
G02*
X72410000Y-109970000I0J120000D01*
G01*
X72410000Y-109730000D01*
G75*
G02*
X72530000Y-109610000I120000J0D01*
G01*
X73370000Y-109610000D01*
G75*
G02*
X73490000Y-109730000I0J-120000D01*
G01*
G37*
G36*
G01*
X70210000Y-122620000D02*
X70210000Y-122380000D01*
G75*
G02*
X70330000Y-122260000I120000J0D01*
G01*
X71170000Y-122260000D01*
G75*
G02*
X71290000Y-122380000I0J-120000D01*
G01*
X71290000Y-122620000D01*
G75*
G02*
X71170000Y-122740000I-120000J0D01*
G01*
X70330000Y-122740000D01*
G75*
G02*
X70210000Y-122620000I0J120000D01*
G01*
G37*
G36*
G01*
X70210000Y-123920000D02*
X70210000Y-123680000D01*
G75*
G02*
X70330000Y-123560000I120000J0D01*
G01*
X71170000Y-123560000D01*
G75*
G02*
X71290000Y-123680000I0J-120000D01*
G01*
X71290000Y-123920000D01*
G75*
G02*
X71170000Y-124040000I-120000J0D01*
G01*
X70330000Y-124040000D01*
G75*
G02*
X70210000Y-123920000I0J120000D01*
G01*
G37*
G36*
G01*
X68510000Y-123270000D02*
X68510000Y-123030000D01*
G75*
G02*
X68630000Y-122910000I120000J0D01*
G01*
X69470000Y-122910000D01*
G75*
G02*
X69590000Y-123030000I0J-120000D01*
G01*
X69590000Y-123270000D01*
G75*
G02*
X69470000Y-123390000I-120000J0D01*
G01*
X68630000Y-123390000D01*
G75*
G02*
X68510000Y-123270000I0J120000D01*
G01*
G37*
G36*
G01*
X68510000Y-122620000D02*
X68510000Y-122380000D01*
G75*
G02*
X68630000Y-122260000I120000J0D01*
G01*
X69470000Y-122260000D01*
G75*
G02*
X69590000Y-122380000I0J-120000D01*
G01*
X69590000Y-122620000D01*
G75*
G02*
X69470000Y-122740000I-120000J0D01*
G01*
X68630000Y-122740000D01*
G75*
G02*
X68510000Y-122620000I0J120000D01*
G01*
G37*
G36*
G01*
X68510000Y-123920000D02*
X68510000Y-123680000D01*
G75*
G02*
X68630000Y-123560000I120000J0D01*
G01*
X69470000Y-123560000D01*
G75*
G02*
X69590000Y-123680000I0J-120000D01*
G01*
X69590000Y-123920000D01*
G75*
G02*
X69470000Y-124040000I-120000J0D01*
G01*
X68630000Y-124040000D01*
G75*
G02*
X68510000Y-123920000I0J120000D01*
G01*
G37*
G36*
G01*
X92624500Y-123249000D02*
X92375500Y-123249000D01*
G75*
G02*
X92251000Y-123124500I0J124500D01*
G01*
X92251000Y-121875500D01*
G75*
G02*
X92375500Y-121751000I124500J0D01*
G01*
X92624500Y-121751000D01*
G75*
G02*
X92749000Y-121875500I0J-124500D01*
G01*
X92749000Y-123124500D01*
G75*
G02*
X92624500Y-123249000I-124500J0D01*
G01*
G37*
G36*
G01*
X93274500Y-123249000D02*
X93025500Y-123249000D01*
G75*
G02*
X92901000Y-123124500I0J124500D01*
G01*
X92901000Y-121875500D01*
G75*
G02*
X93025500Y-121751000I124500J0D01*
G01*
X93274500Y-121751000D01*
G75*
G02*
X93399000Y-121875500I0J-124500D01*
G01*
X93399000Y-123124500D01*
G75*
G02*
X93274500Y-123249000I-124500J0D01*
G01*
G37*
G36*
G01*
X93924500Y-123249000D02*
X93675500Y-123249000D01*
G75*
G02*
X93551000Y-123124500I0J124500D01*
G01*
X93551000Y-121875500D01*
G75*
G02*
X93675500Y-121751000I124500J0D01*
G01*
X93924500Y-121751000D01*
G75*
G02*
X94049000Y-121875500I0J-124500D01*
G01*
X94049000Y-123124500D01*
G75*
G02*
X93924500Y-123249000I-124500J0D01*
G01*
G37*
G36*
G01*
X94574500Y-123249000D02*
X94325500Y-123249000D01*
G75*
G02*
X94201000Y-123124500I0J124500D01*
G01*
X94201000Y-121875500D01*
G75*
G02*
X94325500Y-121751000I124500J0D01*
G01*
X94574500Y-121751000D01*
G75*
G02*
X94699000Y-121875500I0J-124500D01*
G01*
X94699000Y-123124500D01*
G75*
G02*
X94574500Y-123249000I-124500J0D01*
G01*
G37*
G36*
G01*
X95224500Y-123249000D02*
X94975500Y-123249000D01*
G75*
G02*
X94851000Y-123124500I0J124500D01*
G01*
X94851000Y-121875500D01*
G75*
G02*
X94975500Y-121751000I124500J0D01*
G01*
X95224500Y-121751000D01*
G75*
G02*
X95349000Y-121875500I0J-124500D01*
G01*
X95349000Y-123124500D01*
G75*
G02*
X95224500Y-123249000I-124500J0D01*
G01*
G37*
G36*
G01*
X95874500Y-123249000D02*
X95625500Y-123249000D01*
G75*
G02*
X95501000Y-123124500I0J124500D01*
G01*
X95501000Y-121875500D01*
G75*
G02*
X95625500Y-121751000I124500J0D01*
G01*
X95874500Y-121751000D01*
G75*
G02*
X95999000Y-121875500I0J-124500D01*
G01*
X95999000Y-123124500D01*
G75*
G02*
X95874500Y-123249000I-124500J0D01*
G01*
G37*
G36*
G01*
X96524500Y-123249000D02*
X96275500Y-123249000D01*
G75*
G02*
X96151000Y-123124500I0J124500D01*
G01*
X96151000Y-121875500D01*
G75*
G02*
X96275500Y-121751000I124500J0D01*
G01*
X96524500Y-121751000D01*
G75*
G02*
X96649000Y-121875500I0J-124500D01*
G01*
X96649000Y-123124500D01*
G75*
G02*
X96524500Y-123249000I-124500J0D01*
G01*
G37*
G36*
G01*
X97174500Y-123249000D02*
X96925500Y-123249000D01*
G75*
G02*
X96801000Y-123124500I0J124500D01*
G01*
X96801000Y-121875500D01*
G75*
G02*
X96925500Y-121751000I124500J0D01*
G01*
X97174500Y-121751000D01*
G75*
G02*
X97299000Y-121875500I0J-124500D01*
G01*
X97299000Y-123124500D01*
G75*
G02*
X97174500Y-123249000I-124500J0D01*
G01*
G37*
G36*
G01*
X97824500Y-123249000D02*
X97575500Y-123249000D01*
G75*
G02*
X97451000Y-123124500I0J124500D01*
G01*
X97451000Y-121875500D01*
G75*
G02*
X97575500Y-121751000I124500J0D01*
G01*
X97824500Y-121751000D01*
G75*
G02*
X97949000Y-121875500I0J-124500D01*
G01*
X97949000Y-123124500D01*
G75*
G02*
X97824500Y-123249000I-124500J0D01*
G01*
G37*
G36*
G01*
X98474500Y-123249000D02*
X98225500Y-123249000D01*
G75*
G02*
X98101000Y-123124500I0J124500D01*
G01*
X98101000Y-121875500D01*
G75*
G02*
X98225500Y-121751000I124500J0D01*
G01*
X98474500Y-121751000D01*
G75*
G02*
X98599000Y-121875500I0J-124500D01*
G01*
X98599000Y-123124500D01*
G75*
G02*
X98474500Y-123249000I-124500J0D01*
G01*
G37*
G36*
G01*
X98474500Y-129149000D02*
X98225500Y-129149000D01*
G75*
G02*
X98101000Y-129024500I0J124500D01*
G01*
X98101000Y-127775500D01*
G75*
G02*
X98225500Y-127651000I124500J0D01*
G01*
X98474500Y-127651000D01*
G75*
G02*
X98599000Y-127775500I0J-124500D01*
G01*
X98599000Y-129024500D01*
G75*
G02*
X98474500Y-129149000I-124500J0D01*
G01*
G37*
G36*
G01*
X97824500Y-129149000D02*
X97575500Y-129149000D01*
G75*
G02*
X97451000Y-129024500I0J124500D01*
G01*
X97451000Y-127775500D01*
G75*
G02*
X97575500Y-127651000I124500J0D01*
G01*
X97824500Y-127651000D01*
G75*
G02*
X97949000Y-127775500I0J-124500D01*
G01*
X97949000Y-129024500D01*
G75*
G02*
X97824500Y-129149000I-124500J0D01*
G01*
G37*
G36*
G01*
X97174500Y-129149000D02*
X96925500Y-129149000D01*
G75*
G02*
X96801000Y-129024500I0J124500D01*
G01*
X96801000Y-127775500D01*
G75*
G02*
X96925500Y-127651000I124500J0D01*
G01*
X97174500Y-127651000D01*
G75*
G02*
X97299000Y-127775500I0J-124500D01*
G01*
X97299000Y-129024500D01*
G75*
G02*
X97174500Y-129149000I-124500J0D01*
G01*
G37*
G36*
G01*
X96524500Y-129149000D02*
X96275500Y-129149000D01*
G75*
G02*
X96151000Y-129024500I0J124500D01*
G01*
X96151000Y-127775500D01*
G75*
G02*
X96275500Y-127651000I124500J0D01*
G01*
X96524500Y-127651000D01*
G75*
G02*
X96649000Y-127775500I0J-124500D01*
G01*
X96649000Y-129024500D01*
G75*
G02*
X96524500Y-129149000I-124500J0D01*
G01*
G37*
G36*
G01*
X95874500Y-129149000D02*
X95625500Y-129149000D01*
G75*
G02*
X95501000Y-129024500I0J124500D01*
G01*
X95501000Y-127775500D01*
G75*
G02*
X95625500Y-127651000I124500J0D01*
G01*
X95874500Y-127651000D01*
G75*
G02*
X95999000Y-127775500I0J-124500D01*
G01*
X95999000Y-129024500D01*
G75*
G02*
X95874500Y-129149000I-124500J0D01*
G01*
G37*
G36*
G01*
X95224500Y-129149000D02*
X94975500Y-129149000D01*
G75*
G02*
X94851000Y-129024500I0J124500D01*
G01*
X94851000Y-127775500D01*
G75*
G02*
X94975500Y-127651000I124500J0D01*
G01*
X95224500Y-127651000D01*
G75*
G02*
X95349000Y-127775500I0J-124500D01*
G01*
X95349000Y-129024500D01*
G75*
G02*
X95224500Y-129149000I-124500J0D01*
G01*
G37*
G36*
G01*
X94574500Y-129149000D02*
X94325500Y-129149000D01*
G75*
G02*
X94201000Y-129024500I0J124500D01*
G01*
X94201000Y-127775500D01*
G75*
G02*
X94325500Y-127651000I124500J0D01*
G01*
X94574500Y-127651000D01*
G75*
G02*
X94699000Y-127775500I0J-124500D01*
G01*
X94699000Y-129024500D01*
G75*
G02*
X94574500Y-129149000I-124500J0D01*
G01*
G37*
G36*
G01*
X93924500Y-129149000D02*
X93675500Y-129149000D01*
G75*
G02*
X93551000Y-129024500I0J124500D01*
G01*
X93551000Y-127775500D01*
G75*
G02*
X93675500Y-127651000I124500J0D01*
G01*
X93924500Y-127651000D01*
G75*
G02*
X94049000Y-127775500I0J-124500D01*
G01*
X94049000Y-129024500D01*
G75*
G02*
X93924500Y-129149000I-124500J0D01*
G01*
G37*
G36*
G01*
X93274500Y-129149000D02*
X93025500Y-129149000D01*
G75*
G02*
X92901000Y-129024500I0J124500D01*
G01*
X92901000Y-127775500D01*
G75*
G02*
X93025500Y-127651000I124500J0D01*
G01*
X93274500Y-127651000D01*
G75*
G02*
X93399000Y-127775500I0J-124500D01*
G01*
X93399000Y-129024500D01*
G75*
G02*
X93274500Y-129149000I-124500J0D01*
G01*
G37*
G36*
G01*
X92624500Y-129149000D02*
X92375500Y-129149000D01*
G75*
G02*
X92251000Y-129024500I0J124500D01*
G01*
X92251000Y-127775500D01*
G75*
G02*
X92375500Y-127651000I124500J0D01*
G01*
X92624500Y-127651000D01*
G75*
G02*
X92749000Y-127775500I0J-124500D01*
G01*
X92749000Y-129024500D01*
G75*
G02*
X92624500Y-129149000I-124500J0D01*
G01*
G37*
G36*
G01*
X83424500Y-123249000D02*
X83175500Y-123249000D01*
G75*
G02*
X83051000Y-123124500I0J124500D01*
G01*
X83051000Y-121875500D01*
G75*
G02*
X83175500Y-121751000I124500J0D01*
G01*
X83424500Y-121751000D01*
G75*
G02*
X83549000Y-121875500I0J-124500D01*
G01*
X83549000Y-123124500D01*
G75*
G02*
X83424500Y-123249000I-124500J0D01*
G01*
G37*
G36*
G01*
X84074500Y-123249000D02*
X83825500Y-123249000D01*
G75*
G02*
X83701000Y-123124500I0J124500D01*
G01*
X83701000Y-121875500D01*
G75*
G02*
X83825500Y-121751000I124500J0D01*
G01*
X84074500Y-121751000D01*
G75*
G02*
X84199000Y-121875500I0J-124500D01*
G01*
X84199000Y-123124500D01*
G75*
G02*
X84074500Y-123249000I-124500J0D01*
G01*
G37*
G36*
G01*
X84724500Y-123249000D02*
X84475500Y-123249000D01*
G75*
G02*
X84351000Y-123124500I0J124500D01*
G01*
X84351000Y-121875500D01*
G75*
G02*
X84475500Y-121751000I124500J0D01*
G01*
X84724500Y-121751000D01*
G75*
G02*
X84849000Y-121875500I0J-124500D01*
G01*
X84849000Y-123124500D01*
G75*
G02*
X84724500Y-123249000I-124500J0D01*
G01*
G37*
G36*
G01*
X85374500Y-123249000D02*
X85125500Y-123249000D01*
G75*
G02*
X85001000Y-123124500I0J124500D01*
G01*
X85001000Y-121875500D01*
G75*
G02*
X85125500Y-121751000I124500J0D01*
G01*
X85374500Y-121751000D01*
G75*
G02*
X85499000Y-121875500I0J-124500D01*
G01*
X85499000Y-123124500D01*
G75*
G02*
X85374500Y-123249000I-124500J0D01*
G01*
G37*
G36*
G01*
X86024500Y-123249000D02*
X85775500Y-123249000D01*
G75*
G02*
X85651000Y-123124500I0J124500D01*
G01*
X85651000Y-121875500D01*
G75*
G02*
X85775500Y-121751000I124500J0D01*
G01*
X86024500Y-121751000D01*
G75*
G02*
X86149000Y-121875500I0J-124500D01*
G01*
X86149000Y-123124500D01*
G75*
G02*
X86024500Y-123249000I-124500J0D01*
G01*
G37*
G36*
G01*
X86674500Y-123249000D02*
X86425500Y-123249000D01*
G75*
G02*
X86301000Y-123124500I0J124500D01*
G01*
X86301000Y-121875500D01*
G75*
G02*
X86425500Y-121751000I124500J0D01*
G01*
X86674500Y-121751000D01*
G75*
G02*
X86799000Y-121875500I0J-124500D01*
G01*
X86799000Y-123124500D01*
G75*
G02*
X86674500Y-123249000I-124500J0D01*
G01*
G37*
G36*
G01*
X87324500Y-123249000D02*
X87075500Y-123249000D01*
G75*
G02*
X86951000Y-123124500I0J124500D01*
G01*
X86951000Y-121875500D01*
G75*
G02*
X87075500Y-121751000I124500J0D01*
G01*
X87324500Y-121751000D01*
G75*
G02*
X87449000Y-121875500I0J-124500D01*
G01*
X87449000Y-123124500D01*
G75*
G02*
X87324500Y-123249000I-124500J0D01*
G01*
G37*
G36*
G01*
X87974500Y-123249000D02*
X87725500Y-123249000D01*
G75*
G02*
X87601000Y-123124500I0J124500D01*
G01*
X87601000Y-121875500D01*
G75*
G02*
X87725500Y-121751000I124500J0D01*
G01*
X87974500Y-121751000D01*
G75*
G02*
X88099000Y-121875500I0J-124500D01*
G01*
X88099000Y-123124500D01*
G75*
G02*
X87974500Y-123249000I-124500J0D01*
G01*
G37*
G36*
G01*
X88624500Y-123249000D02*
X88375500Y-123249000D01*
G75*
G02*
X88251000Y-123124500I0J124500D01*
G01*
X88251000Y-121875500D01*
G75*
G02*
X88375500Y-121751000I124500J0D01*
G01*
X88624500Y-121751000D01*
G75*
G02*
X88749000Y-121875500I0J-124500D01*
G01*
X88749000Y-123124500D01*
G75*
G02*
X88624500Y-123249000I-124500J0D01*
G01*
G37*
G36*
G01*
X89274500Y-123249000D02*
X89025500Y-123249000D01*
G75*
G02*
X88901000Y-123124500I0J124500D01*
G01*
X88901000Y-121875500D01*
G75*
G02*
X89025500Y-121751000I124500J0D01*
G01*
X89274500Y-121751000D01*
G75*
G02*
X89399000Y-121875500I0J-124500D01*
G01*
X89399000Y-123124500D01*
G75*
G02*
X89274500Y-123249000I-124500J0D01*
G01*
G37*
G36*
G01*
X89274500Y-129149000D02*
X89025500Y-129149000D01*
G75*
G02*
X88901000Y-129024500I0J124500D01*
G01*
X88901000Y-127775500D01*
G75*
G02*
X89025500Y-127651000I124500J0D01*
G01*
X89274500Y-127651000D01*
G75*
G02*
X89399000Y-127775500I0J-124500D01*
G01*
X89399000Y-129024500D01*
G75*
G02*
X89274500Y-129149000I-124500J0D01*
G01*
G37*
G36*
G01*
X88624500Y-129149000D02*
X88375500Y-129149000D01*
G75*
G02*
X88251000Y-129024500I0J124500D01*
G01*
X88251000Y-127775500D01*
G75*
G02*
X88375500Y-127651000I124500J0D01*
G01*
X88624500Y-127651000D01*
G75*
G02*
X88749000Y-127775500I0J-124500D01*
G01*
X88749000Y-129024500D01*
G75*
G02*
X88624500Y-129149000I-124500J0D01*
G01*
G37*
G36*
G01*
X87974500Y-129149000D02*
X87725500Y-129149000D01*
G75*
G02*
X87601000Y-129024500I0J124500D01*
G01*
X87601000Y-127775500D01*
G75*
G02*
X87725500Y-127651000I124500J0D01*
G01*
X87974500Y-127651000D01*
G75*
G02*
X88099000Y-127775500I0J-124500D01*
G01*
X88099000Y-129024500D01*
G75*
G02*
X87974500Y-129149000I-124500J0D01*
G01*
G37*
G36*
G01*
X87324500Y-129149000D02*
X87075500Y-129149000D01*
G75*
G02*
X86951000Y-129024500I0J124500D01*
G01*
X86951000Y-127775500D01*
G75*
G02*
X87075500Y-127651000I124500J0D01*
G01*
X87324500Y-127651000D01*
G75*
G02*
X87449000Y-127775500I0J-124500D01*
G01*
X87449000Y-129024500D01*
G75*
G02*
X87324500Y-129149000I-124500J0D01*
G01*
G37*
G36*
G01*
X86674500Y-129149000D02*
X86425500Y-129149000D01*
G75*
G02*
X86301000Y-129024500I0J124500D01*
G01*
X86301000Y-127775500D01*
G75*
G02*
X86425500Y-127651000I124500J0D01*
G01*
X86674500Y-127651000D01*
G75*
G02*
X86799000Y-127775500I0J-124500D01*
G01*
X86799000Y-129024500D01*
G75*
G02*
X86674500Y-129149000I-124500J0D01*
G01*
G37*
G36*
G01*
X86024500Y-129149000D02*
X85775500Y-129149000D01*
G75*
G02*
X85651000Y-129024500I0J124500D01*
G01*
X85651000Y-127775500D01*
G75*
G02*
X85775500Y-127651000I124500J0D01*
G01*
X86024500Y-127651000D01*
G75*
G02*
X86149000Y-127775500I0J-124500D01*
G01*
X86149000Y-129024500D01*
G75*
G02*
X86024500Y-129149000I-124500J0D01*
G01*
G37*
G36*
G01*
X85374500Y-129149000D02*
X85125500Y-129149000D01*
G75*
G02*
X85001000Y-129024500I0J124500D01*
G01*
X85001000Y-127775500D01*
G75*
G02*
X85125500Y-127651000I124500J0D01*
G01*
X85374500Y-127651000D01*
G75*
G02*
X85499000Y-127775500I0J-124500D01*
G01*
X85499000Y-129024500D01*
G75*
G02*
X85374500Y-129149000I-124500J0D01*
G01*
G37*
G36*
G01*
X84724500Y-129149000D02*
X84475500Y-129149000D01*
G75*
G02*
X84351000Y-129024500I0J124500D01*
G01*
X84351000Y-127775500D01*
G75*
G02*
X84475500Y-127651000I124500J0D01*
G01*
X84724500Y-127651000D01*
G75*
G02*
X84849000Y-127775500I0J-124500D01*
G01*
X84849000Y-129024500D01*
G75*
G02*
X84724500Y-129149000I-124500J0D01*
G01*
G37*
G36*
G01*
X84074500Y-129149000D02*
X83825500Y-129149000D01*
G75*
G02*
X83701000Y-129024500I0J124500D01*
G01*
X83701000Y-127775500D01*
G75*
G02*
X83825500Y-127651000I124500J0D01*
G01*
X84074500Y-127651000D01*
G75*
G02*
X84199000Y-127775500I0J-124500D01*
G01*
X84199000Y-129024500D01*
G75*
G02*
X84074500Y-129149000I-124500J0D01*
G01*
G37*
G36*
G01*
X83424500Y-129149000D02*
X83175500Y-129149000D01*
G75*
G02*
X83051000Y-129024500I0J124500D01*
G01*
X83051000Y-127775500D01*
G75*
G02*
X83175500Y-127651000I124500J0D01*
G01*
X83424500Y-127651000D01*
G75*
G02*
X83549000Y-127775500I0J-124500D01*
G01*
X83549000Y-129024500D01*
G75*
G02*
X83424500Y-129149000I-124500J0D01*
G01*
G37*
G36*
G01*
X54425000Y-99637500D02*
X54425000Y-99062500D01*
G75*
G02*
X54662500Y-98825000I237500J0D01*
G01*
X55137500Y-98825000D01*
G75*
G02*
X55375000Y-99062500I0J-237500D01*
G01*
X55375000Y-99637500D01*
G75*
G02*
X55137500Y-99875000I-237500J0D01*
G01*
X54662500Y-99875000D01*
G75*
G02*
X54425000Y-99637500I0J237500D01*
G01*
G37*
G36*
G01*
X52925000Y-99637500D02*
X52925000Y-99062500D01*
G75*
G02*
X53162500Y-98825000I237500J0D01*
G01*
X53637500Y-98825000D01*
G75*
G02*
X53875000Y-99062500I0J-237500D01*
G01*
X53875000Y-99637500D01*
G75*
G02*
X53637500Y-99875000I-237500J0D01*
G01*
X53162500Y-99875000D01*
G75*
G02*
X52925000Y-99637500I0J237500D01*
G01*
G37*
G36*
G01*
X59425000Y-124712500D02*
X59425000Y-123787500D01*
G75*
G02*
X59712500Y-123500000I287500J0D01*
G01*
X60287500Y-123500000D01*
G75*
G02*
X60575000Y-123787500I0J-287500D01*
G01*
X60575000Y-124712500D01*
G75*
G02*
X60287500Y-125000000I-287500J0D01*
G01*
X59712500Y-125000000D01*
G75*
G02*
X59425000Y-124712500I0J287500D01*
G01*
G37*
G36*
G01*
X57725000Y-124712500D02*
X57725000Y-123787500D01*
G75*
G02*
X58012500Y-123500000I287500J0D01*
G01*
X58587500Y-123500000D01*
G75*
G02*
X58875000Y-123787500I0J-287500D01*
G01*
X58875000Y-124712500D01*
G75*
G02*
X58587500Y-125000000I-287500J0D01*
G01*
X58012500Y-125000000D01*
G75*
G02*
X57725000Y-124712500I0J287500D01*
G01*
G37*
G36*
G01*
X56821000Y-138608500D02*
X56821000Y-131955500D01*
G75*
G02*
X57239500Y-131537000I418500J0D01*
G01*
X58076500Y-131537000D01*
G75*
G02*
X58495000Y-131955500I0J-418500D01*
G01*
X58495000Y-138608500D01*
G75*
G02*
X58076500Y-139027000I-418500J0D01*
G01*
X57239500Y-139027000D01*
G75*
G02*
X56821000Y-138608500I0J418500D01*
G01*
G37*
G36*
G01*
X59361000Y-138608500D02*
X59361000Y-131955500D01*
G75*
G02*
X59779500Y-131537000I418500J0D01*
G01*
X60616500Y-131537000D01*
G75*
G02*
X61035000Y-131955500I0J-418500D01*
G01*
X61035000Y-138608500D01*
G75*
G02*
X60616500Y-139027000I-418500J0D01*
G01*
X59779500Y-139027000D01*
G75*
G02*
X59361000Y-138608500I0J418500D01*
G01*
G37*
G36*
G01*
X61901000Y-138608500D02*
X61901000Y-131955500D01*
G75*
G02*
X62319500Y-131537000I418500J0D01*
G01*
X63156500Y-131537000D01*
G75*
G02*
X63575000Y-131955500I0J-418500D01*
G01*
X63575000Y-138608500D01*
G75*
G02*
X63156500Y-139027000I-418500J0D01*
G01*
X62319500Y-139027000D01*
G75*
G02*
X61901000Y-138608500I0J418500D01*
G01*
G37*
G36*
G01*
X64441000Y-138608500D02*
X64441000Y-131955500D01*
G75*
G02*
X64859500Y-131537000I418500J0D01*
G01*
X65696500Y-131537000D01*
G75*
G02*
X66115000Y-131955500I0J-418500D01*
G01*
X66115000Y-138608500D01*
G75*
G02*
X65696500Y-139027000I-418500J0D01*
G01*
X64859500Y-139027000D01*
G75*
G02*
X64441000Y-138608500I0J418500D01*
G01*
G37*
G36*
G01*
X66981000Y-138608500D02*
X66981000Y-131955500D01*
G75*
G02*
X67399500Y-131537000I418500J0D01*
G01*
X68236500Y-131537000D01*
G75*
G02*
X68655000Y-131955500I0J-418500D01*
G01*
X68655000Y-138608500D01*
G75*
G02*
X68236500Y-139027000I-418500J0D01*
G01*
X67399500Y-139027000D01*
G75*
G02*
X66981000Y-138608500I0J418500D01*
G01*
G37*
G36*
G01*
X69521000Y-138608500D02*
X69521000Y-131955500D01*
G75*
G02*
X69939500Y-131537000I418500J0D01*
G01*
X70776500Y-131537000D01*
G75*
G02*
X71195000Y-131955500I0J-418500D01*
G01*
X71195000Y-138608500D01*
G75*
G02*
X70776500Y-139027000I-418500J0D01*
G01*
X69939500Y-139027000D01*
G75*
G02*
X69521000Y-138608500I0J418500D01*
G01*
G37*
G36*
G01*
X72061000Y-138608500D02*
X72061000Y-131955500D01*
G75*
G02*
X72479500Y-131537000I418500J0D01*
G01*
X73316500Y-131537000D01*
G75*
G02*
X73735000Y-131955500I0J-418500D01*
G01*
X73735000Y-138608500D01*
G75*
G02*
X73316500Y-139027000I-418500J0D01*
G01*
X72479500Y-139027000D01*
G75*
G02*
X72061000Y-138608500I0J418500D01*
G01*
G37*
G36*
G01*
X74601000Y-138608500D02*
X74601000Y-131955500D01*
G75*
G02*
X75019500Y-131537000I418500J0D01*
G01*
X75856500Y-131537000D01*
G75*
G02*
X76275000Y-131955500I0J-418500D01*
G01*
X76275000Y-138608500D01*
G75*
G02*
X75856500Y-139027000I-418500J0D01*
G01*
X75019500Y-139027000D01*
G75*
G02*
X74601000Y-138608500I0J418500D01*
G01*
G37*
G36*
G01*
X77141000Y-138608500D02*
X77141000Y-131955500D01*
G75*
G02*
X77559500Y-131537000I418500J0D01*
G01*
X78396500Y-131537000D01*
G75*
G02*
X78815000Y-131955500I0J-418500D01*
G01*
X78815000Y-138608500D01*
G75*
G02*
X78396500Y-139027000I-418500J0D01*
G01*
X77559500Y-139027000D01*
G75*
G02*
X77141000Y-138608500I0J418500D01*
G01*
G37*
G36*
G01*
X79681000Y-138608500D02*
X79681000Y-131955500D01*
G75*
G02*
X80099500Y-131537000I418500J0D01*
G01*
X80936500Y-131537000D01*
G75*
G02*
X81355000Y-131955500I0J-418500D01*
G01*
X81355000Y-138608500D01*
G75*
G02*
X80936500Y-139027000I-418500J0D01*
G01*
X80099500Y-139027000D01*
G75*
G02*
X79681000Y-138608500I0J418500D01*
G01*
G37*
G36*
G01*
X82221000Y-138608500D02*
X82221000Y-131955500D01*
G75*
G02*
X82639500Y-131537000I418500J0D01*
G01*
X83476500Y-131537000D01*
G75*
G02*
X83895000Y-131955500I0J-418500D01*
G01*
X83895000Y-138608500D01*
G75*
G02*
X83476500Y-139027000I-418500J0D01*
G01*
X82639500Y-139027000D01*
G75*
G02*
X82221000Y-138608500I0J418500D01*
G01*
G37*
G36*
G01*
X84761000Y-138608500D02*
X84761000Y-131955500D01*
G75*
G02*
X85179500Y-131537000I418500J0D01*
G01*
X86016500Y-131537000D01*
G75*
G02*
X86435000Y-131955500I0J-418500D01*
G01*
X86435000Y-138608500D01*
G75*
G02*
X86016500Y-139027000I-418500J0D01*
G01*
X85179500Y-139027000D01*
G75*
G02*
X84761000Y-138608500I0J418500D01*
G01*
G37*
G36*
G01*
X87301000Y-138608500D02*
X87301000Y-131955500D01*
G75*
G02*
X87719500Y-131537000I418500J0D01*
G01*
X88556500Y-131537000D01*
G75*
G02*
X88975000Y-131955500I0J-418500D01*
G01*
X88975000Y-138608500D01*
G75*
G02*
X88556500Y-139027000I-418500J0D01*
G01*
X87719500Y-139027000D01*
G75*
G02*
X87301000Y-138608500I0J418500D01*
G01*
G37*
G36*
G01*
X89841000Y-138608500D02*
X89841000Y-131955500D01*
G75*
G02*
X90259500Y-131537000I418500J0D01*
G01*
X91096500Y-131537000D01*
G75*
G02*
X91515000Y-131955500I0J-418500D01*
G01*
X91515000Y-138608500D01*
G75*
G02*
X91096500Y-139027000I-418500J0D01*
G01*
X90259500Y-139027000D01*
G75*
G02*
X89841000Y-138608500I0J418500D01*
G01*
G37*
G36*
G01*
X92381000Y-138608500D02*
X92381000Y-131955500D01*
G75*
G02*
X92799500Y-131537000I418500J0D01*
G01*
X93636500Y-131537000D01*
G75*
G02*
X94055000Y-131955500I0J-418500D01*
G01*
X94055000Y-138608500D01*
G75*
G02*
X93636500Y-139027000I-418500J0D01*
G01*
X92799500Y-139027000D01*
G75*
G02*
X92381000Y-138608500I0J418500D01*
G01*
G37*
G36*
G01*
X94921000Y-138608500D02*
X94921000Y-131955500D01*
G75*
G02*
X95339500Y-131537000I418500J0D01*
G01*
X96176500Y-131537000D01*
G75*
G02*
X96595000Y-131955500I0J-418500D01*
G01*
X96595000Y-138608500D01*
G75*
G02*
X96176500Y-139027000I-418500J0D01*
G01*
X95339500Y-139027000D01*
G75*
G02*
X94921000Y-138608500I0J418500D01*
G01*
G37*
G36*
G01*
X97461000Y-138608500D02*
X97461000Y-131955500D01*
G75*
G02*
X97879500Y-131537000I418500J0D01*
G01*
X98716500Y-131537000D01*
G75*
G02*
X99135000Y-131955500I0J-418500D01*
G01*
X99135000Y-138608500D01*
G75*
G02*
X98716500Y-139027000I-418500J0D01*
G01*
X97879500Y-139027000D01*
G75*
G02*
X97461000Y-138608500I0J418500D01*
G01*
G37*
G36*
G01*
X100001000Y-138608500D02*
X100001000Y-131955500D01*
G75*
G02*
X100419500Y-131537000I418500J0D01*
G01*
X101256500Y-131537000D01*
G75*
G02*
X101675000Y-131955500I0J-418500D01*
G01*
X101675000Y-138608500D01*
G75*
G02*
X101256500Y-139027000I-418500J0D01*
G01*
X100419500Y-139027000D01*
G75*
G02*
X100001000Y-138608500I0J418500D01*
G01*
G37*
G36*
G01*
X102541000Y-138608500D02*
X102541000Y-131955500D01*
G75*
G02*
X102959500Y-131537000I418500J0D01*
G01*
X103796500Y-131537000D01*
G75*
G02*
X104215000Y-131955500I0J-418500D01*
G01*
X104215000Y-138608500D01*
G75*
G02*
X103796500Y-139027000I-418500J0D01*
G01*
X102959500Y-139027000D01*
G75*
G02*
X102541000Y-138608500I0J418500D01*
G01*
G37*
G36*
G01*
X105081000Y-138608500D02*
X105081000Y-131955500D01*
G75*
G02*
X105499500Y-131537000I418500J0D01*
G01*
X106336500Y-131537000D01*
G75*
G02*
X106755000Y-131955500I0J-418500D01*
G01*
X106755000Y-138608500D01*
G75*
G02*
X106336500Y-139027000I-418500J0D01*
G01*
X105499500Y-139027000D01*
G75*
G02*
X105081000Y-138608500I0J418500D01*
G01*
G37*
G36*
G01*
X107621000Y-138608500D02*
X107621000Y-131955500D01*
G75*
G02*
X108039500Y-131537000I418500J0D01*
G01*
X108876500Y-131537000D01*
G75*
G02*
X109295000Y-131955500I0J-418500D01*
G01*
X109295000Y-138608500D01*
G75*
G02*
X108876500Y-139027000I-418500J0D01*
G01*
X108039500Y-139027000D01*
G75*
G02*
X107621000Y-138608500I0J418500D01*
G01*
G37*
G36*
G01*
X110161000Y-138608500D02*
X110161000Y-131955500D01*
G75*
G02*
X110579500Y-131537000I418500J0D01*
G01*
X111416500Y-131537000D01*
G75*
G02*
X111835000Y-131955500I0J-418500D01*
G01*
X111835000Y-138608500D01*
G75*
G02*
X111416500Y-139027000I-418500J0D01*
G01*
X110579500Y-139027000D01*
G75*
G02*
X110161000Y-138608500I0J418500D01*
G01*
G37*
D21*
X106617090Y-100965987D03*
X103024987Y-104558090D03*
X98983872Y-100516974D03*
X102575974Y-96924872D03*
D22*
X102126962Y-99169936D03*
X103024987Y-100067962D03*
X103923013Y-100965987D03*
X104821038Y-101864013D03*
X105719064Y-102762038D03*
X104821038Y-103660064D03*
X103923013Y-102762038D03*
X103024987Y-101864013D03*
X102126962Y-100965987D03*
X101228936Y-100067962D03*
D23*
X100779923Y-98720923D03*
X105449656Y-104827497D03*
X106886497Y-103390656D03*
G36*
G01*
X107975000Y-116612500D02*
X107975000Y-115687500D01*
G75*
G02*
X108262500Y-115400000I287500J0D01*
G01*
X108837500Y-115400000D01*
G75*
G02*
X109125000Y-115687500I0J-287500D01*
G01*
X109125000Y-116612500D01*
G75*
G02*
X108837500Y-116900000I-287500J0D01*
G01*
X108262500Y-116900000D01*
G75*
G02*
X107975000Y-116612500I0J287500D01*
G01*
G37*
G36*
G01*
X106275000Y-116612500D02*
X106275000Y-115687500D01*
G75*
G02*
X106562500Y-115400000I287500J0D01*
G01*
X107137500Y-115400000D01*
G75*
G02*
X107425000Y-115687500I0J-287500D01*
G01*
X107425000Y-116612500D01*
G75*
G02*
X107137500Y-116900000I-287500J0D01*
G01*
X106562500Y-116900000D01*
G75*
G02*
X106275000Y-116612500I0J287500D01*
G01*
G37*
G36*
G01*
X109775000Y-106012500D02*
X109775000Y-105087500D01*
G75*
G02*
X110062500Y-104800000I287500J0D01*
G01*
X110637500Y-104800000D01*
G75*
G02*
X110925000Y-105087500I0J-287500D01*
G01*
X110925000Y-106012500D01*
G75*
G02*
X110637500Y-106300000I-287500J0D01*
G01*
X110062500Y-106300000D01*
G75*
G02*
X109775000Y-106012500I0J287500D01*
G01*
G37*
G36*
G01*
X108075000Y-106012500D02*
X108075000Y-105087500D01*
G75*
G02*
X108362500Y-104800000I287500J0D01*
G01*
X108937500Y-104800000D01*
G75*
G02*
X109225000Y-105087500I0J-287500D01*
G01*
X109225000Y-106012500D01*
G75*
G02*
X108937500Y-106300000I-287500J0D01*
G01*
X108362500Y-106300000D01*
G75*
G02*
X108075000Y-106012500I0J287500D01*
G01*
G37*
G36*
G01*
X110257000Y-128351500D02*
X110257000Y-127426500D01*
G75*
G02*
X110544500Y-127139000I287500J0D01*
G01*
X111119500Y-127139000D01*
G75*
G02*
X111407000Y-127426500I0J-287500D01*
G01*
X111407000Y-128351500D01*
G75*
G02*
X111119500Y-128639000I-287500J0D01*
G01*
X110544500Y-128639000D01*
G75*
G02*
X110257000Y-128351500I0J287500D01*
G01*
G37*
G36*
G01*
X108557000Y-128351500D02*
X108557000Y-127426500D01*
G75*
G02*
X108844500Y-127139000I287500J0D01*
G01*
X109419500Y-127139000D01*
G75*
G02*
X109707000Y-127426500I0J-287500D01*
G01*
X109707000Y-128351500D01*
G75*
G02*
X109419500Y-128639000I-287500J0D01*
G01*
X108844500Y-128639000D01*
G75*
G02*
X108557000Y-128351500I0J287500D01*
G01*
G37*
G36*
G01*
X58653000Y-128315500D02*
X58653000Y-129240500D01*
G75*
G02*
X58365500Y-129528000I-287500J0D01*
G01*
X57790500Y-129528000D01*
G75*
G02*
X57503000Y-129240500I0J287500D01*
G01*
X57503000Y-128315500D01*
G75*
G02*
X57790500Y-128028000I287500J0D01*
G01*
X58365500Y-128028000D01*
G75*
G02*
X58653000Y-128315500I0J-287500D01*
G01*
G37*
G36*
G01*
X60353000Y-128315500D02*
X60353000Y-129240500D01*
G75*
G02*
X60065500Y-129528000I-287500J0D01*
G01*
X59490500Y-129528000D01*
G75*
G02*
X59203000Y-129240500I0J287500D01*
G01*
X59203000Y-128315500D01*
G75*
G02*
X59490500Y-128028000I287500J0D01*
G01*
X60065500Y-128028000D01*
G75*
G02*
X60353000Y-128315500I0J-287500D01*
G01*
G37*
G36*
G01*
X72312500Y-123525000D02*
X72887500Y-123525000D01*
G75*
G02*
X73125000Y-123762500I0J-237500D01*
G01*
X73125000Y-124237500D01*
G75*
G02*
X72887500Y-124475000I-237500J0D01*
G01*
X72312500Y-124475000D01*
G75*
G02*
X72075000Y-124237500I0J237500D01*
G01*
X72075000Y-123762500D01*
G75*
G02*
X72312500Y-123525000I237500J0D01*
G01*
G37*
G36*
G01*
X72312500Y-122025000D02*
X72887500Y-122025000D01*
G75*
G02*
X73125000Y-122262500I0J-237500D01*
G01*
X73125000Y-122737500D01*
G75*
G02*
X72887500Y-122975000I-237500J0D01*
G01*
X72312500Y-122975000D01*
G75*
G02*
X72075000Y-122737500I0J237500D01*
G01*
X72075000Y-122262500D01*
G75*
G02*
X72312500Y-122025000I237500J0D01*
G01*
G37*
G36*
G01*
X64425000Y-124237500D02*
X64425000Y-123662500D01*
G75*
G02*
X64662500Y-123425000I237500J0D01*
G01*
X65137500Y-123425000D01*
G75*
G02*
X65375000Y-123662500I0J-237500D01*
G01*
X65375000Y-124237500D01*
G75*
G02*
X65137500Y-124475000I-237500J0D01*
G01*
X64662500Y-124475000D01*
G75*
G02*
X64425000Y-124237500I0J237500D01*
G01*
G37*
G36*
G01*
X62925000Y-124237500D02*
X62925000Y-123662500D01*
G75*
G02*
X63162500Y-123425000I237500J0D01*
G01*
X63637500Y-123425000D01*
G75*
G02*
X63875000Y-123662500I0J-237500D01*
G01*
X63875000Y-124237500D01*
G75*
G02*
X63637500Y-124475000I-237500J0D01*
G01*
X63162500Y-124475000D01*
G75*
G02*
X62925000Y-124237500I0J237500D01*
G01*
G37*
G36*
G01*
X51637500Y-101825000D02*
X51062500Y-101825000D01*
G75*
G02*
X50825000Y-101587500I0J237500D01*
G01*
X50825000Y-101112500D01*
G75*
G02*
X51062500Y-100875000I237500J0D01*
G01*
X51637500Y-100875000D01*
G75*
G02*
X51875000Y-101112500I0J-237500D01*
G01*
X51875000Y-101587500D01*
G75*
G02*
X51637500Y-101825000I-237500J0D01*
G01*
G37*
G36*
G01*
X51637500Y-103325000D02*
X51062500Y-103325000D01*
G75*
G02*
X50825000Y-103087500I0J237500D01*
G01*
X50825000Y-102612500D01*
G75*
G02*
X51062500Y-102375000I237500J0D01*
G01*
X51637500Y-102375000D01*
G75*
G02*
X51875000Y-102612500I0J-237500D01*
G01*
X51875000Y-103087500D01*
G75*
G02*
X51637500Y-103325000I-237500J0D01*
G01*
G37*
G36*
G01*
X64425000Y-99637500D02*
X64425000Y-99062500D01*
G75*
G02*
X64662500Y-98825000I237500J0D01*
G01*
X65137500Y-98825000D01*
G75*
G02*
X65375000Y-99062500I0J-237500D01*
G01*
X65375000Y-99637500D01*
G75*
G02*
X65137500Y-99875000I-237500J0D01*
G01*
X64662500Y-99875000D01*
G75*
G02*
X64425000Y-99637500I0J237500D01*
G01*
G37*
G36*
G01*
X62925000Y-99637500D02*
X62925000Y-99062500D01*
G75*
G02*
X63162500Y-98825000I237500J0D01*
G01*
X63637500Y-98825000D01*
G75*
G02*
X63875000Y-99062500I0J-237500D01*
G01*
X63875000Y-99637500D01*
G75*
G02*
X63637500Y-99875000I-237500J0D01*
G01*
X63162500Y-99875000D01*
G75*
G02*
X62925000Y-99637500I0J237500D01*
G01*
G37*
G36*
G01*
X54425000Y-124237500D02*
X54425000Y-123662500D01*
G75*
G02*
X54662500Y-123425000I237500J0D01*
G01*
X55137500Y-123425000D01*
G75*
G02*
X55375000Y-123662500I0J-237500D01*
G01*
X55375000Y-124237500D01*
G75*
G02*
X55137500Y-124475000I-237500J0D01*
G01*
X54662500Y-124475000D01*
G75*
G02*
X54425000Y-124237500I0J237500D01*
G01*
G37*
G36*
G01*
X52925000Y-124237500D02*
X52925000Y-123662500D01*
G75*
G02*
X53162500Y-123425000I237500J0D01*
G01*
X53637500Y-123425000D01*
G75*
G02*
X53875000Y-123662500I0J-237500D01*
G01*
X53875000Y-124237500D01*
G75*
G02*
X53637500Y-124475000I-237500J0D01*
G01*
X53162500Y-124475000D01*
G75*
G02*
X52925000Y-124237500I0J237500D01*
G01*
G37*
G36*
G01*
X66662500Y-111075000D02*
X67237500Y-111075000D01*
G75*
G02*
X67475000Y-111312500I0J-237500D01*
G01*
X67475000Y-111787500D01*
G75*
G02*
X67237500Y-112025000I-237500J0D01*
G01*
X66662500Y-112025000D01*
G75*
G02*
X66425000Y-111787500I0J237500D01*
G01*
X66425000Y-111312500D01*
G75*
G02*
X66662500Y-111075000I237500J0D01*
G01*
G37*
G36*
G01*
X66662500Y-109575000D02*
X67237500Y-109575000D01*
G75*
G02*
X67475000Y-109812500I0J-237500D01*
G01*
X67475000Y-110287500D01*
G75*
G02*
X67237500Y-110525000I-237500J0D01*
G01*
X66662500Y-110525000D01*
G75*
G02*
X66425000Y-110287500I0J237500D01*
G01*
X66425000Y-109812500D01*
G75*
G02*
X66662500Y-109575000I237500J0D01*
G01*
G37*
G36*
G01*
X51637500Y-106625000D02*
X51062500Y-106625000D01*
G75*
G02*
X50825000Y-106387500I0J237500D01*
G01*
X50825000Y-105912500D01*
G75*
G02*
X51062500Y-105675000I237500J0D01*
G01*
X51637500Y-105675000D01*
G75*
G02*
X51875000Y-105912500I0J-237500D01*
G01*
X51875000Y-106387500D01*
G75*
G02*
X51637500Y-106625000I-237500J0D01*
G01*
G37*
G36*
G01*
X51637500Y-108125000D02*
X51062500Y-108125000D01*
G75*
G02*
X50825000Y-107887500I0J237500D01*
G01*
X50825000Y-107412500D01*
G75*
G02*
X51062500Y-107175000I237500J0D01*
G01*
X51637500Y-107175000D01*
G75*
G02*
X51875000Y-107412500I0J-237500D01*
G01*
X51875000Y-107887500D01*
G75*
G02*
X51637500Y-108125000I-237500J0D01*
G01*
G37*
G36*
G01*
X51637500Y-110625000D02*
X51062500Y-110625000D01*
G75*
G02*
X50825000Y-110387500I0J237500D01*
G01*
X50825000Y-109912500D01*
G75*
G02*
X51062500Y-109675000I237500J0D01*
G01*
X51637500Y-109675000D01*
G75*
G02*
X51875000Y-109912500I0J-237500D01*
G01*
X51875000Y-110387500D01*
G75*
G02*
X51637500Y-110625000I-237500J0D01*
G01*
G37*
G36*
G01*
X51637500Y-112125000D02*
X51062500Y-112125000D01*
G75*
G02*
X50825000Y-111887500I0J237500D01*
G01*
X50825000Y-111412500D01*
G75*
G02*
X51062500Y-111175000I237500J0D01*
G01*
X51637500Y-111175000D01*
G75*
G02*
X51875000Y-111412500I0J-237500D01*
G01*
X51875000Y-111887500D01*
G75*
G02*
X51637500Y-112125000I-237500J0D01*
G01*
G37*
G36*
G01*
X66662500Y-106275000D02*
X67237500Y-106275000D01*
G75*
G02*
X67475000Y-106512500I0J-237500D01*
G01*
X67475000Y-106987500D01*
G75*
G02*
X67237500Y-107225000I-237500J0D01*
G01*
X66662500Y-107225000D01*
G75*
G02*
X66425000Y-106987500I0J237500D01*
G01*
X66425000Y-106512500D01*
G75*
G02*
X66662500Y-106275000I237500J0D01*
G01*
G37*
G36*
G01*
X66662500Y-104775000D02*
X67237500Y-104775000D01*
G75*
G02*
X67475000Y-105012500I0J-237500D01*
G01*
X67475000Y-105487500D01*
G75*
G02*
X67237500Y-105725000I-237500J0D01*
G01*
X66662500Y-105725000D01*
G75*
G02*
X66425000Y-105487500I0J237500D01*
G01*
X66425000Y-105012500D01*
G75*
G02*
X66662500Y-104775000I237500J0D01*
G01*
G37*
G36*
G01*
X99912500Y-123525000D02*
X100487500Y-123525000D01*
G75*
G02*
X100725000Y-123762500I0J-237500D01*
G01*
X100725000Y-124237500D01*
G75*
G02*
X100487500Y-124475000I-237500J0D01*
G01*
X99912500Y-124475000D01*
G75*
G02*
X99675000Y-124237500I0J237500D01*
G01*
X99675000Y-123762500D01*
G75*
G02*
X99912500Y-123525000I237500J0D01*
G01*
G37*
G36*
G01*
X99912500Y-122025000D02*
X100487500Y-122025000D01*
G75*
G02*
X100725000Y-122262500I0J-237500D01*
G01*
X100725000Y-122737500D01*
G75*
G02*
X100487500Y-122975000I-237500J0D01*
G01*
X99912500Y-122975000D01*
G75*
G02*
X99675000Y-122737500I0J237500D01*
G01*
X99675000Y-122262500D01*
G75*
G02*
X99912500Y-122025000I237500J0D01*
G01*
G37*
G36*
G01*
X81512500Y-123525000D02*
X82087500Y-123525000D01*
G75*
G02*
X82325000Y-123762500I0J-237500D01*
G01*
X82325000Y-124237500D01*
G75*
G02*
X82087500Y-124475000I-237500J0D01*
G01*
X81512500Y-124475000D01*
G75*
G02*
X81275000Y-124237500I0J237500D01*
G01*
X81275000Y-123762500D01*
G75*
G02*
X81512500Y-123525000I237500J0D01*
G01*
G37*
G36*
G01*
X81512500Y-122025000D02*
X82087500Y-122025000D01*
G75*
G02*
X82325000Y-122262500I0J-237500D01*
G01*
X82325000Y-122737500D01*
G75*
G02*
X82087500Y-122975000I-237500J0D01*
G01*
X81512500Y-122975000D01*
G75*
G02*
X81275000Y-122737500I0J237500D01*
G01*
X81275000Y-122262500D01*
G75*
G02*
X81512500Y-122025000I237500J0D01*
G01*
G37*
G36*
G01*
X90712500Y-123525000D02*
X91287500Y-123525000D01*
G75*
G02*
X91525000Y-123762500I0J-237500D01*
G01*
X91525000Y-124237500D01*
G75*
G02*
X91287500Y-124475000I-237500J0D01*
G01*
X90712500Y-124475000D01*
G75*
G02*
X90475000Y-124237500I0J237500D01*
G01*
X90475000Y-123762500D01*
G75*
G02*
X90712500Y-123525000I237500J0D01*
G01*
G37*
G36*
G01*
X90712500Y-122025000D02*
X91287500Y-122025000D01*
G75*
G02*
X91525000Y-122262500I0J-237500D01*
G01*
X91525000Y-122737500D01*
G75*
G02*
X91287500Y-122975000I-237500J0D01*
G01*
X90712500Y-122975000D01*
G75*
G02*
X90475000Y-122737500I0J237500D01*
G01*
X90475000Y-122262500D01*
G75*
G02*
X90712500Y-122025000I237500J0D01*
G01*
G37*
D20*
X51054000Y-93726000D03*
X110236000Y-117983000D03*
X100330000Y-93726000D03*
D24*
X110998000Y-130175000D03*
D19*
X48514000Y-93726000D03*
X102870000Y-93726000D03*
X111506000Y-115189000D03*
G36*
G01*
X109437500Y-121725000D02*
X108862500Y-121725000D01*
G75*
G02*
X108625000Y-121487500I0J237500D01*
G01*
X108625000Y-121012500D01*
G75*
G02*
X108862500Y-120775000I237500J0D01*
G01*
X109437500Y-120775000D01*
G75*
G02*
X109675000Y-121012500I0J-237500D01*
G01*
X109675000Y-121487500D01*
G75*
G02*
X109437500Y-121725000I-237500J0D01*
G01*
G37*
G36*
G01*
X109437500Y-120225000D02*
X108862500Y-120225000D01*
G75*
G02*
X108625000Y-119987500I0J237500D01*
G01*
X108625000Y-119512500D01*
G75*
G02*
X108862500Y-119275000I237500J0D01*
G01*
X109437500Y-119275000D01*
G75*
G02*
X109675000Y-119512500I0J-237500D01*
G01*
X109675000Y-119987500D01*
G75*
G02*
X109437500Y-120225000I-237500J0D01*
G01*
G37*
G36*
G01*
X101425000Y-119987500D02*
X101425000Y-121012500D01*
G75*
G02*
X101187500Y-121250000I-237500J0D01*
G01*
X100712500Y-121250000D01*
G75*
G02*
X100475000Y-121012500I0J237500D01*
G01*
X100475000Y-119987500D01*
G75*
G02*
X100712500Y-119750000I237500J0D01*
G01*
X101187500Y-119750000D01*
G75*
G02*
X101425000Y-119987500I0J-237500D01*
G01*
G37*
G36*
G01*
X99525000Y-119987500D02*
X99525000Y-121012500D01*
G75*
G02*
X99287500Y-121250000I-237500J0D01*
G01*
X98812500Y-121250000D01*
G75*
G02*
X98575000Y-121012500I0J237500D01*
G01*
X98575000Y-119987500D01*
G75*
G02*
X98812500Y-119750000I237500J0D01*
G01*
X99287500Y-119750000D01*
G75*
G02*
X99525000Y-119987500I0J-237500D01*
G01*
G37*
G36*
G01*
X111237500Y-123925000D02*
X110862500Y-123925000D01*
G75*
G02*
X110675000Y-123737500I0J187500D01*
G01*
X110675000Y-122662500D01*
G75*
G02*
X110862500Y-122475000I187500J0D01*
G01*
X111237500Y-122475000D01*
G75*
G02*
X111425000Y-122662500I0J-187500D01*
G01*
X111425000Y-123737500D01*
G75*
G02*
X111237500Y-123925000I-187500J0D01*
G01*
G37*
G36*
G01*
X109337500Y-123925000D02*
X108962500Y-123925000D01*
G75*
G02*
X108775000Y-123737500I0J187500D01*
G01*
X108775000Y-122662500D01*
G75*
G02*
X108962500Y-122475000I187500J0D01*
G01*
X109337500Y-122475000D01*
G75*
G02*
X109525000Y-122662500I0J-187500D01*
G01*
X109525000Y-123737500D01*
G75*
G02*
X109337500Y-123925000I-187500J0D01*
G01*
G37*
G36*
G01*
X110287500Y-126025000D02*
X109912500Y-126025000D01*
G75*
G02*
X109725000Y-125837500I0J187500D01*
G01*
X109725000Y-124762500D01*
G75*
G02*
X109912500Y-124575000I187500J0D01*
G01*
X110287500Y-124575000D01*
G75*
G02*
X110475000Y-124762500I0J-187500D01*
G01*
X110475000Y-125837500D01*
G75*
G02*
X110287500Y-126025000I-187500J0D01*
G01*
G37*
G36*
G01*
X111237500Y-126025000D02*
X110862500Y-126025000D01*
G75*
G02*
X110675000Y-125837500I0J187500D01*
G01*
X110675000Y-124762500D01*
G75*
G02*
X110862500Y-124575000I187500J0D01*
G01*
X111237500Y-124575000D01*
G75*
G02*
X111425000Y-124762500I0J-187500D01*
G01*
X111425000Y-125837500D01*
G75*
G02*
X111237500Y-126025000I-187500J0D01*
G01*
G37*
G36*
G01*
X109337500Y-126025000D02*
X108962500Y-126025000D01*
G75*
G02*
X108775000Y-125837500I0J187500D01*
G01*
X108775000Y-124762500D01*
G75*
G02*
X108962500Y-124575000I187500J0D01*
G01*
X109337500Y-124575000D01*
G75*
G02*
X109525000Y-124762500I0J-187500D01*
G01*
X109525000Y-125837500D01*
G75*
G02*
X109337500Y-126025000I-187500J0D01*
G01*
G37*
G36*
G01*
X80875000Y-117962500D02*
X80875000Y-118537500D01*
G75*
G02*
X80637500Y-118775000I-237500J0D01*
G01*
X80162500Y-118775000D01*
G75*
G02*
X79925000Y-118537500I0J237500D01*
G01*
X79925000Y-117962500D01*
G75*
G02*
X80162500Y-117725000I237500J0D01*
G01*
X80637500Y-117725000D01*
G75*
G02*
X80875000Y-117962500I0J-237500D01*
G01*
G37*
G36*
G01*
X82375000Y-117962500D02*
X82375000Y-118537500D01*
G75*
G02*
X82137500Y-118775000I-237500J0D01*
G01*
X81662500Y-118775000D01*
G75*
G02*
X81425000Y-118537500I0J237500D01*
G01*
X81425000Y-117962500D01*
G75*
G02*
X81662500Y-117725000I237500J0D01*
G01*
X82137500Y-117725000D01*
G75*
G02*
X82375000Y-117962500I0J-237500D01*
G01*
G37*
G36*
G01*
X91875000Y-98562500D02*
X91875000Y-99137500D01*
G75*
G02*
X91637500Y-99375000I-237500J0D01*
G01*
X91162500Y-99375000D01*
G75*
G02*
X90925000Y-99137500I0J237500D01*
G01*
X90925000Y-98562500D01*
G75*
G02*
X91162500Y-98325000I237500J0D01*
G01*
X91637500Y-98325000D01*
G75*
G02*
X91875000Y-98562500I0J-237500D01*
G01*
G37*
G36*
G01*
X90375000Y-98562500D02*
X90375000Y-99137500D01*
G75*
G02*
X90137500Y-99375000I-237500J0D01*
G01*
X89662500Y-99375000D01*
G75*
G02*
X89425000Y-99137500I0J237500D01*
G01*
X89425000Y-98562500D01*
G75*
G02*
X89662500Y-98325000I237500J0D01*
G01*
X90137500Y-98325000D01*
G75*
G02*
X90375000Y-98562500I0J-237500D01*
G01*
G37*
G36*
G01*
X87375000Y-117962500D02*
X87375000Y-118537500D01*
G75*
G02*
X87137500Y-118775000I-237500J0D01*
G01*
X86662500Y-118775000D01*
G75*
G02*
X86425000Y-118537500I0J237500D01*
G01*
X86425000Y-117962500D01*
G75*
G02*
X86662500Y-117725000I237500J0D01*
G01*
X87137500Y-117725000D01*
G75*
G02*
X87375000Y-117962500I0J-237500D01*
G01*
G37*
G36*
G01*
X88875000Y-117962500D02*
X88875000Y-118537500D01*
G75*
G02*
X88637500Y-118775000I-237500J0D01*
G01*
X88162500Y-118775000D01*
G75*
G02*
X87925000Y-118537500I0J237500D01*
G01*
X87925000Y-117962500D01*
G75*
G02*
X88162500Y-117725000I237500J0D01*
G01*
X88637500Y-117725000D01*
G75*
G02*
X88875000Y-117962500I0J-237500D01*
G01*
G37*
G36*
G01*
X80675000Y-99137500D02*
X80675000Y-98562500D01*
G75*
G02*
X80912500Y-98325000I237500J0D01*
G01*
X81387500Y-98325000D01*
G75*
G02*
X81625000Y-98562500I0J-237500D01*
G01*
X81625000Y-99137500D01*
G75*
G02*
X81387500Y-99375000I-237500J0D01*
G01*
X80912500Y-99375000D01*
G75*
G02*
X80675000Y-99137500I0J237500D01*
G01*
G37*
G36*
G01*
X82175000Y-99137500D02*
X82175000Y-98562500D01*
G75*
G02*
X82412500Y-98325000I237500J0D01*
G01*
X82887500Y-98325000D01*
G75*
G02*
X83125000Y-98562500I0J-237500D01*
G01*
X83125000Y-99137500D01*
G75*
G02*
X82887500Y-99375000I-237500J0D01*
G01*
X82412500Y-99375000D01*
G75*
G02*
X82175000Y-99137500I0J237500D01*
G01*
G37*
G36*
G01*
X79875000Y-98562500D02*
X79875000Y-99137500D01*
G75*
G02*
X79637500Y-99375000I-237500J0D01*
G01*
X79162500Y-99375000D01*
G75*
G02*
X78925000Y-99137500I0J237500D01*
G01*
X78925000Y-98562500D01*
G75*
G02*
X79162500Y-98325000I237500J0D01*
G01*
X79637500Y-98325000D01*
G75*
G02*
X79875000Y-98562500I0J-237500D01*
G01*
G37*
G36*
G01*
X78375000Y-98562500D02*
X78375000Y-99137500D01*
G75*
G02*
X78137500Y-99375000I-237500J0D01*
G01*
X77662500Y-99375000D01*
G75*
G02*
X77425000Y-99137500I0J237500D01*
G01*
X77425000Y-98562500D01*
G75*
G02*
X77662500Y-98325000I237500J0D01*
G01*
X78137500Y-98325000D01*
G75*
G02*
X78375000Y-98562500I0J-237500D01*
G01*
G37*
G36*
G01*
X75412500Y-105075000D02*
X75987500Y-105075000D01*
G75*
G02*
X76225000Y-105312500I0J-237500D01*
G01*
X76225000Y-105787500D01*
G75*
G02*
X75987500Y-106025000I-237500J0D01*
G01*
X75412500Y-106025000D01*
G75*
G02*
X75175000Y-105787500I0J237500D01*
G01*
X75175000Y-105312500D01*
G75*
G02*
X75412500Y-105075000I237500J0D01*
G01*
G37*
G36*
G01*
X75412500Y-103575000D02*
X75987500Y-103575000D01*
G75*
G02*
X76225000Y-103812500I0J-237500D01*
G01*
X76225000Y-104287500D01*
G75*
G02*
X75987500Y-104525000I-237500J0D01*
G01*
X75412500Y-104525000D01*
G75*
G02*
X75175000Y-104287500I0J237500D01*
G01*
X75175000Y-103812500D01*
G75*
G02*
X75412500Y-103575000I237500J0D01*
G01*
G37*
G36*
G01*
X90925000Y-118537500D02*
X90925000Y-117962500D01*
G75*
G02*
X91162500Y-117725000I237500J0D01*
G01*
X91637500Y-117725000D01*
G75*
G02*
X91875000Y-117962500I0J-237500D01*
G01*
X91875000Y-118537500D01*
G75*
G02*
X91637500Y-118775000I-237500J0D01*
G01*
X91162500Y-118775000D01*
G75*
G02*
X90925000Y-118537500I0J237500D01*
G01*
G37*
G36*
G01*
X92425000Y-118537500D02*
X92425000Y-117962500D01*
G75*
G02*
X92662500Y-117725000I237500J0D01*
G01*
X93137500Y-117725000D01*
G75*
G02*
X93375000Y-117962500I0J-237500D01*
G01*
X93375000Y-118537500D01*
G75*
G02*
X93137500Y-118775000I-237500J0D01*
G01*
X92662500Y-118775000D01*
G75*
G02*
X92425000Y-118537500I0J237500D01*
G01*
G37*
G36*
G01*
X95387500Y-112025000D02*
X94812500Y-112025000D01*
G75*
G02*
X94575000Y-111787500I0J237500D01*
G01*
X94575000Y-111312500D01*
G75*
G02*
X94812500Y-111075000I237500J0D01*
G01*
X95387500Y-111075000D01*
G75*
G02*
X95625000Y-111312500I0J-237500D01*
G01*
X95625000Y-111787500D01*
G75*
G02*
X95387500Y-112025000I-237500J0D01*
G01*
G37*
G36*
G01*
X95387500Y-113525000D02*
X94812500Y-113525000D01*
G75*
G02*
X94575000Y-113287500I0J237500D01*
G01*
X94575000Y-112812500D01*
G75*
G02*
X94812500Y-112575000I237500J0D01*
G01*
X95387500Y-112575000D01*
G75*
G02*
X95625000Y-112812500I0J-237500D01*
G01*
X95625000Y-113287500D01*
G75*
G02*
X95387500Y-113525000I-237500J0D01*
G01*
G37*
G36*
G01*
X96425000Y-116250000D02*
X97075000Y-116250000D01*
G75*
G02*
X97275000Y-116450000I0J-200000D01*
G01*
X97275000Y-116850000D01*
G75*
G02*
X97075000Y-117050000I-200000J0D01*
G01*
X96425000Y-117050000D01*
G75*
G02*
X96225000Y-116850000I0J200000D01*
G01*
X96225000Y-116450000D01*
G75*
G02*
X96425000Y-116250000I200000J0D01*
G01*
G37*
G36*
G01*
X96425000Y-114650000D02*
X97075000Y-114650000D01*
G75*
G02*
X97275000Y-114850000I0J-200000D01*
G01*
X97275000Y-115250000D01*
G75*
G02*
X97075000Y-115450000I-200000J0D01*
G01*
X96425000Y-115450000D01*
G75*
G02*
X96225000Y-115250000I0J200000D01*
G01*
X96225000Y-114850000D01*
G75*
G02*
X96425000Y-114650000I200000J0D01*
G01*
G37*
G36*
G01*
X97387087Y-105069499D02*
X96980501Y-104662913D01*
G75*
G02*
X96980501Y-104327037I167938J167938D01*
G01*
X97316377Y-103991161D01*
G75*
G02*
X97652253Y-103991161I167938J-167938D01*
G01*
X98058839Y-104397747D01*
G75*
G02*
X98058839Y-104733623I-167938J-167938D01*
G01*
X97722963Y-105069499D01*
G75*
G02*
X97387087Y-105069499I-167938J167938D01*
G01*
G37*
G36*
G01*
X98447747Y-104008839D02*
X98041161Y-103602253D01*
G75*
G02*
X98041161Y-103266377I167938J167938D01*
G01*
X98377037Y-102930501D01*
G75*
G02*
X98712913Y-102930501I167938J-167938D01*
G01*
X99119499Y-103337087D01*
G75*
G02*
X99119499Y-103672963I-167938J-167938D01*
G01*
X98783623Y-104008839D01*
G75*
G02*
X98447747Y-104008839I-167938J167938D01*
G01*
G37*
G36*
G01*
X99612652Y-104996967D02*
X99153033Y-104537348D01*
G75*
G02*
X99153033Y-104254506I141421J141421D01*
G01*
X99435876Y-103971663D01*
G75*
G02*
X99718718Y-103971663I141421J-141421D01*
G01*
X100178337Y-104431282D01*
G75*
G02*
X100178337Y-104714124I-141421J-141421D01*
G01*
X99895494Y-104996967D01*
G75*
G02*
X99612652Y-104996967I-141421J141421D01*
G01*
G37*
G36*
G01*
X98481282Y-106128337D02*
X98021663Y-105668718D01*
G75*
G02*
X98021663Y-105385876I141421J141421D01*
G01*
X98304506Y-105103033D01*
G75*
G02*
X98587348Y-105103033I141421J-141421D01*
G01*
X99046967Y-105562652D01*
G75*
G02*
X99046967Y-105845494I-141421J-141421D01*
G01*
X98764124Y-106128337D01*
G75*
G02*
X98481282Y-106128337I-141421J141421D01*
G01*
G37*
G36*
G01*
X96487348Y-103003033D02*
X96946967Y-103462652D01*
G75*
G02*
X96946967Y-103745494I-141421J-141421D01*
G01*
X96664124Y-104028337D01*
G75*
G02*
X96381282Y-104028337I-141421J141421D01*
G01*
X95921663Y-103568718D01*
G75*
G02*
X95921663Y-103285876I141421J141421D01*
G01*
X96204506Y-103003033D01*
G75*
G02*
X96487348Y-103003033I141421J-141421D01*
G01*
G37*
G36*
G01*
X97618718Y-101871663D02*
X98078337Y-102331282D01*
G75*
G02*
X98078337Y-102614124I-141421J-141421D01*
G01*
X97795494Y-102896967D01*
G75*
G02*
X97512652Y-102896967I-141421J141421D01*
G01*
X97053033Y-102437348D01*
G75*
G02*
X97053033Y-102154506I141421J141421D01*
G01*
X97335876Y-101871663D01*
G75*
G02*
X97618718Y-101871663I141421J-141421D01*
G01*
G37*
G36*
G01*
X97231282Y-99278337D02*
X96771663Y-98818718D01*
G75*
G02*
X96771663Y-98535876I141421J141421D01*
G01*
X97054506Y-98253033D01*
G75*
G02*
X97337348Y-98253033I141421J-141421D01*
G01*
X97796967Y-98712652D01*
G75*
G02*
X97796967Y-98995494I-141421J-141421D01*
G01*
X97514124Y-99278337D01*
G75*
G02*
X97231282Y-99278337I-141421J141421D01*
G01*
G37*
G36*
G01*
X98362652Y-98146967D02*
X97903033Y-97687348D01*
G75*
G02*
X97903033Y-97404506I141421J141421D01*
G01*
X98185876Y-97121663D01*
G75*
G02*
X98468718Y-97121663I141421J-141421D01*
G01*
X98928337Y-97581282D01*
G75*
G02*
X98928337Y-97864124I-141421J-141421D01*
G01*
X98645494Y-98146967D01*
G75*
G02*
X98362652Y-98146967I-141421J141421D01*
G01*
G37*
M02*
