G04 #@! TF.GenerationSoftware,KiCad,Pcbnew,(5.1.5-0-10_14)*
G04 #@! TF.CreationDate,2021-05-04T04:36:55-04:00*
G04 #@! TF.ProjectId,RAM2GS,52414d32-4753-42e6-9b69-6361645f7063,2.0*
G04 #@! TF.SameCoordinates,Original*
G04 #@! TF.FileFunction,Soldermask,Bot*
G04 #@! TF.FilePolarity,Negative*
%FSLAX46Y46*%
G04 Gerber Fmt 4.6, Leading zero omitted, Abs format (unit mm)*
G04 Created by KiCad (PCBNEW (5.1.5-0-10_14)) date 2021-05-04 04:36:55*
%MOMM*%
%LPD*%
G04 APERTURE LIST*
%ADD10C,0.100000*%
G04 APERTURE END LIST*
D10*
G36*
X113538000Y-139446000D02*
G01*
X113030000Y-139954000D01*
X55626000Y-139954000D01*
X55118000Y-139446000D01*
X55118000Y-132080000D01*
X113538000Y-132080000D01*
X113538000Y-139446000D01*
G37*
G36*
X111518220Y-131544798D02*
G01*
X111591993Y-131567176D01*
X111659982Y-131603518D01*
X111719575Y-131652425D01*
X111768482Y-131712018D01*
X111804824Y-131780007D01*
X111827202Y-131853780D01*
X111835000Y-131932954D01*
X111835000Y-138631046D01*
X111827202Y-138710220D01*
X111804824Y-138783993D01*
X111768482Y-138851982D01*
X111719575Y-138911575D01*
X111659982Y-138960482D01*
X111591993Y-138996824D01*
X111518220Y-139019202D01*
X111439046Y-139027000D01*
X110556954Y-139027000D01*
X110477780Y-139019202D01*
X110404007Y-138996824D01*
X110336018Y-138960482D01*
X110276425Y-138911575D01*
X110227518Y-138851982D01*
X110191176Y-138783993D01*
X110168798Y-138710220D01*
X110161000Y-138631046D01*
X110161000Y-131932954D01*
X110168798Y-131853780D01*
X110191176Y-131780007D01*
X110227518Y-131712018D01*
X110276425Y-131652425D01*
X110336018Y-131603518D01*
X110404007Y-131567176D01*
X110477780Y-131544798D01*
X110556954Y-131537000D01*
X111439046Y-131537000D01*
X111518220Y-131544798D01*
G37*
G36*
X108978220Y-131544798D02*
G01*
X109051993Y-131567176D01*
X109119982Y-131603518D01*
X109179575Y-131652425D01*
X109228482Y-131712018D01*
X109264824Y-131780007D01*
X109287202Y-131853780D01*
X109295000Y-131932954D01*
X109295000Y-138631046D01*
X109287202Y-138710220D01*
X109264824Y-138783993D01*
X109228482Y-138851982D01*
X109179575Y-138911575D01*
X109119982Y-138960482D01*
X109051993Y-138996824D01*
X108978220Y-139019202D01*
X108899046Y-139027000D01*
X108016954Y-139027000D01*
X107937780Y-139019202D01*
X107864007Y-138996824D01*
X107796018Y-138960482D01*
X107736425Y-138911575D01*
X107687518Y-138851982D01*
X107651176Y-138783993D01*
X107628798Y-138710220D01*
X107621000Y-138631046D01*
X107621000Y-131932954D01*
X107628798Y-131853780D01*
X107651176Y-131780007D01*
X107687518Y-131712018D01*
X107736425Y-131652425D01*
X107796018Y-131603518D01*
X107864007Y-131567176D01*
X107937780Y-131544798D01*
X108016954Y-131537000D01*
X108899046Y-131537000D01*
X108978220Y-131544798D01*
G37*
G36*
X106438220Y-131544798D02*
G01*
X106511993Y-131567176D01*
X106579982Y-131603518D01*
X106639575Y-131652425D01*
X106688482Y-131712018D01*
X106724824Y-131780007D01*
X106747202Y-131853780D01*
X106755000Y-131932954D01*
X106755000Y-138631046D01*
X106747202Y-138710220D01*
X106724824Y-138783993D01*
X106688482Y-138851982D01*
X106639575Y-138911575D01*
X106579982Y-138960482D01*
X106511993Y-138996824D01*
X106438220Y-139019202D01*
X106359046Y-139027000D01*
X105476954Y-139027000D01*
X105397780Y-139019202D01*
X105324007Y-138996824D01*
X105256018Y-138960482D01*
X105196425Y-138911575D01*
X105147518Y-138851982D01*
X105111176Y-138783993D01*
X105088798Y-138710220D01*
X105081000Y-138631046D01*
X105081000Y-131932954D01*
X105088798Y-131853780D01*
X105111176Y-131780007D01*
X105147518Y-131712018D01*
X105196425Y-131652425D01*
X105256018Y-131603518D01*
X105324007Y-131567176D01*
X105397780Y-131544798D01*
X105476954Y-131537000D01*
X106359046Y-131537000D01*
X106438220Y-131544798D01*
G37*
G36*
X103898220Y-131544798D02*
G01*
X103971993Y-131567176D01*
X104039982Y-131603518D01*
X104099575Y-131652425D01*
X104148482Y-131712018D01*
X104184824Y-131780007D01*
X104207202Y-131853780D01*
X104215000Y-131932954D01*
X104215000Y-138631046D01*
X104207202Y-138710220D01*
X104184824Y-138783993D01*
X104148482Y-138851982D01*
X104099575Y-138911575D01*
X104039982Y-138960482D01*
X103971993Y-138996824D01*
X103898220Y-139019202D01*
X103819046Y-139027000D01*
X102936954Y-139027000D01*
X102857780Y-139019202D01*
X102784007Y-138996824D01*
X102716018Y-138960482D01*
X102656425Y-138911575D01*
X102607518Y-138851982D01*
X102571176Y-138783993D01*
X102548798Y-138710220D01*
X102541000Y-138631046D01*
X102541000Y-131932954D01*
X102548798Y-131853780D01*
X102571176Y-131780007D01*
X102607518Y-131712018D01*
X102656425Y-131652425D01*
X102716018Y-131603518D01*
X102784007Y-131567176D01*
X102857780Y-131544798D01*
X102936954Y-131537000D01*
X103819046Y-131537000D01*
X103898220Y-131544798D01*
G37*
G36*
X101358220Y-131544798D02*
G01*
X101431993Y-131567176D01*
X101499982Y-131603518D01*
X101559575Y-131652425D01*
X101608482Y-131712018D01*
X101644824Y-131780007D01*
X101667202Y-131853780D01*
X101675000Y-131932954D01*
X101675000Y-138631046D01*
X101667202Y-138710220D01*
X101644824Y-138783993D01*
X101608482Y-138851982D01*
X101559575Y-138911575D01*
X101499982Y-138960482D01*
X101431993Y-138996824D01*
X101358220Y-139019202D01*
X101279046Y-139027000D01*
X100396954Y-139027000D01*
X100317780Y-139019202D01*
X100244007Y-138996824D01*
X100176018Y-138960482D01*
X100116425Y-138911575D01*
X100067518Y-138851982D01*
X100031176Y-138783993D01*
X100008798Y-138710220D01*
X100001000Y-138631046D01*
X100001000Y-131932954D01*
X100008798Y-131853780D01*
X100031176Y-131780007D01*
X100067518Y-131712018D01*
X100116425Y-131652425D01*
X100176018Y-131603518D01*
X100244007Y-131567176D01*
X100317780Y-131544798D01*
X100396954Y-131537000D01*
X101279046Y-131537000D01*
X101358220Y-131544798D01*
G37*
G36*
X98818220Y-131544798D02*
G01*
X98891993Y-131567176D01*
X98959982Y-131603518D01*
X99019575Y-131652425D01*
X99068482Y-131712018D01*
X99104824Y-131780007D01*
X99127202Y-131853780D01*
X99135000Y-131932954D01*
X99135000Y-138631046D01*
X99127202Y-138710220D01*
X99104824Y-138783993D01*
X99068482Y-138851982D01*
X99019575Y-138911575D01*
X98959982Y-138960482D01*
X98891993Y-138996824D01*
X98818220Y-139019202D01*
X98739046Y-139027000D01*
X97856954Y-139027000D01*
X97777780Y-139019202D01*
X97704007Y-138996824D01*
X97636018Y-138960482D01*
X97576425Y-138911575D01*
X97527518Y-138851982D01*
X97491176Y-138783993D01*
X97468798Y-138710220D01*
X97461000Y-138631046D01*
X97461000Y-131932954D01*
X97468798Y-131853780D01*
X97491176Y-131780007D01*
X97527518Y-131712018D01*
X97576425Y-131652425D01*
X97636018Y-131603518D01*
X97704007Y-131567176D01*
X97777780Y-131544798D01*
X97856954Y-131537000D01*
X98739046Y-131537000D01*
X98818220Y-131544798D01*
G37*
G36*
X96278220Y-131544798D02*
G01*
X96351993Y-131567176D01*
X96419982Y-131603518D01*
X96479575Y-131652425D01*
X96528482Y-131712018D01*
X96564824Y-131780007D01*
X96587202Y-131853780D01*
X96595000Y-131932954D01*
X96595000Y-138631046D01*
X96587202Y-138710220D01*
X96564824Y-138783993D01*
X96528482Y-138851982D01*
X96479575Y-138911575D01*
X96419982Y-138960482D01*
X96351993Y-138996824D01*
X96278220Y-139019202D01*
X96199046Y-139027000D01*
X95316954Y-139027000D01*
X95237780Y-139019202D01*
X95164007Y-138996824D01*
X95096018Y-138960482D01*
X95036425Y-138911575D01*
X94987518Y-138851982D01*
X94951176Y-138783993D01*
X94928798Y-138710220D01*
X94921000Y-138631046D01*
X94921000Y-131932954D01*
X94928798Y-131853780D01*
X94951176Y-131780007D01*
X94987518Y-131712018D01*
X95036425Y-131652425D01*
X95096018Y-131603518D01*
X95164007Y-131567176D01*
X95237780Y-131544798D01*
X95316954Y-131537000D01*
X96199046Y-131537000D01*
X96278220Y-131544798D01*
G37*
G36*
X93738220Y-131544798D02*
G01*
X93811993Y-131567176D01*
X93879982Y-131603518D01*
X93939575Y-131652425D01*
X93988482Y-131712018D01*
X94024824Y-131780007D01*
X94047202Y-131853780D01*
X94055000Y-131932954D01*
X94055000Y-138631046D01*
X94047202Y-138710220D01*
X94024824Y-138783993D01*
X93988482Y-138851982D01*
X93939575Y-138911575D01*
X93879982Y-138960482D01*
X93811993Y-138996824D01*
X93738220Y-139019202D01*
X93659046Y-139027000D01*
X92776954Y-139027000D01*
X92697780Y-139019202D01*
X92624007Y-138996824D01*
X92556018Y-138960482D01*
X92496425Y-138911575D01*
X92447518Y-138851982D01*
X92411176Y-138783993D01*
X92388798Y-138710220D01*
X92381000Y-138631046D01*
X92381000Y-131932954D01*
X92388798Y-131853780D01*
X92411176Y-131780007D01*
X92447518Y-131712018D01*
X92496425Y-131652425D01*
X92556018Y-131603518D01*
X92624007Y-131567176D01*
X92697780Y-131544798D01*
X92776954Y-131537000D01*
X93659046Y-131537000D01*
X93738220Y-131544798D01*
G37*
G36*
X91198220Y-131544798D02*
G01*
X91271993Y-131567176D01*
X91339982Y-131603518D01*
X91399575Y-131652425D01*
X91448482Y-131712018D01*
X91484824Y-131780007D01*
X91507202Y-131853780D01*
X91515000Y-131932954D01*
X91515000Y-138631046D01*
X91507202Y-138710220D01*
X91484824Y-138783993D01*
X91448482Y-138851982D01*
X91399575Y-138911575D01*
X91339982Y-138960482D01*
X91271993Y-138996824D01*
X91198220Y-139019202D01*
X91119046Y-139027000D01*
X90236954Y-139027000D01*
X90157780Y-139019202D01*
X90084007Y-138996824D01*
X90016018Y-138960482D01*
X89956425Y-138911575D01*
X89907518Y-138851982D01*
X89871176Y-138783993D01*
X89848798Y-138710220D01*
X89841000Y-138631046D01*
X89841000Y-131932954D01*
X89848798Y-131853780D01*
X89871176Y-131780007D01*
X89907518Y-131712018D01*
X89956425Y-131652425D01*
X90016018Y-131603518D01*
X90084007Y-131567176D01*
X90157780Y-131544798D01*
X90236954Y-131537000D01*
X91119046Y-131537000D01*
X91198220Y-131544798D01*
G37*
G36*
X88658220Y-131544798D02*
G01*
X88731993Y-131567176D01*
X88799982Y-131603518D01*
X88859575Y-131652425D01*
X88908482Y-131712018D01*
X88944824Y-131780007D01*
X88967202Y-131853780D01*
X88975000Y-131932954D01*
X88975000Y-138631046D01*
X88967202Y-138710220D01*
X88944824Y-138783993D01*
X88908482Y-138851982D01*
X88859575Y-138911575D01*
X88799982Y-138960482D01*
X88731993Y-138996824D01*
X88658220Y-139019202D01*
X88579046Y-139027000D01*
X87696954Y-139027000D01*
X87617780Y-139019202D01*
X87544007Y-138996824D01*
X87476018Y-138960482D01*
X87416425Y-138911575D01*
X87367518Y-138851982D01*
X87331176Y-138783993D01*
X87308798Y-138710220D01*
X87301000Y-138631046D01*
X87301000Y-131932954D01*
X87308798Y-131853780D01*
X87331176Y-131780007D01*
X87367518Y-131712018D01*
X87416425Y-131652425D01*
X87476018Y-131603518D01*
X87544007Y-131567176D01*
X87617780Y-131544798D01*
X87696954Y-131537000D01*
X88579046Y-131537000D01*
X88658220Y-131544798D01*
G37*
G36*
X86118220Y-131544798D02*
G01*
X86191993Y-131567176D01*
X86259982Y-131603518D01*
X86319575Y-131652425D01*
X86368482Y-131712018D01*
X86404824Y-131780007D01*
X86427202Y-131853780D01*
X86435000Y-131932954D01*
X86435000Y-138631046D01*
X86427202Y-138710220D01*
X86404824Y-138783993D01*
X86368482Y-138851982D01*
X86319575Y-138911575D01*
X86259982Y-138960482D01*
X86191993Y-138996824D01*
X86118220Y-139019202D01*
X86039046Y-139027000D01*
X85156954Y-139027000D01*
X85077780Y-139019202D01*
X85004007Y-138996824D01*
X84936018Y-138960482D01*
X84876425Y-138911575D01*
X84827518Y-138851982D01*
X84791176Y-138783993D01*
X84768798Y-138710220D01*
X84761000Y-138631046D01*
X84761000Y-131932954D01*
X84768798Y-131853780D01*
X84791176Y-131780007D01*
X84827518Y-131712018D01*
X84876425Y-131652425D01*
X84936018Y-131603518D01*
X85004007Y-131567176D01*
X85077780Y-131544798D01*
X85156954Y-131537000D01*
X86039046Y-131537000D01*
X86118220Y-131544798D01*
G37*
G36*
X83578220Y-131544798D02*
G01*
X83651993Y-131567176D01*
X83719982Y-131603518D01*
X83779575Y-131652425D01*
X83828482Y-131712018D01*
X83864824Y-131780007D01*
X83887202Y-131853780D01*
X83895000Y-131932954D01*
X83895000Y-138631046D01*
X83887202Y-138710220D01*
X83864824Y-138783993D01*
X83828482Y-138851982D01*
X83779575Y-138911575D01*
X83719982Y-138960482D01*
X83651993Y-138996824D01*
X83578220Y-139019202D01*
X83499046Y-139027000D01*
X82616954Y-139027000D01*
X82537780Y-139019202D01*
X82464007Y-138996824D01*
X82396018Y-138960482D01*
X82336425Y-138911575D01*
X82287518Y-138851982D01*
X82251176Y-138783993D01*
X82228798Y-138710220D01*
X82221000Y-138631046D01*
X82221000Y-131932954D01*
X82228798Y-131853780D01*
X82251176Y-131780007D01*
X82287518Y-131712018D01*
X82336425Y-131652425D01*
X82396018Y-131603518D01*
X82464007Y-131567176D01*
X82537780Y-131544798D01*
X82616954Y-131537000D01*
X83499046Y-131537000D01*
X83578220Y-131544798D01*
G37*
G36*
X81038220Y-131544798D02*
G01*
X81111993Y-131567176D01*
X81179982Y-131603518D01*
X81239575Y-131652425D01*
X81288482Y-131712018D01*
X81324824Y-131780007D01*
X81347202Y-131853780D01*
X81355000Y-131932954D01*
X81355000Y-138631046D01*
X81347202Y-138710220D01*
X81324824Y-138783993D01*
X81288482Y-138851982D01*
X81239575Y-138911575D01*
X81179982Y-138960482D01*
X81111993Y-138996824D01*
X81038220Y-139019202D01*
X80959046Y-139027000D01*
X80076954Y-139027000D01*
X79997780Y-139019202D01*
X79924007Y-138996824D01*
X79856018Y-138960482D01*
X79796425Y-138911575D01*
X79747518Y-138851982D01*
X79711176Y-138783993D01*
X79688798Y-138710220D01*
X79681000Y-138631046D01*
X79681000Y-131932954D01*
X79688798Y-131853780D01*
X79711176Y-131780007D01*
X79747518Y-131712018D01*
X79796425Y-131652425D01*
X79856018Y-131603518D01*
X79924007Y-131567176D01*
X79997780Y-131544798D01*
X80076954Y-131537000D01*
X80959046Y-131537000D01*
X81038220Y-131544798D01*
G37*
G36*
X78498220Y-131544798D02*
G01*
X78571993Y-131567176D01*
X78639982Y-131603518D01*
X78699575Y-131652425D01*
X78748482Y-131712018D01*
X78784824Y-131780007D01*
X78807202Y-131853780D01*
X78815000Y-131932954D01*
X78815000Y-138631046D01*
X78807202Y-138710220D01*
X78784824Y-138783993D01*
X78748482Y-138851982D01*
X78699575Y-138911575D01*
X78639982Y-138960482D01*
X78571993Y-138996824D01*
X78498220Y-139019202D01*
X78419046Y-139027000D01*
X77536954Y-139027000D01*
X77457780Y-139019202D01*
X77384007Y-138996824D01*
X77316018Y-138960482D01*
X77256425Y-138911575D01*
X77207518Y-138851982D01*
X77171176Y-138783993D01*
X77148798Y-138710220D01*
X77141000Y-138631046D01*
X77141000Y-131932954D01*
X77148798Y-131853780D01*
X77171176Y-131780007D01*
X77207518Y-131712018D01*
X77256425Y-131652425D01*
X77316018Y-131603518D01*
X77384007Y-131567176D01*
X77457780Y-131544798D01*
X77536954Y-131537000D01*
X78419046Y-131537000D01*
X78498220Y-131544798D01*
G37*
G36*
X75958220Y-131544798D02*
G01*
X76031993Y-131567176D01*
X76099982Y-131603518D01*
X76159575Y-131652425D01*
X76208482Y-131712018D01*
X76244824Y-131780007D01*
X76267202Y-131853780D01*
X76275000Y-131932954D01*
X76275000Y-138631046D01*
X76267202Y-138710220D01*
X76244824Y-138783993D01*
X76208482Y-138851982D01*
X76159575Y-138911575D01*
X76099982Y-138960482D01*
X76031993Y-138996824D01*
X75958220Y-139019202D01*
X75879046Y-139027000D01*
X74996954Y-139027000D01*
X74917780Y-139019202D01*
X74844007Y-138996824D01*
X74776018Y-138960482D01*
X74716425Y-138911575D01*
X74667518Y-138851982D01*
X74631176Y-138783993D01*
X74608798Y-138710220D01*
X74601000Y-138631046D01*
X74601000Y-131932954D01*
X74608798Y-131853780D01*
X74631176Y-131780007D01*
X74667518Y-131712018D01*
X74716425Y-131652425D01*
X74776018Y-131603518D01*
X74844007Y-131567176D01*
X74917780Y-131544798D01*
X74996954Y-131537000D01*
X75879046Y-131537000D01*
X75958220Y-131544798D01*
G37*
G36*
X73418220Y-131544798D02*
G01*
X73491993Y-131567176D01*
X73559982Y-131603518D01*
X73619575Y-131652425D01*
X73668482Y-131712018D01*
X73704824Y-131780007D01*
X73727202Y-131853780D01*
X73735000Y-131932954D01*
X73735000Y-138631046D01*
X73727202Y-138710220D01*
X73704824Y-138783993D01*
X73668482Y-138851982D01*
X73619575Y-138911575D01*
X73559982Y-138960482D01*
X73491993Y-138996824D01*
X73418220Y-139019202D01*
X73339046Y-139027000D01*
X72456954Y-139027000D01*
X72377780Y-139019202D01*
X72304007Y-138996824D01*
X72236018Y-138960482D01*
X72176425Y-138911575D01*
X72127518Y-138851982D01*
X72091176Y-138783993D01*
X72068798Y-138710220D01*
X72061000Y-138631046D01*
X72061000Y-131932954D01*
X72068798Y-131853780D01*
X72091176Y-131780007D01*
X72127518Y-131712018D01*
X72176425Y-131652425D01*
X72236018Y-131603518D01*
X72304007Y-131567176D01*
X72377780Y-131544798D01*
X72456954Y-131537000D01*
X73339046Y-131537000D01*
X73418220Y-131544798D01*
G37*
G36*
X70878220Y-131544798D02*
G01*
X70951993Y-131567176D01*
X71019982Y-131603518D01*
X71079575Y-131652425D01*
X71128482Y-131712018D01*
X71164824Y-131780007D01*
X71187202Y-131853780D01*
X71195000Y-131932954D01*
X71195000Y-138631046D01*
X71187202Y-138710220D01*
X71164824Y-138783993D01*
X71128482Y-138851982D01*
X71079575Y-138911575D01*
X71019982Y-138960482D01*
X70951993Y-138996824D01*
X70878220Y-139019202D01*
X70799046Y-139027000D01*
X69916954Y-139027000D01*
X69837780Y-139019202D01*
X69764007Y-138996824D01*
X69696018Y-138960482D01*
X69636425Y-138911575D01*
X69587518Y-138851982D01*
X69551176Y-138783993D01*
X69528798Y-138710220D01*
X69521000Y-138631046D01*
X69521000Y-131932954D01*
X69528798Y-131853780D01*
X69551176Y-131780007D01*
X69587518Y-131712018D01*
X69636425Y-131652425D01*
X69696018Y-131603518D01*
X69764007Y-131567176D01*
X69837780Y-131544798D01*
X69916954Y-131537000D01*
X70799046Y-131537000D01*
X70878220Y-131544798D01*
G37*
G36*
X68338220Y-131544798D02*
G01*
X68411993Y-131567176D01*
X68479982Y-131603518D01*
X68539575Y-131652425D01*
X68588482Y-131712018D01*
X68624824Y-131780007D01*
X68647202Y-131853780D01*
X68655000Y-131932954D01*
X68655000Y-138631046D01*
X68647202Y-138710220D01*
X68624824Y-138783993D01*
X68588482Y-138851982D01*
X68539575Y-138911575D01*
X68479982Y-138960482D01*
X68411993Y-138996824D01*
X68338220Y-139019202D01*
X68259046Y-139027000D01*
X67376954Y-139027000D01*
X67297780Y-139019202D01*
X67224007Y-138996824D01*
X67156018Y-138960482D01*
X67096425Y-138911575D01*
X67047518Y-138851982D01*
X67011176Y-138783993D01*
X66988798Y-138710220D01*
X66981000Y-138631046D01*
X66981000Y-131932954D01*
X66988798Y-131853780D01*
X67011176Y-131780007D01*
X67047518Y-131712018D01*
X67096425Y-131652425D01*
X67156018Y-131603518D01*
X67224007Y-131567176D01*
X67297780Y-131544798D01*
X67376954Y-131537000D01*
X68259046Y-131537000D01*
X68338220Y-131544798D01*
G37*
G36*
X65798220Y-131544798D02*
G01*
X65871993Y-131567176D01*
X65939982Y-131603518D01*
X65999575Y-131652425D01*
X66048482Y-131712018D01*
X66084824Y-131780007D01*
X66107202Y-131853780D01*
X66115000Y-131932954D01*
X66115000Y-138631046D01*
X66107202Y-138710220D01*
X66084824Y-138783993D01*
X66048482Y-138851982D01*
X65999575Y-138911575D01*
X65939982Y-138960482D01*
X65871993Y-138996824D01*
X65798220Y-139019202D01*
X65719046Y-139027000D01*
X64836954Y-139027000D01*
X64757780Y-139019202D01*
X64684007Y-138996824D01*
X64616018Y-138960482D01*
X64556425Y-138911575D01*
X64507518Y-138851982D01*
X64471176Y-138783993D01*
X64448798Y-138710220D01*
X64441000Y-138631046D01*
X64441000Y-131932954D01*
X64448798Y-131853780D01*
X64471176Y-131780007D01*
X64507518Y-131712018D01*
X64556425Y-131652425D01*
X64616018Y-131603518D01*
X64684007Y-131567176D01*
X64757780Y-131544798D01*
X64836954Y-131537000D01*
X65719046Y-131537000D01*
X65798220Y-131544798D01*
G37*
G36*
X63258220Y-131544798D02*
G01*
X63331993Y-131567176D01*
X63399982Y-131603518D01*
X63459575Y-131652425D01*
X63508482Y-131712018D01*
X63544824Y-131780007D01*
X63567202Y-131853780D01*
X63575000Y-131932954D01*
X63575000Y-138631046D01*
X63567202Y-138710220D01*
X63544824Y-138783993D01*
X63508482Y-138851982D01*
X63459575Y-138911575D01*
X63399982Y-138960482D01*
X63331993Y-138996824D01*
X63258220Y-139019202D01*
X63179046Y-139027000D01*
X62296954Y-139027000D01*
X62217780Y-139019202D01*
X62144007Y-138996824D01*
X62076018Y-138960482D01*
X62016425Y-138911575D01*
X61967518Y-138851982D01*
X61931176Y-138783993D01*
X61908798Y-138710220D01*
X61901000Y-138631046D01*
X61901000Y-131932954D01*
X61908798Y-131853780D01*
X61931176Y-131780007D01*
X61967518Y-131712018D01*
X62016425Y-131652425D01*
X62076018Y-131603518D01*
X62144007Y-131567176D01*
X62217780Y-131544798D01*
X62296954Y-131537000D01*
X63179046Y-131537000D01*
X63258220Y-131544798D01*
G37*
G36*
X60718220Y-131544798D02*
G01*
X60791993Y-131567176D01*
X60859982Y-131603518D01*
X60919575Y-131652425D01*
X60968482Y-131712018D01*
X61004824Y-131780007D01*
X61027202Y-131853780D01*
X61035000Y-131932954D01*
X61035000Y-138631046D01*
X61027202Y-138710220D01*
X61004824Y-138783993D01*
X60968482Y-138851982D01*
X60919575Y-138911575D01*
X60859982Y-138960482D01*
X60791993Y-138996824D01*
X60718220Y-139019202D01*
X60639046Y-139027000D01*
X59756954Y-139027000D01*
X59677780Y-139019202D01*
X59604007Y-138996824D01*
X59536018Y-138960482D01*
X59476425Y-138911575D01*
X59427518Y-138851982D01*
X59391176Y-138783993D01*
X59368798Y-138710220D01*
X59361000Y-138631046D01*
X59361000Y-131932954D01*
X59368798Y-131853780D01*
X59391176Y-131780007D01*
X59427518Y-131712018D01*
X59476425Y-131652425D01*
X59536018Y-131603518D01*
X59604007Y-131567176D01*
X59677780Y-131544798D01*
X59756954Y-131537000D01*
X60639046Y-131537000D01*
X60718220Y-131544798D01*
G37*
G36*
X58178220Y-131544798D02*
G01*
X58251993Y-131567176D01*
X58319982Y-131603518D01*
X58379575Y-131652425D01*
X58428482Y-131712018D01*
X58464824Y-131780007D01*
X58487202Y-131853780D01*
X58495000Y-131932954D01*
X58495000Y-138631046D01*
X58487202Y-138710220D01*
X58464824Y-138783993D01*
X58428482Y-138851982D01*
X58379575Y-138911575D01*
X58319982Y-138960482D01*
X58251993Y-138996824D01*
X58178220Y-139019202D01*
X58099046Y-139027000D01*
X57216954Y-139027000D01*
X57137780Y-139019202D01*
X57064007Y-138996824D01*
X56996018Y-138960482D01*
X56936425Y-138911575D01*
X56887518Y-138851982D01*
X56851176Y-138783993D01*
X56828798Y-138710220D01*
X56821000Y-138631046D01*
X56821000Y-131932954D01*
X56828798Y-131853780D01*
X56851176Y-131780007D01*
X56887518Y-131712018D01*
X56936425Y-131652425D01*
X56996018Y-131603518D01*
X57064007Y-131567176D01*
X57137780Y-131544798D01*
X57216954Y-131537000D01*
X58099046Y-131537000D01*
X58178220Y-131544798D01*
G37*
G36*
X111311564Y-129141311D02*
G01*
X111507202Y-129222347D01*
X111507203Y-129222348D01*
X111683272Y-129339993D01*
X111833007Y-129489728D01*
X111911615Y-129607374D01*
X111950653Y-129665798D01*
X112031689Y-129861436D01*
X112073000Y-130069120D01*
X112073000Y-130280880D01*
X112031689Y-130488564D01*
X111950653Y-130684202D01*
X111950652Y-130684203D01*
X111833007Y-130860272D01*
X111683272Y-131010007D01*
X111565626Y-131088615D01*
X111507202Y-131127653D01*
X111311564Y-131208689D01*
X111103880Y-131250000D01*
X110892120Y-131250000D01*
X110684436Y-131208689D01*
X110488798Y-131127653D01*
X110430374Y-131088615D01*
X110312728Y-131010007D01*
X110162993Y-130860272D01*
X110045348Y-130684203D01*
X110045347Y-130684202D01*
X109964311Y-130488564D01*
X109923000Y-130280880D01*
X109923000Y-130069120D01*
X109964311Y-129861436D01*
X110045347Y-129665798D01*
X110084385Y-129607374D01*
X110162993Y-129489728D01*
X110312728Y-129339993D01*
X110488797Y-129222348D01*
X110488798Y-129222347D01*
X110684436Y-129141311D01*
X110892120Y-129100000D01*
X111103880Y-129100000D01*
X111311564Y-129141311D01*
G37*
G36*
X48725181Y-128843822D02*
G01*
X48725184Y-128843823D01*
X48725183Y-128843823D01*
X48856943Y-128898400D01*
X48916635Y-128938285D01*
X48975522Y-128977632D01*
X49076368Y-129078478D01*
X49155601Y-129197059D01*
X49210178Y-129328819D01*
X49238000Y-129468691D01*
X49238000Y-129611309D01*
X49210178Y-129751181D01*
X49164509Y-129861436D01*
X49155600Y-129882943D01*
X49076367Y-130001523D01*
X48975523Y-130102367D01*
X48856943Y-130181600D01*
X48856942Y-130181601D01*
X48856941Y-130181601D01*
X48725181Y-130236178D01*
X48585309Y-130264000D01*
X48442691Y-130264000D01*
X48302819Y-130236178D01*
X48171059Y-130181601D01*
X48171058Y-130181601D01*
X48171057Y-130181600D01*
X48052477Y-130102367D01*
X47951633Y-130001523D01*
X47872400Y-129882943D01*
X47863491Y-129861436D01*
X47817822Y-129751181D01*
X47790000Y-129611309D01*
X47790000Y-129468691D01*
X47817822Y-129328819D01*
X47872399Y-129197059D01*
X47951632Y-129078478D01*
X48052478Y-128977632D01*
X48111365Y-128938285D01*
X48171057Y-128898400D01*
X48302817Y-128843823D01*
X48302816Y-128843823D01*
X48302819Y-128843822D01*
X48442691Y-128816000D01*
X48585309Y-128816000D01*
X48725181Y-128843822D01*
G37*
G36*
X111717181Y-114492822D02*
G01*
X111717184Y-114492823D01*
X111717183Y-114492823D01*
X111848943Y-114547400D01*
X111908635Y-114587285D01*
X111967522Y-114626632D01*
X112068368Y-114727478D01*
X112147601Y-114846059D01*
X112202178Y-114977819D01*
X112230000Y-115117691D01*
X112230000Y-115260309D01*
X112202178Y-115400181D01*
X112202177Y-115400183D01*
X112147600Y-115531943D01*
X112068367Y-115650523D01*
X111967523Y-115751367D01*
X111848943Y-115830600D01*
X111848942Y-115830601D01*
X111848941Y-115830601D01*
X111717181Y-115885178D01*
X111577309Y-115913000D01*
X111434691Y-115913000D01*
X111294819Y-115885178D01*
X111163059Y-115830601D01*
X111163058Y-115830601D01*
X111163057Y-115830600D01*
X111044477Y-115751367D01*
X110943633Y-115650523D01*
X110864400Y-115531943D01*
X110809823Y-115400183D01*
X110809822Y-115400181D01*
X110782000Y-115260309D01*
X110782000Y-115117691D01*
X110809822Y-114977819D01*
X110864399Y-114846059D01*
X110943632Y-114727478D01*
X111044478Y-114626632D01*
X111103365Y-114587285D01*
X111163057Y-114547400D01*
X111294817Y-114492823D01*
X111294816Y-114492823D01*
X111294819Y-114492822D01*
X111434691Y-114465000D01*
X111577309Y-114465000D01*
X111717181Y-114492822D01*
G37*
G36*
X103393228Y-103344155D02*
G01*
X103622980Y-103439321D01*
X103622981Y-103439322D01*
X103829752Y-103577481D01*
X104005596Y-103753325D01*
X104059258Y-103833637D01*
X104143756Y-103960097D01*
X104238922Y-104189849D01*
X104287437Y-104433748D01*
X104287437Y-104682432D01*
X104238922Y-104926331D01*
X104143756Y-105156083D01*
X104143755Y-105156084D01*
X104005596Y-105362855D01*
X103829752Y-105538699D01*
X103664110Y-105649377D01*
X103622980Y-105676859D01*
X103393228Y-105772025D01*
X103149329Y-105820540D01*
X102900645Y-105820540D01*
X102656746Y-105772025D01*
X102426994Y-105676859D01*
X102385864Y-105649377D01*
X102220222Y-105538699D01*
X102044378Y-105362855D01*
X101906219Y-105156084D01*
X101906218Y-105156083D01*
X101811052Y-104926331D01*
X101762537Y-104682432D01*
X101762537Y-104433748D01*
X101811052Y-104189849D01*
X101906218Y-103960097D01*
X101990716Y-103833637D01*
X102044378Y-103753325D01*
X102220222Y-103577481D01*
X102426993Y-103439322D01*
X102426994Y-103439321D01*
X102656746Y-103344155D01*
X102900645Y-103295640D01*
X103149329Y-103295640D01*
X103393228Y-103344155D01*
G37*
G36*
X105616004Y-104279113D02*
G01*
X105719797Y-104322105D01*
X105789533Y-104368701D01*
X105813201Y-104384516D01*
X105892637Y-104463952D01*
X105892640Y-104463957D01*
X105955048Y-104557356D01*
X105998040Y-104661149D01*
X106019956Y-104771326D01*
X106019956Y-104883668D01*
X105998040Y-104993845D01*
X105955048Y-105097638D01*
X105915996Y-105156083D01*
X105892637Y-105191042D01*
X105813201Y-105270478D01*
X105789533Y-105286293D01*
X105719797Y-105332889D01*
X105616004Y-105375881D01*
X105505827Y-105397797D01*
X105393485Y-105397797D01*
X105283308Y-105375881D01*
X105179515Y-105332889D01*
X105109779Y-105286293D01*
X105086111Y-105270478D01*
X105006675Y-105191042D01*
X104983316Y-105156083D01*
X104944264Y-105097638D01*
X104901272Y-104993845D01*
X104879356Y-104883668D01*
X104879356Y-104771326D01*
X104901272Y-104661149D01*
X104944264Y-104557356D01*
X105006672Y-104463957D01*
X105006675Y-104463952D01*
X105086111Y-104384516D01*
X105109779Y-104368701D01*
X105179515Y-104322105D01*
X105283308Y-104279113D01*
X105393485Y-104257197D01*
X105505827Y-104257197D01*
X105616004Y-104279113D01*
G37*
G36*
X107052845Y-102842272D02*
G01*
X107156638Y-102885264D01*
X107226374Y-102931860D01*
X107250042Y-102947675D01*
X107329478Y-103027111D01*
X107329481Y-103027116D01*
X107391889Y-103120515D01*
X107434881Y-103224308D01*
X107456797Y-103334485D01*
X107456797Y-103446827D01*
X107434881Y-103557004D01*
X107391889Y-103660797D01*
X107345293Y-103730533D01*
X107329478Y-103754201D01*
X107250042Y-103833637D01*
X107226374Y-103849452D01*
X107156638Y-103896048D01*
X107052845Y-103939040D01*
X106942668Y-103960956D01*
X106830326Y-103960956D01*
X106720149Y-103939040D01*
X106616356Y-103896048D01*
X106546620Y-103849452D01*
X106522952Y-103833637D01*
X106443516Y-103754201D01*
X106427701Y-103730533D01*
X106381105Y-103660797D01*
X106338113Y-103557004D01*
X106316197Y-103446827D01*
X106316197Y-103334485D01*
X106338113Y-103224308D01*
X106381105Y-103120515D01*
X106443513Y-103027116D01*
X106443516Y-103027111D01*
X106522952Y-102947675D01*
X106546620Y-102931860D01*
X106616356Y-102885264D01*
X106720149Y-102842272D01*
X106830326Y-102820356D01*
X106942668Y-102820356D01*
X107052845Y-102842272D01*
G37*
G36*
X106985331Y-99752052D02*
G01*
X107215083Y-99847218D01*
X107215084Y-99847219D01*
X107421855Y-99985378D01*
X107597699Y-100161222D01*
X107708377Y-100326864D01*
X107735859Y-100367994D01*
X107831025Y-100597746D01*
X107879540Y-100841645D01*
X107879540Y-101090329D01*
X107831025Y-101334228D01*
X107735859Y-101563980D01*
X107735858Y-101563981D01*
X107597699Y-101770752D01*
X107421855Y-101946596D01*
X107256213Y-102057274D01*
X107215083Y-102084756D01*
X106985331Y-102179922D01*
X106741432Y-102228437D01*
X106492748Y-102228437D01*
X106248849Y-102179922D01*
X106019097Y-102084756D01*
X105977967Y-102057274D01*
X105812325Y-101946596D01*
X105636481Y-101770752D01*
X105498322Y-101563981D01*
X105498321Y-101563980D01*
X105403155Y-101334228D01*
X105354640Y-101090329D01*
X105354640Y-100841645D01*
X105403155Y-100597746D01*
X105498321Y-100367994D01*
X105525803Y-100326864D01*
X105636481Y-100161222D01*
X105812325Y-99985378D01*
X106019096Y-99847219D01*
X106019097Y-99847218D01*
X106248849Y-99752052D01*
X106492748Y-99703537D01*
X106741432Y-99703537D01*
X106985331Y-99752052D01*
G37*
G36*
X99352113Y-99303039D02*
G01*
X99581865Y-99398205D01*
X99581866Y-99398206D01*
X99788637Y-99536365D01*
X99964481Y-99712209D01*
X100054690Y-99847218D01*
X100102641Y-99918981D01*
X100197807Y-100148733D01*
X100246322Y-100392632D01*
X100246322Y-100641316D01*
X100197807Y-100885215D01*
X100102641Y-101114967D01*
X100102640Y-101114968D01*
X99964481Y-101321739D01*
X99788637Y-101497583D01*
X99622995Y-101608261D01*
X99581865Y-101635743D01*
X99352113Y-101730909D01*
X99108214Y-101779424D01*
X98859530Y-101779424D01*
X98615631Y-101730909D01*
X98385879Y-101635743D01*
X98344749Y-101608261D01*
X98179107Y-101497583D01*
X98003263Y-101321739D01*
X97865104Y-101114968D01*
X97865103Y-101114967D01*
X97769937Y-100885215D01*
X97721422Y-100641316D01*
X97721422Y-100392632D01*
X97769937Y-100148733D01*
X97865103Y-99918981D01*
X97913054Y-99847218D01*
X98003263Y-99712209D01*
X98179107Y-99536365D01*
X98385878Y-99398206D01*
X98385879Y-99398205D01*
X98615631Y-99303039D01*
X98859530Y-99254524D01*
X99108214Y-99254524D01*
X99352113Y-99303039D01*
G37*
G36*
X100946271Y-98172539D02*
G01*
X101050064Y-98215531D01*
X101119800Y-98262127D01*
X101143468Y-98277942D01*
X101222904Y-98357378D01*
X101222907Y-98357383D01*
X101285315Y-98450782D01*
X101328307Y-98554575D01*
X101350223Y-98664752D01*
X101350223Y-98777094D01*
X101328307Y-98887271D01*
X101285315Y-98991064D01*
X101238719Y-99060800D01*
X101222904Y-99084468D01*
X101143468Y-99163904D01*
X101119800Y-99179719D01*
X101050064Y-99226315D01*
X100946271Y-99269307D01*
X100836094Y-99291223D01*
X100723752Y-99291223D01*
X100613575Y-99269307D01*
X100509782Y-99226315D01*
X100440046Y-99179719D01*
X100416378Y-99163904D01*
X100336942Y-99084468D01*
X100321127Y-99060800D01*
X100274531Y-98991064D01*
X100231539Y-98887271D01*
X100209623Y-98777094D01*
X100209623Y-98664752D01*
X100231539Y-98554575D01*
X100274531Y-98450782D01*
X100336939Y-98357383D01*
X100336942Y-98357378D01*
X100416378Y-98277942D01*
X100440046Y-98262127D01*
X100509782Y-98215531D01*
X100613575Y-98172539D01*
X100723752Y-98150623D01*
X100836094Y-98150623D01*
X100946271Y-98172539D01*
G37*
G36*
X102944215Y-95710937D02*
G01*
X103173967Y-95806103D01*
X103173968Y-95806104D01*
X103380739Y-95944263D01*
X103556583Y-96120107D01*
X103667261Y-96285749D01*
X103694743Y-96326879D01*
X103789909Y-96556631D01*
X103838424Y-96800530D01*
X103838424Y-97049214D01*
X103789909Y-97293113D01*
X103694743Y-97522865D01*
X103694742Y-97522866D01*
X103556583Y-97729637D01*
X103380739Y-97905481D01*
X103215097Y-98016159D01*
X103173967Y-98043641D01*
X102944215Y-98138807D01*
X102700316Y-98187322D01*
X102451632Y-98187322D01*
X102207733Y-98138807D01*
X101977981Y-98043641D01*
X101936851Y-98016159D01*
X101771209Y-97905481D01*
X101595365Y-97729637D01*
X101457206Y-97522866D01*
X101457205Y-97522865D01*
X101362039Y-97293113D01*
X101313524Y-97049214D01*
X101313524Y-96800530D01*
X101362039Y-96556631D01*
X101457205Y-96326879D01*
X101484687Y-96285749D01*
X101595365Y-96120107D01*
X101771209Y-95944263D01*
X101977980Y-95806104D01*
X101977981Y-95806103D01*
X102207733Y-95710937D01*
X102451632Y-95662422D01*
X102700316Y-95662422D01*
X102944215Y-95710937D01*
G37*
G36*
X48725181Y-93029822D02*
G01*
X48725184Y-93029823D01*
X48725183Y-93029823D01*
X48856943Y-93084400D01*
X48916635Y-93124285D01*
X48975522Y-93163632D01*
X49076368Y-93264478D01*
X49155601Y-93383059D01*
X49210178Y-93514819D01*
X49238000Y-93654691D01*
X49238000Y-93797309D01*
X49210178Y-93937181D01*
X49210177Y-93937183D01*
X49155600Y-94068943D01*
X49076367Y-94187523D01*
X48975523Y-94288367D01*
X48856943Y-94367600D01*
X48856942Y-94367601D01*
X48856941Y-94367601D01*
X48725181Y-94422178D01*
X48585309Y-94450000D01*
X48442691Y-94450000D01*
X48302819Y-94422178D01*
X48171059Y-94367601D01*
X48171058Y-94367601D01*
X48171057Y-94367600D01*
X48052477Y-94288367D01*
X47951633Y-94187523D01*
X47872400Y-94068943D01*
X47817823Y-93937183D01*
X47817822Y-93937181D01*
X47790000Y-93797309D01*
X47790000Y-93654691D01*
X47817822Y-93514819D01*
X47872399Y-93383059D01*
X47951632Y-93264478D01*
X48052478Y-93163632D01*
X48111365Y-93124285D01*
X48171057Y-93084400D01*
X48302817Y-93029823D01*
X48302816Y-93029823D01*
X48302819Y-93029822D01*
X48442691Y-93002000D01*
X48585309Y-93002000D01*
X48725181Y-93029822D01*
G37*
G36*
X103081181Y-93029822D02*
G01*
X103081184Y-93029823D01*
X103081183Y-93029823D01*
X103212943Y-93084400D01*
X103272635Y-93124285D01*
X103331522Y-93163632D01*
X103432368Y-93264478D01*
X103511601Y-93383059D01*
X103566178Y-93514819D01*
X103594000Y-93654691D01*
X103594000Y-93797309D01*
X103566178Y-93937181D01*
X103566177Y-93937183D01*
X103511600Y-94068943D01*
X103432367Y-94187523D01*
X103331523Y-94288367D01*
X103212943Y-94367600D01*
X103212942Y-94367601D01*
X103212941Y-94367601D01*
X103081181Y-94422178D01*
X102941309Y-94450000D01*
X102798691Y-94450000D01*
X102658819Y-94422178D01*
X102527059Y-94367601D01*
X102527058Y-94367601D01*
X102527057Y-94367600D01*
X102408477Y-94288367D01*
X102307633Y-94187523D01*
X102228400Y-94068943D01*
X102173823Y-93937183D01*
X102173822Y-93937181D01*
X102146000Y-93797309D01*
X102146000Y-93654691D01*
X102173822Y-93514819D01*
X102228399Y-93383059D01*
X102307632Y-93264478D01*
X102408478Y-93163632D01*
X102467365Y-93124285D01*
X102527057Y-93084400D01*
X102658817Y-93029823D01*
X102658816Y-93029823D01*
X102658819Y-93029822D01*
X102798691Y-93002000D01*
X102941309Y-93002000D01*
X103081181Y-93029822D01*
G37*
M02*
