G04 #@! TF.GenerationSoftware,KiCad,Pcbnew,(5.1.10-1-10_14)*
G04 #@! TF.CreationDate,2021-05-31T18:24:55-04:00*
G04 #@! TF.ProjectId,RAM2GS,52414d32-4753-42e6-9b69-6361645f7063,2.0*
G04 #@! TF.SameCoordinates,Original*
G04 #@! TF.FileFunction,Paste,Top*
G04 #@! TF.FilePolarity,Positive*
%FSLAX46Y46*%
G04 Gerber Fmt 4.6, Leading zero omitted, Abs format (unit mm)*
G04 Created by KiCad (PCBNEW (5.1.10-1-10_14)) date 2021-05-31 18:24:55*
%MOMM*%
%LPD*%
G01*
G04 APERTURE LIST*
G04 APERTURE END LIST*
G36*
G01*
X101792500Y-123185000D02*
X101607500Y-123185000D01*
G75*
G02*
X101515000Y-123092500I0J92500D01*
G01*
X101515000Y-121907500D01*
G75*
G02*
X101607500Y-121815000I92500J0D01*
G01*
X101792500Y-121815000D01*
G75*
G02*
X101885000Y-121907500I0J-92500D01*
G01*
X101885000Y-123092500D01*
G75*
G02*
X101792500Y-123185000I-92500J0D01*
G01*
G37*
G36*
G01*
X102442500Y-123185000D02*
X102257500Y-123185000D01*
G75*
G02*
X102165000Y-123092500I0J92500D01*
G01*
X102165000Y-121907500D01*
G75*
G02*
X102257500Y-121815000I92500J0D01*
G01*
X102442500Y-121815000D01*
G75*
G02*
X102535000Y-121907500I0J-92500D01*
G01*
X102535000Y-123092500D01*
G75*
G02*
X102442500Y-123185000I-92500J0D01*
G01*
G37*
G36*
G01*
X103092500Y-123185000D02*
X102907500Y-123185000D01*
G75*
G02*
X102815000Y-123092500I0J92500D01*
G01*
X102815000Y-121907500D01*
G75*
G02*
X102907500Y-121815000I92500J0D01*
G01*
X103092500Y-121815000D01*
G75*
G02*
X103185000Y-121907500I0J-92500D01*
G01*
X103185000Y-123092500D01*
G75*
G02*
X103092500Y-123185000I-92500J0D01*
G01*
G37*
G36*
G01*
X103742500Y-123185000D02*
X103557500Y-123185000D01*
G75*
G02*
X103465000Y-123092500I0J92500D01*
G01*
X103465000Y-121907500D01*
G75*
G02*
X103557500Y-121815000I92500J0D01*
G01*
X103742500Y-121815000D01*
G75*
G02*
X103835000Y-121907500I0J-92500D01*
G01*
X103835000Y-123092500D01*
G75*
G02*
X103742500Y-123185000I-92500J0D01*
G01*
G37*
G36*
G01*
X104392500Y-123185000D02*
X104207500Y-123185000D01*
G75*
G02*
X104115000Y-123092500I0J92500D01*
G01*
X104115000Y-121907500D01*
G75*
G02*
X104207500Y-121815000I92500J0D01*
G01*
X104392500Y-121815000D01*
G75*
G02*
X104485000Y-121907500I0J-92500D01*
G01*
X104485000Y-123092500D01*
G75*
G02*
X104392500Y-123185000I-92500J0D01*
G01*
G37*
G36*
G01*
X105042500Y-123185000D02*
X104857500Y-123185000D01*
G75*
G02*
X104765000Y-123092500I0J92500D01*
G01*
X104765000Y-121907500D01*
G75*
G02*
X104857500Y-121815000I92500J0D01*
G01*
X105042500Y-121815000D01*
G75*
G02*
X105135000Y-121907500I0J-92500D01*
G01*
X105135000Y-123092500D01*
G75*
G02*
X105042500Y-123185000I-92500J0D01*
G01*
G37*
G36*
G01*
X105692500Y-123185000D02*
X105507500Y-123185000D01*
G75*
G02*
X105415000Y-123092500I0J92500D01*
G01*
X105415000Y-121907500D01*
G75*
G02*
X105507500Y-121815000I92500J0D01*
G01*
X105692500Y-121815000D01*
G75*
G02*
X105785000Y-121907500I0J-92500D01*
G01*
X105785000Y-123092500D01*
G75*
G02*
X105692500Y-123185000I-92500J0D01*
G01*
G37*
G36*
G01*
X106342500Y-123185000D02*
X106157500Y-123185000D01*
G75*
G02*
X106065000Y-123092500I0J92500D01*
G01*
X106065000Y-121907500D01*
G75*
G02*
X106157500Y-121815000I92500J0D01*
G01*
X106342500Y-121815000D01*
G75*
G02*
X106435000Y-121907500I0J-92500D01*
G01*
X106435000Y-123092500D01*
G75*
G02*
X106342500Y-123185000I-92500J0D01*
G01*
G37*
G36*
G01*
X106992500Y-123185000D02*
X106807500Y-123185000D01*
G75*
G02*
X106715000Y-123092500I0J92500D01*
G01*
X106715000Y-121907500D01*
G75*
G02*
X106807500Y-121815000I92500J0D01*
G01*
X106992500Y-121815000D01*
G75*
G02*
X107085000Y-121907500I0J-92500D01*
G01*
X107085000Y-123092500D01*
G75*
G02*
X106992500Y-123185000I-92500J0D01*
G01*
G37*
G36*
G01*
X107642500Y-123185000D02*
X107457500Y-123185000D01*
G75*
G02*
X107365000Y-123092500I0J92500D01*
G01*
X107365000Y-121907500D01*
G75*
G02*
X107457500Y-121815000I92500J0D01*
G01*
X107642500Y-121815000D01*
G75*
G02*
X107735000Y-121907500I0J-92500D01*
G01*
X107735000Y-123092500D01*
G75*
G02*
X107642500Y-123185000I-92500J0D01*
G01*
G37*
G36*
G01*
X107642500Y-129085000D02*
X107457500Y-129085000D01*
G75*
G02*
X107365000Y-128992500I0J92500D01*
G01*
X107365000Y-127807500D01*
G75*
G02*
X107457500Y-127715000I92500J0D01*
G01*
X107642500Y-127715000D01*
G75*
G02*
X107735000Y-127807500I0J-92500D01*
G01*
X107735000Y-128992500D01*
G75*
G02*
X107642500Y-129085000I-92500J0D01*
G01*
G37*
G36*
G01*
X106992500Y-129085000D02*
X106807500Y-129085000D01*
G75*
G02*
X106715000Y-128992500I0J92500D01*
G01*
X106715000Y-127807500D01*
G75*
G02*
X106807500Y-127715000I92500J0D01*
G01*
X106992500Y-127715000D01*
G75*
G02*
X107085000Y-127807500I0J-92500D01*
G01*
X107085000Y-128992500D01*
G75*
G02*
X106992500Y-129085000I-92500J0D01*
G01*
G37*
G36*
G01*
X106342500Y-129085000D02*
X106157500Y-129085000D01*
G75*
G02*
X106065000Y-128992500I0J92500D01*
G01*
X106065000Y-127807500D01*
G75*
G02*
X106157500Y-127715000I92500J0D01*
G01*
X106342500Y-127715000D01*
G75*
G02*
X106435000Y-127807500I0J-92500D01*
G01*
X106435000Y-128992500D01*
G75*
G02*
X106342500Y-129085000I-92500J0D01*
G01*
G37*
G36*
G01*
X105692500Y-129085000D02*
X105507500Y-129085000D01*
G75*
G02*
X105415000Y-128992500I0J92500D01*
G01*
X105415000Y-127807500D01*
G75*
G02*
X105507500Y-127715000I92500J0D01*
G01*
X105692500Y-127715000D01*
G75*
G02*
X105785000Y-127807500I0J-92500D01*
G01*
X105785000Y-128992500D01*
G75*
G02*
X105692500Y-129085000I-92500J0D01*
G01*
G37*
G36*
G01*
X105042500Y-129085000D02*
X104857500Y-129085000D01*
G75*
G02*
X104765000Y-128992500I0J92500D01*
G01*
X104765000Y-127807500D01*
G75*
G02*
X104857500Y-127715000I92500J0D01*
G01*
X105042500Y-127715000D01*
G75*
G02*
X105135000Y-127807500I0J-92500D01*
G01*
X105135000Y-128992500D01*
G75*
G02*
X105042500Y-129085000I-92500J0D01*
G01*
G37*
G36*
G01*
X104392500Y-129085000D02*
X104207500Y-129085000D01*
G75*
G02*
X104115000Y-128992500I0J92500D01*
G01*
X104115000Y-127807500D01*
G75*
G02*
X104207500Y-127715000I92500J0D01*
G01*
X104392500Y-127715000D01*
G75*
G02*
X104485000Y-127807500I0J-92500D01*
G01*
X104485000Y-128992500D01*
G75*
G02*
X104392500Y-129085000I-92500J0D01*
G01*
G37*
G36*
G01*
X103742500Y-129085000D02*
X103557500Y-129085000D01*
G75*
G02*
X103465000Y-128992500I0J92500D01*
G01*
X103465000Y-127807500D01*
G75*
G02*
X103557500Y-127715000I92500J0D01*
G01*
X103742500Y-127715000D01*
G75*
G02*
X103835000Y-127807500I0J-92500D01*
G01*
X103835000Y-128992500D01*
G75*
G02*
X103742500Y-129085000I-92500J0D01*
G01*
G37*
G36*
G01*
X103092500Y-129085000D02*
X102907500Y-129085000D01*
G75*
G02*
X102815000Y-128992500I0J92500D01*
G01*
X102815000Y-127807500D01*
G75*
G02*
X102907500Y-127715000I92500J0D01*
G01*
X103092500Y-127715000D01*
G75*
G02*
X103185000Y-127807500I0J-92500D01*
G01*
X103185000Y-128992500D01*
G75*
G02*
X103092500Y-129085000I-92500J0D01*
G01*
G37*
G36*
G01*
X102442500Y-129085000D02*
X102257500Y-129085000D01*
G75*
G02*
X102165000Y-128992500I0J92500D01*
G01*
X102165000Y-127807500D01*
G75*
G02*
X102257500Y-127715000I92500J0D01*
G01*
X102442500Y-127715000D01*
G75*
G02*
X102535000Y-127807500I0J-92500D01*
G01*
X102535000Y-128992500D01*
G75*
G02*
X102442500Y-129085000I-92500J0D01*
G01*
G37*
G36*
G01*
X101792500Y-129085000D02*
X101607500Y-129085000D01*
G75*
G02*
X101515000Y-128992500I0J92500D01*
G01*
X101515000Y-127807500D01*
G75*
G02*
X101607500Y-127715000I92500J0D01*
G01*
X101792500Y-127715000D01*
G75*
G02*
X101885000Y-127807500I0J-92500D01*
G01*
X101885000Y-128992500D01*
G75*
G02*
X101792500Y-129085000I-92500J0D01*
G01*
G37*
G36*
G01*
X64175000Y-101349500D02*
X64175000Y-101150500D01*
G75*
G02*
X64274500Y-101051000I99500J0D01*
G01*
X65525500Y-101051000D01*
G75*
G02*
X65625000Y-101150500I0J-99500D01*
G01*
X65625000Y-101349500D01*
G75*
G02*
X65525500Y-101449000I-99500J0D01*
G01*
X64274500Y-101449000D01*
G75*
G02*
X64175000Y-101349500I0J99500D01*
G01*
G37*
G36*
G01*
X64175000Y-102149500D02*
X64175000Y-101950500D01*
G75*
G02*
X64274500Y-101851000I99500J0D01*
G01*
X65525500Y-101851000D01*
G75*
G02*
X65625000Y-101950500I0J-99500D01*
G01*
X65625000Y-102149500D01*
G75*
G02*
X65525500Y-102249000I-99500J0D01*
G01*
X64274500Y-102249000D01*
G75*
G02*
X64175000Y-102149500I0J99500D01*
G01*
G37*
G36*
G01*
X64175000Y-102949500D02*
X64175000Y-102750500D01*
G75*
G02*
X64274500Y-102651000I99500J0D01*
G01*
X65525500Y-102651000D01*
G75*
G02*
X65625000Y-102750500I0J-99500D01*
G01*
X65625000Y-102949500D01*
G75*
G02*
X65525500Y-103049000I-99500J0D01*
G01*
X64274500Y-103049000D01*
G75*
G02*
X64175000Y-102949500I0J99500D01*
G01*
G37*
G36*
G01*
X64175000Y-103749500D02*
X64175000Y-103550500D01*
G75*
G02*
X64274500Y-103451000I99500J0D01*
G01*
X65525500Y-103451000D01*
G75*
G02*
X65625000Y-103550500I0J-99500D01*
G01*
X65625000Y-103749500D01*
G75*
G02*
X65525500Y-103849000I-99500J0D01*
G01*
X64274500Y-103849000D01*
G75*
G02*
X64175000Y-103749500I0J99500D01*
G01*
G37*
G36*
G01*
X64175000Y-104549500D02*
X64175000Y-104350500D01*
G75*
G02*
X64274500Y-104251000I99500J0D01*
G01*
X65525500Y-104251000D01*
G75*
G02*
X65625000Y-104350500I0J-99500D01*
G01*
X65625000Y-104549500D01*
G75*
G02*
X65525500Y-104649000I-99500J0D01*
G01*
X64274500Y-104649000D01*
G75*
G02*
X64175000Y-104549500I0J99500D01*
G01*
G37*
G36*
G01*
X64175000Y-105349500D02*
X64175000Y-105150500D01*
G75*
G02*
X64274500Y-105051000I99500J0D01*
G01*
X65525500Y-105051000D01*
G75*
G02*
X65625000Y-105150500I0J-99500D01*
G01*
X65625000Y-105349500D01*
G75*
G02*
X65525500Y-105449000I-99500J0D01*
G01*
X64274500Y-105449000D01*
G75*
G02*
X64175000Y-105349500I0J99500D01*
G01*
G37*
G36*
G01*
X64175000Y-106149500D02*
X64175000Y-105950500D01*
G75*
G02*
X64274500Y-105851000I99500J0D01*
G01*
X65525500Y-105851000D01*
G75*
G02*
X65625000Y-105950500I0J-99500D01*
G01*
X65625000Y-106149500D01*
G75*
G02*
X65525500Y-106249000I-99500J0D01*
G01*
X64274500Y-106249000D01*
G75*
G02*
X64175000Y-106149500I0J99500D01*
G01*
G37*
G36*
G01*
X64175000Y-106949500D02*
X64175000Y-106750500D01*
G75*
G02*
X64274500Y-106651000I99500J0D01*
G01*
X65525500Y-106651000D01*
G75*
G02*
X65625000Y-106750500I0J-99500D01*
G01*
X65625000Y-106949500D01*
G75*
G02*
X65525500Y-107049000I-99500J0D01*
G01*
X64274500Y-107049000D01*
G75*
G02*
X64175000Y-106949500I0J99500D01*
G01*
G37*
G36*
G01*
X64175000Y-107749500D02*
X64175000Y-107550500D01*
G75*
G02*
X64274500Y-107451000I99500J0D01*
G01*
X65525500Y-107451000D01*
G75*
G02*
X65625000Y-107550500I0J-99500D01*
G01*
X65625000Y-107749500D01*
G75*
G02*
X65525500Y-107849000I-99500J0D01*
G01*
X64274500Y-107849000D01*
G75*
G02*
X64175000Y-107749500I0J99500D01*
G01*
G37*
G36*
G01*
X64175000Y-108549500D02*
X64175000Y-108350500D01*
G75*
G02*
X64274500Y-108251000I99500J0D01*
G01*
X65525500Y-108251000D01*
G75*
G02*
X65625000Y-108350500I0J-99500D01*
G01*
X65625000Y-108549500D01*
G75*
G02*
X65525500Y-108649000I-99500J0D01*
G01*
X64274500Y-108649000D01*
G75*
G02*
X64175000Y-108549500I0J99500D01*
G01*
G37*
G36*
G01*
X64175000Y-109349500D02*
X64175000Y-109150500D01*
G75*
G02*
X64274500Y-109051000I99500J0D01*
G01*
X65525500Y-109051000D01*
G75*
G02*
X65625000Y-109150500I0J-99500D01*
G01*
X65625000Y-109349500D01*
G75*
G02*
X65525500Y-109449000I-99500J0D01*
G01*
X64274500Y-109449000D01*
G75*
G02*
X64175000Y-109349500I0J99500D01*
G01*
G37*
G36*
G01*
X64175000Y-110149500D02*
X64175000Y-109950500D01*
G75*
G02*
X64274500Y-109851000I99500J0D01*
G01*
X65525500Y-109851000D01*
G75*
G02*
X65625000Y-109950500I0J-99500D01*
G01*
X65625000Y-110149500D01*
G75*
G02*
X65525500Y-110249000I-99500J0D01*
G01*
X64274500Y-110249000D01*
G75*
G02*
X64175000Y-110149500I0J99500D01*
G01*
G37*
G36*
G01*
X64175000Y-110949500D02*
X64175000Y-110750500D01*
G75*
G02*
X64274500Y-110651000I99500J0D01*
G01*
X65525500Y-110651000D01*
G75*
G02*
X65625000Y-110750500I0J-99500D01*
G01*
X65625000Y-110949500D01*
G75*
G02*
X65525500Y-111049000I-99500J0D01*
G01*
X64274500Y-111049000D01*
G75*
G02*
X64175000Y-110949500I0J99500D01*
G01*
G37*
G36*
G01*
X64175000Y-111749500D02*
X64175000Y-111550500D01*
G75*
G02*
X64274500Y-111451000I99500J0D01*
G01*
X65525500Y-111451000D01*
G75*
G02*
X65625000Y-111550500I0J-99500D01*
G01*
X65625000Y-111749500D01*
G75*
G02*
X65525500Y-111849000I-99500J0D01*
G01*
X64274500Y-111849000D01*
G75*
G02*
X64175000Y-111749500I0J99500D01*
G01*
G37*
G36*
G01*
X64175000Y-112549500D02*
X64175000Y-112350500D01*
G75*
G02*
X64274500Y-112251000I99500J0D01*
G01*
X65525500Y-112251000D01*
G75*
G02*
X65625000Y-112350500I0J-99500D01*
G01*
X65625000Y-112549500D01*
G75*
G02*
X65525500Y-112649000I-99500J0D01*
G01*
X64274500Y-112649000D01*
G75*
G02*
X64175000Y-112549500I0J99500D01*
G01*
G37*
G36*
G01*
X64175000Y-113349500D02*
X64175000Y-113150500D01*
G75*
G02*
X64274500Y-113051000I99500J0D01*
G01*
X65525500Y-113051000D01*
G75*
G02*
X65625000Y-113150500I0J-99500D01*
G01*
X65625000Y-113349500D01*
G75*
G02*
X65525500Y-113449000I-99500J0D01*
G01*
X64274500Y-113449000D01*
G75*
G02*
X64175000Y-113349500I0J99500D01*
G01*
G37*
G36*
G01*
X64175000Y-114149500D02*
X64175000Y-113950500D01*
G75*
G02*
X64274500Y-113851000I99500J0D01*
G01*
X65525500Y-113851000D01*
G75*
G02*
X65625000Y-113950500I0J-99500D01*
G01*
X65625000Y-114149500D01*
G75*
G02*
X65525500Y-114249000I-99500J0D01*
G01*
X64274500Y-114249000D01*
G75*
G02*
X64175000Y-114149500I0J99500D01*
G01*
G37*
G36*
G01*
X64175000Y-114949500D02*
X64175000Y-114750500D01*
G75*
G02*
X64274500Y-114651000I99500J0D01*
G01*
X65525500Y-114651000D01*
G75*
G02*
X65625000Y-114750500I0J-99500D01*
G01*
X65625000Y-114949500D01*
G75*
G02*
X65525500Y-115049000I-99500J0D01*
G01*
X64274500Y-115049000D01*
G75*
G02*
X64175000Y-114949500I0J99500D01*
G01*
G37*
G36*
G01*
X64175000Y-115749500D02*
X64175000Y-115550500D01*
G75*
G02*
X64274500Y-115451000I99500J0D01*
G01*
X65525500Y-115451000D01*
G75*
G02*
X65625000Y-115550500I0J-99500D01*
G01*
X65625000Y-115749500D01*
G75*
G02*
X65525500Y-115849000I-99500J0D01*
G01*
X64274500Y-115849000D01*
G75*
G02*
X64175000Y-115749500I0J99500D01*
G01*
G37*
G36*
G01*
X64175000Y-116549500D02*
X64175000Y-116350500D01*
G75*
G02*
X64274500Y-116251000I99500J0D01*
G01*
X65525500Y-116251000D01*
G75*
G02*
X65625000Y-116350500I0J-99500D01*
G01*
X65625000Y-116549500D01*
G75*
G02*
X65525500Y-116649000I-99500J0D01*
G01*
X64274500Y-116649000D01*
G75*
G02*
X64175000Y-116549500I0J99500D01*
G01*
G37*
G36*
G01*
X64175000Y-117349500D02*
X64175000Y-117150500D01*
G75*
G02*
X64274500Y-117051000I99500J0D01*
G01*
X65525500Y-117051000D01*
G75*
G02*
X65625000Y-117150500I0J-99500D01*
G01*
X65625000Y-117349500D01*
G75*
G02*
X65525500Y-117449000I-99500J0D01*
G01*
X64274500Y-117449000D01*
G75*
G02*
X64175000Y-117349500I0J99500D01*
G01*
G37*
G36*
G01*
X64175000Y-118149500D02*
X64175000Y-117950500D01*
G75*
G02*
X64274500Y-117851000I99500J0D01*
G01*
X65525500Y-117851000D01*
G75*
G02*
X65625000Y-117950500I0J-99500D01*
G01*
X65625000Y-118149500D01*
G75*
G02*
X65525500Y-118249000I-99500J0D01*
G01*
X64274500Y-118249000D01*
G75*
G02*
X64175000Y-118149500I0J99500D01*
G01*
G37*
G36*
G01*
X64175000Y-118949500D02*
X64175000Y-118750500D01*
G75*
G02*
X64274500Y-118651000I99500J0D01*
G01*
X65525500Y-118651000D01*
G75*
G02*
X65625000Y-118750500I0J-99500D01*
G01*
X65625000Y-118949500D01*
G75*
G02*
X65525500Y-119049000I-99500J0D01*
G01*
X64274500Y-119049000D01*
G75*
G02*
X64175000Y-118949500I0J99500D01*
G01*
G37*
G36*
G01*
X64175000Y-119749500D02*
X64175000Y-119550500D01*
G75*
G02*
X64274500Y-119451000I99500J0D01*
G01*
X65525500Y-119451000D01*
G75*
G02*
X65625000Y-119550500I0J-99500D01*
G01*
X65625000Y-119749500D01*
G75*
G02*
X65525500Y-119849000I-99500J0D01*
G01*
X64274500Y-119849000D01*
G75*
G02*
X64175000Y-119749500I0J99500D01*
G01*
G37*
G36*
G01*
X64175000Y-120549500D02*
X64175000Y-120350500D01*
G75*
G02*
X64274500Y-120251000I99500J0D01*
G01*
X65525500Y-120251000D01*
G75*
G02*
X65625000Y-120350500I0J-99500D01*
G01*
X65625000Y-120549500D01*
G75*
G02*
X65525500Y-120649000I-99500J0D01*
G01*
X64274500Y-120649000D01*
G75*
G02*
X64175000Y-120549500I0J99500D01*
G01*
G37*
G36*
G01*
X64175000Y-121349500D02*
X64175000Y-121150500D01*
G75*
G02*
X64274500Y-121051000I99500J0D01*
G01*
X65525500Y-121051000D01*
G75*
G02*
X65625000Y-121150500I0J-99500D01*
G01*
X65625000Y-121349500D01*
G75*
G02*
X65525500Y-121449000I-99500J0D01*
G01*
X64274500Y-121449000D01*
G75*
G02*
X64175000Y-121349500I0J99500D01*
G01*
G37*
G36*
G01*
X64175000Y-122149500D02*
X64175000Y-121950500D01*
G75*
G02*
X64274500Y-121851000I99500J0D01*
G01*
X65525500Y-121851000D01*
G75*
G02*
X65625000Y-121950500I0J-99500D01*
G01*
X65625000Y-122149500D01*
G75*
G02*
X65525500Y-122249000I-99500J0D01*
G01*
X64274500Y-122249000D01*
G75*
G02*
X64175000Y-122149500I0J99500D01*
G01*
G37*
G36*
G01*
X52675000Y-122149500D02*
X52675000Y-121950500D01*
G75*
G02*
X52774500Y-121851000I99500J0D01*
G01*
X54025500Y-121851000D01*
G75*
G02*
X54125000Y-121950500I0J-99500D01*
G01*
X54125000Y-122149500D01*
G75*
G02*
X54025500Y-122249000I-99500J0D01*
G01*
X52774500Y-122249000D01*
G75*
G02*
X52675000Y-122149500I0J99500D01*
G01*
G37*
G36*
G01*
X52675000Y-121349500D02*
X52675000Y-121150500D01*
G75*
G02*
X52774500Y-121051000I99500J0D01*
G01*
X54025500Y-121051000D01*
G75*
G02*
X54125000Y-121150500I0J-99500D01*
G01*
X54125000Y-121349500D01*
G75*
G02*
X54025500Y-121449000I-99500J0D01*
G01*
X52774500Y-121449000D01*
G75*
G02*
X52675000Y-121349500I0J99500D01*
G01*
G37*
G36*
G01*
X52675000Y-120549500D02*
X52675000Y-120350500D01*
G75*
G02*
X52774500Y-120251000I99500J0D01*
G01*
X54025500Y-120251000D01*
G75*
G02*
X54125000Y-120350500I0J-99500D01*
G01*
X54125000Y-120549500D01*
G75*
G02*
X54025500Y-120649000I-99500J0D01*
G01*
X52774500Y-120649000D01*
G75*
G02*
X52675000Y-120549500I0J99500D01*
G01*
G37*
G36*
G01*
X52675000Y-119749500D02*
X52675000Y-119550500D01*
G75*
G02*
X52774500Y-119451000I99500J0D01*
G01*
X54025500Y-119451000D01*
G75*
G02*
X54125000Y-119550500I0J-99500D01*
G01*
X54125000Y-119749500D01*
G75*
G02*
X54025500Y-119849000I-99500J0D01*
G01*
X52774500Y-119849000D01*
G75*
G02*
X52675000Y-119749500I0J99500D01*
G01*
G37*
G36*
G01*
X52675000Y-118949500D02*
X52675000Y-118750500D01*
G75*
G02*
X52774500Y-118651000I99500J0D01*
G01*
X54025500Y-118651000D01*
G75*
G02*
X54125000Y-118750500I0J-99500D01*
G01*
X54125000Y-118949500D01*
G75*
G02*
X54025500Y-119049000I-99500J0D01*
G01*
X52774500Y-119049000D01*
G75*
G02*
X52675000Y-118949500I0J99500D01*
G01*
G37*
G36*
G01*
X52675000Y-118149500D02*
X52675000Y-117950500D01*
G75*
G02*
X52774500Y-117851000I99500J0D01*
G01*
X54025500Y-117851000D01*
G75*
G02*
X54125000Y-117950500I0J-99500D01*
G01*
X54125000Y-118149500D01*
G75*
G02*
X54025500Y-118249000I-99500J0D01*
G01*
X52774500Y-118249000D01*
G75*
G02*
X52675000Y-118149500I0J99500D01*
G01*
G37*
G36*
G01*
X52675000Y-117349500D02*
X52675000Y-117150500D01*
G75*
G02*
X52774500Y-117051000I99500J0D01*
G01*
X54025500Y-117051000D01*
G75*
G02*
X54125000Y-117150500I0J-99500D01*
G01*
X54125000Y-117349500D01*
G75*
G02*
X54025500Y-117449000I-99500J0D01*
G01*
X52774500Y-117449000D01*
G75*
G02*
X52675000Y-117349500I0J99500D01*
G01*
G37*
G36*
G01*
X52675000Y-116549500D02*
X52675000Y-116350500D01*
G75*
G02*
X52774500Y-116251000I99500J0D01*
G01*
X54025500Y-116251000D01*
G75*
G02*
X54125000Y-116350500I0J-99500D01*
G01*
X54125000Y-116549500D01*
G75*
G02*
X54025500Y-116649000I-99500J0D01*
G01*
X52774500Y-116649000D01*
G75*
G02*
X52675000Y-116549500I0J99500D01*
G01*
G37*
G36*
G01*
X52675000Y-115749500D02*
X52675000Y-115550500D01*
G75*
G02*
X52774500Y-115451000I99500J0D01*
G01*
X54025500Y-115451000D01*
G75*
G02*
X54125000Y-115550500I0J-99500D01*
G01*
X54125000Y-115749500D01*
G75*
G02*
X54025500Y-115849000I-99500J0D01*
G01*
X52774500Y-115849000D01*
G75*
G02*
X52675000Y-115749500I0J99500D01*
G01*
G37*
G36*
G01*
X52675000Y-114949500D02*
X52675000Y-114750500D01*
G75*
G02*
X52774500Y-114651000I99500J0D01*
G01*
X54025500Y-114651000D01*
G75*
G02*
X54125000Y-114750500I0J-99500D01*
G01*
X54125000Y-114949500D01*
G75*
G02*
X54025500Y-115049000I-99500J0D01*
G01*
X52774500Y-115049000D01*
G75*
G02*
X52675000Y-114949500I0J99500D01*
G01*
G37*
G36*
G01*
X52675000Y-114149500D02*
X52675000Y-113950500D01*
G75*
G02*
X52774500Y-113851000I99500J0D01*
G01*
X54025500Y-113851000D01*
G75*
G02*
X54125000Y-113950500I0J-99500D01*
G01*
X54125000Y-114149500D01*
G75*
G02*
X54025500Y-114249000I-99500J0D01*
G01*
X52774500Y-114249000D01*
G75*
G02*
X52675000Y-114149500I0J99500D01*
G01*
G37*
G36*
G01*
X52675000Y-113349500D02*
X52675000Y-113150500D01*
G75*
G02*
X52774500Y-113051000I99500J0D01*
G01*
X54025500Y-113051000D01*
G75*
G02*
X54125000Y-113150500I0J-99500D01*
G01*
X54125000Y-113349500D01*
G75*
G02*
X54025500Y-113449000I-99500J0D01*
G01*
X52774500Y-113449000D01*
G75*
G02*
X52675000Y-113349500I0J99500D01*
G01*
G37*
G36*
G01*
X52675000Y-112549500D02*
X52675000Y-112350500D01*
G75*
G02*
X52774500Y-112251000I99500J0D01*
G01*
X54025500Y-112251000D01*
G75*
G02*
X54125000Y-112350500I0J-99500D01*
G01*
X54125000Y-112549500D01*
G75*
G02*
X54025500Y-112649000I-99500J0D01*
G01*
X52774500Y-112649000D01*
G75*
G02*
X52675000Y-112549500I0J99500D01*
G01*
G37*
G36*
G01*
X52675000Y-111749500D02*
X52675000Y-111550500D01*
G75*
G02*
X52774500Y-111451000I99500J0D01*
G01*
X54025500Y-111451000D01*
G75*
G02*
X54125000Y-111550500I0J-99500D01*
G01*
X54125000Y-111749500D01*
G75*
G02*
X54025500Y-111849000I-99500J0D01*
G01*
X52774500Y-111849000D01*
G75*
G02*
X52675000Y-111749500I0J99500D01*
G01*
G37*
G36*
G01*
X52675000Y-110949500D02*
X52675000Y-110750500D01*
G75*
G02*
X52774500Y-110651000I99500J0D01*
G01*
X54025500Y-110651000D01*
G75*
G02*
X54125000Y-110750500I0J-99500D01*
G01*
X54125000Y-110949500D01*
G75*
G02*
X54025500Y-111049000I-99500J0D01*
G01*
X52774500Y-111049000D01*
G75*
G02*
X52675000Y-110949500I0J99500D01*
G01*
G37*
G36*
G01*
X52675000Y-110149500D02*
X52675000Y-109950500D01*
G75*
G02*
X52774500Y-109851000I99500J0D01*
G01*
X54025500Y-109851000D01*
G75*
G02*
X54125000Y-109950500I0J-99500D01*
G01*
X54125000Y-110149500D01*
G75*
G02*
X54025500Y-110249000I-99500J0D01*
G01*
X52774500Y-110249000D01*
G75*
G02*
X52675000Y-110149500I0J99500D01*
G01*
G37*
G36*
G01*
X52675000Y-109349500D02*
X52675000Y-109150500D01*
G75*
G02*
X52774500Y-109051000I99500J0D01*
G01*
X54025500Y-109051000D01*
G75*
G02*
X54125000Y-109150500I0J-99500D01*
G01*
X54125000Y-109349500D01*
G75*
G02*
X54025500Y-109449000I-99500J0D01*
G01*
X52774500Y-109449000D01*
G75*
G02*
X52675000Y-109349500I0J99500D01*
G01*
G37*
G36*
G01*
X52675000Y-108549500D02*
X52675000Y-108350500D01*
G75*
G02*
X52774500Y-108251000I99500J0D01*
G01*
X54025500Y-108251000D01*
G75*
G02*
X54125000Y-108350500I0J-99500D01*
G01*
X54125000Y-108549500D01*
G75*
G02*
X54025500Y-108649000I-99500J0D01*
G01*
X52774500Y-108649000D01*
G75*
G02*
X52675000Y-108549500I0J99500D01*
G01*
G37*
G36*
G01*
X52675000Y-107749500D02*
X52675000Y-107550500D01*
G75*
G02*
X52774500Y-107451000I99500J0D01*
G01*
X54025500Y-107451000D01*
G75*
G02*
X54125000Y-107550500I0J-99500D01*
G01*
X54125000Y-107749500D01*
G75*
G02*
X54025500Y-107849000I-99500J0D01*
G01*
X52774500Y-107849000D01*
G75*
G02*
X52675000Y-107749500I0J99500D01*
G01*
G37*
G36*
G01*
X52675000Y-106949500D02*
X52675000Y-106750500D01*
G75*
G02*
X52774500Y-106651000I99500J0D01*
G01*
X54025500Y-106651000D01*
G75*
G02*
X54125000Y-106750500I0J-99500D01*
G01*
X54125000Y-106949500D01*
G75*
G02*
X54025500Y-107049000I-99500J0D01*
G01*
X52774500Y-107049000D01*
G75*
G02*
X52675000Y-106949500I0J99500D01*
G01*
G37*
G36*
G01*
X52675000Y-106149500D02*
X52675000Y-105950500D01*
G75*
G02*
X52774500Y-105851000I99500J0D01*
G01*
X54025500Y-105851000D01*
G75*
G02*
X54125000Y-105950500I0J-99500D01*
G01*
X54125000Y-106149500D01*
G75*
G02*
X54025500Y-106249000I-99500J0D01*
G01*
X52774500Y-106249000D01*
G75*
G02*
X52675000Y-106149500I0J99500D01*
G01*
G37*
G36*
G01*
X52675000Y-105349500D02*
X52675000Y-105150500D01*
G75*
G02*
X52774500Y-105051000I99500J0D01*
G01*
X54025500Y-105051000D01*
G75*
G02*
X54125000Y-105150500I0J-99500D01*
G01*
X54125000Y-105349500D01*
G75*
G02*
X54025500Y-105449000I-99500J0D01*
G01*
X52774500Y-105449000D01*
G75*
G02*
X52675000Y-105349500I0J99500D01*
G01*
G37*
G36*
G01*
X52675000Y-104549500D02*
X52675000Y-104350500D01*
G75*
G02*
X52774500Y-104251000I99500J0D01*
G01*
X54025500Y-104251000D01*
G75*
G02*
X54125000Y-104350500I0J-99500D01*
G01*
X54125000Y-104549500D01*
G75*
G02*
X54025500Y-104649000I-99500J0D01*
G01*
X52774500Y-104649000D01*
G75*
G02*
X52675000Y-104549500I0J99500D01*
G01*
G37*
G36*
G01*
X52675000Y-103749500D02*
X52675000Y-103550500D01*
G75*
G02*
X52774500Y-103451000I99500J0D01*
G01*
X54025500Y-103451000D01*
G75*
G02*
X54125000Y-103550500I0J-99500D01*
G01*
X54125000Y-103749500D01*
G75*
G02*
X54025500Y-103849000I-99500J0D01*
G01*
X52774500Y-103849000D01*
G75*
G02*
X52675000Y-103749500I0J99500D01*
G01*
G37*
G36*
G01*
X52675000Y-102949500D02*
X52675000Y-102750500D01*
G75*
G02*
X52774500Y-102651000I99500J0D01*
G01*
X54025500Y-102651000D01*
G75*
G02*
X54125000Y-102750500I0J-99500D01*
G01*
X54125000Y-102949500D01*
G75*
G02*
X54025500Y-103049000I-99500J0D01*
G01*
X52774500Y-103049000D01*
G75*
G02*
X52675000Y-102949500I0J99500D01*
G01*
G37*
G36*
G01*
X52675000Y-102149500D02*
X52675000Y-101950500D01*
G75*
G02*
X52774500Y-101851000I99500J0D01*
G01*
X54025500Y-101851000D01*
G75*
G02*
X54125000Y-101950500I0J-99500D01*
G01*
X54125000Y-102149500D01*
G75*
G02*
X54025500Y-102249000I-99500J0D01*
G01*
X52774500Y-102249000D01*
G75*
G02*
X52675000Y-102149500I0J99500D01*
G01*
G37*
G36*
G01*
X52675000Y-101349500D02*
X52675000Y-101150500D01*
G75*
G02*
X52774500Y-101051000I99500J0D01*
G01*
X54025500Y-101051000D01*
G75*
G02*
X54125000Y-101150500I0J-99500D01*
G01*
X54125000Y-101349500D01*
G75*
G02*
X54025500Y-101449000I-99500J0D01*
G01*
X52774500Y-101449000D01*
G75*
G02*
X52675000Y-101349500I0J99500D01*
G01*
G37*
G36*
G01*
X69635000Y-120807500D02*
X69635000Y-121292500D01*
G75*
G02*
X69442500Y-121485000I-192500J0D01*
G01*
X69057500Y-121485000D01*
G75*
G02*
X68865000Y-121292500I0J192500D01*
G01*
X68865000Y-120807500D01*
G75*
G02*
X69057500Y-120615000I192500J0D01*
G01*
X69442500Y-120615000D01*
G75*
G02*
X69635000Y-120807500I0J-192500D01*
G01*
G37*
G36*
G01*
X71135000Y-120807500D02*
X71135000Y-121292500D01*
G75*
G02*
X70942500Y-121485000I-192500J0D01*
G01*
X70557500Y-121485000D01*
G75*
G02*
X70365000Y-121292500I0J192500D01*
G01*
X70365000Y-120807500D01*
G75*
G02*
X70557500Y-120615000I192500J0D01*
G01*
X70942500Y-120615000D01*
G75*
G02*
X71135000Y-120807500I0J-192500D01*
G01*
G37*
G36*
G01*
X69742500Y-110035000D02*
X69257500Y-110035000D01*
G75*
G02*
X69065000Y-109842500I0J192500D01*
G01*
X69065000Y-109457500D01*
G75*
G02*
X69257500Y-109265000I192500J0D01*
G01*
X69742500Y-109265000D01*
G75*
G02*
X69935000Y-109457500I0J-192500D01*
G01*
X69935000Y-109842500D01*
G75*
G02*
X69742500Y-110035000I-192500J0D01*
G01*
G37*
G36*
G01*
X69742500Y-111535000D02*
X69257500Y-111535000D01*
G75*
G02*
X69065000Y-111342500I0J192500D01*
G01*
X69065000Y-110957500D01*
G75*
G02*
X69257500Y-110765000I192500J0D01*
G01*
X69742500Y-110765000D01*
G75*
G02*
X69935000Y-110957500I0J-192500D01*
G01*
X69935000Y-111342500D01*
G75*
G02*
X69742500Y-111535000I-192500J0D01*
G01*
G37*
G36*
G01*
X93765000Y-114492500D02*
X93765000Y-114607500D01*
G75*
G02*
X93707500Y-114665000I-57500J0D01*
G01*
X92417500Y-114665000D01*
G75*
G02*
X92360000Y-114607500I0J57500D01*
G01*
X92360000Y-114492500D01*
G75*
G02*
X92417500Y-114435000I57500J0D01*
G01*
X93707500Y-114435000D01*
G75*
G02*
X93765000Y-114492500I0J-57500D01*
G01*
G37*
G36*
G01*
X93765000Y-113992500D02*
X93765000Y-114107500D01*
G75*
G02*
X93707500Y-114165000I-57500J0D01*
G01*
X92417500Y-114165000D01*
G75*
G02*
X92360000Y-114107500I0J57500D01*
G01*
X92360000Y-113992500D01*
G75*
G02*
X92417500Y-113935000I57500J0D01*
G01*
X93707500Y-113935000D01*
G75*
G02*
X93765000Y-113992500I0J-57500D01*
G01*
G37*
G36*
G01*
X93765000Y-113492500D02*
X93765000Y-113607500D01*
G75*
G02*
X93707500Y-113665000I-57500J0D01*
G01*
X92417500Y-113665000D01*
G75*
G02*
X92360000Y-113607500I0J57500D01*
G01*
X92360000Y-113492500D01*
G75*
G02*
X92417500Y-113435000I57500J0D01*
G01*
X93707500Y-113435000D01*
G75*
G02*
X93765000Y-113492500I0J-57500D01*
G01*
G37*
G36*
G01*
X93765000Y-112992500D02*
X93765000Y-113107500D01*
G75*
G02*
X93707500Y-113165000I-57500J0D01*
G01*
X92417500Y-113165000D01*
G75*
G02*
X92360000Y-113107500I0J57500D01*
G01*
X92360000Y-112992500D01*
G75*
G02*
X92417500Y-112935000I57500J0D01*
G01*
X93707500Y-112935000D01*
G75*
G02*
X93765000Y-112992500I0J-57500D01*
G01*
G37*
G36*
G01*
X93765000Y-112492500D02*
X93765000Y-112607500D01*
G75*
G02*
X93707500Y-112665000I-57500J0D01*
G01*
X92417500Y-112665000D01*
G75*
G02*
X92360000Y-112607500I0J57500D01*
G01*
X92360000Y-112492500D01*
G75*
G02*
X92417500Y-112435000I57500J0D01*
G01*
X93707500Y-112435000D01*
G75*
G02*
X93765000Y-112492500I0J-57500D01*
G01*
G37*
G36*
G01*
X93765000Y-111992500D02*
X93765000Y-112107500D01*
G75*
G02*
X93707500Y-112165000I-57500J0D01*
G01*
X92417500Y-112165000D01*
G75*
G02*
X92360000Y-112107500I0J57500D01*
G01*
X92360000Y-111992500D01*
G75*
G02*
X92417500Y-111935000I57500J0D01*
G01*
X93707500Y-111935000D01*
G75*
G02*
X93765000Y-111992500I0J-57500D01*
G01*
G37*
G36*
G01*
X93765000Y-111492500D02*
X93765000Y-111607500D01*
G75*
G02*
X93707500Y-111665000I-57500J0D01*
G01*
X92417500Y-111665000D01*
G75*
G02*
X92360000Y-111607500I0J57500D01*
G01*
X92360000Y-111492500D01*
G75*
G02*
X92417500Y-111435000I57500J0D01*
G01*
X93707500Y-111435000D01*
G75*
G02*
X93765000Y-111492500I0J-57500D01*
G01*
G37*
G36*
G01*
X93765000Y-110992500D02*
X93765000Y-111107500D01*
G75*
G02*
X93707500Y-111165000I-57500J0D01*
G01*
X92417500Y-111165000D01*
G75*
G02*
X92360000Y-111107500I0J57500D01*
G01*
X92360000Y-110992500D01*
G75*
G02*
X92417500Y-110935000I57500J0D01*
G01*
X93707500Y-110935000D01*
G75*
G02*
X93765000Y-110992500I0J-57500D01*
G01*
G37*
G36*
G01*
X93765000Y-110492500D02*
X93765000Y-110607500D01*
G75*
G02*
X93707500Y-110665000I-57500J0D01*
G01*
X92417500Y-110665000D01*
G75*
G02*
X92360000Y-110607500I0J57500D01*
G01*
X92360000Y-110492500D01*
G75*
G02*
X92417500Y-110435000I57500J0D01*
G01*
X93707500Y-110435000D01*
G75*
G02*
X93765000Y-110492500I0J-57500D01*
G01*
G37*
G36*
G01*
X93765000Y-109992500D02*
X93765000Y-110107500D01*
G75*
G02*
X93707500Y-110165000I-57500J0D01*
G01*
X92417500Y-110165000D01*
G75*
G02*
X92360000Y-110107500I0J57500D01*
G01*
X92360000Y-109992500D01*
G75*
G02*
X92417500Y-109935000I57500J0D01*
G01*
X93707500Y-109935000D01*
G75*
G02*
X93765000Y-109992500I0J-57500D01*
G01*
G37*
G36*
G01*
X93765000Y-109492500D02*
X93765000Y-109607500D01*
G75*
G02*
X93707500Y-109665000I-57500J0D01*
G01*
X92417500Y-109665000D01*
G75*
G02*
X92360000Y-109607500I0J57500D01*
G01*
X92360000Y-109492500D01*
G75*
G02*
X92417500Y-109435000I57500J0D01*
G01*
X93707500Y-109435000D01*
G75*
G02*
X93765000Y-109492500I0J-57500D01*
G01*
G37*
G36*
G01*
X93765000Y-108992500D02*
X93765000Y-109107500D01*
G75*
G02*
X93707500Y-109165000I-57500J0D01*
G01*
X92417500Y-109165000D01*
G75*
G02*
X92360000Y-109107500I0J57500D01*
G01*
X92360000Y-108992500D01*
G75*
G02*
X92417500Y-108935000I57500J0D01*
G01*
X93707500Y-108935000D01*
G75*
G02*
X93765000Y-108992500I0J-57500D01*
G01*
G37*
G36*
G01*
X93765000Y-108492500D02*
X93765000Y-108607500D01*
G75*
G02*
X93707500Y-108665000I-57500J0D01*
G01*
X92417500Y-108665000D01*
G75*
G02*
X92360000Y-108607500I0J57500D01*
G01*
X92360000Y-108492500D01*
G75*
G02*
X92417500Y-108435000I57500J0D01*
G01*
X93707500Y-108435000D01*
G75*
G02*
X93765000Y-108492500I0J-57500D01*
G01*
G37*
G36*
G01*
X93765000Y-107992500D02*
X93765000Y-108107500D01*
G75*
G02*
X93707500Y-108165000I-57500J0D01*
G01*
X92417500Y-108165000D01*
G75*
G02*
X92360000Y-108107500I0J57500D01*
G01*
X92360000Y-107992500D01*
G75*
G02*
X92417500Y-107935000I57500J0D01*
G01*
X93707500Y-107935000D01*
G75*
G02*
X93765000Y-107992500I0J-57500D01*
G01*
G37*
G36*
G01*
X93765000Y-107492500D02*
X93765000Y-107607500D01*
G75*
G02*
X93707500Y-107665000I-57500J0D01*
G01*
X92417500Y-107665000D01*
G75*
G02*
X92360000Y-107607500I0J57500D01*
G01*
X92360000Y-107492500D01*
G75*
G02*
X92417500Y-107435000I57500J0D01*
G01*
X93707500Y-107435000D01*
G75*
G02*
X93765000Y-107492500I0J-57500D01*
G01*
G37*
G36*
G01*
X93765000Y-106992500D02*
X93765000Y-107107500D01*
G75*
G02*
X93707500Y-107165000I-57500J0D01*
G01*
X92417500Y-107165000D01*
G75*
G02*
X92360000Y-107107500I0J57500D01*
G01*
X92360000Y-106992500D01*
G75*
G02*
X92417500Y-106935000I57500J0D01*
G01*
X93707500Y-106935000D01*
G75*
G02*
X93765000Y-106992500I0J-57500D01*
G01*
G37*
G36*
G01*
X93765000Y-106492500D02*
X93765000Y-106607500D01*
G75*
G02*
X93707500Y-106665000I-57500J0D01*
G01*
X92417500Y-106665000D01*
G75*
G02*
X92360000Y-106607500I0J57500D01*
G01*
X92360000Y-106492500D01*
G75*
G02*
X92417500Y-106435000I57500J0D01*
G01*
X93707500Y-106435000D01*
G75*
G02*
X93765000Y-106492500I0J-57500D01*
G01*
G37*
G36*
G01*
X93765000Y-105992500D02*
X93765000Y-106107500D01*
G75*
G02*
X93707500Y-106165000I-57500J0D01*
G01*
X92417500Y-106165000D01*
G75*
G02*
X92360000Y-106107500I0J57500D01*
G01*
X92360000Y-105992500D01*
G75*
G02*
X92417500Y-105935000I57500J0D01*
G01*
X93707500Y-105935000D01*
G75*
G02*
X93765000Y-105992500I0J-57500D01*
G01*
G37*
G36*
G01*
X93765000Y-105492500D02*
X93765000Y-105607500D01*
G75*
G02*
X93707500Y-105665000I-57500J0D01*
G01*
X92417500Y-105665000D01*
G75*
G02*
X92360000Y-105607500I0J57500D01*
G01*
X92360000Y-105492500D01*
G75*
G02*
X92417500Y-105435000I57500J0D01*
G01*
X93707500Y-105435000D01*
G75*
G02*
X93765000Y-105492500I0J-57500D01*
G01*
G37*
G36*
G01*
X93765000Y-104992500D02*
X93765000Y-105107500D01*
G75*
G02*
X93707500Y-105165000I-57500J0D01*
G01*
X92417500Y-105165000D01*
G75*
G02*
X92360000Y-105107500I0J57500D01*
G01*
X92360000Y-104992500D01*
G75*
G02*
X92417500Y-104935000I57500J0D01*
G01*
X93707500Y-104935000D01*
G75*
G02*
X93765000Y-104992500I0J-57500D01*
G01*
G37*
G36*
G01*
X93765000Y-104492500D02*
X93765000Y-104607500D01*
G75*
G02*
X93707500Y-104665000I-57500J0D01*
G01*
X92417500Y-104665000D01*
G75*
G02*
X92360000Y-104607500I0J57500D01*
G01*
X92360000Y-104492500D01*
G75*
G02*
X92417500Y-104435000I57500J0D01*
G01*
X93707500Y-104435000D01*
G75*
G02*
X93765000Y-104492500I0J-57500D01*
G01*
G37*
G36*
G01*
X93765000Y-103992500D02*
X93765000Y-104107500D01*
G75*
G02*
X93707500Y-104165000I-57500J0D01*
G01*
X92417500Y-104165000D01*
G75*
G02*
X92360000Y-104107500I0J57500D01*
G01*
X92360000Y-103992500D01*
G75*
G02*
X92417500Y-103935000I57500J0D01*
G01*
X93707500Y-103935000D01*
G75*
G02*
X93765000Y-103992500I0J-57500D01*
G01*
G37*
G36*
G01*
X93765000Y-103492500D02*
X93765000Y-103607500D01*
G75*
G02*
X93707500Y-103665000I-57500J0D01*
G01*
X92417500Y-103665000D01*
G75*
G02*
X92360000Y-103607500I0J57500D01*
G01*
X92360000Y-103492500D01*
G75*
G02*
X92417500Y-103435000I57500J0D01*
G01*
X93707500Y-103435000D01*
G75*
G02*
X93765000Y-103492500I0J-57500D01*
G01*
G37*
G36*
G01*
X93765000Y-102992500D02*
X93765000Y-103107500D01*
G75*
G02*
X93707500Y-103165000I-57500J0D01*
G01*
X92417500Y-103165000D01*
G75*
G02*
X92360000Y-103107500I0J57500D01*
G01*
X92360000Y-102992500D01*
G75*
G02*
X92417500Y-102935000I57500J0D01*
G01*
X93707500Y-102935000D01*
G75*
G02*
X93765000Y-102992500I0J-57500D01*
G01*
G37*
G36*
G01*
X93765000Y-102492500D02*
X93765000Y-102607500D01*
G75*
G02*
X93707500Y-102665000I-57500J0D01*
G01*
X92417500Y-102665000D01*
G75*
G02*
X92360000Y-102607500I0J57500D01*
G01*
X92360000Y-102492500D01*
G75*
G02*
X92417500Y-102435000I57500J0D01*
G01*
X93707500Y-102435000D01*
G75*
G02*
X93765000Y-102492500I0J-57500D01*
G01*
G37*
G36*
G01*
X91515000Y-100242500D02*
X91515000Y-101532500D01*
G75*
G02*
X91457500Y-101590000I-57500J0D01*
G01*
X91342500Y-101590000D01*
G75*
G02*
X91285000Y-101532500I0J57500D01*
G01*
X91285000Y-100242500D01*
G75*
G02*
X91342500Y-100185000I57500J0D01*
G01*
X91457500Y-100185000D01*
G75*
G02*
X91515000Y-100242500I0J-57500D01*
G01*
G37*
G36*
G01*
X91015000Y-100242500D02*
X91015000Y-101532500D01*
G75*
G02*
X90957500Y-101590000I-57500J0D01*
G01*
X90842500Y-101590000D01*
G75*
G02*
X90785000Y-101532500I0J57500D01*
G01*
X90785000Y-100242500D01*
G75*
G02*
X90842500Y-100185000I57500J0D01*
G01*
X90957500Y-100185000D01*
G75*
G02*
X91015000Y-100242500I0J-57500D01*
G01*
G37*
G36*
G01*
X90515000Y-100242500D02*
X90515000Y-101532500D01*
G75*
G02*
X90457500Y-101590000I-57500J0D01*
G01*
X90342500Y-101590000D01*
G75*
G02*
X90285000Y-101532500I0J57500D01*
G01*
X90285000Y-100242500D01*
G75*
G02*
X90342500Y-100185000I57500J0D01*
G01*
X90457500Y-100185000D01*
G75*
G02*
X90515000Y-100242500I0J-57500D01*
G01*
G37*
G36*
G01*
X90015000Y-100242500D02*
X90015000Y-101532500D01*
G75*
G02*
X89957500Y-101590000I-57500J0D01*
G01*
X89842500Y-101590000D01*
G75*
G02*
X89785000Y-101532500I0J57500D01*
G01*
X89785000Y-100242500D01*
G75*
G02*
X89842500Y-100185000I57500J0D01*
G01*
X89957500Y-100185000D01*
G75*
G02*
X90015000Y-100242500I0J-57500D01*
G01*
G37*
G36*
G01*
X89515000Y-100242500D02*
X89515000Y-101532500D01*
G75*
G02*
X89457500Y-101590000I-57500J0D01*
G01*
X89342500Y-101590000D01*
G75*
G02*
X89285000Y-101532500I0J57500D01*
G01*
X89285000Y-100242500D01*
G75*
G02*
X89342500Y-100185000I57500J0D01*
G01*
X89457500Y-100185000D01*
G75*
G02*
X89515000Y-100242500I0J-57500D01*
G01*
G37*
G36*
G01*
X89015000Y-100242500D02*
X89015000Y-101532500D01*
G75*
G02*
X88957500Y-101590000I-57500J0D01*
G01*
X88842500Y-101590000D01*
G75*
G02*
X88785000Y-101532500I0J57500D01*
G01*
X88785000Y-100242500D01*
G75*
G02*
X88842500Y-100185000I57500J0D01*
G01*
X88957500Y-100185000D01*
G75*
G02*
X89015000Y-100242500I0J-57500D01*
G01*
G37*
G36*
G01*
X88515000Y-100242500D02*
X88515000Y-101532500D01*
G75*
G02*
X88457500Y-101590000I-57500J0D01*
G01*
X88342500Y-101590000D01*
G75*
G02*
X88285000Y-101532500I0J57500D01*
G01*
X88285000Y-100242500D01*
G75*
G02*
X88342500Y-100185000I57500J0D01*
G01*
X88457500Y-100185000D01*
G75*
G02*
X88515000Y-100242500I0J-57500D01*
G01*
G37*
G36*
G01*
X88015000Y-100242500D02*
X88015000Y-101532500D01*
G75*
G02*
X87957500Y-101590000I-57500J0D01*
G01*
X87842500Y-101590000D01*
G75*
G02*
X87785000Y-101532500I0J57500D01*
G01*
X87785000Y-100242500D01*
G75*
G02*
X87842500Y-100185000I57500J0D01*
G01*
X87957500Y-100185000D01*
G75*
G02*
X88015000Y-100242500I0J-57500D01*
G01*
G37*
G36*
G01*
X87515000Y-100242500D02*
X87515000Y-101532500D01*
G75*
G02*
X87457500Y-101590000I-57500J0D01*
G01*
X87342500Y-101590000D01*
G75*
G02*
X87285000Y-101532500I0J57500D01*
G01*
X87285000Y-100242500D01*
G75*
G02*
X87342500Y-100185000I57500J0D01*
G01*
X87457500Y-100185000D01*
G75*
G02*
X87515000Y-100242500I0J-57500D01*
G01*
G37*
G36*
G01*
X87015000Y-100242500D02*
X87015000Y-101532500D01*
G75*
G02*
X86957500Y-101590000I-57500J0D01*
G01*
X86842500Y-101590000D01*
G75*
G02*
X86785000Y-101532500I0J57500D01*
G01*
X86785000Y-100242500D01*
G75*
G02*
X86842500Y-100185000I57500J0D01*
G01*
X86957500Y-100185000D01*
G75*
G02*
X87015000Y-100242500I0J-57500D01*
G01*
G37*
G36*
G01*
X86515000Y-100242500D02*
X86515000Y-101532500D01*
G75*
G02*
X86457500Y-101590000I-57500J0D01*
G01*
X86342500Y-101590000D01*
G75*
G02*
X86285000Y-101532500I0J57500D01*
G01*
X86285000Y-100242500D01*
G75*
G02*
X86342500Y-100185000I57500J0D01*
G01*
X86457500Y-100185000D01*
G75*
G02*
X86515000Y-100242500I0J-57500D01*
G01*
G37*
G36*
G01*
X86015000Y-100242500D02*
X86015000Y-101532500D01*
G75*
G02*
X85957500Y-101590000I-57500J0D01*
G01*
X85842500Y-101590000D01*
G75*
G02*
X85785000Y-101532500I0J57500D01*
G01*
X85785000Y-100242500D01*
G75*
G02*
X85842500Y-100185000I57500J0D01*
G01*
X85957500Y-100185000D01*
G75*
G02*
X86015000Y-100242500I0J-57500D01*
G01*
G37*
G36*
G01*
X85515000Y-100242500D02*
X85515000Y-101532500D01*
G75*
G02*
X85457500Y-101590000I-57500J0D01*
G01*
X85342500Y-101590000D01*
G75*
G02*
X85285000Y-101532500I0J57500D01*
G01*
X85285000Y-100242500D01*
G75*
G02*
X85342500Y-100185000I57500J0D01*
G01*
X85457500Y-100185000D01*
G75*
G02*
X85515000Y-100242500I0J-57500D01*
G01*
G37*
G36*
G01*
X85015000Y-100242500D02*
X85015000Y-101532500D01*
G75*
G02*
X84957500Y-101590000I-57500J0D01*
G01*
X84842500Y-101590000D01*
G75*
G02*
X84785000Y-101532500I0J57500D01*
G01*
X84785000Y-100242500D01*
G75*
G02*
X84842500Y-100185000I57500J0D01*
G01*
X84957500Y-100185000D01*
G75*
G02*
X85015000Y-100242500I0J-57500D01*
G01*
G37*
G36*
G01*
X84515000Y-100242500D02*
X84515000Y-101532500D01*
G75*
G02*
X84457500Y-101590000I-57500J0D01*
G01*
X84342500Y-101590000D01*
G75*
G02*
X84285000Y-101532500I0J57500D01*
G01*
X84285000Y-100242500D01*
G75*
G02*
X84342500Y-100185000I57500J0D01*
G01*
X84457500Y-100185000D01*
G75*
G02*
X84515000Y-100242500I0J-57500D01*
G01*
G37*
G36*
G01*
X84015000Y-100242500D02*
X84015000Y-101532500D01*
G75*
G02*
X83957500Y-101590000I-57500J0D01*
G01*
X83842500Y-101590000D01*
G75*
G02*
X83785000Y-101532500I0J57500D01*
G01*
X83785000Y-100242500D01*
G75*
G02*
X83842500Y-100185000I57500J0D01*
G01*
X83957500Y-100185000D01*
G75*
G02*
X84015000Y-100242500I0J-57500D01*
G01*
G37*
G36*
G01*
X83515000Y-100242500D02*
X83515000Y-101532500D01*
G75*
G02*
X83457500Y-101590000I-57500J0D01*
G01*
X83342500Y-101590000D01*
G75*
G02*
X83285000Y-101532500I0J57500D01*
G01*
X83285000Y-100242500D01*
G75*
G02*
X83342500Y-100185000I57500J0D01*
G01*
X83457500Y-100185000D01*
G75*
G02*
X83515000Y-100242500I0J-57500D01*
G01*
G37*
G36*
G01*
X83015000Y-100242500D02*
X83015000Y-101532500D01*
G75*
G02*
X82957500Y-101590000I-57500J0D01*
G01*
X82842500Y-101590000D01*
G75*
G02*
X82785000Y-101532500I0J57500D01*
G01*
X82785000Y-100242500D01*
G75*
G02*
X82842500Y-100185000I57500J0D01*
G01*
X82957500Y-100185000D01*
G75*
G02*
X83015000Y-100242500I0J-57500D01*
G01*
G37*
G36*
G01*
X82515000Y-100242500D02*
X82515000Y-101532500D01*
G75*
G02*
X82457500Y-101590000I-57500J0D01*
G01*
X82342500Y-101590000D01*
G75*
G02*
X82285000Y-101532500I0J57500D01*
G01*
X82285000Y-100242500D01*
G75*
G02*
X82342500Y-100185000I57500J0D01*
G01*
X82457500Y-100185000D01*
G75*
G02*
X82515000Y-100242500I0J-57500D01*
G01*
G37*
G36*
G01*
X82015000Y-100242500D02*
X82015000Y-101532500D01*
G75*
G02*
X81957500Y-101590000I-57500J0D01*
G01*
X81842500Y-101590000D01*
G75*
G02*
X81785000Y-101532500I0J57500D01*
G01*
X81785000Y-100242500D01*
G75*
G02*
X81842500Y-100185000I57500J0D01*
G01*
X81957500Y-100185000D01*
G75*
G02*
X82015000Y-100242500I0J-57500D01*
G01*
G37*
G36*
G01*
X81515000Y-100242500D02*
X81515000Y-101532500D01*
G75*
G02*
X81457500Y-101590000I-57500J0D01*
G01*
X81342500Y-101590000D01*
G75*
G02*
X81285000Y-101532500I0J57500D01*
G01*
X81285000Y-100242500D01*
G75*
G02*
X81342500Y-100185000I57500J0D01*
G01*
X81457500Y-100185000D01*
G75*
G02*
X81515000Y-100242500I0J-57500D01*
G01*
G37*
G36*
G01*
X81015000Y-100242500D02*
X81015000Y-101532500D01*
G75*
G02*
X80957500Y-101590000I-57500J0D01*
G01*
X80842500Y-101590000D01*
G75*
G02*
X80785000Y-101532500I0J57500D01*
G01*
X80785000Y-100242500D01*
G75*
G02*
X80842500Y-100185000I57500J0D01*
G01*
X80957500Y-100185000D01*
G75*
G02*
X81015000Y-100242500I0J-57500D01*
G01*
G37*
G36*
G01*
X80515000Y-100242500D02*
X80515000Y-101532500D01*
G75*
G02*
X80457500Y-101590000I-57500J0D01*
G01*
X80342500Y-101590000D01*
G75*
G02*
X80285000Y-101532500I0J57500D01*
G01*
X80285000Y-100242500D01*
G75*
G02*
X80342500Y-100185000I57500J0D01*
G01*
X80457500Y-100185000D01*
G75*
G02*
X80515000Y-100242500I0J-57500D01*
G01*
G37*
G36*
G01*
X80015000Y-100242500D02*
X80015000Y-101532500D01*
G75*
G02*
X79957500Y-101590000I-57500J0D01*
G01*
X79842500Y-101590000D01*
G75*
G02*
X79785000Y-101532500I0J57500D01*
G01*
X79785000Y-100242500D01*
G75*
G02*
X79842500Y-100185000I57500J0D01*
G01*
X79957500Y-100185000D01*
G75*
G02*
X80015000Y-100242500I0J-57500D01*
G01*
G37*
G36*
G01*
X79515000Y-100242500D02*
X79515000Y-101532500D01*
G75*
G02*
X79457500Y-101590000I-57500J0D01*
G01*
X79342500Y-101590000D01*
G75*
G02*
X79285000Y-101532500I0J57500D01*
G01*
X79285000Y-100242500D01*
G75*
G02*
X79342500Y-100185000I57500J0D01*
G01*
X79457500Y-100185000D01*
G75*
G02*
X79515000Y-100242500I0J-57500D01*
G01*
G37*
G36*
G01*
X78440000Y-102492500D02*
X78440000Y-102607500D01*
G75*
G02*
X78382500Y-102665000I-57500J0D01*
G01*
X77092500Y-102665000D01*
G75*
G02*
X77035000Y-102607500I0J57500D01*
G01*
X77035000Y-102492500D01*
G75*
G02*
X77092500Y-102435000I57500J0D01*
G01*
X78382500Y-102435000D01*
G75*
G02*
X78440000Y-102492500I0J-57500D01*
G01*
G37*
G36*
G01*
X78440000Y-102992500D02*
X78440000Y-103107500D01*
G75*
G02*
X78382500Y-103165000I-57500J0D01*
G01*
X77092500Y-103165000D01*
G75*
G02*
X77035000Y-103107500I0J57500D01*
G01*
X77035000Y-102992500D01*
G75*
G02*
X77092500Y-102935000I57500J0D01*
G01*
X78382500Y-102935000D01*
G75*
G02*
X78440000Y-102992500I0J-57500D01*
G01*
G37*
G36*
G01*
X78440000Y-103492500D02*
X78440000Y-103607500D01*
G75*
G02*
X78382500Y-103665000I-57500J0D01*
G01*
X77092500Y-103665000D01*
G75*
G02*
X77035000Y-103607500I0J57500D01*
G01*
X77035000Y-103492500D01*
G75*
G02*
X77092500Y-103435000I57500J0D01*
G01*
X78382500Y-103435000D01*
G75*
G02*
X78440000Y-103492500I0J-57500D01*
G01*
G37*
G36*
G01*
X78440000Y-103992500D02*
X78440000Y-104107500D01*
G75*
G02*
X78382500Y-104165000I-57500J0D01*
G01*
X77092500Y-104165000D01*
G75*
G02*
X77035000Y-104107500I0J57500D01*
G01*
X77035000Y-103992500D01*
G75*
G02*
X77092500Y-103935000I57500J0D01*
G01*
X78382500Y-103935000D01*
G75*
G02*
X78440000Y-103992500I0J-57500D01*
G01*
G37*
G36*
G01*
X78440000Y-104492500D02*
X78440000Y-104607500D01*
G75*
G02*
X78382500Y-104665000I-57500J0D01*
G01*
X77092500Y-104665000D01*
G75*
G02*
X77035000Y-104607500I0J57500D01*
G01*
X77035000Y-104492500D01*
G75*
G02*
X77092500Y-104435000I57500J0D01*
G01*
X78382500Y-104435000D01*
G75*
G02*
X78440000Y-104492500I0J-57500D01*
G01*
G37*
G36*
G01*
X78440000Y-104992500D02*
X78440000Y-105107500D01*
G75*
G02*
X78382500Y-105165000I-57500J0D01*
G01*
X77092500Y-105165000D01*
G75*
G02*
X77035000Y-105107500I0J57500D01*
G01*
X77035000Y-104992500D01*
G75*
G02*
X77092500Y-104935000I57500J0D01*
G01*
X78382500Y-104935000D01*
G75*
G02*
X78440000Y-104992500I0J-57500D01*
G01*
G37*
G36*
G01*
X78440000Y-105492500D02*
X78440000Y-105607500D01*
G75*
G02*
X78382500Y-105665000I-57500J0D01*
G01*
X77092500Y-105665000D01*
G75*
G02*
X77035000Y-105607500I0J57500D01*
G01*
X77035000Y-105492500D01*
G75*
G02*
X77092500Y-105435000I57500J0D01*
G01*
X78382500Y-105435000D01*
G75*
G02*
X78440000Y-105492500I0J-57500D01*
G01*
G37*
G36*
G01*
X78440000Y-105992500D02*
X78440000Y-106107500D01*
G75*
G02*
X78382500Y-106165000I-57500J0D01*
G01*
X77092500Y-106165000D01*
G75*
G02*
X77035000Y-106107500I0J57500D01*
G01*
X77035000Y-105992500D01*
G75*
G02*
X77092500Y-105935000I57500J0D01*
G01*
X78382500Y-105935000D01*
G75*
G02*
X78440000Y-105992500I0J-57500D01*
G01*
G37*
G36*
G01*
X78440000Y-106492500D02*
X78440000Y-106607500D01*
G75*
G02*
X78382500Y-106665000I-57500J0D01*
G01*
X77092500Y-106665000D01*
G75*
G02*
X77035000Y-106607500I0J57500D01*
G01*
X77035000Y-106492500D01*
G75*
G02*
X77092500Y-106435000I57500J0D01*
G01*
X78382500Y-106435000D01*
G75*
G02*
X78440000Y-106492500I0J-57500D01*
G01*
G37*
G36*
G01*
X78440000Y-106992500D02*
X78440000Y-107107500D01*
G75*
G02*
X78382500Y-107165000I-57500J0D01*
G01*
X77092500Y-107165000D01*
G75*
G02*
X77035000Y-107107500I0J57500D01*
G01*
X77035000Y-106992500D01*
G75*
G02*
X77092500Y-106935000I57500J0D01*
G01*
X78382500Y-106935000D01*
G75*
G02*
X78440000Y-106992500I0J-57500D01*
G01*
G37*
G36*
G01*
X78440000Y-107492500D02*
X78440000Y-107607500D01*
G75*
G02*
X78382500Y-107665000I-57500J0D01*
G01*
X77092500Y-107665000D01*
G75*
G02*
X77035000Y-107607500I0J57500D01*
G01*
X77035000Y-107492500D01*
G75*
G02*
X77092500Y-107435000I57500J0D01*
G01*
X78382500Y-107435000D01*
G75*
G02*
X78440000Y-107492500I0J-57500D01*
G01*
G37*
G36*
G01*
X78440000Y-107992500D02*
X78440000Y-108107500D01*
G75*
G02*
X78382500Y-108165000I-57500J0D01*
G01*
X77092500Y-108165000D01*
G75*
G02*
X77035000Y-108107500I0J57500D01*
G01*
X77035000Y-107992500D01*
G75*
G02*
X77092500Y-107935000I57500J0D01*
G01*
X78382500Y-107935000D01*
G75*
G02*
X78440000Y-107992500I0J-57500D01*
G01*
G37*
G36*
G01*
X78440000Y-108492500D02*
X78440000Y-108607500D01*
G75*
G02*
X78382500Y-108665000I-57500J0D01*
G01*
X77092500Y-108665000D01*
G75*
G02*
X77035000Y-108607500I0J57500D01*
G01*
X77035000Y-108492500D01*
G75*
G02*
X77092500Y-108435000I57500J0D01*
G01*
X78382500Y-108435000D01*
G75*
G02*
X78440000Y-108492500I0J-57500D01*
G01*
G37*
G36*
G01*
X78440000Y-108992500D02*
X78440000Y-109107500D01*
G75*
G02*
X78382500Y-109165000I-57500J0D01*
G01*
X77092500Y-109165000D01*
G75*
G02*
X77035000Y-109107500I0J57500D01*
G01*
X77035000Y-108992500D01*
G75*
G02*
X77092500Y-108935000I57500J0D01*
G01*
X78382500Y-108935000D01*
G75*
G02*
X78440000Y-108992500I0J-57500D01*
G01*
G37*
G36*
G01*
X78440000Y-109492500D02*
X78440000Y-109607500D01*
G75*
G02*
X78382500Y-109665000I-57500J0D01*
G01*
X77092500Y-109665000D01*
G75*
G02*
X77035000Y-109607500I0J57500D01*
G01*
X77035000Y-109492500D01*
G75*
G02*
X77092500Y-109435000I57500J0D01*
G01*
X78382500Y-109435000D01*
G75*
G02*
X78440000Y-109492500I0J-57500D01*
G01*
G37*
G36*
G01*
X78440000Y-109992500D02*
X78440000Y-110107500D01*
G75*
G02*
X78382500Y-110165000I-57500J0D01*
G01*
X77092500Y-110165000D01*
G75*
G02*
X77035000Y-110107500I0J57500D01*
G01*
X77035000Y-109992500D01*
G75*
G02*
X77092500Y-109935000I57500J0D01*
G01*
X78382500Y-109935000D01*
G75*
G02*
X78440000Y-109992500I0J-57500D01*
G01*
G37*
G36*
G01*
X78440000Y-110492500D02*
X78440000Y-110607500D01*
G75*
G02*
X78382500Y-110665000I-57500J0D01*
G01*
X77092500Y-110665000D01*
G75*
G02*
X77035000Y-110607500I0J57500D01*
G01*
X77035000Y-110492500D01*
G75*
G02*
X77092500Y-110435000I57500J0D01*
G01*
X78382500Y-110435000D01*
G75*
G02*
X78440000Y-110492500I0J-57500D01*
G01*
G37*
G36*
G01*
X78440000Y-110992500D02*
X78440000Y-111107500D01*
G75*
G02*
X78382500Y-111165000I-57500J0D01*
G01*
X77092500Y-111165000D01*
G75*
G02*
X77035000Y-111107500I0J57500D01*
G01*
X77035000Y-110992500D01*
G75*
G02*
X77092500Y-110935000I57500J0D01*
G01*
X78382500Y-110935000D01*
G75*
G02*
X78440000Y-110992500I0J-57500D01*
G01*
G37*
G36*
G01*
X78440000Y-111492500D02*
X78440000Y-111607500D01*
G75*
G02*
X78382500Y-111665000I-57500J0D01*
G01*
X77092500Y-111665000D01*
G75*
G02*
X77035000Y-111607500I0J57500D01*
G01*
X77035000Y-111492500D01*
G75*
G02*
X77092500Y-111435000I57500J0D01*
G01*
X78382500Y-111435000D01*
G75*
G02*
X78440000Y-111492500I0J-57500D01*
G01*
G37*
G36*
G01*
X78440000Y-111992500D02*
X78440000Y-112107500D01*
G75*
G02*
X78382500Y-112165000I-57500J0D01*
G01*
X77092500Y-112165000D01*
G75*
G02*
X77035000Y-112107500I0J57500D01*
G01*
X77035000Y-111992500D01*
G75*
G02*
X77092500Y-111935000I57500J0D01*
G01*
X78382500Y-111935000D01*
G75*
G02*
X78440000Y-111992500I0J-57500D01*
G01*
G37*
G36*
G01*
X78440000Y-112492500D02*
X78440000Y-112607500D01*
G75*
G02*
X78382500Y-112665000I-57500J0D01*
G01*
X77092500Y-112665000D01*
G75*
G02*
X77035000Y-112607500I0J57500D01*
G01*
X77035000Y-112492500D01*
G75*
G02*
X77092500Y-112435000I57500J0D01*
G01*
X78382500Y-112435000D01*
G75*
G02*
X78440000Y-112492500I0J-57500D01*
G01*
G37*
G36*
G01*
X78440000Y-112992500D02*
X78440000Y-113107500D01*
G75*
G02*
X78382500Y-113165000I-57500J0D01*
G01*
X77092500Y-113165000D01*
G75*
G02*
X77035000Y-113107500I0J57500D01*
G01*
X77035000Y-112992500D01*
G75*
G02*
X77092500Y-112935000I57500J0D01*
G01*
X78382500Y-112935000D01*
G75*
G02*
X78440000Y-112992500I0J-57500D01*
G01*
G37*
G36*
G01*
X78440000Y-113492500D02*
X78440000Y-113607500D01*
G75*
G02*
X78382500Y-113665000I-57500J0D01*
G01*
X77092500Y-113665000D01*
G75*
G02*
X77035000Y-113607500I0J57500D01*
G01*
X77035000Y-113492500D01*
G75*
G02*
X77092500Y-113435000I57500J0D01*
G01*
X78382500Y-113435000D01*
G75*
G02*
X78440000Y-113492500I0J-57500D01*
G01*
G37*
G36*
G01*
X78440000Y-113992500D02*
X78440000Y-114107500D01*
G75*
G02*
X78382500Y-114165000I-57500J0D01*
G01*
X77092500Y-114165000D01*
G75*
G02*
X77035000Y-114107500I0J57500D01*
G01*
X77035000Y-113992500D01*
G75*
G02*
X77092500Y-113935000I57500J0D01*
G01*
X78382500Y-113935000D01*
G75*
G02*
X78440000Y-113992500I0J-57500D01*
G01*
G37*
G36*
G01*
X78440000Y-114492500D02*
X78440000Y-114607500D01*
G75*
G02*
X78382500Y-114665000I-57500J0D01*
G01*
X77092500Y-114665000D01*
G75*
G02*
X77035000Y-114607500I0J57500D01*
G01*
X77035000Y-114492500D01*
G75*
G02*
X77092500Y-114435000I57500J0D01*
G01*
X78382500Y-114435000D01*
G75*
G02*
X78440000Y-114492500I0J-57500D01*
G01*
G37*
G36*
G01*
X79515000Y-115567500D02*
X79515000Y-116857500D01*
G75*
G02*
X79457500Y-116915000I-57500J0D01*
G01*
X79342500Y-116915000D01*
G75*
G02*
X79285000Y-116857500I0J57500D01*
G01*
X79285000Y-115567500D01*
G75*
G02*
X79342500Y-115510000I57500J0D01*
G01*
X79457500Y-115510000D01*
G75*
G02*
X79515000Y-115567500I0J-57500D01*
G01*
G37*
G36*
G01*
X80015000Y-115567500D02*
X80015000Y-116857500D01*
G75*
G02*
X79957500Y-116915000I-57500J0D01*
G01*
X79842500Y-116915000D01*
G75*
G02*
X79785000Y-116857500I0J57500D01*
G01*
X79785000Y-115567500D01*
G75*
G02*
X79842500Y-115510000I57500J0D01*
G01*
X79957500Y-115510000D01*
G75*
G02*
X80015000Y-115567500I0J-57500D01*
G01*
G37*
G36*
G01*
X80515000Y-115567500D02*
X80515000Y-116857500D01*
G75*
G02*
X80457500Y-116915000I-57500J0D01*
G01*
X80342500Y-116915000D01*
G75*
G02*
X80285000Y-116857500I0J57500D01*
G01*
X80285000Y-115567500D01*
G75*
G02*
X80342500Y-115510000I57500J0D01*
G01*
X80457500Y-115510000D01*
G75*
G02*
X80515000Y-115567500I0J-57500D01*
G01*
G37*
G36*
G01*
X81015000Y-115567500D02*
X81015000Y-116857500D01*
G75*
G02*
X80957500Y-116915000I-57500J0D01*
G01*
X80842500Y-116915000D01*
G75*
G02*
X80785000Y-116857500I0J57500D01*
G01*
X80785000Y-115567500D01*
G75*
G02*
X80842500Y-115510000I57500J0D01*
G01*
X80957500Y-115510000D01*
G75*
G02*
X81015000Y-115567500I0J-57500D01*
G01*
G37*
G36*
G01*
X81515000Y-115567500D02*
X81515000Y-116857500D01*
G75*
G02*
X81457500Y-116915000I-57500J0D01*
G01*
X81342500Y-116915000D01*
G75*
G02*
X81285000Y-116857500I0J57500D01*
G01*
X81285000Y-115567500D01*
G75*
G02*
X81342500Y-115510000I57500J0D01*
G01*
X81457500Y-115510000D01*
G75*
G02*
X81515000Y-115567500I0J-57500D01*
G01*
G37*
G36*
G01*
X82015000Y-115567500D02*
X82015000Y-116857500D01*
G75*
G02*
X81957500Y-116915000I-57500J0D01*
G01*
X81842500Y-116915000D01*
G75*
G02*
X81785000Y-116857500I0J57500D01*
G01*
X81785000Y-115567500D01*
G75*
G02*
X81842500Y-115510000I57500J0D01*
G01*
X81957500Y-115510000D01*
G75*
G02*
X82015000Y-115567500I0J-57500D01*
G01*
G37*
G36*
G01*
X82515000Y-115567500D02*
X82515000Y-116857500D01*
G75*
G02*
X82457500Y-116915000I-57500J0D01*
G01*
X82342500Y-116915000D01*
G75*
G02*
X82285000Y-116857500I0J57500D01*
G01*
X82285000Y-115567500D01*
G75*
G02*
X82342500Y-115510000I57500J0D01*
G01*
X82457500Y-115510000D01*
G75*
G02*
X82515000Y-115567500I0J-57500D01*
G01*
G37*
G36*
G01*
X83015000Y-115567500D02*
X83015000Y-116857500D01*
G75*
G02*
X82957500Y-116915000I-57500J0D01*
G01*
X82842500Y-116915000D01*
G75*
G02*
X82785000Y-116857500I0J57500D01*
G01*
X82785000Y-115567500D01*
G75*
G02*
X82842500Y-115510000I57500J0D01*
G01*
X82957500Y-115510000D01*
G75*
G02*
X83015000Y-115567500I0J-57500D01*
G01*
G37*
G36*
G01*
X83515000Y-115567500D02*
X83515000Y-116857500D01*
G75*
G02*
X83457500Y-116915000I-57500J0D01*
G01*
X83342500Y-116915000D01*
G75*
G02*
X83285000Y-116857500I0J57500D01*
G01*
X83285000Y-115567500D01*
G75*
G02*
X83342500Y-115510000I57500J0D01*
G01*
X83457500Y-115510000D01*
G75*
G02*
X83515000Y-115567500I0J-57500D01*
G01*
G37*
G36*
G01*
X84015000Y-115567500D02*
X84015000Y-116857500D01*
G75*
G02*
X83957500Y-116915000I-57500J0D01*
G01*
X83842500Y-116915000D01*
G75*
G02*
X83785000Y-116857500I0J57500D01*
G01*
X83785000Y-115567500D01*
G75*
G02*
X83842500Y-115510000I57500J0D01*
G01*
X83957500Y-115510000D01*
G75*
G02*
X84015000Y-115567500I0J-57500D01*
G01*
G37*
G36*
G01*
X84515000Y-115567500D02*
X84515000Y-116857500D01*
G75*
G02*
X84457500Y-116915000I-57500J0D01*
G01*
X84342500Y-116915000D01*
G75*
G02*
X84285000Y-116857500I0J57500D01*
G01*
X84285000Y-115567500D01*
G75*
G02*
X84342500Y-115510000I57500J0D01*
G01*
X84457500Y-115510000D01*
G75*
G02*
X84515000Y-115567500I0J-57500D01*
G01*
G37*
G36*
G01*
X85015000Y-115567500D02*
X85015000Y-116857500D01*
G75*
G02*
X84957500Y-116915000I-57500J0D01*
G01*
X84842500Y-116915000D01*
G75*
G02*
X84785000Y-116857500I0J57500D01*
G01*
X84785000Y-115567500D01*
G75*
G02*
X84842500Y-115510000I57500J0D01*
G01*
X84957500Y-115510000D01*
G75*
G02*
X85015000Y-115567500I0J-57500D01*
G01*
G37*
G36*
G01*
X85515000Y-115567500D02*
X85515000Y-116857500D01*
G75*
G02*
X85457500Y-116915000I-57500J0D01*
G01*
X85342500Y-116915000D01*
G75*
G02*
X85285000Y-116857500I0J57500D01*
G01*
X85285000Y-115567500D01*
G75*
G02*
X85342500Y-115510000I57500J0D01*
G01*
X85457500Y-115510000D01*
G75*
G02*
X85515000Y-115567500I0J-57500D01*
G01*
G37*
G36*
G01*
X86015000Y-115567500D02*
X86015000Y-116857500D01*
G75*
G02*
X85957500Y-116915000I-57500J0D01*
G01*
X85842500Y-116915000D01*
G75*
G02*
X85785000Y-116857500I0J57500D01*
G01*
X85785000Y-115567500D01*
G75*
G02*
X85842500Y-115510000I57500J0D01*
G01*
X85957500Y-115510000D01*
G75*
G02*
X86015000Y-115567500I0J-57500D01*
G01*
G37*
G36*
G01*
X86515000Y-115567500D02*
X86515000Y-116857500D01*
G75*
G02*
X86457500Y-116915000I-57500J0D01*
G01*
X86342500Y-116915000D01*
G75*
G02*
X86285000Y-116857500I0J57500D01*
G01*
X86285000Y-115567500D01*
G75*
G02*
X86342500Y-115510000I57500J0D01*
G01*
X86457500Y-115510000D01*
G75*
G02*
X86515000Y-115567500I0J-57500D01*
G01*
G37*
G36*
G01*
X87015000Y-115567500D02*
X87015000Y-116857500D01*
G75*
G02*
X86957500Y-116915000I-57500J0D01*
G01*
X86842500Y-116915000D01*
G75*
G02*
X86785000Y-116857500I0J57500D01*
G01*
X86785000Y-115567500D01*
G75*
G02*
X86842500Y-115510000I57500J0D01*
G01*
X86957500Y-115510000D01*
G75*
G02*
X87015000Y-115567500I0J-57500D01*
G01*
G37*
G36*
G01*
X87515000Y-115567500D02*
X87515000Y-116857500D01*
G75*
G02*
X87457500Y-116915000I-57500J0D01*
G01*
X87342500Y-116915000D01*
G75*
G02*
X87285000Y-116857500I0J57500D01*
G01*
X87285000Y-115567500D01*
G75*
G02*
X87342500Y-115510000I57500J0D01*
G01*
X87457500Y-115510000D01*
G75*
G02*
X87515000Y-115567500I0J-57500D01*
G01*
G37*
G36*
G01*
X88015000Y-115567500D02*
X88015000Y-116857500D01*
G75*
G02*
X87957500Y-116915000I-57500J0D01*
G01*
X87842500Y-116915000D01*
G75*
G02*
X87785000Y-116857500I0J57500D01*
G01*
X87785000Y-115567500D01*
G75*
G02*
X87842500Y-115510000I57500J0D01*
G01*
X87957500Y-115510000D01*
G75*
G02*
X88015000Y-115567500I0J-57500D01*
G01*
G37*
G36*
G01*
X88515000Y-115567500D02*
X88515000Y-116857500D01*
G75*
G02*
X88457500Y-116915000I-57500J0D01*
G01*
X88342500Y-116915000D01*
G75*
G02*
X88285000Y-116857500I0J57500D01*
G01*
X88285000Y-115567500D01*
G75*
G02*
X88342500Y-115510000I57500J0D01*
G01*
X88457500Y-115510000D01*
G75*
G02*
X88515000Y-115567500I0J-57500D01*
G01*
G37*
G36*
G01*
X89015000Y-115567500D02*
X89015000Y-116857500D01*
G75*
G02*
X88957500Y-116915000I-57500J0D01*
G01*
X88842500Y-116915000D01*
G75*
G02*
X88785000Y-116857500I0J57500D01*
G01*
X88785000Y-115567500D01*
G75*
G02*
X88842500Y-115510000I57500J0D01*
G01*
X88957500Y-115510000D01*
G75*
G02*
X89015000Y-115567500I0J-57500D01*
G01*
G37*
G36*
G01*
X89515000Y-115567500D02*
X89515000Y-116857500D01*
G75*
G02*
X89457500Y-116915000I-57500J0D01*
G01*
X89342500Y-116915000D01*
G75*
G02*
X89285000Y-116857500I0J57500D01*
G01*
X89285000Y-115567500D01*
G75*
G02*
X89342500Y-115510000I57500J0D01*
G01*
X89457500Y-115510000D01*
G75*
G02*
X89515000Y-115567500I0J-57500D01*
G01*
G37*
G36*
G01*
X90015000Y-115567500D02*
X90015000Y-116857500D01*
G75*
G02*
X89957500Y-116915000I-57500J0D01*
G01*
X89842500Y-116915000D01*
G75*
G02*
X89785000Y-116857500I0J57500D01*
G01*
X89785000Y-115567500D01*
G75*
G02*
X89842500Y-115510000I57500J0D01*
G01*
X89957500Y-115510000D01*
G75*
G02*
X90015000Y-115567500I0J-57500D01*
G01*
G37*
G36*
G01*
X90515000Y-115567500D02*
X90515000Y-116857500D01*
G75*
G02*
X90457500Y-116915000I-57500J0D01*
G01*
X90342500Y-116915000D01*
G75*
G02*
X90285000Y-116857500I0J57500D01*
G01*
X90285000Y-115567500D01*
G75*
G02*
X90342500Y-115510000I57500J0D01*
G01*
X90457500Y-115510000D01*
G75*
G02*
X90515000Y-115567500I0J-57500D01*
G01*
G37*
G36*
G01*
X91015000Y-115567500D02*
X91015000Y-116857500D01*
G75*
G02*
X90957500Y-116915000I-57500J0D01*
G01*
X90842500Y-116915000D01*
G75*
G02*
X90785000Y-116857500I0J57500D01*
G01*
X90785000Y-115567500D01*
G75*
G02*
X90842500Y-115510000I57500J0D01*
G01*
X90957500Y-115510000D01*
G75*
G02*
X91015000Y-115567500I0J-57500D01*
G01*
G37*
G36*
G01*
X91515000Y-115567500D02*
X91515000Y-116857500D01*
G75*
G02*
X91457500Y-116915000I-57500J0D01*
G01*
X91342500Y-116915000D01*
G75*
G02*
X91285000Y-116857500I0J57500D01*
G01*
X91285000Y-115567500D01*
G75*
G02*
X91342500Y-115510000I57500J0D01*
G01*
X91457500Y-115510000D01*
G75*
G02*
X91515000Y-115567500I0J-57500D01*
G01*
G37*
G36*
G01*
X73900000Y-119375000D02*
X73900000Y-119925000D01*
G75*
G02*
X73750000Y-120075000I-150000J0D01*
G01*
X73450000Y-120075000D01*
G75*
G02*
X73300000Y-119925000I0J150000D01*
G01*
X73300000Y-119375000D01*
G75*
G02*
X73450000Y-119225000I150000J0D01*
G01*
X73750000Y-119225000D01*
G75*
G02*
X73900000Y-119375000I0J-150000D01*
G01*
G37*
G36*
G01*
X72300000Y-119375000D02*
X72300000Y-119925000D01*
G75*
G02*
X72150000Y-120075000I-150000J0D01*
G01*
X71850000Y-120075000D01*
G75*
G02*
X71700000Y-119925000I0J150000D01*
G01*
X71700000Y-119375000D01*
G75*
G02*
X71850000Y-119225000I150000J0D01*
G01*
X72150000Y-119225000D01*
G75*
G02*
X72300000Y-119375000I0J-150000D01*
G01*
G37*
G36*
G01*
X76100000Y-119925000D02*
X76100000Y-119375000D01*
G75*
G02*
X76250000Y-119225000I150000J0D01*
G01*
X76550000Y-119225000D01*
G75*
G02*
X76700000Y-119375000I0J-150000D01*
G01*
X76700000Y-119925000D01*
G75*
G02*
X76550000Y-120075000I-150000J0D01*
G01*
X76250000Y-120075000D01*
G75*
G02*
X76100000Y-119925000I0J150000D01*
G01*
G37*
G36*
G01*
X74500000Y-119925000D02*
X74500000Y-119375000D01*
G75*
G02*
X74650000Y-119225000I150000J0D01*
G01*
X74950000Y-119225000D01*
G75*
G02*
X75100000Y-119375000I0J-150000D01*
G01*
X75100000Y-119925000D01*
G75*
G02*
X74950000Y-120075000I-150000J0D01*
G01*
X74650000Y-120075000D01*
G75*
G02*
X74500000Y-119925000I0J150000D01*
G01*
G37*
G36*
G01*
X72686900Y-102212800D02*
X72686900Y-103087200D01*
G75*
G02*
X72462200Y-103311900I-224700J0D01*
G01*
X72012800Y-103311900D01*
G75*
G02*
X71788100Y-103087200I0J224700D01*
G01*
X71788100Y-102212800D01*
G75*
G02*
X72012800Y-101988100I224700J0D01*
G01*
X72462200Y-101988100D01*
G75*
G02*
X72686900Y-102212800I0J-224700D01*
G01*
G37*
G36*
G01*
X70811900Y-102212800D02*
X70811900Y-103087200D01*
G75*
G02*
X70587200Y-103311900I-224700J0D01*
G01*
X70137800Y-103311900D01*
G75*
G02*
X69913100Y-103087200I0J224700D01*
G01*
X69913100Y-102212800D01*
G75*
G02*
X70137800Y-101988100I224700J0D01*
G01*
X70587200Y-101988100D01*
G75*
G02*
X70811900Y-102212800I0J-224700D01*
G01*
G37*
G36*
G01*
X69950000Y-105075000D02*
X69950000Y-104125000D01*
G75*
G02*
X70150000Y-103925000I200000J0D01*
G01*
X70550000Y-103925000D01*
G75*
G02*
X70750000Y-104125000I0J-200000D01*
G01*
X70750000Y-105075000D01*
G75*
G02*
X70550000Y-105275000I-200000J0D01*
G01*
X70150000Y-105275000D01*
G75*
G02*
X69950000Y-105075000I0J200000D01*
G01*
G37*
G36*
G01*
X71850000Y-105075000D02*
X71850000Y-104125000D01*
G75*
G02*
X72050000Y-103925000I200000J0D01*
G01*
X72450000Y-103925000D01*
G75*
G02*
X72650000Y-104125000I0J-200000D01*
G01*
X72650000Y-105075000D01*
G75*
G02*
X72450000Y-105275000I-200000J0D01*
G01*
X72050000Y-105275000D01*
G75*
G02*
X71850000Y-105075000I0J200000D01*
G01*
G37*
G36*
G01*
X73750000Y-108225000D02*
X73750000Y-107675000D01*
G75*
G02*
X73900000Y-107525000I150000J0D01*
G01*
X74200000Y-107525000D01*
G75*
G02*
X74350000Y-107675000I0J-150000D01*
G01*
X74350000Y-108225000D01*
G75*
G02*
X74200000Y-108375000I-150000J0D01*
G01*
X73900000Y-108375000D01*
G75*
G02*
X73750000Y-108225000I0J150000D01*
G01*
G37*
G36*
G01*
X72150000Y-108225000D02*
X72150000Y-107675000D01*
G75*
G02*
X72300000Y-107525000I150000J0D01*
G01*
X72600000Y-107525000D01*
G75*
G02*
X72750000Y-107675000I0J-150000D01*
G01*
X72750000Y-108225000D01*
G75*
G02*
X72600000Y-108375000I-150000J0D01*
G01*
X72300000Y-108375000D01*
G75*
G02*
X72150000Y-108225000I0J150000D01*
G01*
G37*
G36*
G01*
X71550000Y-107675000D02*
X71550000Y-108225000D01*
G75*
G02*
X71400000Y-108375000I-150000J0D01*
G01*
X71100000Y-108375000D01*
G75*
G02*
X70950000Y-108225000I0J150000D01*
G01*
X70950000Y-107675000D01*
G75*
G02*
X71100000Y-107525000I150000J0D01*
G01*
X71400000Y-107525000D01*
G75*
G02*
X71550000Y-107675000I0J-150000D01*
G01*
G37*
G36*
G01*
X69950000Y-107675000D02*
X69950000Y-108225000D01*
G75*
G02*
X69800000Y-108375000I-150000J0D01*
G01*
X69500000Y-108375000D01*
G75*
G02*
X69350000Y-108225000I0J150000D01*
G01*
X69350000Y-107675000D01*
G75*
G02*
X69500000Y-107525000I150000J0D01*
G01*
X69800000Y-107525000D01*
G75*
G02*
X69950000Y-107675000I0J-150000D01*
G01*
G37*
G36*
G01*
X78225000Y-120100000D02*
X77675000Y-120100000D01*
G75*
G02*
X77525000Y-119950000I0J150000D01*
G01*
X77525000Y-119650000D01*
G75*
G02*
X77675000Y-119500000I150000J0D01*
G01*
X78225000Y-119500000D01*
G75*
G02*
X78375000Y-119650000I0J-150000D01*
G01*
X78375000Y-119950000D01*
G75*
G02*
X78225000Y-120100000I-150000J0D01*
G01*
G37*
G36*
G01*
X78225000Y-118500000D02*
X77675000Y-118500000D01*
G75*
G02*
X77525000Y-118350000I0J150000D01*
G01*
X77525000Y-118050000D01*
G75*
G02*
X77675000Y-117900000I150000J0D01*
G01*
X78225000Y-117900000D01*
G75*
G02*
X78375000Y-118050000I0J-150000D01*
G01*
X78375000Y-118350000D01*
G75*
G02*
X78225000Y-118500000I-150000J0D01*
G01*
G37*
G36*
G01*
X109487000Y-113030000D02*
X109487000Y-113870000D01*
G75*
G02*
X109207000Y-114150000I-280000J0D01*
G01*
X107867000Y-114150000D01*
G75*
G02*
X107587000Y-113870000I0J280000D01*
G01*
X107587000Y-113030000D01*
G75*
G02*
X107867000Y-112750000I280000J0D01*
G01*
X109207000Y-112750000D01*
G75*
G02*
X109487000Y-113030000I0J-280000D01*
G01*
G37*
G36*
G01*
X109487000Y-108430000D02*
X109487000Y-109270000D01*
G75*
G02*
X109207000Y-109550000I-280000J0D01*
G01*
X107867000Y-109550000D01*
G75*
G02*
X107587000Y-109270000I0J280000D01*
G01*
X107587000Y-108430000D01*
G75*
G02*
X107867000Y-108150000I280000J0D01*
G01*
X109207000Y-108150000D01*
G75*
G02*
X109487000Y-108430000I0J-280000D01*
G01*
G37*
G36*
G01*
X109487000Y-110730000D02*
X109487000Y-111570000D01*
G75*
G02*
X109207000Y-111850000I-280000J0D01*
G01*
X107867000Y-111850000D01*
G75*
G02*
X107587000Y-111570000I0J280000D01*
G01*
X107587000Y-110730000D01*
G75*
G02*
X107867000Y-110450000I280000J0D01*
G01*
X109207000Y-110450000D01*
G75*
G02*
X109487000Y-110730000I0J-280000D01*
G01*
G37*
G36*
G01*
X103187000Y-109585000D02*
X103187000Y-112715000D01*
G75*
G02*
X102902000Y-113000000I-285000J0D01*
G01*
X101572000Y-113000000D01*
G75*
G02*
X101287000Y-112715000I0J285000D01*
G01*
X101287000Y-109585000D01*
G75*
G02*
X101572000Y-109300000I285000J0D01*
G01*
X102902000Y-109300000D01*
G75*
G02*
X103187000Y-109585000I0J-285000D01*
G01*
G37*
G36*
G01*
X68498100Y-114068330D02*
X68498100Y-112721670D01*
G75*
G02*
X68786670Y-112433100I288570J0D01*
G01*
X70333330Y-112433100D01*
G75*
G02*
X70621900Y-112721670I0J-288570D01*
G01*
X70621900Y-114068330D01*
G75*
G02*
X70333330Y-114356900I-288570J0D01*
G01*
X68786670Y-114356900D01*
G75*
G02*
X68498100Y-114068330I0J288570D01*
G01*
G37*
G36*
G01*
X73578100Y-114068330D02*
X73578100Y-112721670D01*
G75*
G02*
X73866670Y-112433100I288570J0D01*
G01*
X75413330Y-112433100D01*
G75*
G02*
X75701900Y-112721670I0J-288570D01*
G01*
X75701900Y-114068330D01*
G75*
G02*
X75413330Y-114356900I-288570J0D01*
G01*
X73866670Y-114356900D01*
G75*
G02*
X73578100Y-114068330I0J288570D01*
G01*
G37*
G36*
G01*
X73578100Y-117878330D02*
X73578100Y-116531670D01*
G75*
G02*
X73866670Y-116243100I288570J0D01*
G01*
X75413330Y-116243100D01*
G75*
G02*
X75701900Y-116531670I0J-288570D01*
G01*
X75701900Y-117878330D01*
G75*
G02*
X75413330Y-118166900I-288570J0D01*
G01*
X73866670Y-118166900D01*
G75*
G02*
X73578100Y-117878330I0J288570D01*
G01*
G37*
G36*
G01*
X68498100Y-117878330D02*
X68498100Y-116531670D01*
G75*
G02*
X68786670Y-116243100I288570J0D01*
G01*
X70333330Y-116243100D01*
G75*
G02*
X70621900Y-116531670I0J-288570D01*
G01*
X70621900Y-117878330D01*
G75*
G02*
X70333330Y-118166900I-288570J0D01*
G01*
X68786670Y-118166900D01*
G75*
G02*
X68498100Y-117878330I0J288570D01*
G01*
G37*
G36*
G01*
X74192500Y-123185000D02*
X74007500Y-123185000D01*
G75*
G02*
X73915000Y-123092500I0J92500D01*
G01*
X73915000Y-121907500D01*
G75*
G02*
X74007500Y-121815000I92500J0D01*
G01*
X74192500Y-121815000D01*
G75*
G02*
X74285000Y-121907500I0J-92500D01*
G01*
X74285000Y-123092500D01*
G75*
G02*
X74192500Y-123185000I-92500J0D01*
G01*
G37*
G36*
G01*
X74842500Y-123185000D02*
X74657500Y-123185000D01*
G75*
G02*
X74565000Y-123092500I0J92500D01*
G01*
X74565000Y-121907500D01*
G75*
G02*
X74657500Y-121815000I92500J0D01*
G01*
X74842500Y-121815000D01*
G75*
G02*
X74935000Y-121907500I0J-92500D01*
G01*
X74935000Y-123092500D01*
G75*
G02*
X74842500Y-123185000I-92500J0D01*
G01*
G37*
G36*
G01*
X75492500Y-123185000D02*
X75307500Y-123185000D01*
G75*
G02*
X75215000Y-123092500I0J92500D01*
G01*
X75215000Y-121907500D01*
G75*
G02*
X75307500Y-121815000I92500J0D01*
G01*
X75492500Y-121815000D01*
G75*
G02*
X75585000Y-121907500I0J-92500D01*
G01*
X75585000Y-123092500D01*
G75*
G02*
X75492500Y-123185000I-92500J0D01*
G01*
G37*
G36*
G01*
X76142500Y-123185000D02*
X75957500Y-123185000D01*
G75*
G02*
X75865000Y-123092500I0J92500D01*
G01*
X75865000Y-121907500D01*
G75*
G02*
X75957500Y-121815000I92500J0D01*
G01*
X76142500Y-121815000D01*
G75*
G02*
X76235000Y-121907500I0J-92500D01*
G01*
X76235000Y-123092500D01*
G75*
G02*
X76142500Y-123185000I-92500J0D01*
G01*
G37*
G36*
G01*
X76792500Y-123185000D02*
X76607500Y-123185000D01*
G75*
G02*
X76515000Y-123092500I0J92500D01*
G01*
X76515000Y-121907500D01*
G75*
G02*
X76607500Y-121815000I92500J0D01*
G01*
X76792500Y-121815000D01*
G75*
G02*
X76885000Y-121907500I0J-92500D01*
G01*
X76885000Y-123092500D01*
G75*
G02*
X76792500Y-123185000I-92500J0D01*
G01*
G37*
G36*
G01*
X77442500Y-123185000D02*
X77257500Y-123185000D01*
G75*
G02*
X77165000Y-123092500I0J92500D01*
G01*
X77165000Y-121907500D01*
G75*
G02*
X77257500Y-121815000I92500J0D01*
G01*
X77442500Y-121815000D01*
G75*
G02*
X77535000Y-121907500I0J-92500D01*
G01*
X77535000Y-123092500D01*
G75*
G02*
X77442500Y-123185000I-92500J0D01*
G01*
G37*
G36*
G01*
X78092500Y-123185000D02*
X77907500Y-123185000D01*
G75*
G02*
X77815000Y-123092500I0J92500D01*
G01*
X77815000Y-121907500D01*
G75*
G02*
X77907500Y-121815000I92500J0D01*
G01*
X78092500Y-121815000D01*
G75*
G02*
X78185000Y-121907500I0J-92500D01*
G01*
X78185000Y-123092500D01*
G75*
G02*
X78092500Y-123185000I-92500J0D01*
G01*
G37*
G36*
G01*
X78742500Y-123185000D02*
X78557500Y-123185000D01*
G75*
G02*
X78465000Y-123092500I0J92500D01*
G01*
X78465000Y-121907500D01*
G75*
G02*
X78557500Y-121815000I92500J0D01*
G01*
X78742500Y-121815000D01*
G75*
G02*
X78835000Y-121907500I0J-92500D01*
G01*
X78835000Y-123092500D01*
G75*
G02*
X78742500Y-123185000I-92500J0D01*
G01*
G37*
G36*
G01*
X79392500Y-123185000D02*
X79207500Y-123185000D01*
G75*
G02*
X79115000Y-123092500I0J92500D01*
G01*
X79115000Y-121907500D01*
G75*
G02*
X79207500Y-121815000I92500J0D01*
G01*
X79392500Y-121815000D01*
G75*
G02*
X79485000Y-121907500I0J-92500D01*
G01*
X79485000Y-123092500D01*
G75*
G02*
X79392500Y-123185000I-92500J0D01*
G01*
G37*
G36*
G01*
X80042500Y-123185000D02*
X79857500Y-123185000D01*
G75*
G02*
X79765000Y-123092500I0J92500D01*
G01*
X79765000Y-121907500D01*
G75*
G02*
X79857500Y-121815000I92500J0D01*
G01*
X80042500Y-121815000D01*
G75*
G02*
X80135000Y-121907500I0J-92500D01*
G01*
X80135000Y-123092500D01*
G75*
G02*
X80042500Y-123185000I-92500J0D01*
G01*
G37*
G36*
G01*
X80042500Y-129085000D02*
X79857500Y-129085000D01*
G75*
G02*
X79765000Y-128992500I0J92500D01*
G01*
X79765000Y-127807500D01*
G75*
G02*
X79857500Y-127715000I92500J0D01*
G01*
X80042500Y-127715000D01*
G75*
G02*
X80135000Y-127807500I0J-92500D01*
G01*
X80135000Y-128992500D01*
G75*
G02*
X80042500Y-129085000I-92500J0D01*
G01*
G37*
G36*
G01*
X79392500Y-129085000D02*
X79207500Y-129085000D01*
G75*
G02*
X79115000Y-128992500I0J92500D01*
G01*
X79115000Y-127807500D01*
G75*
G02*
X79207500Y-127715000I92500J0D01*
G01*
X79392500Y-127715000D01*
G75*
G02*
X79485000Y-127807500I0J-92500D01*
G01*
X79485000Y-128992500D01*
G75*
G02*
X79392500Y-129085000I-92500J0D01*
G01*
G37*
G36*
G01*
X78742500Y-129085000D02*
X78557500Y-129085000D01*
G75*
G02*
X78465000Y-128992500I0J92500D01*
G01*
X78465000Y-127807500D01*
G75*
G02*
X78557500Y-127715000I92500J0D01*
G01*
X78742500Y-127715000D01*
G75*
G02*
X78835000Y-127807500I0J-92500D01*
G01*
X78835000Y-128992500D01*
G75*
G02*
X78742500Y-129085000I-92500J0D01*
G01*
G37*
G36*
G01*
X78092500Y-129085000D02*
X77907500Y-129085000D01*
G75*
G02*
X77815000Y-128992500I0J92500D01*
G01*
X77815000Y-127807500D01*
G75*
G02*
X77907500Y-127715000I92500J0D01*
G01*
X78092500Y-127715000D01*
G75*
G02*
X78185000Y-127807500I0J-92500D01*
G01*
X78185000Y-128992500D01*
G75*
G02*
X78092500Y-129085000I-92500J0D01*
G01*
G37*
G36*
G01*
X77442500Y-129085000D02*
X77257500Y-129085000D01*
G75*
G02*
X77165000Y-128992500I0J92500D01*
G01*
X77165000Y-127807500D01*
G75*
G02*
X77257500Y-127715000I92500J0D01*
G01*
X77442500Y-127715000D01*
G75*
G02*
X77535000Y-127807500I0J-92500D01*
G01*
X77535000Y-128992500D01*
G75*
G02*
X77442500Y-129085000I-92500J0D01*
G01*
G37*
G36*
G01*
X76792500Y-129085000D02*
X76607500Y-129085000D01*
G75*
G02*
X76515000Y-128992500I0J92500D01*
G01*
X76515000Y-127807500D01*
G75*
G02*
X76607500Y-127715000I92500J0D01*
G01*
X76792500Y-127715000D01*
G75*
G02*
X76885000Y-127807500I0J-92500D01*
G01*
X76885000Y-128992500D01*
G75*
G02*
X76792500Y-129085000I-92500J0D01*
G01*
G37*
G36*
G01*
X76142500Y-129085000D02*
X75957500Y-129085000D01*
G75*
G02*
X75865000Y-128992500I0J92500D01*
G01*
X75865000Y-127807500D01*
G75*
G02*
X75957500Y-127715000I92500J0D01*
G01*
X76142500Y-127715000D01*
G75*
G02*
X76235000Y-127807500I0J-92500D01*
G01*
X76235000Y-128992500D01*
G75*
G02*
X76142500Y-129085000I-92500J0D01*
G01*
G37*
G36*
G01*
X75492500Y-129085000D02*
X75307500Y-129085000D01*
G75*
G02*
X75215000Y-128992500I0J92500D01*
G01*
X75215000Y-127807500D01*
G75*
G02*
X75307500Y-127715000I92500J0D01*
G01*
X75492500Y-127715000D01*
G75*
G02*
X75585000Y-127807500I0J-92500D01*
G01*
X75585000Y-128992500D01*
G75*
G02*
X75492500Y-129085000I-92500J0D01*
G01*
G37*
G36*
G01*
X74842500Y-129085000D02*
X74657500Y-129085000D01*
G75*
G02*
X74565000Y-128992500I0J92500D01*
G01*
X74565000Y-127807500D01*
G75*
G02*
X74657500Y-127715000I92500J0D01*
G01*
X74842500Y-127715000D01*
G75*
G02*
X74935000Y-127807500I0J-92500D01*
G01*
X74935000Y-128992500D01*
G75*
G02*
X74842500Y-129085000I-92500J0D01*
G01*
G37*
G36*
G01*
X74192500Y-129085000D02*
X74007500Y-129085000D01*
G75*
G02*
X73915000Y-128992500I0J92500D01*
G01*
X73915000Y-127807500D01*
G75*
G02*
X74007500Y-127715000I92500J0D01*
G01*
X74192500Y-127715000D01*
G75*
G02*
X74285000Y-127807500I0J-92500D01*
G01*
X74285000Y-128992500D01*
G75*
G02*
X74192500Y-129085000I-92500J0D01*
G01*
G37*
G36*
G01*
X71710000Y-111070000D02*
X71710000Y-111230000D01*
G75*
G02*
X71630000Y-111310000I-80000J0D01*
G01*
X70870000Y-111310000D01*
G75*
G02*
X70790000Y-111230000I0J80000D01*
G01*
X70790000Y-111070000D01*
G75*
G02*
X70870000Y-110990000I80000J0D01*
G01*
X71630000Y-110990000D01*
G75*
G02*
X71710000Y-111070000I0J-80000D01*
G01*
G37*
G36*
G01*
X71710000Y-109770000D02*
X71710000Y-109930000D01*
G75*
G02*
X71630000Y-110010000I-80000J0D01*
G01*
X70870000Y-110010000D01*
G75*
G02*
X70790000Y-109930000I0J80000D01*
G01*
X70790000Y-109770000D01*
G75*
G02*
X70870000Y-109690000I80000J0D01*
G01*
X71630000Y-109690000D01*
G75*
G02*
X71710000Y-109770000I0J-80000D01*
G01*
G37*
G36*
G01*
X73410000Y-110420000D02*
X73410000Y-110580000D01*
G75*
G02*
X73330000Y-110660000I-80000J0D01*
G01*
X72570000Y-110660000D01*
G75*
G02*
X72490000Y-110580000I0J80000D01*
G01*
X72490000Y-110420000D01*
G75*
G02*
X72570000Y-110340000I80000J0D01*
G01*
X73330000Y-110340000D01*
G75*
G02*
X73410000Y-110420000I0J-80000D01*
G01*
G37*
G36*
G01*
X73410000Y-111070000D02*
X73410000Y-111230000D01*
G75*
G02*
X73330000Y-111310000I-80000J0D01*
G01*
X72570000Y-111310000D01*
G75*
G02*
X72490000Y-111230000I0J80000D01*
G01*
X72490000Y-111070000D01*
G75*
G02*
X72570000Y-110990000I80000J0D01*
G01*
X73330000Y-110990000D01*
G75*
G02*
X73410000Y-111070000I0J-80000D01*
G01*
G37*
G36*
G01*
X73410000Y-109770000D02*
X73410000Y-109930000D01*
G75*
G02*
X73330000Y-110010000I-80000J0D01*
G01*
X72570000Y-110010000D01*
G75*
G02*
X72490000Y-109930000I0J80000D01*
G01*
X72490000Y-109770000D01*
G75*
G02*
X72570000Y-109690000I80000J0D01*
G01*
X73330000Y-109690000D01*
G75*
G02*
X73410000Y-109770000I0J-80000D01*
G01*
G37*
G36*
G01*
X70290000Y-122580000D02*
X70290000Y-122420000D01*
G75*
G02*
X70370000Y-122340000I80000J0D01*
G01*
X71130000Y-122340000D01*
G75*
G02*
X71210000Y-122420000I0J-80000D01*
G01*
X71210000Y-122580000D01*
G75*
G02*
X71130000Y-122660000I-80000J0D01*
G01*
X70370000Y-122660000D01*
G75*
G02*
X70290000Y-122580000I0J80000D01*
G01*
G37*
G36*
G01*
X70290000Y-123880000D02*
X70290000Y-123720000D01*
G75*
G02*
X70370000Y-123640000I80000J0D01*
G01*
X71130000Y-123640000D01*
G75*
G02*
X71210000Y-123720000I0J-80000D01*
G01*
X71210000Y-123880000D01*
G75*
G02*
X71130000Y-123960000I-80000J0D01*
G01*
X70370000Y-123960000D01*
G75*
G02*
X70290000Y-123880000I0J80000D01*
G01*
G37*
G36*
G01*
X68590000Y-123230000D02*
X68590000Y-123070000D01*
G75*
G02*
X68670000Y-122990000I80000J0D01*
G01*
X69430000Y-122990000D01*
G75*
G02*
X69510000Y-123070000I0J-80000D01*
G01*
X69510000Y-123230000D01*
G75*
G02*
X69430000Y-123310000I-80000J0D01*
G01*
X68670000Y-123310000D01*
G75*
G02*
X68590000Y-123230000I0J80000D01*
G01*
G37*
G36*
G01*
X68590000Y-122580000D02*
X68590000Y-122420000D01*
G75*
G02*
X68670000Y-122340000I80000J0D01*
G01*
X69430000Y-122340000D01*
G75*
G02*
X69510000Y-122420000I0J-80000D01*
G01*
X69510000Y-122580000D01*
G75*
G02*
X69430000Y-122660000I-80000J0D01*
G01*
X68670000Y-122660000D01*
G75*
G02*
X68590000Y-122580000I0J80000D01*
G01*
G37*
G36*
G01*
X68590000Y-123880000D02*
X68590000Y-123720000D01*
G75*
G02*
X68670000Y-123640000I80000J0D01*
G01*
X69430000Y-123640000D01*
G75*
G02*
X69510000Y-123720000I0J-80000D01*
G01*
X69510000Y-123880000D01*
G75*
G02*
X69430000Y-123960000I-80000J0D01*
G01*
X68670000Y-123960000D01*
G75*
G02*
X68590000Y-123880000I0J80000D01*
G01*
G37*
G36*
G01*
X92592500Y-123185000D02*
X92407500Y-123185000D01*
G75*
G02*
X92315000Y-123092500I0J92500D01*
G01*
X92315000Y-121907500D01*
G75*
G02*
X92407500Y-121815000I92500J0D01*
G01*
X92592500Y-121815000D01*
G75*
G02*
X92685000Y-121907500I0J-92500D01*
G01*
X92685000Y-123092500D01*
G75*
G02*
X92592500Y-123185000I-92500J0D01*
G01*
G37*
G36*
G01*
X93242500Y-123185000D02*
X93057500Y-123185000D01*
G75*
G02*
X92965000Y-123092500I0J92500D01*
G01*
X92965000Y-121907500D01*
G75*
G02*
X93057500Y-121815000I92500J0D01*
G01*
X93242500Y-121815000D01*
G75*
G02*
X93335000Y-121907500I0J-92500D01*
G01*
X93335000Y-123092500D01*
G75*
G02*
X93242500Y-123185000I-92500J0D01*
G01*
G37*
G36*
G01*
X93892500Y-123185000D02*
X93707500Y-123185000D01*
G75*
G02*
X93615000Y-123092500I0J92500D01*
G01*
X93615000Y-121907500D01*
G75*
G02*
X93707500Y-121815000I92500J0D01*
G01*
X93892500Y-121815000D01*
G75*
G02*
X93985000Y-121907500I0J-92500D01*
G01*
X93985000Y-123092500D01*
G75*
G02*
X93892500Y-123185000I-92500J0D01*
G01*
G37*
G36*
G01*
X94542500Y-123185000D02*
X94357500Y-123185000D01*
G75*
G02*
X94265000Y-123092500I0J92500D01*
G01*
X94265000Y-121907500D01*
G75*
G02*
X94357500Y-121815000I92500J0D01*
G01*
X94542500Y-121815000D01*
G75*
G02*
X94635000Y-121907500I0J-92500D01*
G01*
X94635000Y-123092500D01*
G75*
G02*
X94542500Y-123185000I-92500J0D01*
G01*
G37*
G36*
G01*
X95192500Y-123185000D02*
X95007500Y-123185000D01*
G75*
G02*
X94915000Y-123092500I0J92500D01*
G01*
X94915000Y-121907500D01*
G75*
G02*
X95007500Y-121815000I92500J0D01*
G01*
X95192500Y-121815000D01*
G75*
G02*
X95285000Y-121907500I0J-92500D01*
G01*
X95285000Y-123092500D01*
G75*
G02*
X95192500Y-123185000I-92500J0D01*
G01*
G37*
G36*
G01*
X95842500Y-123185000D02*
X95657500Y-123185000D01*
G75*
G02*
X95565000Y-123092500I0J92500D01*
G01*
X95565000Y-121907500D01*
G75*
G02*
X95657500Y-121815000I92500J0D01*
G01*
X95842500Y-121815000D01*
G75*
G02*
X95935000Y-121907500I0J-92500D01*
G01*
X95935000Y-123092500D01*
G75*
G02*
X95842500Y-123185000I-92500J0D01*
G01*
G37*
G36*
G01*
X96492500Y-123185000D02*
X96307500Y-123185000D01*
G75*
G02*
X96215000Y-123092500I0J92500D01*
G01*
X96215000Y-121907500D01*
G75*
G02*
X96307500Y-121815000I92500J0D01*
G01*
X96492500Y-121815000D01*
G75*
G02*
X96585000Y-121907500I0J-92500D01*
G01*
X96585000Y-123092500D01*
G75*
G02*
X96492500Y-123185000I-92500J0D01*
G01*
G37*
G36*
G01*
X97142500Y-123185000D02*
X96957500Y-123185000D01*
G75*
G02*
X96865000Y-123092500I0J92500D01*
G01*
X96865000Y-121907500D01*
G75*
G02*
X96957500Y-121815000I92500J0D01*
G01*
X97142500Y-121815000D01*
G75*
G02*
X97235000Y-121907500I0J-92500D01*
G01*
X97235000Y-123092500D01*
G75*
G02*
X97142500Y-123185000I-92500J0D01*
G01*
G37*
G36*
G01*
X97792500Y-123185000D02*
X97607500Y-123185000D01*
G75*
G02*
X97515000Y-123092500I0J92500D01*
G01*
X97515000Y-121907500D01*
G75*
G02*
X97607500Y-121815000I92500J0D01*
G01*
X97792500Y-121815000D01*
G75*
G02*
X97885000Y-121907500I0J-92500D01*
G01*
X97885000Y-123092500D01*
G75*
G02*
X97792500Y-123185000I-92500J0D01*
G01*
G37*
G36*
G01*
X98442500Y-123185000D02*
X98257500Y-123185000D01*
G75*
G02*
X98165000Y-123092500I0J92500D01*
G01*
X98165000Y-121907500D01*
G75*
G02*
X98257500Y-121815000I92500J0D01*
G01*
X98442500Y-121815000D01*
G75*
G02*
X98535000Y-121907500I0J-92500D01*
G01*
X98535000Y-123092500D01*
G75*
G02*
X98442500Y-123185000I-92500J0D01*
G01*
G37*
G36*
G01*
X98442500Y-129085000D02*
X98257500Y-129085000D01*
G75*
G02*
X98165000Y-128992500I0J92500D01*
G01*
X98165000Y-127807500D01*
G75*
G02*
X98257500Y-127715000I92500J0D01*
G01*
X98442500Y-127715000D01*
G75*
G02*
X98535000Y-127807500I0J-92500D01*
G01*
X98535000Y-128992500D01*
G75*
G02*
X98442500Y-129085000I-92500J0D01*
G01*
G37*
G36*
G01*
X97792500Y-129085000D02*
X97607500Y-129085000D01*
G75*
G02*
X97515000Y-128992500I0J92500D01*
G01*
X97515000Y-127807500D01*
G75*
G02*
X97607500Y-127715000I92500J0D01*
G01*
X97792500Y-127715000D01*
G75*
G02*
X97885000Y-127807500I0J-92500D01*
G01*
X97885000Y-128992500D01*
G75*
G02*
X97792500Y-129085000I-92500J0D01*
G01*
G37*
G36*
G01*
X97142500Y-129085000D02*
X96957500Y-129085000D01*
G75*
G02*
X96865000Y-128992500I0J92500D01*
G01*
X96865000Y-127807500D01*
G75*
G02*
X96957500Y-127715000I92500J0D01*
G01*
X97142500Y-127715000D01*
G75*
G02*
X97235000Y-127807500I0J-92500D01*
G01*
X97235000Y-128992500D01*
G75*
G02*
X97142500Y-129085000I-92500J0D01*
G01*
G37*
G36*
G01*
X96492500Y-129085000D02*
X96307500Y-129085000D01*
G75*
G02*
X96215000Y-128992500I0J92500D01*
G01*
X96215000Y-127807500D01*
G75*
G02*
X96307500Y-127715000I92500J0D01*
G01*
X96492500Y-127715000D01*
G75*
G02*
X96585000Y-127807500I0J-92500D01*
G01*
X96585000Y-128992500D01*
G75*
G02*
X96492500Y-129085000I-92500J0D01*
G01*
G37*
G36*
G01*
X95842500Y-129085000D02*
X95657500Y-129085000D01*
G75*
G02*
X95565000Y-128992500I0J92500D01*
G01*
X95565000Y-127807500D01*
G75*
G02*
X95657500Y-127715000I92500J0D01*
G01*
X95842500Y-127715000D01*
G75*
G02*
X95935000Y-127807500I0J-92500D01*
G01*
X95935000Y-128992500D01*
G75*
G02*
X95842500Y-129085000I-92500J0D01*
G01*
G37*
G36*
G01*
X95192500Y-129085000D02*
X95007500Y-129085000D01*
G75*
G02*
X94915000Y-128992500I0J92500D01*
G01*
X94915000Y-127807500D01*
G75*
G02*
X95007500Y-127715000I92500J0D01*
G01*
X95192500Y-127715000D01*
G75*
G02*
X95285000Y-127807500I0J-92500D01*
G01*
X95285000Y-128992500D01*
G75*
G02*
X95192500Y-129085000I-92500J0D01*
G01*
G37*
G36*
G01*
X94542500Y-129085000D02*
X94357500Y-129085000D01*
G75*
G02*
X94265000Y-128992500I0J92500D01*
G01*
X94265000Y-127807500D01*
G75*
G02*
X94357500Y-127715000I92500J0D01*
G01*
X94542500Y-127715000D01*
G75*
G02*
X94635000Y-127807500I0J-92500D01*
G01*
X94635000Y-128992500D01*
G75*
G02*
X94542500Y-129085000I-92500J0D01*
G01*
G37*
G36*
G01*
X93892500Y-129085000D02*
X93707500Y-129085000D01*
G75*
G02*
X93615000Y-128992500I0J92500D01*
G01*
X93615000Y-127807500D01*
G75*
G02*
X93707500Y-127715000I92500J0D01*
G01*
X93892500Y-127715000D01*
G75*
G02*
X93985000Y-127807500I0J-92500D01*
G01*
X93985000Y-128992500D01*
G75*
G02*
X93892500Y-129085000I-92500J0D01*
G01*
G37*
G36*
G01*
X93242500Y-129085000D02*
X93057500Y-129085000D01*
G75*
G02*
X92965000Y-128992500I0J92500D01*
G01*
X92965000Y-127807500D01*
G75*
G02*
X93057500Y-127715000I92500J0D01*
G01*
X93242500Y-127715000D01*
G75*
G02*
X93335000Y-127807500I0J-92500D01*
G01*
X93335000Y-128992500D01*
G75*
G02*
X93242500Y-129085000I-92500J0D01*
G01*
G37*
G36*
G01*
X92592500Y-129085000D02*
X92407500Y-129085000D01*
G75*
G02*
X92315000Y-128992500I0J92500D01*
G01*
X92315000Y-127807500D01*
G75*
G02*
X92407500Y-127715000I92500J0D01*
G01*
X92592500Y-127715000D01*
G75*
G02*
X92685000Y-127807500I0J-92500D01*
G01*
X92685000Y-128992500D01*
G75*
G02*
X92592500Y-129085000I-92500J0D01*
G01*
G37*
G36*
G01*
X83392500Y-123185000D02*
X83207500Y-123185000D01*
G75*
G02*
X83115000Y-123092500I0J92500D01*
G01*
X83115000Y-121907500D01*
G75*
G02*
X83207500Y-121815000I92500J0D01*
G01*
X83392500Y-121815000D01*
G75*
G02*
X83485000Y-121907500I0J-92500D01*
G01*
X83485000Y-123092500D01*
G75*
G02*
X83392500Y-123185000I-92500J0D01*
G01*
G37*
G36*
G01*
X84042500Y-123185000D02*
X83857500Y-123185000D01*
G75*
G02*
X83765000Y-123092500I0J92500D01*
G01*
X83765000Y-121907500D01*
G75*
G02*
X83857500Y-121815000I92500J0D01*
G01*
X84042500Y-121815000D01*
G75*
G02*
X84135000Y-121907500I0J-92500D01*
G01*
X84135000Y-123092500D01*
G75*
G02*
X84042500Y-123185000I-92500J0D01*
G01*
G37*
G36*
G01*
X84692500Y-123185000D02*
X84507500Y-123185000D01*
G75*
G02*
X84415000Y-123092500I0J92500D01*
G01*
X84415000Y-121907500D01*
G75*
G02*
X84507500Y-121815000I92500J0D01*
G01*
X84692500Y-121815000D01*
G75*
G02*
X84785000Y-121907500I0J-92500D01*
G01*
X84785000Y-123092500D01*
G75*
G02*
X84692500Y-123185000I-92500J0D01*
G01*
G37*
G36*
G01*
X85342500Y-123185000D02*
X85157500Y-123185000D01*
G75*
G02*
X85065000Y-123092500I0J92500D01*
G01*
X85065000Y-121907500D01*
G75*
G02*
X85157500Y-121815000I92500J0D01*
G01*
X85342500Y-121815000D01*
G75*
G02*
X85435000Y-121907500I0J-92500D01*
G01*
X85435000Y-123092500D01*
G75*
G02*
X85342500Y-123185000I-92500J0D01*
G01*
G37*
G36*
G01*
X85992500Y-123185000D02*
X85807500Y-123185000D01*
G75*
G02*
X85715000Y-123092500I0J92500D01*
G01*
X85715000Y-121907500D01*
G75*
G02*
X85807500Y-121815000I92500J0D01*
G01*
X85992500Y-121815000D01*
G75*
G02*
X86085000Y-121907500I0J-92500D01*
G01*
X86085000Y-123092500D01*
G75*
G02*
X85992500Y-123185000I-92500J0D01*
G01*
G37*
G36*
G01*
X86642500Y-123185000D02*
X86457500Y-123185000D01*
G75*
G02*
X86365000Y-123092500I0J92500D01*
G01*
X86365000Y-121907500D01*
G75*
G02*
X86457500Y-121815000I92500J0D01*
G01*
X86642500Y-121815000D01*
G75*
G02*
X86735000Y-121907500I0J-92500D01*
G01*
X86735000Y-123092500D01*
G75*
G02*
X86642500Y-123185000I-92500J0D01*
G01*
G37*
G36*
G01*
X87292500Y-123185000D02*
X87107500Y-123185000D01*
G75*
G02*
X87015000Y-123092500I0J92500D01*
G01*
X87015000Y-121907500D01*
G75*
G02*
X87107500Y-121815000I92500J0D01*
G01*
X87292500Y-121815000D01*
G75*
G02*
X87385000Y-121907500I0J-92500D01*
G01*
X87385000Y-123092500D01*
G75*
G02*
X87292500Y-123185000I-92500J0D01*
G01*
G37*
G36*
G01*
X87942500Y-123185000D02*
X87757500Y-123185000D01*
G75*
G02*
X87665000Y-123092500I0J92500D01*
G01*
X87665000Y-121907500D01*
G75*
G02*
X87757500Y-121815000I92500J0D01*
G01*
X87942500Y-121815000D01*
G75*
G02*
X88035000Y-121907500I0J-92500D01*
G01*
X88035000Y-123092500D01*
G75*
G02*
X87942500Y-123185000I-92500J0D01*
G01*
G37*
G36*
G01*
X88592500Y-123185000D02*
X88407500Y-123185000D01*
G75*
G02*
X88315000Y-123092500I0J92500D01*
G01*
X88315000Y-121907500D01*
G75*
G02*
X88407500Y-121815000I92500J0D01*
G01*
X88592500Y-121815000D01*
G75*
G02*
X88685000Y-121907500I0J-92500D01*
G01*
X88685000Y-123092500D01*
G75*
G02*
X88592500Y-123185000I-92500J0D01*
G01*
G37*
G36*
G01*
X89242500Y-123185000D02*
X89057500Y-123185000D01*
G75*
G02*
X88965000Y-123092500I0J92500D01*
G01*
X88965000Y-121907500D01*
G75*
G02*
X89057500Y-121815000I92500J0D01*
G01*
X89242500Y-121815000D01*
G75*
G02*
X89335000Y-121907500I0J-92500D01*
G01*
X89335000Y-123092500D01*
G75*
G02*
X89242500Y-123185000I-92500J0D01*
G01*
G37*
G36*
G01*
X89242500Y-129085000D02*
X89057500Y-129085000D01*
G75*
G02*
X88965000Y-128992500I0J92500D01*
G01*
X88965000Y-127807500D01*
G75*
G02*
X89057500Y-127715000I92500J0D01*
G01*
X89242500Y-127715000D01*
G75*
G02*
X89335000Y-127807500I0J-92500D01*
G01*
X89335000Y-128992500D01*
G75*
G02*
X89242500Y-129085000I-92500J0D01*
G01*
G37*
G36*
G01*
X88592500Y-129085000D02*
X88407500Y-129085000D01*
G75*
G02*
X88315000Y-128992500I0J92500D01*
G01*
X88315000Y-127807500D01*
G75*
G02*
X88407500Y-127715000I92500J0D01*
G01*
X88592500Y-127715000D01*
G75*
G02*
X88685000Y-127807500I0J-92500D01*
G01*
X88685000Y-128992500D01*
G75*
G02*
X88592500Y-129085000I-92500J0D01*
G01*
G37*
G36*
G01*
X87942500Y-129085000D02*
X87757500Y-129085000D01*
G75*
G02*
X87665000Y-128992500I0J92500D01*
G01*
X87665000Y-127807500D01*
G75*
G02*
X87757500Y-127715000I92500J0D01*
G01*
X87942500Y-127715000D01*
G75*
G02*
X88035000Y-127807500I0J-92500D01*
G01*
X88035000Y-128992500D01*
G75*
G02*
X87942500Y-129085000I-92500J0D01*
G01*
G37*
G36*
G01*
X87292500Y-129085000D02*
X87107500Y-129085000D01*
G75*
G02*
X87015000Y-128992500I0J92500D01*
G01*
X87015000Y-127807500D01*
G75*
G02*
X87107500Y-127715000I92500J0D01*
G01*
X87292500Y-127715000D01*
G75*
G02*
X87385000Y-127807500I0J-92500D01*
G01*
X87385000Y-128992500D01*
G75*
G02*
X87292500Y-129085000I-92500J0D01*
G01*
G37*
G36*
G01*
X86642500Y-129085000D02*
X86457500Y-129085000D01*
G75*
G02*
X86365000Y-128992500I0J92500D01*
G01*
X86365000Y-127807500D01*
G75*
G02*
X86457500Y-127715000I92500J0D01*
G01*
X86642500Y-127715000D01*
G75*
G02*
X86735000Y-127807500I0J-92500D01*
G01*
X86735000Y-128992500D01*
G75*
G02*
X86642500Y-129085000I-92500J0D01*
G01*
G37*
G36*
G01*
X85992500Y-129085000D02*
X85807500Y-129085000D01*
G75*
G02*
X85715000Y-128992500I0J92500D01*
G01*
X85715000Y-127807500D01*
G75*
G02*
X85807500Y-127715000I92500J0D01*
G01*
X85992500Y-127715000D01*
G75*
G02*
X86085000Y-127807500I0J-92500D01*
G01*
X86085000Y-128992500D01*
G75*
G02*
X85992500Y-129085000I-92500J0D01*
G01*
G37*
G36*
G01*
X85342500Y-129085000D02*
X85157500Y-129085000D01*
G75*
G02*
X85065000Y-128992500I0J92500D01*
G01*
X85065000Y-127807500D01*
G75*
G02*
X85157500Y-127715000I92500J0D01*
G01*
X85342500Y-127715000D01*
G75*
G02*
X85435000Y-127807500I0J-92500D01*
G01*
X85435000Y-128992500D01*
G75*
G02*
X85342500Y-129085000I-92500J0D01*
G01*
G37*
G36*
G01*
X84692500Y-129085000D02*
X84507500Y-129085000D01*
G75*
G02*
X84415000Y-128992500I0J92500D01*
G01*
X84415000Y-127807500D01*
G75*
G02*
X84507500Y-127715000I92500J0D01*
G01*
X84692500Y-127715000D01*
G75*
G02*
X84785000Y-127807500I0J-92500D01*
G01*
X84785000Y-128992500D01*
G75*
G02*
X84692500Y-129085000I-92500J0D01*
G01*
G37*
G36*
G01*
X84042500Y-129085000D02*
X83857500Y-129085000D01*
G75*
G02*
X83765000Y-128992500I0J92500D01*
G01*
X83765000Y-127807500D01*
G75*
G02*
X83857500Y-127715000I92500J0D01*
G01*
X84042500Y-127715000D01*
G75*
G02*
X84135000Y-127807500I0J-92500D01*
G01*
X84135000Y-128992500D01*
G75*
G02*
X84042500Y-129085000I-92500J0D01*
G01*
G37*
G36*
G01*
X83392500Y-129085000D02*
X83207500Y-129085000D01*
G75*
G02*
X83115000Y-128992500I0J92500D01*
G01*
X83115000Y-127807500D01*
G75*
G02*
X83207500Y-127715000I92500J0D01*
G01*
X83392500Y-127715000D01*
G75*
G02*
X83485000Y-127807500I0J-92500D01*
G01*
X83485000Y-128992500D01*
G75*
G02*
X83392500Y-129085000I-92500J0D01*
G01*
G37*
G36*
G01*
X54515000Y-99592500D02*
X54515000Y-99107500D01*
G75*
G02*
X54707500Y-98915000I192500J0D01*
G01*
X55092500Y-98915000D01*
G75*
G02*
X55285000Y-99107500I0J-192500D01*
G01*
X55285000Y-99592500D01*
G75*
G02*
X55092500Y-99785000I-192500J0D01*
G01*
X54707500Y-99785000D01*
G75*
G02*
X54515000Y-99592500I0J192500D01*
G01*
G37*
G36*
G01*
X53015000Y-99592500D02*
X53015000Y-99107500D01*
G75*
G02*
X53207500Y-98915000I192500J0D01*
G01*
X53592500Y-98915000D01*
G75*
G02*
X53785000Y-99107500I0J-192500D01*
G01*
X53785000Y-99592500D01*
G75*
G02*
X53592500Y-99785000I-192500J0D01*
G01*
X53207500Y-99785000D01*
G75*
G02*
X53015000Y-99592500I0J192500D01*
G01*
G37*
G36*
G01*
X59500000Y-124675000D02*
X59500000Y-123825000D01*
G75*
G02*
X59750000Y-123575000I250000J0D01*
G01*
X60250000Y-123575000D01*
G75*
G02*
X60500000Y-123825000I0J-250000D01*
G01*
X60500000Y-124675000D01*
G75*
G02*
X60250000Y-124925000I-250000J0D01*
G01*
X59750000Y-124925000D01*
G75*
G02*
X59500000Y-124675000I0J250000D01*
G01*
G37*
G36*
G01*
X57800000Y-124675000D02*
X57800000Y-123825000D01*
G75*
G02*
X58050000Y-123575000I250000J0D01*
G01*
X58550000Y-123575000D01*
G75*
G02*
X58800000Y-123825000I0J-250000D01*
G01*
X58800000Y-124675000D01*
G75*
G02*
X58550000Y-124925000I-250000J0D01*
G01*
X58050000Y-124925000D01*
G75*
G02*
X57800000Y-124675000I0J250000D01*
G01*
G37*
G36*
G01*
X108050000Y-116575000D02*
X108050000Y-115725000D01*
G75*
G02*
X108300000Y-115475000I250000J0D01*
G01*
X108800000Y-115475000D01*
G75*
G02*
X109050000Y-115725000I0J-250000D01*
G01*
X109050000Y-116575000D01*
G75*
G02*
X108800000Y-116825000I-250000J0D01*
G01*
X108300000Y-116825000D01*
G75*
G02*
X108050000Y-116575000I0J250000D01*
G01*
G37*
G36*
G01*
X106350000Y-116575000D02*
X106350000Y-115725000D01*
G75*
G02*
X106600000Y-115475000I250000J0D01*
G01*
X107100000Y-115475000D01*
G75*
G02*
X107350000Y-115725000I0J-250000D01*
G01*
X107350000Y-116575000D01*
G75*
G02*
X107100000Y-116825000I-250000J0D01*
G01*
X106600000Y-116825000D01*
G75*
G02*
X106350000Y-116575000I0J250000D01*
G01*
G37*
G36*
G01*
X109850000Y-105975000D02*
X109850000Y-105125000D01*
G75*
G02*
X110100000Y-104875000I250000J0D01*
G01*
X110600000Y-104875000D01*
G75*
G02*
X110850000Y-105125000I0J-250000D01*
G01*
X110850000Y-105975000D01*
G75*
G02*
X110600000Y-106225000I-250000J0D01*
G01*
X110100000Y-106225000D01*
G75*
G02*
X109850000Y-105975000I0J250000D01*
G01*
G37*
G36*
G01*
X108150000Y-105975000D02*
X108150000Y-105125000D01*
G75*
G02*
X108400000Y-104875000I250000J0D01*
G01*
X108900000Y-104875000D01*
G75*
G02*
X109150000Y-105125000I0J-250000D01*
G01*
X109150000Y-105975000D01*
G75*
G02*
X108900000Y-106225000I-250000J0D01*
G01*
X108400000Y-106225000D01*
G75*
G02*
X108150000Y-105975000I0J250000D01*
G01*
G37*
G36*
G01*
X110332000Y-128314000D02*
X110332000Y-127464000D01*
G75*
G02*
X110582000Y-127214000I250000J0D01*
G01*
X111082000Y-127214000D01*
G75*
G02*
X111332000Y-127464000I0J-250000D01*
G01*
X111332000Y-128314000D01*
G75*
G02*
X111082000Y-128564000I-250000J0D01*
G01*
X110582000Y-128564000D01*
G75*
G02*
X110332000Y-128314000I0J250000D01*
G01*
G37*
G36*
G01*
X108632000Y-128314000D02*
X108632000Y-127464000D01*
G75*
G02*
X108882000Y-127214000I250000J0D01*
G01*
X109382000Y-127214000D01*
G75*
G02*
X109632000Y-127464000I0J-250000D01*
G01*
X109632000Y-128314000D01*
G75*
G02*
X109382000Y-128564000I-250000J0D01*
G01*
X108882000Y-128564000D01*
G75*
G02*
X108632000Y-128314000I0J250000D01*
G01*
G37*
G36*
G01*
X58578000Y-128353000D02*
X58578000Y-129203000D01*
G75*
G02*
X58328000Y-129453000I-250000J0D01*
G01*
X57828000Y-129453000D01*
G75*
G02*
X57578000Y-129203000I0J250000D01*
G01*
X57578000Y-128353000D01*
G75*
G02*
X57828000Y-128103000I250000J0D01*
G01*
X58328000Y-128103000D01*
G75*
G02*
X58578000Y-128353000I0J-250000D01*
G01*
G37*
G36*
G01*
X60278000Y-128353000D02*
X60278000Y-129203000D01*
G75*
G02*
X60028000Y-129453000I-250000J0D01*
G01*
X59528000Y-129453000D01*
G75*
G02*
X59278000Y-129203000I0J250000D01*
G01*
X59278000Y-128353000D01*
G75*
G02*
X59528000Y-128103000I250000J0D01*
G01*
X60028000Y-128103000D01*
G75*
G02*
X60278000Y-128353000I0J-250000D01*
G01*
G37*
G36*
G01*
X72357500Y-123615000D02*
X72842500Y-123615000D01*
G75*
G02*
X73035000Y-123807500I0J-192500D01*
G01*
X73035000Y-124192500D01*
G75*
G02*
X72842500Y-124385000I-192500J0D01*
G01*
X72357500Y-124385000D01*
G75*
G02*
X72165000Y-124192500I0J192500D01*
G01*
X72165000Y-123807500D01*
G75*
G02*
X72357500Y-123615000I192500J0D01*
G01*
G37*
G36*
G01*
X72357500Y-122115000D02*
X72842500Y-122115000D01*
G75*
G02*
X73035000Y-122307500I0J-192500D01*
G01*
X73035000Y-122692500D01*
G75*
G02*
X72842500Y-122885000I-192500J0D01*
G01*
X72357500Y-122885000D01*
G75*
G02*
X72165000Y-122692500I0J192500D01*
G01*
X72165000Y-122307500D01*
G75*
G02*
X72357500Y-122115000I192500J0D01*
G01*
G37*
G36*
G01*
X64515000Y-124192500D02*
X64515000Y-123707500D01*
G75*
G02*
X64707500Y-123515000I192500J0D01*
G01*
X65092500Y-123515000D01*
G75*
G02*
X65285000Y-123707500I0J-192500D01*
G01*
X65285000Y-124192500D01*
G75*
G02*
X65092500Y-124385000I-192500J0D01*
G01*
X64707500Y-124385000D01*
G75*
G02*
X64515000Y-124192500I0J192500D01*
G01*
G37*
G36*
G01*
X63015000Y-124192500D02*
X63015000Y-123707500D01*
G75*
G02*
X63207500Y-123515000I192500J0D01*
G01*
X63592500Y-123515000D01*
G75*
G02*
X63785000Y-123707500I0J-192500D01*
G01*
X63785000Y-124192500D01*
G75*
G02*
X63592500Y-124385000I-192500J0D01*
G01*
X63207500Y-124385000D01*
G75*
G02*
X63015000Y-124192500I0J192500D01*
G01*
G37*
G36*
G01*
X51592500Y-101735000D02*
X51107500Y-101735000D01*
G75*
G02*
X50915000Y-101542500I0J192500D01*
G01*
X50915000Y-101157500D01*
G75*
G02*
X51107500Y-100965000I192500J0D01*
G01*
X51592500Y-100965000D01*
G75*
G02*
X51785000Y-101157500I0J-192500D01*
G01*
X51785000Y-101542500D01*
G75*
G02*
X51592500Y-101735000I-192500J0D01*
G01*
G37*
G36*
G01*
X51592500Y-103235000D02*
X51107500Y-103235000D01*
G75*
G02*
X50915000Y-103042500I0J192500D01*
G01*
X50915000Y-102657500D01*
G75*
G02*
X51107500Y-102465000I192500J0D01*
G01*
X51592500Y-102465000D01*
G75*
G02*
X51785000Y-102657500I0J-192500D01*
G01*
X51785000Y-103042500D01*
G75*
G02*
X51592500Y-103235000I-192500J0D01*
G01*
G37*
G36*
G01*
X64515000Y-99592500D02*
X64515000Y-99107500D01*
G75*
G02*
X64707500Y-98915000I192500J0D01*
G01*
X65092500Y-98915000D01*
G75*
G02*
X65285000Y-99107500I0J-192500D01*
G01*
X65285000Y-99592500D01*
G75*
G02*
X65092500Y-99785000I-192500J0D01*
G01*
X64707500Y-99785000D01*
G75*
G02*
X64515000Y-99592500I0J192500D01*
G01*
G37*
G36*
G01*
X63015000Y-99592500D02*
X63015000Y-99107500D01*
G75*
G02*
X63207500Y-98915000I192500J0D01*
G01*
X63592500Y-98915000D01*
G75*
G02*
X63785000Y-99107500I0J-192500D01*
G01*
X63785000Y-99592500D01*
G75*
G02*
X63592500Y-99785000I-192500J0D01*
G01*
X63207500Y-99785000D01*
G75*
G02*
X63015000Y-99592500I0J192500D01*
G01*
G37*
G36*
G01*
X54515000Y-124192500D02*
X54515000Y-123707500D01*
G75*
G02*
X54707500Y-123515000I192500J0D01*
G01*
X55092500Y-123515000D01*
G75*
G02*
X55285000Y-123707500I0J-192500D01*
G01*
X55285000Y-124192500D01*
G75*
G02*
X55092500Y-124385000I-192500J0D01*
G01*
X54707500Y-124385000D01*
G75*
G02*
X54515000Y-124192500I0J192500D01*
G01*
G37*
G36*
G01*
X53015000Y-124192500D02*
X53015000Y-123707500D01*
G75*
G02*
X53207500Y-123515000I192500J0D01*
G01*
X53592500Y-123515000D01*
G75*
G02*
X53785000Y-123707500I0J-192500D01*
G01*
X53785000Y-124192500D01*
G75*
G02*
X53592500Y-124385000I-192500J0D01*
G01*
X53207500Y-124385000D01*
G75*
G02*
X53015000Y-124192500I0J192500D01*
G01*
G37*
G36*
G01*
X66707500Y-111165000D02*
X67192500Y-111165000D01*
G75*
G02*
X67385000Y-111357500I0J-192500D01*
G01*
X67385000Y-111742500D01*
G75*
G02*
X67192500Y-111935000I-192500J0D01*
G01*
X66707500Y-111935000D01*
G75*
G02*
X66515000Y-111742500I0J192500D01*
G01*
X66515000Y-111357500D01*
G75*
G02*
X66707500Y-111165000I192500J0D01*
G01*
G37*
G36*
G01*
X66707500Y-109665000D02*
X67192500Y-109665000D01*
G75*
G02*
X67385000Y-109857500I0J-192500D01*
G01*
X67385000Y-110242500D01*
G75*
G02*
X67192500Y-110435000I-192500J0D01*
G01*
X66707500Y-110435000D01*
G75*
G02*
X66515000Y-110242500I0J192500D01*
G01*
X66515000Y-109857500D01*
G75*
G02*
X66707500Y-109665000I192500J0D01*
G01*
G37*
G36*
G01*
X51592500Y-106535000D02*
X51107500Y-106535000D01*
G75*
G02*
X50915000Y-106342500I0J192500D01*
G01*
X50915000Y-105957500D01*
G75*
G02*
X51107500Y-105765000I192500J0D01*
G01*
X51592500Y-105765000D01*
G75*
G02*
X51785000Y-105957500I0J-192500D01*
G01*
X51785000Y-106342500D01*
G75*
G02*
X51592500Y-106535000I-192500J0D01*
G01*
G37*
G36*
G01*
X51592500Y-108035000D02*
X51107500Y-108035000D01*
G75*
G02*
X50915000Y-107842500I0J192500D01*
G01*
X50915000Y-107457500D01*
G75*
G02*
X51107500Y-107265000I192500J0D01*
G01*
X51592500Y-107265000D01*
G75*
G02*
X51785000Y-107457500I0J-192500D01*
G01*
X51785000Y-107842500D01*
G75*
G02*
X51592500Y-108035000I-192500J0D01*
G01*
G37*
G36*
G01*
X51592500Y-110535000D02*
X51107500Y-110535000D01*
G75*
G02*
X50915000Y-110342500I0J192500D01*
G01*
X50915000Y-109957500D01*
G75*
G02*
X51107500Y-109765000I192500J0D01*
G01*
X51592500Y-109765000D01*
G75*
G02*
X51785000Y-109957500I0J-192500D01*
G01*
X51785000Y-110342500D01*
G75*
G02*
X51592500Y-110535000I-192500J0D01*
G01*
G37*
G36*
G01*
X51592500Y-112035000D02*
X51107500Y-112035000D01*
G75*
G02*
X50915000Y-111842500I0J192500D01*
G01*
X50915000Y-111457500D01*
G75*
G02*
X51107500Y-111265000I192500J0D01*
G01*
X51592500Y-111265000D01*
G75*
G02*
X51785000Y-111457500I0J-192500D01*
G01*
X51785000Y-111842500D01*
G75*
G02*
X51592500Y-112035000I-192500J0D01*
G01*
G37*
G36*
G01*
X66707500Y-106365000D02*
X67192500Y-106365000D01*
G75*
G02*
X67385000Y-106557500I0J-192500D01*
G01*
X67385000Y-106942500D01*
G75*
G02*
X67192500Y-107135000I-192500J0D01*
G01*
X66707500Y-107135000D01*
G75*
G02*
X66515000Y-106942500I0J192500D01*
G01*
X66515000Y-106557500D01*
G75*
G02*
X66707500Y-106365000I192500J0D01*
G01*
G37*
G36*
G01*
X66707500Y-104865000D02*
X67192500Y-104865000D01*
G75*
G02*
X67385000Y-105057500I0J-192500D01*
G01*
X67385000Y-105442500D01*
G75*
G02*
X67192500Y-105635000I-192500J0D01*
G01*
X66707500Y-105635000D01*
G75*
G02*
X66515000Y-105442500I0J192500D01*
G01*
X66515000Y-105057500D01*
G75*
G02*
X66707500Y-104865000I192500J0D01*
G01*
G37*
G36*
G01*
X99957500Y-123615000D02*
X100442500Y-123615000D01*
G75*
G02*
X100635000Y-123807500I0J-192500D01*
G01*
X100635000Y-124192500D01*
G75*
G02*
X100442500Y-124385000I-192500J0D01*
G01*
X99957500Y-124385000D01*
G75*
G02*
X99765000Y-124192500I0J192500D01*
G01*
X99765000Y-123807500D01*
G75*
G02*
X99957500Y-123615000I192500J0D01*
G01*
G37*
G36*
G01*
X99957500Y-122115000D02*
X100442500Y-122115000D01*
G75*
G02*
X100635000Y-122307500I0J-192500D01*
G01*
X100635000Y-122692500D01*
G75*
G02*
X100442500Y-122885000I-192500J0D01*
G01*
X99957500Y-122885000D01*
G75*
G02*
X99765000Y-122692500I0J192500D01*
G01*
X99765000Y-122307500D01*
G75*
G02*
X99957500Y-122115000I192500J0D01*
G01*
G37*
G36*
G01*
X81557500Y-123615000D02*
X82042500Y-123615000D01*
G75*
G02*
X82235000Y-123807500I0J-192500D01*
G01*
X82235000Y-124192500D01*
G75*
G02*
X82042500Y-124385000I-192500J0D01*
G01*
X81557500Y-124385000D01*
G75*
G02*
X81365000Y-124192500I0J192500D01*
G01*
X81365000Y-123807500D01*
G75*
G02*
X81557500Y-123615000I192500J0D01*
G01*
G37*
G36*
G01*
X81557500Y-122115000D02*
X82042500Y-122115000D01*
G75*
G02*
X82235000Y-122307500I0J-192500D01*
G01*
X82235000Y-122692500D01*
G75*
G02*
X82042500Y-122885000I-192500J0D01*
G01*
X81557500Y-122885000D01*
G75*
G02*
X81365000Y-122692500I0J192500D01*
G01*
X81365000Y-122307500D01*
G75*
G02*
X81557500Y-122115000I192500J0D01*
G01*
G37*
G36*
G01*
X90757500Y-123615000D02*
X91242500Y-123615000D01*
G75*
G02*
X91435000Y-123807500I0J-192500D01*
G01*
X91435000Y-124192500D01*
G75*
G02*
X91242500Y-124385000I-192500J0D01*
G01*
X90757500Y-124385000D01*
G75*
G02*
X90565000Y-124192500I0J192500D01*
G01*
X90565000Y-123807500D01*
G75*
G02*
X90757500Y-123615000I192500J0D01*
G01*
G37*
G36*
G01*
X90757500Y-122115000D02*
X91242500Y-122115000D01*
G75*
G02*
X91435000Y-122307500I0J-192500D01*
G01*
X91435000Y-122692500D01*
G75*
G02*
X91242500Y-122885000I-192500J0D01*
G01*
X90757500Y-122885000D01*
G75*
G02*
X90565000Y-122692500I0J192500D01*
G01*
X90565000Y-122307500D01*
G75*
G02*
X90757500Y-122115000I192500J0D01*
G01*
G37*
G36*
G01*
X109392500Y-121635000D02*
X108907500Y-121635000D01*
G75*
G02*
X108715000Y-121442500I0J192500D01*
G01*
X108715000Y-121057500D01*
G75*
G02*
X108907500Y-120865000I192500J0D01*
G01*
X109392500Y-120865000D01*
G75*
G02*
X109585000Y-121057500I0J-192500D01*
G01*
X109585000Y-121442500D01*
G75*
G02*
X109392500Y-121635000I-192500J0D01*
G01*
G37*
G36*
G01*
X109392500Y-120135000D02*
X108907500Y-120135000D01*
G75*
G02*
X108715000Y-119942500I0J192500D01*
G01*
X108715000Y-119557500D01*
G75*
G02*
X108907500Y-119365000I192500J0D01*
G01*
X109392500Y-119365000D01*
G75*
G02*
X109585000Y-119557500I0J-192500D01*
G01*
X109585000Y-119942500D01*
G75*
G02*
X109392500Y-120135000I-192500J0D01*
G01*
G37*
G36*
G01*
X101350000Y-120025000D02*
X101350000Y-120975000D01*
G75*
G02*
X101150000Y-121175000I-200000J0D01*
G01*
X100750000Y-121175000D01*
G75*
G02*
X100550000Y-120975000I0J200000D01*
G01*
X100550000Y-120025000D01*
G75*
G02*
X100750000Y-119825000I200000J0D01*
G01*
X101150000Y-119825000D01*
G75*
G02*
X101350000Y-120025000I0J-200000D01*
G01*
G37*
G36*
G01*
X99450000Y-120025000D02*
X99450000Y-120975000D01*
G75*
G02*
X99250000Y-121175000I-200000J0D01*
G01*
X98850000Y-121175000D01*
G75*
G02*
X98650000Y-120975000I0J200000D01*
G01*
X98650000Y-120025000D01*
G75*
G02*
X98850000Y-119825000I200000J0D01*
G01*
X99250000Y-119825000D01*
G75*
G02*
X99450000Y-120025000I0J-200000D01*
G01*
G37*
G36*
G01*
X111187500Y-123825000D02*
X110912500Y-123825000D01*
G75*
G02*
X110775000Y-123687500I0J137500D01*
G01*
X110775000Y-122712500D01*
G75*
G02*
X110912500Y-122575000I137500J0D01*
G01*
X111187500Y-122575000D01*
G75*
G02*
X111325000Y-122712500I0J-137500D01*
G01*
X111325000Y-123687500D01*
G75*
G02*
X111187500Y-123825000I-137500J0D01*
G01*
G37*
G36*
G01*
X109287500Y-123825000D02*
X109012500Y-123825000D01*
G75*
G02*
X108875000Y-123687500I0J137500D01*
G01*
X108875000Y-122712500D01*
G75*
G02*
X109012500Y-122575000I137500J0D01*
G01*
X109287500Y-122575000D01*
G75*
G02*
X109425000Y-122712500I0J-137500D01*
G01*
X109425000Y-123687500D01*
G75*
G02*
X109287500Y-123825000I-137500J0D01*
G01*
G37*
G36*
G01*
X110237500Y-125925000D02*
X109962500Y-125925000D01*
G75*
G02*
X109825000Y-125787500I0J137500D01*
G01*
X109825000Y-124812500D01*
G75*
G02*
X109962500Y-124675000I137500J0D01*
G01*
X110237500Y-124675000D01*
G75*
G02*
X110375000Y-124812500I0J-137500D01*
G01*
X110375000Y-125787500D01*
G75*
G02*
X110237500Y-125925000I-137500J0D01*
G01*
G37*
G36*
G01*
X111187500Y-125925000D02*
X110912500Y-125925000D01*
G75*
G02*
X110775000Y-125787500I0J137500D01*
G01*
X110775000Y-124812500D01*
G75*
G02*
X110912500Y-124675000I137500J0D01*
G01*
X111187500Y-124675000D01*
G75*
G02*
X111325000Y-124812500I0J-137500D01*
G01*
X111325000Y-125787500D01*
G75*
G02*
X111187500Y-125925000I-137500J0D01*
G01*
G37*
G36*
G01*
X109287500Y-125925000D02*
X109012500Y-125925000D01*
G75*
G02*
X108875000Y-125787500I0J137500D01*
G01*
X108875000Y-124812500D01*
G75*
G02*
X109012500Y-124675000I137500J0D01*
G01*
X109287500Y-124675000D01*
G75*
G02*
X109425000Y-124812500I0J-137500D01*
G01*
X109425000Y-125787500D01*
G75*
G02*
X109287500Y-125925000I-137500J0D01*
G01*
G37*
G36*
G01*
X80785000Y-118007500D02*
X80785000Y-118492500D01*
G75*
G02*
X80592500Y-118685000I-192500J0D01*
G01*
X80207500Y-118685000D01*
G75*
G02*
X80015000Y-118492500I0J192500D01*
G01*
X80015000Y-118007500D01*
G75*
G02*
X80207500Y-117815000I192500J0D01*
G01*
X80592500Y-117815000D01*
G75*
G02*
X80785000Y-118007500I0J-192500D01*
G01*
G37*
G36*
G01*
X82285000Y-118007500D02*
X82285000Y-118492500D01*
G75*
G02*
X82092500Y-118685000I-192500J0D01*
G01*
X81707500Y-118685000D01*
G75*
G02*
X81515000Y-118492500I0J192500D01*
G01*
X81515000Y-118007500D01*
G75*
G02*
X81707500Y-117815000I192500J0D01*
G01*
X82092500Y-117815000D01*
G75*
G02*
X82285000Y-118007500I0J-192500D01*
G01*
G37*
G36*
G01*
X91785000Y-98607500D02*
X91785000Y-99092500D01*
G75*
G02*
X91592500Y-99285000I-192500J0D01*
G01*
X91207500Y-99285000D01*
G75*
G02*
X91015000Y-99092500I0J192500D01*
G01*
X91015000Y-98607500D01*
G75*
G02*
X91207500Y-98415000I192500J0D01*
G01*
X91592500Y-98415000D01*
G75*
G02*
X91785000Y-98607500I0J-192500D01*
G01*
G37*
G36*
G01*
X90285000Y-98607500D02*
X90285000Y-99092500D01*
G75*
G02*
X90092500Y-99285000I-192500J0D01*
G01*
X89707500Y-99285000D01*
G75*
G02*
X89515000Y-99092500I0J192500D01*
G01*
X89515000Y-98607500D01*
G75*
G02*
X89707500Y-98415000I192500J0D01*
G01*
X90092500Y-98415000D01*
G75*
G02*
X90285000Y-98607500I0J-192500D01*
G01*
G37*
G36*
G01*
X87285000Y-118007500D02*
X87285000Y-118492500D01*
G75*
G02*
X87092500Y-118685000I-192500J0D01*
G01*
X86707500Y-118685000D01*
G75*
G02*
X86515000Y-118492500I0J192500D01*
G01*
X86515000Y-118007500D01*
G75*
G02*
X86707500Y-117815000I192500J0D01*
G01*
X87092500Y-117815000D01*
G75*
G02*
X87285000Y-118007500I0J-192500D01*
G01*
G37*
G36*
G01*
X88785000Y-118007500D02*
X88785000Y-118492500D01*
G75*
G02*
X88592500Y-118685000I-192500J0D01*
G01*
X88207500Y-118685000D01*
G75*
G02*
X88015000Y-118492500I0J192500D01*
G01*
X88015000Y-118007500D01*
G75*
G02*
X88207500Y-117815000I192500J0D01*
G01*
X88592500Y-117815000D01*
G75*
G02*
X88785000Y-118007500I0J-192500D01*
G01*
G37*
G36*
G01*
X80765000Y-99092500D02*
X80765000Y-98607500D01*
G75*
G02*
X80957500Y-98415000I192500J0D01*
G01*
X81342500Y-98415000D01*
G75*
G02*
X81535000Y-98607500I0J-192500D01*
G01*
X81535000Y-99092500D01*
G75*
G02*
X81342500Y-99285000I-192500J0D01*
G01*
X80957500Y-99285000D01*
G75*
G02*
X80765000Y-99092500I0J192500D01*
G01*
G37*
G36*
G01*
X82265000Y-99092500D02*
X82265000Y-98607500D01*
G75*
G02*
X82457500Y-98415000I192500J0D01*
G01*
X82842500Y-98415000D01*
G75*
G02*
X83035000Y-98607500I0J-192500D01*
G01*
X83035000Y-99092500D01*
G75*
G02*
X82842500Y-99285000I-192500J0D01*
G01*
X82457500Y-99285000D01*
G75*
G02*
X82265000Y-99092500I0J192500D01*
G01*
G37*
G36*
G01*
X79785000Y-98607500D02*
X79785000Y-99092500D01*
G75*
G02*
X79592500Y-99285000I-192500J0D01*
G01*
X79207500Y-99285000D01*
G75*
G02*
X79015000Y-99092500I0J192500D01*
G01*
X79015000Y-98607500D01*
G75*
G02*
X79207500Y-98415000I192500J0D01*
G01*
X79592500Y-98415000D01*
G75*
G02*
X79785000Y-98607500I0J-192500D01*
G01*
G37*
G36*
G01*
X78285000Y-98607500D02*
X78285000Y-99092500D01*
G75*
G02*
X78092500Y-99285000I-192500J0D01*
G01*
X77707500Y-99285000D01*
G75*
G02*
X77515000Y-99092500I0J192500D01*
G01*
X77515000Y-98607500D01*
G75*
G02*
X77707500Y-98415000I192500J0D01*
G01*
X78092500Y-98415000D01*
G75*
G02*
X78285000Y-98607500I0J-192500D01*
G01*
G37*
G36*
G01*
X75457500Y-105165000D02*
X75942500Y-105165000D01*
G75*
G02*
X76135000Y-105357500I0J-192500D01*
G01*
X76135000Y-105742500D01*
G75*
G02*
X75942500Y-105935000I-192500J0D01*
G01*
X75457500Y-105935000D01*
G75*
G02*
X75265000Y-105742500I0J192500D01*
G01*
X75265000Y-105357500D01*
G75*
G02*
X75457500Y-105165000I192500J0D01*
G01*
G37*
G36*
G01*
X75457500Y-103665000D02*
X75942500Y-103665000D01*
G75*
G02*
X76135000Y-103857500I0J-192500D01*
G01*
X76135000Y-104242500D01*
G75*
G02*
X75942500Y-104435000I-192500J0D01*
G01*
X75457500Y-104435000D01*
G75*
G02*
X75265000Y-104242500I0J192500D01*
G01*
X75265000Y-103857500D01*
G75*
G02*
X75457500Y-103665000I192500J0D01*
G01*
G37*
G36*
G01*
X91015000Y-118492500D02*
X91015000Y-118007500D01*
G75*
G02*
X91207500Y-117815000I192500J0D01*
G01*
X91592500Y-117815000D01*
G75*
G02*
X91785000Y-118007500I0J-192500D01*
G01*
X91785000Y-118492500D01*
G75*
G02*
X91592500Y-118685000I-192500J0D01*
G01*
X91207500Y-118685000D01*
G75*
G02*
X91015000Y-118492500I0J192500D01*
G01*
G37*
G36*
G01*
X92515000Y-118492500D02*
X92515000Y-118007500D01*
G75*
G02*
X92707500Y-117815000I192500J0D01*
G01*
X93092500Y-117815000D01*
G75*
G02*
X93285000Y-118007500I0J-192500D01*
G01*
X93285000Y-118492500D01*
G75*
G02*
X93092500Y-118685000I-192500J0D01*
G01*
X92707500Y-118685000D01*
G75*
G02*
X92515000Y-118492500I0J192500D01*
G01*
G37*
G36*
G01*
X95342500Y-111935000D02*
X94857500Y-111935000D01*
G75*
G02*
X94665000Y-111742500I0J192500D01*
G01*
X94665000Y-111357500D01*
G75*
G02*
X94857500Y-111165000I192500J0D01*
G01*
X95342500Y-111165000D01*
G75*
G02*
X95535000Y-111357500I0J-192500D01*
G01*
X95535000Y-111742500D01*
G75*
G02*
X95342500Y-111935000I-192500J0D01*
G01*
G37*
G36*
G01*
X95342500Y-113435000D02*
X94857500Y-113435000D01*
G75*
G02*
X94665000Y-113242500I0J192500D01*
G01*
X94665000Y-112857500D01*
G75*
G02*
X94857500Y-112665000I192500J0D01*
G01*
X95342500Y-112665000D01*
G75*
G02*
X95535000Y-112857500I0J-192500D01*
G01*
X95535000Y-113242500D01*
G75*
G02*
X95342500Y-113435000I-192500J0D01*
G01*
G37*
G36*
G01*
X96475000Y-116350000D02*
X97025000Y-116350000D01*
G75*
G02*
X97175000Y-116500000I0J-150000D01*
G01*
X97175000Y-116800000D01*
G75*
G02*
X97025000Y-116950000I-150000J0D01*
G01*
X96475000Y-116950000D01*
G75*
G02*
X96325000Y-116800000I0J150000D01*
G01*
X96325000Y-116500000D01*
G75*
G02*
X96475000Y-116350000I150000J0D01*
G01*
G37*
G36*
G01*
X96475000Y-114750000D02*
X97025000Y-114750000D01*
G75*
G02*
X97175000Y-114900000I0J-150000D01*
G01*
X97175000Y-115200000D01*
G75*
G02*
X97025000Y-115350000I-150000J0D01*
G01*
X96475000Y-115350000D01*
G75*
G02*
X96325000Y-115200000I0J150000D01*
G01*
X96325000Y-114900000D01*
G75*
G02*
X96475000Y-114750000I150000J0D01*
G01*
G37*
G36*
G01*
X97418907Y-104974039D02*
X97075961Y-104631093D01*
G75*
G02*
X97075961Y-104358857I136118J136118D01*
G01*
X97348197Y-104086621D01*
G75*
G02*
X97620433Y-104086621I136118J-136118D01*
G01*
X97963379Y-104429567D01*
G75*
G02*
X97963379Y-104701803I-136118J-136118D01*
G01*
X97691143Y-104974039D01*
G75*
G02*
X97418907Y-104974039I-136118J136118D01*
G01*
G37*
G36*
G01*
X98479567Y-103913379D02*
X98136621Y-103570433D01*
G75*
G02*
X98136621Y-103298197I136118J136118D01*
G01*
X98408857Y-103025961D01*
G75*
G02*
X98681093Y-103025961I136118J-136118D01*
G01*
X99024039Y-103368907D01*
G75*
G02*
X99024039Y-103641143I-136118J-136118D01*
G01*
X98751803Y-103913379D01*
G75*
G02*
X98479567Y-103913379I-136118J136118D01*
G01*
G37*
G36*
G01*
X99648007Y-104890901D02*
X99259099Y-104501993D01*
G75*
G02*
X99259099Y-104289861I106066J106066D01*
G01*
X99471231Y-104077729D01*
G75*
G02*
X99683363Y-104077729I106066J-106066D01*
G01*
X100072271Y-104466637D01*
G75*
G02*
X100072271Y-104678769I-106066J-106066D01*
G01*
X99860139Y-104890901D01*
G75*
G02*
X99648007Y-104890901I-106066J106066D01*
G01*
G37*
G36*
G01*
X98516637Y-106022271D02*
X98127729Y-105633363D01*
G75*
G02*
X98127729Y-105421231I106066J106066D01*
G01*
X98339861Y-105209099D01*
G75*
G02*
X98551993Y-105209099I106066J-106066D01*
G01*
X98940901Y-105598007D01*
G75*
G02*
X98940901Y-105810139I-106066J-106066D01*
G01*
X98728769Y-106022271D01*
G75*
G02*
X98516637Y-106022271I-106066J106066D01*
G01*
G37*
G36*
G01*
X96451993Y-103109099D02*
X96840901Y-103498007D01*
G75*
G02*
X96840901Y-103710139I-106066J-106066D01*
G01*
X96628769Y-103922271D01*
G75*
G02*
X96416637Y-103922271I-106066J106066D01*
G01*
X96027729Y-103533363D01*
G75*
G02*
X96027729Y-103321231I106066J106066D01*
G01*
X96239861Y-103109099D01*
G75*
G02*
X96451993Y-103109099I106066J-106066D01*
G01*
G37*
G36*
G01*
X97583363Y-101977729D02*
X97972271Y-102366637D01*
G75*
G02*
X97972271Y-102578769I-106066J-106066D01*
G01*
X97760139Y-102790901D01*
G75*
G02*
X97548007Y-102790901I-106066J106066D01*
G01*
X97159099Y-102401993D01*
G75*
G02*
X97159099Y-102189861I106066J106066D01*
G01*
X97371231Y-101977729D01*
G75*
G02*
X97583363Y-101977729I106066J-106066D01*
G01*
G37*
G36*
G01*
X97266637Y-99172271D02*
X96877729Y-98783363D01*
G75*
G02*
X96877729Y-98571231I106066J106066D01*
G01*
X97089861Y-98359099D01*
G75*
G02*
X97301993Y-98359099I106066J-106066D01*
G01*
X97690901Y-98748007D01*
G75*
G02*
X97690901Y-98960139I-106066J-106066D01*
G01*
X97478769Y-99172271D01*
G75*
G02*
X97266637Y-99172271I-106066J106066D01*
G01*
G37*
G36*
G01*
X98398007Y-98040901D02*
X98009099Y-97651993D01*
G75*
G02*
X98009099Y-97439861I106066J106066D01*
G01*
X98221231Y-97227729D01*
G75*
G02*
X98433363Y-97227729I106066J-106066D01*
G01*
X98822271Y-97616637D01*
G75*
G02*
X98822271Y-97828769I-106066J-106066D01*
G01*
X98610139Y-98040901D01*
G75*
G02*
X98398007Y-98040901I-106066J106066D01*
G01*
G37*
M02*
