M48
; DRILL file {KiCad 7.0.1-0} date 2023 November 03, Friday 04:24:28
; FORMAT={-:-/ absolute / inch / decimal}
; #@! TF.CreationDate,2023-11-03T04:24:28-04:00
; #@! TF.GenerationSoftware,Kicad,Pcbnew,7.0.1-0
; #@! TF.FileFunction,MixedPlating,1,4
FMAT,2
INCH
; #@! TA.AperFunction,Plated,PTH,ViaDrill
T1C0.0118
; #@! TA.AperFunction,Plated,PTH,ViaDrill
T2C0.0157
; #@! TA.AperFunction,Plated,PTH,ViaDrill
T3C0.0197
; #@! TA.AperFunction,Plated,PTH,ViaDrill
T4C0.0300
; #@! TA.AperFunction,Plated,PTH,ComponentDrill
T5C0.0433
; #@! TA.AperFunction,NonPlated,NPTH,ComponentDrill
T6C0.0390
; #@! TA.AperFunction,NonPlated,NPTH,ComponentDrill
T7C0.0454
; #@! TA.AperFunction,NonPlated,NPTH,ComponentDrill
T8C0.0935
%
G90
G05
T1
X1.85Y-3.845
X1.85Y-4.045
X1.85Y-4.245
X1.85Y-4.445
X1.85Y-4.645
X1.85Y-4.845
X1.85Y-5.045
X1.965Y-5.16
X1.97Y-3.73
X1.97Y-3.93
X1.97Y-4.545
X1.97Y-4.745
X1.9823Y-3.9902
X1.9823Y-4.0492
X1.9823Y-4.1791
X1.9823Y-4.2382
X1.9823Y-4.3366
X1.9823Y-4.3957
X2.0217Y-3.9528
X2.0217Y-4.0866
X2.0217Y-4.1417
X2.0217Y-4.2717
X2.0217Y-4.3031
X2.0217Y-4.4331
X2.0571Y-4.0492
X2.0571Y-4.2382
X2.0571Y-4.3327
X2.0571Y-4.3957
X2.0571Y-4.8051
X2.065Y-3.63
X2.065Y-3.83
X2.0689Y-3.9114
X2.0689Y-4.8799
X2.1024Y-3.876
X2.1024Y-3.9606
X2.1024Y-4.8307
X2.1024Y-4.9154
X2.1476Y-3.9862
X2.1476Y-4.0492
X2.1476Y-4.1437
X2.1476Y-4.2382
X2.1476Y-4.3327
X2.1476Y-4.3957
X2.1476Y-4.8051
X2.1516Y-4.4902
X2.1516Y-4.5531
X2.1516Y-4.6161
X2.1516Y-4.6791
X2.1516Y-4.7421
X2.1614Y-3.876
X2.1614Y-3.9469
X2.1614Y-4.8445
X2.1614Y-4.9154
X2.165Y-3.73
X2.1693Y-4.4272
X2.1732Y-4.5217
X2.1732Y-4.5846
X2.1732Y-4.6476
X2.1732Y-4.7106
X2.1732Y-4.7736
X2.1752Y-4.0177
X2.1752Y-4.0768
X2.1752Y-4.1161
X2.1752Y-4.1713
X2.1752Y-4.2106
X2.1752Y-4.2657
X2.1752Y-4.3051
X2.1752Y-4.3642
X2.1909Y-4.4587
X2.1949Y-3.9114
X2.1949Y-4.8799
X2.245Y-5.0728
X2.2539Y-4.8917
X2.265Y-3.63
X2.265Y-3.83
X2.2736Y-4.8051
X2.2815Y-4.3957
X2.2953Y-4.8445
X2.2972Y-5.0217
X2.3287Y-3.9862
X2.3287Y-4.0492
X2.3287Y-4.0965
X2.3287Y-4.1437
X2.3287Y-4.1909
X2.3287Y-4.2382
X2.3287Y-4.2854
X2.3287Y-4.3327
X2.3524Y-5.0217
X2.3622Y-4.8445
X2.3622Y-4.937
X2.3646Y-3.9291
X2.376Y-4.3957
X2.3839Y-4.8051
X2.4035Y-4.8917
X2.43Y-5.155
X2.4626Y-3.9114
X2.4626Y-4.8799
X2.465Y-3.63
X2.4823Y-4.0177
X2.4823Y-4.0768
X2.4823Y-4.1161
X2.4823Y-4.1713
X2.4823Y-4.2106
X2.4823Y-4.2657
X2.4823Y-4.3051
X2.4823Y-4.3642
X2.4961Y-3.876
X2.4961Y-3.9469
X2.4961Y-4.8425
X2.4961Y-4.9154
X2.5098Y-3.9862
X2.5098Y-4.0492
X2.5098Y-4.1437
X2.5098Y-4.2382
X2.5098Y-4.3327
X2.5098Y-4.3957
X2.5098Y-4.8051
X2.52Y-5.155
X2.5551Y-3.876
X2.5551Y-3.9606
X2.5551Y-4.8307
X2.5551Y-4.9134
X2.57Y-5.12
X2.5886Y-3.9114
X2.5886Y-4.8799
X2.6004Y-3.9862
X2.6004Y-4.0492
X2.6004Y-4.1437
X2.6004Y-4.3327
X2.6004Y-4.3957
X2.6004Y-4.8051
X2.6024Y-4.6161
X2.6024Y-4.6791
X2.6024Y-4.7421
X2.6043Y-4.4587
X2.62Y-5.155
X2.624Y-4.5217
X2.626Y-4.5846
X2.626Y-4.6476
X2.626Y-4.7106
X2.626Y-4.7736
X2.6299Y-4.2343
X2.6358Y-4.2953
X2.6358Y-4.4252
X2.6417Y-4.1063
X2.6575Y-4.939
X2.665Y-3.63
X2.6693Y-4.1969
X2.6693Y-4.3366
X2.6693Y-4.3917
X2.6791Y-4.4646
X2.6791Y-5.0295
X2.6949Y-4.7717
X2.7028Y-4.313
X2.7185Y-4.8976
X2.72Y-5.155
X2.7362Y-4.2854
X2.7362Y-4.4094
X2.7362Y-4.7303
X2.765Y-3.93
X2.7697Y-4.376
X2.7717Y-5.0295
X2.7776Y-4.2992
X2.7854Y-4.7323
X2.7854Y-4.7992
X2.8051Y-4.3996
X2.82Y-5.155
X2.8248Y-4.8819
X2.8268Y-5.0276
X2.8346Y-4.7441
X2.8445Y-3.9114
X2.8583Y-4.7894
X2.865Y-3.63
X2.876Y-4.1201
X2.876Y-4.3012
X2.878Y-5.0315
X2.885Y-5.12
X2.8927Y-4.8228
X2.8937Y-4.8819
X2.9075Y-4.3248
X2.9075Y-4.3957
X2.9173Y-4.7795
X2.9173Y-5.0098
X2.92Y-5.155
X2.9331Y-5.1102
X2.939Y-4.6713
X2.9449Y-4.7441
X2.9469Y-4.1024
X2.9469Y-4.1496
X2.9744Y-4.8858
X2.9803Y-4.065
X2.9941Y-4.7795
X3.002Y-4.6142
X3.0098Y-4.9646
X3.0157Y-4.1122
X3.0157Y-4.1398
X3.0157Y-4.4469
X3.0157Y-4.4744
X3.0157Y-4.5098
X3.0197Y-4.9272
X3.02Y-5.155
X3.0394Y-4.9902
X3.0512Y-4.9508
X3.061Y-4.0157
X3.062Y-5.1171
X3.065Y-3.63
X3.065Y-3.755
X3.0728Y-3.8583
X3.0728Y-3.9272
X3.1043Y-4.0571
X3.1043Y-4.1949
X3.1043Y-4.313
X3.1043Y-4.3524
X3.1043Y-4.3917
X3.1083Y-4.1122
X3.1083Y-4.1398
X3.1083Y-4.4469
X3.1083Y-4.4744
X3.1142Y-4.5138
X3.12Y-5.155
X3.122Y-4.2539
X3.1339Y-4.6555
X3.1398Y-4.0768
X3.1398Y-4.1752
X3.1398Y-4.2933
X3.1398Y-4.3327
X3.1398Y-4.372
X3.1398Y-4.4114
X3.1476Y-4.4508
X3.1476Y-5.0098
X3.1654Y-3.9272
X3.1654Y-4.1063
X3.1654Y-4.1457
X3.1673Y-4.0276
X3.1732Y-5.0551
X3.1811Y-4.5276
X3.1811Y-4.622
X3.185Y-4.8819
X3.187Y-4.8228
X3.1969Y-4.0551
X3.2008Y-3.8583
X3.2047Y-3.9272
X3.2087Y-4.5276
X3.2087Y-4.6201
X3.2087Y-5.0098
X3.2106Y-4.0157
X3.22Y-5.155
X3.2205Y-4.7913
X3.2264Y-5.0846
X3.2283Y-4.4902
X3.2283Y-5.0453
X3.2441Y-3.8563
X3.2441Y-3.9272
X3.2441Y-4.0157
X3.2539Y-4.8819
X3.2539Y-5.0551
X3.2549Y-4.8228
X3.2638Y-4.0512
X3.265Y-3.63
X3.2677Y-4.4429
X3.2756Y-4.1654
X3.2795Y-4.8661
X3.2835Y-4.0157
X3.2874Y-4.7776
X3.2933Y-4.998
X3.3031Y-4.0512
X3.3071Y-4.8661
X3.313Y-4.5157
X3.32Y-5.155
X3.3228Y-4.0157
X3.3307Y-5.0098
X3.3425Y-4.0512
X3.3425Y-4.6378
X3.3504Y-4.7657
X3.3622Y-4.0157
X3.3819Y-4.0512
X3.3878Y-4.4744
X3.3878Y-4.5217
X3.3898Y-4.6555
X3.3917Y-4.2047
X3.4016Y-4.0157
X3.4055Y-3.8602
X3.4114Y-3.9252
X3.4173Y-4.9213
X3.42Y-5.155
X3.4272Y-4.689
X3.4311Y-4.4508
X3.435Y-4.8875
X3.437Y-4.5276
X3.437Y-4.6201
X3.4606Y-3.9272
X3.4606Y-4.0157
X3.4646Y-4.5276
X3.4646Y-4.6201
X3.465Y-3.63
X3.47Y-5.12
X3.4744Y-3.8681
X3.4744Y-4.689
X3.4823Y-4.4724
X3.5039Y-4.5217
X3.5079Y-3.8917
X3.5098Y-5.0098
X3.5098Y-5.1004
X3.52Y-5.155
X3.5354Y-5.0551
X3.5453Y-3.8583
X3.5453Y-3.9252
X3.5472Y-4.8819
X3.5492Y-4.8228
X3.561Y-4.1673
X3.563Y-4.689
X3.5728Y-4.752
X3.5827Y-4.7913
X3.5827Y-5.0059
X3.5846Y-4.2343
X3.5846Y-4.2736
X3.5846Y-4.3327
X3.5846Y-4.372
X3.5925Y-3.8583
X3.5984Y-3.9272
X3.5984Y-4.0157
X3.6083Y-4.1673
X3.6161Y-4.0728
X3.6161Y-4.1004
X3.6161Y-4.4075
X3.6161Y-4.435
X3.6161Y-4.8819
X3.6161Y-5.0551
X3.6171Y-4.8228
X3.62Y-5.155
X3.6201Y-3.9724
X3.6201Y-4.2539
X3.6201Y-4.2933
X3.6201Y-4.3524
X3.6299Y-3.9409
X3.6417Y-4.7795
X3.6417Y-4.8661
X3.6516Y-4.622
X3.6516Y-4.689
X3.665Y-3.63
X3.6654Y-5.0098
X3.6693Y-4.8661
X3.685Y-4.7657
X3.687Y-4.0098
X3.6875Y-3.8625
X3.689Y-4.6555
X3.6929Y-4.9823
X3.7087Y-4.4075
X3.7087Y-4.435
X3.7106Y-4.0728
X3.7106Y-4.1004
X3.7185Y-5.0098
X3.72Y-5.155
X3.7205Y-4.2638
X3.7264Y-4.7756
X3.7441Y-4.4823
X3.7441Y-4.9803
X3.748Y-4.3602
X3.75Y-3.8878
X3.75Y-3.9803
X3.752Y-4.7461
X3.765Y-3.73
X3.7697Y-5.0098
X3.7776Y-4.3976
X3.7776Y-4.4449
X3.7776Y-4.7776
X3.7953Y-4.9803
X3.8169Y-3.9547
X3.8169Y-4.7756
X3.82Y-5.155
X3.8209Y-4.8661
X3.8209Y-5.0098
X3.8465Y-4.9803
X3.8484Y-4.7106
X3.8642Y-4.8799
X3.865Y-3.63
X3.872Y-5.0098
X3.878Y-4.9469
X3.8976Y-5.0551
X3.9035Y-4.0492
X3.9094Y-4.8819
X3.9114Y-4.8228
X3.92Y-5.155
X3.9449Y-4.7913
X3.9449Y-4.9154
X3.9528Y-4.0787
X3.9587Y-5.0295
X3.9665Y-4.0256
X3.97Y-5.1475
X3.9783Y-4.8819
X3.9783Y-5.0551
X3.9793Y-4.8228
X3.9975Y-3.9975
X4.0039Y-4.7795
X4.0039Y-4.8661
X4.02Y-5.155
X4.0295Y-5.0098
X4.0315Y-4.0453
X4.0315Y-4.7795
X4.0315Y-4.8661
X4.0551Y-4.9803
X4.0807Y-5.0098
X4.0866Y-3.8799
X4.1063Y-4.9803
X4.1181Y-4.1831
X4.12Y-5.155
X4.126Y-4.5256
X4.128Y-3.9272
X4.1319Y-5.0098
X4.1378Y-4.2933
X4.1575Y-4.9803
X4.1673Y-4.5728
X4.17Y-5.125
X4.1831Y-5.0098
X4.1978Y-4.1171
X4.2Y-3.755
X4.205Y-5.155
X4.2185Y-4.6654
X4.219Y-5.113
X4.2343Y-5.0118
X4.2618Y-4.7205
X4.2638Y-4.7717
X4.2972Y-4.8071
X4.305Y-3.86
X4.3327Y-4.7205
X4.3327Y-4.7677
X4.3346Y-4.9764
X4.41Y-3.975
X4.41Y-4.235
X4.41Y-4.435
X4.41Y-4.635
X4.41Y-5.035
T2
X4.2067Y-4.5236
X4.3445Y-4.2047
T3
X3.9488Y-4.1791
X3.9488Y-4.2776
X3.9488Y-4.3366
X3.9488Y-4.3957
X3.9488Y-4.4547
X3.9488Y-4.5138
X3.9488Y-4.5728
X4.0276Y-4.5728
X4.1063Y-4.5728
X4.2323Y-4.1555
X4.2776Y-4.1024
X4.3346Y-4.5728
X4.3445Y-4.1024
X4.3917Y-4.1555
T4
X2.27Y-5.14
X2.37Y-5.14
X4.0276Y-4.2579
X4.0276Y-4.4941
X4.1004Y-4.376
X4.1949Y-4.376
X4.1969Y-4.2854
X4.1969Y-4.4665
X4.27Y-5.14
X4.2776Y-4.2185
X4.3484Y-4.2854
X4.3484Y-4.4665
X4.3563Y-4.376
T5
X4.37Y-5.125
T6
X3.9677Y-3.8867
X4.1516Y-4.1271
X4.2081Y-4.0705
T7
X1.91Y-3.69
X1.91Y-5.1
X4.05Y-3.69
X4.39Y-4.535
T8
X3.897Y-3.9574
X4.0384Y-3.8159
X4.0561Y-4.1165
X4.1975Y-3.975
T0
M30
