G04 #@! TF.GenerationSoftware,KiCad,Pcbnew,7.0.10*
G04 #@! TF.CreationDate,2024-04-24T05:33:25-04:00*
G04 #@! TF.ProjectId,RAM2GS,52414d32-4753-42e6-9b69-6361645f7063,2.2*
G04 #@! TF.SameCoordinates,Original*
G04 #@! TF.FileFunction,Paste,Top*
G04 #@! TF.FilePolarity,Positive*
%FSLAX46Y46*%
G04 Gerber Fmt 4.6, Leading zero omitted, Abs format (unit mm)*
G04 Created by KiCad (PCBNEW 7.0.10) date 2024-04-24 05:33:25*
%MOMM*%
%LPD*%
G01*
G04 APERTURE LIST*
G04 Aperture macros list*
%AMRoundRect*
0 Rectangle with rounded corners*
0 $1 Rounding radius*
0 $2 $3 $4 $5 $6 $7 $8 $9 X,Y pos of 4 corners*
0 Add a 4 corners polygon primitive as box body*
4,1,4,$2,$3,$4,$5,$6,$7,$8,$9,$2,$3,0*
0 Add four circle primitives for the rounded corners*
1,1,$1+$1,$2,$3*
1,1,$1+$1,$4,$5*
1,1,$1+$1,$6,$7*
1,1,$1+$1,$8,$9*
0 Add four rect primitives between the rounded corners*
20,1,$1+$1,$2,$3,$4,$5,0*
20,1,$1+$1,$4,$5,$6,$7,0*
20,1,$1+$1,$6,$7,$8,$9,0*
20,1,$1+$1,$8,$9,$2,$3,0*%
G04 Aperture macros list end*
%ADD10RoundRect,0.192500X0.242500X-0.192500X0.242500X0.192500X-0.242500X0.192500X-0.242500X-0.192500X0*%
%ADD11RoundRect,0.192500X-0.192500X-0.242500X0.192500X-0.242500X0.192500X0.242500X-0.192500X0.242500X0*%
%ADD12RoundRect,0.192500X-0.242500X0.192500X-0.242500X-0.192500X0.242500X-0.192500X0.242500X0.192500X0*%
%ADD13RoundRect,0.092500X0.092500X-0.592500X0.092500X0.592500X-0.092500X0.592500X-0.092500X-0.592500X0*%
%ADD14RoundRect,0.250000X0.250000X0.425000X-0.250000X0.425000X-0.250000X-0.425000X0.250000X-0.425000X0*%
%ADD15RoundRect,0.250000X-0.250000X-0.425000X0.250000X-0.425000X0.250000X0.425000X-0.250000X0.425000X0*%
%ADD16RoundRect,0.280000X0.670000X0.420000X-0.670000X0.420000X-0.670000X-0.420000X0.670000X-0.420000X0*%
%ADD17RoundRect,0.285000X0.665000X1.565000X-0.665000X1.565000X-0.665000X-1.565000X0.665000X-1.565000X0*%
%ADD18RoundRect,0.080000X-0.380000X-0.080000X0.380000X-0.080000X0.380000X0.080000X-0.380000X0.080000X0*%
%ADD19RoundRect,0.099500X-0.625500X-0.099500X0.625500X-0.099500X0.625500X0.099500X-0.625500X0.099500X0*%
%ADD20RoundRect,0.288570X-0.773330X-0.673330X0.773330X-0.673330X0.773330X0.673330X-0.773330X0.673330X0*%
%ADD21RoundRect,0.080000X0.380000X0.080000X-0.380000X0.080000X-0.380000X-0.080000X0.380000X-0.080000X0*%
%ADD22RoundRect,0.192500X0.192500X0.242500X-0.192500X0.242500X-0.192500X-0.242500X0.192500X-0.242500X0*%
%ADD23RoundRect,0.057500X0.645000X0.057500X-0.645000X0.057500X-0.645000X-0.057500X0.645000X-0.057500X0*%
%ADD24RoundRect,0.057500X0.057500X0.645000X-0.057500X0.645000X-0.057500X-0.645000X0.057500X-0.645000X0*%
%ADD25RoundRect,0.137500X0.137500X-0.487500X0.137500X0.487500X-0.137500X0.487500X-0.137500X-0.487500X0*%
%ADD26RoundRect,0.200000X0.200000X0.475000X-0.200000X0.475000X-0.200000X-0.475000X0.200000X-0.475000X0*%
%ADD27RoundRect,0.150000X0.275000X-0.150000X0.275000X0.150000X-0.275000X0.150000X-0.275000X-0.150000X0*%
%ADD28RoundRect,0.150000X0.150000X0.275000X-0.150000X0.275000X-0.150000X-0.275000X0.150000X-0.275000X0*%
%ADD29RoundRect,0.150000X-0.150000X-0.275000X0.150000X-0.275000X0.150000X0.275000X-0.150000X0.275000X0*%
%ADD30RoundRect,0.200000X-0.200000X-0.475000X0.200000X-0.475000X0.200000X0.475000X-0.200000X0.475000X0*%
%ADD31RoundRect,0.224700X0.224700X0.437200X-0.224700X0.437200X-0.224700X-0.437200X0.224700X-0.437200X0*%
%ADD32RoundRect,0.150000X-0.275000X0.150000X-0.275000X-0.150000X0.275000X-0.150000X0.275000X0.150000X0*%
%ADD33RoundRect,0.150000X-0.088388X0.300520X-0.300520X0.088388X0.088388X-0.300520X0.300520X-0.088388X0*%
%ADD34RoundRect,0.150000X0.088388X-0.300520X0.300520X-0.088388X-0.088388X0.300520X-0.300520X0.088388X0*%
%ADD35RoundRect,0.192500X0.035355X-0.307591X0.307591X-0.035355X-0.035355X0.307591X-0.307591X0.035355X0*%
G04 APERTURE END LIST*
D10*
X51350000Y-107650000D03*
X51350000Y-106150000D03*
X51350000Y-102850000D03*
X51350000Y-101350000D03*
D11*
X53400000Y-99350000D03*
X54900000Y-99350000D03*
X63400000Y-123950000D03*
X64900000Y-123950000D03*
X63400000Y-99350000D03*
X64900000Y-99350000D03*
D12*
X66950000Y-110050000D03*
X66950000Y-111550000D03*
X66950000Y-105250000D03*
X66950000Y-106750000D03*
D10*
X51350000Y-111650000D03*
X51350000Y-110150000D03*
D11*
X53400000Y-123950000D03*
X54900000Y-123950000D03*
D12*
X100200000Y-122500000D03*
X100200000Y-124000000D03*
D13*
X92500000Y-128400000D03*
X93150000Y-128400000D03*
X93800000Y-128400000D03*
X94450000Y-128400000D03*
X95100000Y-128400000D03*
X95750000Y-128400000D03*
X96400000Y-128400000D03*
X97050000Y-128400000D03*
X97700000Y-128400000D03*
X98350000Y-128400000D03*
X98350000Y-122500000D03*
X97700000Y-122500000D03*
X97050000Y-122500000D03*
X96400000Y-122500000D03*
X95750000Y-122500000D03*
X95100000Y-122500000D03*
X94450000Y-122500000D03*
X93800000Y-122500000D03*
X93150000Y-122500000D03*
X92500000Y-122500000D03*
D12*
X91000000Y-122500000D03*
X91000000Y-124000000D03*
X81800000Y-122500000D03*
X81800000Y-124000000D03*
D13*
X101700000Y-128400000D03*
X102350000Y-128400000D03*
X103000000Y-128400000D03*
X103650000Y-128400000D03*
X104300000Y-128400000D03*
X104950000Y-128400000D03*
X105600000Y-128400000D03*
X106250000Y-128400000D03*
X106900000Y-128400000D03*
X107550000Y-128400000D03*
X107550000Y-122500000D03*
X106900000Y-122500000D03*
X106250000Y-122500000D03*
X105600000Y-122500000D03*
X104950000Y-122500000D03*
X104300000Y-122500000D03*
X103650000Y-122500000D03*
X103000000Y-122500000D03*
X102350000Y-122500000D03*
X101700000Y-122500000D03*
D12*
X72600000Y-122500000D03*
X72600000Y-124000000D03*
D13*
X83300000Y-128400000D03*
X83950000Y-128400000D03*
X84600000Y-128400000D03*
X85250000Y-128400000D03*
X85900000Y-128400000D03*
X86550000Y-128400000D03*
X87200000Y-128400000D03*
X87850000Y-128400000D03*
X88500000Y-128400000D03*
X89150000Y-128400000D03*
X89150000Y-122500000D03*
X88500000Y-122500000D03*
X87850000Y-122500000D03*
X87200000Y-122500000D03*
X86550000Y-122500000D03*
X85900000Y-122500000D03*
X85250000Y-122500000D03*
X84600000Y-122500000D03*
X83950000Y-122500000D03*
X83300000Y-122500000D03*
D14*
X59778000Y-128778000D03*
X58078000Y-128778000D03*
D15*
X109132000Y-127889000D03*
X110832000Y-127889000D03*
D16*
X108537000Y-113450000D03*
D17*
X102237000Y-111150000D03*
D16*
X108537000Y-111150000D03*
X108537000Y-108850000D03*
D15*
X108650000Y-105550000D03*
X110350000Y-105550000D03*
X106850000Y-116150000D03*
X108550000Y-116150000D03*
D18*
X69050000Y-122500000D03*
X69050000Y-123150000D03*
X69050000Y-123800000D03*
X70750000Y-123800000D03*
X70750000Y-122500000D03*
D13*
X74100000Y-128400000D03*
X74750000Y-128400000D03*
X75400000Y-128400000D03*
X76050000Y-128400000D03*
X76700000Y-128400000D03*
X77350000Y-128400000D03*
X78000000Y-128400000D03*
X78650000Y-128400000D03*
X79300000Y-128400000D03*
X79950000Y-128400000D03*
X79950000Y-122500000D03*
X79300000Y-122500000D03*
X78650000Y-122500000D03*
X78000000Y-122500000D03*
X77350000Y-122500000D03*
X76700000Y-122500000D03*
X76050000Y-122500000D03*
X75400000Y-122500000D03*
X74750000Y-122500000D03*
X74100000Y-122500000D03*
D19*
X53400000Y-101250000D03*
X53400000Y-102050000D03*
X53400000Y-102850000D03*
X53400000Y-103650000D03*
X53400000Y-104450000D03*
X53400000Y-105250000D03*
X53400000Y-106050000D03*
X53400000Y-106850000D03*
X53400000Y-107650000D03*
X53400000Y-108450000D03*
X53400000Y-109250000D03*
X53400000Y-110050000D03*
X53400000Y-110850000D03*
X53400000Y-111650000D03*
X53400000Y-112450000D03*
X53400000Y-113250000D03*
X53400000Y-114050000D03*
X53400000Y-114850000D03*
X53400000Y-115650000D03*
X53400000Y-116450000D03*
X53400000Y-117250000D03*
X53400000Y-118050000D03*
X53400000Y-118850000D03*
X53400000Y-119650000D03*
X53400000Y-120450000D03*
X53400000Y-121250000D03*
X53400000Y-122050000D03*
X64900000Y-122050000D03*
X64900000Y-121250000D03*
X64900000Y-120450000D03*
X64900000Y-119650000D03*
X64900000Y-118850000D03*
X64900000Y-118050000D03*
X64900000Y-117250000D03*
X64900000Y-116450000D03*
X64900000Y-115650000D03*
X64900000Y-114850000D03*
X64900000Y-114050000D03*
X64900000Y-113250000D03*
X64900000Y-112450000D03*
X64900000Y-111650000D03*
X64900000Y-110850000D03*
X64900000Y-110050000D03*
X64900000Y-109250000D03*
X64900000Y-108450000D03*
X64900000Y-107650000D03*
X64900000Y-106850000D03*
X64900000Y-106050000D03*
X64900000Y-105250000D03*
X64900000Y-104450000D03*
X64900000Y-103650000D03*
X64900000Y-102850000D03*
X64900000Y-102050000D03*
X64900000Y-101250000D03*
D20*
X69560000Y-117205000D03*
X74640000Y-117205000D03*
X74640000Y-113395000D03*
X69560000Y-113395000D03*
D21*
X72950000Y-111150000D03*
X72950000Y-110500000D03*
X72950000Y-109850000D03*
X71250000Y-109850000D03*
X71250000Y-111150000D03*
D10*
X69500000Y-111150000D03*
X69500000Y-109650000D03*
D15*
X58300000Y-124250000D03*
X60000000Y-124250000D03*
D22*
X70750000Y-121050000D03*
X69250000Y-121050000D03*
D23*
X93062500Y-114550000D03*
X93062500Y-114050000D03*
X93062500Y-113550000D03*
X93062500Y-113050000D03*
X93062500Y-112550000D03*
X93062500Y-112050000D03*
X93062500Y-111550000D03*
X93062500Y-111050000D03*
X93062500Y-110550000D03*
X93062500Y-110050000D03*
X93062500Y-109550000D03*
X93062500Y-109050000D03*
X93062500Y-108550000D03*
X93062500Y-108050000D03*
X93062500Y-107550000D03*
X93062500Y-107050000D03*
X93062500Y-106550000D03*
X93062500Y-106050000D03*
X93062500Y-105550000D03*
X93062500Y-105050000D03*
X93062500Y-104550000D03*
X93062500Y-104050000D03*
X93062500Y-103550000D03*
X93062500Y-103050000D03*
X93062500Y-102550000D03*
D24*
X91400000Y-100887500D03*
X90900000Y-100887500D03*
X90400000Y-100887500D03*
X89900000Y-100887500D03*
X89400000Y-100887500D03*
X88900000Y-100887500D03*
X88400000Y-100887500D03*
X87900000Y-100887500D03*
X87400000Y-100887500D03*
X86900000Y-100887500D03*
X86400000Y-100887500D03*
X85900000Y-100887500D03*
X85400000Y-100887500D03*
X84900000Y-100887500D03*
X84400000Y-100887500D03*
X83900000Y-100887500D03*
X83400000Y-100887500D03*
X82900000Y-100887500D03*
X82400000Y-100887500D03*
X81900000Y-100887500D03*
X81400000Y-100887500D03*
X80900000Y-100887500D03*
X80400000Y-100887500D03*
X79900000Y-100887500D03*
X79400000Y-100887500D03*
D23*
X77737500Y-102550000D03*
X77737500Y-103050000D03*
X77737500Y-103550000D03*
X77737500Y-104050000D03*
X77737500Y-104550000D03*
X77737500Y-105050000D03*
X77737500Y-105550000D03*
X77737500Y-106050000D03*
X77737500Y-106550000D03*
X77737500Y-107050000D03*
X77737500Y-107550000D03*
X77737500Y-108050000D03*
X77737500Y-108550000D03*
X77737500Y-109050000D03*
X77737500Y-109550000D03*
X77737500Y-110050000D03*
X77737500Y-110550000D03*
X77737500Y-111050000D03*
X77737500Y-111550000D03*
X77737500Y-112050000D03*
X77737500Y-112550000D03*
X77737500Y-113050000D03*
X77737500Y-113550000D03*
X77737500Y-114050000D03*
X77737500Y-114550000D03*
D24*
X79400000Y-116212500D03*
X79900000Y-116212500D03*
X80400000Y-116212500D03*
X80900000Y-116212500D03*
X81400000Y-116212500D03*
X81900000Y-116212500D03*
X82400000Y-116212500D03*
X82900000Y-116212500D03*
X83400000Y-116212500D03*
X83900000Y-116212500D03*
X84400000Y-116212500D03*
X84900000Y-116212500D03*
X85400000Y-116212500D03*
X85900000Y-116212500D03*
X86400000Y-116212500D03*
X86900000Y-116212500D03*
X87400000Y-116212500D03*
X87900000Y-116212500D03*
X88400000Y-116212500D03*
X88900000Y-116212500D03*
X89400000Y-116212500D03*
X89900000Y-116212500D03*
X90400000Y-116212500D03*
X90900000Y-116212500D03*
X91400000Y-116212500D03*
D22*
X81900000Y-118250000D03*
X80400000Y-118250000D03*
X91400000Y-98850000D03*
X89900000Y-98850000D03*
X88400000Y-118250000D03*
X86900000Y-118250000D03*
D11*
X81150000Y-98850000D03*
X82650000Y-98850000D03*
D22*
X79400000Y-98850000D03*
X77900000Y-98850000D03*
D12*
X75700000Y-104050000D03*
X75700000Y-105550000D03*
D11*
X91400000Y-118250000D03*
X92900000Y-118250000D03*
D10*
X95100000Y-113050000D03*
X95100000Y-111550000D03*
D25*
X109150000Y-125300000D03*
X110100000Y-125300000D03*
X111050000Y-125300000D03*
X111050000Y-123200000D03*
X109150000Y-123200000D03*
D10*
X109150000Y-121250000D03*
X109150000Y-119750000D03*
D26*
X100950000Y-120500000D03*
X99050000Y-120500000D03*
D27*
X77950000Y-119800000D03*
X77950000Y-118200000D03*
D28*
X71250000Y-107950000D03*
X69650000Y-107950000D03*
D29*
X72450000Y-107950000D03*
X74050000Y-107950000D03*
D30*
X70350000Y-104600000D03*
X72250000Y-104600000D03*
D31*
X72237500Y-102650000D03*
X70362500Y-102650000D03*
D32*
X96750000Y-115050000D03*
X96750000Y-116650000D03*
D33*
X97565685Y-102384315D03*
X96434315Y-103515685D03*
D34*
X98534315Y-105615685D03*
X99665685Y-104484315D03*
D35*
X97519670Y-104530330D03*
X98580330Y-103469670D03*
D34*
X97284315Y-98765685D03*
X98415685Y-97634315D03*
D28*
X73600000Y-119650000D03*
X72000000Y-119650000D03*
D29*
X74800000Y-119650000D03*
X76400000Y-119650000D03*
D32*
X75200000Y-109700000D03*
X75200000Y-111300000D03*
D29*
X72450000Y-106450000D03*
X74050000Y-106450000D03*
M02*
