G04 #@! TF.GenerationSoftware,KiCad,Pcbnew,7.0.1-0*
G04 #@! TF.CreationDate,2023-11-03T04:24:27-04:00*
G04 #@! TF.ProjectId,RAM2GS,52414d32-4753-42e6-9b69-6361645f7063,2.1*
G04 #@! TF.SameCoordinates,Original*
G04 #@! TF.FileFunction,Soldermask,Bot*
G04 #@! TF.FilePolarity,Negative*
%FSLAX46Y46*%
G04 Gerber Fmt 4.6, Leading zero omitted, Abs format (unit mm)*
G04 Created by KiCad (PCBNEW 7.0.1-0) date 2023-11-03 04:24:27*
%MOMM*%
%LPD*%
G01*
G04 APERTURE LIST*
G04 Aperture macros list*
%AMRoundRect*
0 Rectangle with rounded corners*
0 $1 Rounding radius*
0 $2 $3 $4 $5 $6 $7 $8 $9 X,Y pos of 4 corners*
0 Add a 4 corners polygon primitive as box body*
4,1,4,$2,$3,$4,$5,$6,$7,$8,$9,$2,$3,0*
0 Add four circle primitives for the rounded corners*
1,1,$1+$1,$2,$3*
1,1,$1+$1,$4,$5*
1,1,$1+$1,$6,$7*
1,1,$1+$1,$8,$9*
0 Add four rect primitives between the rounded corners*
20,1,$1+$1,$2,$3,$4,$5,0*
20,1,$1+$1,$4,$5,$6,$7,0*
20,1,$1+$1,$6,$7,$8,$9,0*
20,1,$1+$1,$8,$9,$2,$3,0*%
G04 Aperture macros list end*
%ADD10C,0.000000*%
%ADD11RoundRect,0.457200X-0.381000X-3.289000X0.381000X-3.289000X0.381000X3.289000X-0.381000X3.289000X0*%
%ADD12C,2.152400*%
%ADD13C,2.527300*%
%ADD14C,1.143000*%
%ADD15C,1.448000*%
G04 APERTURE END LIST*
D10*
G36*
X113538000Y-139446000D02*
G01*
X113030000Y-139954000D01*
X55626000Y-139954000D01*
X55118000Y-139446000D01*
X55118000Y-132080000D01*
X113538000Y-132080000D01*
X113538000Y-139446000D01*
G37*
D11*
X110998000Y-135282000D03*
X108458000Y-135282000D03*
X105918000Y-135282000D03*
X103378000Y-135282000D03*
X100838000Y-135282000D03*
X98298000Y-135282000D03*
X95758000Y-135282000D03*
X93218000Y-135282000D03*
X90678000Y-135282000D03*
X88138000Y-135282000D03*
X85598000Y-135282000D03*
X83058000Y-135282000D03*
X80518000Y-135282000D03*
X77978000Y-135282000D03*
X75438000Y-135282000D03*
X72898000Y-135282000D03*
X70358000Y-135282000D03*
X67818000Y-135282000D03*
X65278000Y-135282000D03*
X62738000Y-135282000D03*
X60198000Y-135282000D03*
X57658000Y-135282000D03*
D12*
X110998000Y-130175000D03*
D13*
X102575974Y-96924872D03*
D14*
X100779923Y-98720923D03*
D13*
X98983872Y-100516974D03*
X106617090Y-100965987D03*
X103024987Y-104558090D03*
D14*
X106886497Y-103390656D03*
X105449656Y-104827497D03*
D15*
X48514000Y-93726000D03*
X102870000Y-93726000D03*
X48514000Y-129540000D03*
X111506000Y-115189000D03*
M02*
