G04 #@! TF.GenerationSoftware,KiCad,Pcbnew,7.0.1-0*
G04 #@! TF.CreationDate,2023-11-03T04:24:27-04:00*
G04 #@! TF.ProjectId,RAM2GS,52414d32-4753-42e6-9b69-6361645f7063,2.1*
G04 #@! TF.SameCoordinates,Original*
G04 #@! TF.FileFunction,Legend,Bot*
G04 #@! TF.FilePolarity,Positive*
%FSLAX46Y46*%
G04 Gerber Fmt 4.6, Leading zero omitted, Abs format (unit mm)*
G04 Created by KiCad (PCBNEW 7.0.1-0) date 2023-11-03 04:24:27*
%MOMM*%
%LPD*%
G01*
G04 APERTURE LIST*
G04 Aperture macros list*
%AMRoundRect*
0 Rectangle with rounded corners*
0 $1 Rounding radius*
0 $2 $3 $4 $5 $6 $7 $8 $9 X,Y pos of 4 corners*
0 Add a 4 corners polygon primitive as box body*
4,1,4,$2,$3,$4,$5,$6,$7,$8,$9,$2,$3,0*
0 Add four circle primitives for the rounded corners*
1,1,$1+$1,$2,$3*
1,1,$1+$1,$4,$5*
1,1,$1+$1,$6,$7*
1,1,$1+$1,$8,$9*
0 Add four rect primitives between the rounded corners*
20,1,$1+$1,$2,$3,$4,$5,0*
20,1,$1+$1,$4,$5,$6,$7,0*
20,1,$1+$1,$6,$7,$8,$9,0*
20,1,$1+$1,$8,$9,$2,$3,0*%
G04 Aperture macros list end*
%ADD10C,0.200000*%
%ADD11C,0.203200*%
%ADD12C,0.190500*%
%ADD13C,0.000000*%
%ADD14RoundRect,0.457200X-0.381000X-3.289000X0.381000X-3.289000X0.381000X3.289000X-0.381000X3.289000X0*%
%ADD15C,2.152400*%
%ADD16C,2.527300*%
%ADD17C,1.143000*%
%ADD18C,1.448000*%
G04 APERTURE END LIST*
D10*
X48895000Y-119634000D02*
X47625000Y-119634000D01*
X47625000Y-119634000D02*
X48006000Y-120015000D01*
X47625000Y-119634000D02*
X48006000Y-119253000D01*
X47625000Y-105537000D02*
X48006000Y-105918000D01*
X47625000Y-105537000D02*
X48006000Y-105156000D01*
X48895000Y-105537000D02*
X47625000Y-105537000D01*
X47371000Y-103251000D02*
X49276000Y-102171500D01*
X49276000Y-104330500D02*
X47371000Y-103251000D01*
X49276000Y-102171500D02*
X49276000Y-104330500D01*
X47704526Y-106873524D02*
X47704526Y-107599238D01*
X48974526Y-107236381D02*
X47704526Y-107236381D01*
X48974526Y-108204000D02*
X48914050Y-108083048D01*
X48914050Y-108083048D02*
X48853573Y-108022571D01*
X48853573Y-108022571D02*
X48732621Y-107962095D01*
X48732621Y-107962095D02*
X48369764Y-107962095D01*
X48369764Y-107962095D02*
X48248811Y-108022571D01*
X48248811Y-108022571D02*
X48188335Y-108083048D01*
X48188335Y-108083048D02*
X48127859Y-108204000D01*
X48127859Y-108204000D02*
X48127859Y-108385429D01*
X48127859Y-108385429D02*
X48188335Y-108506381D01*
X48188335Y-108506381D02*
X48248811Y-108566857D01*
X48248811Y-108566857D02*
X48369764Y-108627333D01*
X48369764Y-108627333D02*
X48732621Y-108627333D01*
X48732621Y-108627333D02*
X48853573Y-108566857D01*
X48853573Y-108566857D02*
X48914050Y-108506381D01*
X48914050Y-108506381D02*
X48974526Y-108385429D01*
X48974526Y-108385429D02*
X48974526Y-108204000D01*
X48127859Y-109050667D02*
X48974526Y-109292572D01*
X48974526Y-109292572D02*
X48369764Y-109534477D01*
X48369764Y-109534477D02*
X48974526Y-109776381D01*
X48974526Y-109776381D02*
X48127859Y-110018286D01*
X48974526Y-111046381D02*
X48309288Y-111046381D01*
X48309288Y-111046381D02*
X48188335Y-110985905D01*
X48188335Y-110985905D02*
X48127859Y-110864953D01*
X48127859Y-110864953D02*
X48127859Y-110623048D01*
X48127859Y-110623048D02*
X48188335Y-110502095D01*
X48914050Y-111046381D02*
X48974526Y-110925429D01*
X48974526Y-110925429D02*
X48974526Y-110623048D01*
X48974526Y-110623048D02*
X48914050Y-110502095D01*
X48914050Y-110502095D02*
X48793097Y-110441619D01*
X48793097Y-110441619D02*
X48672145Y-110441619D01*
X48672145Y-110441619D02*
X48551192Y-110502095D01*
X48551192Y-110502095D02*
X48490716Y-110623048D01*
X48490716Y-110623048D02*
X48490716Y-110925429D01*
X48490716Y-110925429D02*
X48430240Y-111046381D01*
X48974526Y-111651143D02*
X48127859Y-111651143D01*
X48369764Y-111651143D02*
X48248811Y-111711620D01*
X48248811Y-111711620D02*
X48188335Y-111772096D01*
X48188335Y-111772096D02*
X48127859Y-111893048D01*
X48127859Y-111893048D02*
X48127859Y-112014001D01*
X48974526Y-112981619D02*
X47704526Y-112981619D01*
X48914050Y-112981619D02*
X48974526Y-112860667D01*
X48974526Y-112860667D02*
X48974526Y-112618762D01*
X48974526Y-112618762D02*
X48914050Y-112497810D01*
X48914050Y-112497810D02*
X48853573Y-112437333D01*
X48853573Y-112437333D02*
X48732621Y-112376857D01*
X48732621Y-112376857D02*
X48369764Y-112376857D01*
X48369764Y-112376857D02*
X48248811Y-112437333D01*
X48248811Y-112437333D02*
X48188335Y-112497810D01*
X48188335Y-112497810D02*
X48127859Y-112618762D01*
X48127859Y-112618762D02*
X48127859Y-112860667D01*
X48127859Y-112860667D02*
X48188335Y-112981619D01*
X48974526Y-115279715D02*
X48369764Y-114856381D01*
X48974526Y-114554000D02*
X47704526Y-114554000D01*
X47704526Y-114554000D02*
X47704526Y-115037810D01*
X47704526Y-115037810D02*
X47765002Y-115158762D01*
X47765002Y-115158762D02*
X47825478Y-115219239D01*
X47825478Y-115219239D02*
X47946430Y-115279715D01*
X47946430Y-115279715D02*
X48127859Y-115279715D01*
X48127859Y-115279715D02*
X48248811Y-115219239D01*
X48248811Y-115219239D02*
X48309288Y-115158762D01*
X48309288Y-115158762D02*
X48369764Y-115037810D01*
X48369764Y-115037810D02*
X48369764Y-114554000D01*
X48914050Y-116307810D02*
X48974526Y-116186858D01*
X48974526Y-116186858D02*
X48974526Y-115944953D01*
X48974526Y-115944953D02*
X48914050Y-115824000D01*
X48914050Y-115824000D02*
X48793097Y-115763524D01*
X48793097Y-115763524D02*
X48309288Y-115763524D01*
X48309288Y-115763524D02*
X48188335Y-115824000D01*
X48188335Y-115824000D02*
X48127859Y-115944953D01*
X48127859Y-115944953D02*
X48127859Y-116186858D01*
X48127859Y-116186858D02*
X48188335Y-116307810D01*
X48188335Y-116307810D02*
X48309288Y-116368286D01*
X48309288Y-116368286D02*
X48430240Y-116368286D01*
X48430240Y-116368286D02*
X48551192Y-115763524D01*
X48974526Y-117456857D02*
X48309288Y-117456857D01*
X48309288Y-117456857D02*
X48188335Y-117396381D01*
X48188335Y-117396381D02*
X48127859Y-117275429D01*
X48127859Y-117275429D02*
X48127859Y-117033524D01*
X48127859Y-117033524D02*
X48188335Y-116912571D01*
X48914050Y-117456857D02*
X48974526Y-117335905D01*
X48974526Y-117335905D02*
X48974526Y-117033524D01*
X48974526Y-117033524D02*
X48914050Y-116912571D01*
X48914050Y-116912571D02*
X48793097Y-116852095D01*
X48793097Y-116852095D02*
X48672145Y-116852095D01*
X48672145Y-116852095D02*
X48551192Y-116912571D01*
X48551192Y-116912571D02*
X48490716Y-117033524D01*
X48490716Y-117033524D02*
X48490716Y-117335905D01*
X48490716Y-117335905D02*
X48430240Y-117456857D01*
X48974526Y-118061619D02*
X48127859Y-118061619D01*
X48369764Y-118061619D02*
X48248811Y-118122096D01*
X48248811Y-118122096D02*
X48188335Y-118182572D01*
X48188335Y-118182572D02*
X48127859Y-118303524D01*
X48127859Y-118303524D02*
X48127859Y-118424477D01*
D11*
X55021237Y-129992216D02*
X54479371Y-129992216D01*
X54479371Y-129992216D02*
X55021237Y-130805016D01*
X55021237Y-130805016D02*
X54479371Y-130805016D01*
X54169733Y-130805016D02*
X54169733Y-129992216D01*
X53705276Y-130805016D02*
X54053618Y-130340559D01*
X53705276Y-129992216D02*
X54169733Y-130456673D01*
X53318228Y-130766312D02*
X53318228Y-130805016D01*
X53318228Y-130805016D02*
X53356933Y-130882426D01*
X53356933Y-130882426D02*
X53395637Y-130921131D01*
X51924856Y-130030921D02*
X52002266Y-129992216D01*
X52002266Y-129992216D02*
X52118380Y-129992216D01*
X52118380Y-129992216D02*
X52234494Y-130030921D01*
X52234494Y-130030921D02*
X52311904Y-130108331D01*
X52311904Y-130108331D02*
X52350609Y-130185740D01*
X52350609Y-130185740D02*
X52389313Y-130340559D01*
X52389313Y-130340559D02*
X52389313Y-130456673D01*
X52389313Y-130456673D02*
X52350609Y-130611492D01*
X52350609Y-130611492D02*
X52311904Y-130688902D01*
X52311904Y-130688902D02*
X52234494Y-130766312D01*
X52234494Y-130766312D02*
X52118380Y-130805016D01*
X52118380Y-130805016D02*
X52040971Y-130805016D01*
X52040971Y-130805016D02*
X51924856Y-130766312D01*
X51924856Y-130766312D02*
X51886152Y-130727607D01*
X51886152Y-130727607D02*
X51886152Y-130456673D01*
X51886152Y-130456673D02*
X52040971Y-130456673D01*
X51266875Y-130379264D02*
X51537809Y-130379264D01*
X51537809Y-130805016D02*
X51537809Y-129992216D01*
X51537809Y-129992216D02*
X51150761Y-129992216D01*
X104771371Y-130551016D02*
X104771371Y-129738216D01*
X104771371Y-129738216D02*
X104577847Y-129738216D01*
X104577847Y-129738216D02*
X104461733Y-129776921D01*
X104461733Y-129776921D02*
X104384323Y-129854331D01*
X104384323Y-129854331D02*
X104345618Y-129931740D01*
X104345618Y-129931740D02*
X104306914Y-130086559D01*
X104306914Y-130086559D02*
X104306914Y-130202673D01*
X104306914Y-130202673D02*
X104345618Y-130357492D01*
X104345618Y-130357492D02*
X104384323Y-130434902D01*
X104384323Y-130434902D02*
X104461733Y-130512312D01*
X104461733Y-130512312D02*
X104577847Y-130551016D01*
X104577847Y-130551016D02*
X104771371Y-130551016D01*
X103997275Y-129815626D02*
X103958571Y-129776921D01*
X103958571Y-129776921D02*
X103881161Y-129738216D01*
X103881161Y-129738216D02*
X103687637Y-129738216D01*
X103687637Y-129738216D02*
X103610228Y-129776921D01*
X103610228Y-129776921D02*
X103571523Y-129815626D01*
X103571523Y-129815626D02*
X103532818Y-129893035D01*
X103532818Y-129893035D02*
X103532818Y-129970445D01*
X103532818Y-129970445D02*
X103571523Y-130086559D01*
X103571523Y-130086559D02*
X104035980Y-130551016D01*
X104035980Y-130551016D02*
X103532818Y-130551016D01*
X102758723Y-130551016D02*
X103223180Y-130551016D01*
X102990952Y-130551016D02*
X102990952Y-129738216D01*
X102990952Y-129738216D02*
X103068361Y-129854331D01*
X103068361Y-129854331D02*
X103145771Y-129931740D01*
X103145771Y-129931740D02*
X103223180Y-129970445D01*
X101945924Y-130473607D02*
X101984628Y-130512312D01*
X101984628Y-130512312D02*
X102100743Y-130551016D01*
X102100743Y-130551016D02*
X102178152Y-130551016D01*
X102178152Y-130551016D02*
X102294266Y-130512312D01*
X102294266Y-130512312D02*
X102371676Y-130434902D01*
X102371676Y-130434902D02*
X102410381Y-130357492D01*
X102410381Y-130357492D02*
X102449085Y-130202673D01*
X102449085Y-130202673D02*
X102449085Y-130086559D01*
X102449085Y-130086559D02*
X102410381Y-129931740D01*
X102410381Y-129931740D02*
X102371676Y-129854331D01*
X102371676Y-129854331D02*
X102294266Y-129776921D01*
X102294266Y-129776921D02*
X102178152Y-129738216D01*
X102178152Y-129738216D02*
X102100743Y-129738216D01*
X102100743Y-129738216D02*
X101984628Y-129776921D01*
X101984628Y-129776921D02*
X101945924Y-129815626D01*
D12*
X48876107Y-103250999D02*
X48914812Y-103289704D01*
X48914812Y-103289704D02*
X48953516Y-103250999D01*
X48953516Y-103250999D02*
X48914812Y-103212295D01*
X48914812Y-103212295D02*
X48876107Y-103250999D01*
X48876107Y-103250999D02*
X48953516Y-103250999D01*
X48643878Y-103250999D02*
X48179421Y-103212295D01*
X48179421Y-103212295D02*
X48140716Y-103250999D01*
X48140716Y-103250999D02*
X48179421Y-103289704D01*
X48179421Y-103289704D02*
X48643878Y-103250999D01*
X48643878Y-103250999D02*
X48140716Y-103250999D01*
%LPC*%
D13*
G36*
X113538000Y-139446000D02*
G01*
X113030000Y-139954000D01*
X55626000Y-139954000D01*
X55118000Y-139446000D01*
X55118000Y-132080000D01*
X113538000Y-132080000D01*
X113538000Y-139446000D01*
G37*
D14*
X110998000Y-135282000D03*
X108458000Y-135282000D03*
X105918000Y-135282000D03*
X103378000Y-135282000D03*
X100838000Y-135282000D03*
X98298000Y-135282000D03*
X95758000Y-135282000D03*
X93218000Y-135282000D03*
X90678000Y-135282000D03*
X88138000Y-135282000D03*
X85598000Y-135282000D03*
X83058000Y-135282000D03*
X80518000Y-135282000D03*
X77978000Y-135282000D03*
X75438000Y-135282000D03*
X72898000Y-135282000D03*
X70358000Y-135282000D03*
X67818000Y-135282000D03*
X65278000Y-135282000D03*
X62738000Y-135282000D03*
X60198000Y-135282000D03*
X57658000Y-135282000D03*
D15*
X110998000Y-130175000D03*
D16*
X102575974Y-96924872D03*
D17*
X100779923Y-98720923D03*
D16*
X98983872Y-100516974D03*
X106617090Y-100965987D03*
X103024987Y-104558090D03*
D17*
X106886497Y-103390656D03*
X105449656Y-104827497D03*
D18*
X48514000Y-93726000D03*
X102870000Y-93726000D03*
X48514000Y-129540000D03*
X111506000Y-115189000D03*
M02*
