G04 #@! TF.GenerationSoftware,KiCad,Pcbnew,(5.1.10-1-10_14)*
G04 #@! TF.CreationDate,2021-05-31T20:01:23-04:00*
G04 #@! TF.ProjectId,RAM2GS,52414d32-4753-42e6-9b69-6361645f7063,2.0*
G04 #@! TF.SameCoordinates,Original*
G04 #@! TF.FileFunction,Other,Fab,Top*
%FSLAX46Y46*%
G04 Gerber Fmt 4.6, Leading zero omitted, Abs format (unit mm)*
G04 Created by KiCad (PCBNEW (5.1.10-1-10_14)) date 2021-05-31 20:01:23*
%MOMM*%
%LPD*%
G01*
G04 APERTURE LIST*
%ADD10C,0.100000*%
%ADD11C,0.150000*%
%ADD12C,0.127000*%
%ADD13C,0.063500*%
%ADD14C,0.031750*%
%ADD15C,0.203200*%
%ADD16C,0.095250*%
%ADD17C,0.047625*%
G04 APERTURE END LIST*
D10*
X74800000Y-120050000D02*
X74800000Y-119250000D01*
X74800000Y-119250000D02*
X76400000Y-119250000D01*
X76400000Y-119250000D02*
X76400000Y-120050000D01*
X76400000Y-120050000D02*
X74800000Y-120050000D01*
D11*
X102375000Y-127650000D02*
X101375000Y-126650000D01*
X107875000Y-127650000D02*
X102375000Y-127650000D01*
X107875000Y-123250000D02*
X107875000Y-127650000D01*
X101375000Y-123250000D02*
X107875000Y-123250000D01*
X101375000Y-126650000D02*
X101375000Y-123250000D01*
D10*
X55070000Y-100540000D02*
X64230000Y-100540000D01*
X64230000Y-100540000D02*
X64230000Y-122760000D01*
X64230000Y-122760000D02*
X54070000Y-122760000D01*
X54070000Y-122760000D02*
X54070000Y-101540000D01*
X55070000Y-100540000D02*
X54070000Y-101540000D01*
X70800000Y-120650000D02*
X70800000Y-121450000D01*
X70800000Y-121450000D02*
X69200000Y-121450000D01*
X69200000Y-121450000D02*
X69200000Y-120650000D01*
X69200000Y-120650000D02*
X70800000Y-120650000D01*
X69900000Y-111200000D02*
X69100000Y-111200000D01*
X69100000Y-111200000D02*
X69100000Y-109600000D01*
X69100000Y-109600000D02*
X69900000Y-109600000D01*
X69900000Y-109600000D02*
X69900000Y-111200000D01*
X91400000Y-115550000D02*
X78400000Y-115550000D01*
X78400000Y-115550000D02*
X78400000Y-101550000D01*
X78400000Y-101550000D02*
X92400000Y-101550000D01*
X92400000Y-101550000D02*
X92400000Y-114550000D01*
X92400000Y-114550000D02*
X91400000Y-115550000D01*
X73600000Y-119250000D02*
X73600000Y-120050000D01*
X73600000Y-120050000D02*
X72000000Y-120050000D01*
X72000000Y-120050000D02*
X72000000Y-119250000D01*
X72000000Y-119250000D02*
X73600000Y-119250000D01*
X70300000Y-102050000D02*
X70300000Y-103250000D01*
X72300000Y-102050000D02*
X70300000Y-102050000D01*
X72300000Y-102950000D02*
X72300000Y-102050000D01*
X72000000Y-103250000D02*
X72300000Y-102950000D01*
X70300000Y-103250000D02*
X72000000Y-103250000D01*
X72300000Y-105225000D02*
X70300000Y-105225000D01*
X72300000Y-103975000D02*
X72300000Y-105225000D01*
X70300000Y-103975000D02*
X72300000Y-103975000D01*
X70300000Y-105225000D02*
X70300000Y-103975000D01*
X72450000Y-108350000D02*
X72450000Y-107550000D01*
X72450000Y-107550000D02*
X74050000Y-107550000D01*
X74050000Y-107550000D02*
X74050000Y-108350000D01*
X74050000Y-108350000D02*
X72450000Y-108350000D01*
X69650000Y-107550000D02*
X71250000Y-107550000D01*
X69650000Y-108350000D02*
X69650000Y-107550000D01*
X71250000Y-108350000D02*
X69650000Y-108350000D01*
X71250000Y-107550000D02*
X71250000Y-108350000D01*
X78350000Y-119800000D02*
X77550000Y-119800000D01*
X77550000Y-119800000D02*
X77550000Y-118200000D01*
X77550000Y-118200000D02*
X78350000Y-118200000D01*
X78350000Y-118200000D02*
X78350000Y-119800000D01*
X103537000Y-114500000D02*
X103537000Y-107800000D01*
X107237000Y-107800000D02*
X103537000Y-107800000D01*
X106237000Y-114500000D02*
X103537000Y-114500000D01*
X107237000Y-113500000D02*
X107237000Y-107800000D01*
X107237000Y-113500000D02*
X106237000Y-114500000D01*
X68600000Y-116800000D02*
X69600000Y-117800000D01*
X68600000Y-117800000D02*
X68600000Y-112800000D01*
X75600000Y-117800000D02*
X68600000Y-117800000D01*
X75600000Y-112800000D02*
X75600000Y-117800000D01*
X68600000Y-112800000D02*
X75600000Y-112800000D01*
X49514000Y-129540000D02*
G75*
G03*
X49514000Y-129540000I-1000000J0D01*
G01*
X49514000Y-123952000D02*
G75*
G03*
X49514000Y-123952000I-1000000J0D01*
G01*
D11*
X74775000Y-127650000D02*
X73775000Y-126650000D01*
X80275000Y-127650000D02*
X74775000Y-127650000D01*
X80275000Y-123250000D02*
X80275000Y-127650000D01*
X73775000Y-123250000D02*
X80275000Y-123250000D01*
X73775000Y-126650000D02*
X73775000Y-123250000D01*
D10*
X71430000Y-111600000D02*
X72280000Y-111600000D01*
X72780000Y-111100000D02*
X72780000Y-109400000D01*
X71430000Y-111600000D02*
X71430000Y-109400000D01*
X71430000Y-109400000D02*
X72780000Y-109400000D01*
X72280000Y-111600000D02*
X72780000Y-111100000D01*
X70570000Y-122050000D02*
X69720000Y-122050000D01*
X69220000Y-122550000D02*
X69220000Y-124250000D01*
X70570000Y-122050000D02*
X70570000Y-124250000D01*
X70570000Y-124250000D02*
X69220000Y-124250000D01*
X69720000Y-122050000D02*
X69220000Y-122550000D01*
D11*
X93175000Y-127650000D02*
X92175000Y-126650000D01*
X98675000Y-127650000D02*
X93175000Y-127650000D01*
X98675000Y-123250000D02*
X98675000Y-127650000D01*
X92175000Y-123250000D02*
X98675000Y-123250000D01*
X92175000Y-126650000D02*
X92175000Y-123250000D01*
X83975000Y-127650000D02*
X82975000Y-126650000D01*
X89475000Y-127650000D02*
X83975000Y-127650000D01*
X89475000Y-123250000D02*
X89475000Y-127650000D01*
X82975000Y-123250000D02*
X89475000Y-123250000D01*
X82975000Y-126650000D02*
X82975000Y-123250000D01*
D10*
X54950000Y-99750000D02*
X53350000Y-99750000D01*
X54950000Y-98950000D02*
X54950000Y-99750000D01*
X53350000Y-98950000D02*
X54950000Y-98950000D01*
X53350000Y-99750000D02*
X53350000Y-98950000D01*
D11*
X60150000Y-124875000D02*
X58150000Y-124875000D01*
X60150000Y-123625000D02*
X60150000Y-124875000D01*
X58150000Y-123625000D02*
X60150000Y-123625000D01*
X58150000Y-124875000D02*
X58150000Y-123625000D01*
D12*
X113030000Y-131572000D02*
X113030000Y-139700000D01*
X113030000Y-139700000D02*
X55626000Y-139700000D01*
X55626000Y-139700000D02*
X55626000Y-131572000D01*
D11*
X108700000Y-116775000D02*
X106700000Y-116775000D01*
X108700000Y-115525000D02*
X108700000Y-116775000D01*
X106700000Y-115525000D02*
X108700000Y-115525000D01*
X106700000Y-116775000D02*
X106700000Y-115525000D01*
X110500000Y-106175000D02*
X108500000Y-106175000D01*
X110500000Y-104925000D02*
X110500000Y-106175000D01*
X108500000Y-104925000D02*
X110500000Y-104925000D01*
X108500000Y-106175000D02*
X108500000Y-104925000D01*
X110982000Y-128514000D02*
X108982000Y-128514000D01*
X110982000Y-127264000D02*
X110982000Y-128514000D01*
X108982000Y-127264000D02*
X110982000Y-127264000D01*
X108982000Y-128514000D02*
X108982000Y-127264000D01*
X57928000Y-128153000D02*
X59928000Y-128153000D01*
X57928000Y-129403000D02*
X57928000Y-128153000D01*
X59928000Y-129403000D02*
X57928000Y-129403000D01*
X59928000Y-128153000D02*
X59928000Y-129403000D01*
D10*
X72200000Y-124050000D02*
X72200000Y-122450000D01*
X73000000Y-124050000D02*
X72200000Y-124050000D01*
X73000000Y-122450000D02*
X73000000Y-124050000D01*
X72200000Y-122450000D02*
X73000000Y-122450000D01*
X64950000Y-124350000D02*
X63350000Y-124350000D01*
X64950000Y-123550000D02*
X64950000Y-124350000D01*
X63350000Y-123550000D02*
X64950000Y-123550000D01*
X63350000Y-124350000D02*
X63350000Y-123550000D01*
X51750000Y-101300000D02*
X51750000Y-102900000D01*
X50950000Y-101300000D02*
X51750000Y-101300000D01*
X50950000Y-102900000D02*
X50950000Y-101300000D01*
X51750000Y-102900000D02*
X50950000Y-102900000D01*
X64950000Y-99750000D02*
X63350000Y-99750000D01*
X64950000Y-98950000D02*
X64950000Y-99750000D01*
X63350000Y-98950000D02*
X64950000Y-98950000D01*
X63350000Y-99750000D02*
X63350000Y-98950000D01*
X54950000Y-124350000D02*
X53350000Y-124350000D01*
X54950000Y-123550000D02*
X54950000Y-124350000D01*
X53350000Y-123550000D02*
X54950000Y-123550000D01*
X53350000Y-124350000D02*
X53350000Y-123550000D01*
X66550000Y-111600000D02*
X66550000Y-110000000D01*
X67350000Y-111600000D02*
X66550000Y-111600000D01*
X67350000Y-110000000D02*
X67350000Y-111600000D01*
X66550000Y-110000000D02*
X67350000Y-110000000D01*
X51750000Y-106100000D02*
X51750000Y-107700000D01*
X50950000Y-106100000D02*
X51750000Y-106100000D01*
X50950000Y-107700000D02*
X50950000Y-106100000D01*
X51750000Y-107700000D02*
X50950000Y-107700000D01*
X51750000Y-110100000D02*
X51750000Y-111700000D01*
X50950000Y-110100000D02*
X51750000Y-110100000D01*
X50950000Y-111700000D02*
X50950000Y-110100000D01*
X51750000Y-111700000D02*
X50950000Y-111700000D01*
X66550000Y-106800000D02*
X66550000Y-105200000D01*
X67350000Y-106800000D02*
X66550000Y-106800000D01*
X67350000Y-105200000D02*
X67350000Y-106800000D01*
X66550000Y-105200000D02*
X67350000Y-105200000D01*
X99800000Y-124050000D02*
X99800000Y-122450000D01*
X100600000Y-124050000D02*
X99800000Y-124050000D01*
X100600000Y-122450000D02*
X100600000Y-124050000D01*
X99800000Y-122450000D02*
X100600000Y-122450000D01*
X81400000Y-124050000D02*
X81400000Y-122450000D01*
X82200000Y-124050000D02*
X81400000Y-124050000D01*
X82200000Y-122450000D02*
X82200000Y-124050000D01*
X81400000Y-122450000D02*
X82200000Y-122450000D01*
X90600000Y-124050000D02*
X90600000Y-122450000D01*
X91400000Y-124050000D02*
X90600000Y-124050000D01*
X91400000Y-122450000D02*
X91400000Y-124050000D01*
X90600000Y-122450000D02*
X91400000Y-122450000D01*
X52054000Y-93726000D02*
G75*
G03*
X52054000Y-93726000I-1000000J0D01*
G01*
X111236000Y-117983000D02*
G75*
G03*
X111236000Y-117983000I-1000000J0D01*
G01*
X101330000Y-93726000D02*
G75*
G03*
X101330000Y-93726000I-1000000J0D01*
G01*
X111998000Y-130175000D02*
G75*
G03*
X111998000Y-130175000I-1000000J0D01*
G01*
X49514000Y-93726000D02*
G75*
G03*
X49514000Y-93726000I-1000000J0D01*
G01*
X103870000Y-93726000D02*
G75*
G03*
X103870000Y-93726000I-1000000J0D01*
G01*
X112506000Y-115189000D02*
G75*
G03*
X112506000Y-115189000I-1000000J0D01*
G01*
X109550000Y-121300000D02*
X108750000Y-121300000D01*
X108750000Y-121300000D02*
X108750000Y-119700000D01*
X108750000Y-119700000D02*
X109550000Y-119700000D01*
X109550000Y-119700000D02*
X109550000Y-121300000D01*
X101000000Y-119875000D02*
X101000000Y-121125000D01*
X101000000Y-121125000D02*
X99000000Y-121125000D01*
X99000000Y-121125000D02*
X99000000Y-119875000D01*
X99000000Y-119875000D02*
X101000000Y-119875000D01*
X111620000Y-124950000D02*
X111620000Y-123550000D01*
X108580000Y-123550000D02*
X111620000Y-123550000D01*
X109150000Y-124950000D02*
X108580000Y-124400000D01*
X108580000Y-124400000D02*
X108580000Y-123550000D01*
X109150000Y-124950000D02*
X111600000Y-124950000D01*
X80350000Y-117850000D02*
X81950000Y-117850000D01*
X80350000Y-118650000D02*
X80350000Y-117850000D01*
X81950000Y-118650000D02*
X80350000Y-118650000D01*
X81950000Y-117850000D02*
X81950000Y-118650000D01*
X91450000Y-98450000D02*
X91450000Y-99250000D01*
X91450000Y-99250000D02*
X89850000Y-99250000D01*
X89850000Y-99250000D02*
X89850000Y-98450000D01*
X89850000Y-98450000D02*
X91450000Y-98450000D01*
X86850000Y-117850000D02*
X88450000Y-117850000D01*
X86850000Y-118650000D02*
X86850000Y-117850000D01*
X88450000Y-118650000D02*
X86850000Y-118650000D01*
X88450000Y-117850000D02*
X88450000Y-118650000D01*
X81100000Y-99250000D02*
X81100000Y-98450000D01*
X81100000Y-98450000D02*
X82700000Y-98450000D01*
X82700000Y-98450000D02*
X82700000Y-99250000D01*
X82700000Y-99250000D02*
X81100000Y-99250000D01*
X79450000Y-98450000D02*
X79450000Y-99250000D01*
X79450000Y-99250000D02*
X77850000Y-99250000D01*
X77850000Y-99250000D02*
X77850000Y-98450000D01*
X77850000Y-98450000D02*
X79450000Y-98450000D01*
X75300000Y-105600000D02*
X75300000Y-104000000D01*
X76100000Y-105600000D02*
X75300000Y-105600000D01*
X76100000Y-104000000D02*
X76100000Y-105600000D01*
X75300000Y-104000000D02*
X76100000Y-104000000D01*
X91350000Y-118650000D02*
X91350000Y-117850000D01*
X91350000Y-117850000D02*
X92950000Y-117850000D01*
X92950000Y-117850000D02*
X92950000Y-118650000D01*
X92950000Y-118650000D02*
X91350000Y-118650000D01*
X95500000Y-111500000D02*
X95500000Y-113100000D01*
X94700000Y-111500000D02*
X95500000Y-111500000D01*
X94700000Y-113100000D02*
X94700000Y-111500000D01*
X95500000Y-113100000D02*
X94700000Y-113100000D01*
X96350000Y-115050000D02*
X97150000Y-115050000D01*
X97150000Y-115050000D02*
X97150000Y-116650000D01*
X97150000Y-116650000D02*
X96350000Y-116650000D01*
X96350000Y-116650000D02*
X96350000Y-115050000D01*
X98898528Y-103717157D02*
X97767157Y-104848528D01*
X98332843Y-103151472D02*
X98898528Y-103717157D01*
X97201472Y-104282843D02*
X98332843Y-103151472D01*
X97767157Y-104848528D02*
X97201472Y-104282843D01*
X98817157Y-105898528D02*
X98251472Y-105332843D01*
X98251472Y-105332843D02*
X99382843Y-104201472D01*
X99382843Y-104201472D02*
X99948528Y-104767157D01*
X99948528Y-104767157D02*
X98817157Y-105898528D01*
X97282843Y-102101472D02*
X97848528Y-102667157D01*
X97848528Y-102667157D02*
X96717157Y-103798528D01*
X96717157Y-103798528D02*
X96151472Y-103232843D01*
X96151472Y-103232843D02*
X97282843Y-102101472D01*
X98698528Y-97917157D02*
X97567157Y-99048528D01*
X98132843Y-97351472D02*
X98698528Y-97917157D01*
X97001472Y-98482843D02*
X98132843Y-97351472D01*
X97567157Y-99048528D02*
X97001472Y-98482843D01*
D13*
X75557666Y-119764904D02*
X75473000Y-119643952D01*
X75412523Y-119764904D02*
X75412523Y-119510904D01*
X75509285Y-119510904D01*
X75533476Y-119523000D01*
X75545571Y-119535095D01*
X75557666Y-119559285D01*
X75557666Y-119595571D01*
X75545571Y-119619761D01*
X75533476Y-119631857D01*
X75509285Y-119643952D01*
X75412523Y-119643952D01*
X75702809Y-119619761D02*
X75678619Y-119607666D01*
X75666523Y-119595571D01*
X75654428Y-119571380D01*
X75654428Y-119559285D01*
X75666523Y-119535095D01*
X75678619Y-119523000D01*
X75702809Y-119510904D01*
X75751190Y-119510904D01*
X75775380Y-119523000D01*
X75787476Y-119535095D01*
X75799571Y-119559285D01*
X75799571Y-119571380D01*
X75787476Y-119595571D01*
X75775380Y-119607666D01*
X75751190Y-119619761D01*
X75702809Y-119619761D01*
X75678619Y-119631857D01*
X75666523Y-119643952D01*
X75654428Y-119668142D01*
X75654428Y-119716523D01*
X75666523Y-119740714D01*
X75678619Y-119752809D01*
X75702809Y-119764904D01*
X75751190Y-119764904D01*
X75775380Y-119752809D01*
X75787476Y-119740714D01*
X75799571Y-119716523D01*
X75799571Y-119668142D01*
X75787476Y-119643952D01*
X75775380Y-119631857D01*
X75751190Y-119619761D01*
D14*
X75524404Y-119957452D02*
X75451833Y-119957452D01*
X75488119Y-119957452D02*
X75488119Y-119830452D01*
X75476023Y-119848595D01*
X75463928Y-119860690D01*
X75451833Y-119866738D01*
X75603023Y-119830452D02*
X75615119Y-119830452D01*
X75627214Y-119836500D01*
X75633261Y-119842547D01*
X75639309Y-119854642D01*
X75645357Y-119878833D01*
X75645357Y-119909071D01*
X75639309Y-119933261D01*
X75633261Y-119945357D01*
X75627214Y-119951404D01*
X75615119Y-119957452D01*
X75603023Y-119957452D01*
X75590928Y-119951404D01*
X75584880Y-119945357D01*
X75578833Y-119933261D01*
X75572785Y-119909071D01*
X75572785Y-119878833D01*
X75578833Y-119854642D01*
X75584880Y-119842547D01*
X75590928Y-119836500D01*
X75603023Y-119830452D01*
X75699785Y-119957452D02*
X75699785Y-119830452D01*
X75711880Y-119909071D02*
X75748166Y-119957452D01*
X75748166Y-119872785D02*
X75699785Y-119921166D01*
D15*
X104005723Y-125004895D02*
X104005723Y-125662876D01*
X104044428Y-125740285D01*
X104083133Y-125778990D01*
X104160542Y-125817695D01*
X104315361Y-125817695D01*
X104392771Y-125778990D01*
X104431476Y-125740285D01*
X104470180Y-125662876D01*
X104470180Y-125004895D01*
X104779819Y-125004895D02*
X105321685Y-125004895D01*
X104973342Y-125817695D01*
D12*
X102048714Y-126187809D02*
X102387380Y-126187809D01*
X102169666Y-126695809D01*
X102798619Y-126357142D02*
X102798619Y-126695809D01*
X102677666Y-126163619D02*
X102556714Y-126526476D01*
X102871190Y-126526476D01*
X103306619Y-126695809D02*
X103064714Y-126695809D01*
X103064714Y-126187809D01*
X103403380Y-126187809D02*
X103572714Y-126695809D01*
X103742047Y-126187809D01*
X104201666Y-126647428D02*
X104177476Y-126671619D01*
X104104904Y-126695809D01*
X104056523Y-126695809D01*
X103983952Y-126671619D01*
X103935571Y-126623238D01*
X103911380Y-126574857D01*
X103887190Y-126478095D01*
X103887190Y-126405523D01*
X103911380Y-126308761D01*
X103935571Y-126260380D01*
X103983952Y-126212000D01*
X104056523Y-126187809D01*
X104104904Y-126187809D01*
X104177476Y-126212000D01*
X104201666Y-126236190D01*
X104395190Y-126236190D02*
X104419380Y-126212000D01*
X104467761Y-126187809D01*
X104588714Y-126187809D01*
X104637095Y-126212000D01*
X104661285Y-126236190D01*
X104685476Y-126284571D01*
X104685476Y-126332952D01*
X104661285Y-126405523D01*
X104371000Y-126695809D01*
X104685476Y-126695809D01*
X105120904Y-126357142D02*
X105120904Y-126695809D01*
X104999952Y-126163619D02*
X104879000Y-126526476D01*
X105193476Y-126526476D01*
X105628904Y-126187809D02*
X105387000Y-126187809D01*
X105362809Y-126429714D01*
X105387000Y-126405523D01*
X105435380Y-126381333D01*
X105556333Y-126381333D01*
X105604714Y-126405523D01*
X105628904Y-126429714D01*
X105653095Y-126478095D01*
X105653095Y-126599047D01*
X105628904Y-126647428D01*
X105604714Y-126671619D01*
X105556333Y-126695809D01*
X105435380Y-126695809D01*
X105387000Y-126671619D01*
X105362809Y-126647428D01*
X105846619Y-126550666D02*
X106088523Y-126550666D01*
X105798238Y-126695809D02*
X105967571Y-126187809D01*
X106136904Y-126695809D01*
X106306238Y-126695809D02*
X106306238Y-126187809D01*
X106499761Y-126187809D01*
X106548142Y-126212000D01*
X106572333Y-126236190D01*
X106596523Y-126284571D01*
X106596523Y-126357142D01*
X106572333Y-126405523D01*
X106548142Y-126429714D01*
X106499761Y-126453904D01*
X106306238Y-126453904D01*
X106765857Y-126187809D02*
X106886809Y-126695809D01*
X106983571Y-126332952D01*
X107080333Y-126695809D01*
X107201285Y-126187809D01*
D15*
X58530723Y-111204895D02*
X58530723Y-111862876D01*
X58569428Y-111940285D01*
X58608133Y-111978990D01*
X58685542Y-112017695D01*
X58840361Y-112017695D01*
X58917771Y-111978990D01*
X58956476Y-111940285D01*
X58995180Y-111862876D01*
X58995180Y-111204895D01*
X59343523Y-111282304D02*
X59382228Y-111243600D01*
X59459638Y-111204895D01*
X59653161Y-111204895D01*
X59730571Y-111243600D01*
X59769276Y-111282304D01*
X59807980Y-111359714D01*
X59807980Y-111437123D01*
X59769276Y-111553238D01*
X59304819Y-112017695D01*
X59807980Y-112017695D01*
D12*
X56392285Y-112321809D02*
X56513238Y-112829809D01*
X56610000Y-112466952D01*
X56706761Y-112829809D01*
X56827714Y-112321809D01*
X57045428Y-112829809D02*
X57142190Y-112829809D01*
X57190571Y-112805619D01*
X57214761Y-112781428D01*
X57263142Y-112708857D01*
X57287333Y-112612095D01*
X57287333Y-112418571D01*
X57263142Y-112370190D01*
X57238952Y-112346000D01*
X57190571Y-112321809D01*
X57093809Y-112321809D01*
X57045428Y-112346000D01*
X57021238Y-112370190D01*
X56997047Y-112418571D01*
X56997047Y-112539523D01*
X57021238Y-112587904D01*
X57045428Y-112612095D01*
X57093809Y-112636285D01*
X57190571Y-112636285D01*
X57238952Y-112612095D01*
X57263142Y-112587904D01*
X57287333Y-112539523D01*
X57577619Y-112539523D02*
X57529238Y-112515333D01*
X57505047Y-112491142D01*
X57480857Y-112442761D01*
X57480857Y-112418571D01*
X57505047Y-112370190D01*
X57529238Y-112346000D01*
X57577619Y-112321809D01*
X57674380Y-112321809D01*
X57722761Y-112346000D01*
X57746952Y-112370190D01*
X57771142Y-112418571D01*
X57771142Y-112442761D01*
X57746952Y-112491142D01*
X57722761Y-112515333D01*
X57674380Y-112539523D01*
X57577619Y-112539523D01*
X57529238Y-112563714D01*
X57505047Y-112587904D01*
X57480857Y-112636285D01*
X57480857Y-112733047D01*
X57505047Y-112781428D01*
X57529238Y-112805619D01*
X57577619Y-112829809D01*
X57674380Y-112829809D01*
X57722761Y-112805619D01*
X57746952Y-112781428D01*
X57771142Y-112733047D01*
X57771142Y-112636285D01*
X57746952Y-112587904D01*
X57722761Y-112563714D01*
X57674380Y-112539523D01*
X58254952Y-112829809D02*
X57964666Y-112829809D01*
X58109809Y-112829809D02*
X58109809Y-112321809D01*
X58061428Y-112394380D01*
X58013047Y-112442761D01*
X57964666Y-112466952D01*
X58448476Y-112370190D02*
X58472666Y-112346000D01*
X58521047Y-112321809D01*
X58642000Y-112321809D01*
X58690380Y-112346000D01*
X58714571Y-112370190D01*
X58738761Y-112418571D01*
X58738761Y-112466952D01*
X58714571Y-112539523D01*
X58424285Y-112829809D01*
X58738761Y-112829809D01*
X59222571Y-112346000D02*
X59174190Y-112321809D01*
X59101619Y-112321809D01*
X59029047Y-112346000D01*
X58980666Y-112394380D01*
X58956476Y-112442761D01*
X58932285Y-112539523D01*
X58932285Y-112612095D01*
X58956476Y-112708857D01*
X58980666Y-112757238D01*
X59029047Y-112805619D01*
X59101619Y-112829809D01*
X59150000Y-112829809D01*
X59222571Y-112805619D01*
X59246761Y-112781428D01*
X59246761Y-112612095D01*
X59150000Y-112612095D01*
X59682190Y-112321809D02*
X59585428Y-112321809D01*
X59537047Y-112346000D01*
X59512857Y-112370190D01*
X59464476Y-112442761D01*
X59440285Y-112539523D01*
X59440285Y-112733047D01*
X59464476Y-112781428D01*
X59488666Y-112805619D01*
X59537047Y-112829809D01*
X59633809Y-112829809D01*
X59682190Y-112805619D01*
X59706380Y-112781428D01*
X59730571Y-112733047D01*
X59730571Y-112612095D01*
X59706380Y-112563714D01*
X59682190Y-112539523D01*
X59633809Y-112515333D01*
X59537047Y-112515333D01*
X59488666Y-112539523D01*
X59464476Y-112563714D01*
X59440285Y-112612095D01*
X59948285Y-112829809D02*
X59948285Y-112321809D01*
X60238571Y-112829809D02*
X60020857Y-112539523D01*
X60238571Y-112321809D02*
X59948285Y-112612095D01*
X60456285Y-112829809D02*
X60456285Y-112321809D01*
X60456285Y-112563714D02*
X60746571Y-112563714D01*
X60746571Y-112829809D02*
X60746571Y-112321809D01*
X60988476Y-112636285D02*
X61375523Y-112636285D01*
X61835142Y-112321809D02*
X61738380Y-112321809D01*
X61690000Y-112346000D01*
X61665809Y-112370190D01*
X61617428Y-112442761D01*
X61593238Y-112539523D01*
X61593238Y-112733047D01*
X61617428Y-112781428D01*
X61641619Y-112805619D01*
X61690000Y-112829809D01*
X61786761Y-112829809D01*
X61835142Y-112805619D01*
X61859333Y-112781428D01*
X61883523Y-112733047D01*
X61883523Y-112612095D01*
X61859333Y-112563714D01*
X61835142Y-112539523D01*
X61786761Y-112515333D01*
X61690000Y-112515333D01*
X61641619Y-112539523D01*
X61617428Y-112563714D01*
X61593238Y-112612095D01*
D13*
X69836714Y-121140714D02*
X69824619Y-121152809D01*
X69788333Y-121164904D01*
X69764142Y-121164904D01*
X69727857Y-121152809D01*
X69703666Y-121128619D01*
X69691571Y-121104428D01*
X69679476Y-121056047D01*
X69679476Y-121019761D01*
X69691571Y-120971380D01*
X69703666Y-120947190D01*
X69727857Y-120923000D01*
X69764142Y-120910904D01*
X69788333Y-120910904D01*
X69824619Y-120923000D01*
X69836714Y-120935095D01*
X69933476Y-120935095D02*
X69945571Y-120923000D01*
X69969761Y-120910904D01*
X70030238Y-120910904D01*
X70054428Y-120923000D01*
X70066523Y-120935095D01*
X70078619Y-120959285D01*
X70078619Y-120983476D01*
X70066523Y-121019761D01*
X69921380Y-121164904D01*
X70078619Y-121164904D01*
X70163285Y-120910904D02*
X70332619Y-120910904D01*
X70223761Y-121164904D01*
D14*
X69845785Y-120742547D02*
X69851833Y-120736500D01*
X69863928Y-120730452D01*
X69894166Y-120730452D01*
X69906261Y-120736500D01*
X69912309Y-120742547D01*
X69918357Y-120754642D01*
X69918357Y-120766738D01*
X69912309Y-120784880D01*
X69839738Y-120857452D01*
X69918357Y-120857452D01*
X70027214Y-120772785D02*
X70027214Y-120857452D01*
X69972785Y-120772785D02*
X69972785Y-120839309D01*
X69978833Y-120851404D01*
X69990928Y-120857452D01*
X70009071Y-120857452D01*
X70021166Y-120851404D01*
X70027214Y-120845357D01*
X70081642Y-120742547D02*
X70087690Y-120736500D01*
X70099785Y-120730452D01*
X70130023Y-120730452D01*
X70142119Y-120736500D01*
X70148166Y-120742547D01*
X70154214Y-120754642D01*
X70154214Y-120766738D01*
X70148166Y-120784880D01*
X70075595Y-120857452D01*
X70154214Y-120857452D01*
D13*
X69590714Y-110563285D02*
X69602809Y-110575380D01*
X69614904Y-110611666D01*
X69614904Y-110635857D01*
X69602809Y-110672142D01*
X69578619Y-110696333D01*
X69554428Y-110708428D01*
X69506047Y-110720523D01*
X69469761Y-110720523D01*
X69421380Y-110708428D01*
X69397190Y-110696333D01*
X69373000Y-110672142D01*
X69360904Y-110635857D01*
X69360904Y-110611666D01*
X69373000Y-110575380D01*
X69385095Y-110563285D01*
X69614904Y-110321380D02*
X69614904Y-110466523D01*
X69614904Y-110393952D02*
X69360904Y-110393952D01*
X69397190Y-110418142D01*
X69421380Y-110442333D01*
X69433476Y-110466523D01*
X69360904Y-110164142D02*
X69360904Y-110139952D01*
X69373000Y-110115761D01*
X69385095Y-110103666D01*
X69409285Y-110091571D01*
X69457666Y-110079476D01*
X69518142Y-110079476D01*
X69566523Y-110091571D01*
X69590714Y-110103666D01*
X69602809Y-110115761D01*
X69614904Y-110139952D01*
X69614904Y-110164142D01*
X69602809Y-110188333D01*
X69590714Y-110200428D01*
X69566523Y-110212523D01*
X69518142Y-110224619D01*
X69457666Y-110224619D01*
X69409285Y-110212523D01*
X69385095Y-110200428D01*
X69373000Y-110188333D01*
X69360904Y-110164142D01*
D14*
X69692547Y-110554214D02*
X69686500Y-110548166D01*
X69680452Y-110536071D01*
X69680452Y-110505833D01*
X69686500Y-110493738D01*
X69692547Y-110487690D01*
X69704642Y-110481642D01*
X69716738Y-110481642D01*
X69734880Y-110487690D01*
X69807452Y-110560261D01*
X69807452Y-110481642D01*
X69722785Y-110372785D02*
X69807452Y-110372785D01*
X69722785Y-110427214D02*
X69789309Y-110427214D01*
X69801404Y-110421166D01*
X69807452Y-110409071D01*
X69807452Y-110390928D01*
X69801404Y-110378833D01*
X69795357Y-110372785D01*
X69692547Y-110318357D02*
X69686500Y-110312309D01*
X69680452Y-110300214D01*
X69680452Y-110269976D01*
X69686500Y-110257880D01*
X69692547Y-110251833D01*
X69704642Y-110245785D01*
X69716738Y-110245785D01*
X69734880Y-110251833D01*
X69807452Y-110324404D01*
X69807452Y-110245785D01*
D15*
X84780723Y-108104895D02*
X84780723Y-108762876D01*
X84819428Y-108840285D01*
X84858133Y-108878990D01*
X84935542Y-108917695D01*
X85090361Y-108917695D01*
X85167771Y-108878990D01*
X85206476Y-108840285D01*
X85245180Y-108762876D01*
X85245180Y-108104895D01*
X86057980Y-108917695D02*
X85593523Y-108917695D01*
X85825752Y-108917695D02*
X85825752Y-108104895D01*
X85748342Y-108221009D01*
X85670933Y-108298419D01*
X85593523Y-108337123D01*
D12*
X82775333Y-107729809D02*
X82533428Y-107729809D01*
X82533428Y-107221809D01*
X83234952Y-107681428D02*
X83210761Y-107705619D01*
X83138190Y-107729809D01*
X83089809Y-107729809D01*
X83017238Y-107705619D01*
X82968857Y-107657238D01*
X82944666Y-107608857D01*
X82920476Y-107512095D01*
X82920476Y-107439523D01*
X82944666Y-107342761D01*
X82968857Y-107294380D01*
X83017238Y-107246000D01*
X83089809Y-107221809D01*
X83138190Y-107221809D01*
X83210761Y-107246000D01*
X83234952Y-107270190D01*
X83452666Y-107729809D02*
X83452666Y-107221809D01*
X83622000Y-107584666D01*
X83791333Y-107221809D01*
X83791333Y-107729809D01*
X83984857Y-107221809D02*
X84323523Y-107729809D01*
X84323523Y-107221809D02*
X83984857Y-107729809D01*
X84613809Y-107221809D02*
X84710571Y-107221809D01*
X84758952Y-107246000D01*
X84807333Y-107294380D01*
X84831523Y-107391142D01*
X84831523Y-107560476D01*
X84807333Y-107657238D01*
X84758952Y-107705619D01*
X84710571Y-107729809D01*
X84613809Y-107729809D01*
X84565428Y-107705619D01*
X84517047Y-107657238D01*
X84492857Y-107560476D01*
X84492857Y-107391142D01*
X84517047Y-107294380D01*
X84565428Y-107246000D01*
X84613809Y-107221809D01*
X85025047Y-107270190D02*
X85049238Y-107246000D01*
X85097619Y-107221809D01*
X85218571Y-107221809D01*
X85266952Y-107246000D01*
X85291142Y-107270190D01*
X85315333Y-107318571D01*
X85315333Y-107366952D01*
X85291142Y-107439523D01*
X85000857Y-107729809D01*
X85315333Y-107729809D01*
X85533047Y-107536285D02*
X85920095Y-107536285D01*
X86089428Y-107221809D02*
X86379714Y-107221809D01*
X86234571Y-107729809D02*
X86234571Y-107221809D01*
X86815142Y-107246000D02*
X86766761Y-107221809D01*
X86694190Y-107221809D01*
X86621619Y-107246000D01*
X86573238Y-107294380D01*
X86549047Y-107342761D01*
X86524857Y-107439523D01*
X86524857Y-107512095D01*
X86549047Y-107608857D01*
X86573238Y-107657238D01*
X86621619Y-107705619D01*
X86694190Y-107729809D01*
X86742571Y-107729809D01*
X86815142Y-107705619D01*
X86839333Y-107681428D01*
X86839333Y-107512095D01*
X86742571Y-107512095D01*
X87323142Y-107729809D02*
X87032857Y-107729809D01*
X87178000Y-107729809D02*
X87178000Y-107221809D01*
X87129619Y-107294380D01*
X87081238Y-107342761D01*
X87032857Y-107366952D01*
X87637619Y-107221809D02*
X87686000Y-107221809D01*
X87734380Y-107246000D01*
X87758571Y-107270190D01*
X87782761Y-107318571D01*
X87806952Y-107415333D01*
X87806952Y-107536285D01*
X87782761Y-107633047D01*
X87758571Y-107681428D01*
X87734380Y-107705619D01*
X87686000Y-107729809D01*
X87637619Y-107729809D01*
X87589238Y-107705619D01*
X87565047Y-107681428D01*
X87540857Y-107633047D01*
X87516666Y-107536285D01*
X87516666Y-107415333D01*
X87540857Y-107318571D01*
X87565047Y-107270190D01*
X87589238Y-107246000D01*
X87637619Y-107221809D01*
X88121428Y-107221809D02*
X88169809Y-107221809D01*
X88218190Y-107246000D01*
X88242380Y-107270190D01*
X88266571Y-107318571D01*
X88290761Y-107415333D01*
X88290761Y-107536285D01*
X88266571Y-107633047D01*
X88242380Y-107681428D01*
X88218190Y-107705619D01*
X88169809Y-107729809D01*
X88121428Y-107729809D01*
X88073047Y-107705619D01*
X88048857Y-107681428D01*
X88024666Y-107633047D01*
X88000476Y-107536285D01*
X88000476Y-107415333D01*
X88024666Y-107318571D01*
X88048857Y-107270190D01*
X88073047Y-107246000D01*
X88121428Y-107221809D01*
D13*
X72757666Y-119764904D02*
X72673000Y-119643952D01*
X72612523Y-119764904D02*
X72612523Y-119510904D01*
X72709285Y-119510904D01*
X72733476Y-119523000D01*
X72745571Y-119535095D01*
X72757666Y-119559285D01*
X72757666Y-119595571D01*
X72745571Y-119619761D01*
X72733476Y-119631857D01*
X72709285Y-119643952D01*
X72612523Y-119643952D01*
X72878619Y-119764904D02*
X72927000Y-119764904D01*
X72951190Y-119752809D01*
X72963285Y-119740714D01*
X72987476Y-119704428D01*
X72999571Y-119656047D01*
X72999571Y-119559285D01*
X72987476Y-119535095D01*
X72975380Y-119523000D01*
X72951190Y-119510904D01*
X72902809Y-119510904D01*
X72878619Y-119523000D01*
X72866523Y-119535095D01*
X72854428Y-119559285D01*
X72854428Y-119619761D01*
X72866523Y-119643952D01*
X72878619Y-119656047D01*
X72902809Y-119668142D01*
X72951190Y-119668142D01*
X72975380Y-119656047D01*
X72987476Y-119643952D01*
X72999571Y-119619761D01*
D14*
X72724404Y-119457452D02*
X72651833Y-119457452D01*
X72688119Y-119457452D02*
X72688119Y-119330452D01*
X72676023Y-119348595D01*
X72663928Y-119360690D01*
X72651833Y-119366738D01*
X72803023Y-119330452D02*
X72815119Y-119330452D01*
X72827214Y-119336500D01*
X72833261Y-119342547D01*
X72839309Y-119354642D01*
X72845357Y-119378833D01*
X72845357Y-119409071D01*
X72839309Y-119433261D01*
X72833261Y-119445357D01*
X72827214Y-119451404D01*
X72815119Y-119457452D01*
X72803023Y-119457452D01*
X72790928Y-119451404D01*
X72784880Y-119445357D01*
X72778833Y-119433261D01*
X72772785Y-119409071D01*
X72772785Y-119378833D01*
X72778833Y-119354642D01*
X72784880Y-119342547D01*
X72790928Y-119336500D01*
X72803023Y-119330452D01*
X72899785Y-119457452D02*
X72899785Y-119330452D01*
X72911880Y-119409071D02*
X72948166Y-119457452D01*
X72948166Y-119372785D02*
X72899785Y-119421166D01*
D13*
X71112523Y-102964904D02*
X71112523Y-102710904D01*
X71173000Y-102710904D01*
X71209285Y-102723000D01*
X71233476Y-102747190D01*
X71245571Y-102771380D01*
X71257666Y-102819761D01*
X71257666Y-102856047D01*
X71245571Y-102904428D01*
X71233476Y-102928619D01*
X71209285Y-102952809D01*
X71173000Y-102964904D01*
X71112523Y-102964904D01*
X71499571Y-102964904D02*
X71354428Y-102964904D01*
X71427000Y-102964904D02*
X71427000Y-102710904D01*
X71402809Y-102747190D01*
X71378619Y-102771380D01*
X71354428Y-102783476D01*
X70834333Y-102310904D02*
X70894809Y-102564904D01*
X70943190Y-102383476D01*
X70991571Y-102564904D01*
X71052047Y-102310904D01*
X71148809Y-102564904D02*
X71148809Y-102310904D01*
X71257666Y-102564904D02*
X71257666Y-102431857D01*
X71245571Y-102407666D01*
X71221380Y-102395571D01*
X71185095Y-102395571D01*
X71160904Y-102407666D01*
X71148809Y-102419761D01*
X71378619Y-102564904D02*
X71378619Y-102395571D01*
X71378619Y-102310904D02*
X71366523Y-102323000D01*
X71378619Y-102335095D01*
X71390714Y-102323000D01*
X71378619Y-102310904D01*
X71378619Y-102335095D01*
X71463285Y-102395571D02*
X71560047Y-102395571D01*
X71499571Y-102310904D02*
X71499571Y-102528619D01*
X71511666Y-102552809D01*
X71535857Y-102564904D01*
X71560047Y-102564904D01*
X71741476Y-102552809D02*
X71717285Y-102564904D01*
X71668904Y-102564904D01*
X71644714Y-102552809D01*
X71632619Y-102528619D01*
X71632619Y-102431857D01*
X71644714Y-102407666D01*
X71668904Y-102395571D01*
X71717285Y-102395571D01*
X71741476Y-102407666D01*
X71753571Y-102431857D01*
X71753571Y-102456047D01*
X71632619Y-102480238D01*
X71257666Y-104714904D02*
X71173000Y-104593952D01*
X71112523Y-104714904D02*
X71112523Y-104460904D01*
X71209285Y-104460904D01*
X71233476Y-104473000D01*
X71245571Y-104485095D01*
X71257666Y-104509285D01*
X71257666Y-104545571D01*
X71245571Y-104569761D01*
X71233476Y-104581857D01*
X71209285Y-104593952D01*
X71112523Y-104593952D01*
X71475380Y-104460904D02*
X71427000Y-104460904D01*
X71402809Y-104473000D01*
X71390714Y-104485095D01*
X71366523Y-104521380D01*
X71354428Y-104569761D01*
X71354428Y-104666523D01*
X71366523Y-104690714D01*
X71378619Y-104702809D01*
X71402809Y-104714904D01*
X71451190Y-104714904D01*
X71475380Y-104702809D01*
X71487476Y-104690714D01*
X71499571Y-104666523D01*
X71499571Y-104606047D01*
X71487476Y-104581857D01*
X71475380Y-104569761D01*
X71451190Y-104557666D01*
X71402809Y-104557666D01*
X71378619Y-104569761D01*
X71366523Y-104581857D01*
X71354428Y-104606047D01*
X71130666Y-105064904D02*
X70985523Y-105064904D01*
X71058095Y-105064904D02*
X71058095Y-104810904D01*
X71033904Y-104847190D01*
X71009714Y-104871380D01*
X70985523Y-104883476D01*
X71275809Y-104919761D02*
X71251619Y-104907666D01*
X71239523Y-104895571D01*
X71227428Y-104871380D01*
X71227428Y-104859285D01*
X71239523Y-104835095D01*
X71251619Y-104823000D01*
X71275809Y-104810904D01*
X71324190Y-104810904D01*
X71348380Y-104823000D01*
X71360476Y-104835095D01*
X71372571Y-104859285D01*
X71372571Y-104871380D01*
X71360476Y-104895571D01*
X71348380Y-104907666D01*
X71324190Y-104919761D01*
X71275809Y-104919761D01*
X71251619Y-104931857D01*
X71239523Y-104943952D01*
X71227428Y-104968142D01*
X71227428Y-105016523D01*
X71239523Y-105040714D01*
X71251619Y-105052809D01*
X71275809Y-105064904D01*
X71324190Y-105064904D01*
X71348380Y-105052809D01*
X71360476Y-105040714D01*
X71372571Y-105016523D01*
X71372571Y-104968142D01*
X71360476Y-104943952D01*
X71348380Y-104931857D01*
X71324190Y-104919761D01*
X71529809Y-104810904D02*
X71554000Y-104810904D01*
X71578190Y-104823000D01*
X71590285Y-104835095D01*
X71602380Y-104859285D01*
X71614476Y-104907666D01*
X71614476Y-104968142D01*
X71602380Y-105016523D01*
X71590285Y-105040714D01*
X71578190Y-105052809D01*
X71554000Y-105064904D01*
X71529809Y-105064904D01*
X71505619Y-105052809D01*
X71493523Y-105040714D01*
X71481428Y-105016523D01*
X71469333Y-104968142D01*
X71469333Y-104907666D01*
X71481428Y-104859285D01*
X71493523Y-104835095D01*
X71505619Y-104823000D01*
X71529809Y-104810904D01*
X73207666Y-108064904D02*
X73123000Y-107943952D01*
X73062523Y-108064904D02*
X73062523Y-107810904D01*
X73159285Y-107810904D01*
X73183476Y-107823000D01*
X73195571Y-107835095D01*
X73207666Y-107859285D01*
X73207666Y-107895571D01*
X73195571Y-107919761D01*
X73183476Y-107931857D01*
X73159285Y-107943952D01*
X73062523Y-107943952D01*
X73292333Y-107810904D02*
X73449571Y-107810904D01*
X73364904Y-107907666D01*
X73401190Y-107907666D01*
X73425380Y-107919761D01*
X73437476Y-107931857D01*
X73449571Y-107956047D01*
X73449571Y-108016523D01*
X73437476Y-108040714D01*
X73425380Y-108052809D01*
X73401190Y-108064904D01*
X73328619Y-108064904D01*
X73304428Y-108052809D01*
X73292333Y-108040714D01*
D14*
X73213714Y-108172785D02*
X73213714Y-108257452D01*
X73183476Y-108124404D02*
X73153238Y-108215119D01*
X73231857Y-108215119D01*
X73268142Y-108130452D02*
X73352809Y-108130452D01*
X73298380Y-108257452D01*
D13*
X70407666Y-108064904D02*
X70323000Y-107943952D01*
X70262523Y-108064904D02*
X70262523Y-107810904D01*
X70359285Y-107810904D01*
X70383476Y-107823000D01*
X70395571Y-107835095D01*
X70407666Y-107859285D01*
X70407666Y-107895571D01*
X70395571Y-107919761D01*
X70383476Y-107931857D01*
X70359285Y-107943952D01*
X70262523Y-107943952D01*
X70504428Y-107835095D02*
X70516523Y-107823000D01*
X70540714Y-107810904D01*
X70601190Y-107810904D01*
X70625380Y-107823000D01*
X70637476Y-107835095D01*
X70649571Y-107859285D01*
X70649571Y-107883476D01*
X70637476Y-107919761D01*
X70492333Y-108064904D01*
X70649571Y-108064904D01*
D14*
X70413714Y-107672785D02*
X70413714Y-107757452D01*
X70383476Y-107624404D02*
X70353238Y-107715119D01*
X70431857Y-107715119D01*
X70468142Y-107630452D02*
X70552809Y-107630452D01*
X70498380Y-107757452D01*
D13*
X78064904Y-119042333D02*
X77943952Y-119127000D01*
X78064904Y-119187476D02*
X77810904Y-119187476D01*
X77810904Y-119090714D01*
X77823000Y-119066523D01*
X77835095Y-119054428D01*
X77859285Y-119042333D01*
X77895571Y-119042333D01*
X77919761Y-119054428D01*
X77931857Y-119066523D01*
X77943952Y-119090714D01*
X77943952Y-119187476D01*
X78064904Y-118800428D02*
X78064904Y-118945571D01*
X78064904Y-118873000D02*
X77810904Y-118873000D01*
X77847190Y-118897190D01*
X77871380Y-118921380D01*
X77883476Y-118945571D01*
D14*
X78257452Y-119075595D02*
X78257452Y-119148166D01*
X78257452Y-119111880D02*
X78130452Y-119111880D01*
X78148595Y-119123976D01*
X78160690Y-119136071D01*
X78166738Y-119148166D01*
X78130452Y-118996976D02*
X78130452Y-118984880D01*
X78136500Y-118972785D01*
X78142547Y-118966738D01*
X78154642Y-118960690D01*
X78178833Y-118954642D01*
X78209071Y-118954642D01*
X78233261Y-118960690D01*
X78245357Y-118966738D01*
X78251404Y-118972785D01*
X78257452Y-118984880D01*
X78257452Y-118996976D01*
X78251404Y-119009071D01*
X78245357Y-119015119D01*
X78233261Y-119021166D01*
X78209071Y-119027214D01*
X78178833Y-119027214D01*
X78154642Y-119021166D01*
X78142547Y-119015119D01*
X78136500Y-119009071D01*
X78130452Y-118996976D01*
X78257452Y-118900214D02*
X78130452Y-118900214D01*
X78209071Y-118888119D02*
X78257452Y-118851833D01*
X78172785Y-118851833D02*
X78221166Y-118900214D01*
D16*
X106466500Y-113934928D02*
X106466500Y-113753500D01*
X106575357Y-113971214D02*
X106194357Y-113844214D01*
X106575357Y-113717214D01*
X106194357Y-113626500D02*
X106194357Y-113372500D01*
X106575357Y-113626500D01*
X106575357Y-113372500D01*
X106575357Y-113027785D02*
X106575357Y-113245500D01*
X106575357Y-113136642D02*
X106194357Y-113136642D01*
X106248785Y-113172928D01*
X106285071Y-113209214D01*
X106303214Y-113245500D01*
X106575357Y-112664928D02*
X106575357Y-112882642D01*
X106575357Y-112773785D02*
X106194357Y-112773785D01*
X106248785Y-112810071D01*
X106285071Y-112846357D01*
X106303214Y-112882642D01*
X106575357Y-112302071D02*
X106575357Y-112519785D01*
X106575357Y-112410928D02*
X106194357Y-112410928D01*
X106248785Y-112447214D01*
X106285071Y-112483500D01*
X106303214Y-112519785D01*
X106194357Y-112175071D02*
X106194357Y-111921071D01*
X106575357Y-112084357D01*
X106539071Y-111558214D02*
X106557214Y-111576357D01*
X106575357Y-111630785D01*
X106575357Y-111667071D01*
X106557214Y-111721500D01*
X106520928Y-111757785D01*
X106484642Y-111775928D01*
X106412071Y-111794071D01*
X106357642Y-111794071D01*
X106285071Y-111775928D01*
X106248785Y-111757785D01*
X106212500Y-111721500D01*
X106194357Y-111667071D01*
X106194357Y-111630785D01*
X106212500Y-111576357D01*
X106230642Y-111558214D01*
X106575357Y-111394928D02*
X106194357Y-111394928D01*
X106375785Y-111394928D02*
X106375785Y-111177214D01*
X106575357Y-111177214D02*
X106194357Y-111177214D01*
X106430214Y-110995785D02*
X106430214Y-110705500D01*
X106194357Y-110560357D02*
X106194357Y-110324500D01*
X106339500Y-110451500D01*
X106339500Y-110397071D01*
X106357642Y-110360785D01*
X106375785Y-110342642D01*
X106412071Y-110324500D01*
X106502785Y-110324500D01*
X106539071Y-110342642D01*
X106557214Y-110360785D01*
X106575357Y-110397071D01*
X106575357Y-110505928D01*
X106557214Y-110542214D01*
X106539071Y-110560357D01*
X106539071Y-110161214D02*
X106557214Y-110143071D01*
X106575357Y-110161214D01*
X106557214Y-110179357D01*
X106539071Y-110161214D01*
X106575357Y-110161214D01*
X106194357Y-110016071D02*
X106194357Y-109780214D01*
X106339500Y-109907214D01*
X106339500Y-109852785D01*
X106357642Y-109816500D01*
X106375785Y-109798357D01*
X106412071Y-109780214D01*
X106502785Y-109780214D01*
X106539071Y-109798357D01*
X106557214Y-109816500D01*
X106575357Y-109852785D01*
X106575357Y-109961642D01*
X106557214Y-109997928D01*
X106539071Y-110016071D01*
X106194357Y-109671357D02*
X106194357Y-109453642D01*
X106575357Y-109562500D02*
X106194357Y-109562500D01*
X106575357Y-109108928D02*
X106393928Y-109235928D01*
X106575357Y-109326642D02*
X106194357Y-109326642D01*
X106194357Y-109181500D01*
X106212500Y-109145214D01*
X106230642Y-109127071D01*
X106266928Y-109108928D01*
X106321357Y-109108928D01*
X106357642Y-109127071D01*
X106375785Y-109145214D01*
X106393928Y-109181500D01*
X106393928Y-109326642D01*
X106212500Y-108746071D02*
X106194357Y-108782357D01*
X106194357Y-108836785D01*
X106212500Y-108891214D01*
X106248785Y-108927500D01*
X106285071Y-108945642D01*
X106357642Y-108963785D01*
X106412071Y-108963785D01*
X106484642Y-108945642D01*
X106520928Y-108927500D01*
X106557214Y-108891214D01*
X106575357Y-108836785D01*
X106575357Y-108800500D01*
X106557214Y-108746071D01*
X106539071Y-108727928D01*
X106412071Y-108727928D01*
X106412071Y-108800500D01*
X106575357Y-108365071D02*
X106575357Y-108582785D01*
X106575357Y-108473928D02*
X106194357Y-108473928D01*
X106248785Y-108510214D01*
X106285071Y-108546500D01*
X106303214Y-108582785D01*
D15*
X104941895Y-111769276D02*
X105599876Y-111769276D01*
X105677285Y-111730571D01*
X105715990Y-111691866D01*
X105754695Y-111614457D01*
X105754695Y-111459638D01*
X105715990Y-111382228D01*
X105677285Y-111343523D01*
X105599876Y-111304819D01*
X104941895Y-111304819D01*
X105290238Y-110801657D02*
X105251533Y-110879066D01*
X105212828Y-110917771D01*
X105135419Y-110956476D01*
X105096714Y-110956476D01*
X105019304Y-110917771D01*
X104980600Y-110879066D01*
X104941895Y-110801657D01*
X104941895Y-110646838D01*
X104980600Y-110569428D01*
X105019304Y-110530723D01*
X105096714Y-110492019D01*
X105135419Y-110492019D01*
X105212828Y-110530723D01*
X105251533Y-110569428D01*
X105290238Y-110646838D01*
X105290238Y-110801657D01*
X105328942Y-110879066D01*
X105367647Y-110917771D01*
X105445057Y-110956476D01*
X105599876Y-110956476D01*
X105677285Y-110917771D01*
X105715990Y-110879066D01*
X105754695Y-110801657D01*
X105754695Y-110646838D01*
X105715990Y-110569428D01*
X105677285Y-110530723D01*
X105599876Y-110492019D01*
X105445057Y-110492019D01*
X105367647Y-110530723D01*
X105328942Y-110569428D01*
X105290238Y-110646838D01*
X71480723Y-114854895D02*
X71480723Y-115512876D01*
X71519428Y-115590285D01*
X71558133Y-115628990D01*
X71635542Y-115667695D01*
X71790361Y-115667695D01*
X71867771Y-115628990D01*
X71906476Y-115590285D01*
X71945180Y-115512876D01*
X71945180Y-114854895D01*
X72254819Y-114854895D02*
X72757980Y-114854895D01*
X72487047Y-115164533D01*
X72603161Y-115164533D01*
X72680571Y-115203238D01*
X72719276Y-115241942D01*
X72757980Y-115319352D01*
X72757980Y-115512876D01*
X72719276Y-115590285D01*
X72680571Y-115628990D01*
X72603161Y-115667695D01*
X72370933Y-115667695D01*
X72293523Y-115628990D01*
X72254819Y-115590285D01*
D12*
X71664571Y-116221809D02*
X71567809Y-116221809D01*
X71519428Y-116246000D01*
X71495238Y-116270190D01*
X71446857Y-116342761D01*
X71422666Y-116439523D01*
X71422666Y-116633047D01*
X71446857Y-116681428D01*
X71471047Y-116705619D01*
X71519428Y-116729809D01*
X71616190Y-116729809D01*
X71664571Y-116705619D01*
X71688761Y-116681428D01*
X71712952Y-116633047D01*
X71712952Y-116512095D01*
X71688761Y-116463714D01*
X71664571Y-116439523D01*
X71616190Y-116415333D01*
X71519428Y-116415333D01*
X71471047Y-116439523D01*
X71446857Y-116463714D01*
X71422666Y-116512095D01*
X72027428Y-116221809D02*
X72075809Y-116221809D01*
X72124190Y-116246000D01*
X72148380Y-116270190D01*
X72172571Y-116318571D01*
X72196761Y-116415333D01*
X72196761Y-116536285D01*
X72172571Y-116633047D01*
X72148380Y-116681428D01*
X72124190Y-116705619D01*
X72075809Y-116729809D01*
X72027428Y-116729809D01*
X71979047Y-116705619D01*
X71954857Y-116681428D01*
X71930666Y-116633047D01*
X71906476Y-116536285D01*
X71906476Y-116415333D01*
X71930666Y-116318571D01*
X71954857Y-116270190D01*
X71979047Y-116246000D01*
X72027428Y-116221809D01*
X72414476Y-116729809D02*
X72414476Y-116221809D01*
X72583809Y-116584666D01*
X72753142Y-116221809D01*
X72753142Y-116729809D01*
D10*
X48209238Y-129720952D02*
X48209238Y-129320952D01*
X48209238Y-129511428D02*
X48437809Y-129511428D01*
X48437809Y-129720952D02*
X48437809Y-129320952D01*
X48799714Y-129454285D02*
X48799714Y-129720952D01*
X48704476Y-129301904D02*
X48609238Y-129587619D01*
X48856857Y-129587619D01*
D16*
X48105785Y-123974785D02*
X47978785Y-123974785D01*
X47978785Y-124174357D02*
X47978785Y-123793357D01*
X48160214Y-123793357D01*
X48305357Y-124174357D02*
X48305357Y-123793357D01*
X48486785Y-124174357D02*
X48486785Y-123793357D01*
X48577500Y-123793357D01*
X48631928Y-123811500D01*
X48668214Y-123847785D01*
X48686357Y-123884071D01*
X48704500Y-123956642D01*
X48704500Y-124011071D01*
X48686357Y-124083642D01*
X48668214Y-124119928D01*
X48631928Y-124156214D01*
X48577500Y-124174357D01*
X48486785Y-124174357D01*
X49031071Y-123920357D02*
X49031071Y-124174357D01*
X48940357Y-123775214D02*
X48849642Y-124047357D01*
X49085500Y-124047357D01*
D15*
X76405723Y-125004895D02*
X76405723Y-125662876D01*
X76444428Y-125740285D01*
X76483133Y-125778990D01*
X76560542Y-125817695D01*
X76715361Y-125817695D01*
X76792771Y-125778990D01*
X76831476Y-125740285D01*
X76870180Y-125662876D01*
X76870180Y-125004895D01*
X77605571Y-125275828D02*
X77605571Y-125817695D01*
X77412047Y-124966190D02*
X77218523Y-125546761D01*
X77721685Y-125546761D01*
D12*
X74412428Y-126187809D02*
X74751095Y-126187809D01*
X74533380Y-126695809D01*
X75162333Y-126357142D02*
X75162333Y-126695809D01*
X75041380Y-126163619D02*
X74920428Y-126526476D01*
X75234904Y-126526476D01*
X75404238Y-126550666D02*
X75646142Y-126550666D01*
X75355857Y-126695809D02*
X75525190Y-126187809D01*
X75694523Y-126695809D01*
X75863857Y-126695809D02*
X75863857Y-126187809D01*
X75863857Y-126429714D02*
X76154142Y-126429714D01*
X76154142Y-126695809D02*
X76154142Y-126187809D01*
X76686333Y-126647428D02*
X76662142Y-126671619D01*
X76589571Y-126695809D01*
X76541190Y-126695809D01*
X76468619Y-126671619D01*
X76420238Y-126623238D01*
X76396047Y-126574857D01*
X76371857Y-126478095D01*
X76371857Y-126405523D01*
X76396047Y-126308761D01*
X76420238Y-126260380D01*
X76468619Y-126212000D01*
X76541190Y-126187809D01*
X76589571Y-126187809D01*
X76662142Y-126212000D01*
X76686333Y-126236190D01*
X76831476Y-126187809D02*
X77121761Y-126187809D01*
X76976619Y-126695809D02*
X76976619Y-126187809D01*
X77266904Y-126236190D02*
X77291095Y-126212000D01*
X77339476Y-126187809D01*
X77460428Y-126187809D01*
X77508809Y-126212000D01*
X77533000Y-126236190D01*
X77557190Y-126284571D01*
X77557190Y-126332952D01*
X77533000Y-126405523D01*
X77242714Y-126695809D01*
X77557190Y-126695809D01*
X77992619Y-126357142D02*
X77992619Y-126695809D01*
X77871666Y-126163619D02*
X77750714Y-126526476D01*
X78065190Y-126526476D01*
X78500619Y-126187809D02*
X78258714Y-126187809D01*
X78234523Y-126429714D01*
X78258714Y-126405523D01*
X78307095Y-126381333D01*
X78428047Y-126381333D01*
X78476428Y-126405523D01*
X78500619Y-126429714D01*
X78524809Y-126478095D01*
X78524809Y-126599047D01*
X78500619Y-126647428D01*
X78476428Y-126671619D01*
X78428047Y-126695809D01*
X78307095Y-126695809D01*
X78258714Y-126671619D01*
X78234523Y-126647428D01*
X78742523Y-126695809D02*
X78742523Y-126187809D01*
X78936047Y-126187809D01*
X78984428Y-126212000D01*
X79008619Y-126236190D01*
X79032809Y-126284571D01*
X79032809Y-126357142D01*
X79008619Y-126405523D01*
X78984428Y-126429714D01*
X78936047Y-126453904D01*
X78742523Y-126453904D01*
X79202142Y-126187809D02*
X79323095Y-126695809D01*
X79419857Y-126332952D01*
X79516619Y-126695809D01*
X79637571Y-126187809D01*
D13*
X71960904Y-110814476D02*
X72166523Y-110814476D01*
X72190714Y-110802380D01*
X72202809Y-110790285D01*
X72214904Y-110766095D01*
X72214904Y-110717714D01*
X72202809Y-110693523D01*
X72190714Y-110681428D01*
X72166523Y-110669333D01*
X71960904Y-110669333D01*
X72214904Y-110415333D02*
X72214904Y-110560476D01*
X72214904Y-110487904D02*
X71960904Y-110487904D01*
X71997190Y-110512095D01*
X72021380Y-110536285D01*
X72033476Y-110560476D01*
X71960904Y-110258095D02*
X71960904Y-110233904D01*
X71973000Y-110209714D01*
X71985095Y-110197619D01*
X72009285Y-110185523D01*
X72057666Y-110173428D01*
X72118142Y-110173428D01*
X72166523Y-110185523D01*
X72190714Y-110197619D01*
X72202809Y-110209714D01*
X72214904Y-110233904D01*
X72214904Y-110258095D01*
X72202809Y-110282285D01*
X72190714Y-110294380D01*
X72166523Y-110306476D01*
X72118142Y-110318571D01*
X72057666Y-110318571D01*
X72009285Y-110306476D01*
X71985095Y-110294380D01*
X71973000Y-110282285D01*
X71960904Y-110258095D01*
D17*
X71645678Y-111479714D02*
X71645678Y-111352714D01*
X71836178Y-111434357D01*
X71709178Y-111198500D02*
X71836178Y-111198500D01*
X71636607Y-111243857D02*
X71772678Y-111289214D01*
X71772678Y-111171285D01*
X71836178Y-111008000D02*
X71836178Y-111098714D01*
X71645678Y-111098714D01*
X71645678Y-110971714D02*
X71836178Y-110908214D01*
X71645678Y-110844714D01*
X71818035Y-110672357D02*
X71827107Y-110681428D01*
X71836178Y-110708642D01*
X71836178Y-110726785D01*
X71827107Y-110754000D01*
X71808964Y-110772142D01*
X71790821Y-110781214D01*
X71754535Y-110790285D01*
X71727321Y-110790285D01*
X71691035Y-110781214D01*
X71672892Y-110772142D01*
X71654750Y-110754000D01*
X71645678Y-110726785D01*
X71645678Y-110708642D01*
X71654750Y-110681428D01*
X71663821Y-110672357D01*
X71836178Y-110490928D02*
X71836178Y-110599785D01*
X71836178Y-110545357D02*
X71645678Y-110545357D01*
X71672892Y-110563500D01*
X71691035Y-110581642D01*
X71700107Y-110599785D01*
X71654750Y-110309500D02*
X71645678Y-110327642D01*
X71645678Y-110354857D01*
X71654750Y-110382071D01*
X71672892Y-110400214D01*
X71691035Y-110409285D01*
X71727321Y-110418357D01*
X71754535Y-110418357D01*
X71790821Y-110409285D01*
X71808964Y-110400214D01*
X71827107Y-110382071D01*
X71836178Y-110354857D01*
X71836178Y-110336714D01*
X71827107Y-110309500D01*
X71818035Y-110300428D01*
X71754535Y-110300428D01*
X71754535Y-110336714D01*
X71645678Y-110182500D02*
X71645678Y-110164357D01*
X71654750Y-110146214D01*
X71663821Y-110137142D01*
X71681964Y-110128071D01*
X71718250Y-110119000D01*
X71763607Y-110119000D01*
X71799892Y-110128071D01*
X71818035Y-110137142D01*
X71827107Y-110146214D01*
X71836178Y-110164357D01*
X71836178Y-110182500D01*
X71827107Y-110200642D01*
X71818035Y-110209714D01*
X71799892Y-110218785D01*
X71763607Y-110227857D01*
X71718250Y-110227857D01*
X71681964Y-110218785D01*
X71663821Y-110209714D01*
X71654750Y-110200642D01*
X71645678Y-110182500D01*
X71709178Y-109955714D02*
X71836178Y-109955714D01*
X71636607Y-110001071D02*
X71772678Y-110046428D01*
X71772678Y-109928500D01*
X71654750Y-109756142D02*
X71645678Y-109774285D01*
X71645678Y-109801500D01*
X71654750Y-109828714D01*
X71672892Y-109846857D01*
X71691035Y-109855928D01*
X71727321Y-109865000D01*
X71754535Y-109865000D01*
X71790821Y-109855928D01*
X71808964Y-109846857D01*
X71827107Y-109828714D01*
X71836178Y-109801500D01*
X71836178Y-109783357D01*
X71827107Y-109756142D01*
X71818035Y-109747071D01*
X71754535Y-109747071D01*
X71754535Y-109783357D01*
X71645678Y-109683571D02*
X71836178Y-109638214D01*
X71700107Y-109601928D01*
X71836178Y-109565642D01*
X71645678Y-109520285D01*
D13*
X69760904Y-123343523D02*
X69966523Y-123343523D01*
X69990714Y-123331428D01*
X70002809Y-123319333D01*
X70014904Y-123295142D01*
X70014904Y-123246761D01*
X70002809Y-123222571D01*
X69990714Y-123210476D01*
X69966523Y-123198380D01*
X69760904Y-123198380D01*
X70014904Y-123065333D02*
X70014904Y-123016952D01*
X70002809Y-122992761D01*
X69990714Y-122980666D01*
X69954428Y-122956476D01*
X69906047Y-122944380D01*
X69809285Y-122944380D01*
X69785095Y-122956476D01*
X69773000Y-122968571D01*
X69760904Y-122992761D01*
X69760904Y-123041142D01*
X69773000Y-123065333D01*
X69785095Y-123077428D01*
X69809285Y-123089523D01*
X69869761Y-123089523D01*
X69893952Y-123077428D01*
X69906047Y-123065333D01*
X69918142Y-123041142D01*
X69918142Y-122992761D01*
X69906047Y-122968571D01*
X69893952Y-122956476D01*
X69869761Y-122944380D01*
D17*
X70145678Y-124129714D02*
X70145678Y-124002714D01*
X70336178Y-124084357D01*
X70209178Y-123848500D02*
X70336178Y-123848500D01*
X70136607Y-123893857D02*
X70272678Y-123939214D01*
X70272678Y-123821285D01*
X70336178Y-123658000D02*
X70336178Y-123748714D01*
X70145678Y-123748714D01*
X70145678Y-123621714D02*
X70336178Y-123558214D01*
X70145678Y-123494714D01*
X70318035Y-123322357D02*
X70327107Y-123331428D01*
X70336178Y-123358642D01*
X70336178Y-123376785D01*
X70327107Y-123404000D01*
X70308964Y-123422142D01*
X70290821Y-123431214D01*
X70254535Y-123440285D01*
X70227321Y-123440285D01*
X70191035Y-123431214D01*
X70172892Y-123422142D01*
X70154750Y-123404000D01*
X70145678Y-123376785D01*
X70145678Y-123358642D01*
X70154750Y-123331428D01*
X70163821Y-123322357D01*
X70336178Y-123140928D02*
X70336178Y-123249785D01*
X70336178Y-123195357D02*
X70145678Y-123195357D01*
X70172892Y-123213500D01*
X70191035Y-123231642D01*
X70200107Y-123249785D01*
X70154750Y-122959500D02*
X70145678Y-122977642D01*
X70145678Y-123004857D01*
X70154750Y-123032071D01*
X70172892Y-123050214D01*
X70191035Y-123059285D01*
X70227321Y-123068357D01*
X70254535Y-123068357D01*
X70290821Y-123059285D01*
X70308964Y-123050214D01*
X70327107Y-123032071D01*
X70336178Y-123004857D01*
X70336178Y-122986714D01*
X70327107Y-122959500D01*
X70318035Y-122950428D01*
X70254535Y-122950428D01*
X70254535Y-122986714D01*
X70145678Y-122832500D02*
X70145678Y-122814357D01*
X70154750Y-122796214D01*
X70163821Y-122787142D01*
X70181964Y-122778071D01*
X70218250Y-122769000D01*
X70263607Y-122769000D01*
X70299892Y-122778071D01*
X70318035Y-122787142D01*
X70327107Y-122796214D01*
X70336178Y-122814357D01*
X70336178Y-122832500D01*
X70327107Y-122850642D01*
X70318035Y-122859714D01*
X70299892Y-122868785D01*
X70263607Y-122877857D01*
X70218250Y-122877857D01*
X70181964Y-122868785D01*
X70163821Y-122859714D01*
X70154750Y-122850642D01*
X70145678Y-122832500D01*
X70209178Y-122605714D02*
X70336178Y-122605714D01*
X70136607Y-122651071D02*
X70272678Y-122696428D01*
X70272678Y-122578500D01*
X70154750Y-122406142D02*
X70145678Y-122424285D01*
X70145678Y-122451500D01*
X70154750Y-122478714D01*
X70172892Y-122496857D01*
X70191035Y-122505928D01*
X70227321Y-122515000D01*
X70254535Y-122515000D01*
X70290821Y-122505928D01*
X70308964Y-122496857D01*
X70327107Y-122478714D01*
X70336178Y-122451500D01*
X70336178Y-122433357D01*
X70327107Y-122406142D01*
X70318035Y-122397071D01*
X70254535Y-122397071D01*
X70254535Y-122433357D01*
X70145678Y-122333571D02*
X70336178Y-122288214D01*
X70200107Y-122251928D01*
X70336178Y-122215642D01*
X70145678Y-122170285D01*
D15*
X94805723Y-125004895D02*
X94805723Y-125662876D01*
X94844428Y-125740285D01*
X94883133Y-125778990D01*
X94960542Y-125817695D01*
X95115361Y-125817695D01*
X95192771Y-125778990D01*
X95231476Y-125740285D01*
X95270180Y-125662876D01*
X95270180Y-125004895D01*
X96005571Y-125004895D02*
X95850752Y-125004895D01*
X95773342Y-125043600D01*
X95734638Y-125082304D01*
X95657228Y-125198419D01*
X95618523Y-125353238D01*
X95618523Y-125662876D01*
X95657228Y-125740285D01*
X95695933Y-125778990D01*
X95773342Y-125817695D01*
X95928161Y-125817695D01*
X96005571Y-125778990D01*
X96044276Y-125740285D01*
X96082980Y-125662876D01*
X96082980Y-125469352D01*
X96044276Y-125391942D01*
X96005571Y-125353238D01*
X95928161Y-125314533D01*
X95773342Y-125314533D01*
X95695933Y-125353238D01*
X95657228Y-125391942D01*
X95618523Y-125469352D01*
D12*
X92848714Y-126187809D02*
X93187380Y-126187809D01*
X92969666Y-126695809D01*
X93598619Y-126357142D02*
X93598619Y-126695809D01*
X93477666Y-126163619D02*
X93356714Y-126526476D01*
X93671190Y-126526476D01*
X94106619Y-126695809D02*
X93864714Y-126695809D01*
X93864714Y-126187809D01*
X94203380Y-126187809D02*
X94372714Y-126695809D01*
X94542047Y-126187809D01*
X95001666Y-126647428D02*
X94977476Y-126671619D01*
X94904904Y-126695809D01*
X94856523Y-126695809D01*
X94783952Y-126671619D01*
X94735571Y-126623238D01*
X94711380Y-126574857D01*
X94687190Y-126478095D01*
X94687190Y-126405523D01*
X94711380Y-126308761D01*
X94735571Y-126260380D01*
X94783952Y-126212000D01*
X94856523Y-126187809D01*
X94904904Y-126187809D01*
X94977476Y-126212000D01*
X95001666Y-126236190D01*
X95195190Y-126236190D02*
X95219380Y-126212000D01*
X95267761Y-126187809D01*
X95388714Y-126187809D01*
X95437095Y-126212000D01*
X95461285Y-126236190D01*
X95485476Y-126284571D01*
X95485476Y-126332952D01*
X95461285Y-126405523D01*
X95171000Y-126695809D01*
X95485476Y-126695809D01*
X95920904Y-126357142D02*
X95920904Y-126695809D01*
X95799952Y-126163619D02*
X95679000Y-126526476D01*
X95993476Y-126526476D01*
X96428904Y-126187809D02*
X96187000Y-126187809D01*
X96162809Y-126429714D01*
X96187000Y-126405523D01*
X96235380Y-126381333D01*
X96356333Y-126381333D01*
X96404714Y-126405523D01*
X96428904Y-126429714D01*
X96453095Y-126478095D01*
X96453095Y-126599047D01*
X96428904Y-126647428D01*
X96404714Y-126671619D01*
X96356333Y-126695809D01*
X96235380Y-126695809D01*
X96187000Y-126671619D01*
X96162809Y-126647428D01*
X96646619Y-126550666D02*
X96888523Y-126550666D01*
X96598238Y-126695809D02*
X96767571Y-126187809D01*
X96936904Y-126695809D01*
X97106238Y-126695809D02*
X97106238Y-126187809D01*
X97299761Y-126187809D01*
X97348142Y-126212000D01*
X97372333Y-126236190D01*
X97396523Y-126284571D01*
X97396523Y-126357142D01*
X97372333Y-126405523D01*
X97348142Y-126429714D01*
X97299761Y-126453904D01*
X97106238Y-126453904D01*
X97565857Y-126187809D02*
X97686809Y-126695809D01*
X97783571Y-126332952D01*
X97880333Y-126695809D01*
X98001285Y-126187809D01*
D15*
X85605723Y-125004895D02*
X85605723Y-125662876D01*
X85644428Y-125740285D01*
X85683133Y-125778990D01*
X85760542Y-125817695D01*
X85915361Y-125817695D01*
X85992771Y-125778990D01*
X86031476Y-125740285D01*
X86070180Y-125662876D01*
X86070180Y-125004895D01*
X86844276Y-125004895D02*
X86457228Y-125004895D01*
X86418523Y-125391942D01*
X86457228Y-125353238D01*
X86534638Y-125314533D01*
X86728161Y-125314533D01*
X86805571Y-125353238D01*
X86844276Y-125391942D01*
X86882980Y-125469352D01*
X86882980Y-125662876D01*
X86844276Y-125740285D01*
X86805571Y-125778990D01*
X86728161Y-125817695D01*
X86534638Y-125817695D01*
X86457228Y-125778990D01*
X86418523Y-125740285D01*
D12*
X83648714Y-126187809D02*
X83987380Y-126187809D01*
X83769666Y-126695809D01*
X84398619Y-126357142D02*
X84398619Y-126695809D01*
X84277666Y-126163619D02*
X84156714Y-126526476D01*
X84471190Y-126526476D01*
X84906619Y-126695809D02*
X84664714Y-126695809D01*
X84664714Y-126187809D01*
X85003380Y-126187809D02*
X85172714Y-126695809D01*
X85342047Y-126187809D01*
X85801666Y-126647428D02*
X85777476Y-126671619D01*
X85704904Y-126695809D01*
X85656523Y-126695809D01*
X85583952Y-126671619D01*
X85535571Y-126623238D01*
X85511380Y-126574857D01*
X85487190Y-126478095D01*
X85487190Y-126405523D01*
X85511380Y-126308761D01*
X85535571Y-126260380D01*
X85583952Y-126212000D01*
X85656523Y-126187809D01*
X85704904Y-126187809D01*
X85777476Y-126212000D01*
X85801666Y-126236190D01*
X85995190Y-126236190D02*
X86019380Y-126212000D01*
X86067761Y-126187809D01*
X86188714Y-126187809D01*
X86237095Y-126212000D01*
X86261285Y-126236190D01*
X86285476Y-126284571D01*
X86285476Y-126332952D01*
X86261285Y-126405523D01*
X85971000Y-126695809D01*
X86285476Y-126695809D01*
X86720904Y-126357142D02*
X86720904Y-126695809D01*
X86599952Y-126163619D02*
X86479000Y-126526476D01*
X86793476Y-126526476D01*
X87228904Y-126187809D02*
X86987000Y-126187809D01*
X86962809Y-126429714D01*
X86987000Y-126405523D01*
X87035380Y-126381333D01*
X87156333Y-126381333D01*
X87204714Y-126405523D01*
X87228904Y-126429714D01*
X87253095Y-126478095D01*
X87253095Y-126599047D01*
X87228904Y-126647428D01*
X87204714Y-126671619D01*
X87156333Y-126695809D01*
X87035380Y-126695809D01*
X86987000Y-126671619D01*
X86962809Y-126647428D01*
X87446619Y-126550666D02*
X87688523Y-126550666D01*
X87398238Y-126695809D02*
X87567571Y-126187809D01*
X87736904Y-126695809D01*
X87906238Y-126695809D02*
X87906238Y-126187809D01*
X88099761Y-126187809D01*
X88148142Y-126212000D01*
X88172333Y-126236190D01*
X88196523Y-126284571D01*
X88196523Y-126357142D01*
X88172333Y-126405523D01*
X88148142Y-126429714D01*
X88099761Y-126453904D01*
X87906238Y-126453904D01*
X88365857Y-126187809D02*
X88486809Y-126695809D01*
X88583571Y-126332952D01*
X88680333Y-126695809D01*
X88801285Y-126187809D01*
D13*
X53986714Y-99440714D02*
X53974619Y-99452809D01*
X53938333Y-99464904D01*
X53914142Y-99464904D01*
X53877857Y-99452809D01*
X53853666Y-99428619D01*
X53841571Y-99404428D01*
X53829476Y-99356047D01*
X53829476Y-99319761D01*
X53841571Y-99271380D01*
X53853666Y-99247190D01*
X53877857Y-99223000D01*
X53914142Y-99210904D01*
X53938333Y-99210904D01*
X53974619Y-99223000D01*
X53986714Y-99235095D01*
X54228619Y-99464904D02*
X54083476Y-99464904D01*
X54156047Y-99464904D02*
X54156047Y-99210904D01*
X54131857Y-99247190D01*
X54107666Y-99271380D01*
X54083476Y-99283476D01*
X54313285Y-99210904D02*
X54482619Y-99210904D01*
X54373761Y-99464904D01*
D14*
X53995785Y-99542547D02*
X54001833Y-99536500D01*
X54013928Y-99530452D01*
X54044166Y-99530452D01*
X54056261Y-99536500D01*
X54062309Y-99542547D01*
X54068357Y-99554642D01*
X54068357Y-99566738D01*
X54062309Y-99584880D01*
X53989738Y-99657452D01*
X54068357Y-99657452D01*
X54177214Y-99572785D02*
X54177214Y-99657452D01*
X54122785Y-99572785D02*
X54122785Y-99639309D01*
X54128833Y-99651404D01*
X54140928Y-99657452D01*
X54159071Y-99657452D01*
X54171166Y-99651404D01*
X54177214Y-99645357D01*
X54231642Y-99542547D02*
X54237690Y-99536500D01*
X54249785Y-99530452D01*
X54280023Y-99530452D01*
X54292119Y-99536500D01*
X54298166Y-99542547D01*
X54304214Y-99554642D01*
X54304214Y-99566738D01*
X54298166Y-99584880D01*
X54225595Y-99657452D01*
X54304214Y-99657452D01*
D13*
X58986714Y-124340714D02*
X58974619Y-124352809D01*
X58938333Y-124364904D01*
X58914142Y-124364904D01*
X58877857Y-124352809D01*
X58853666Y-124328619D01*
X58841571Y-124304428D01*
X58829476Y-124256047D01*
X58829476Y-124219761D01*
X58841571Y-124171380D01*
X58853666Y-124147190D01*
X58877857Y-124123000D01*
X58914142Y-124110904D01*
X58938333Y-124110904D01*
X58974619Y-124123000D01*
X58986714Y-124135095D01*
X59083476Y-124135095D02*
X59095571Y-124123000D01*
X59119761Y-124110904D01*
X59180238Y-124110904D01*
X59204428Y-124123000D01*
X59216523Y-124135095D01*
X59228619Y-124159285D01*
X59228619Y-124183476D01*
X59216523Y-124219761D01*
X59071380Y-124364904D01*
X59228619Y-124364904D01*
X59446333Y-124110904D02*
X59397952Y-124110904D01*
X59373761Y-124123000D01*
X59361666Y-124135095D01*
X59337476Y-124171380D01*
X59325380Y-124219761D01*
X59325380Y-124316523D01*
X59337476Y-124340714D01*
X59349571Y-124352809D01*
X59373761Y-124364904D01*
X59422142Y-124364904D01*
X59446333Y-124352809D01*
X59458428Y-124340714D01*
X59470523Y-124316523D01*
X59470523Y-124256047D01*
X59458428Y-124231857D01*
X59446333Y-124219761D01*
X59422142Y-124207666D01*
X59373761Y-124207666D01*
X59349571Y-124219761D01*
X59337476Y-124231857D01*
X59325380Y-124256047D01*
X58986714Y-124714904D02*
X58841571Y-124714904D01*
X58914142Y-124714904D02*
X58914142Y-124460904D01*
X58889952Y-124497190D01*
X58865761Y-124521380D01*
X58841571Y-124533476D01*
X59143952Y-124460904D02*
X59168142Y-124460904D01*
X59192333Y-124473000D01*
X59204428Y-124485095D01*
X59216523Y-124509285D01*
X59228619Y-124557666D01*
X59228619Y-124618142D01*
X59216523Y-124666523D01*
X59204428Y-124690714D01*
X59192333Y-124702809D01*
X59168142Y-124714904D01*
X59143952Y-124714904D01*
X59119761Y-124702809D01*
X59107666Y-124690714D01*
X59095571Y-124666523D01*
X59083476Y-124618142D01*
X59083476Y-124557666D01*
X59095571Y-124509285D01*
X59107666Y-124485095D01*
X59119761Y-124473000D01*
X59143952Y-124460904D01*
X59446333Y-124545571D02*
X59446333Y-124714904D01*
X59337476Y-124545571D02*
X59337476Y-124678619D01*
X59349571Y-124702809D01*
X59373761Y-124714904D01*
X59410047Y-124714904D01*
X59434238Y-124702809D01*
X59446333Y-124690714D01*
D15*
X53764300Y-132396895D02*
X53764300Y-132977466D01*
X53725596Y-133093580D01*
X53648186Y-133170990D01*
X53532072Y-133209695D01*
X53454662Y-133209695D01*
X54577100Y-133209695D02*
X54112643Y-133209695D01*
X54344872Y-133209695D02*
X54344872Y-132396895D01*
X54267462Y-132513009D01*
X54190053Y-132590419D01*
X54112643Y-132629123D01*
X46565215Y-134352695D02*
X46565215Y-133539895D01*
X46952262Y-134352695D02*
X46952262Y-133539895D01*
X47687653Y-133810828D02*
X47687653Y-134468809D01*
X47648948Y-134546219D01*
X47610243Y-134584923D01*
X47532834Y-134623628D01*
X47416720Y-134623628D01*
X47339310Y-134584923D01*
X47687653Y-134313990D02*
X47610243Y-134352695D01*
X47455424Y-134352695D01*
X47378015Y-134313990D01*
X47339310Y-134275285D01*
X47300605Y-134197876D01*
X47300605Y-133965647D01*
X47339310Y-133888238D01*
X47378015Y-133849533D01*
X47455424Y-133810828D01*
X47610243Y-133810828D01*
X47687653Y-133849533D01*
X48035996Y-134313990D02*
X48113405Y-134352695D01*
X48268224Y-134352695D01*
X48345634Y-134313990D01*
X48384339Y-134236580D01*
X48384339Y-134197876D01*
X48345634Y-134120466D01*
X48268224Y-134081761D01*
X48152110Y-134081761D01*
X48074700Y-134043057D01*
X48035996Y-133965647D01*
X48035996Y-133926942D01*
X48074700Y-133849533D01*
X48152110Y-133810828D01*
X48268224Y-133810828D01*
X48345634Y-133849533D01*
X49816415Y-134352695D02*
X49545481Y-133965647D01*
X49351958Y-134352695D02*
X49351958Y-133539895D01*
X49661596Y-133539895D01*
X49739005Y-133578600D01*
X49777710Y-133617304D01*
X49816415Y-133694714D01*
X49816415Y-133810828D01*
X49777710Y-133888238D01*
X49739005Y-133926942D01*
X49661596Y-133965647D01*
X49351958Y-133965647D01*
X50126053Y-134120466D02*
X50513100Y-134120466D01*
X50048643Y-134352695D02*
X50319577Y-133539895D01*
X50590510Y-134352695D01*
X50861443Y-134352695D02*
X50861443Y-133539895D01*
X51132377Y-134120466D01*
X51403310Y-133539895D01*
X51403310Y-134352695D01*
X52409634Y-133926942D02*
X52680567Y-133926942D01*
X52796681Y-134352695D02*
X52409634Y-134352695D01*
X52409634Y-133539895D01*
X52796681Y-133539895D01*
X53067615Y-134352695D02*
X53493367Y-133810828D01*
X53067615Y-133810828D02*
X53493367Y-134352695D01*
X53803005Y-133810828D02*
X53803005Y-134623628D01*
X53803005Y-133849533D02*
X53880415Y-133810828D01*
X54035234Y-133810828D01*
X54112643Y-133849533D01*
X54151348Y-133888238D01*
X54190053Y-133965647D01*
X54190053Y-134197876D01*
X54151348Y-134275285D01*
X54112643Y-134313990D01*
X54035234Y-134352695D01*
X53880415Y-134352695D01*
X53803005Y-134313990D01*
X54538396Y-134275285D02*
X54577100Y-134313990D01*
X54538396Y-134352695D01*
X54499691Y-134313990D01*
X54538396Y-134275285D01*
X54538396Y-134352695D01*
X105023157Y-95493684D02*
X104612631Y-95904210D01*
X104503158Y-95958947D01*
X104393684Y-95958947D01*
X104284211Y-95904210D01*
X104229474Y-95849473D01*
X105214736Y-95794737D02*
X105269473Y-95794737D01*
X105351578Y-95822105D01*
X105488420Y-95958947D01*
X105515788Y-96041052D01*
X105515788Y-96095789D01*
X105488420Y-96177894D01*
X105433683Y-96232631D01*
X105324210Y-96287368D01*
X104667368Y-96287368D01*
X105023157Y-96643157D01*
X106512323Y-96964737D02*
X106101797Y-97375263D01*
X105992324Y-97430000D01*
X105882850Y-97430000D01*
X105773377Y-97375263D01*
X105718640Y-97320526D01*
X106703902Y-97156316D02*
X107032323Y-97484737D01*
X106293376Y-97895263D02*
X106868113Y-97320526D01*
X106786007Y-98059473D02*
X107059691Y-98333157D01*
X106567060Y-98168947D02*
X107333375Y-97785789D01*
X106950218Y-98552104D01*
X107990217Y-98497367D02*
X107962848Y-98415262D01*
X107880743Y-98333157D01*
X107771270Y-98278420D01*
X107661796Y-98278420D01*
X107579691Y-98305789D01*
X107442849Y-98387894D01*
X107360744Y-98469999D01*
X107278638Y-98606841D01*
X107251270Y-98688946D01*
X107251270Y-98798420D01*
X107306007Y-98907893D01*
X107360744Y-98962630D01*
X107470217Y-99017367D01*
X107524954Y-99017367D01*
X107716533Y-98825788D01*
X107607059Y-98716315D01*
D11*
X103625522Y-100792072D02*
X103120446Y-101297148D01*
X102985759Y-101364492D01*
X102851072Y-101364492D01*
X102716385Y-101297148D01*
X102649042Y-101229805D01*
X103861225Y-101162461D02*
X103928568Y-101162461D01*
X104029583Y-101196133D01*
X104197942Y-101364492D01*
X104231614Y-101465507D01*
X104231614Y-101532851D01*
X104197942Y-101633866D01*
X104130599Y-101701209D01*
X103995912Y-101768553D01*
X103187790Y-101768553D01*
X103625522Y-102206286D01*
D13*
X107657666Y-116240714D02*
X107645571Y-116252809D01*
X107609285Y-116264904D01*
X107585095Y-116264904D01*
X107548809Y-116252809D01*
X107524619Y-116228619D01*
X107512523Y-116204428D01*
X107500428Y-116156047D01*
X107500428Y-116119761D01*
X107512523Y-116071380D01*
X107524619Y-116047190D01*
X107548809Y-116023000D01*
X107585095Y-116010904D01*
X107609285Y-116010904D01*
X107645571Y-116023000D01*
X107657666Y-116035095D01*
X107875380Y-116095571D02*
X107875380Y-116264904D01*
X107814904Y-115998809D02*
X107754428Y-116180238D01*
X107911666Y-116180238D01*
X107536714Y-116614904D02*
X107391571Y-116614904D01*
X107464142Y-116614904D02*
X107464142Y-116360904D01*
X107439952Y-116397190D01*
X107415761Y-116421380D01*
X107391571Y-116433476D01*
X107693952Y-116360904D02*
X107718142Y-116360904D01*
X107742333Y-116373000D01*
X107754428Y-116385095D01*
X107766523Y-116409285D01*
X107778619Y-116457666D01*
X107778619Y-116518142D01*
X107766523Y-116566523D01*
X107754428Y-116590714D01*
X107742333Y-116602809D01*
X107718142Y-116614904D01*
X107693952Y-116614904D01*
X107669761Y-116602809D01*
X107657666Y-116590714D01*
X107645571Y-116566523D01*
X107633476Y-116518142D01*
X107633476Y-116457666D01*
X107645571Y-116409285D01*
X107657666Y-116385095D01*
X107669761Y-116373000D01*
X107693952Y-116360904D01*
X107996333Y-116445571D02*
X107996333Y-116614904D01*
X107887476Y-116445571D02*
X107887476Y-116578619D01*
X107899571Y-116602809D01*
X107923761Y-116614904D01*
X107960047Y-116614904D01*
X107984238Y-116602809D01*
X107996333Y-116590714D01*
X109457666Y-105640714D02*
X109445571Y-105652809D01*
X109409285Y-105664904D01*
X109385095Y-105664904D01*
X109348809Y-105652809D01*
X109324619Y-105628619D01*
X109312523Y-105604428D01*
X109300428Y-105556047D01*
X109300428Y-105519761D01*
X109312523Y-105471380D01*
X109324619Y-105447190D01*
X109348809Y-105423000D01*
X109385095Y-105410904D01*
X109409285Y-105410904D01*
X109445571Y-105423000D01*
X109457666Y-105435095D01*
X109542333Y-105410904D02*
X109699571Y-105410904D01*
X109614904Y-105507666D01*
X109651190Y-105507666D01*
X109675380Y-105519761D01*
X109687476Y-105531857D01*
X109699571Y-105556047D01*
X109699571Y-105616523D01*
X109687476Y-105640714D01*
X109675380Y-105652809D01*
X109651190Y-105664904D01*
X109578619Y-105664904D01*
X109554428Y-105652809D01*
X109542333Y-105640714D01*
X109336714Y-106014904D02*
X109191571Y-106014904D01*
X109264142Y-106014904D02*
X109264142Y-105760904D01*
X109239952Y-105797190D01*
X109215761Y-105821380D01*
X109191571Y-105833476D01*
X109493952Y-105760904D02*
X109518142Y-105760904D01*
X109542333Y-105773000D01*
X109554428Y-105785095D01*
X109566523Y-105809285D01*
X109578619Y-105857666D01*
X109578619Y-105918142D01*
X109566523Y-105966523D01*
X109554428Y-105990714D01*
X109542333Y-106002809D01*
X109518142Y-106014904D01*
X109493952Y-106014904D01*
X109469761Y-106002809D01*
X109457666Y-105990714D01*
X109445571Y-105966523D01*
X109433476Y-105918142D01*
X109433476Y-105857666D01*
X109445571Y-105809285D01*
X109457666Y-105785095D01*
X109469761Y-105773000D01*
X109493952Y-105760904D01*
X109796333Y-105845571D02*
X109796333Y-106014904D01*
X109687476Y-105845571D02*
X109687476Y-105978619D01*
X109699571Y-106002809D01*
X109723761Y-106014904D01*
X109760047Y-106014904D01*
X109784238Y-106002809D01*
X109796333Y-105990714D01*
X109939666Y-127979714D02*
X109927571Y-127991809D01*
X109891285Y-128003904D01*
X109867095Y-128003904D01*
X109830809Y-127991809D01*
X109806619Y-127967619D01*
X109794523Y-127943428D01*
X109782428Y-127895047D01*
X109782428Y-127858761D01*
X109794523Y-127810380D01*
X109806619Y-127786190D01*
X109830809Y-127762000D01*
X109867095Y-127749904D01*
X109891285Y-127749904D01*
X109927571Y-127762000D01*
X109939666Y-127774095D01*
X110036428Y-127774095D02*
X110048523Y-127762000D01*
X110072714Y-127749904D01*
X110133190Y-127749904D01*
X110157380Y-127762000D01*
X110169476Y-127774095D01*
X110181571Y-127798285D01*
X110181571Y-127822476D01*
X110169476Y-127858761D01*
X110024333Y-128003904D01*
X110181571Y-128003904D01*
X109818714Y-128353904D02*
X109673571Y-128353904D01*
X109746142Y-128353904D02*
X109746142Y-128099904D01*
X109721952Y-128136190D01*
X109697761Y-128160380D01*
X109673571Y-128172476D01*
X109975952Y-128099904D02*
X110000142Y-128099904D01*
X110024333Y-128112000D01*
X110036428Y-128124095D01*
X110048523Y-128148285D01*
X110060619Y-128196666D01*
X110060619Y-128257142D01*
X110048523Y-128305523D01*
X110036428Y-128329714D01*
X110024333Y-128341809D01*
X110000142Y-128353904D01*
X109975952Y-128353904D01*
X109951761Y-128341809D01*
X109939666Y-128329714D01*
X109927571Y-128305523D01*
X109915476Y-128257142D01*
X109915476Y-128196666D01*
X109927571Y-128148285D01*
X109939666Y-128124095D01*
X109951761Y-128112000D01*
X109975952Y-128099904D01*
X110278333Y-128184571D02*
X110278333Y-128353904D01*
X110169476Y-128184571D02*
X110169476Y-128317619D01*
X110181571Y-128341809D01*
X110205761Y-128353904D01*
X110242047Y-128353904D01*
X110266238Y-128341809D01*
X110278333Y-128329714D01*
X58885666Y-128868714D02*
X58873571Y-128880809D01*
X58837285Y-128892904D01*
X58813095Y-128892904D01*
X58776809Y-128880809D01*
X58752619Y-128856619D01*
X58740523Y-128832428D01*
X58728428Y-128784047D01*
X58728428Y-128747761D01*
X58740523Y-128699380D01*
X58752619Y-128675190D01*
X58776809Y-128651000D01*
X58813095Y-128638904D01*
X58837285Y-128638904D01*
X58873571Y-128651000D01*
X58885666Y-128663095D01*
X59127571Y-128892904D02*
X58982428Y-128892904D01*
X59055000Y-128892904D02*
X59055000Y-128638904D01*
X59030809Y-128675190D01*
X59006619Y-128699380D01*
X58982428Y-128711476D01*
X58764714Y-128542904D02*
X58619571Y-128542904D01*
X58692142Y-128542904D02*
X58692142Y-128288904D01*
X58667952Y-128325190D01*
X58643761Y-128349380D01*
X58619571Y-128361476D01*
X58921952Y-128288904D02*
X58946142Y-128288904D01*
X58970333Y-128301000D01*
X58982428Y-128313095D01*
X58994523Y-128337285D01*
X59006619Y-128385666D01*
X59006619Y-128446142D01*
X58994523Y-128494523D01*
X58982428Y-128518714D01*
X58970333Y-128530809D01*
X58946142Y-128542904D01*
X58921952Y-128542904D01*
X58897761Y-128530809D01*
X58885666Y-128518714D01*
X58873571Y-128494523D01*
X58861476Y-128446142D01*
X58861476Y-128385666D01*
X58873571Y-128337285D01*
X58885666Y-128313095D01*
X58897761Y-128301000D01*
X58921952Y-128288904D01*
X59224333Y-128373571D02*
X59224333Y-128542904D01*
X59115476Y-128373571D02*
X59115476Y-128506619D01*
X59127571Y-128530809D01*
X59151761Y-128542904D01*
X59188047Y-128542904D01*
X59212238Y-128530809D01*
X59224333Y-128518714D01*
X72690714Y-123292333D02*
X72702809Y-123304428D01*
X72714904Y-123340714D01*
X72714904Y-123364904D01*
X72702809Y-123401190D01*
X72678619Y-123425380D01*
X72654428Y-123437476D01*
X72606047Y-123449571D01*
X72569761Y-123449571D01*
X72521380Y-123437476D01*
X72497190Y-123425380D01*
X72473000Y-123401190D01*
X72460904Y-123364904D01*
X72460904Y-123340714D01*
X72473000Y-123304428D01*
X72485095Y-123292333D01*
X72460904Y-123062523D02*
X72460904Y-123183476D01*
X72581857Y-123195571D01*
X72569761Y-123183476D01*
X72557666Y-123159285D01*
X72557666Y-123098809D01*
X72569761Y-123074619D01*
X72581857Y-123062523D01*
X72606047Y-123050428D01*
X72666523Y-123050428D01*
X72690714Y-123062523D01*
X72702809Y-123074619D01*
X72714904Y-123098809D01*
X72714904Y-123159285D01*
X72702809Y-123183476D01*
X72690714Y-123195571D01*
D14*
X72292547Y-123404214D02*
X72286500Y-123398166D01*
X72280452Y-123386071D01*
X72280452Y-123355833D01*
X72286500Y-123343738D01*
X72292547Y-123337690D01*
X72304642Y-123331642D01*
X72316738Y-123331642D01*
X72334880Y-123337690D01*
X72407452Y-123410261D01*
X72407452Y-123331642D01*
X72322785Y-123222785D02*
X72407452Y-123222785D01*
X72322785Y-123277214D02*
X72389309Y-123277214D01*
X72401404Y-123271166D01*
X72407452Y-123259071D01*
X72407452Y-123240928D01*
X72401404Y-123228833D01*
X72395357Y-123222785D01*
X72292547Y-123168357D02*
X72286500Y-123162309D01*
X72280452Y-123150214D01*
X72280452Y-123119976D01*
X72286500Y-123107880D01*
X72292547Y-123101833D01*
X72304642Y-123095785D01*
X72316738Y-123095785D01*
X72334880Y-123101833D01*
X72407452Y-123174404D01*
X72407452Y-123095785D01*
D13*
X63986714Y-124040714D02*
X63974619Y-124052809D01*
X63938333Y-124064904D01*
X63914142Y-124064904D01*
X63877857Y-124052809D01*
X63853666Y-124028619D01*
X63841571Y-124004428D01*
X63829476Y-123956047D01*
X63829476Y-123919761D01*
X63841571Y-123871380D01*
X63853666Y-123847190D01*
X63877857Y-123823000D01*
X63914142Y-123810904D01*
X63938333Y-123810904D01*
X63974619Y-123823000D01*
X63986714Y-123835095D01*
X64083476Y-123835095D02*
X64095571Y-123823000D01*
X64119761Y-123810904D01*
X64180238Y-123810904D01*
X64204428Y-123823000D01*
X64216523Y-123835095D01*
X64228619Y-123859285D01*
X64228619Y-123883476D01*
X64216523Y-123919761D01*
X64071380Y-124064904D01*
X64228619Y-124064904D01*
X64325380Y-123835095D02*
X64337476Y-123823000D01*
X64361666Y-123810904D01*
X64422142Y-123810904D01*
X64446333Y-123823000D01*
X64458428Y-123835095D01*
X64470523Y-123859285D01*
X64470523Y-123883476D01*
X64458428Y-123919761D01*
X64313285Y-124064904D01*
X64470523Y-124064904D01*
D14*
X63995785Y-124142547D02*
X64001833Y-124136500D01*
X64013928Y-124130452D01*
X64044166Y-124130452D01*
X64056261Y-124136500D01*
X64062309Y-124142547D01*
X64068357Y-124154642D01*
X64068357Y-124166738D01*
X64062309Y-124184880D01*
X63989738Y-124257452D01*
X64068357Y-124257452D01*
X64177214Y-124172785D02*
X64177214Y-124257452D01*
X64122785Y-124172785D02*
X64122785Y-124239309D01*
X64128833Y-124251404D01*
X64140928Y-124257452D01*
X64159071Y-124257452D01*
X64171166Y-124251404D01*
X64177214Y-124245357D01*
X64231642Y-124142547D02*
X64237690Y-124136500D01*
X64249785Y-124130452D01*
X64280023Y-124130452D01*
X64292119Y-124136500D01*
X64298166Y-124142547D01*
X64304214Y-124154642D01*
X64304214Y-124166738D01*
X64298166Y-124184880D01*
X64225595Y-124257452D01*
X64304214Y-124257452D01*
D13*
X51440714Y-102263285D02*
X51452809Y-102275380D01*
X51464904Y-102311666D01*
X51464904Y-102335857D01*
X51452809Y-102372142D01*
X51428619Y-102396333D01*
X51404428Y-102408428D01*
X51356047Y-102420523D01*
X51319761Y-102420523D01*
X51271380Y-102408428D01*
X51247190Y-102396333D01*
X51223000Y-102372142D01*
X51210904Y-102335857D01*
X51210904Y-102311666D01*
X51223000Y-102275380D01*
X51235095Y-102263285D01*
X51464904Y-102021380D02*
X51464904Y-102166523D01*
X51464904Y-102093952D02*
X51210904Y-102093952D01*
X51247190Y-102118142D01*
X51271380Y-102142333D01*
X51283476Y-102166523D01*
X51319761Y-101876238D02*
X51307666Y-101900428D01*
X51295571Y-101912523D01*
X51271380Y-101924619D01*
X51259285Y-101924619D01*
X51235095Y-101912523D01*
X51223000Y-101900428D01*
X51210904Y-101876238D01*
X51210904Y-101827857D01*
X51223000Y-101803666D01*
X51235095Y-101791571D01*
X51259285Y-101779476D01*
X51271380Y-101779476D01*
X51295571Y-101791571D01*
X51307666Y-101803666D01*
X51319761Y-101827857D01*
X51319761Y-101876238D01*
X51331857Y-101900428D01*
X51343952Y-101912523D01*
X51368142Y-101924619D01*
X51416523Y-101924619D01*
X51440714Y-101912523D01*
X51452809Y-101900428D01*
X51464904Y-101876238D01*
X51464904Y-101827857D01*
X51452809Y-101803666D01*
X51440714Y-101791571D01*
X51416523Y-101779476D01*
X51368142Y-101779476D01*
X51343952Y-101791571D01*
X51331857Y-101803666D01*
X51319761Y-101827857D01*
D14*
X51542547Y-102254214D02*
X51536500Y-102248166D01*
X51530452Y-102236071D01*
X51530452Y-102205833D01*
X51536500Y-102193738D01*
X51542547Y-102187690D01*
X51554642Y-102181642D01*
X51566738Y-102181642D01*
X51584880Y-102187690D01*
X51657452Y-102260261D01*
X51657452Y-102181642D01*
X51572785Y-102072785D02*
X51657452Y-102072785D01*
X51572785Y-102127214D02*
X51639309Y-102127214D01*
X51651404Y-102121166D01*
X51657452Y-102109071D01*
X51657452Y-102090928D01*
X51651404Y-102078833D01*
X51645357Y-102072785D01*
X51542547Y-102018357D02*
X51536500Y-102012309D01*
X51530452Y-102000214D01*
X51530452Y-101969976D01*
X51536500Y-101957880D01*
X51542547Y-101951833D01*
X51554642Y-101945785D01*
X51566738Y-101945785D01*
X51584880Y-101951833D01*
X51657452Y-102024404D01*
X51657452Y-101945785D01*
D13*
X63986714Y-99440714D02*
X63974619Y-99452809D01*
X63938333Y-99464904D01*
X63914142Y-99464904D01*
X63877857Y-99452809D01*
X63853666Y-99428619D01*
X63841571Y-99404428D01*
X63829476Y-99356047D01*
X63829476Y-99319761D01*
X63841571Y-99271380D01*
X63853666Y-99247190D01*
X63877857Y-99223000D01*
X63914142Y-99210904D01*
X63938333Y-99210904D01*
X63974619Y-99223000D01*
X63986714Y-99235095D01*
X64083476Y-99235095D02*
X64095571Y-99223000D01*
X64119761Y-99210904D01*
X64180238Y-99210904D01*
X64204428Y-99223000D01*
X64216523Y-99235095D01*
X64228619Y-99259285D01*
X64228619Y-99283476D01*
X64216523Y-99319761D01*
X64071380Y-99464904D01*
X64228619Y-99464904D01*
X64458428Y-99210904D02*
X64337476Y-99210904D01*
X64325380Y-99331857D01*
X64337476Y-99319761D01*
X64361666Y-99307666D01*
X64422142Y-99307666D01*
X64446333Y-99319761D01*
X64458428Y-99331857D01*
X64470523Y-99356047D01*
X64470523Y-99416523D01*
X64458428Y-99440714D01*
X64446333Y-99452809D01*
X64422142Y-99464904D01*
X64361666Y-99464904D01*
X64337476Y-99452809D01*
X64325380Y-99440714D01*
D14*
X63995785Y-99542547D02*
X64001833Y-99536500D01*
X64013928Y-99530452D01*
X64044166Y-99530452D01*
X64056261Y-99536500D01*
X64062309Y-99542547D01*
X64068357Y-99554642D01*
X64068357Y-99566738D01*
X64062309Y-99584880D01*
X63989738Y-99657452D01*
X64068357Y-99657452D01*
X64177214Y-99572785D02*
X64177214Y-99657452D01*
X64122785Y-99572785D02*
X64122785Y-99639309D01*
X64128833Y-99651404D01*
X64140928Y-99657452D01*
X64159071Y-99657452D01*
X64171166Y-99651404D01*
X64177214Y-99645357D01*
X64231642Y-99542547D02*
X64237690Y-99536500D01*
X64249785Y-99530452D01*
X64280023Y-99530452D01*
X64292119Y-99536500D01*
X64298166Y-99542547D01*
X64304214Y-99554642D01*
X64304214Y-99566738D01*
X64298166Y-99584880D01*
X64225595Y-99657452D01*
X64304214Y-99657452D01*
D13*
X53986714Y-124040714D02*
X53974619Y-124052809D01*
X53938333Y-124064904D01*
X53914142Y-124064904D01*
X53877857Y-124052809D01*
X53853666Y-124028619D01*
X53841571Y-124004428D01*
X53829476Y-123956047D01*
X53829476Y-123919761D01*
X53841571Y-123871380D01*
X53853666Y-123847190D01*
X53877857Y-123823000D01*
X53914142Y-123810904D01*
X53938333Y-123810904D01*
X53974619Y-123823000D01*
X53986714Y-123835095D01*
X54083476Y-123835095D02*
X54095571Y-123823000D01*
X54119761Y-123810904D01*
X54180238Y-123810904D01*
X54204428Y-123823000D01*
X54216523Y-123835095D01*
X54228619Y-123859285D01*
X54228619Y-123883476D01*
X54216523Y-123919761D01*
X54071380Y-124064904D01*
X54228619Y-124064904D01*
X54470523Y-124064904D02*
X54325380Y-124064904D01*
X54397952Y-124064904D02*
X54397952Y-123810904D01*
X54373761Y-123847190D01*
X54349571Y-123871380D01*
X54325380Y-123883476D01*
D14*
X53995785Y-124142547D02*
X54001833Y-124136500D01*
X54013928Y-124130452D01*
X54044166Y-124130452D01*
X54056261Y-124136500D01*
X54062309Y-124142547D01*
X54068357Y-124154642D01*
X54068357Y-124166738D01*
X54062309Y-124184880D01*
X53989738Y-124257452D01*
X54068357Y-124257452D01*
X54177214Y-124172785D02*
X54177214Y-124257452D01*
X54122785Y-124172785D02*
X54122785Y-124239309D01*
X54128833Y-124251404D01*
X54140928Y-124257452D01*
X54159071Y-124257452D01*
X54171166Y-124251404D01*
X54177214Y-124245357D01*
X54231642Y-124142547D02*
X54237690Y-124136500D01*
X54249785Y-124130452D01*
X54280023Y-124130452D01*
X54292119Y-124136500D01*
X54298166Y-124142547D01*
X54304214Y-124154642D01*
X54304214Y-124166738D01*
X54298166Y-124184880D01*
X54225595Y-124257452D01*
X54304214Y-124257452D01*
D13*
X67040714Y-110963285D02*
X67052809Y-110975380D01*
X67064904Y-111011666D01*
X67064904Y-111035857D01*
X67052809Y-111072142D01*
X67028619Y-111096333D01*
X67004428Y-111108428D01*
X66956047Y-111120523D01*
X66919761Y-111120523D01*
X66871380Y-111108428D01*
X66847190Y-111096333D01*
X66823000Y-111072142D01*
X66810904Y-111035857D01*
X66810904Y-111011666D01*
X66823000Y-110975380D01*
X66835095Y-110963285D01*
X66835095Y-110866523D02*
X66823000Y-110854428D01*
X66810904Y-110830238D01*
X66810904Y-110769761D01*
X66823000Y-110745571D01*
X66835095Y-110733476D01*
X66859285Y-110721380D01*
X66883476Y-110721380D01*
X66919761Y-110733476D01*
X67064904Y-110878619D01*
X67064904Y-110721380D01*
X66810904Y-110636714D02*
X66810904Y-110479476D01*
X66907666Y-110564142D01*
X66907666Y-110527857D01*
X66919761Y-110503666D01*
X66931857Y-110491571D01*
X66956047Y-110479476D01*
X67016523Y-110479476D01*
X67040714Y-110491571D01*
X67052809Y-110503666D01*
X67064904Y-110527857D01*
X67064904Y-110600428D01*
X67052809Y-110624619D01*
X67040714Y-110636714D01*
D14*
X66642547Y-110954214D02*
X66636500Y-110948166D01*
X66630452Y-110936071D01*
X66630452Y-110905833D01*
X66636500Y-110893738D01*
X66642547Y-110887690D01*
X66654642Y-110881642D01*
X66666738Y-110881642D01*
X66684880Y-110887690D01*
X66757452Y-110960261D01*
X66757452Y-110881642D01*
X66672785Y-110772785D02*
X66757452Y-110772785D01*
X66672785Y-110827214D02*
X66739309Y-110827214D01*
X66751404Y-110821166D01*
X66757452Y-110809071D01*
X66757452Y-110790928D01*
X66751404Y-110778833D01*
X66745357Y-110772785D01*
X66642547Y-110718357D02*
X66636500Y-110712309D01*
X66630452Y-110700214D01*
X66630452Y-110669976D01*
X66636500Y-110657880D01*
X66642547Y-110651833D01*
X66654642Y-110645785D01*
X66666738Y-110645785D01*
X66684880Y-110651833D01*
X66757452Y-110724404D01*
X66757452Y-110645785D01*
D13*
X51440714Y-107063285D02*
X51452809Y-107075380D01*
X51464904Y-107111666D01*
X51464904Y-107135857D01*
X51452809Y-107172142D01*
X51428619Y-107196333D01*
X51404428Y-107208428D01*
X51356047Y-107220523D01*
X51319761Y-107220523D01*
X51271380Y-107208428D01*
X51247190Y-107196333D01*
X51223000Y-107172142D01*
X51210904Y-107135857D01*
X51210904Y-107111666D01*
X51223000Y-107075380D01*
X51235095Y-107063285D01*
X51464904Y-106821380D02*
X51464904Y-106966523D01*
X51464904Y-106893952D02*
X51210904Y-106893952D01*
X51247190Y-106918142D01*
X51271380Y-106942333D01*
X51283476Y-106966523D01*
X51464904Y-106700428D02*
X51464904Y-106652047D01*
X51452809Y-106627857D01*
X51440714Y-106615761D01*
X51404428Y-106591571D01*
X51356047Y-106579476D01*
X51259285Y-106579476D01*
X51235095Y-106591571D01*
X51223000Y-106603666D01*
X51210904Y-106627857D01*
X51210904Y-106676238D01*
X51223000Y-106700428D01*
X51235095Y-106712523D01*
X51259285Y-106724619D01*
X51319761Y-106724619D01*
X51343952Y-106712523D01*
X51356047Y-106700428D01*
X51368142Y-106676238D01*
X51368142Y-106627857D01*
X51356047Y-106603666D01*
X51343952Y-106591571D01*
X51319761Y-106579476D01*
D14*
X51542547Y-107054214D02*
X51536500Y-107048166D01*
X51530452Y-107036071D01*
X51530452Y-107005833D01*
X51536500Y-106993738D01*
X51542547Y-106987690D01*
X51554642Y-106981642D01*
X51566738Y-106981642D01*
X51584880Y-106987690D01*
X51657452Y-107060261D01*
X51657452Y-106981642D01*
X51572785Y-106872785D02*
X51657452Y-106872785D01*
X51572785Y-106927214D02*
X51639309Y-106927214D01*
X51651404Y-106921166D01*
X51657452Y-106909071D01*
X51657452Y-106890928D01*
X51651404Y-106878833D01*
X51645357Y-106872785D01*
X51542547Y-106818357D02*
X51536500Y-106812309D01*
X51530452Y-106800214D01*
X51530452Y-106769976D01*
X51536500Y-106757880D01*
X51542547Y-106751833D01*
X51554642Y-106745785D01*
X51566738Y-106745785D01*
X51584880Y-106751833D01*
X51657452Y-106824404D01*
X51657452Y-106745785D01*
D13*
X51440714Y-111063285D02*
X51452809Y-111075380D01*
X51464904Y-111111666D01*
X51464904Y-111135857D01*
X51452809Y-111172142D01*
X51428619Y-111196333D01*
X51404428Y-111208428D01*
X51356047Y-111220523D01*
X51319761Y-111220523D01*
X51271380Y-111208428D01*
X51247190Y-111196333D01*
X51223000Y-111172142D01*
X51210904Y-111135857D01*
X51210904Y-111111666D01*
X51223000Y-111075380D01*
X51235095Y-111063285D01*
X51235095Y-110966523D02*
X51223000Y-110954428D01*
X51210904Y-110930238D01*
X51210904Y-110869761D01*
X51223000Y-110845571D01*
X51235095Y-110833476D01*
X51259285Y-110821380D01*
X51283476Y-110821380D01*
X51319761Y-110833476D01*
X51464904Y-110978619D01*
X51464904Y-110821380D01*
X51210904Y-110664142D02*
X51210904Y-110639952D01*
X51223000Y-110615761D01*
X51235095Y-110603666D01*
X51259285Y-110591571D01*
X51307666Y-110579476D01*
X51368142Y-110579476D01*
X51416523Y-110591571D01*
X51440714Y-110603666D01*
X51452809Y-110615761D01*
X51464904Y-110639952D01*
X51464904Y-110664142D01*
X51452809Y-110688333D01*
X51440714Y-110700428D01*
X51416523Y-110712523D01*
X51368142Y-110724619D01*
X51307666Y-110724619D01*
X51259285Y-110712523D01*
X51235095Y-110700428D01*
X51223000Y-110688333D01*
X51210904Y-110664142D01*
D14*
X51542547Y-111054214D02*
X51536500Y-111048166D01*
X51530452Y-111036071D01*
X51530452Y-111005833D01*
X51536500Y-110993738D01*
X51542547Y-110987690D01*
X51554642Y-110981642D01*
X51566738Y-110981642D01*
X51584880Y-110987690D01*
X51657452Y-111060261D01*
X51657452Y-110981642D01*
X51572785Y-110872785D02*
X51657452Y-110872785D01*
X51572785Y-110927214D02*
X51639309Y-110927214D01*
X51651404Y-110921166D01*
X51657452Y-110909071D01*
X51657452Y-110890928D01*
X51651404Y-110878833D01*
X51645357Y-110872785D01*
X51542547Y-110818357D02*
X51536500Y-110812309D01*
X51530452Y-110800214D01*
X51530452Y-110769976D01*
X51536500Y-110757880D01*
X51542547Y-110751833D01*
X51554642Y-110745785D01*
X51566738Y-110745785D01*
X51584880Y-110751833D01*
X51657452Y-110824404D01*
X51657452Y-110745785D01*
D13*
X67040714Y-106163285D02*
X67052809Y-106175380D01*
X67064904Y-106211666D01*
X67064904Y-106235857D01*
X67052809Y-106272142D01*
X67028619Y-106296333D01*
X67004428Y-106308428D01*
X66956047Y-106320523D01*
X66919761Y-106320523D01*
X66871380Y-106308428D01*
X66847190Y-106296333D01*
X66823000Y-106272142D01*
X66810904Y-106235857D01*
X66810904Y-106211666D01*
X66823000Y-106175380D01*
X66835095Y-106163285D01*
X66835095Y-106066523D02*
X66823000Y-106054428D01*
X66810904Y-106030238D01*
X66810904Y-105969761D01*
X66823000Y-105945571D01*
X66835095Y-105933476D01*
X66859285Y-105921380D01*
X66883476Y-105921380D01*
X66919761Y-105933476D01*
X67064904Y-106078619D01*
X67064904Y-105921380D01*
X66895571Y-105703666D02*
X67064904Y-105703666D01*
X66798809Y-105764142D02*
X66980238Y-105824619D01*
X66980238Y-105667380D01*
D14*
X66642547Y-106154214D02*
X66636500Y-106148166D01*
X66630452Y-106136071D01*
X66630452Y-106105833D01*
X66636500Y-106093738D01*
X66642547Y-106087690D01*
X66654642Y-106081642D01*
X66666738Y-106081642D01*
X66684880Y-106087690D01*
X66757452Y-106160261D01*
X66757452Y-106081642D01*
X66672785Y-105972785D02*
X66757452Y-105972785D01*
X66672785Y-106027214D02*
X66739309Y-106027214D01*
X66751404Y-106021166D01*
X66757452Y-106009071D01*
X66757452Y-105990928D01*
X66751404Y-105978833D01*
X66745357Y-105972785D01*
X66642547Y-105918357D02*
X66636500Y-105912309D01*
X66630452Y-105900214D01*
X66630452Y-105869976D01*
X66636500Y-105857880D01*
X66642547Y-105851833D01*
X66654642Y-105845785D01*
X66666738Y-105845785D01*
X66684880Y-105851833D01*
X66757452Y-105924404D01*
X66757452Y-105845785D01*
D13*
X100290714Y-123292333D02*
X100302809Y-123304428D01*
X100314904Y-123340714D01*
X100314904Y-123364904D01*
X100302809Y-123401190D01*
X100278619Y-123425380D01*
X100254428Y-123437476D01*
X100206047Y-123449571D01*
X100169761Y-123449571D01*
X100121380Y-123437476D01*
X100097190Y-123425380D01*
X100073000Y-123401190D01*
X100060904Y-123364904D01*
X100060904Y-123340714D01*
X100073000Y-123304428D01*
X100085095Y-123292333D01*
X100169761Y-123147190D02*
X100157666Y-123171380D01*
X100145571Y-123183476D01*
X100121380Y-123195571D01*
X100109285Y-123195571D01*
X100085095Y-123183476D01*
X100073000Y-123171380D01*
X100060904Y-123147190D01*
X100060904Y-123098809D01*
X100073000Y-123074619D01*
X100085095Y-123062523D01*
X100109285Y-123050428D01*
X100121380Y-123050428D01*
X100145571Y-123062523D01*
X100157666Y-123074619D01*
X100169761Y-123098809D01*
X100169761Y-123147190D01*
X100181857Y-123171380D01*
X100193952Y-123183476D01*
X100218142Y-123195571D01*
X100266523Y-123195571D01*
X100290714Y-123183476D01*
X100302809Y-123171380D01*
X100314904Y-123147190D01*
X100314904Y-123098809D01*
X100302809Y-123074619D01*
X100290714Y-123062523D01*
X100266523Y-123050428D01*
X100218142Y-123050428D01*
X100193952Y-123062523D01*
X100181857Y-123074619D01*
X100169761Y-123098809D01*
D14*
X99892547Y-123404214D02*
X99886500Y-123398166D01*
X99880452Y-123386071D01*
X99880452Y-123355833D01*
X99886500Y-123343738D01*
X99892547Y-123337690D01*
X99904642Y-123331642D01*
X99916738Y-123331642D01*
X99934880Y-123337690D01*
X100007452Y-123410261D01*
X100007452Y-123331642D01*
X99922785Y-123222785D02*
X100007452Y-123222785D01*
X99922785Y-123277214D02*
X99989309Y-123277214D01*
X100001404Y-123271166D01*
X100007452Y-123259071D01*
X100007452Y-123240928D01*
X100001404Y-123228833D01*
X99995357Y-123222785D01*
X99892547Y-123168357D02*
X99886500Y-123162309D01*
X99880452Y-123150214D01*
X99880452Y-123119976D01*
X99886500Y-123107880D01*
X99892547Y-123101833D01*
X99904642Y-123095785D01*
X99916738Y-123095785D01*
X99934880Y-123101833D01*
X100007452Y-123174404D01*
X100007452Y-123095785D01*
D13*
X81890714Y-123292333D02*
X81902809Y-123304428D01*
X81914904Y-123340714D01*
X81914904Y-123364904D01*
X81902809Y-123401190D01*
X81878619Y-123425380D01*
X81854428Y-123437476D01*
X81806047Y-123449571D01*
X81769761Y-123449571D01*
X81721380Y-123437476D01*
X81697190Y-123425380D01*
X81673000Y-123401190D01*
X81660904Y-123364904D01*
X81660904Y-123340714D01*
X81673000Y-123304428D01*
X81685095Y-123292333D01*
X81660904Y-123074619D02*
X81660904Y-123123000D01*
X81673000Y-123147190D01*
X81685095Y-123159285D01*
X81721380Y-123183476D01*
X81769761Y-123195571D01*
X81866523Y-123195571D01*
X81890714Y-123183476D01*
X81902809Y-123171380D01*
X81914904Y-123147190D01*
X81914904Y-123098809D01*
X81902809Y-123074619D01*
X81890714Y-123062523D01*
X81866523Y-123050428D01*
X81806047Y-123050428D01*
X81781857Y-123062523D01*
X81769761Y-123074619D01*
X81757666Y-123098809D01*
X81757666Y-123147190D01*
X81769761Y-123171380D01*
X81781857Y-123183476D01*
X81806047Y-123195571D01*
D14*
X81492547Y-123404214D02*
X81486500Y-123398166D01*
X81480452Y-123386071D01*
X81480452Y-123355833D01*
X81486500Y-123343738D01*
X81492547Y-123337690D01*
X81504642Y-123331642D01*
X81516738Y-123331642D01*
X81534880Y-123337690D01*
X81607452Y-123410261D01*
X81607452Y-123331642D01*
X81522785Y-123222785D02*
X81607452Y-123222785D01*
X81522785Y-123277214D02*
X81589309Y-123277214D01*
X81601404Y-123271166D01*
X81607452Y-123259071D01*
X81607452Y-123240928D01*
X81601404Y-123228833D01*
X81595357Y-123222785D01*
X81492547Y-123168357D02*
X81486500Y-123162309D01*
X81480452Y-123150214D01*
X81480452Y-123119976D01*
X81486500Y-123107880D01*
X81492547Y-123101833D01*
X81504642Y-123095785D01*
X81516738Y-123095785D01*
X81534880Y-123101833D01*
X81607452Y-123174404D01*
X81607452Y-123095785D01*
D13*
X91090714Y-123292333D02*
X91102809Y-123304428D01*
X91114904Y-123340714D01*
X91114904Y-123364904D01*
X91102809Y-123401190D01*
X91078619Y-123425380D01*
X91054428Y-123437476D01*
X91006047Y-123449571D01*
X90969761Y-123449571D01*
X90921380Y-123437476D01*
X90897190Y-123425380D01*
X90873000Y-123401190D01*
X90860904Y-123364904D01*
X90860904Y-123340714D01*
X90873000Y-123304428D01*
X90885095Y-123292333D01*
X90860904Y-123207666D02*
X90860904Y-123038333D01*
X91114904Y-123147190D01*
D14*
X90692547Y-123404214D02*
X90686500Y-123398166D01*
X90680452Y-123386071D01*
X90680452Y-123355833D01*
X90686500Y-123343738D01*
X90692547Y-123337690D01*
X90704642Y-123331642D01*
X90716738Y-123331642D01*
X90734880Y-123337690D01*
X90807452Y-123410261D01*
X90807452Y-123331642D01*
X90722785Y-123222785D02*
X90807452Y-123222785D01*
X90722785Y-123277214D02*
X90789309Y-123277214D01*
X90801404Y-123271166D01*
X90807452Y-123259071D01*
X90807452Y-123240928D01*
X90801404Y-123228833D01*
X90795357Y-123222785D01*
X90692547Y-123168357D02*
X90686500Y-123162309D01*
X90680452Y-123150214D01*
X90680452Y-123119976D01*
X90686500Y-123107880D01*
X90692547Y-123101833D01*
X90704642Y-123095785D01*
X90716738Y-123095785D01*
X90734880Y-123101833D01*
X90807452Y-123174404D01*
X90807452Y-123095785D01*
D16*
X50645785Y-93748785D02*
X50518785Y-93748785D01*
X50518785Y-93948357D02*
X50518785Y-93567357D01*
X50700214Y-93567357D01*
X50845357Y-93948357D02*
X50845357Y-93567357D01*
X51026785Y-93948357D02*
X51026785Y-93567357D01*
X51117500Y-93567357D01*
X51171928Y-93585500D01*
X51208214Y-93621785D01*
X51226357Y-93658071D01*
X51244500Y-93730642D01*
X51244500Y-93785071D01*
X51226357Y-93857642D01*
X51208214Y-93893928D01*
X51171928Y-93930214D01*
X51117500Y-93948357D01*
X51026785Y-93948357D01*
X51607357Y-93948357D02*
X51389642Y-93948357D01*
X51498500Y-93948357D02*
X51498500Y-93567357D01*
X51462214Y-93621785D01*
X51425928Y-93658071D01*
X51389642Y-93676214D01*
X109827785Y-118005785D02*
X109700785Y-118005785D01*
X109700785Y-118205357D02*
X109700785Y-117824357D01*
X109882214Y-117824357D01*
X110027357Y-118205357D02*
X110027357Y-117824357D01*
X110208785Y-118205357D02*
X110208785Y-117824357D01*
X110299500Y-117824357D01*
X110353928Y-117842500D01*
X110390214Y-117878785D01*
X110408357Y-117915071D01*
X110426500Y-117987642D01*
X110426500Y-118042071D01*
X110408357Y-118114642D01*
X110390214Y-118150928D01*
X110353928Y-118187214D01*
X110299500Y-118205357D01*
X110208785Y-118205357D01*
X110553500Y-117824357D02*
X110789357Y-117824357D01*
X110662357Y-117969500D01*
X110716785Y-117969500D01*
X110753071Y-117987642D01*
X110771214Y-118005785D01*
X110789357Y-118042071D01*
X110789357Y-118132785D01*
X110771214Y-118169071D01*
X110753071Y-118187214D01*
X110716785Y-118205357D01*
X110607928Y-118205357D01*
X110571642Y-118187214D01*
X110553500Y-118169071D01*
X99921785Y-93748785D02*
X99794785Y-93748785D01*
X99794785Y-93948357D02*
X99794785Y-93567357D01*
X99976214Y-93567357D01*
X100121357Y-93948357D02*
X100121357Y-93567357D01*
X100302785Y-93948357D02*
X100302785Y-93567357D01*
X100393500Y-93567357D01*
X100447928Y-93585500D01*
X100484214Y-93621785D01*
X100502357Y-93658071D01*
X100520500Y-93730642D01*
X100520500Y-93785071D01*
X100502357Y-93857642D01*
X100484214Y-93893928D01*
X100447928Y-93930214D01*
X100393500Y-93948357D01*
X100302785Y-93948357D01*
X100665642Y-93603642D02*
X100683785Y-93585500D01*
X100720071Y-93567357D01*
X100810785Y-93567357D01*
X100847071Y-93585500D01*
X100865214Y-93603642D01*
X100883357Y-93639928D01*
X100883357Y-93676214D01*
X100865214Y-93730642D01*
X100647500Y-93948357D01*
X100883357Y-93948357D01*
D10*
X110693238Y-130355952D02*
X110693238Y-129955952D01*
X110693238Y-130146428D02*
X110921809Y-130146428D01*
X110921809Y-130355952D02*
X110921809Y-129955952D01*
X111074190Y-129955952D02*
X111321809Y-129955952D01*
X111188476Y-130108333D01*
X111245619Y-130108333D01*
X111283714Y-130127380D01*
X111302761Y-130146428D01*
X111321809Y-130184523D01*
X111321809Y-130279761D01*
X111302761Y-130317857D01*
X111283714Y-130336904D01*
X111245619Y-130355952D01*
X111131333Y-130355952D01*
X111093238Y-130336904D01*
X111074190Y-130317857D01*
X48209238Y-93906952D02*
X48209238Y-93506952D01*
X48209238Y-93697428D02*
X48437809Y-93697428D01*
X48437809Y-93906952D02*
X48437809Y-93506952D01*
X48837809Y-93906952D02*
X48609238Y-93906952D01*
X48723523Y-93906952D02*
X48723523Y-93506952D01*
X48685428Y-93564095D01*
X48647333Y-93602190D01*
X48609238Y-93621238D01*
X102565238Y-93906952D02*
X102565238Y-93506952D01*
X102565238Y-93697428D02*
X102793809Y-93697428D01*
X102793809Y-93906952D02*
X102793809Y-93506952D01*
X102965238Y-93545047D02*
X102984285Y-93526000D01*
X103022380Y-93506952D01*
X103117619Y-93506952D01*
X103155714Y-93526000D01*
X103174761Y-93545047D01*
X103193809Y-93583142D01*
X103193809Y-93621238D01*
X103174761Y-93678380D01*
X102946190Y-93906952D01*
X103193809Y-93906952D01*
X111201238Y-115369952D02*
X111201238Y-114969952D01*
X111201238Y-115160428D02*
X111429809Y-115160428D01*
X111429809Y-115369952D02*
X111429809Y-114969952D01*
X111810761Y-114969952D02*
X111620285Y-114969952D01*
X111601238Y-115160428D01*
X111620285Y-115141380D01*
X111658380Y-115122333D01*
X111753619Y-115122333D01*
X111791714Y-115141380D01*
X111810761Y-115160428D01*
X111829809Y-115198523D01*
X111829809Y-115293761D01*
X111810761Y-115331857D01*
X111791714Y-115350904D01*
X111753619Y-115369952D01*
X111658380Y-115369952D01*
X111620285Y-115350904D01*
X111601238Y-115331857D01*
D13*
X109240714Y-120663285D02*
X109252809Y-120675380D01*
X109264904Y-120711666D01*
X109264904Y-120735857D01*
X109252809Y-120772142D01*
X109228619Y-120796333D01*
X109204428Y-120808428D01*
X109156047Y-120820523D01*
X109119761Y-120820523D01*
X109071380Y-120808428D01*
X109047190Y-120796333D01*
X109023000Y-120772142D01*
X109010904Y-120735857D01*
X109010904Y-120711666D01*
X109023000Y-120675380D01*
X109035095Y-120663285D01*
X109035095Y-120566523D02*
X109023000Y-120554428D01*
X109010904Y-120530238D01*
X109010904Y-120469761D01*
X109023000Y-120445571D01*
X109035095Y-120433476D01*
X109059285Y-120421380D01*
X109083476Y-120421380D01*
X109119761Y-120433476D01*
X109264904Y-120578619D01*
X109264904Y-120421380D01*
X109119761Y-120276238D02*
X109107666Y-120300428D01*
X109095571Y-120312523D01*
X109071380Y-120324619D01*
X109059285Y-120324619D01*
X109035095Y-120312523D01*
X109023000Y-120300428D01*
X109010904Y-120276238D01*
X109010904Y-120227857D01*
X109023000Y-120203666D01*
X109035095Y-120191571D01*
X109059285Y-120179476D01*
X109071380Y-120179476D01*
X109095571Y-120191571D01*
X109107666Y-120203666D01*
X109119761Y-120227857D01*
X109119761Y-120276238D01*
X109131857Y-120300428D01*
X109143952Y-120312523D01*
X109168142Y-120324619D01*
X109216523Y-120324619D01*
X109240714Y-120312523D01*
X109252809Y-120300428D01*
X109264904Y-120276238D01*
X109264904Y-120227857D01*
X109252809Y-120203666D01*
X109240714Y-120191571D01*
X109216523Y-120179476D01*
X109168142Y-120179476D01*
X109143952Y-120191571D01*
X109131857Y-120203666D01*
X109119761Y-120227857D01*
D14*
X109342547Y-120654214D02*
X109336500Y-120648166D01*
X109330452Y-120636071D01*
X109330452Y-120605833D01*
X109336500Y-120593738D01*
X109342547Y-120587690D01*
X109354642Y-120581642D01*
X109366738Y-120581642D01*
X109384880Y-120587690D01*
X109457452Y-120660261D01*
X109457452Y-120581642D01*
X109372785Y-120472785D02*
X109457452Y-120472785D01*
X109372785Y-120527214D02*
X109439309Y-120527214D01*
X109451404Y-120521166D01*
X109457452Y-120509071D01*
X109457452Y-120490928D01*
X109451404Y-120478833D01*
X109445357Y-120472785D01*
X109342547Y-120418357D02*
X109336500Y-120412309D01*
X109330452Y-120400214D01*
X109330452Y-120369976D01*
X109336500Y-120357880D01*
X109342547Y-120351833D01*
X109354642Y-120345785D01*
X109366738Y-120345785D01*
X109384880Y-120351833D01*
X109457452Y-120424404D01*
X109457452Y-120345785D01*
D13*
X99957666Y-120614904D02*
X99873000Y-120493952D01*
X99812523Y-120614904D02*
X99812523Y-120360904D01*
X99909285Y-120360904D01*
X99933476Y-120373000D01*
X99945571Y-120385095D01*
X99957666Y-120409285D01*
X99957666Y-120445571D01*
X99945571Y-120469761D01*
X99933476Y-120481857D01*
X99909285Y-120493952D01*
X99812523Y-120493952D01*
X100175380Y-120445571D02*
X100175380Y-120614904D01*
X100114904Y-120348809D02*
X100054428Y-120530238D01*
X100211666Y-120530238D01*
X99987904Y-120010904D02*
X100012095Y-120010904D01*
X100036285Y-120023000D01*
X100048380Y-120035095D01*
X100060476Y-120059285D01*
X100072571Y-120107666D01*
X100072571Y-120168142D01*
X100060476Y-120216523D01*
X100048380Y-120240714D01*
X100036285Y-120252809D01*
X100012095Y-120264904D01*
X99987904Y-120264904D01*
X99963714Y-120252809D01*
X99951619Y-120240714D01*
X99939523Y-120216523D01*
X99927428Y-120168142D01*
X99927428Y-120107666D01*
X99939523Y-120059285D01*
X99951619Y-120035095D01*
X99963714Y-120023000D01*
X99987904Y-120010904D01*
D16*
X109628285Y-124041357D02*
X109628285Y-124349785D01*
X109646428Y-124386071D01*
X109664571Y-124404214D01*
X109700857Y-124422357D01*
X109773428Y-124422357D01*
X109809714Y-124404214D01*
X109827857Y-124386071D01*
X109846000Y-124349785D01*
X109846000Y-124041357D01*
X110227000Y-124422357D02*
X110009285Y-124422357D01*
X110118142Y-124422357D02*
X110118142Y-124041357D01*
X110081857Y-124095785D01*
X110045571Y-124132071D01*
X110009285Y-124150214D01*
X110589857Y-124422357D02*
X110372142Y-124422357D01*
X110481000Y-124422357D02*
X110481000Y-124041357D01*
X110444714Y-124095785D01*
X110408428Y-124132071D01*
X110372142Y-124150214D01*
D14*
X109235190Y-123871166D02*
X109295666Y-123871166D01*
X109223095Y-123907452D02*
X109265428Y-123780452D01*
X109307761Y-123907452D01*
X109350095Y-123907452D02*
X109350095Y-123780452D01*
X109398476Y-123780452D01*
X109410571Y-123786500D01*
X109416619Y-123792547D01*
X109422666Y-123804642D01*
X109422666Y-123822785D01*
X109416619Y-123834880D01*
X109410571Y-123840928D01*
X109398476Y-123846976D01*
X109350095Y-123846976D01*
X109471047Y-123792547D02*
X109477095Y-123786500D01*
X109489190Y-123780452D01*
X109519428Y-123780452D01*
X109531523Y-123786500D01*
X109537571Y-123792547D01*
X109543619Y-123804642D01*
X109543619Y-123816738D01*
X109537571Y-123834880D01*
X109465000Y-123907452D01*
X109543619Y-123907452D01*
X109664571Y-123907452D02*
X109592000Y-123907452D01*
X109628285Y-123907452D02*
X109628285Y-123780452D01*
X109616190Y-123798595D01*
X109604095Y-123810690D01*
X109592000Y-123816738D01*
X109712952Y-123792547D02*
X109719000Y-123786500D01*
X109731095Y-123780452D01*
X109761333Y-123780452D01*
X109773428Y-123786500D01*
X109779476Y-123792547D01*
X109785523Y-123804642D01*
X109785523Y-123816738D01*
X109779476Y-123834880D01*
X109706904Y-123907452D01*
X109785523Y-123907452D01*
X109827857Y-123780452D02*
X109912523Y-123780452D01*
X109858095Y-123907452D01*
X109960904Y-123907452D02*
X109960904Y-123780452D01*
X110033476Y-123907452D02*
X109979047Y-123834880D01*
X110033476Y-123780452D02*
X109960904Y-123853023D01*
X110087904Y-123859071D02*
X110184666Y-123859071D01*
X110311666Y-123907452D02*
X110239095Y-123907452D01*
X110275380Y-123907452D02*
X110275380Y-123780452D01*
X110263285Y-123798595D01*
X110251190Y-123810690D01*
X110239095Y-123816738D01*
X110366095Y-123895357D02*
X110372142Y-123901404D01*
X110366095Y-123907452D01*
X110360047Y-123901404D01*
X110366095Y-123895357D01*
X110366095Y-123907452D01*
X110420523Y-123792547D02*
X110426571Y-123786500D01*
X110438666Y-123780452D01*
X110468904Y-123780452D01*
X110481000Y-123786500D01*
X110487047Y-123792547D01*
X110493095Y-123804642D01*
X110493095Y-123816738D01*
X110487047Y-123834880D01*
X110414476Y-123907452D01*
X110493095Y-123907452D01*
X110529380Y-123780452D02*
X110601952Y-123780452D01*
X110565666Y-123907452D02*
X110565666Y-123780452D01*
X110716857Y-123907452D02*
X110674523Y-123846976D01*
X110644285Y-123907452D02*
X110644285Y-123780452D01*
X110692666Y-123780452D01*
X110704761Y-123786500D01*
X110710809Y-123792547D01*
X110716857Y-123804642D01*
X110716857Y-123822785D01*
X110710809Y-123834880D01*
X110704761Y-123840928D01*
X110692666Y-123846976D01*
X110644285Y-123846976D01*
X110837809Y-123786500D02*
X110825714Y-123780452D01*
X110807571Y-123780452D01*
X110789428Y-123786500D01*
X110777333Y-123798595D01*
X110771285Y-123810690D01*
X110765238Y-123834880D01*
X110765238Y-123853023D01*
X110771285Y-123877214D01*
X110777333Y-123889309D01*
X110789428Y-123901404D01*
X110807571Y-123907452D01*
X110819666Y-123907452D01*
X110837809Y-123901404D01*
X110843857Y-123895357D01*
X110843857Y-123853023D01*
X110819666Y-123853023D01*
X110964809Y-123907452D02*
X110892238Y-123907452D01*
X110928523Y-123907452D02*
X110928523Y-123780452D01*
X110916428Y-123798595D01*
X110904333Y-123810690D01*
X110892238Y-123816738D01*
D13*
X81107666Y-118340714D02*
X81095571Y-118352809D01*
X81059285Y-118364904D01*
X81035095Y-118364904D01*
X80998809Y-118352809D01*
X80974619Y-118328619D01*
X80962523Y-118304428D01*
X80950428Y-118256047D01*
X80950428Y-118219761D01*
X80962523Y-118171380D01*
X80974619Y-118147190D01*
X80998809Y-118123000D01*
X81035095Y-118110904D01*
X81059285Y-118110904D01*
X81095571Y-118123000D01*
X81107666Y-118135095D01*
X81228619Y-118364904D02*
X81277000Y-118364904D01*
X81301190Y-118352809D01*
X81313285Y-118340714D01*
X81337476Y-118304428D01*
X81349571Y-118256047D01*
X81349571Y-118159285D01*
X81337476Y-118135095D01*
X81325380Y-118123000D01*
X81301190Y-118110904D01*
X81252809Y-118110904D01*
X81228619Y-118123000D01*
X81216523Y-118135095D01*
X81204428Y-118159285D01*
X81204428Y-118219761D01*
X81216523Y-118243952D01*
X81228619Y-118256047D01*
X81252809Y-118268142D01*
X81301190Y-118268142D01*
X81325380Y-118256047D01*
X81337476Y-118243952D01*
X81349571Y-118219761D01*
D14*
X80995785Y-117942547D02*
X81001833Y-117936500D01*
X81013928Y-117930452D01*
X81044166Y-117930452D01*
X81056261Y-117936500D01*
X81062309Y-117942547D01*
X81068357Y-117954642D01*
X81068357Y-117966738D01*
X81062309Y-117984880D01*
X80989738Y-118057452D01*
X81068357Y-118057452D01*
X81177214Y-117972785D02*
X81177214Y-118057452D01*
X81122785Y-117972785D02*
X81122785Y-118039309D01*
X81128833Y-118051404D01*
X81140928Y-118057452D01*
X81159071Y-118057452D01*
X81171166Y-118051404D01*
X81177214Y-118045357D01*
X81231642Y-117942547D02*
X81237690Y-117936500D01*
X81249785Y-117930452D01*
X81280023Y-117930452D01*
X81292119Y-117936500D01*
X81298166Y-117942547D01*
X81304214Y-117954642D01*
X81304214Y-117966738D01*
X81298166Y-117984880D01*
X81225595Y-118057452D01*
X81304214Y-118057452D01*
D13*
X90486714Y-98940714D02*
X90474619Y-98952809D01*
X90438333Y-98964904D01*
X90414142Y-98964904D01*
X90377857Y-98952809D01*
X90353666Y-98928619D01*
X90341571Y-98904428D01*
X90329476Y-98856047D01*
X90329476Y-98819761D01*
X90341571Y-98771380D01*
X90353666Y-98747190D01*
X90377857Y-98723000D01*
X90414142Y-98710904D01*
X90438333Y-98710904D01*
X90474619Y-98723000D01*
X90486714Y-98735095D01*
X90728619Y-98964904D02*
X90583476Y-98964904D01*
X90656047Y-98964904D02*
X90656047Y-98710904D01*
X90631857Y-98747190D01*
X90607666Y-98771380D01*
X90583476Y-98783476D01*
X90970523Y-98964904D02*
X90825380Y-98964904D01*
X90897952Y-98964904D02*
X90897952Y-98710904D01*
X90873761Y-98747190D01*
X90849571Y-98771380D01*
X90825380Y-98783476D01*
D14*
X90495785Y-98542547D02*
X90501833Y-98536500D01*
X90513928Y-98530452D01*
X90544166Y-98530452D01*
X90556261Y-98536500D01*
X90562309Y-98542547D01*
X90568357Y-98554642D01*
X90568357Y-98566738D01*
X90562309Y-98584880D01*
X90489738Y-98657452D01*
X90568357Y-98657452D01*
X90677214Y-98572785D02*
X90677214Y-98657452D01*
X90622785Y-98572785D02*
X90622785Y-98639309D01*
X90628833Y-98651404D01*
X90640928Y-98657452D01*
X90659071Y-98657452D01*
X90671166Y-98651404D01*
X90677214Y-98645357D01*
X90731642Y-98542547D02*
X90737690Y-98536500D01*
X90749785Y-98530452D01*
X90780023Y-98530452D01*
X90792119Y-98536500D01*
X90798166Y-98542547D01*
X90804214Y-98554642D01*
X90804214Y-98566738D01*
X90798166Y-98584880D01*
X90725595Y-98657452D01*
X90804214Y-98657452D01*
D13*
X87486714Y-118340714D02*
X87474619Y-118352809D01*
X87438333Y-118364904D01*
X87414142Y-118364904D01*
X87377857Y-118352809D01*
X87353666Y-118328619D01*
X87341571Y-118304428D01*
X87329476Y-118256047D01*
X87329476Y-118219761D01*
X87341571Y-118171380D01*
X87353666Y-118147190D01*
X87377857Y-118123000D01*
X87414142Y-118110904D01*
X87438333Y-118110904D01*
X87474619Y-118123000D01*
X87486714Y-118135095D01*
X87728619Y-118364904D02*
X87583476Y-118364904D01*
X87656047Y-118364904D02*
X87656047Y-118110904D01*
X87631857Y-118147190D01*
X87607666Y-118171380D01*
X87583476Y-118183476D01*
X87825380Y-118135095D02*
X87837476Y-118123000D01*
X87861666Y-118110904D01*
X87922142Y-118110904D01*
X87946333Y-118123000D01*
X87958428Y-118135095D01*
X87970523Y-118159285D01*
X87970523Y-118183476D01*
X87958428Y-118219761D01*
X87813285Y-118364904D01*
X87970523Y-118364904D01*
D14*
X87495785Y-117942547D02*
X87501833Y-117936500D01*
X87513928Y-117930452D01*
X87544166Y-117930452D01*
X87556261Y-117936500D01*
X87562309Y-117942547D01*
X87568357Y-117954642D01*
X87568357Y-117966738D01*
X87562309Y-117984880D01*
X87489738Y-118057452D01*
X87568357Y-118057452D01*
X87677214Y-117972785D02*
X87677214Y-118057452D01*
X87622785Y-117972785D02*
X87622785Y-118039309D01*
X87628833Y-118051404D01*
X87640928Y-118057452D01*
X87659071Y-118057452D01*
X87671166Y-118051404D01*
X87677214Y-118045357D01*
X87731642Y-117942547D02*
X87737690Y-117936500D01*
X87749785Y-117930452D01*
X87780023Y-117930452D01*
X87792119Y-117936500D01*
X87798166Y-117942547D01*
X87804214Y-117954642D01*
X87804214Y-117966738D01*
X87798166Y-117984880D01*
X87725595Y-118057452D01*
X87804214Y-118057452D01*
D13*
X81736714Y-98940714D02*
X81724619Y-98952809D01*
X81688333Y-98964904D01*
X81664142Y-98964904D01*
X81627857Y-98952809D01*
X81603666Y-98928619D01*
X81591571Y-98904428D01*
X81579476Y-98856047D01*
X81579476Y-98819761D01*
X81591571Y-98771380D01*
X81603666Y-98747190D01*
X81627857Y-98723000D01*
X81664142Y-98710904D01*
X81688333Y-98710904D01*
X81724619Y-98723000D01*
X81736714Y-98735095D01*
X81978619Y-98964904D02*
X81833476Y-98964904D01*
X81906047Y-98964904D02*
X81906047Y-98710904D01*
X81881857Y-98747190D01*
X81857666Y-98771380D01*
X81833476Y-98783476D01*
X82063285Y-98710904D02*
X82220523Y-98710904D01*
X82135857Y-98807666D01*
X82172142Y-98807666D01*
X82196333Y-98819761D01*
X82208428Y-98831857D01*
X82220523Y-98856047D01*
X82220523Y-98916523D01*
X82208428Y-98940714D01*
X82196333Y-98952809D01*
X82172142Y-98964904D01*
X82099571Y-98964904D01*
X82075380Y-98952809D01*
X82063285Y-98940714D01*
D14*
X81745785Y-99042547D02*
X81751833Y-99036500D01*
X81763928Y-99030452D01*
X81794166Y-99030452D01*
X81806261Y-99036500D01*
X81812309Y-99042547D01*
X81818357Y-99054642D01*
X81818357Y-99066738D01*
X81812309Y-99084880D01*
X81739738Y-99157452D01*
X81818357Y-99157452D01*
X81927214Y-99072785D02*
X81927214Y-99157452D01*
X81872785Y-99072785D02*
X81872785Y-99139309D01*
X81878833Y-99151404D01*
X81890928Y-99157452D01*
X81909071Y-99157452D01*
X81921166Y-99151404D01*
X81927214Y-99145357D01*
X81981642Y-99042547D02*
X81987690Y-99036500D01*
X81999785Y-99030452D01*
X82030023Y-99030452D01*
X82042119Y-99036500D01*
X82048166Y-99042547D01*
X82054214Y-99054642D01*
X82054214Y-99066738D01*
X82048166Y-99084880D01*
X81975595Y-99157452D01*
X82054214Y-99157452D01*
D13*
X78486714Y-98940714D02*
X78474619Y-98952809D01*
X78438333Y-98964904D01*
X78414142Y-98964904D01*
X78377857Y-98952809D01*
X78353666Y-98928619D01*
X78341571Y-98904428D01*
X78329476Y-98856047D01*
X78329476Y-98819761D01*
X78341571Y-98771380D01*
X78353666Y-98747190D01*
X78377857Y-98723000D01*
X78414142Y-98710904D01*
X78438333Y-98710904D01*
X78474619Y-98723000D01*
X78486714Y-98735095D01*
X78728619Y-98964904D02*
X78583476Y-98964904D01*
X78656047Y-98964904D02*
X78656047Y-98710904D01*
X78631857Y-98747190D01*
X78607666Y-98771380D01*
X78583476Y-98783476D01*
X78958428Y-98710904D02*
X78837476Y-98710904D01*
X78825380Y-98831857D01*
X78837476Y-98819761D01*
X78861666Y-98807666D01*
X78922142Y-98807666D01*
X78946333Y-98819761D01*
X78958428Y-98831857D01*
X78970523Y-98856047D01*
X78970523Y-98916523D01*
X78958428Y-98940714D01*
X78946333Y-98952809D01*
X78922142Y-98964904D01*
X78861666Y-98964904D01*
X78837476Y-98952809D01*
X78825380Y-98940714D01*
D14*
X78495785Y-98542547D02*
X78501833Y-98536500D01*
X78513928Y-98530452D01*
X78544166Y-98530452D01*
X78556261Y-98536500D01*
X78562309Y-98542547D01*
X78568357Y-98554642D01*
X78568357Y-98566738D01*
X78562309Y-98584880D01*
X78489738Y-98657452D01*
X78568357Y-98657452D01*
X78677214Y-98572785D02*
X78677214Y-98657452D01*
X78622785Y-98572785D02*
X78622785Y-98639309D01*
X78628833Y-98651404D01*
X78640928Y-98657452D01*
X78659071Y-98657452D01*
X78671166Y-98651404D01*
X78677214Y-98645357D01*
X78731642Y-98542547D02*
X78737690Y-98536500D01*
X78749785Y-98530452D01*
X78780023Y-98530452D01*
X78792119Y-98536500D01*
X78798166Y-98542547D01*
X78804214Y-98554642D01*
X78804214Y-98566738D01*
X78798166Y-98584880D01*
X78725595Y-98657452D01*
X78804214Y-98657452D01*
D13*
X75790714Y-104963285D02*
X75802809Y-104975380D01*
X75814904Y-105011666D01*
X75814904Y-105035857D01*
X75802809Y-105072142D01*
X75778619Y-105096333D01*
X75754428Y-105108428D01*
X75706047Y-105120523D01*
X75669761Y-105120523D01*
X75621380Y-105108428D01*
X75597190Y-105096333D01*
X75573000Y-105072142D01*
X75560904Y-105035857D01*
X75560904Y-105011666D01*
X75573000Y-104975380D01*
X75585095Y-104963285D01*
X75585095Y-104866523D02*
X75573000Y-104854428D01*
X75560904Y-104830238D01*
X75560904Y-104769761D01*
X75573000Y-104745571D01*
X75585095Y-104733476D01*
X75609285Y-104721380D01*
X75633476Y-104721380D01*
X75669761Y-104733476D01*
X75814904Y-104878619D01*
X75814904Y-104721380D01*
X75814904Y-104600428D02*
X75814904Y-104552047D01*
X75802809Y-104527857D01*
X75790714Y-104515761D01*
X75754428Y-104491571D01*
X75706047Y-104479476D01*
X75609285Y-104479476D01*
X75585095Y-104491571D01*
X75573000Y-104503666D01*
X75560904Y-104527857D01*
X75560904Y-104576238D01*
X75573000Y-104600428D01*
X75585095Y-104612523D01*
X75609285Y-104624619D01*
X75669761Y-104624619D01*
X75693952Y-104612523D01*
X75706047Y-104600428D01*
X75718142Y-104576238D01*
X75718142Y-104527857D01*
X75706047Y-104503666D01*
X75693952Y-104491571D01*
X75669761Y-104479476D01*
D14*
X75392547Y-104954214D02*
X75386500Y-104948166D01*
X75380452Y-104936071D01*
X75380452Y-104905833D01*
X75386500Y-104893738D01*
X75392547Y-104887690D01*
X75404642Y-104881642D01*
X75416738Y-104881642D01*
X75434880Y-104887690D01*
X75507452Y-104960261D01*
X75507452Y-104881642D01*
X75422785Y-104772785D02*
X75507452Y-104772785D01*
X75422785Y-104827214D02*
X75489309Y-104827214D01*
X75501404Y-104821166D01*
X75507452Y-104809071D01*
X75507452Y-104790928D01*
X75501404Y-104778833D01*
X75495357Y-104772785D01*
X75392547Y-104718357D02*
X75386500Y-104712309D01*
X75380452Y-104700214D01*
X75380452Y-104669976D01*
X75386500Y-104657880D01*
X75392547Y-104651833D01*
X75404642Y-104645785D01*
X75416738Y-104645785D01*
X75434880Y-104651833D01*
X75507452Y-104724404D01*
X75507452Y-104645785D01*
D13*
X91986714Y-118340714D02*
X91974619Y-118352809D01*
X91938333Y-118364904D01*
X91914142Y-118364904D01*
X91877857Y-118352809D01*
X91853666Y-118328619D01*
X91841571Y-118304428D01*
X91829476Y-118256047D01*
X91829476Y-118219761D01*
X91841571Y-118171380D01*
X91853666Y-118147190D01*
X91877857Y-118123000D01*
X91914142Y-118110904D01*
X91938333Y-118110904D01*
X91974619Y-118123000D01*
X91986714Y-118135095D01*
X92228619Y-118364904D02*
X92083476Y-118364904D01*
X92156047Y-118364904D02*
X92156047Y-118110904D01*
X92131857Y-118147190D01*
X92107666Y-118171380D01*
X92083476Y-118183476D01*
X92446333Y-118195571D02*
X92446333Y-118364904D01*
X92385857Y-118098809D02*
X92325380Y-118280238D01*
X92482619Y-118280238D01*
D14*
X91995785Y-118442547D02*
X92001833Y-118436500D01*
X92013928Y-118430452D01*
X92044166Y-118430452D01*
X92056261Y-118436500D01*
X92062309Y-118442547D01*
X92068357Y-118454642D01*
X92068357Y-118466738D01*
X92062309Y-118484880D01*
X91989738Y-118557452D01*
X92068357Y-118557452D01*
X92177214Y-118472785D02*
X92177214Y-118557452D01*
X92122785Y-118472785D02*
X92122785Y-118539309D01*
X92128833Y-118551404D01*
X92140928Y-118557452D01*
X92159071Y-118557452D01*
X92171166Y-118551404D01*
X92177214Y-118545357D01*
X92231642Y-118442547D02*
X92237690Y-118436500D01*
X92249785Y-118430452D01*
X92280023Y-118430452D01*
X92292119Y-118436500D01*
X92298166Y-118442547D01*
X92304214Y-118454642D01*
X92304214Y-118466738D01*
X92298166Y-118484880D01*
X92225595Y-118557452D01*
X92304214Y-118557452D01*
D13*
X95190714Y-112463285D02*
X95202809Y-112475380D01*
X95214904Y-112511666D01*
X95214904Y-112535857D01*
X95202809Y-112572142D01*
X95178619Y-112596333D01*
X95154428Y-112608428D01*
X95106047Y-112620523D01*
X95069761Y-112620523D01*
X95021380Y-112608428D01*
X94997190Y-112596333D01*
X94973000Y-112572142D01*
X94960904Y-112535857D01*
X94960904Y-112511666D01*
X94973000Y-112475380D01*
X94985095Y-112463285D01*
X95214904Y-112221380D02*
X95214904Y-112366523D01*
X95214904Y-112293952D02*
X94960904Y-112293952D01*
X94997190Y-112318142D01*
X95021380Y-112342333D01*
X95033476Y-112366523D01*
X94960904Y-112003666D02*
X94960904Y-112052047D01*
X94973000Y-112076238D01*
X94985095Y-112088333D01*
X95021380Y-112112523D01*
X95069761Y-112124619D01*
X95166523Y-112124619D01*
X95190714Y-112112523D01*
X95202809Y-112100428D01*
X95214904Y-112076238D01*
X95214904Y-112027857D01*
X95202809Y-112003666D01*
X95190714Y-111991571D01*
X95166523Y-111979476D01*
X95106047Y-111979476D01*
X95081857Y-111991571D01*
X95069761Y-112003666D01*
X95057666Y-112027857D01*
X95057666Y-112076238D01*
X95069761Y-112100428D01*
X95081857Y-112112523D01*
X95106047Y-112124619D01*
D14*
X95292547Y-112454214D02*
X95286500Y-112448166D01*
X95280452Y-112436071D01*
X95280452Y-112405833D01*
X95286500Y-112393738D01*
X95292547Y-112387690D01*
X95304642Y-112381642D01*
X95316738Y-112381642D01*
X95334880Y-112387690D01*
X95407452Y-112460261D01*
X95407452Y-112381642D01*
X95322785Y-112272785D02*
X95407452Y-112272785D01*
X95322785Y-112327214D02*
X95389309Y-112327214D01*
X95401404Y-112321166D01*
X95407452Y-112309071D01*
X95407452Y-112290928D01*
X95401404Y-112278833D01*
X95395357Y-112272785D01*
X95292547Y-112218357D02*
X95286500Y-112212309D01*
X95280452Y-112200214D01*
X95280452Y-112169976D01*
X95286500Y-112157880D01*
X95292547Y-112151833D01*
X95304642Y-112145785D01*
X95316738Y-112145785D01*
X95334880Y-112151833D01*
X95407452Y-112224404D01*
X95407452Y-112145785D01*
D13*
X96864904Y-115892333D02*
X96743952Y-115977000D01*
X96864904Y-116037476D02*
X96610904Y-116037476D01*
X96610904Y-115940714D01*
X96623000Y-115916523D01*
X96635095Y-115904428D01*
X96659285Y-115892333D01*
X96695571Y-115892333D01*
X96719761Y-115904428D01*
X96731857Y-115916523D01*
X96743952Y-115940714D01*
X96743952Y-116037476D01*
X96610904Y-115662523D02*
X96610904Y-115783476D01*
X96731857Y-115795571D01*
X96719761Y-115783476D01*
X96707666Y-115759285D01*
X96707666Y-115698809D01*
X96719761Y-115674619D01*
X96731857Y-115662523D01*
X96756047Y-115650428D01*
X96816523Y-115650428D01*
X96840714Y-115662523D01*
X96852809Y-115674619D01*
X96864904Y-115698809D01*
X96864904Y-115759285D01*
X96852809Y-115783476D01*
X96840714Y-115795571D01*
D14*
X96472785Y-115886285D02*
X96557452Y-115886285D01*
X96424404Y-115916523D02*
X96515119Y-115946761D01*
X96515119Y-115868142D01*
X96430452Y-115831857D02*
X96430452Y-115747190D01*
X96557452Y-115801619D01*
D13*
X97998684Y-104179605D02*
X97998684Y-104196710D01*
X97981579Y-104230920D01*
X97964473Y-104248026D01*
X97930263Y-104265131D01*
X97896052Y-104265131D01*
X97870394Y-104256578D01*
X97827631Y-104230920D01*
X97801973Y-104205262D01*
X97776316Y-104162499D01*
X97767763Y-104136841D01*
X97767763Y-104102631D01*
X97784868Y-104068420D01*
X97801973Y-104051315D01*
X97836184Y-104034210D01*
X97853289Y-104034210D01*
X97896052Y-103957236D02*
X98007236Y-103846052D01*
X98015789Y-103974342D01*
X98041447Y-103948684D01*
X98067105Y-103940131D01*
X98084210Y-103940131D01*
X98109868Y-103948684D01*
X98152631Y-103991447D01*
X98161184Y-104017105D01*
X98161184Y-104034210D01*
X98152631Y-104059868D01*
X98101315Y-104111184D01*
X98075657Y-104119736D01*
X98058552Y-104119736D01*
X98118420Y-103734868D02*
X98135526Y-103717763D01*
X98161184Y-103709210D01*
X98178289Y-103709210D01*
X98203947Y-103717763D01*
X98246710Y-103743421D01*
X98289473Y-103786184D01*
X98315131Y-103828947D01*
X98323683Y-103854605D01*
X98323683Y-103871710D01*
X98315131Y-103897368D01*
X98298026Y-103914473D01*
X98272368Y-103923026D01*
X98255262Y-103923026D01*
X98229605Y-103914473D01*
X98186841Y-103888815D01*
X98144078Y-103846052D01*
X98118420Y-103803289D01*
X98109868Y-103777631D01*
X98109868Y-103760526D01*
X98118420Y-103734868D01*
D14*
X98209671Y-104275132D02*
X98158356Y-104326447D01*
X98184013Y-104300790D02*
X98094211Y-104210987D01*
X98098487Y-104232369D01*
X98098487Y-104249474D01*
X98094211Y-104262303D01*
X98201119Y-104104079D02*
X98158356Y-104146842D01*
X98196842Y-104193882D01*
X98196842Y-104185329D01*
X98201119Y-104172500D01*
X98222500Y-104151119D01*
X98235329Y-104146842D01*
X98243882Y-104146842D01*
X98256711Y-104151119D01*
X98278092Y-104172500D01*
X98282369Y-104185329D01*
X98282369Y-104193882D01*
X98278092Y-104206711D01*
X98256711Y-104228092D01*
X98243882Y-104232369D01*
X98235329Y-104232369D01*
X98273816Y-104091250D02*
X98363618Y-104181053D01*
X98278092Y-104095527D02*
X98282369Y-104082698D01*
X98299474Y-104065592D01*
X98312303Y-104061316D01*
X98320855Y-104061316D01*
X98333684Y-104065592D01*
X98359342Y-104091250D01*
X98363618Y-104104079D01*
X98363618Y-104112632D01*
X98359342Y-104125461D01*
X98342237Y-104142566D01*
X98329408Y-104146842D01*
D13*
X99151315Y-105161184D02*
X99005921Y-105135526D01*
X99048684Y-105263815D02*
X98869079Y-105084210D01*
X98937500Y-105015789D01*
X98963158Y-105007236D01*
X98980263Y-105007236D01*
X99005921Y-105015789D01*
X99031579Y-105041447D01*
X99040131Y-105067105D01*
X99040131Y-105084210D01*
X99031579Y-105109868D01*
X98963158Y-105178289D01*
X99031579Y-104921710D02*
X99151315Y-104801973D01*
X99253947Y-105058552D01*
D14*
X99263948Y-105320855D02*
X99212632Y-105372171D01*
X99238290Y-105346513D02*
X99148487Y-105256711D01*
X99152763Y-105278092D01*
X99152763Y-105295197D01*
X99148487Y-105308026D01*
X99229737Y-105175461D02*
X99238290Y-105166908D01*
X99251119Y-105162632D01*
X99259671Y-105162632D01*
X99272500Y-105166908D01*
X99293882Y-105179737D01*
X99315263Y-105201119D01*
X99328092Y-105222500D01*
X99332369Y-105235329D01*
X99332369Y-105243882D01*
X99328092Y-105256711D01*
X99319540Y-105265263D01*
X99306711Y-105269540D01*
X99298158Y-105269540D01*
X99285329Y-105265263D01*
X99263948Y-105252434D01*
X99242566Y-105231053D01*
X99229737Y-105209671D01*
X99225461Y-105196842D01*
X99225461Y-105188290D01*
X99229737Y-105175461D01*
X99387961Y-105196842D02*
X99298158Y-105107040D01*
X99362303Y-105154079D02*
X99422171Y-105162632D01*
X99362303Y-105102763D02*
X99362303Y-105171184D01*
D13*
X96965789Y-103146710D02*
X96820394Y-103121052D01*
X96863158Y-103249341D02*
X96683552Y-103069736D01*
X96751973Y-103001315D01*
X96777631Y-102992763D01*
X96794737Y-102992763D01*
X96820394Y-103001315D01*
X96846052Y-103026973D01*
X96854605Y-103052631D01*
X96854605Y-103069736D01*
X96846052Y-103095394D01*
X96777631Y-103163815D01*
X97136841Y-102975657D02*
X97034210Y-103078289D01*
X97085526Y-103026973D02*
X96905921Y-102847368D01*
X96914473Y-102890131D01*
X96914473Y-102924342D01*
X96905921Y-102950000D01*
X97068420Y-102684868D02*
X97085526Y-102667763D01*
X97111184Y-102659210D01*
X97128289Y-102659210D01*
X97153947Y-102667763D01*
X97196710Y-102693421D01*
X97239473Y-102736184D01*
X97265131Y-102778947D01*
X97273683Y-102804605D01*
X97273683Y-102821710D01*
X97265131Y-102847368D01*
X97248026Y-102864473D01*
X97222368Y-102873026D01*
X97205262Y-102873026D01*
X97179605Y-102864473D01*
X97136841Y-102838815D01*
X97094078Y-102796052D01*
X97068420Y-102753289D01*
X97059868Y-102727631D01*
X97059868Y-102710526D01*
X97068420Y-102684868D01*
D14*
X96810394Y-102867301D02*
X96759078Y-102918617D01*
X96784736Y-102892959D02*
X96694933Y-102803157D01*
X96699209Y-102824538D01*
X96699209Y-102841643D01*
X96694933Y-102854472D01*
X96776183Y-102721907D02*
X96784736Y-102713354D01*
X96797565Y-102709078D01*
X96806117Y-102709078D01*
X96818946Y-102713354D01*
X96840328Y-102726183D01*
X96861709Y-102747565D01*
X96874538Y-102768946D01*
X96878815Y-102781775D01*
X96878815Y-102790328D01*
X96874538Y-102803157D01*
X96865986Y-102811709D01*
X96853157Y-102815986D01*
X96844604Y-102815986D01*
X96831775Y-102811709D01*
X96810394Y-102798880D01*
X96789012Y-102777499D01*
X96776183Y-102756117D01*
X96771907Y-102743288D01*
X96771907Y-102734736D01*
X96776183Y-102721907D01*
X96934407Y-102743288D02*
X96844604Y-102653486D01*
X96908749Y-102700525D02*
X96968617Y-102709078D01*
X96908749Y-102649209D02*
X96908749Y-102717630D01*
D13*
X97815789Y-98396710D02*
X97670394Y-98371052D01*
X97713158Y-98499341D02*
X97533552Y-98319736D01*
X97601973Y-98251315D01*
X97627631Y-98242763D01*
X97644737Y-98242763D01*
X97670394Y-98251315D01*
X97696052Y-98276973D01*
X97704605Y-98302631D01*
X97704605Y-98319736D01*
X97696052Y-98345394D01*
X97627631Y-98413815D01*
X97986841Y-98225657D02*
X97884210Y-98328289D01*
X97935526Y-98276973D02*
X97755921Y-98097368D01*
X97764473Y-98140131D01*
X97764473Y-98174342D01*
X97755921Y-98200000D01*
X98157894Y-98054605D02*
X98055262Y-98157236D01*
X98106578Y-98105921D02*
X97926973Y-97926316D01*
X97935526Y-97969079D01*
X97935526Y-98003289D01*
X97926973Y-98028947D01*
D14*
X97981875Y-98383191D02*
X98041744Y-98443059D01*
X97926283Y-98370362D02*
X97969046Y-98455888D01*
X98024638Y-98400296D01*
X97990428Y-98314770D02*
X98050296Y-98254902D01*
X98101612Y-98383191D01*
M02*
